<?xml version="1.0" standalone="no"?>
<!DOCTYPE svg PUBLIC "-//W3C//DTD SVG 1.1//EN" "http://www.w3.org/Graphics/SVG/1.1/DTD/svg11.dtd" >
<svg xmlns="http://www.w3.org/2000/svg" xmlns:xlink="http://www.w3.org/1999/xlink" version="1.1">
<metadata>
Created by FontForge 20201107 at Tue May 21 02:52:48 2024
 By 
Copyright (c) 2024 by Designova. All rights reserved.
</metadata>
<defs>
<font id="NobelUno-LightItalic" horiz-adv-x="0" >
  <font-face 
    font-family="Nobel Uno Light Italic"
    font-weight="300"
    font-style="italic"
    font-stretch="normal"
    units-per-em="2048"
    panose-1="0 0 0 0 0 0 0 0 0 0"
    ascent="1638"
    descent="-410"
    x-height="1012"
    cap-height="1400"
    bbox="-208 -500 2629 2601"
    underline-thickness="50"
    underline-position="-125"
    unicode-range="U+000D-A78C"
  />
<missing-glyph horiz-adv-x="1608" 
d="M195 -1l218 1378h1224l-218 -1378h-1224zM425 165h31l13 83h1l49 -83h29l21 129h-31l-13 -81h-2l-51 81h-26zM470 510l98 -114l346 298l257 -298l136 114l-254 301l344 301l-95 114l-351 -299l-250 299l-136 -114l253 -301zM569 213q-4 -28 18 -43q16 -6 28 -6
q31 0 52 23q7 10 10 26q5 30 -18 44q-12 6 -28 6q-37 0 -52 -24q-9 -12 -10 -26zM599 213q2 15 15 26q4 4 13 4q16 0 19 -14q1 -7 0 -16q-3 -17 -14 -25q-10 -2 -14 -2q-17 0 -17 14q-4 5 -2 13zM730 230q-6 -41 23 -59q17 -7 36 -7q38 0 59 26q9 12 12 28l2 17h-59l-3 -21
h31q-3 -16 -20 -22q-5 -4 -18 -4q-24 0 -30 19q-4 7 -2 23q5 28 24 38q15 5 20 5q28 0 28 -21h31q1 18 -15 33q-16 11 -40 11q-40 0 -64 -30q-10 -12 -15 -36zM869 165h29l21 129h-29zM911 133q10 -4 19 -4q19 0 35 14q5 3 10 13l58 107h-31l-34 -71h-2l-10 71h-33l24 -99
l-3 -5q-4 -11 -23 -7zM1021 129h31l9 52q4 -10 15 -14q3 -3 13 -3q27 0 43 23q6 8 10 26q5 31 -14 45q-13 5 -23 5q-18 0 -27 -9q-6 -4 -7 -9h-1l3 18h-30zM1065 200q-1 6 0 13q3 17 14 25q5 5 12 5q17 0 19 -14q2 -10 1 -16q-3 -15 -14 -25q-8 -2 -15 -2q-14 0 -17 14z
M1149 165h28l9 56q2 14 14 18q4 3 11 3q19 0 16 -19l-9 -58h31l10 62q3 24 -14 33q-12 3 -18 3q-25 0 -37 -18h-1l8 49h-27z" />
    <glyph glyph-name=".notdef" horiz-adv-x="1608" 
d="M195 -1l218 1378h1224l-218 -1378h-1224zM425 165h31l13 83h1l49 -83h29l21 129h-31l-13 -81h-2l-51 81h-26zM470 510l98 -114l346 298l257 -298l136 114l-254 301l344 301l-95 114l-351 -299l-250 299l-136 -114l253 -301zM569 213q-4 -28 18 -43q16 -6 28 -6
q31 0 52 23q7 10 10 26q5 30 -18 44q-12 6 -28 6q-37 0 -52 -24q-9 -12 -10 -26zM599 213q2 15 15 26q4 4 13 4q16 0 19 -14q1 -7 0 -16q-3 -17 -14 -25q-10 -2 -14 -2q-17 0 -17 14q-4 5 -2 13zM730 230q-6 -41 23 -59q17 -7 36 -7q38 0 59 26q9 12 12 28l2 17h-59l-3 -21
h31q-3 -16 -20 -22q-5 -4 -18 -4q-24 0 -30 19q-4 7 -2 23q5 28 24 38q15 5 20 5q28 0 28 -21h31q1 18 -15 33q-16 11 -40 11q-40 0 -64 -30q-10 -12 -15 -36zM869 165h29l21 129h-29zM911 133q10 -4 19 -4q19 0 35 14q5 3 10 13l58 107h-31l-34 -71h-2l-10 71h-33l24 -99
l-3 -5q-4 -11 -23 -7zM1021 129h31l9 52q4 -10 15 -14q3 -3 13 -3q27 0 43 23q6 8 10 26q5 31 -14 45q-13 5 -23 5q-18 0 -27 -9q-6 -4 -7 -9h-1l3 18h-30zM1065 200q-1 6 0 13q3 17 14 25q5 5 12 5q17 0 19 -14q2 -10 1 -16q-3 -15 -14 -25q-8 -2 -15 -2q-14 0 -17 14z
M1149 165h28l9 56q2 14 14 18q4 3 11 3q19 0 16 -19l-9 -58h31l10 62q3 24 -14 33q-12 3 -18 3q-25 0 -37 -18h-1l8 49h-27z" />
    <glyph glyph-name=".null" horiz-adv-x="1248" 
 />
    <glyph glyph-name="nonmarkingreturn" horiz-adv-x="682" 
 />
    <glyph glyph-name="CR" unicode="&#xd;" horiz-adv-x="1248" 
 />
    <glyph glyph-name="space" unicode=" " horiz-adv-x="526" 
 />
    <glyph glyph-name="space" unicode="&#xa0;" horiz-adv-x="526" 
 />
    <glyph glyph-name="exclam" unicode="!" horiz-adv-x="372" 
d="M181 408l157 992h101l-157 -992h-101zM105 40q5 26 27 44.5t50 18.5q27 0 43 -18.5t12 -44.5t-26 -46t-49 -20q-28 0 -44.5 19.5t-12.5 46.5z" />
    <glyph glyph-name="quotedbl" unicode="&#x22;" horiz-adv-x="557" 
d="M257 853l87 547h101l-87 -547h-101zM769 853l87 547h101l-87 -547h-101z" />
    <glyph glyph-name="numbersign" unicode="#" horiz-adv-x="1576" 
d="M229 0l161 365h-233l43 98h231l210 476h-232l42 98h232l160 363h105l-161 -363h518l160 363h104l-161 -363h232l-43 -98h-231l-211 -476h235l-45 -98h-231l-160 -365h-104l160 365h-516l-161 -365h-104zM534 463h519l209 476h-517z" />
    <glyph glyph-name="dollar" unicode="$" horiz-adv-x="1263" 
d="M577 -24q-175 11 -295.5 93t-138.5 208l103 37q12 -110 119 -175t278 -65q110 0 212 37q104 38 169.5 101.5t78.5 147.5q13 87 -35 142q-88 98 -339 145q-135 25 -246 64q-242 87 -205 321q17 104 91.5 189t188 135t247.5 58l32 204h102l-32 -204q180 -10 295 -91
t138 -210l-104 -33q-14 110 -119.5 174t-276.5 64q-112 0 -214 -36q-218 -80 -246 -250q-15 -97 28 -147q42 -51 123.5 -80.5t220.5 -55.5q136 -26 238 -68q248 -105 214 -321q-19 -117 -99 -199q-76 -79 -188.5 -127.5t-237.5 -57.5l-31 -194h-102z" />
    <glyph glyph-name="percent" unicode="%" horiz-adv-x="1201" 
d="M117 0l1066 1400h119l-1066 -1400h-119zM270 1081q14 87 85.5 148t161.5 61q91 0 144 -61t39 -148t-86 -147.5t-163 -60.5q-90 0 -142.5 60.5t-38.5 147.5zM371 1081q-7 -46 20.5 -77t75.5 -31q51 0 87 30.5t44 77.5q8 48 -19 78.5t-78 30.5q-49 0 -86 -31t-44 -78z
M720 320q13 87 85.5 147t163.5 60q90 0 143.5 -60.5t39.5 -146.5q-14 -87 -86.5 -148.5t-162.5 -61.5q-91 0 -144 61.5t-39 148.5zM821 320q-8 -47 20.5 -78.5t77.5 -31.5t86.5 31.5t45.5 78.5q7 45 -21 76t-76 31q-49 0 -87.5 -31t-45.5 -76z" />
    <glyph glyph-name="ampersand" unicode="&#x26;" horiz-adv-x="1513" 
d="M506 -26q-122 0 -207 58q-83 57 -120 147.5t-21 192.5q11 67 35 117t70 100q47 49 127 115l185 153q-114 129 -134 162q-33 56 -20 141q17 111 109 188.5t206 77.5q116 0 184 -77t51 -189q-13 -85 -69 -145q-41 -41 -153 -134q-10 -7 -28 -23l369 -417l252 207l-22 -138
l-171 -142l274 -307l-85 -69l-271 305q-239 -200 -303 -244q-11 -7 -21 -14q-57 -36 -111 -50.5t-126 -14.5zM260 368q-12 -84 19 -148q32 -69 94.5 -107.5t148.5 -38.5q61 0 101.5 12t86.5 43q53 35 237 190l60 51l-372 418l-180 -150q-76 -63 -114 -102q-38 -40 -55 -76
t-26 -92zM523 1160q-7 -41 2.5 -66t43.5 -64q20 -26 88 -103l46 37q12 11 29 24q23 21 51 43q47 39 63.5 63.5t23.5 65.5q11 72 -31.5 119t-118.5 47q-75 0 -130.5 -48.5t-66.5 -117.5z" />
    <glyph glyph-name="quotesingle" unicode="'" horiz-adv-x="300" 
d="M234 853l87 547h101l-87 -547h-101z" />
    <glyph glyph-name="parenleft" unicode="(" horiz-adv-x="671" 
d="M415 -108q-127 123 -168 322.5t-5 431.5q28 179 95 335q118 274 317 419h118q-163 -136 -255 -289q-115 -189 -172 -465q-29 -245 13 -428t175 -326h-118z" />
    <glyph glyph-name="parenright" unicode=")" horiz-adv-x="671" 
d="M103 -108q178 144 278.5 327t147.5 427q23 179 5 323q-28 242 -191 431h117q108 -100 153 -262q62 -217 18 -492q-22 -142 -69 -276q-113 -310 -341 -478h-118z" />
    <glyph glyph-name="asterisk" unicode="*" horiz-adv-x="788" 
d="M368 833l-74 59l170 183l-215 72l46 93l217 -70l37 230h102l-37 -230l238 70l18 -93l-240 -72l112 -183l-93 -59l-110 187z" />
    <glyph glyph-name="plus" unicode="+" horiz-adv-x="1253" 
d="M590 97l73 456h-476l15 100h476l73 456h102l-73 -456h477l-15 -100h-477l-73 -456h-102z" />
    <glyph glyph-name="comma" unicode="," horiz-adv-x="414" 
d="M82 -108l128 369h104l-152 -369h-80z" />
    <glyph glyph-name="hyphen" unicode="-" horiz-adv-x="973" 
d="M228 553l15 100h691l-15 -100h-691z" />
    <glyph glyph-name="period" unicode="." horiz-adv-x="372" 
d="M159 -26q-26 0 -42 20t-12 46t26 44.5t48 18.5q29 0 46 -18.5t12 -44.5q-4 -27 -26.5 -46.5t-51.5 -19.5z" />
    <glyph glyph-name="slash" unicode="/" horiz-adv-x="723" 
d="M82 -108l659 1508h104l-660 -1508h-103z" />
    <glyph glyph-name="zero" unicode="0" horiz-adv-x="1271" 
d="M632 -26q-173 0 -285.5 95.5t-151.5 259t-6 371.5q33 207 123 370t233.5 259.5t316.5 96.5q261 0 381 -215q109 -201 61 -511q-49 -309 -223 -509q-186 -217 -449 -217zM291 700q-29 -185 2.5 -326t122.5 -220.5t232 -79.5q212 0 361 172.5t193 453.5q29 182 -4 325
q-32 145 -120.5 223t-231.5 78q-147 0 -264 -82.5t-189.5 -222t-101.5 -321.5z" />
    <glyph glyph-name="one" unicode="1" horiz-adv-x="467" 
d="M182 0l222 1400h102l-222 -1400h-102z" />
    <glyph glyph-name="two" unicode="2" horiz-adv-x="1141" 
d="M112 79q370 308 478 405q115 100 213 200q204 208 224 332q13 85 -18 156q-34 72 -99.5 113t-153.5 41q-91 0 -169 -42q-88 -46 -143 -121.5t-63 -166.5h-102q14 125 92 227q74 94 180 148.5t221 54.5q113 0 203 -56q88 -56 130 -149.5t24 -204.5q-22 -139 -240 -374
q-240 -260 -600 -543h727l-16 -99h-901z" />
    <glyph glyph-name="three" unicode="3" horiz-adv-x="1041" 
d="M516 -26q-133 0 -226 56q-94 56 -133 154.5t-15 216.5h101q-20 -97 12 -175q64 -152 277 -152q90 0 171 42q89 44 146.5 112t70.5 152q24 151 -77.5 230.5t-300.5 74.5l16 100q178 -5 291.5 64.5t134.5 205.5q12 75 -24 134q-33 64 -96.5 100.5t-142.5 36.5t-154 -37
q-86 -42 -138 -108t-58 -146h-103q16 158 157.5 274.5t311.5 116.5q105 0 190 -51q87 -50 130 -134.5t27 -185.5q-17 -106 -83.5 -189.5t-166.5 -127.5q110 -50 158.5 -142t29.5 -216q-18 -113 -95 -205q-78 -92 -187.5 -146.5t-223.5 -54.5z" />
    <glyph glyph-name="four" unicode="4" horiz-adv-x="1210" 
d="M896 0h-102l49 312h-695l15 89l842 999h113l-157 -989h172l-16 -99h-172zM301 414l558 -3l124 808z" />
    <glyph glyph-name="five" unicode="5" horiz-adv-x="1109" 
d="M213 269q35 -91 113 -143t185 -52q102 0 191 48q94 49 155 127.5t76 174.5q16 96 -21 176t-112.5 125t-161 51t-170 -13t-147.5 -59h-73l185 696h679l-16 -99h-582l-122 -461q97 32 211 34q148 -2 250 -56q107 -55 155.5 -157.5t26.5 -236.5q-19 -122 -98 -225.5
t-196.5 -164t-245.5 -60.5q-130 0 -226 62q-105 63 -148 173z" />
    <glyph glyph-name="six" unicode="6" horiz-adv-x="1152" 
d="M564 -26q-132 0 -240 67q-105 65 -155 175.5t-29 241.5q8 54 27 100t34.5 70.5t57.5 85.5l520 686h119l-378 -498q178 69 347 14q98 -33 163 -96q70 -66 101.5 -159.5t14.5 -202.5q-21 -132 -106 -243.5t-211.5 -176t-264.5 -64.5zM243 460q-17 -109 24 -195
q43 -90 125 -140.5t188 -50.5q118 0 217 54q101 56 165.5 142.5t80.5 189.5q16 102 -23 190q-42 89 -124 139t-192 50q-115 0 -214 -53q-101 -54 -166 -139.5t-81 -186.5z" />
    <glyph glyph-name="seven" unicode="7" horiz-adv-x="1009" 
d="M216 0l819 1301h-772l16 99h895l-13 -83l-831 -1317h-114z" />
    <glyph glyph-name="eight" unicode="8" horiz-adv-x="1115" 
d="M554 -26q-126 0 -221 56q-97 54 -144 146.5t-30 203.5q18 115 100 210t200 148q-84 49 -127 134t-28 183q17 101 88 188q71 84 175.5 133.5t216.5 49.5t200 -51q89 -50 133 -134.5t28 -185.5q-15 -98 -85 -183t-171 -134q102 -53 153 -148t33 -210q-18 -112 -94 -205
q-78 -93 -191 -147t-236 -54zM267 380q-13 -85 23 -152q38 -72 111 -113t169 -41q100 0 184 42q88 43 144.5 111.5t69.5 152.5q13 85 -22 153q-37 72 -109.5 112t-170.5 40t-183 -41q-89 -43 -146 -111.5t-70 -152.5zM412 1055q-12 -75 20 -134q33 -64 97.5 -100t152.5 -36
q86 0 164 37q79 38 129 98t62 135q12 76 -21 135q-33 64 -97 100t-151 36q-90 0 -166 -36q-79 -39 -128.5 -99.5t-61.5 -135.5z" />
    <glyph glyph-name="nine" unicode="9" horiz-adv-x="1111" 
d="M820 543q-79 -29 -158.5 -33t-148.5 15t-127.5 59.5t-97 96t-54.5 129.5t-3 156q20 124 100 230t200 168t251 62q127 0 228 -63q99 -62 146.5 -167.5t28.5 -229.5q-8 -51 -25.5 -94.5t-32 -66.5t-55.5 -82l-548 -723h-116zM330 964q-16 -99 21 -179q41 -84 118 -131.5
t181 -47.5q107 0 201 49q96 51 157 132t77 177q16 102 -24 185q-39 84 -116.5 131.5t-178.5 47.5q-113 0 -205 -51q-95 -51 -155.5 -133t-75.5 -180z" />
    <glyph glyph-name="colon" unicode=":" horiz-adv-x="372" 
d="M303 883q-26 0 -42 19.5t-12 45.5q4 27 26 45.5t48 18.5q30 0 46.5 -18.5t11.5 -45.5q-4 -26 -26.5 -45.5t-51.5 -19.5zM105 40q4 26 26 44.5t48 18.5q29 0 46 -18.5t12 -44.5q-4 -27 -26.5 -46.5t-51.5 -19.5q-26 0 -42 20t-12 46z" />
    <glyph glyph-name="semicolon" unicode=";" horiz-adv-x="421" 
d="M82 -108l128 369h104l-152 -369h-80zM296 947q4 28 27.5 46.5t51.5 18.5q26 0 42 -18.5t12 -46.5q-4 -27 -26.5 -45.5t-47.5 -18.5q-28 0 -45.5 18.5t-13.5 45.5z" />
    <glyph glyph-name="less" unicode="&#x3c;" horiz-adv-x="1253" 
d="M1194 254l-1009 287l19 122l1101 289l-17 -105l-940 -244l863 -246z" />
    <glyph glyph-name="equal" unicode="=" horiz-adv-x="1253" 
d="M216 739l16 100h1055l-16 -100h-1055zM157 367l16 100h1055l-16 -100h-1055z" />
    <glyph glyph-name="greater" unicode="&#x3e;" horiz-adv-x="1253" 
d="M139 254l17 103l940 246l-863 244l17 105l1009 -289l-19 -122z" />
    <glyph glyph-name="question" unicode="?" horiz-adv-x="1014" 
d="M482 -26q-27 0 -43.5 20t-12.5 46t26.5 44.5t49.5 18.5t44 -18.5t13 -44.5t-26.5 -46t-50.5 -20zM264 1035q12 112 86 208q65 85 161 135t201 50q104 0 186 -51q81 -50 119.5 -135.5t22.5 -186.5q-17 -104 -83.5 -192t-166.5 -136q-65 -31 -105.5 -83t-50.5 -116
l-39 -241h-102l39 241q14 91 74 167t151 120q73 35 120.5 98.5t59.5 141.5q12 76 -16 138q-30 64 -88.5 99.5t-136.5 35.5q-129 0 -224 -84t-106 -209h-102z" />
    <glyph glyph-name="at" unicode="@" horiz-adv-x="1751" 
d="M876 -132q-221 -4 -389 80.5t-250 244t-50 362.5q24 153 107 291t202.5 237.5t273 158t313.5 58.5q159 0 293.5 -58.5t222 -158t126.5 -237.5t15 -291q-9 -58 -30.5 -118t-55 -116t-74 -99.5t-92 -70t-105.5 -26.5q-59 0 -111 29q-82 45 -96 134q-128 -139 -314 -139
q-118 0 -204 54q-89 56 -131.5 149t-24.5 203q19 115 92 206q72 92 177 146t219 54q178 0 265 -129l17 110h102l-96 -606q-7 -46 29.5 -79t90.5 -33q88 0 152.5 93.5t87.5 237.5q21 133 -13 252.5t-110 205.5t-192.5 136.5t-255.5 50.5q-187 0 -356 -85t-282 -233t-141 -327
q-21 -133 15 -245.5t118 -188t203.5 -116t267.5 -37.5zM604 555q-13 -87 20 -155q34 -73 99.5 -112.5t153.5 -39.5q126 0 216.5 92.5t112.5 232.5q20 130 -37.5 209.5t-193.5 79.5q-90 0 -170 -41q-82 -43 -135 -111.5t-66 -154.5z" />
    <glyph glyph-name="A" unicode="A" horiz-adv-x="1385" 
d="M99 0l755 1400h121l310 -1400h-108l-89 400h-665l-216 -400h-108zM477 499h589l-171 774z" />
    <glyph glyph-name="B" unicode="B" horiz-adv-x="1197" 
d="M107 0l222 1400h537q168 0 255.5 -96t60.5 -270q-16 -97 -56 -158q-51 -79 -117 -123q181 -87 139 -358l-1 -2q-31 -192 -148.5 -292.5t-287.5 -100.5h-604zM225 99h494q272 0 318 293q24 154 -38 223.5t-188 69.5h-494zM333 785h435q122 0 207.5 63t104.5 186
q21 137 -42.5 202t-187.5 65h-435z" />
    <glyph glyph-name="C" unicode="C" horiz-adv-x="1522" 
d="M806 -29q-215 0 -363 92t-208.5 257t-26.5 380q51 326 277.5 527.5t551.5 201.5q201 0 343.5 -81t210.5 -227l-105 -49q-61 121 -180 187.5t-287 66.5q-277 0 -472 -174t-239 -453q-29 -183 23 -325.5t179 -222t310 -79.5q168 0 308.5 67t239.5 189l89 -50
q-114 -146 -282 -226.5t-369 -80.5z" />
    <glyph glyph-name="D" unicode="D" horiz-adv-x="1409" 
d="M140 0l222 1400h471l3 1q216 0 365 -88t211 -247t29 -365q-50 -314 -275 -507.5t-550 -193.5h-476zM259 99l371 -1q183 0 334.5 76.5t248 213t124.5 312.5t-25.5 312.5t-181 213t-310.5 76.5l-371 -1z" />
    <glyph glyph-name="E" unicode="E" horiz-adv-x="1179" 
d="M140 0l222 1400h919l-16 -99h-816l-82 -519h699l-16 -100h-699l-92 -583h816l-16 -99h-919z" />
    <glyph glyph-name="F" unicode="F" horiz-adv-x="1096" 
d="M140 0l222 1400h919l-16 -99h-816l-82 -519h699l-16 -100h-699l-108 -682h-103z" />
    <glyph glyph-name="G" unicode="G" horiz-adv-x="1515" 
d="M808 -29q-162 0 -287.5 53.5t-202 149t-105 230.5t-3.5 296q34 215 146.5 380t289.5 257t393 92q201 0 343.5 -81t210.5 -227l-105 -49q-61 121 -180 187.5t-287 66.5q-277 0 -472.5 -174t-239.5 -453q-29 -183 23 -325.5t179.5 -222t310.5 -79.5q159 0 294 60.5
t235 172.5l60 378h-625l16 100h726l-81 -514l1 -5q-114 -139 -279.5 -216t-360.5 -77z" />
    <glyph glyph-name="H" unicode="H" horiz-adv-x="1389" 
d="M140 0l222 1400h103l-96 -602h902l96 602h103l-222 -1400h-103l111 699h-902l-111 -699h-103z" />
    <glyph glyph-name="I" unicode="I" horiz-adv-x="446" 
d="M172 0l222 1400h101l-222 -1400h-101z" />
    <glyph glyph-name="J" unicode="J" horiz-adv-x="1312" 
d="M611 -26q-175 0 -291 84q-114 84 -157 228.5t-10 321.5h101q-43 -240 56 -387t317 -147q213 0 356 136.5t181 377.5l129 812h102l-129 -812q-43 -271 -221 -442.5t-434 -171.5z" />
    <glyph glyph-name="K" unicode="K" horiz-adv-x="1089" 
d="M140 0l222 1400h103l-119 -748l775 748h133l-687 -664l452 -736h-129l-404 658l-164 -160l-79 -498h-103z" />
    <glyph glyph-name="L" unicode="L" horiz-adv-x="1179" 
d="M140 0l222 1400h103l-206 -1301h816l-16 -99h-919z" />
    <glyph glyph-name="M" unicode="M" horiz-adv-x="1505" 
d="M140 0l222 1400h96l349 -1068l686 1068h92l-222 -1400h-101l176 1122l-634 -988h-62l-319 988l-180 -1122h-103z" />
    <glyph glyph-name="N" unicode="N" horiz-adv-x="1316" 
d="M140 0l222 1400h99l642 -1210l192 1210h102l-222 -1400h-97l-644 1208l-191 -1208h-103z" />
    <glyph glyph-name="O" unicode="O" horiz-adv-x="1626" 
d="M808 -29q-162 0 -287.5 53.5t-202 149t-105 230.5t-3.5 296q34 215 146.5 380t289.5 257t393 92q215 0 363 -92t208.5 -257t26.5 -380q-51 -326 -277.5 -527.5t-551.5 -201.5zM309 699q-29 -183 23 -325.5t179.5 -222t310.5 -79.5q277 0 472 174t240 453
q29 183 -23.5 325.5t-179.5 222t-310 79.5q-277 0 -472.5 -174t-239.5 -453z" />
    <glyph glyph-name="P" unicode="P" horiz-adv-x="1153" 
d="M140 0l222 1400h487q82 0 151.5 -25t122.5 -75.5t76 -137.5t6 -200q-18 -113 -68 -200t-119.5 -137.5t-147.5 -75.5t-160 -25h-384l-83 -524h-103zM342 623h384q62 0 119.5 17.5t111.5 54t92.5 103t52.5 155.5v1q15 96 -1.5 166.5t-59 108.5t-94 55t-114.5 17h-384z" />
    <glyph glyph-name="Q" unicode="Q" horiz-adv-x="1642" 
d="M808 -29q-162 0 -287.5 53.5t-202 149t-105 230.5t-3.5 296q34 215 146.5 380t289.5 257t393 92q215 0 363 -92t208.5 -257t26.5 -380q-48 -295 -232 -484l145 -165l-84 -69l-141 161q-222 -172 -517 -172zM309 699q-29 -183 23 -325.5t179.5 -222t310.5 -79.5
q248 0 436 146l-237 264l85 72l232 -263q157 165 196 408q29 183 -23.5 325.5t-179.5 222t-310 79.5q-277 0 -472.5 -174t-239.5 -453z" />
    <glyph glyph-name="R" unicode="R" horiz-adv-x="1189" 
d="M140 0l222 1400h487q82 0 151.5 -25t122.5 -75.5t76 -137.5t6 -200q-15 -93 -51 -168t-87 -125.5t-110.5 -83t-126.5 -48.5l238 -537h-119l-234 524h-389l-83 -524h-103zM342 623h384q62 0 119.5 17.5t111.5 54t92.5 103t52.5 155.5v1q15 96 -1.5 166.5t-59 108.5t-94 55
t-114.5 17h-384z" />
    <glyph glyph-name="S" unicode="S" horiz-adv-x="1305" 
d="M646 -26q-115 0 -216 34q-111 37 -183 106.5t-83 162.5l101 37q13 -110 120 -175t277 -65q110 0 214 37q104 38 169 101.5t78 147.5q13 87 -34 142q-88 98 -340 145q-133 25 -245 64q-243 87 -206 321q20 119 107 208q84 83 210 130.5t260 47.5q189 0 325 -82.5
t161 -222.5l-104 -33q-14 110 -120.5 174t-277.5 64q-111 0 -213 -36q-218 -81 -246 -250q-15 -96 29 -147q41 -51 123 -80.5t221 -55.5q139 -27 236 -68q250 -105 216 -321q-18 -116 -107 -207q-86 -85 -211 -132t-261 -47z" />
    <glyph glyph-name="T" unicode="T" horiz-adv-x="1354" 
d="M624 0l206 1301h-525l16 99h1155l-16 -99h-528l-206 -1301h-102z" />
    <glyph glyph-name="U" unicode="U" horiz-adv-x="1400" 
d="M694 -26q-175 0 -288 84q-110 81 -155 220.5t-18 309.5l129 812h103l-129 -812q-37 -232 62.5 -373t311.5 -141q214 0 357 136.5t181 377.5l129 812h103l-129 -812q-43 -272 -221.5 -443t-435.5 -171z" />
    <glyph glyph-name="V" unicode="V" horiz-adv-x="1227" 
d="M567 0l-309 1400h109l271 -1233l664 1233h110l-755 -1400h-90z" />
    <glyph glyph-name="W" unicode="W" horiz-adv-x="1659" 
d="M410 0l-152 1400h105l131 -1217l517 1217h80l133 -1217l515 1217h105l-594 -1400h-112l-127 1154l-490 -1154h-111z" />
    <glyph glyph-name="X" unicode="X" horiz-adv-x="1356" 
d="M78 0l648 704l-420 696h127l369 -613l564 613h127l-639 -696l423 -704h-127l-375 619l-567 -619h-130z" />
    <glyph glyph-name="Y" unicode="Y" horiz-adv-x="1234" 
d="M565 0l100 632l-365 768h120l314 -660l523 660h120l-610 -768l-100 -632h-102z" />
    <glyph glyph-name="Z" unicode="Z" horiz-adv-x="1387" 
d="M99 0l14 87l1236 1214h-1044l16 99h1188l-14 -87l-1236 -1214h1044l-16 -99h-1188z" />
    <glyph glyph-name="bracketleft" unicode="[" horiz-adv-x="547" 
d="M123 -108l239 1508h286l-16 -99h-183l-208 -1311h183l-15 -98h-286z" />
    <glyph glyph-name="backslash" unicode="\" horiz-adv-x="726" 
d="M505 -108l-184 1508h103l185 -1508h-104z" />
    <glyph glyph-name="bracketright" unicode="]" horiz-adv-x="545" 
d="M103 -108l15 98h182l208 1311h-182l16 99h283l-239 -1508h-283z" />
    <glyph glyph-name="asciicircum" unicode="^" horiz-adv-x="756" 
d="M253 971l361 672h49l148 -672h-109l-99 450l-244 -450h-106z" />
    <glyph glyph-name="underscore" unicode="_" horiz-adv-x="1338" 
d="M123 -108l15 98h1056l-15 -98h-1056z" />
    <glyph glyph-name="grave" unicode="`" horiz-adv-x="683" 
d="M735 2260l-66 321h107l40 -321h-81z" />
    <glyph glyph-name="a" unicode="a" horiz-adv-x="1220" 
d="M595 -26q-233 0 -353.5 149t-83.5 383t204.5 382.5t400.5 148.5q135 0 234.5 -52t153.5 -146l27 173h102l-160 -1012h-102l27 173q-84 -95 -200 -147t-250 -52zM261 506q-30 -191 65.5 -309t285.5 -118q189 0 321.5 118t162.5 309q30 190 -65 308.5t-284 118.5
q-190 0 -323 -118t-163 -309z" />
    <glyph glyph-name="b" unicode="b" horiz-adv-x="1262" 
d="M658 -26q-134 0 -234 52t-154 147l-27 -173h-103l237 1497h103l-104 -658q84 94 199.5 146t250.5 52q233 0 353.5 -148.5t83.5 -382.5t-204.5 -383t-400.5 -149zM325 506q-30 -191 65.5 -309t284.5 -118q190 0 322.5 118t162.5 309t-65 309t-285 118q-189 0 -322 -118.5
t-163 -308.5z" />
    <glyph glyph-name="c" unicode="c" horiz-adv-x="1165" 
d="M595 -26q-233 0 -353.5 149t-83.5 383t204.5 382.5t400.5 148.5q176 0 290.5 -89t144.5 -240l-108 -24q-26 116 -115 182t-228 67q-190 0 -323 -118t-163 -309t65.5 -309t285.5 -118q139 0 249 66t173 182l100 -24q-77 -151 -220 -240t-319 -89z" />
    <glyph glyph-name="d" unicode="d" horiz-adv-x="1262" 
d="M595 -26q-233 0 -353.5 149t-83.5 383t204.5 382.5t400.5 148.5q135 0 234.5 -52t153.5 -146l104 658h102l-237 -1497h-102l27 173q-84 -95 -200 -147t-250 -52zM261 506q-30 -191 65.5 -309t285.5 -118q189 0 321.5 118t162.5 309q30 190 -65 308.5t-284 118.5
q-190 0 -323 -118t-163 -309z" />
    <glyph glyph-name="e" unicode="e" horiz-adv-x="1198" 
d="M595 -26q-233 0 -353.5 149t-83.5 383t204.5 382.5t400.5 148.5q232 0 353 -149t84 -382l-8 -50h-937q-11 -171 84.5 -274t272.5 -103q139 0 249 66t173 182l100 -24q-77 -151 -220 -240t-319 -89zM271 555h831q12 171 -83 274.5t-272 103.5t-305 -103.5t-171 -274.5z
" />
    <glyph glyph-name="f" unicode="f" horiz-adv-x="712" 
d="M229 0l145 913h-162l15 99h162l43 271q16 100 98 168.5t187 68.5q55 0 101.5 -22t73.5 -63l-83 -70q-33 57 -108 57q-62 0 -110 -40t-58 -99l-43 -271h327l-15 -99h-327l-145 -913h-101z" />
    <glyph glyph-name="g" unicode="g" horiz-adv-x="1262" 
d="M261 506q-30 -191 65.5 -309t285.5 -118q189 0 321.5 118t162.5 309q30 190 -65 308.5t-284 118.5q-190 0 -323 -118t-163 -309zM107 -149l101 38q11 -120 111 -205t236 -85q156 0 295 109t161 249l34 216q-84 -95 -200 -147t-250 -52q-233 0 -353.5 149t-83.5 383
t204.5 382.5t400.5 148.5q135 0 234.5 -52t153.5 -146l27 173h102l-167 -1055q-19 -118 -106.5 -224.5t-214 -169.5t-252.5 -63q-164 0 -288.5 102t-144.5 249z" />
    <glyph glyph-name="h" unicode="h" horiz-adv-x="1132" 
d="M140 0l237 1497h103l-97 -613q74 72 170.5 113.5t197.5 41.5q120 0 216 -57q93 -59 136.5 -156.5t25.5 -214.5l-97 -611h-101l97 611q15 91 -22 166q-35 76 -105.5 119t-165.5 43t-180 -44q-88 -45 -144.5 -118.5t-70.5 -165.5l-97 -611h-103z" />
    <glyph glyph-name="i" unicode="i" horiz-adv-x="413" 
d="M170 0l160 1012h103l-160 -1012h-103zM370 1309q4 26 26 44.5t48 18.5q29 0 46 -18.5t12 -44.5q-4 -27 -26.5 -46.5t-51.5 -19.5q-26 0 -42 20t-12 46z" />
    <glyph glyph-name="j" unicode="j" horiz-adv-x="505" 
d="M-111 -386q137 -6 236 68t119 195l179 1135h101l-179 -1135q-16 -100 -82 -184q-67 -87 -169.5 -135t-220.5 -43zM463 1309q4 26 26 44.5t48 18.5q29 0 46 -18.5t12 -44.5q-4 -27 -26.5 -46.5t-51.5 -19.5q-26 0 -42 20t-12 46z" />
    <glyph glyph-name="k" unicode="k" horiz-adv-x="1023" 
d="M140 0l237 1497h103l-171 -1080l615 595h135l-426 -410l269 -602h-116l-234 522l-267 -258l-42 -264h-103z" />
    <glyph glyph-name="l" unicode="l" horiz-adv-x="385" 
d="M140 0l237 1497h103l-237 -1497h-103z" />
    <glyph glyph-name="m" unicode="m" horiz-adv-x="1881" 
d="M140 0l160 1012h103l-20 -129q75 73 170.5 114.5t197.5 41.5q116 0 207 -53t138 -143q75 90 182.5 143t222.5 53q121 0 215 -57q93 -59 137 -156.5t26 -214.5l-97 -611h-102l96 607q14 88 -19 165q-34 78 -102 122.5t-160 44.5q-93 0 -174 -42q-87 -44 -142.5 -117.5
t-70.5 -172.5l-96 -607h-101l96 607q16 98 -18 174q-33 75 -101.5 116.5t-162.5 41.5q-90 0 -173 -44q-86 -49 -142.5 -124.5t-70.5 -163.5l-96 -607h-103z" />
    <glyph glyph-name="n" unicode="n" horiz-adv-x="1132" 
d="M300 1012h103l-20 -128q74 73 170.5 114t197.5 41q121 0 216 -57q93 -60 136.5 -157.5t25.5 -213.5l-97 -611h-101l97 611q15 91 -22 166q-36 77 -106.5 119.5t-164.5 42.5q-95 0 -180 -44q-89 -45 -145 -119t-70 -165l-97 -611h-103z" />
    <glyph glyph-name="o" unicode="o" horiz-adv-x="1198" 
d="M595 -26q-233 0 -353.5 149t-83.5 383t204.5 382.5t400.5 148.5q232 0 353 -149t84 -382q-37 -234 -205 -383t-400 -149zM261 506q-30 -191 65.5 -309t285.5 -118q189 0 321.5 118t162.5 309q30 190 -65 308.5t-284 118.5q-190 0 -323 -118t-163 -309z" />
    <glyph glyph-name="p" unicode="p" horiz-adv-x="1262" 
d="M63 -488l237 1497h103l-28 -173q85 94 200.5 146t250.5 52q233 0 353.5 -148.5t83.5 -382.5t-205 -383t-401 -149q-134 0 -233.5 52.5t-153.5 146.5l-104 -658h-103zM325 503q-30 -190 65 -308.5t284 -118.5q190 0 323 118t163 309q30 190 -65.5 308.5t-285.5 118.5
q-189 0 -321.5 -118t-162.5 -309z" />
    <glyph glyph-name="q" unicode="q" horiz-adv-x="1262" 
d="M1045 173q-84 -95 -200 -147t-250 -52q-233 0 -353.5 149t-83.5 383t204.5 382.5t400.5 148.5q135 0 234.5 -52t153.5 -146l27 173h102l-237 -1497h-102zM261 506q-30 -191 65.5 -309t285.5 -118q189 0 321.5 118t162.5 309q30 190 -65 308.5t-284 118.5
q-190 0 -323 -118t-163 -309z" />
    <glyph glyph-name="r" unicode="r" horiz-adv-x="766" 
d="M140 0l160 1012h103l-20 -128q74 72 170.5 113.5t197.5 41.5q75 0 139 -22l-56 -91q-52 13 -99 13q-95 0 -180 -44q-88 -45 -144.5 -118.5t-70.5 -165.5l-97 -611h-103z" />
    <glyph glyph-name="s" unicode="s" horiz-adv-x="938" 
d="M464 -22q-83 0 -159 26q-88 28 -142.5 84t-60.5 132l102 37q3 -81 77 -129t199 -48q70 0 137 20.5t118.5 65.5t60.5 107q6 36 -8.5 66t-39 49.5t-64.5 35t-73 24t-77 16.5q-97 18 -179 48q-182 64 -154 243q13 91 82 160q65 64 157.5 99.5t192.5 35.5q145 0 249 -66.5
t116 -176.5l-105 -35q-3 82 -76 129t-200 47q-111 0 -206 -51.5t-109 -141.5q-10 -61 20 -94q29 -35 85.5 -55t155.5 -39q112 -22 174 -51q187 -80 161 -243q-14 -92 -82 -159q-64 -65 -157.5 -100.5t-194.5 -35.5z" />
    <glyph glyph-name="t" unicode="t" horiz-adv-x="756" 
d="M685 38q-65 -38 -140 -38q-105 0 -165.5 69t-44.5 169l107 675h-208l15 99h208l49 305h102l-4 -21l-44 -284h278l-15 -99h-279l-107 -675q-10 -60 26 -99.5t98 -39.5q58 0 140 43z" />
    <glyph glyph-name="u" unicode="u" horiz-adv-x="1089" 
d="M541 -26q-123 0 -216 59q-93 57 -137 154.5t-25 214.5l96 610h101l-96 -610q-15 -90 21 -164q35 -77 106 -120.5t166 -43.5q96 0 179 45q87 45 144 118.5t72 164.5l96 610h102l-160 -1012h-102l21 130q-75 -72 -171.5 -114t-196.5 -42z" />
    <glyph glyph-name="v" unicode="v" horiz-adv-x="1031" 
d="M466 0l-227 1016h108l192 -865l466 865h109l-547 -1016h-101z" />
    <glyph glyph-name="w" unicode="w" horiz-adv-x="1679" 
d="M433 0l-195 1012h102l168 -859l437 859h107l166 -859l438 859h104l-514 -1012h-100l-171 871l-444 -871h-98z" />
    <glyph glyph-name="x" unicode="x" horiz-adv-x="1099" 
d="M99 0l466 508l-305 508h126l257 -424l389 424h128l-468 -508l307 -508h-128l-255 425l-390 -425h-127z" />
    <glyph glyph-name="y" unicode="y" horiz-adv-x="1055" 
d="M200 -485l272 506l-213 991h111l177 -851l461 851h107l-807 -1497h-108z" />
    <glyph glyph-name="z" unicode="z" horiz-adv-x="1105" 
d="M99 0l14 87l889 826h-758l15 99h907l-13 -87l-890 -826h759l-16 -99h-907z" />
    <glyph glyph-name="braceleft" unicode="{" horiz-adv-x="881" 
d="M675 -110q-105 0 -184 48q-78 49 -115 131.5t-21 180.5l37 238q3 25 -14 38t-56 29q-20 7 -31.5 13t-26 16.5t-20 25.5t-2.5 34q4 22 15 38t30 27t32 16.5t36 12.5q25 9 32.5 12t23 11t22 17.5t9.5 23.5l38 238q15 99 80 182q64 82 157.5 130t196.5 48h68l-16 -99h-68
q-75 0 -142 -35q-71 -37 -116.5 -95.5t-56.5 -130.5l-39 -242q-7 -42 -28 -72q-14 -20 -40 -37.5t-78 -44.5q27 -15 54 -34q30 -21 39.5 -47t4.5 -72l-38 -241q-18 -113 48 -187.5t184 -74.5h68l-15 -98h-68z" />
    <glyph glyph-name="bar" unicode="|" horiz-adv-x="425" 
d="M115 -293l268 1693h102l-268 -1693h-102z" />
    <glyph glyph-name="braceright" unicode="}" horiz-adv-x="880" 
d="M103 -110l15 98h68q118 0 208 74.5t108 187.5l38 240q9 48 26 72q14 20 42 38.5t77 43.5q-23 15 -51 34q-31 21 -41 47t-5 73l39 242q11 74 -18 131q-28 62 -83.5 96t-131.5 34h-68l16 99h68q107 0 181 -49q79 -49 116.5 -131.5t22.5 -179.5l-38 -238q-2 -14 1.5 -23.5
t15.5 -17.5t19.5 -11.5t29.5 -11.5q20 -7 32 -12.5t27 -16.5t21 -27t2 -38q-4 -25 -23.5 -44t-37 -27t-47.5 -18q-30 -11 -44 -17t-28.5 -19.5t-17.5 -30.5l-37 -238q-16 -95 -81 -181q-64 -82 -157.5 -130.5t-195.5 -48.5h-68z" />
    <glyph glyph-name="asciitilde" unicode="~" horiz-adv-x="1254" 
d="M965 430q-45 0 -101 23.5t-88.5 44.5t-97.5 66q-52 38 -81.5 57t-69 36.5t-69.5 16.5q-83 2 -135.5 -60t-33.5 -141l-103 -23q-18 82 23 163q40 72 112.5 117.5t154.5 45.5q42 0 89 -19t80 -40.5t96 -66.5q3 -2 21.5 -15t24 -16.5t23 -15.5t25 -16.5t24 -14t26 -13.5
t24.5 -10.5t26 -9t23.5 -5t24.5 -2.5q84 0 138 60t32 134l104 30q20 -93 -26 -170q-41 -70 -113.5 -113t-152.5 -43z" />
    <glyph glyph-name="exclamdown" unicode="&#xa1;" horiz-adv-x="330" 
d="M52 -388l157 992h102l-157 -992h-102zM253 972q4 28 26 46.5t48 18.5q29 0 45.5 -18.5t12.5 -46.5q-5 -27 -27 -45t-51 -18q-26 0 -42 18.5t-12 44.5z" />
    <glyph glyph-name="cent" unicode="&#xa2;" horiz-adv-x="1192" 
d="M604 196q-126 12 -219 78q-101 71 -148.5 183.5t-26.5 244.5q21 136 104 247q82 108 200 176t250 81l31 194h103l-31 -194q131 -10 230.5 -79.5t144.5 -179.5l-95 -49q-40 97 -133.5 155t-209.5 58q-117 0 -223 -55q-109 -58 -180.5 -150t-89.5 -204q-18 -116 26 -208
q45 -95 133.5 -149t203.5 -54q116 0 228 58t183 155l79 -49q-80 -109 -202 -179t-255 -80l-31 -196h-103z" />
    <glyph glyph-name="sterling" unicode="&#xa3;" horiz-adv-x="1227" 
d="M138 100q133 -6 232.5 53t115.5 159q14 79 -2 123q-1 1 -1 4h-291l15 100h212q-16 16 -50 46q-46 39 -73 75q-77 99 -49 273q21 134 108 247.5t215.5 179.5t268.5 66q144 0 253.5 -69t158 -187.5t20.5 -256.5h-101q23 120 -20 217q-44 92 -129 144t-198 52
q-116 0 -215 -54q-105 -55 -174 -143t-86 -196q-14 -88 0 -143q14 -50 41.5 -84.5t72.5 -69.5q45 -36 74 -68q16 -18 22 -29h438l-15 -100h-388q6 -57 -5 -127q-10 -62 -50.5 -117.5t-104.5 -95.5h710l-16 -99h-1005z" />
    <glyph glyph-name="currency" unicode="&#xa4;" horiz-adv-x="1058" 
d="M215 287l-60 69l142 120q-62 101 -42 224t115 222l-106 122l82 69l109 -122q114 76 243.5 76.5t220.5 -74.5l144 120l60 -69l-141 -120q64 -101 44.5 -225t-114.5 -225l102 -118l-82 -69l-104 118q-119 -79 -247.5 -78.5t-222.5 80.5zM359 698q-13 -77 16 -137
q31 -63 89.5 -98.5t133.5 -35.5q121 0 214.5 77.5t112.5 193.5q18 116 -50.5 192.5t-191.5 76.5t-214.5 -76t-109.5 -193z" />
    <glyph glyph-name="yen" unicode="&#xa5;" horiz-adv-x="1275" 
d="M585 0l35 221h-338l16 99h338l25 158h-338l16 100h338l8 54l-364 768h119l314 -660l524 660h119l-609 -768l-8 -54h338l-16 -100h-338l-25 -158h338l-16 -99h-338l-35 -221h-103z" />
    <glyph glyph-name="brokenbar" unicode="&#xa6;" horiz-adv-x="385" 
d="M240 631l122 769h103l-122 -769h-103zM94 -293l121 769h103l-121 -769h-103z" />
    <glyph glyph-name="section" unicode="&#xa7;" horiz-adv-x="1152" 
d="M529 -412q-138 0 -240 63t-118 159l99 51q5 -77 84 -125t191 -48q125 0 213 53t101 138q9 59 -17 92q-25 33 -82.5 55.5t-158.5 43.5q-129 29 -220 82q-199 114 -161 352q19 123 107 224.5t215 149.5q-222 55 -191 255q15 90 81 157q64 63 157.5 98.5t194.5 35.5
q138 0 238.5 -63t117.5 -160l-98 -49q-7 77 -85 124.5t-189 47.5q-125 0 -214 -53.5t-102 -137.5q-8 -58 17 -91t82 -55.5t160 -44.5q133 -31 222 -82q196 -111 158 -356q-19 -122 -107 -223t-214 -149q222 -56 191 -253q-15 -92 -82 -156q-64 -64 -157.5 -99.5
t-192.5 -35.5zM323 504q-15 -89 23 -157q37 -73 106 -113.5t154 -40.5q93 0 173 42q85 43 140 111t68 152q16 102 -21 173q-39 71 -108 109.5t-153 38.5q-92 0 -174 -41q-86 -42 -140 -112.5t-68 -161.5z" />
    <glyph glyph-name="dieresis" unicode="&#xa8;" horiz-adv-x="1293" 
d="M1147 2239q-28 0 -46 18.5t-14 45.5t28 46t52 19q25 0 43 -19.5t14 -45.5q-4 -27 -28 -45.5t-49 -18.5zM831 2303q4 26 28.5 45.5t50.5 19.5t44 -19.5t14 -45.5q-4 -27 -27.5 -45.5t-50.5 -18.5t-45 18.5t-14 45.5z" />
    <glyph glyph-name="copyright" unicode="&#xa9;" horiz-adv-x="1825" 
d="M891 -134q-167 0 -308 61t-233 165t-133 249t-16 305t112 304.5t212 248.5t285.5 165.5t327.5 61.5t308.5 -61.5t233.5 -165.5t132.5 -248.5t15.5 -304.5q-34 -214 -170.5 -393.5t-340 -283t-426.5 -103.5zM302 646q-22 -142 14 -269t117.5 -216.5t205 -142t268.5 -52.5
q198 0 376 91t296 247t147 342q30 188 -40 345.5t-220 247t-344 87.5q-197 -1 -375 -92.5t-296.5 -247t-148.5 -340.5zM498 646q23 145 113.5 268t223.5 193.5t276 70.5q133 0 238.5 -62.5t158.5 -168.5l-96 -46q-48 85 -132.5 131.5t-184.5 46.5q-118 0 -224 -58
q-109 -61 -180 -159.5t-90 -215.5q-19 -118 23 -217q44 -101 131 -158t203 -57q105 0 203.5 48.5t169.5 129.5l82 -45q-87 -107 -212.5 -170t-258.5 -63q-143 0 -253 73q-110 72 -162 193.5t-29 265.5z" />
    <glyph glyph-name="ordfeminine" unicode="&#xaa;" horiz-adv-x="840" 
d="M537 732q-147 0 -223.5 95t-53.5 243q24 149 130 243t254 94q174 0 246 -125l17 110h65l-101 -643h-65l17 109q-113 -126 -286 -126zM325 1070q-19 -121 41.5 -196t181.5 -75q120 0 204 75t103 196q20 121 -40.5 196t-181.5 75q-120 0 -204 -75t-104 -196z" />
    <glyph glyph-name="guillemotleft" unicode="&#xab;" horiz-adv-x="1453" 
d="M536 253l-268 351l379 349h137l-378 -350l267 -350h-137zM915 604l379 349h137l-378 -350l267 -350h-137z" />
    <glyph glyph-name="logicalnot" unicode="&#xac;" horiz-adv-x="1024" 
d="M873 325l73 457h-723l16 99h825l-89 -556h-102z" />
    <glyph glyph-name="uni00AD" unicode="&#xad;" horiz-adv-x="1039" 
d="M320 553l15 100h691l-15 -100h-691z" />
    <glyph glyph-name="registered" unicode="&#xae;" horiz-adv-x="986" 
d="M571 497q-175 2 -276 118t-75 279q26 165 165 281.5t312 116.5q174 0 275.5 -117.5t76.5 -280.5q-26 -163 -166 -279t-312 -118zM322 894q-13 -81 18 -148q33 -70 97 -109.5t150 -39.5q87 0 163 41q80 41 132 107.5t65 148.5q12 82 -19 150q-34 70 -97.5 109t-149.5 39
q-84 0 -163 -40q-80 -42 -131.5 -109t-64.5 -149zM470 693l65 410h161q53 0 83 -36.5t22 -90.5q-6 -37 -30.5 -68t-59.5 -46l75 -169h-119l-70 158l-25 -158h-102zM612 950h59q24 0 29 26q4 28 -20 28h-59z" />
    <glyph glyph-name="macron" unicode="&#xaf;" horiz-adv-x="1305" 
d="M564 1738l16 99h726l-16 -99h-726z" />
    <glyph glyph-name="degree" unicode="&#xb0;" horiz-adv-x="628" 
d="M450 862q-90 0 -143 60t-39 147q14 88 85.5 147.5t161.5 59.5q92 0 144.5 -59.5t38.5 -147.5q-14 -87 -85.5 -147t-162.5 -60zM369 1069q-7 -46 20 -77t76 -31q51 0 87 30.5t44 77.5t-19 77t-78 30q-49 0 -86 -30t-44 -77z" />
    <glyph glyph-name="plusminus" unicode="&#xb1;" horiz-adv-x="1253" 
d="M618 272l75 475h-476l16 100h476l72 456h102l-72 -456h477l-16 -100h-477l-75 -475h-102zM99 0l16 99h1055l-16 -99h-1055z" />
    <glyph glyph-name="acute" unicode="&#xb4;" horiz-adv-x="682" 
d="M616 2260l145 321h105l-168 -321h-82z" />
    <glyph glyph-name="uni00B5" unicode="&#xb5;" horiz-adv-x="1112" 
d="M56 -419l226 1431h101l-87 -552q-18 -109 17 -195q34 -90 103.5 -140.5t164.5 -50.5q92 0 178 52q89 53 148.5 140t76.5 194l87 552h102l-160 -1012h-102l24 153q-79 -86 -174.5 -132.5t-195.5 -46.5q-105 0 -187 48.5t-131 130.5l-90 -572h-101z" />
    <glyph glyph-name="paragraph" unicode="&#xb6;" horiz-adv-x="789" 
d="M553 697q-92 6 -155 48q-76 46 -112 126.5t-21 176.5q15 98 78 177q63 81 153 128t190 47h82l-268 -1693h-103zM541 -293l268 1693h103l-268 -1693h-103z" />
    <glyph glyph-name="periodcentered" unicode="&#xb7;" horiz-adv-x="330" 
d="M248 539q-26 0 -42 19t-11 45q4 27 25.5 45.5t48.5 18.5q29 0 45.5 -18.5t12.5 -45.5q-5 -26 -27.5 -45t-51.5 -19z" />
    <glyph glyph-name="cedilla" unicode="&#xb8;" horiz-adv-x="1331" 
d="M623 -349q-74 -19 -131 21.5t-56 113.5l105 24q-7 -35 14.5 -53t56.5 -9q30 7 46 27t12 47q-3 26 -23.5 38t-48.5 5l-126 -29l185 241l83 -48l-55 -71q36 -14 60 -42.5t28 -67.5q8 -64 -36 -122.5t-114 -74.5z" />
    <glyph glyph-name="ordmasculine" unicode="&#xba;" horiz-adv-x="838" 
d="M536 735q-147 0 -223 94.5t-53 241.5q23 148 129 242t254 94t224 -94t53 -242q-23 -147 -130 -241.5t-254 -94.5zM326 1071q-20 -121 40.5 -195.5t180.5 -74.5t203.5 74.5t103.5 195.5q19 121 -41 196t-180 75t-204 -75t-103 -196z" />
    <glyph glyph-name="guillemotright" unicode="&#xbb;" horiz-adv-x="1447" 
d="M857 253l379 350l-268 350h136l268 -349l-379 -351h-136zM210 253l379 350l-268 350h136l268 -349l-379 -351h-136z" />
    <glyph glyph-name="questiondown" unicode="&#xbf;" horiz-adv-x="973" 
d="M651 1037q26 0 42.5 -19.5t12.5 -45.5t-26.5 -44.5t-48.5 -18.5q-29 0 -45.5 18.5t-12.5 44.5t27 45.5t51 19.5zM92 -43q17 104 83.5 191.5t166.5 136.5q65 31 105.5 82.5t51.5 116.5l38 241h101l-38 -241q-15 -91 -75 -167.5t-151 -120.5q-73 -35 -120 -98t-60 -141
q-12 -77 17 -138q64 -135 226 -135q128 0 223 84t106 209h101q-12 -115 -85 -208q-65 -85 -161 -134.5t-200 -49.5q-109 0 -188 50q-80 50 -118.5 135.5t-22.5 186.5z" />
    <glyph glyph-name="Agrave" unicode="&#xc0;" horiz-adv-x="1417" 
d="M131 0l755 1400h121l310 -1400h-108l-89 400h-665l-216 -400h-108zM509 499h589l-171 774zM929 1981h107l40 -321h-81z" />
    <glyph glyph-name="Aacute" unicode="&#xc1;" horiz-adv-x="1417" 
d="M131 0l755 1400h121l310 -1400h-108l-89 400h-665l-216 -400h-108zM509 499h589l-171 774zM938 1660l145 321h105l-168 -321h-82z" />
    <glyph glyph-name="Acircumflex" unicode="&#xc2;" horiz-adv-x="1417" 
d="M131 0l755 1400h121l310 -1400h-108l-89 400h-665l-216 -400h-108zM509 499h589l-171 774zM735 1660l274 321h82l173 -321h-129l-107 189l-164 -189h-129z" />
    <glyph glyph-name="Atilde" unicode="&#xc3;" horiz-adv-x="1417" 
d="M131 0l755 1400h121l310 -1400h-108l-89 400h-665l-216 -400h-108zM509 499h589l-171 774zM694 1689q-27 75 35 148t152 73q28 0 62 -13.5t56 -27t58 -37.5q4 -3 16.5 -11t17 -10.5t15.5 -9t16 -9.5t14 -7.5t14.5 -6.5t13 -4.5t14 -3.5t12.5 -1q33 0 54 36q20 33 2 49
q-5 5 -13 6l115 34q25 -79 -37 -152t-153 -73q-28 0 -60.5 14t-48.5 24.5t-55 37.5q-32 23 -48.5 34t-41.5 21.5t-45 10.5q-35 0 -56 -29t-8 -67z" />
    <glyph glyph-name="Adieresis" unicode="&#xc4;" horiz-adv-x="1417" 
d="M131 0l755 1400h121l310 -1400h-108l-89 400h-665l-216 -400h-108zM509 499h589l-171 774zM774 1730q4 26 28.5 45.5t50.5 19.5q27 0 44.5 -19.5t13.5 -45.5q-4 -27 -27.5 -45.5t-50.5 -18.5t-45 18.5t-14 45.5zM1030 1730q4 27 28 46t52 19q25 0 43 -19.5t14 -45.5
q-4 -27 -28 -45.5t-49 -18.5q-28 0 -46 18.5t-14 45.5z" />
    <glyph glyph-name="Aring" unicode="&#xc5;" horiz-adv-x="1417" 
d="M131 0l755 1400h121l310 -1400h-108l-89 400h-665l-216 -400h-108zM509 499h589l-171 774zM857 1821q11 64 65 109.5t120 45.5t106.5 -46t30.5 -109q-10 -64 -65 -110t-121 -46t-106 46t-30 110zM946 1821q-4 -31 12.5 -50t47.5 -19q33 0 55 19t27 50q5 29 -11.5 47
t-48.5 18q-31 0 -54.5 -18.5t-27.5 -46.5z" />
    <glyph glyph-name="AE" unicode="&#xc6;" horiz-adv-x="1917" 
d="M1123 781h675l-15 -93h-675l-94 -595h808l-15 -93h-908l60 381h-539l-204 -381h-107l755 1400h1165l-15 -93h-808zM470 474h504l132 833h-185z" />
    <glyph glyph-name="Ccedilla" unicode="&#xc7;" horiz-adv-x="1545" 
d="M785 -386q-74 -19 -131 21.5t-56 113.5l105 24q-6 -35 15 -53t56 -9q30 7 46 27t12 47q-3 26 -23.5 38t-48.5 5l-126 -29l134 174q-296 20 -441 219t-96 508q51 326 277.5 527.5t551.5 201.5q201 0 343.5 -81t210.5 -227l-105 -49q-61 121 -180 187.5t-287 66.5
q-277 0 -472 -174t-239 -453q-29 -183 23 -325.5t179 -222t310 -79.5q168 0 308.5 67t239.5 189l89 -50q-106 -135 -258 -214.5t-335 -90.5l-40 -52q36 -14 60 -42.5t28 -67.5q9 -64 -35.5 -122t-114.5 -75z" />
    <glyph glyph-name="Egrave" unicode="&#xc8;" horiz-adv-x="1204" 
d="M165 0l222 1400h919l-16 -99h-816l-82 -519h699l-16 -100h-699l-92 -583h816l-16 -99h-919zM812 1981h107l40 -321h-81z" />
    <glyph glyph-name="Eacute" unicode="&#xc9;" horiz-adv-x="1204" 
d="M165 0l222 1400h919l-16 -99h-816l-82 -519h699l-16 -100h-699l-92 -583h816l-16 -99h-919zM837 1660l145 321h105l-168 -321h-82z" />
    <glyph glyph-name="Ecircumflex" unicode="&#xca;" horiz-adv-x="1204" 
d="M165 0l222 1400h919l-16 -99h-816l-82 -519h699l-16 -100h-699l-92 -583h816l-16 -99h-919zM684 1660l274 321h82l173 -321h-129l-107 189l-164 -189h-129z" />
    <glyph glyph-name="Edieresis" unicode="&#xcb;" horiz-adv-x="1204" 
d="M165 0l222 1400h919l-16 -99h-816l-82 -519h699l-16 -100h-699l-92 -583h816l-16 -99h-919zM701 1712q4 26 28.5 45.5t50.5 19.5q27 0 44.5 -19.5t13.5 -45.5q-4 -27 -27.5 -45.5t-50.5 -18.5t-45 18.5t-14 45.5zM957 1712q4 27 28 46t52 19q25 0 43 -19.5t14 -45.5
q-4 -27 -28 -45.5t-49 -18.5q-28 0 -46 18.5t-14 45.5z" />
    <glyph glyph-name="Igrave" unicode="&#xcc;" horiz-adv-x="459" 
d="M208 0l222 1400h101l-222 -1400h-101zM463 1981h107l40 -321h-81z" />
    <glyph glyph-name="Iacute" unicode="&#xcd;" horiz-adv-x="452" 
d="M198 0l222 1400h101l-222 -1400h-101zM465 1660l145 321h105l-168 -321h-82z" />
    <glyph glyph-name="Icircumflex" unicode="&#xce;" horiz-adv-x="472" 
d="M212 0l222 1400h101l-222 -1400h-101zM266 1660l274 321h82l173 -321h-129l-107 189l-164 -189h-129z" />
    <glyph glyph-name="Idieresis" unicode="&#xcf;" horiz-adv-x="438" 
d="M205 0l222 1400h101l-222 -1400h-101zM324 1703q4 26 28.5 45.5t50.5 19.5t44 -19.5t14 -45.5q-4 -27 -27.5 -45.5t-50.5 -18.5t-45 18.5t-14 45.5zM580 1703q4 27 28 46t52 19q25 0 43 -19.5t14 -45.5q-4 -27 -28 -45.5t-49 -18.5q-28 0 -46 18.5t-14 45.5z" />
    <glyph glyph-name="Eth" unicode="&#xd0;" horiz-adv-x="1268" 
d="M169 0l95 598h-271l15 99h271l112 703h471l3 1q216 0 365 -88t211 -247t29 -365q-50 -314 -275 -507.5t-550 -193.5h-476zM288 99l371 -1q183 0 334.5 76.5t248 213t124.5 312.5t-25.5 312.5t-181 213t-310.5 76.5l-371 -1l-96 -604h352l-15 -99h-352z" />
    <glyph glyph-name="Ntilde" unicode="&#xd1;" horiz-adv-x="1341" 
d="M165 0l222 1400h99l642 -1210l192 1210h102l-222 -1400h-97l-644 1208l-191 -1208h-103zM636 1685q-27 75 35 148t152 73q28 0 62.5 -13.5t56 -26.5t58.5 -38q37 -24 51.5 -33t39 -19.5t42.5 -10.5q33 0 54 36q19 33 1 49q-5 5 -13 6l115 34q26 -78 -36 -151.5
t-153 -73.5q-28 0 -60 13.5t-50.5 25.5t-53.5 37q-34 24 -50 34t-41 21t-45 11q-35 0 -56 -29t-8 -67z" />
    <glyph glyph-name="Ograve" unicode="&#xd2;" horiz-adv-x="1649" 
d="M831 -29q-162 0 -287.5 53.5t-202 149t-105 230.5t-3.5 296q34 215 146.5 380t289.5 257t393 92q215 0 363 -92t208.5 -257t26.5 -380q-51 -326 -277.5 -527.5t-551.5 -201.5zM332 699q-29 -183 23 -325.5t179.5 -222t310.5 -79.5q277 0 472 174t240 453
q29 183 -23.5 325.5t-179.5 222t-310 79.5q-277 0 -472.5 -174t-239.5 -453zM1048 1981h107l40 -321h-81z" />
    <glyph glyph-name="Oacute" unicode="&#xd3;" horiz-adv-x="1649" 
d="M831 -29q-162 0 -287.5 53.5t-202 149t-105 230.5t-3.5 296q34 215 146.5 380t289.5 257t393 92q215 0 363 -92t208.5 -257t26.5 -380q-51 -326 -277.5 -527.5t-551.5 -201.5zM332 699q-29 -183 23 -325.5t179.5 -222t310.5 -79.5q277 0 472 174t240 453
q29 183 -23.5 325.5t-179.5 222t-310 79.5q-277 0 -472.5 -174t-239.5 -453zM1060 1660l145 321h105l-168 -321h-82z" />
    <glyph glyph-name="Ocircumflex" unicode="&#xd4;" horiz-adv-x="1649" 
d="M831 -29q-162 0 -287.5 53.5t-202 149t-105 230.5t-3.5 296q34 215 146.5 380t289.5 257t393 92q215 0 363 -92t208.5 -257t26.5 -380q-51 -326 -277.5 -527.5t-551.5 -201.5zM332 699q-29 -183 23 -325.5t179.5 -222t310.5 -79.5q277 0 472 174t240 453
q29 183 -23.5 325.5t-179.5 222t-310 79.5q-277 0 -472.5 -174t-239.5 -453zM891 1660l274 321h82l173 -321h-129l-107 189l-164 -189h-129z" />
    <glyph glyph-name="Otilde" unicode="&#xd5;" horiz-adv-x="1649" 
d="M831 -29q-162 0 -287.5 53.5t-202 149t-105 230.5t-3.5 296q34 215 146.5 380t289.5 257t393 92q215 0 363 -92t208.5 -257t26.5 -380q-51 -326 -277.5 -527.5t-551.5 -201.5zM332 699q-29 -183 23 -325.5t179.5 -222t310.5 -79.5q277 0 472 174t240 453
q29 183 -23.5 325.5t-179.5 222t-310 79.5q-277 0 -472.5 -174t-239.5 -453zM760 1677q-27 75 35 148t152 73q28 0 62 -13.5t56 -27t58 -37.5q4 -3 16.5 -11t17 -10.5t15.5 -9t16 -9.5t14 -7.5t14.5 -6.5t13 -4.5t14 -3.5t12.5 -1q33 0 54 36q20 33 2 49q-5 5 -13 6l115 34
q25 -79 -37 -152t-153 -73q-28 0 -60.5 14t-49 24.5t-54.5 37.5q-32 23 -48.5 34t-41.5 21.5t-45 10.5q-35 0 -56 -29t-8 -67z" />
    <glyph glyph-name="Odieresis" unicode="&#xd6;" horiz-adv-x="1649" 
d="M831 -29q-162 0 -287.5 53.5t-202 149t-105 230.5t-3.5 296q34 215 146.5 380t289.5 257t393 92q215 0 363 -92t208.5 -257t26.5 -380q-51 -326 -277.5 -527.5t-551.5 -201.5zM332 699q-29 -183 23 -325.5t179.5 -222t310.5 -79.5q277 0 472 174t240 453
q29 183 -23.5 325.5t-179.5 222t-310 79.5q-277 0 -472.5 -174t-239.5 -453zM923 1703q4 26 28.5 45.5t50.5 19.5t44 -19.5t14 -45.5q-4 -27 -27.5 -45.5t-50.5 -18.5t-45 18.5t-14 45.5zM1179 1703q4 27 28 46t52 19q25 0 43 -19.5t14 -45.5q-4 -27 -28 -45.5t-49 -18.5
q-28 0 -46 18.5t-14 45.5z" />
    <glyph glyph-name="multiply" unicode="&#xd7;" horiz-adv-x="1018" 
d="M203 211l-59 70l387 322l-285 322l82 70l286 -322l387 321l64 -68l-389 -323l286 -323l-84 -68l-287 321z" />
    <glyph glyph-name="Oslash" unicode="&#xd8;" horiz-adv-x="1649" 
d="M831 -29q-47 0 -83 4l-70 -178h-110l76 195q-235 55 -345 244.5t-66 463.5q34 215 146.5 380t289.5 257t393 92q76 0 143 -12l67 171h112l-78 -196q206 -69 300 -252.5t54 -439.5q-51 -326 -277.5 -527.5t-551.5 -201.5zM332 699q-37 -233 57 -396t294 -212l482 1225
q-54 10 -121 10q-277 0 -472.5 -174t-239.5 -453zM787 74q38 -2 58 -2q277 0 472 174t240 453q34 215 -43.5 371.5t-247.5 218.5z" />
    <glyph glyph-name="Ugrave" unicode="&#xd9;" horiz-adv-x="1425" 
d="M719 -26q-175 0 -288 84q-110 81 -155 220.5t-18 309.5l129 812h103l-129 -812q-37 -232 62.5 -373t311.5 -141q214 0 357 136.5t181 377.5l129 812h103l-129 -812q-43 -272 -221.5 -443t-435.5 -171zM930 1981h107l40 -321h-81z" />
    <glyph glyph-name="Uacute" unicode="&#xda;" horiz-adv-x="1425" 
d="M719 -26q-175 0 -288 84q-110 81 -155 220.5t-18 309.5l129 812h103l-129 -812q-37 -232 62.5 -373t311.5 -141q214 0 357 136.5t181 377.5l129 812h103l-129 -812q-43 -272 -221.5 -443t-435.5 -171zM928 1660l145 321h105l-168 -321h-82z" />
    <glyph glyph-name="Ucircumflex" unicode="&#xdb;" horiz-adv-x="1425" 
d="M719 -26q-175 0 -288 84q-110 81 -155 220.5t-18 309.5l129 812h103l-129 -812q-37 -232 62.5 -373t311.5 -141q214 0 357 136.5t181 377.5l129 812h103l-129 -812q-43 -272 -221.5 -443t-435.5 -171zM766 1660l274 321h82l173 -321h-129l-107 189l-164 -189h-129z" />
    <glyph glyph-name="Udieresis" unicode="&#xdc;" horiz-adv-x="1425" 
d="M719 -26q-175 0 -288 84q-110 81 -155 220.5t-18 309.5l129 812h103l-129 -812q-37 -232 62.5 -373t311.5 -141q214 0 357 136.5t181 377.5l129 812h103l-129 -812q-43 -272 -221.5 -443t-435.5 -171zM820 1703q4 26 28.5 45.5t50.5 19.5t44 -19.5t14 -45.5
q-4 -27 -27.5 -45.5t-50.5 -18.5t-45 18.5t-14 45.5zM1076 1703q4 27 28 46t52 19q25 0 43 -19.5t14 -45.5q-4 -27 -28 -45.5t-49 -18.5q-28 0 -46 18.5t-14 45.5z" />
    <glyph glyph-name="Yacute" unicode="&#xdd;" horiz-adv-x="1274" 
d="M605 0l100 632l-365 768h120l314 -660l523 660h120l-610 -768l-100 -632h-102zM822 1660l145 321h105l-168 -321h-82z" />
    <glyph glyph-name="Thorn" unicode="&#xde;" horiz-adv-x="1219" 
d="M127 -243l261 1654h103l-40 -254h384q82 0 151.5 -25t123 -75.5t76.5 -137.5t6 -200q-15 -91 -50.5 -165.5t-84.5 -124.5t-109.5 -84t-123 -49t-127.5 -15h-384l-83 -524h-103zM328 380h384q62 0 119.5 17.5t111.5 54t92.5 103t52.5 155.5l1 1q15 97 -2 167t-59 108
t-93.5 55t-114.5 17h-384z" />
    <glyph glyph-name="germandbls" unicode="&#xdf;" horiz-adv-x="987" 
d="M533 7q-113 0 -189 34l17 106q113 -37 196 -35.5t141.5 42.5t92 105.5t47.5 153.5q12 74 -0.5 131.5t-40.5 92.5t-70.5 57t-85.5 30.5t-91 8.5h-80l17 105h74q120 0 200 59.5t101 189.5q18 112 -28 172t-158 60q-76 0 -129.5 -20.5t-88 -65t-55 -103t-34.5 -145.5
l-185 -1168h-111l191 1205q64 402 429 402q69 0 125 -19.5t96.5 -59t57 -105.5t2.5 -153q-16 -104 -63.5 -175.5t-132.5 -121.5q106 -49 150.5 -139.5t20.5 -237.5q-28 -179 -142 -292.5t-274 -113.5z" />
    <glyph glyph-name="agrave" unicode="&#xe0;" horiz-adv-x="1243" 
d="M618 -26q-233 0 -353.5 149t-83.5 383t204.5 382.5t400.5 148.5q135 0 234.5 -52t153.5 -146l27 173h102l-160 -1012h-102l27 173q-84 -95 -200 -147t-250 -52zM284 506q-30 -191 65.5 -309t285.5 -118q189 0 321.5 118t162.5 309q30 190 -65 308.5t-284 118.5
q-190 0 -323 -118t-163 -309zM775 1547h107l40 -321h-81z" />
    <glyph glyph-name="aacute" unicode="&#xe1;" horiz-adv-x="1243" 
d="M618 -26q-233 0 -353.5 149t-83.5 383t204.5 382.5t400.5 148.5q135 0 234.5 -52t153.5 -146l27 173h102l-160 -1012h-102l27 173q-84 -95 -200 -147t-250 -52zM284 506q-30 -191 65.5 -309t285.5 -118q189 0 321.5 118t162.5 309q30 190 -65 308.5t-284 118.5
q-190 0 -323 -118t-163 -309zM754 1258l145 321h105l-168 -321h-82z" />
    <glyph glyph-name="acircumflex" unicode="&#xe2;" horiz-adv-x="1243" 
d="M618 -26q-233 0 -353.5 149t-83.5 383t204.5 382.5t400.5 148.5q135 0 234.5 -52t153.5 -146l27 173h102l-160 -1012h-102l27 173q-84 -95 -200 -147t-250 -52zM284 506q-30 -191 65.5 -309t285.5 -118q189 0 321.5 118t162.5 309q30 190 -65 308.5t-284 118.5
q-190 0 -323 -118t-163 -309zM593 1265l274 321h82l173 -321h-129l-107 189l-164 -189h-129z" />
    <glyph glyph-name="atilde" unicode="&#xe3;" horiz-adv-x="1243" 
d="M618 -26q-233 0 -353.5 149t-83.5 383t204.5 382.5t400.5 148.5q135 0 234.5 -52t153.5 -146l27 173h102l-160 -1012h-102l27 173q-84 -95 -200 -147t-250 -52zM284 506q-30 -191 65.5 -309t285.5 -118q189 0 321.5 118t162.5 309q30 190 -65 308.5t-284 118.5
q-190 0 -323 -118t-163 -309zM536 1300q-27 75 35 148t152 73q28 0 62.5 -13.5t56 -26.5t58.5 -38q37 -24 51.5 -33t39 -19.5t42.5 -10.5q33 0 54 36q19 33 1 49q-5 5 -13 6l115 34q26 -78 -36 -151.5t-153 -73.5q-28 0 -60 13.5t-50.5 25.5t-53.5 37q-34 24 -50 34t-41 21
t-45 11q-35 0 -56 -29t-8 -67z" />
    <glyph glyph-name="adieresis" unicode="&#xe4;" horiz-adv-x="1243" 
d="M618 -26q-233 0 -353.5 149t-83.5 383t204.5 382.5t400.5 148.5q135 0 234.5 -52t153.5 -146l27 173h102l-160 -1012h-102l27 173q-84 -95 -200 -147t-250 -52zM284 506q-30 -191 65.5 -309t285.5 -118q189 0 321.5 118t162.5 309q30 190 -65 308.5t-284 118.5
q-190 0 -323 -118t-163 -309zM685 1331q4 26 28.5 45.5t50.5 19.5t44 -19.5t14 -45.5q-4 -27 -27.5 -45.5t-50.5 -18.5t-45 18.5t-14 45.5zM941 1331q4 27 28 46t52 19q25 0 43 -19.5t14 -45.5q-4 -27 -28 -45.5t-49 -18.5q-28 0 -46 18.5t-14 45.5z" />
    <glyph glyph-name="aring" unicode="&#xe5;" horiz-adv-x="1243" 
d="M618 -26q-233 0 -353.5 149t-83.5 383t204.5 382.5t400.5 148.5q135 0 234.5 -52t153.5 -146l27 173h102l-160 -1012h-102l27 173q-84 -95 -200 -147t-250 -52zM284 506q-30 -191 65.5 -309t285.5 -118q189 0 321.5 118t162.5 309q30 190 -65 308.5t-284 118.5
q-190 0 -323 -118t-163 -309zM716 1430q11 64 65 109.5t120 45.5t106.5 -46t30.5 -109q-10 -64 -65 -110t-121 -46t-106 46t-30 110zM805 1430q-4 -31 13 -50t48 -19q33 0 54.5 19t26.5 50q5 29 -11 47t-49 18q-31 0 -54 -18t-28 -47z" />
    <glyph glyph-name="ae" unicode="&#xe6;" horiz-adv-x="2159" 
d="M595 -26q-233 0 -353.5 149t-83.5 383t204.5 382.5t400.5 148.5q135 0 234.5 -52t153.5 -146l27 173h102l-32 -204q85 108 208.5 168.5t267.5 60.5q232 0 353 -149t84 -382l-8 -50h-937q-11 -171 84.5 -274t272.5 -103q139 0 249 66t173 182l100 -24q-77 -151 -220 -240
t-319 -89q-145 0 -249.5 61t-154.5 169l-32 -204h-102l27 173q-84 -95 -200 -147t-250 -52zM261 506q-30 -191 65.5 -309t285.5 -118q189 0 321.5 118t162.5 309q30 190 -65 308.5t-284 118.5q-190 0 -323 -118t-163 -309zM1232 555h831q12 171 -83 274.5t-272 103.5
t-305 -103.5t-171 -274.5z" />
    <glyph glyph-name="ccedilla" unicode="&#xe7;" horiz-adv-x="1141" 
d="M609 -349q-74 -19 -131 21.5t-56 113.5l105 24q-7 -35 14.5 -53t56.5 -9q30 7 46 27t12 47q-3 26 -23.5 38t-48.5 5l-126 -29l108 140q-209 18 -314.5 164.5t-70.5 365.5q37 234 204.5 382.5t400.5 148.5q176 0 290.5 -89t144.5 -240l-108 -24q-26 116 -115 182t-228 67
q-190 0 -323 -118t-163 -309t65.5 -309t285.5 -118q139 0 249 66t173 182l100 -24q-70 -136 -193 -222.5t-278 -102.5l-15 -20q36 -14 60 -42.5t28 -67.5q8 -64 -36 -122.5t-114 -74.5z" />
    <glyph glyph-name="egrave" unicode="&#xe8;" horiz-adv-x="1221" 
d="M618 -26q-233 0 -353.5 149t-83.5 383t204.5 382.5t400.5 148.5q232 0 353 -149t84 -382l-8 -50h-937q-11 -171 84.5 -274t272.5 -103q139 0 249 66t173 182l100 -24q-77 -151 -220 -240t-319 -89zM294 555h831q12 171 -83 274.5t-272 103.5t-305 -103.5t-171 -274.5z
M742 1575h107l41 -321h-81z" />
    <glyph glyph-name="eacute" unicode="&#xe9;" horiz-adv-x="1221" 
d="M618 -26q-233 0 -353.5 149t-83.5 383t204.5 382.5t400.5 148.5q232 0 353 -149t84 -382l-8 -50h-937q-11 -171 84.5 -274t272.5 -103q139 0 249 66t173 182l100 -24q-77 -151 -220 -240t-319 -89zM294 555h831q12 171 -83 274.5t-272 103.5t-305 -103.5t-171 -274.5z
M627 1252l145 321h105l-168 -321h-82z" />
    <glyph glyph-name="ecircumflex" unicode="&#xea;" horiz-adv-x="1221" 
d="M618 -26q-233 0 -353.5 149t-83.5 383t204.5 382.5t400.5 148.5q232 0 353 -149t84 -382l-8 -50h-937q-11 -171 84.5 -274t272.5 -103q139 0 249 66t173 182l100 -24q-77 -151 -220 -240t-319 -89zM294 555h831q12 171 -83 274.5t-272 103.5t-305 -103.5t-171 -274.5z
M582 1257l274 321h82l173 -321h-129l-107 189l-164 -189h-129z" />
    <glyph glyph-name="edieresis" unicode="&#xeb;" horiz-adv-x="1221" 
d="M618 -26q-233 0 -353.5 149t-83.5 383t204.5 382.5t400.5 148.5q232 0 353 -149t84 -382l-8 -50h-937q-11 -171 84.5 -274t272.5 -103q139 0 249 66t173 182l100 -24q-77 -151 -220 -240t-319 -89zM294 555h831q12 171 -83 274.5t-272 103.5t-305 -103.5t-171 -274.5z
M649 1302q4 26 29 45.5t51 19.5q27 0 44 -19.5t13 -45.5q-4 -27 -27.5 -45.5t-50.5 -18.5t-45 18.5t-14 45.5zM905 1302q4 27 28.5 46t52.5 19q25 0 42.5 -19.5t13.5 -45.5q-4 -27 -28 -45.5t-49 -18.5q-28 0 -46 18.5t-14 45.5z" />
    <glyph glyph-name="igrave" unicode="&#xec;" horiz-adv-x="421" 
d="M176 0l160 1012h103l-160 -1012h-103zM334 1575h107l41 -321h-81z" />
    <glyph glyph-name="iacute" unicode="&#xed;" horiz-adv-x="477" 
d="M165 0l160 1012h103l-160 -1012h-103zM371 1260l144 321h105l-167 -321h-82z" />
    <glyph glyph-name="icircumflex" unicode="&#xee;" horiz-adv-x="110" 
d="M30 0l160 1012h103l-160 -1012h-103zM26 1238l274 321h82l173 -321h-129l-107 189l-164 -189h-129z" />
    <glyph glyph-name="idieresis" unicode="&#xef;" horiz-adv-x="364" 
d="M173 0l160 1012h103l-160 -1012h-103zM228 1328q4 26 29 45.5t51 19.5q27 0 44 -19.5t13 -45.5q-4 -27 -27.5 -45.5t-50.5 -18.5t-45 18.5t-14 45.5zM484 1328q4 27 28.5 46t52.5 19q25 0 42.5 -19.5t13.5 -45.5q-4 -27 -28 -45.5t-49 -18.5q-28 0 -46 18.5t-14 45.5z
" />
    <glyph glyph-name="eth" unicode="&#xf0;" horiz-adv-x="1241" 
d="M647 -26q-141 0 -255 70q-110 69 -162.5 184.5t-31.5 253.5q22 139 111 256t221.5 184.5t277.5 67.5q113 0 206.5 -41.5t155.5 -116.5q-33 234 -167 383l-215 -114l-36 85l179 95q-134 102 -308 95l16 100q228 6 394 -141l240 127l35 -86l-208 -110q29 -38 50 -69
q83 -132 113 -304.5t1 -364.5q-26 -165 -111 -287q-87 -127 -218.5 -197t-287.5 -70zM299 482q-16 -110 25 -203q45 -96 133 -150.5t206 -54.5q121 0 229 57q108 59 178.5 151t87.5 200q19 112 -26 205q-43 96 -131.5 150t-208.5 54q-122 0 -226 -57q-108 -57 -178.5 -149
t-88.5 -203z" />
    <glyph glyph-name="ntilde" unicode="&#xf1;" horiz-adv-x="1157" 
d="M325 1012h103l-20 -128q74 73 170.5 114t197.5 41q122 0 216 -57q93 -60 136.5 -157.5t25.5 -213.5l-97 -611h-101l97 611q15 91 -22 166q-36 77 -106.5 119.5t-164.5 42.5q-95 0 -180 -44q-89 -45 -145 -119t-70 -165l-97 -611h-103zM512 1285q-27 75 35 148t152 73
q28 0 62 -13.5t56 -27t58 -37.5q4 -3 16.5 -11t17 -10.5t15.5 -9t16 -9.5t14 -7.5t14.5 -6.5t13 -4.5t14 -3.5t12.5 -1q33 0 54 36q20 33 2 49q-5 5 -13 6l115 34q25 -79 -37 -152t-153 -73q-28 0 -60.5 14t-49 24.5t-54.5 37.5q-32 23 -48.5 34t-41.5 21.5t-45 10.5
q-35 0 -56 -29t-8 -67z" />
    <glyph glyph-name="ograve" unicode="&#xf2;" horiz-adv-x="1221" 
d="M618 -26q-233 0 -353.5 149t-83.5 383t204.5 382.5t400.5 148.5q232 0 353 -149t84 -382q-37 -234 -205 -383t-400 -149zM284 506q-30 -191 65.5 -309t285.5 -118q189 0 321.5 118t162.5 309q30 190 -65 308.5t-284 118.5q-190 0 -323 -118t-163 -309zM749 1574h107
l40 -321h-81z" />
    <glyph glyph-name="oacute" unicode="&#xf3;" horiz-adv-x="1221" 
d="M618 -26q-233 0 -353.5 149t-83.5 383t204.5 382.5t400.5 148.5q232 0 353 -149t84 -382q-37 -234 -205 -383t-400 -149zM284 506q-30 -191 65.5 -309t285.5 -118q189 0 321.5 118t162.5 309q30 190 -65 308.5t-284 118.5q-190 0 -323 -118t-163 -309zM771 1236l145 321
h105l-168 -321h-82z" />
    <glyph glyph-name="ocircumflex" unicode="&#xf4;" horiz-adv-x="1221" 
d="M618 -26q-233 0 -353.5 149t-83.5 383t204.5 382.5t400.5 148.5q232 0 353 -149t84 -382q-37 -234 -205 -383t-400 -149zM284 506q-30 -191 65.5 -309t285.5 -118q189 0 321.5 118t162.5 309q30 190 -65 308.5t-284 118.5q-190 0 -323 -118t-163 -309zM581 1238l274 321
h82l173 -321h-129l-107 189l-164 -189h-129z" />
    <glyph glyph-name="otilde" unicode="&#xf5;" horiz-adv-x="1221" 
d="M618 -26q-233 0 -353.5 149t-83.5 383t204.5 382.5t400.5 148.5q232 0 353 -149t84 -382q-37 -234 -205 -383t-400 -149zM284 506q-30 -191 65.5 -309t285.5 -118q189 0 321.5 118t162.5 309q30 190 -65 308.5t-284 118.5q-190 0 -323 -118t-163 -309zM513 1284
q-27 75 35 148t152 73q28 0 62.5 -13t57 -27t57.5 -38q4 -3 16.5 -11t17 -10.5t15.5 -9t16 -9.5t14 -7.5t14.5 -6.5t13 -4.5t14 -3.5t12.5 -1q33 0 54 36q19 33 1 49q-5 5 -13 6l116 34q25 -79 -37 -152t-153 -73q-28 0 -60.5 14t-49 24.5t-54.5 37.5q-32 23 -48.5 34
t-41.5 21.5t-45 10.5q-35 0 -56 -29t-9 -67z" />
    <glyph glyph-name="odieresis" unicode="&#xf6;" horiz-adv-x="1221" 
d="M618 -26q-233 0 -353.5 149t-83.5 383t204.5 382.5t400.5 148.5q232 0 353 -149t84 -382q-37 -234 -205 -383t-400 -149zM284 506q-30 -191 65.5 -309t285.5 -118q189 0 321.5 118t162.5 309q30 190 -65 308.5t-284 118.5q-190 0 -323 -118t-163 -309zM635 1328
q4 26 29 45.5t51 19.5q27 0 44 -19.5t13 -45.5q-4 -27 -27.5 -45.5t-50.5 -18.5t-45 18.5t-14 45.5zM891 1328q4 27 28.5 46t52.5 19q25 0 42.5 -19.5t13.5 -45.5q-4 -27 -28 -45.5t-49 -18.5q-28 0 -46 18.5t-14 45.5z" />
    <glyph glyph-name="divide" unicode="&#xf7;" horiz-adv-x="1253" 
d="M187 553l15 100h1055l-15 -100h-1055zM564 248q7 41 40 70.5t78 29.5q41 0 67.5 -30t19.5 -70q-7 -41 -42 -68.5t-76 -27.5q-45 0 -69 27.5t-18 68.5zM676 954q6 39 40 69.5t78 30.5q40 0 64.5 -31t18.5 -69q-6 -40 -39.5 -68.5t-74.5 -28.5q-45 0 -69 28t-18 69z" />
    <glyph glyph-name="oslash" unicode="&#xf8;" horiz-adv-x="1266" 
d="M618 -26q-60 0 -115 11l-73 -152h-110l87 182q-133 59 -193 189t-33 302q37 234 204.5 382.5t400.5 148.5q56 0 105 -9l57 118h112l-71 -147q136 -57 199 -188t35 -305q-37 -234 -205 -383t-400 -149zM284 506q-22 -138 23.5 -240.5t147.5 -150.5l388 813q-38 5 -73 5
q-190 0 -323 -118t-163 -309zM551 86q36 -7 84 -7q189 0 321.5 118t162.5 309q22 140 -25 243.5t-153 150.5z" />
    <glyph glyph-name="ugrave" unicode="&#xf9;" horiz-adv-x="1112" 
d="M564 -26q-123 0 -216 59q-93 57 -137 154.5t-25 214.5l96 610h101l-96 -610q-15 -90 21 -164q35 -77 106 -120.5t166 -43.5q96 0 179 45q87 45 144 118.5t72 164.5l96 610h102l-160 -1012h-102l21 130q-75 -72 -171.5 -114t-196.5 -42zM728 1573h107l40 -321h-81z" />
    <glyph glyph-name="uacute" unicode="&#xfa;" horiz-adv-x="1112" 
d="M564 -26q-123 0 -216 59q-93 57 -137 154.5t-25 214.5l96 610h101l-96 -610q-15 -90 21 -164q35 -77 106 -120.5t166 -43.5q96 0 179 45q87 45 144 118.5t72 164.5l96 610h102l-160 -1012h-102l21 130q-75 -72 -171.5 -114t-196.5 -42zM719 1244l145 321h105l-168 -321
h-82z" />
    <glyph glyph-name="ucircumflex" unicode="&#xfb;" horiz-adv-x="1112" 
d="M564 -26q-123 0 -216 59q-93 57 -137 154.5t-25 214.5l96 610h101l-96 -610q-15 -90 21 -164q35 -77 106 -120.5t166 -43.5q96 0 179 45q87 45 144 118.5t72 164.5l96 610h102l-160 -1012h-102l21 130q-75 -72 -171.5 -114t-196.5 -42zM544 1259l274 321h82l173 -321
h-129l-107 189l-164 -189h-129z" />
    <glyph glyph-name="udieresis" unicode="&#xfc;" horiz-adv-x="1112" 
d="M564 -26q-123 0 -216 59q-93 57 -137 154.5t-25 214.5l96 610h101l-96 -610q-15 -90 21 -164q35 -77 106 -120.5t166 -43.5q96 0 179 45q87 45 144 118.5t72 164.5l96 610h102l-160 -1012h-102l21 130q-75 -72 -171.5 -114t-196.5 -42zM591 1329q4 26 29 45.5t51 19.5
q27 0 44 -19.5t13 -45.5q-4 -27 -27.5 -45.5t-50.5 -18.5t-45 18.5t-14 45.5zM847 1329q4 27 28.5 46t52.5 19q25 0 42.5 -19.5t13.5 -45.5q-4 -27 -28 -45.5t-49 -18.5q-28 0 -46 18.5t-14 45.5z" />
    <glyph glyph-name="yacute" unicode="&#xfd;" horiz-adv-x="1087" 
d="M232 -485l272 506l-213 991h111l177 -851l461 851h107l-807 -1497h-108zM676 1258l145 321h105l-168 -321h-82z" />
    <glyph glyph-name="thorn" unicode="&#xfe;" horiz-adv-x="1268" 
d="M88 -489l300 1900h103l-91 -576q84 94 200 146t251 52q233 0 353 -148.5t84 -382.5q-37 -234 -205 -383t-401 -149q-134 0 -233.5 52t-153.5 147l-104 -658h-103zM350 502q-30 -190 65 -308.5t284 -118.5q190 0 323 118t163 309t-65.5 309t-285.5 118q-189 0 -322 -118.5
t-162 -308.5z" />
    <glyph glyph-name="ydieresis" unicode="&#xff;" horiz-adv-x="1087" 
d="M232 -485l272 506l-213 991h111l177 -851l461 851h107l-807 -1497h-108zM580 1299q4 26 28.5 45.5t50.5 19.5t44 -19.5t14 -45.5q-4 -27 -27.5 -45.5t-50.5 -18.5t-45 18.5t-14 45.5zM836 1299q4 27 28 46t52 19q25 0 43 -19.5t14 -45.5q-4 -27 -28 -45.5t-49 -18.5
q-28 0 -46 18.5t-14 45.5z" />
    <glyph glyph-name="Amacron" unicode="&#x100;" horiz-adv-x="1417" 
d="M131 0l755 1400h121l310 -1400h-108l-89 400h-665l-216 -400h-108zM509 499h589l-171 774zM652 1685l16 99h726l-16 -99h-726z" />
    <glyph glyph-name="amacron" unicode="&#x101;" horiz-adv-x="1243" 
d="M618 -26q-233 0 -353.5 149t-83.5 383t204.5 382.5t400.5 148.5q135 0 234.5 -52t153.5 -146l27 173h102l-160 -1012h-102l27 173q-84 -95 -200 -147t-250 -52zM284 506q-30 -191 65.5 -309t285.5 -118q189 0 321.5 118t162.5 309q30 190 -65 308.5t-284 118.5
q-190 0 -323 -118t-163 -309zM514 1271l16 99h726l-16 -99h-726z" />
    <glyph glyph-name="Abreve" unicode="&#x102;" horiz-adv-x="1417" 
d="M131 0l755 1400h121l310 -1400h-108l-89 400h-665l-216 -400h-108zM509 499h589l-171 774zM685 1995h102q-19 -79 10 -142q29 -57 82 -89t121 -32q114 0 200.5 76t95.5 187h102q-12 -108 -81 -194q-63 -78 -151.5 -123.5t-181.5 -45.5q-97 0 -172 47q-79 49 -114 133.5
t-13 182.5z" />
    <glyph glyph-name="abreve" unicode="&#x103;" horiz-adv-x="1243" 
d="M618 -26q-233 0 -353.5 149t-83.5 383t204.5 382.5t400.5 148.5q135 0 234.5 -52t153.5 -146l27 173h102l-160 -1012h-102l27 173q-84 -95 -200 -147t-250 -52zM284 506q-30 -191 65.5 -309t285.5 -118q189 0 321.5 118t162.5 309q30 190 -65 308.5t-284 118.5
q-190 0 -323 -118t-163 -309zM567 1572h102q-19 -79 10 -142q29 -57 82 -89t121 -32q114 0 200.5 76t95.5 187h102q-12 -108 -81 -194q-63 -78 -151.5 -123.5t-181.5 -45.5q-97 0 -172 47q-79 49 -114 133.5t-13 182.5z" />
    <glyph glyph-name="Aogonek" unicode="&#x104;" horiz-adv-x="1394" 
d="M131 0l755 1400h121l291 -1316l8 6l60 -69l-37 -32q-38 -32 -56 -46q-104 -87 -116 -99q-18 -17 -22.5 -24t-6.5 -20q-4 -26 9.5 -42.5t43.5 -18.5q42 0 73.5 28t30.5 76h102q-6 -87 -72 -145t-152 -58q-70 1 -109 47t-28 113q12 67 66 113l115 95l-87 392h-665
l-216 -400h-108zM509 499h589l-171 774z" />
    <glyph glyph-name="aogonek" unicode="&#x105;" horiz-adv-x="1233" 
d="M618 -26q-233 0 -353.5 149t-83.5 383t204.5 382.5t400.5 148.5q135 0 234.5 -52t153.5 -146l27 173h102l-148 -935l49 -56l-37 -32q-38 -32 -56 -46q-104 -87 -116 -99q-18 -17 -22.5 -24t-6.5 -20q-4 -26 9.5 -42.5t43.5 -18.5q42 0 73.5 28t30.5 76h102
q-6 -87 -72 -145t-152 -58q-70 1 -109 47t-28 113q12 67 66 113l112 92l26 168q-84 -95 -200 -147t-250 -52zM284 506q-30 -191 65.5 -309t285.5 -118q189 0 321.5 118t162.5 309q30 190 -65 308.5t-284 118.5q-190 0 -323 -118t-163 -309z" />
    <glyph glyph-name="Cacute" unicode="&#x106;" horiz-adv-x="1545" 
d="M829 -29q-215 0 -363 92t-208.5 257t-26.5 380q51 326 277.5 527.5t551.5 201.5q201 0 343.5 -81t210.5 -227l-105 -49q-61 121 -180 187.5t-287 66.5q-277 0 -472 -174t-239 -453q-29 -183 23 -325.5t179 -222t310 -79.5q168 0 308.5 67t239.5 189l89 -50
q-114 -146 -282 -226.5t-369 -80.5zM1028 1660l145 321h105l-168 -321h-82z" />
    <glyph glyph-name="cacute" unicode="&#x107;" horiz-adv-x="1141" 
d="M618 -26q-233 0 -353.5 149t-83.5 383t204.5 382.5t400.5 148.5q176 0 290.5 -89t144.5 -240l-108 -24q-26 116 -115 182t-228 67q-190 0 -323 -118t-163 -309t65.5 -309t285.5 -118q139 0 249 66t173 182l100 -24q-77 -151 -220 -240t-319 -89zM764 1260l144 321h105
l-167 -321h-82z" />
    <glyph glyph-name="Cdotaccent" unicode="&#x10a;" horiz-adv-x="1545" 
d="M829 -29q-215 0 -363 92t-208.5 257t-26.5 380q51 326 277.5 527.5t551.5 201.5q201 0 343.5 -81t210.5 -227l-105 -49q-61 121 -180 187.5t-287 66.5q-277 0 -472 -174t-239 -453q-29 -183 23 -325.5t179 -222t310 -79.5q168 0 308.5 67t239.5 189l89 -50
q-114 -146 -282 -226.5t-369 -80.5zM1043 1747q4 29 26.5 46t50.5 17q27 0 43.5 -18t12.5 -44q-4 -28 -26.5 -46t-49.5 -18t-44 18.5t-13 44.5z" />
    <glyph glyph-name="cdotaccent" unicode="&#x10b;" horiz-adv-x="1141" 
d="M618 -26q-233 0 -353.5 149t-83.5 383t204.5 382.5t400.5 148.5q176 0 290.5 -89t144.5 -240l-108 -24q-26 116 -115 182t-228 67q-190 0 -323 -118t-163 -309t65.5 -309t285.5 -118q139 0 249 66t173 182l100 -24q-77 -151 -220 -240t-319 -89zM765 1323q4 29 26.5 46
t50.5 17q27 0 43.5 -17.5t12.5 -44.5q-4 -28 -26.5 -46t-49.5 -18t-44 18.5t-13 44.5z" />
    <glyph glyph-name="Ccaron" unicode="&#x10c;" horiz-adv-x="1545" 
d="M829 -29q-215 0 -363 92t-208.5 257t-26.5 380q51 326 277.5 527.5t551.5 201.5q201 0 343.5 -81t210.5 -227l-105 -49q-61 121 -180 187.5t-287 66.5q-277 0 -472 -174t-239 -453q-29 -183 23 -325.5t179 -222t310 -79.5q168 0 308.5 67t239.5 189l89 -50
q-114 -146 -282 -226.5t-369 -80.5zM940 1966h131l105 -189l162 189h130l-272 -321h-82z" />
    <glyph glyph-name="ccaron" unicode="&#x10d;" horiz-adv-x="1141" 
d="M618 -26q-233 0 -353.5 149t-83.5 383t204.5 382.5t400.5 148.5q176 0 290.5 -89t144.5 -240l-108 -24q-26 116 -115 182t-228 67q-190 0 -323 -118t-163 -309t65.5 -309t285.5 -118q139 0 249 66t173 182l100 -24q-77 -151 -220 -240t-319 -89zM654 1565h131l105 -189
l162 189h130l-273 -321h-82z" />
    <glyph glyph-name="Dcaron" unicode="&#x10e;" horiz-adv-x="1434" 
d="M165 0l222 1400h471l3 1q216 0 365 -88t211 -247t29 -365q-50 -314 -275 -507.5t-550 -193.5h-476zM284 99l371 -1q183 0 334.5 76.5t248 213t124.5 312.5t-25.5 312.5t-181 213t-310.5 76.5l-371 -1zM814 1968h131l105 -189l162 189h130l-273 -321h-82z" />
    <glyph glyph-name="dcaron" unicode="&#x10f;" horiz-adv-x="1245" 
d="M618 -26q-233 0 -353.5 149t-83.5 383t204.5 382.5t400.5 148.5q135 0 234.5 -52t153.5 -146l104 658h102l-237 -1497h-102l27 173q-84 -95 -200 -147t-250 -52zM284 506q-30 -191 65.5 -309t285.5 -118q189 0 321.5 118t162.5 309q30 190 -65 308.5t-284 118.5
q-190 0 -323 -118t-163 -309zM679 1577h131l105 -189l162 189h130l-273 -321h-82z" />
    <glyph glyph-name="Dcroat" unicode="&#x110;" horiz-adv-x="1297" 
d="M198 0l95 598h-271l15 99h271l112 703h471l3 1q216 0 365 -88t211 -247t29 -365q-50 -314 -275 -507.5t-550 -193.5h-476zM317 99l371 -1q183 0 334.5 76.5t248 213t124.5 312.5t-25.5 312.5t-181 213t-310.5 76.5l-371 -1l-96 -604h352l-15 -99h-352z" />
    <glyph glyph-name="dcroat" unicode="&#x111;" horiz-adv-x="1245" 
d="M618 -26q-233 0 -353.5 149t-83.5 383t204.5 382.5t400.5 148.5q135 0 234.5 -52t153.5 -146l53 336h-287l16 99h287l35 223h102l-35 -223h337l-16 -99h-337l-186 -1175h-102l27 173q-84 -95 -200 -147t-250 -52zM284 506q-30 -191 65.5 -309t285.5 -118q189 0 321.5 118
t162.5 309q30 190 -65 308.5t-284 118.5q-190 0 -323 -118t-163 -309z" />
    <glyph glyph-name="Emacron" unicode="&#x112;" horiz-adv-x="1204" 
d="M165 0l222 1400h919l-16 -99h-816l-82 -519h699l-16 -100h-699l-92 -583h816l-16 -99h-919zM577 1671l15 99h726l-15 -99h-726z" />
    <glyph glyph-name="emacron" unicode="&#x113;" horiz-adv-x="1221" 
d="M618 -26q-233 0 -353.5 149t-83.5 383t204.5 382.5t400.5 148.5q232 0 353 -149t84 -382l-8 -50h-937q-11 -171 84.5 -274t272.5 -103q139 0 249 66t173 182l100 -24q-77 -151 -220 -240t-319 -89zM294 555h831q12 171 -83 274.5t-272 103.5t-305 -103.5t-171 -274.5z
M531 1280l15 99h726l-15 -99h-726z" />
    <glyph glyph-name="Edotaccent" unicode="&#x116;" horiz-adv-x="1204" 
d="M165 0l222 1400h919l-16 -99h-816l-82 -519h699l-16 -100h-699l-92 -583h816l-16 -99h-919zM829 1718q4 29 26.5 46t50.5 17q27 0 43.5 -18t12.5 -44q-4 -28 -26.5 -46t-49.5 -18t-44 18.5t-13 44.5z" />
    <glyph glyph-name="edotaccent" unicode="&#x117;" horiz-adv-x="1221" 
d="M618 -26q-233 0 -353.5 149t-83.5 383t204.5 382.5t400.5 148.5q232 0 353 -149t84 -382l-8 -50h-937q-11 -171 84.5 -274t272.5 -103q139 0 249 66t173 182l100 -24q-77 -151 -220 -240t-319 -89zM294 555h831q12 171 -83 274.5t-272 103.5t-305 -103.5t-171 -274.5z
M795 1369q4 29 26.5 46t50.5 17q27 0 43.5 -18t12.5 -44q-4 -28 -26.5 -46t-49.5 -18t-44 18.5t-13 44.5z" />
    <glyph glyph-name="Eogonek" unicode="&#x118;" horiz-adv-x="1191" 
d="M165 0l222 1400h919l-16 -99h-816l-82 -519h699l-16 -100h-699l-92 -583h816l-4 -26l45 -52l-37 -32q-38 -32 -56 -46q-104 -87 -116 -99q-18 -17 -22.5 -24t-6.5 -20q-4 -26 9.5 -42.5t43.5 -18.5q42 0 73.5 28t30.5 76h102q-6 -87 -72 -145t-152 -58q-70 1 -109 47
t-28 113q12 67 66 113l105 87h-807z" />
    <glyph glyph-name="eogonek" unicode="&#x119;" horiz-adv-x="1221" 
d="M1125 555q12 171 -83 274.5t-272 103.5t-305 -103.5t-171 -274.5h831zM181 506q37 234 204.5 382.5t400.5 148.5q232 0 353 -149t84 -382l-8 -50h-937q-11 -171 84.5 -274t272.5 -103q139 0 249 66t173 182l100 -24q-57 -112 -152 -191t-214 -114l-11 -9q-38 -32 -56 -46
q-104 -87 -116 -99q-18 -17 -22.5 -24t-6.5 -20q-4 -26 9.5 -42.5t43.5 -18.5q42 0 73.5 28t30.5 76h102q-6 -87 -72 -145t-152 -58q-70 1 -109 47t-28 113q12 67 66 113l74 61q-232 0 -352.5 149t-83.5 383z" />
    <glyph glyph-name="Ecaron" unicode="&#x11a;" horiz-adv-x="1204" 
d="M165 0l222 1400h919l-16 -99h-816l-82 -519h699l-16 -100h-699l-92 -583h816l-16 -99h-919zM769 1972h131l105 -189l162 189h130l-273 -321h-82z" />
    <glyph glyph-name="ecaron" unicode="&#x11b;" horiz-adv-x="1238" 
d="M635 -26q-233 0 -353.5 149t-83.5 383t204.5 382.5t400.5 148.5q232 0 353 -149t84 -382l-8 -50h-937q-11 -171 84.5 -274t272.5 -103q139 0 249 66t173 182l100 -24q-77 -151 -220 -240t-319 -89zM311 555h831q12 171 -83 274.5t-272 103.5t-305 -103.5t-171 -274.5z
M609 1593h131l105 -189l162 189h130l-273 -321h-82z" />
    <glyph glyph-name="Gbreve" unicode="&#x11e;" horiz-adv-x="1538" 
d="M831 -29q-162 0 -287.5 53.5t-202 149t-105 230.5t-3.5 296q34 215 146.5 380t289.5 257t393 92q201 0 343.5 -81t210.5 -227l-105 -49q-61 121 -180 187.5t-287 66.5q-277 0 -472.5 -174t-239.5 -453q-29 -183 23 -325.5t179.5 -222t310.5 -79.5q159 0 294 60.5
t235 172.5l60 378h-625l16 100h726l-81 -514l1 -5q-114 -139 -279.5 -216t-360.5 -77zM794 2034h102q-19 -79 11 -142q30 -58 82 -89.5t120 -31.5q114 0 200.5 76t95.5 187h102q-12 -108 -81 -194q-63 -78 -151 -123.5t-181 -45.5q-98 0 -173 47q-79 49 -114 133.5
t-13 182.5z" />
    <glyph glyph-name="gbreve" unicode="&#x11f;" horiz-adv-x="1285" 
d="M284 506q-30 -191 65.5 -309t285.5 -118q189 0 321.5 118t162.5 309q30 190 -65 308.5t-284 118.5q-190 0 -323 -118t-163 -309zM130 -149l101 38q11 -120 111 -205t236 -85q156 0 295 109t161 249l34 216q-84 -95 -200 -147t-250 -52q-233 0 -353.5 149t-83.5 383
t204.5 382.5t400.5 148.5q135 0 234.5 -52t153.5 -146l27 173h102l-167 -1055q-19 -118 -106.5 -224.5t-214 -169.5t-252.5 -63q-164 0 -288.5 102t-144.5 249zM576 1626h102q-19 -79 10 -142q29 -57 82 -89t121 -32q114 0 200 76t96 187h102q-14 -111 -81 -194
q-63 -78 -152 -123.5t-181 -45.5q-96 0 -173 47q-79 49 -113.5 133.5t-12.5 182.5z" />
    <glyph glyph-name="Gdotaccent" unicode="&#x120;" horiz-adv-x="1538" 
d="M831 -29q-162 0 -287.5 53.5t-202 149t-105 230.5t-3.5 296q34 215 146.5 380t289.5 257t393 92q201 0 343.5 -81t210.5 -227l-105 -49q-61 121 -180 187.5t-287 66.5q-277 0 -472.5 -174t-239.5 -453q-29 -183 23 -325.5t179.5 -222t310.5 -79.5q159 0 294 60.5
t235 172.5l60 378h-625l16 100h726l-81 -514l1 -5q-114 -139 -279.5 -216t-360.5 -77zM994 1747q4 29 26.5 46t50.5 17q27 0 43.5 -18t12.5 -44q-4 -28 -26.5 -46t-49.5 -18t-44 18.5t-13 44.5z" />
    <glyph glyph-name="gdotaccent" unicode="&#x121;" horiz-adv-x="1285" 
d="M284 506q-30 -191 65.5 -309t285.5 -118q189 0 321.5 118t162.5 309q30 190 -65 308.5t-284 118.5q-190 0 -323 -118t-163 -309zM130 -149l101 38q11 -120 111 -205t236 -85q156 0 295 109t161 249l34 216q-84 -95 -200 -147t-250 -52q-233 0 -353.5 149t-83.5 383
t204.5 382.5t400.5 148.5q135 0 234.5 -52t153.5 -146l27 173h102l-167 -1055q-19 -118 -106.5 -224.5t-214 -169.5t-252.5 -63q-164 0 -288.5 102t-144.5 249zM781 1392q5 29 27 46t50 17q27 0 44 -17.5t13 -44.5q-4 -28 -27 -46t-50 -18t-44 18t-13 45z" />
    <glyph glyph-name="uni0122" unicode="&#x122;" horiz-adv-x="1538" 
d="M831 -29q-162 0 -287.5 53.5t-202 149t-105 230.5t-3.5 296q34 215 146.5 380t289.5 257t393 92q201 0 343.5 -81t210.5 -227l-105 -49q-61 121 -180 187.5t-287 66.5q-277 0 -472.5 -174t-239.5 -453q-29 -183 23 -325.5t179.5 -222t310.5 -79.5q159 0 294 60.5
t235 172.5l60 378h-625l16 100h726l-81 -514l1 -5q-114 -139 -279.5 -216t-360.5 -77zM645 -485l145 321h104l-166 -321h-83z" />
    <glyph glyph-name="uni0123" unicode="&#x123;" horiz-adv-x="1266" 
d="M284 506q-30 -191 65.5 -309t285.5 -118q189 0 321.5 118t162.5 309q30 190 -65 308.5t-284 118.5q-190 0 -323 -118t-163 -309zM130 -149l101 38q11 -120 111 -205t236 -85q156 0 295 109t161 249l34 216q-84 -95 -200 -147t-250 -52q-233 0 -353.5 149t-83.5 383
t204.5 382.5t400.5 148.5q135 0 234.5 -52t153.5 -146l27 173h102l-167 -1055q-19 -118 -106.5 -224.5t-214 -169.5t-252.5 -63q-164 0 -288.5 102t-144.5 249zM776 1282l145 321h104l-166 -321h-83z" />
    <glyph glyph-name="Hbar" unicode="&#x126;" horiz-adv-x="1231" 
d="M160 21l167 1053h-152l16 98h152l33 208h100l-33 -208h876l33 208h100l-33 -208h187l-16 -98h-187l-167 -1053h-100l108 679h-876l-108 -679h-100zM383 796h876l44 278h-876z" />
    <glyph glyph-name="hbar" unicode="&#x127;" horiz-adv-x="1276" 
d="M169 0l186 1175h-247l16 99h247l35 223h103l-35 -223h376l-16 -99h-376l-46 -291q74 72 170.5 113.5t197.5 41.5q120 0 216 -57q93 -59 136.5 -156.5t25.5 -214.5l-97 -611h-101l97 611q15 91 -22 166q-35 76 -105.5 119t-165.5 43t-180 -44q-88 -45 -144.5 -118.5
t-70.5 -165.5l-97 -611h-103z" />
    <glyph glyph-name="Itilde" unicode="&#x128;" horiz-adv-x="430" 
d="M202 0l222 1400h101l-222 -1400h-101zM220 1673q-27 75 35 148t152 73q28 0 62.5 -13.5t56 -26.5t58.5 -38q37 -24 51.5 -33t39 -19.5t42.5 -10.5q33 0 54 36q19 33 1 49q-5 5 -13 6l115 34q26 -78 -36 -151.5t-153 -73.5q-28 0 -60 13.5t-50.5 25.5t-53.5 37
q-34 24 -50 34t-41 21t-45 11q-35 0 -56 -29t-8 -67z" />
    <glyph glyph-name="itilde" unicode="&#x129;" horiz-adv-x="370" 
d="M170 0l160 1012h103l-160 -1012h-103zM105 1271q-27 75 35 148t152 73q28 0 62.5 -13t57 -27t57.5 -38q4 -3 16.5 -11t17 -10.5t15.5 -9t16 -9.5t14 -7.5t14.5 -6.5t13 -4.5t14 -3.5t12.5 -1q33 0 54 36q19 33 1 49q-5 5 -13 6l116 34q25 -79 -37 -152t-153 -73
q-28 0 -60 13.5t-50.5 25.5t-53.5 37q-32 23 -48.5 34t-41.5 21.5t-45 10.5q-35 0 -56 -29t-9 -67z" />
    <glyph glyph-name="Imacron" unicode="&#x12a;" horiz-adv-x="427" 
d="M201 0l222 1400h101l-222 -1400h-101zM175 1673l16 99h726l-16 -99h-726z" />
    <glyph glyph-name="imacron" unicode="&#x12b;" horiz-adv-x="459" 
d="M169 0l160 1012h103l-160 -1012h-103zM127 1280l15 99h726l-15 -99h-726z" />
    <glyph glyph-name="Iogonek" unicode="&#x12e;" horiz-adv-x="439" 
d="M141 -360q-70 1 -109 47t-28 113q12 67 66 113l136 112l218 1375h101l-213 -1342l32 -37l-37 -32q-38 -32 -56 -46q-104 -87 -116 -99q-18 -17 -22.5 -24t-6.5 -20q-4 -26 9.5 -42.5t43.5 -18.5q42 0 73.5 28t30.5 76h102q-6 -87 -72 -145t-152 -58z" />
    <glyph glyph-name="iogonek" unicode="&#x12f;" horiz-adv-x="440" 
d="M108 -360q-70 1 -109 47t-28 113q12 67 66 113l137 113l156 986h103l-151 -957l29 -34l-37 -32q-38 -32 -56 -46q-104 -87 -116 -99q-18 -17 -22.5 -24t-6.5 -20q-4 -26 9.5 -42.5t43.5 -18.5q42 0 73.5 28t30.5 76h102q-6 -87 -72 -145t-152 -58z" />
    <glyph glyph-name="Idotaccent" unicode="&#x130;" horiz-adv-x="446" 
d="M205 0l222 1400h101l-222 -1400h-101zM469 1727q4 29 26.5 46t50.5 17q27 0 43.5 -17.5t12.5 -44.5q-4 -28 -26.5 -46t-49.5 -18t-44 18.5t-13 44.5z" />
    <glyph glyph-name="dotlessi" unicode="&#x131;" horiz-adv-x="385" 
d="M140 0l160 1012h103l-160 -1012h-103z" />
    <glyph glyph-name="IJ" unicode="&#x132;" horiz-adv-x="1766" 
d="M197 0l222 1400h101l-222 -1400h-101zM594 608h101q-43 -240 56 -387t317 -147q213 0 356 136.5t181 377.5l129 812h102l-129 -812q-43 -271 -221 -442.5t-434 -171.5q-175 0 -291 84q-114 84 -157 228.5t-10 321.5z" />
    <glyph glyph-name="ij" unicode="&#x133;" horiz-adv-x="771" 
d="M193 0l160 1012h103l-160 -1012h-103zM157 -485l16 99q137 -6 236 68t119 195l179 1135h101l-179 -1135q-16 -100 -82 -184q-67 -87 -169.5 -135t-220.5 -43zM393 1309q4 26 26 44.5t48 18.5q29 0 46 -18.5t12 -44.5q-4 -27 -26.5 -46.5t-51.5 -19.5q-26 0 -42 20t-12 46
zM747 1309q4 26 26 44.5t48 18.5q29 0 46 -18.5t12 -44.5q-4 -27 -26.5 -46.5t-51.5 -19.5q-26 0 -42 20t-12 46z" />
    <glyph glyph-name="uni0136" unicode="&#x136;" horiz-adv-x="1114" 
d="M165 0l222 1400h103l-119 -748l775 748h133l-687 -664l452 -736h-129l-404 658l-164 -160l-79 -498h-103zM419 -485l145 321h104l-166 -321h-83z" />
    <glyph glyph-name="uni0137" unicode="&#x137;" horiz-adv-x="1048" 
d="M165 0l237 1497h103l-171 -1080l615 595h135l-426 -410l269 -602h-116l-234 522l-267 -258l-42 -264h-103zM341 -485l145 321h104l-166 -321h-83z" />
    <glyph glyph-name="Lacute" unicode="&#x139;" horiz-adv-x="1204" 
d="M165 0l222 1400h103l-206 -1301h816l-16 -99h-919zM446 1660l145 321h105l-168 -321h-82z" />
    <glyph glyph-name="lacute" unicode="&#x13a;" horiz-adv-x="398" 
d="M174 0l237 1497h103l-237 -1497h-103zM430 1660l145 321h105l-168 -321h-82z" />
    <glyph glyph-name="uni013B" unicode="&#x13b;" horiz-adv-x="1204" 
d="M165 0l222 1400h103l-206 -1301h816l-16 -99h-919zM452 -485l145 321h104l-166 -321h-83z" />
    <glyph glyph-name="uni013C" unicode="&#x13c;" horiz-adv-x="411" 
d="M184 0l237 1497h103l-237 -1497h-103zM30 -485l145 321h104l-166 -321h-83z" />
    <glyph glyph-name="Lcaron" unicode="&#x13d;" horiz-adv-x="1204" 
d="M165 0l222 1400h103l-206 -1301h816l-16 -99h-919zM679 1976h131l105 -189l162 189h130l-273 -321h-82z" />
    <glyph glyph-name="lcaron" unicode="&#x13e;" horiz-adv-x="410" 
d="M180 0l237 1497h103l-237 -1497h-103zM320 1981h131l105 -189l162 189h130l-273 -321h-82z" />
    <glyph glyph-name="Lslash" unicode="&#x141;" horiz-adv-x="1264" 
d="M158 0l135 852l-189 -100l-35 85l242 128l69 435h103l-60 -375l332 175l36 -85l-386 -204l-128 -812h816l-16 -99h-919z" />
    <glyph glyph-name="lslash" unicode="&#x142;" horiz-adv-x="455" 
d="M158 0l142 898l-276 -146l-35 85l329 174l77 486h103l-67 -426l244 129l36 -85l-298 -158l-152 -957h-103z" />
    <glyph glyph-name="Nacute" unicode="&#x143;" horiz-adv-x="1341" 
d="M165 0l222 1400h99l642 -1210l192 1210h102l-222 -1400h-97l-644 1208l-191 -1208h-103zM850 1660l145 321h105l-168 -321h-82z" />
    <glyph glyph-name="nacute" unicode="&#x144;" horiz-adv-x="1157" 
d="M325 1012h103l-20 -128q74 73 170.5 114t197.5 41q122 0 216 -57q93 -60 136.5 -157.5t25.5 -213.5l-97 -611h-101l97 611q15 91 -22 166q-36 77 -106.5 119.5t-164.5 42.5q-95 0 -180 -44q-89 -45 -145 -119t-70 -165l-97 -611h-103zM758 1260l144 321h105l-167 -321
h-82z" />
    <glyph glyph-name="uni0145" unicode="&#x145;" horiz-adv-x="1341" 
d="M165 0l222 1400h99l642 -1210l192 1210h102l-222 -1400h-97l-644 1208l-191 -1208h-103zM504 -485l145 321h104l-166 -321h-83z" />
    <glyph glyph-name="uni0146" unicode="&#x146;" horiz-adv-x="1157" 
d="M325 1012h103l-20 -128q74 73 170.5 114t197.5 41q122 0 216 -57q93 -60 136.5 -157.5t25.5 -213.5l-97 -611h-101l97 611q15 91 -22 166q-36 77 -106.5 119.5t-164.5 42.5q-95 0 -180 -44q-89 -45 -145 -119t-70 -165l-97 -611h-103zM432 -485l145 321h104l-166 -321
h-83z" />
    <glyph glyph-name="Ncaron" unicode="&#x147;" horiz-adv-x="1341" 
d="M165 0l222 1400h99l642 -1210l192 1210h102l-222 -1400h-97l-644 1208l-191 -1208h-103zM808 1976h131l105 -189l162 189h130l-273 -321h-82z" />
    <glyph glyph-name="ncaron" unicode="&#x148;" horiz-adv-x="1157" 
d="M325 1012h103l-20 -128q74 73 170.5 114t197.5 41q122 0 216 -57q93 -60 136.5 -157.5t25.5 -213.5l-97 -611h-101l97 611q15 91 -22 166q-36 77 -106.5 119.5t-164.5 42.5q-95 0 -180 -44q-89 -45 -145 -119t-70 -165l-97 -611h-103zM670 1558h131l105 -189l162 189h130
l-273 -321h-82z" />
    <glyph glyph-name="Omacron" unicode="&#x14c;" horiz-adv-x="1649" 
d="M831 -29q-162 0 -287.5 53.5t-202 149t-105 230.5t-3.5 296q34 215 146.5 380t289.5 257t393 92q215 0 363 -92t208.5 -257t26.5 -380q-51 -326 -277.5 -527.5t-551.5 -201.5zM332 699q-29 -183 23 -325.5t179.5 -222t310.5 -79.5q277 0 472 174t240 453
q29 183 -23.5 325.5t-179.5 222t-310 79.5q-277 0 -472.5 -174t-239.5 -453zM775 1661l16 99h726l-16 -99h-726z" />
    <glyph glyph-name="omacron" unicode="&#x14d;" horiz-adv-x="1221" 
d="M618 -26q-233 0 -353.5 149t-83.5 383t204.5 382.5t400.5 148.5q232 0 353 -149t84 -382q-37 -234 -205 -383t-400 -149zM284 506q-30 -191 65.5 -309t285.5 -118q189 0 321.5 118t162.5 309q30 190 -65 308.5t-284 118.5q-190 0 -323 -118t-163 -309zM522 1259l16 99
h726l-16 -99h-726z" />
    <glyph glyph-name="Ohungarumlaut" unicode="&#x150;" horiz-adv-x="1649" 
d="M831 -29q-162 0 -287.5 53.5t-202 149t-105 230.5t-3.5 296q34 215 146.5 380t289.5 257t393 92q215 0 363 -92t208.5 -257t26.5 -380q-51 -326 -277.5 -527.5t-551.5 -201.5zM332 699q-29 -183 23 -325.5t179.5 -222t310.5 -79.5q277 0 472 174t240 453
q29 183 -23.5 325.5t-179.5 222t-310 79.5q-277 0 -472.5 -174t-239.5 -453zM811 1660l145 321h105l-168 -321h-82zM1312 1660l145 321h105l-168 -321h-82z" />
    <glyph glyph-name="ohungarumlaut" unicode="&#x151;" horiz-adv-x="1221" 
d="M618 -26q-233 0 -353.5 149t-83.5 383t204.5 382.5t400.5 148.5q232 0 353 -149t84 -382q-37 -234 -205 -383t-400 -149zM284 506q-30 -191 65.5 -309t285.5 -118q189 0 321.5 118t162.5 309q30 190 -65 308.5t-284 118.5q-190 0 -323 -118t-163 -309zM574 1259l145 321
h105l-168 -321h-82zM1075 1259l145 321h105l-168 -321h-82z" />
    <glyph glyph-name="OE" unicode="&#x152;" horiz-adv-x="2527" 
d="M831 -29q-162 0 -287.5 53.5t-202 149t-105 230.5t-3.5 296q34 215 146.5 380t289.5 257t393 92q234 0 386.5 -107.5t201.5 -297.5l60 376h919l-16 -99h-816l-82 -519h699l-16 -100h-699l-92 -583h816l-16 -99h-919l60 376q-110 -190 -296.5 -297.5t-420.5 -107.5z
M332 699q-29 -183 23 -325.5t179.5 -222t310.5 -79.5q277 0 472 174t240 453q29 183 -23.5 325.5t-179.5 222t-310 79.5q-277 0 -472.5 -174t-239.5 -453z" />
    <glyph glyph-name="oe" unicode="&#x153;" horiz-adv-x="2160" 
d="M595 -26q-233 0 -353.5 149t-83.5 383t204.5 382.5t400.5 148.5q171 0 284.5 -83.5t147.5 -227.5q79 144 218.5 227.5t311.5 83.5q232 0 353 -149t84 -382l-8 -50h-937q-11 -171 84.5 -274t272.5 -103q139 0 249 66t173 182l100 -24q-77 -151 -220 -240t-319 -89
q-171 0 -284.5 84t-147.5 228q-80 -144 -219.5 -228t-310.5 -84zM261 506q-30 -191 65.5 -309t285.5 -118q189 0 321.5 118t162.5 309q30 190 -65 308.5t-284 118.5q-190 0 -323 -118t-163 -309zM1233 555h831q12 171 -83 274.5t-272 103.5t-305 -103.5t-171 -274.5z" />
    <glyph glyph-name="Racute" unicode="&#x154;" horiz-adv-x="1214" 
d="M165 0l222 1400h487q82 0 151.5 -25t122.5 -75.5t76 -137.5t6 -200q-15 -93 -51 -168t-87 -125.5t-110.5 -83t-126.5 -48.5l238 -537h-119l-234 524h-389l-83 -524h-103zM367 623h384q62 0 119.5 17.5t111.5 54t92.5 103t52.5 155.5v1q15 96 -1.5 166.5t-59 108.5t-94 55
t-114.5 17h-384zM826 1660l145 321h105l-168 -321h-82z" />
    <glyph glyph-name="racute" unicode="&#x155;" horiz-adv-x="791" 
d="M165 0l160 1012h103l-20 -128q74 72 170.5 113.5t197.5 41.5q75 0 139 -22l-56 -91q-52 13 -99 13q-95 0 -180 -44q-88 -45 -144.5 -118.5t-70.5 -165.5l-97 -611h-103zM554 1243l145 321h105l-168 -321h-82z" />
    <glyph glyph-name="uni0156" unicode="&#x156;" horiz-adv-x="1214" 
d="M165 0l222 1400h487q82 0 151.5 -25t122.5 -75.5t76 -137.5t6 -200q-15 -93 -51 -168t-87 -125.5t-110.5 -83t-126.5 -48.5l238 -537h-119l-234 524h-389l-83 -524h-103zM367 623h384q62 0 119.5 17.5t111.5 54t92.5 103t52.5 155.5v1q15 96 -1.5 166.5t-59 108.5t-94 55
t-114.5 17h-384zM446 -485l145 321h104l-166 -321h-83z" />
    <glyph glyph-name="uni0157" unicode="&#x157;" horiz-adv-x="810" 
d="M184 0l160 1012h103l-20 -128q74 72 170.5 113.5t197.5 41.5q75 0 139 -22l-56 -91q-52 13 -99 13q-95 0 -180 -44q-88 -45 -144.5 -118.5t-70.5 -165.5l-97 -611h-103zM34 -485l145 321h104l-166 -321h-83z" />
    <glyph glyph-name="Rcaron" unicode="&#x158;" horiz-adv-x="1214" 
d="M165 0l222 1400h487q82 0 151.5 -25t122.5 -75.5t76 -137.5t6 -200q-15 -93 -51 -168t-87 -125.5t-110.5 -83t-126.5 -48.5l238 -537h-119l-234 524h-389l-83 -524h-103zM367 623h384q62 0 119.5 17.5t111.5 54t92.5 103t52.5 155.5v1q15 96 -1.5 166.5t-59 108.5t-94 55
t-114.5 17h-384zM701 1991h131l105 -189l162 189h130l-272 -321h-82z" />
    <glyph glyph-name="rcaron" unicode="&#x159;" horiz-adv-x="791" 
d="M165 0l160 1012h103l-20 -128q74 72 170.5 113.5t197.5 41.5q75 0 139 -22l-56 -91q-52 13 -99 13q-95 0 -180 -44q-88 -45 -144.5 -118.5t-70.5 -165.5l-97 -611h-103zM472 1567h131l105 -189l162 189h130l-273 -321h-82z" />
    <glyph glyph-name="Sacute" unicode="&#x15a;" horiz-adv-x="1334" 
d="M675 -26q-115 0 -216 34q-111 37 -183 106.5t-83 162.5l101 37q13 -110 120 -175t277 -65q110 0 214 37q104 38 169 101.5t78 147.5q13 87 -34 142q-88 98 -340 145q-133 25 -245 64q-243 87 -206 321q20 119 107 208q84 83 210 130.5t260 47.5q189 0 325 -82.5
t161 -222.5l-104 -33q-14 110 -120.5 174t-277.5 64q-111 0 -213 -36q-218 -81 -246 -250q-15 -96 29 -147q41 -51 123 -80.5t221 -55.5q139 -27 236 -68q250 -105 216 -321q-18 -116 -107 -207q-86 -85 -211 -132t-261 -47zM890 1660l145 321h105l-168 -321h-82z" />
    <glyph glyph-name="sacute" unicode="&#x15b;" horiz-adv-x="976" 
d="M491 -22q-83 0 -159 26q-88 28 -142.5 84t-60.5 132l102 37q3 -81 77 -129t199 -48q70 0 137 20.5t118.5 65.5t60.5 107q6 36 -8.5 66t-39 49.5t-64.5 35t-73 24t-77 16.5q-97 18 -179 48q-182 64 -154 243q14 91 82 160q65 64 157.5 99.5t192.5 35.5q145 0 249 -66.5
t116 -176.5l-105 -35q-3 82 -76 129t-200 47q-111 0 -206 -51.5t-109 -141.5q-10 -61 20 -94q29 -35 85.5 -55t155.5 -39q112 -22 174 -51q187 -80 161 -243q-14 -92 -82 -159q-64 -65 -157.5 -100.5t-194.5 -35.5zM650 1254l144 321h105l-167 -321h-82z" />
    <glyph glyph-name="Scedilla" unicode="&#x15e;" horiz-adv-x="1334" 
d="M668 -361q-74 -19 -131 21.5t-56 113.5l105 24q-6 -35 15 -53t56 -9q30 7 46 27t12 47q-3 26 -23.5 38t-48.5 5l-126 -29l116 151q-97 6 -174 33q-111 37 -183 106.5t-83 162.5l101 37q13 -110 120 -175t277 -65q110 0 214 37q104 38 169 101.5t78 147.5q13 87 -34 142
q-88 98 -340 145q-133 25 -245 64q-243 87 -206 321q20 119 107 208q84 83 210 130.5t260 47.5q189 0 325 -82.5t161 -222.5l-104 -33q-14 110 -120.5 174t-277.5 64q-111 0 -213 -36q-218 -81 -246 -250q-15 -96 29 -147q41 -51 123 -80.5t221 -55.5q139 -27 236 -68
q250 -105 216 -321q-18 -116 -107 -207q-73 -72 -175 -117t-217 -58l-25 -32q36 -14 60 -42.5t28 -67.5q9 -64 -35.5 -122t-114.5 -75z" />
    <glyph glyph-name="scedilla" unicode="&#x15f;" horiz-adv-x="976" 
d="M489 -349q-74 -19 -131 21.5t-56 113.5l105 24q-7 -35 14.5 -53t56.5 -9q30 7 46 27t12 47q-3 26 -23.5 38t-48.5 5l-126 -29l110 144q-61 5 -116 24q-88 28 -142.5 84t-60.5 132l102 37q3 -81 77 -129t199 -48q70 0 137 20.5t118.5 65.5t60.5 107q6 36 -8.5 66t-39 49.5
t-64.5 35t-73 24t-77 16.5q-97 18 -179 48q-182 64 -154 243q14 91 82 160q65 64 157.5 99.5t192.5 35.5q145 0 249 -66.5t116 -176.5l-105 -35q-3 82 -76 129t-200 47q-111 0 -206 -51.5t-109 -141.5q-10 -61 20 -94q29 -35 85.5 -55t155.5 -39q112 -22 174 -51
q187 -80 161 -243q-14 -92 -82 -159q-105 -106 -272 -130l-20 -26q36 -14 60 -42.5t28 -67.5q8 -64 -36 -122.5t-114 -74.5z" />
    <glyph glyph-name="Scaron" unicode="&#x160;" horiz-adv-x="1334" 
d="M675 -26q-115 0 -216 34q-111 37 -183 106.5t-83 162.5l101 37q13 -110 120 -175t277 -65q110 0 214 37q104 38 169 101.5t78 147.5q13 87 -34 142q-88 98 -340 145q-133 25 -245 64q-243 87 -206 321q20 119 107 208q84 83 210 130.5t260 47.5q189 0 325 -82.5
t161 -222.5l-104 -33q-14 110 -120.5 174t-277.5 64q-111 0 -213 -36q-218 -81 -246 -250q-15 -96 29 -147q41 -51 123 -80.5t221 -55.5q139 -27 236 -68q250 -105 216 -321q-18 -116 -107 -207q-86 -85 -211 -132t-261 -47zM798 1980h131l105 -189l162 189h130l-273 -321
h-82z" />
    <glyph glyph-name="scaron" unicode="&#x161;" horiz-adv-x="976" 
d="M491 -22q-83 0 -159 26q-88 28 -142.5 84t-60.5 132l102 37q3 -81 77 -129t199 -48q70 0 137 20.5t118.5 65.5t60.5 107q6 36 -8.5 66t-39 49.5t-64.5 35t-73 24t-77 16.5q-97 18 -179 48q-182 64 -154 243q14 91 82 160q65 64 157.5 99.5t192.5 35.5q145 0 249 -66.5
t116 -176.5l-105 -35q-3 82 -76 129t-200 47q-111 0 -206 -51.5t-109 -141.5q-10 -61 20 -94q29 -35 85.5 -55t155.5 -39q112 -22 174 -51q187 -80 161 -243q-14 -92 -82 -159q-64 -65 -157.5 -100.5t-194.5 -35.5zM543 1581h131l105 -189l162 189h130l-272 -321h-82z" />
    <glyph glyph-name="uni0162" unicode="&#x162;" horiz-adv-x="1377" 
d="M658 -349q-74 -19 -131 21.5t-56 113.5l105 24q-7 -35 14.5 -53t56.5 -9q30 7 46 27t12 47q-3 26 -23.5 38t-48.5 5l-126 -29l144 187l202 1278h-525l16 99h1155l-16 -99h-528l-200 -1261l20 -11l-55 -71q36 -14 60 -42.5t28 -67.5q8 -64 -36 -122.5t-114 -74.5z" />
    <glyph glyph-name="uni0163" unicode="&#x163;" horiz-adv-x="774" 
d="M708 38q-39 -22 -85 -32l-27 -35q36 -14 60 -42.5t28 -67.5q9 -64 -35.5 -122t-114.5 -75q-74 -19 -131 21.5t-56 113.5l105 24q-6 -35 15 -53t56 -9q30 7 46 27t12 47q-3 26 -23.5 38t-48.5 5l-126 -29l122 159q-78 20 -119 83t-28 147l107 675h-208l15 99h208l49 305
h102l-4 -21l-44 -284h278l-15 -99h-279l-107 -675q-10 -60 26 -99.5t98 -39.5q58 0 140 43z" />
    <glyph glyph-name="Tcaron" unicode="&#x164;" horiz-adv-x="1394" 
d="M664 0l206 1301h-525l16 99h1155l-16 -99h-528l-206 -1301h-102zM737 2006h131l105 -189l162 189h130l-273 -321h-82z" />
    <glyph glyph-name="tcaron" unicode="&#x165;" horiz-adv-x="779" 
d="M708 38q-65 -38 -140 -38q-105 0 -165.5 69t-44.5 169l107 675h-208l15 99h208l49 305h102l-4 -21l-44 -284h278l-15 -99h-279l-107 -675q-10 -60 26 -99.5t98 -39.5q58 0 140 43zM432 1670h131l105 -189l162 189h130l-273 -321h-82z" />
    <glyph glyph-name="Utilde" unicode="&#x168;" horiz-adv-x="1425" 
d="M719 -26q-175 0 -288 84q-110 81 -155 220.5t-18 309.5l129 812h103l-129 -812q-37 -232 62.5 -373t311.5 -141q214 0 357 136.5t181 377.5l129 812h103l-129 -812q-43 -272 -221.5 -443t-435.5 -171zM708 1719q-27 75 35 148t152 73q28 0 62.5 -13t57 -27t57.5 -38
q4 -3 16.5 -11t17 -10.5t15.5 -9t16 -9.5t14 -7.5t14.5 -6.5t13 -4.5t14 -3.5t12.5 -1q33 0 54 36q19 33 1 49q-5 5 -13 6l116 34q25 -79 -37 -152t-153 -73q-28 0 -60 13.5t-50.5 25.5t-53.5 37q-32 23 -48.5 34t-41.5 21.5t-45 10.5q-35 0 -56 -29t-9 -67z" />
    <glyph glyph-name="utilde" unicode="&#x169;" horiz-adv-x="1112" 
d="M564 -26q-123 0 -216 59q-93 57 -137 154.5t-25 214.5l96 610h101l-96 -610q-15 -90 21 -164q35 -77 106 -120.5t166 -43.5q96 0 179 45q87 45 144 118.5t72 164.5l96 610h102l-160 -1012h-102l21 130q-75 -72 -171.5 -114t-196.5 -42zM463 1310q-27 75 35 148t152 73
q28 0 62.5 -13t57 -27t57.5 -38q4 -3 16.5 -11t17 -10.5t15.5 -9t16 -9.5t14 -7.5t14.5 -6.5t13 -4.5t14 -3.5t12.5 -1q33 0 54 36q20 33 2 49q-5 5 -13 6l115 34q25 -79 -37 -152t-153 -73q-28 0 -60.5 14t-48.5 24.5t-55 37.5q-32 23 -48.5 34t-41.5 21.5t-45 10.5
q-35 0 -56 -29t-8 -67z" />
    <glyph glyph-name="Umacron" unicode="&#x16a;" horiz-adv-x="1425" 
d="M719 -26q-175 0 -288 84q-110 81 -155 220.5t-18 309.5l129 812h103l-129 -812q-37 -232 62.5 -373t311.5 -141q214 0 357 136.5t181 377.5l129 812h103l-129 -812q-43 -272 -221.5 -443t-435.5 -171zM671 1678l15 99h726l-15 -99h-726z" />
    <glyph glyph-name="umacron" unicode="&#x16b;" horiz-adv-x="1112" 
d="M564 -26q-123 0 -216 59q-93 57 -137 154.5t-25 214.5l96 610h101l-96 -610q-15 -90 21 -164q35 -77 106 -120.5t166 -43.5q96 0 179 45q87 45 144 118.5t72 164.5l96 610h102l-160 -1012h-102l21 130q-75 -72 -171.5 -114t-196.5 -42zM453 1307l16 99h726l-16 -99h-726z
" />
    <glyph glyph-name="Uring" unicode="&#x16e;" horiz-adv-x="1425" 
d="M719 -26q-175 0 -288 84q-110 81 -155 220.5t-18 309.5l129 812h103l-129 -812q-37 -232 62.5 -373t311.5 -141q214 0 357 136.5t181 377.5l129 812h103l-129 -812q-43 -272 -221.5 -443t-435.5 -171zM857 1821q11 64 65 109.5t120 45.5t106.5 -46t30.5 -109
q-10 -64 -65 -110t-121 -46t-106 46t-30 110zM946 1821q-4 -31 12.5 -50t47.5 -19q33 0 55 19t27 50q5 29 -11.5 47t-48.5 18q-31 0 -54.5 -18.5t-27.5 -46.5z" />
    <glyph glyph-name="uring" unicode="&#x16f;" horiz-adv-x="1112" 
d="M564 -26q-123 0 -216 59q-93 57 -137 154.5t-25 214.5l96 610h101l-96 -610q-15 -90 21 -164q35 -77 106 -120.5t166 -43.5q96 0 179 45q87 45 144 118.5t72 164.5l96 610h102l-160 -1012h-102l21 130q-75 -72 -171.5 -114t-196.5 -42zM618 1414q10 64 64.5 109.5
t120.5 45.5t106.5 -46t30.5 -109q-10 -64 -65.5 -110t-121.5 -46t-106 46t-29 110zM707 1414q-5 -30 12 -49.5t48 -19.5q33 0 55 19t27 50q5 29 -11.5 47t-49.5 18q-31 0 -54 -18.5t-27 -46.5z" />
    <glyph glyph-name="Uhungarumlaut" unicode="&#x170;" horiz-adv-x="1425" 
d="M719 -26q-175 0 -288 84q-110 81 -155 220.5t-18 309.5l129 812h103l-129 -812q-37 -232 62.5 -373t311.5 -141q214 0 357 136.5t181 377.5l129 812h103l-129 -812q-43 -272 -221.5 -443t-435.5 -171zM724 1660l145 321h105l-168 -321h-82zM1225 1660l145 321h105
l-168 -321h-82z" />
    <glyph glyph-name="uhungarumlaut" unicode="&#x171;" horiz-adv-x="1112" 
d="M564 -26q-123 0 -216 59q-93 57 -137 154.5t-25 214.5l96 610h101l-96 -610q-15 -90 21 -164q35 -77 106 -120.5t166 -43.5q96 0 179 45q87 45 144 118.5t72 164.5l96 610h102l-160 -1012h-102l21 130q-75 -72 -171.5 -114t-196.5 -42zM508 1271l145 321h105l-168 -321
h-82zM1009 1271l145 321h105l-168 -321h-82z" />
    <glyph glyph-name="Uogonek" unicode="&#x172;" horiz-adv-x="1425" 
d="M719 -26q-36 0 -76 5q-18 -15 -44 -36q-104 -87 -116 -99q-18 -17 -22.5 -24t-6.5 -20q-4 -26 9.5 -42.5t43.5 -18.5q42 0 73.5 28t30.5 76h102q-6 -87 -72 -145t-152 -58q-70 1 -109 47t-28 113q12 67 66 113l112 92q-58 22 -99 53q-110 81 -155 220.5t-18 309.5
l129 812h103l-129 -812q-31 -199 38.5 -333t227.5 -170l5 5l7 -7q43 -9 96 -9q214 0 357 136.5t181 377.5l129 812h103l-129 -812q-43 -272 -221.5 -443t-435.5 -171z" />
    <glyph glyph-name="uogonek" unicode="&#x173;" horiz-adv-x="1099" 
d="M564 -26q-123 0 -216 59q-93 57 -137 154.5t-25 214.5l96 610h101l-96 -610q-15 -90 21 -164q35 -77 106 -120.5t166 -43.5q96 0 179 45q87 45 144 118.5t72 164.5l96 610h102l-147 -933l50 -58l-37 -32q-38 -32 -56 -46q-104 -87 -116 -99q-18 -17 -22.5 -24t-6.5 -20
q-4 -26 9.5 -42.5t43.5 -18.5q42 0 73.5 28t30.5 76h102q-6 -87 -72 -145t-152 -58q-70 1 -109 47t-28 113q12 67 66 113l110 90l20 127q-75 -72 -171.5 -114t-196.5 -42z" />
    <glyph glyph-name="Wcircumflex" unicode="&#x174;" horiz-adv-x="1686" 
d="M437 0l-152 1400h105l131 -1217l517 1217h80l133 -1217l515 1217h105l-594 -1400h-112l-127 1154l-490 -1154h-111zM885 1660l274 321h82l173 -321h-129l-107 189l-164 -189h-129z" />
    <glyph glyph-name="wcircumflex" unicode="&#x175;" horiz-adv-x="1710" 
d="M464 0l-195 1012h102l168 -859l437 859h107l166 -859l438 859h104l-514 -1012h-100l-171 871l-444 -871h-98zM837 1261l274 321h82l173 -321h-129l-107 189l-164 -189h-129z" />
    <glyph glyph-name="Ycircumflex" unicode="&#x176;" horiz-adv-x="1274" 
d="M605 0l100 632l-365 768h120l314 -660l523 660h120l-610 -768l-100 -632h-102zM673 1660l274 321h82l173 -321h-129l-107 189l-164 -189h-129z" />
    <glyph glyph-name="ycircumflex" unicode="&#x177;" horiz-adv-x="1087" 
d="M232 -485l272 506l-213 991h111l177 -851l461 851h107l-807 -1497h-108zM500 1260l273 321h82l174 -321h-129l-108 189l-163 -189h-129z" />
    <glyph glyph-name="Ydieresis" unicode="&#x178;" horiz-adv-x="1274" 
d="M605 0l100 632l-365 768h120l314 -660l523 660h120l-610 -768l-100 -632h-102zM712 1703q4 26 28.5 45.5t50.5 19.5t44 -19.5t14 -45.5q-4 -27 -27.5 -45.5t-50.5 -18.5t-45 18.5t-14 45.5zM968 1703q4 27 28 46t52 19q25 0 43 -19.5t14 -45.5q-4 -27 -28 -45.5
t-49 -18.5q-28 0 -46 18.5t-14 45.5z" />
    <glyph glyph-name="Zacute" unicode="&#x179;" horiz-adv-x="1410" 
d="M122 0l14 87l1236 1214h-1044l16 99h1188l-14 -87l-1236 -1214h1044l-16 -99h-1188zM918 1660l145 321h105l-168 -321h-82z" />
    <glyph glyph-name="zacute" unicode="&#x17a;" horiz-adv-x="1128" 
d="M122 0l14 87l889 826h-758l15 99h907l-13 -87l-890 -826h759l-16 -99h-907zM706 1249l145 321h105l-168 -321h-82z" />
    <glyph glyph-name="Zdotaccent" unicode="&#x17b;" horiz-adv-x="1410" 
d="M122 0l14 87l1236 1214h-1044l16 99h1188l-14 -87l-1236 -1214h1044l-16 -99h-1188zM931 1690q4 29 26.5 46t50.5 17q27 0 43.5 -18t12.5 -44q-4 -28 -26.5 -46t-49.5 -18t-44 18.5t-13 44.5z" />
    <glyph glyph-name="zdotaccent" unicode="&#x17c;" horiz-adv-x="1128" 
d="M122 0l14 87l889 826h-758l15 99h907l-13 -87l-890 -826h759l-16 -99h-907zM742 1376q4 29 26.5 46t50.5 17q27 0 43.5 -18t12.5 -44q-4 -28 -26.5 -46t-49.5 -18t-44 18.5t-13 44.5z" />
    <glyph glyph-name="Zcaron" unicode="&#x17d;" horiz-adv-x="1410" 
d="M122 0l14 87l1236 1214h-1044l16 99h1188l-14 -87l-1236 -1214h1044l-16 -99h-1188zM785 1964h131l105 -189l162 189h130l-273 -321h-82z" />
    <glyph glyph-name="zcaron" unicode="&#x17e;" horiz-adv-x="1128" 
d="M122 0l14 87l889 826h-758l15 99h907l-13 -87l-890 -826h759l-16 -99h-907zM618 1600h131l105 -189l162 189h130l-272 -321h-82z" />
    <glyph glyph-name="uni018F" unicode="&#x18f;" horiz-adv-x="1630" 
d="M1042 1396q203 0 345 -89t200.5 -247.5t26.5 -362.5q-48 -309 -267 -504t-526 -195q-204 0 -346 89t-201.5 248t-27.5 362l8 46h1274q24 249 -111.5 402.5t-389.5 153.5q-190 0 -344 -88.5t-245 -245.5l-91 25q104 189 286 297.5t409 108.5zM336 652q-25 -249 110 -403
t390 -154q254 0 438 154t239 403h-1177z" />
    <glyph glyph-name="uni0218" unicode="&#x218;" horiz-adv-x="1334" 
d="M675 -26q-115 0 -216 34q-111 37 -183 106.5t-83 162.5l101 37q13 -110 120 -175t277 -65q110 0 214 37q104 38 169 101.5t78 147.5q13 87 -34 142q-88 98 -340 145q-133 25 -245 64q-243 87 -206 321q20 119 107 208q84 83 210 130.5t260 47.5q189 0 325 -82.5
t161 -222.5l-104 -33q-14 110 -120.5 174t-277.5 64q-111 0 -213 -36q-218 -81 -246 -250q-15 -96 29 -147q41 -51 123 -80.5t221 -55.5q139 -27 236 -68q250 -105 216 -321q-18 -116 -107 -207q-86 -85 -211 -132t-261 -47zM508 -485l145 321h104l-166 -321h-83z" />
    <glyph glyph-name="uni0219" unicode="&#x219;" horiz-adv-x="976" 
d="M491 -22q-83 0 -159 26q-88 28 -142.5 84t-60.5 132l102 37q3 -81 77 -129t199 -48q70 0 137 20.5t118.5 65.5t60.5 107q6 36 -8.5 66t-39 49.5t-64.5 35t-73 24t-77 16.5q-97 18 -179 48q-182 64 -154 243q14 91 82 160q65 64 157.5 99.5t192.5 35.5q145 0 249 -66.5
t116 -176.5l-105 -35q-3 82 -76 129t-200 47q-111 0 -206 -51.5t-109 -141.5q-10 -61 20 -94q29 -35 85.5 -55t155.5 -39q112 -22 174 -51q187 -80 161 -243q-14 -92 -82 -159q-64 -65 -157.5 -100.5t-194.5 -35.5zM326 -485l145 321h104l-166 -321h-83z" />
    <glyph glyph-name="uni021A" unicode="&#x21a;" horiz-adv-x="1377" 
d="M647 0l206 1301h-525l16 99h1155l-16 -99h-528l-206 -1301h-102zM502 -485l145 321h104l-166 -321h-83z" />
    <glyph glyph-name="uni021B" unicode="&#x21b;" horiz-adv-x="779" 
d="M708 38q-65 -38 -140 -38q-105 0 -165.5 69t-44.5 169l107 675h-208l15 99h208l49 305h102l-4 -21l-44 -284h278l-15 -99h-279l-107 -675q-10 -60 26 -99.5t98 -39.5q58 0 140 43zM347 -485l145 321h104l-166 -321h-83z" />
    <glyph glyph-name="uni0237" unicode="&#x237;" horiz-adv-x="487" 
d="M-130 -386q137 -6 236 68t119 195l179 1135h101l-179 -1135q-16 -100 -82 -184q-67 -87 -169.5 -135t-220.5 -43z" />
    <glyph glyph-name="uni0259" unicode="&#x259;" horiz-adv-x="1220" 
d="M709 1031q233 0 353.5 -149t83.5 -383t-204.5 -382.5t-400.5 -148.5q-232 0 -353 149t-84 382l8 50h937q12 171 -83.5 274t-272.5 103q-138 0 -248.5 -66t-174.5 -182l-100 24q78 151 220.5 240t318.5 89zM202 450q-11 -171 84 -274.5t271 -103.5q177 0 305.5 103.5
t170.5 274.5h-831z" />
    <glyph glyph-name="circumflex" unicode="&#x2c6;" horiz-adv-x="626" 
d="M426 2260l274 321h82l173 -321h-129l-107 189l-164 -189h-129z" />
    <glyph glyph-name="caron" unicode="&#x2c7;" horiz-adv-x="551" 
d="M498 1660l-173 321h131l105 -189l162 189h130l-273 -321h-82z" />
    <glyph glyph-name="breve" unicode="&#x2d8;" horiz-adv-x="1247" 
d="M883 1638q-97 0 -172 47q-79 49 -114 133.5t-13 182.5h102q-19 -79 10 -142q29 -57 82 -89t121 -32q114 0 200 76t96 187h102q-12 -108 -81 -194q-63 -78 -151.5 -123.5t-181.5 -45.5z" />
    <glyph glyph-name="dotaccent" unicode="&#x2d9;" horiz-adv-x="1033" 
d="M906 2357q-27 0 -44 18t-13 45q5 29 27 46t50 17q27 0 43.5 -18t12.5 -44q-4 -28 -26.5 -46t-49.5 -18z" />
    <glyph glyph-name="ring" unicode="&#x2da;" horiz-adv-x="1222" 
d="M985 2265q-66 0 -106 46t-30 110q11 64 65 109.5t120 45.5t106.5 -46t30.5 -109q-10 -64 -65 -110t-121 -46zM938 2421q-4 -31 13 -50t48 -19q33 0 54.5 19t26.5 50q5 29 -11.5 47t-48.5 18q-31 0 -54.5 -18.5t-27.5 -46.5z" />
    <glyph glyph-name="ogonek" unicode="&#x2db;" horiz-adv-x="1014" 
d="M434 -360q-70 1 -109 47t-28 113q12 67 66 113l214 177l60 -69l-37 -32q-38 -32 -56 -46q-104 -87 -116 -99q-18 -17 -22.5 -24t-6.5 -20q-4 -26 9.5 -42.5t43.5 -18.5q42 0 73.5 28t30.5 76h102q-6 -87 -72 -145t-152 -58z" />
    <glyph glyph-name="tilde" unicode="&#x2dc;" horiz-adv-x="1290" 
d="M1178 2329q-28 0 -60 13.5t-50.5 25.5t-53.5 37q-34 24 -50 34t-41 21t-45 11q-35 0 -55.5 -28.5t-8.5 -67.5l-101 -26q-27 75 35 148t152 73q28 0 62.5 -13t57 -27t57.5 -38q37 -24 51.5 -33t39 -19.5t42.5 -10.5q33 0 54 36q19 33 1 49q-5 5 -13 6l116 34
q25 -79 -37 -152t-153 -73z" />
    <glyph glyph-name="hungarumlaut" unicode="&#x2dd;" horiz-adv-x="920" 
d="M1024 2260l145 321h105l-168 -321h-82zM523 2260l145 321h105l-168 -321h-82z" />
    <glyph glyph-name="gravecomb" unicode="&#x300;" 
d="M604 1660l-66 321h107l40 -321h-81z" />
    <glyph glyph-name="acutecomb" unicode="&#x301;" 
d="M487 1660l145 321h105l-168 -321h-82z" />
    <glyph glyph-name="uni0302" unicode="&#x302;" 
d="M291 1660l274 321h82l173 -321h-129l-107 189l-164 -189h-129z" />
    <glyph glyph-name="tildecomb" unicode="&#x303;" 
d="M1081 1699q-28 0 -60 13.5t-50.5 25.5t-53.5 37q-32 23 -48.5 34t-41.5 21.5t-45 10.5q-35 0 -56 -29t-9 -67l-101 -26q-27 75 35 148t152 73q28 0 62.5 -13t57 -27t57.5 -38q4 -3 16.5 -11t17 -10.5t15.5 -9t16 -9.5t14 -7.5t14.5 -6.5t13 -4.5t14 -3.5t12.5 -1
q33 0 54 36q19 33 1 49q-5 5 -13 6l116 34q25 -79 -37 -152t-153 -73z" />
    <glyph glyph-name="uni0304" unicode="&#x304;" 
d="M688 2338l16 99h726l-16 -99h-726z" />
    <glyph glyph-name="uni0306" unicode="&#x306;" 
d="M1006 2238q-97 0 -172 47q-79 49 -114 133.5t-13 182.5h102q-19 -79 10 -142q29 -57 82 -89t121 -32q114 0 200.5 76t95.5 187h102q-12 -108 -81 -194q-63 -78 -151.5 -123.5t-181.5 -45.5z" />
    <glyph glyph-name="uni0307" unicode="&#x307;" 
d="M778 1757q-27 0 -44 18t-13 45q5 29 27 46t50 17q27 0 43.5 -18t12.5 -44q-4 -28 -26.5 -46t-49.5 -18z" />
    <glyph glyph-name="uni0308" unicode="&#x308;" 
d="M1019 1639q-28 0 -46 18.5t-14 45.5t28 46t52 19q25 0 43 -19.5t14 -45.5q-4 -27 -28 -45.5t-49 -18.5zM703 1703q4 26 28.5 45.5t50.5 19.5t44 -19.5t14 -45.5q-4 -27 -27.5 -45.5t-50.5 -18.5t-45 18.5t-14 45.5z" />
    <glyph glyph-name="uni030A" unicode="&#x30a;" 
d="M857 1665q-66 0 -106 46t-30 110q11 64 65 109.5t120 45.5t106.5 -46t30.5 -109q-10 -64 -65 -110t-121 -46zM810 1821q-4 -31 12.5 -50t47.5 -19q33 0 55 19t27 50q5 29 -11.5 47t-48.5 18q-31 0 -54.5 -18.5t-27.5 -46.5z" />
    <glyph glyph-name="uni030B" unicode="&#x30b;" 
d="M929 1660l145 321h105l-168 -321h-82zM428 1660l145 321h105l-168 -321h-82z" />
    <glyph glyph-name="uni030C" unicode="&#x30c;" 
d="M633 2260l-173 321h131l105 -189l162 189h130l-273 -321h-82z" />
    <glyph glyph-name="dotbelowcomb" unicode="&#x323;" 
d="M563 188q-27 0 -44 18.5t-13 44.5q4 29 26.5 46t50.5 17q27 0 43.5 -18t12.5 -44q-4 -28 -26.5 -46t-49.5 -18z" />
    <glyph glyph-name="uni0326" unicode="&#x326;" 
d="M479 -485l145 321h104l-166 -321h-83z" />
    <glyph glyph-name="uni0327" unicode="&#x327;" 
d="M586 -349q-74 -19 -131 21.5t-56 113.5l105 24q-7 -35 14.5 -53t56.5 -9q30 7 46 27t12 47q-3 26 -23.5 38t-48.5 5l-126 -29l185 241l83 -48l-55 -71q36 -14 60 -42.5t28 -67.5q8 -64 -36 -122.5t-114 -74.5z" />
    <glyph glyph-name="uni0328" unicode="&#x328;" 
d="M464 -360q-70 1 -109 47t-28 113q12 67 66 113l214 177l60 -69l-37 -32q-38 -32 -56 -46q-104 -87 -116 -99q-18 -17 -22.5 -24t-6.5 -20q-4 -26 9.5 -42.5t43.5 -18.5q42 0 73.5 28t30.5 76h102q-6 -87 -72 -145t-152 -58z" />
    <glyph glyph-name="uni03BC" unicode="&#x3bc;" horiz-adv-x="1089" 
d="M33 -419l226 1431h101l-87 -552q-18 -109 17 -195q34 -90 103.5 -140.5t164.5 -50.5q92 0 178 52q89 53 148.5 140t76.5 194l87 552h102l-160 -1012h-102l24 153q-79 -86 -174.5 -132.5t-195.5 -46.5q-105 0 -187 48.5t-131 130.5l-90 -572h-101z" />
    <glyph glyph-name="uni1E20" unicode="&#x1e20;" horiz-adv-x="1538" 
d="M831 -29q-162 0 -287.5 53.5t-202 149t-105 230.5t-3.5 296q34 215 146.5 380t289.5 257t393 92q201 0 343.5 -81t210.5 -227l-105 -49q-61 121 -180 187.5t-287 66.5q-277 0 -472.5 -174t-239.5 -453q-29 -183 23 -325.5t179.5 -222t310.5 -79.5q159 0 294 60.5
t235 172.5l60 378h-625l16 100h726l-81 -514l1 -5q-114 -139 -279.5 -216t-360.5 -77zM715 1669l16 99h726l-16 -99h-726z" />
    <glyph glyph-name="uni1E21" unicode="&#x1e21;" horiz-adv-x="1285" 
d="M284 506q-30 -191 65.5 -309t285.5 -118q189 0 321.5 118t162.5 309q30 190 -65 308.5t-284 118.5q-190 0 -323 -118t-163 -309zM130 -149l101 38q11 -120 111 -205t236 -85q156 0 295 109t161 249l34 216q-84 -95 -200 -147t-250 -52q-233 0 -353.5 149t-83.5 383
t204.5 382.5t400.5 148.5q135 0 234.5 -52t153.5 -146l27 173h102l-167 -1055q-19 -118 -106.5 -224.5t-214 -169.5t-252.5 -63q-164 0 -288.5 102t-144.5 249zM508 1291l16 99h726l-16 -99h-726z" />
    <glyph glyph-name="Wgrave" unicode="&#x1e80;" horiz-adv-x="1686" 
d="M437 0l-152 1400h105l131 -1217l517 1217h80l133 -1217l515 1217h105l-594 -1400h-112l-127 1154l-490 -1154h-111zM1032 1981h107l40 -321h-81z" />
    <glyph glyph-name="wgrave" unicode="&#x1e81;" horiz-adv-x="1710" 
d="M464 0l-195 1012h102l168 -859l437 859h107l166 -859l438 859h104l-514 -1012h-100l-171 871l-444 -871h-98zM996 1580h107l40 -321h-81z" />
    <glyph glyph-name="Wacute" unicode="&#x1e82;" horiz-adv-x="1686" 
d="M437 0l-152 1400h105l131 -1217l517 1217h80l133 -1217l515 1217h105l-594 -1400h-112l-127 1154l-490 -1154h-111zM1060 1660l145 321h105l-168 -321h-82z" />
    <glyph glyph-name="wacute" unicode="&#x1e83;" horiz-adv-x="1710" 
d="M464 0l-195 1012h102l168 -859l437 859h107l166 -859l438 859h104l-514 -1012h-100l-171 871l-444 -871h-98zM993 1249l145 321h105l-168 -321h-82z" />
    <glyph glyph-name="Wdieresis" unicode="&#x1e84;" horiz-adv-x="1686" 
d="M437 0l-152 1400h105l131 -1217l517 1217h80l133 -1217l515 1217h105l-594 -1400h-112l-127 1154l-490 -1154h-111zM939 1703q4 26 28.5 45.5t50.5 19.5t44 -19.5t14 -45.5q-4 -27 -27.5 -45.5t-50.5 -18.5t-45 18.5t-14 45.5zM1195 1703q4 27 28 46t52 19q25 0 43 -19.5
t14 -45.5q-4 -27 -28 -45.5t-49 -18.5q-28 0 -46 18.5t-14 45.5z" />
    <glyph glyph-name="wdieresis" unicode="&#x1e85;" horiz-adv-x="1710" 
d="M464 0l-195 1012h102l168 -859l437 859h107l166 -859l438 859h104l-514 -1012h-100l-171 871l-444 -871h-98zM889 1316q4 26 29 45.5t51 19.5q27 0 44 -19.5t13 -45.5q-4 -27 -27.5 -45.5t-50.5 -18.5t-45 18.5t-14 45.5zM1145 1316q4 27 28.5 46t52.5 19
q25 0 42.5 -19.5t13.5 -45.5q-4 -27 -28 -45.5t-49 -18.5q-28 0 -46 18.5t-14 45.5z" />
    <glyph glyph-name="uni1E9E" unicode="&#x1e9e;" horiz-adv-x="1287" 
d="M460 123q159 -39 292 -13.5t224 108t109 195.5q12 74 -0.5 131.5t-41 92.5t-71 57t-85.5 30.5t-90 8.5h-240l17 105h234q120 0 200 59.5t101 189.5q18 112 -28 172t-159 60h-447l-238 -1502h-111l255 1607h558q146 0 227.5 -84t54.5 -253q-16 -104 -64 -175.5
t-132 -121.5q106 -49 150.5 -139.5t20.5 -237.5q-15 -93 -57.5 -167t-100 -119.5t-127 -76.5t-139 -43t-134.5 -14t-114.5 5t-79.5 19z" />
    <glyph glyph-name="uni1EBC" unicode="&#x1ebc;" horiz-adv-x="1204" 
d="M165 0l222 1400h919l-16 -99h-816l-82 -519h699l-16 -100h-699l-92 -583h816l-16 -99h-919zM585 1658q-27 75 35 148t152 73q28 0 62 -13.5t56 -27t58 -37.5q4 -3 16.5 -11t17 -10.5t15.5 -9t16 -9.5t14 -7.5t14.5 -6.5t13 -4.5t14 -3.5t12.5 -1q33 0 54 36q20 33 2 49
q-5 5 -13 6l115 34q25 -79 -37 -152t-153 -73q-28 0 -60.5 14t-48.5 24.5t-55 37.5q-32 23 -48.5 34t-41.5 21.5t-45 10.5q-35 0 -56 -29t-8 -67z" />
    <glyph glyph-name="uni1EBD" unicode="&#x1ebd;" horiz-adv-x="1221" 
d="M618 -26q-233 0 -353.5 149t-83.5 383t204.5 382.5t400.5 148.5q232 0 353 -149t84 -382l-8 -50h-937q-11 -171 84.5 -274t272.5 -103q139 0 249 66t173 182l100 -24q-77 -151 -220 -240t-319 -89zM294 555h831q12 171 -83 274.5t-272 103.5t-305 -103.5t-171 -274.5z
M515 1271q-27 75 35 148t152 73q28 0 62.5 -13t57 -27t57.5 -38q4 -3 16.5 -11t17 -10.5t15.5 -9t16 -9.5t14 -7.5t14.5 -6.5t13 -4.5t14 -3.5t12.5 -1q33 0 54 36q19 33 1 49q-5 5 -13 6l116 34q25 -79 -37 -152t-153 -73q-28 0 -60 13.5t-50.5 25.5t-53.5 37
q-32 23 -48.5 34t-41.5 21.5t-45 10.5q-35 0 -56 -29t-9 -67z" />
    <glyph glyph-name="Ygrave" unicode="&#x1ef2;" horiz-adv-x="1274" 
d="M605 0l100 632l-365 768h120l314 -660l523 660h120l-610 -768l-100 -632h-102zM817 1981h107l40 -321h-81z" />
    <glyph glyph-name="ygrave" unicode="&#x1ef3;" horiz-adv-x="1087" 
d="M232 -485l272 506l-213 991h111l177 -851l461 851h107l-807 -1497h-108zM704 1560h107l40 -321h-81z" />
    <glyph glyph-name="uni1EF8" unicode="&#x1ef8;" horiz-adv-x="1274" 
d="M605 0l100 632l-365 768h120l314 -660l523 660h120l-610 -768l-100 -632h-102zM598 1700q-27 75 35 148t152 73q28 0 62.5 -13t57 -27t57.5 -38q4 -3 16.5 -11t17 -10.5t15.5 -9t16 -9.5t14 -7.5t14.5 -6.5t13 -4.5t14 -3.5t12.5 -1q33 0 54 36q19 33 1 49q-5 5 -13 6
l116 34q25 -79 -37 -152t-153 -73q-28 0 -60 13.5t-50.5 25.5t-53.5 37q-32 23 -48.5 34t-41.5 21.5t-45 10.5q-35 0 -56 -29t-9 -67z" />
    <glyph glyph-name="uni1EF9" unicode="&#x1ef9;" horiz-adv-x="1087" 
d="M232 -485l272 506l-213 991h111l177 -851l461 851h107l-807 -1497h-108zM487 1283q-27 75 35 148t152 73q28 0 62.5 -13t57 -27t57.5 -38q4 -3 16.5 -11t17 -10.5t15.5 -9t16 -9.5t14 -7.5t14.5 -6.5t13 -4.5t14 -3.5t12.5 -1q33 0 54 36q19 33 1 49q-5 5 -13 6l116 34
q25 -79 -37 -152t-153 -73q-28 0 -60 13.5t-50.5 25.5t-53.5 37q-32 23 -48.5 34t-41.5 21.5t-45 10.5q-35 0 -56 -29t-9 -67z" />
    <glyph glyph-name="endash" unicode="&#x2013;" horiz-adv-x="1338" 
d="M228 553l15 100h1056l-15 -100h-1056z" />
    <glyph glyph-name="emdash" unicode="&#x2014;" horiz-adv-x="2150" 
d="M228 553l15 100h1868l-15 -100h-1868z" />
    <glyph glyph-name="quoteleft" unicode="&#x2018;" horiz-adv-x="453" 
d="M366 853l-4 547h103l-18 -547h-81z" />
    <glyph glyph-name="quoteright" unicode="&#x2019;" horiz-adv-x="307" 
d="M192 853l155 547h103l-176 -547h-82z" />
    <glyph glyph-name="quotesinglbase" unicode="&#x201a;" horiz-adv-x="358" 
d="M42 -108l128 369h104l-152 -369h-80z" />
    <glyph glyph-name="quotedblleft" unicode="&#x201c;" horiz-adv-x="627" 
d="M359 853l176 547h82l-156 -547h-102zM892 861l176 547h82l-156 -547h-102z" />
    <glyph glyph-name="quotedblright" unicode="&#x201d;" horiz-adv-x="627" 
d="M217 853l155 547h103l-176 -547h-82zM749 853l155 547h103l-176 -547h-82z" />
    <glyph glyph-name="quotedblbase" unicode="&#x201e;" horiz-adv-x="567" 
d="M42 -108l128 369h104l-152 -369h-80zM516 -108l128 369h104l-152 -369h-80z" />
    <glyph glyph-name="dagger" unicode="&#x2020;" horiz-adv-x="824" 
d="M452 583l83 524h-261l16 99h261l46 291h102l-46 -291h262l-16 -99h-262l-83 -524h-102z" />
    <glyph glyph-name="daggerdbl" unicode="&#x2021;" horiz-adv-x="824" 
d="M446 543l40 254h-261l16 98h261l33 212h-261l16 99h261l46 291h102l-46 -291h262l-16 -99h-262l-33 -212h262l-16 -98h-262l-40 -254h-102z" />
    <glyph glyph-name="bullet" unicode="&#x2022;" horiz-adv-x="361" 
d="M261 524q-33 0 -52 23t-14 57q4 32 31 54.5t60 22.5q35 0 55.5 -22.5t15.5 -54.5q-6 -34 -33.5 -57t-62.5 -23z" />
    <glyph glyph-name="ellipsis" unicode="&#x2026;" horiz-adv-x="1604" 
d="M182 -26q-26 0 -42 20t-12 46t26 44.5t48 18.5q29 0 46 -18.5t12 -44.5q-4 -27 -26.5 -46.5t-51.5 -19.5zM741 40q4 26 26 44.5t48 18.5q29 0 46 -18.5t12 -44.5q-4 -27 -26.5 -46.5t-51.5 -19.5q-26 0 -42 20t-12 46zM1355 40q4 26 26 44.5t48 18.5q29 0 46 -18.5
t12 -44.5q-4 -27 -26.5 -46.5t-51.5 -19.5q-26 0 -42 20t-12 46z" />
    <glyph glyph-name="guilsinglleft" unicode="&#x2039;" horiz-adv-x="721" 
d="M504 253l-268 351l379 349h137l-378 -350l267 -350h-137z" />
    <glyph glyph-name="guilsinglright" unicode="&#x203a;" horiz-adv-x="720" 
d="M160 253l379 350l-268 350h136l268 -349l-379 -351h-136z" />
    <glyph glyph-name="fraction" unicode="&#x2044;" horiz-adv-x="547" 
d="M-208 0l1065 1400h120l-1066 -1400h-119z" />
    <glyph glyph-name="Euro" unicode="&#x20ac;" horiz-adv-x="1296" 
d="M1194 -10q-150 -34 -282.5 -5t-233.5 101t-164.5 186t-76.5 250h-255l15 99h241l25 158h-241l16 99h255q77 184 225 320.5t334.5 195.5t367.5 18l-16 -100q-160 39 -320.5 -7.5t-286.5 -159t-197 -267.5h377l-16 -99h-395l-25 -158h395l-15 -99h-377q21 -158 113.5 -270
t238 -155.5t314.5 -6.5z" />
    <glyph glyph-name="trademark" unicode="&#x2122;" horiz-adv-x="1488" 
d="M486 662l109 686h-277l8 52h609l-8 -52h-278l-109 -686h-54zM842 662l117 738h50l184 -563l362 563h48l-117 -738h-53l92 591l-333 -520h-33l-169 520l-94 -591h-54z" />
    <glyph glyph-name="arrowleft" unicode="&#x2190;" horiz-adv-x="1446" 
d="M643 268l-426 480l579 481l62 -69l-438 -362h1053l-15 -99h-1053l322 -362z" />
    <glyph glyph-name="arrowup" unicode="&#x2191;" horiz-adv-x="1204" 
d="M577 154l161 1011l-439 -366l-62 72l580 481l425 -480l-81 -73l-323 366l-161 -1011h-100z" />
    <glyph glyph-name="arrowright" unicode="&#x2192;" horiz-adv-x="1447" 
d="M884 267l-60 70l437 362h-1051l15 99h1051l-320 362l81 70l429 -482z" />
    <glyph glyph-name="arrowdown" unicode="&#x2193;" horiz-adv-x="1204" 
d="M624 147l-426 481l82 69l324 -363l160 1008h100l-160 -1008l439 363l60 -69z" />
    <glyph glyph-name="arrowboth" unicode="&#x2194;" horiz-adv-x="1680" 
d="M643 268l-426 480l579 481l62 -69l-438 -362h1087l-319 362l81 70l430 -482l-583 -481l-59 70l435 362h-1087l322 -362z" />
    <glyph glyph-name="arrowupdn" unicode="&#x2195;" horiz-adv-x="1204" 
d="M607 39l-425 482l82 72l323 -367l165 1045l-439 -365l-59 72l578 480l427 -480l-85 -72l-322 365l-165 -1045l438 367l62 -71z" />
    <glyph glyph-name="uni2196" unicode="&#x2196;" horiz-adv-x="1118" 
d="M996 305l-635 712l-81 -514h-101l108 681h710l-16 -99h-534l630 -711z" />
    <glyph glyph-name="uni2197" unicode="&#x2197;" horiz-adv-x="1116" 
d="M218 305l-60 69l855 711h-534l16 99h710l-108 -681h-102l81 514z" />
    <glyph glyph-name="uni2198" unicode="&#x2198;" horiz-adv-x="1116" 
d="M356 312l16 100h534l-629 711l82 70l632 -713l81 514h102l-108 -682h-710z" />
    <glyph glyph-name="uni2199" unicode="&#x2199;" horiz-adv-x="1117" 
d="M148 312l108 682h101l-81 -514l857 712l63 -69l-857 -711h535l-16 -100h-710z" />
    <glyph glyph-name="partialdiff" unicode="&#x2202;" horiz-adv-x="1257" 
d="M624 -26q-141 0 -255 70q-110 69 -162.5 184.5t-31.5 253.5q22 139 111 256t221.5 184.5t277.5 67.5q113 0 206.5 -41.5t155.5 -116.5q-21 155 -90.5 278.5t-188.5 197.5t-268 68l16 100q161 4 292 -69t219 -210q83 -132 113 -304.5t1 -364.5q-26 -165 -111 -287
q-87 -127 -218.5 -197t-287.5 -70zM276 482q-16 -110 25 -203q45 -96 133 -150.5t206 -54.5q121 0 229 57q108 59 178.5 151t87.5 200q19 112 -26 205q-43 96 -131.5 150t-208.5 54q-122 0 -226 -57q-108 -57 -178.5 -149t-88.5 -203z" />
    <glyph glyph-name="emptyset" unicode="&#x2205;" horiz-adv-x="1253" 
d="M344 -46l-82 49l62 78q-86 75 -125.5 186.5t-19.5 238.5q23 146 113.5 269t223 193.5t276.5 70.5q127 0 220 -52l60 74l79 -49l-59 -78q86 -74 124.5 -185.5t17.5 -242.5q-23 -145 -112.5 -267.5t-222 -193.5t-276.5 -71q-111 0 -221 55zM280 506q-16 -102 13.5 -189.5
t96.5 -147.5l557 732q-76 40 -163.5 42.5t-169 -30.5t-152 -90t-119 -140t-63.5 -177zM466 115q78 -40 166.5 -43t169.5 30t150.5 90t117 139t62.5 175q16 102 -12 190.5t-94 149.5z" />
    <glyph glyph-name="minus" unicode="&#x2212;" horiz-adv-x="1253" 
d="M187 553l15 100h1055l-15 -100h-1055z" />
    <glyph glyph-name="radical" unicode="&#x221a;" horiz-adv-x="1344" 
d="M375 0l-161 729h108l126 -558l663 1229h355l-16 -99h-284l-703 -1301h-88z" />
    <glyph glyph-name="infinity" unicode="&#x221e;" horiz-adv-x="1531" 
d="M440 330q-125 15 -192 101t-49 203q20 120 115.5 207t223.5 97q89 0 146 -27q50 -23 91.5 -68.5t103.5 -131.5q52 51 123 114q130 113 263 113q144 -10 216 -94.5t51 -209.5q-19 -118 -114 -204t-221 -100q-86 0 -143 24q-49 21 -93.5 68.5t-106.5 135.5
q-61 -59 -131 -120q-65 -57 -130.5 -82.5t-152.5 -25.5zM300 634q-12 -82 34 -137.5t128 -67.5q66 0 112 19q28 11 64.5 39.5t61.5 52t99 94.5q-17 23 -34.5 46.5t-34.5 46t-24 32.5q-37 47 -73.5 63.5t-105.5 16.5q-87 -10 -150 -67t-77 -138zM932 634q105 -142 142 -169
q25 -21 53.5 -28.5t76.5 -7.5q87 11 149.5 68t75.5 137q14 86 -33 140.5t-149 64.5q-52 0 -97 -21q-27 -13 -62 -41t-61 -52.5t-95 -90.5z" />
    <glyph glyph-name="integral" unicode="&#x222b;" horiz-adv-x="814" 
d="M236 -26q-69 3 -103 58t-3 123l101 -10q-18 -28 -10 -46.5t40 -24.5q45 -5 61 44l292 1175q17 62 69.5 99t116.5 34q68 -6 102 -58.5t6 -123.5l-98 11q15 30 5 50.5t-39 20.5q-23 4 -41 -9.5t-22 -33.5l-292 -1173q-16 -64 -64.5 -98.5t-120.5 -37.5z" />
    <glyph glyph-name="approxequal" unicode="&#x2248;" horiz-adv-x="1254" 
d="M946 671q-45 0 -101.5 24t-87 44t-98.5 66q-52 38 -81.5 57t-69 36.5t-69.5 16.5q-83 2 -135.5 -60t-33.5 -141l-103 -23q-18 82 23 163q40 72 112.5 117.5t154.5 45.5q60 0 117 -30t148 -96q3 -2 21.5 -15t24 -16.5t23 -15.5t25 -16.5t24 -14t26 -13.5t24.5 -10.5t26 -9
t23.5 -5t24.5 -2.5q84 0 138 60t32 134l104 30q20 -93 -26 -170q-41 -70 -113.5 -113t-152.5 -43zM85 170q-20 82 23 163q39 72 112 117.5t155 45.5q42 0 89 -19t80 -40.5t96 -66.5q3 -2 21.5 -15t24 -16.5t23 -15.5t25 -16.5t24 -14t26 -13.5t24.5 -10.5t26 -9t23.5 -5
t24.5 -2.5q84 0 138 60t32 134l103 30q22 -93 -26 -170q-40 -70 -112.5 -113t-152.5 -43q-45 0 -101 23.5t-88.5 44.5t-97.5 66q-55 39 -83 57.5t-68 36t-70 16.5q-82 2 -134.5 -60t-33.5 -141z" />
    <glyph glyph-name="notequal" unicode="&#x2260;" horiz-adv-x="1253" 
d="M396 18l163 349h-402l16 100h431l128 272h-516l16 100h546l161 349h106l-161 -349h403l-16 -100h-433l-127 -272h517l-16 -100h-547l-162 -349h-107z" />
    <glyph glyph-name="lessequal" unicode="&#x2264;" horiz-adv-x="1253" 
d="M1206 331l-1009 287l19 123l1101 289l-16 -105l-941 -245l863 -245zM99 0l16 99h1055l-16 -99h-1055z" />
    <glyph glyph-name="greaterequal" unicode="&#x2265;" horiz-adv-x="1253" 
d="M151 331l17 104l940 245l-862 245l16 105l1009 -289l-19 -123zM99 0l16 99h1055l-16 -99h-1055z" />
    <glyph glyph-name="uniA78B" unicode="&#xa78b;" horiz-adv-x="246" 
d="M295 1442h111l-89 -515h-95z" />
    <glyph glyph-name="uniA78C" unicode="&#xa78c;" horiz-adv-x="246" 
d="M295 1442h111l-89 -515h-95z" />
    <glyph glyph-name="uni004A0301" horiz-adv-x="1344" 
d="M632 -26q-175 0 -291 84q-114 84 -157 228.5t-10 321.5h101q-43 -240 56 -387t317 -147q213 0 356 136.5t181 377.5l129 812h102l-129 -812q-43 -271 -221 -442.5t-434 -171.5zM1387 1660l145 321h105l-168 -321h-82z" />
    <glyph glyph-name="i.loclTRK" horiz-adv-x="390" 
d="M173 0l160 1012h103l-160 -1012h-103zM378 1369q4 29 26.5 46t50.5 17q27 0 43.5 -18t12.5 -44q-4 -28 -26.5 -46t-49.5 -18t-44 18.5t-13 44.5z" />
    <glyph glyph-name="uni006A0301" horiz-adv-x="516" 
d="M-111 -386q137 -6 236 68t119 195l179 1135h101l-179 -1135q-16 -100 -82 -184q-67 -87 -169.5 -135t-220.5 -43zM469 1260l144 321h105l-167 -321h-82z" />
    <glyph glyph-name="_Designova" horiz-adv-x="1401" 
d="M699 38q-162 0 -300 81t-218.5 219.5t-80.5 300.5q1 122 48.5 233t128 191t191.5 127.5t233 47.5t233 -47.5t191.5 -127.5t128 -191t47.5 -233q0 -163 -80.5 -301.5t-219.5 -219t-302 -80.5zM172 639q0 -108 42 -206t112.5 -168.5t168.5 -112.5t206 -42q143 0 264.5 70.5
t192.5 192t71 265.5t-70.5 266t-191.5 192.5t-265 70.5t-266 -70.5t-193 -192t-71 -265.5zM360 744q8 0 12 -4q53 -20 107 -29q43 -4 76 3q24 4 49 13q4 0 10.5 3.5t7.5 3.5l-17 8.5t-17.5 9t-15 10t-14.5 13.5h20q37 0 80 18q77 48 147 68q30 9 61 9q6 0 23 1.5t25 0.5
q62 -4 94 -36q7 -5 31 -34v-2q-3 2 -6 2q-50 19 -89.5 4.5t-66.5 -55.5q-6 -11 -15.5 -33.5t-12.5 -29.5q-5 -12 -15 -36.5t-19 -44.5t-17 -37q-31 -65 -69 -111q-17 -23 -68 -61q-51 -36 -127 -59h-6l26 23q16 15 28 47q8 25 24.5 71t23.5 68q31 89 60 139v1q-1 -2 -4.5 -6
t-5.5 -6q-8 -8 -10 -15q-21 -24 -35 -60q-3 -5 -9 -5q-110 5 -190 73q-1 1 -61 58q-5 7 -15 17z" />
    <glyph glyph-name="_Origin" horiz-adv-x="1874" 
d="M100 40v1150h1674v-1149l-43 -1v1zM143 82h1588v625h-1588v-625zM289 224v128h30v-128h-30zM293 884h68q60 0 84 40q11 19 11 46q0 55 -44 75q-19 11 -49 11h-70v-172zM312 439v127h107v-23h-77v-28h70v-22h-70v-31h77v-23h-107zM333 916v108h27q37 0 49 -23q7 -19 7 -31
q0 -36 -26 -48q-10 -6 -31 -6h-26zM339 224v128h25l64 -77v77h29v-128h-24l-63 79v-79h-31zM440 439v127h25l64 -76v76h29v-127h-25l-63 78v-78h-30zM472 948q0 -44 33 -58q13 -7 39 -7q35 0 54 17q9 12 12 22l-38 1q-3 -9 -16 -13q-2 0 -5.5 -0.5t-6.5 -0.5q-22 0 -29 15
q-5 8 -5 15h100v11q0 32 -20 49q-19 16 -48 16q-43 0 -63 -32q-7 -17 -7 -35zM510 962q1 12 15 22q8 5 17 5q21 0 26 -16q4 -5 4 -11h-62zM524 224v128h63q52 0 52 -32q0 -20 -18 -29q2 0 2 -2q20 -7 20 -30q0 -35 -51 -35h-68zM554 247h35q24 0 24 16q0 15 -24 15h-35v-31z
M554 303h31q24 0 24 14q0 16 -24 16h-31v-30zM579 543v23h112v-23h-41v-104h-29v104h-42zM621 922q6 -39 67 -39q39 0 57 20q7 11 7 21q0 26 -41 35l-28 5q-18 3 -18 13q0 12 23 12t23 -14l38 2q-7 38 -62 38q-38 0 -54 -19q-8 -8 -8 -21q0 -28 41 -37l26 -5q19 -3 19 -12
q0 -14 -23 -14q-24 0 -27 16zM657 224v128h107v-24h-78v-27h70v-23h-70v-29h76v-25h-105zM704 566h32l29 -89l30 89h27l29 -90l31 90h28l-41 -127h-33l-28 87l-29 -87h-31zM767 1047q0 -7 7 -12.5t15 -5.5q9 0 15.5 5.5t6.5 12.5t-6.5 12.5t-15.5 5.5q-8 0 -15 -5.5
t-7 -12.5zM768 884h41v129h-41v-129zM784 224v128h59q19 0 29 -5q27 -12 27 -41q0 -14 -7 -24q-11 -13 -21 -18l27 -40h-32l-25 37h-26v-37h-31zM815 285h26q28 0 28 21q0 22 -28 22h-26v-43zM827 949q0 -42 30 -56q12 -6 30 -6q21 0 33 10q7 5 7 10h2v-23q0 -24 -30 -24
q-18 0 -25 7q-2 1 -5 8l-37 -6q3 -15 20 -25t46 -10q43 0 62 22q10 10 10 27v130h-40v-21h-3q-4 13 -21 19q-10 4 -19 4q-35 0 -52 -29q-8 -16 -8 -37zM869 949q0 24 12 33q10 5 18 5q19 0 28 -19q0 -2 1.5 -8.5t1.5 -10.5q0 -36 -31 -36q-18 0 -28 18q-2 10 -2 18zM913 224
v128h29v-103h76v-25h-105zM915 503q0 27 20 47q19 19 50 19q33 0 51 -19q20 -20 20 -47q0 -25 -20 -47q-18 -19 -50 -19t-51 19q-20 22 -20 47zM946 503q0 -18 11 -29.5t28 -11.5q18 0 29 11.5t11 29.5q0 19 -11 30.5t-29 11.5q-17 0 -28 -11.5t-11 -30.5zM993 884h41v75
q0 17 13 23q5 3 14 3q25 0 25 -25v-76h42v82q0 31 -24 42q-11 7 -27 7q-31 0 -43 -25h-1v23h-40v-129zM1039 224v128h30v-128h-30zM1073 439v127h57q22 0 30 -3q26 -14 26 -42q0 -15 -7 -25q-6 -10 -21 -17l28 -40h-32l-25 36h-28v-36h-28zM1090 224v128h25l63 -77v77h31
v-128h-25l-64 79v-79h-30zM1101 499h27q28 0 28 22t-28 22h-27v-44zM1145 948q0 -39 34 -58q12 -7 38 -7q42 0 64 31q8 14 8 34q0 39 -33 59q-19 8 -39 8q-44 0 -63 -32q-9 -18 -9 -35zM1187 949q0 24 13 33q6 5 17 5q19 0 27 -19q3 -7 3 -19q0 -24 -13 -34q-8 -5 -17 -5
q-19 0 -28 20q-2 10 -2 19zM1201 439v127h107v-23h-77v-28h69v-22h-69v-54h-30zM1227 242q0 17 19 17q7 0 12 -5t5 -12q0 -6 -5 -19l-11 -27h-18l9 30q-11 4 -11 16zM1290 1013l51 -129h45l52 129h-42l-31 -91h-1l-31 91h-43zM1319 439v127h107v-23h-77v-28h69v-22h-69v-31
h77v-23h-107zM1336 224v128h57q23 0 38 -8q33 -14 33 -55q0 -22 -9 -35q-16 -30 -62 -30h-57zM1366 249h26q13 0 23 5q19 11 19 35q0 16 -5 21q-9 18 -37 18h-26v-79zM1439 921q0 -26 23 -34q9 -4 25 -4q21 0 34 9q8 10 8 11h2v-19h37v88q0 19 -17 33q-22 10 -43 10
q-35 0 -53 -18q-9 -7 -12 -20l39 -4q4 16 25 16t21 -16v-1q0 -7 -15 -10q-2 -1 -9 -1.5t-10 -0.5q-25 -2 -39 -10q-16 -9 -16 -29zM1448 439v127h22l66 -76v76h29v-127h-25l-64 78v-78h-28zM1477 922q0 7 12 14q4 2 12 2q19 2 28 6v-13q0 -15 -15 -21q-12 -3 -16 -3
q-21 0 -21 15zM1482 224v128h105v-24h-76v-27h69v-23h-69v-29h76v-25h-105z" />
    <glyph glyph-name="_Typeface" horiz-adv-x="2096" 
d="M100 355v540h1896v-540h-1896zM274 522h38v159h3l122 -159h37v217h-39v-159h-2l-123 159h-36v-217zM502 602q0 -49 39 -72q17 -10 46 -10q52 0 74 39q12 21 12 43q0 53 -41 74q-15 10 -45 10q-51 0 -75 -38q-10 -21 -10 -46zM539 602q0 36 21 50q11 8 27 8q33 0 45 -29
q5 -13 5 -29q0 -34 -21 -48q-13 -8 -29 -8q-32 0 -44 29q-4 8 -4 27zM697 522h36v27h3q12 -17 26 -24q13 -5 27 -5q45 0 67 39q10 17 10 45q0 52 -39 72q-11 10 -38 10q-30 0 -44 -17q-8 -11 -9 -12h-3v82h-36v-217zM733 604q0 34 22 48q11 8 27 8q32 0 43 -27q5 -25 5 -29
q0 -36 -22 -50q-11 -8 -26 -8q-33 0 -44 27q-5 25 -5 31zM883 602q0 -51 41 -72q18 -10 45 -10q39 0 63 19q11 11 14 24l-33 5q-9 -17 -25 -19q-7 -5 -16 -5q-34 0 -46 24q-7 10 -7 27h130v9q0 42 -24 63q-23 19 -58 19q-51 0 -75 -38q-9 -19 -9 -46zM919 619q0 19 21 36
q8 5 27 5q34 0 41 -24q3 -3 5 -10l2 -7h-96zM1075 522h34v217h-34v-217zM1222 597q0 -48 46 -67q17 -10 50 -10q62 0 87 36q12 21 12 41v142h-39v-140q0 -32 -26 -43q-14 -7 -34 -7q-36 0 -53 24q-7 10 -7 26v140h-36v-142zM1453 522h36v97q0 26 22 36q10 5 21 5
q18 0 28.5 -10.5t10.5 -28.5v-99h36v104q0 41 -29 53q-14 7 -34 7q-41 0 -53 -29h-4v27h-34v-162zM1633 602q0 -49 39 -72q18 -10 46 -10q52 0 74 39q12 21 12 43q0 53 -41 74q-15 10 -45 10q-53 0 -75 -38q-10 -21 -10 -46zM1669 602q0 36 22 50q11 8 27 8q33 0 45 -29
q5 -13 5 -29q0 -35 -22 -48q-11 -8 -28 -8q-33 0 -44 29q-5 8 -5 27z" />
    <glyph glyph-name="_VendorID" horiz-adv-x="1106" 
d="M100 143v1104h906v-1104h-906zM103 59q0 12 7 19t17 7q8 0 11 -3l4 -5v24h12v-67h-12v9l-4 -7q-6 -4 -14 -4q-21 0 -21 27zM116 59q0 -16 12 -16q14 0 14 16v1q0 16 -13 16t-13 -17zM163 59q0 11 7 18.5t18 7.5q10 0 17 -7t7 -18q0 -2 -2 -5h-34q1 -12 12 -12q9 0 11 8
h11q-3 -19 -22 -19q-25 0 -25 27zM176 62h23q-3 14 -11 14q-11 0 -12 -14zM216 48h13q3 -8 8 -8q9 0 9 7q0 2 -11 8q-17 5 -17 15q0 15 19 15q20 0 20 -15h-13q-2 6 -7 6q-6 0 -6 -5q0 -4 11 -9q16 -3 16 -14q0 -16 -21 -16q-18 0 -21 16zM255 423q0 -56 39.5 -96t96.5 -40
q56 0 94.5 39.5t38.5 96.5q0 58 -37.5 96.5t-95.5 38.5q-11 0 -22 -3l79 112h-60l-90 -128q-43 -60 -43 -116zM255 861q0 -56 39.5 -95t96.5 -39q56 0 94.5 39t38.5 95q0 58 -37.5 96.5t-95.5 38.5q-15 0 -22 -2l79 114h-60l-90 -132q-43 -62 -43 -115zM265 95q0 6 8 6
q7 0 7 -6q0 -8 -7 -8q-8 0 -8 8zM266 34v51h13v-51h-13zM289 31v1h13v-1q0 -8 12 -8q10 0 14 12v8l-4 -7q-8 -2 -13 -2q-22 0 -22 25q0 26 24 26q8 0 11 -3l4 -5v8h13v-38q0 -8 -2 -11q0 -22 -25 -22t-25 17zM302 60q0 -17 12 -17q14 0 14 16v1q0 16 -14 16q-12 0 -12 -16z
M305 423q0 37 24 60.5t62 23.5q36 0 60 -23.5t24 -60.5q0 -39 -24 -63t-60 -24q-38 0 -62 24t-24 63zM305 861q0 39 24 62.5t62 23.5q36 0 60 -24.5t24 -61.5t-24 -61.5t-60 -24.5q-38 0 -62 24t-24 62zM351 34v51h13v-10l4 7q4 3 12 3q14 0 18 -14q1 -3 1 -9v-28h-14v32
q0 10 -9 10q-12 0 -12 -19v-23h-13zM406 59q0 11 7 18.5t18 7.5q26 0 26 -26q0 -27 -26 -27q-11 0 -18 7.5t-7 19.5zM419 59q0 -16 12 -16q14 0 14 16q0 17 -14 17q-12 0 -12 -17zM461 85h14l13 -42l12 42h13l-18 -51h-17zM517 48q0 15 28 15h3v7q0 6 -8 6q-11 0 -11 -8h-12
q0 17 23 17q17 0 19 -14v-37h-11v6l-3 -5q-6 -3 -13 -3q-15 0 -15 16zM529 48q0 -5 8 -5q11 0 11 8v6q-19 2 -19 -9zM568 74v9h5v7q0 14 18 14h5v-10q-10 2 -10 -5v-6h10v-9h-10v-40h-13v40h-5zM580 423q0 -57 39.5 -96.5t95.5 -39.5t94.5 39.5t38.5 96.5t-38 96t-95 39
q-13 0 -23 -3l80 112h-61l-90 -128q-41 -58 -41 -116zM580 861q0 -56 39.5 -95t95.5 -39t94.5 39t38.5 95q0 58 -38 96.5t-95 38.5q-16 0 -24 -2l81 114h-61l-90 -132q-41 -62 -41 -115zM600 59q0 26 26 26q25 0 25 -26q0 -27 -25 -27q-26 0 -26 27zM613 59q0 -16 13 -16
q12 0 12 16q0 17 -12 17q-13 0 -13 -17zM629 423q0 37 24 60.5t62 23.5q36 0 58.5 -23.5t22.5 -60.5q0 -39 -22.5 -63t-58.5 -24q-38 0 -62 24t-24 63zM629 861q0 38 24 62t62 24q36 0 58.5 -24t22.5 -62t-22.5 -62t-58.5 -24q-38 0 -62 24t-24 62zM660 34v51h11v-10l5 7
q4 3 12 3q14 0 18 -14v-37h-13v32q-3 10 -8 10q-14 0 -14 -19v-23h-11zM713 74v9h7v12h13v-12h9v-9h-9v-26q2 -9 8 -5v-10h-7q-14 0 -14 10v31h-7zM746 48h14q2 -8 9 -8q8 0 8 7q0 2 -11 8q-16 4 -16 15q0 15 18 15t23 -15h-15q0 6 -9 6q-4 0 -4 -5t10 -9q18 -4 18 -14
q0 -16 -22 -16q-19 0 -23 16zM794 39q0 9 9 9q8 0 8 -9q0 -7 -8 -7q-9 0 -9 7zM817 59q0 11 7.5 18.5t16.5 7.5q23 0 23 -19h-12q-3 10 -11 10q-11 0 -11 -17q0 -16 11 -16q9 0 11 8h12q-1 -19 -23 -19q-24 0 -24 27zM869 59q0 26 27 26q24 0 24 -26q0 -27 -24 -27
q-27 0 -27 27zM882 59q0 -16 14 -16q12 0 12 16q0 17 -12 17q-14 0 -14 -17zM929 34v51h13v-9l5 6q3 3 8 3q12 0 17 -10l5 7q3 3 10 3q16 0 16 -12q1 -3 1 -11v-28h-12v26q0 1 -0.5 3.5t-0.5 4.5q0 8 -10 8q-8 0 -8 -16v-26h-12v34q-5 8 -9 8q-10 0 -10 -16v-26h-13z" />
    <glyph glyph-name="crossbarcomb" horiz-adv-x="1446" 
d="M104 562l16 98h1415l-16 -98h-1415z" />
    <glyph glyph-name="crossslashcomb" horiz-adv-x="563" 
d="M-17 -203l704 1791h112l-706 -1791h-110z" />
    <glyph glyph-name="dotlessicomb" horiz-adv-x="385" 
d="M140 0l160 1012h103l-160 -1012h-103z" />
    <glyph glyph-name="dotlessjcomb" horiz-adv-x="487" 
d="M-130 -386q137 -6 236 68t119 195l179 1135h101l-179 -1135q-16 -100 -82 -184q-67 -87 -169.5 -135t-220.5 -43z" />
    <glyph glyph-name="leftspikecomb" horiz-adv-x="307" 
d="M213 853l176 547h82l-156 -547h-102z" />
    <glyph glyph-name="rightspikecomb" horiz-adv-x="415" 
d="M217 853l155 547h103l-176 -547h-82z" />
    </font>
</defs>
</svg>
