<?xml version="1.0" standalone="no"?>
<!DOCTYPE svg PUBLIC "-//W3C//DTD SVG 1.1//EN" "http://www.w3.org/Graphics/SVG/1.1/DTD/svg11.dtd" >
<svg xmlns="http://www.w3.org/2000/svg" xmlns:xlink="http://www.w3.org/1999/xlink" version="1.1">
<metadata>
Created by FontForge 20201107 at Tue May 21 02:52:48 2024
 By 
Copyright (c) 2024 by Designova. All rights reserved.
</metadata>
<defs>
<font id="NobelUno-MediumItalic" horiz-adv-x="1185" >
  <font-face 
    font-family="Nobel Uno Medium Italic"
    font-weight="500"
    font-style="italic"
    font-stretch="normal"
    units-per-em="2048"
    panose-1="0 0 0 0 0 0 0 0 0 0"
    ascent="1638"
    descent="-410"
    x-height="1008"
    cap-height="1400"
    bbox="-228 -500 2542 2607"
    underline-thickness="50"
    underline-position="-125"
    unicode-range="U+000D-A78C"
  />
<missing-glyph horiz-adv-x="1608" 
d="M195 -1l218 1378h1224l-218 -1378h-1224zM425 165h31l13 83h1l49 -83h29l21 129h-31l-13 -81h-2l-51 81h-26zM470 510l98 -114l346 298l257 -298l136 114l-254 301l344 301l-95 114l-351 -299l-250 299l-136 -114l253 -301zM569 213q-4 -28 18 -43q16 -6 28 -6
q31 0 52 23q7 10 10 26q5 30 -18 44q-12 6 -28 6q-37 0 -52 -24q-9 -12 -10 -26zM599 213q2 15 15 26q4 4 13 4q16 0 19 -14q1 -7 0 -16q-3 -17 -14 -25q-10 -2 -14 -2q-17 0 -17 14q-4 5 -2 13zM730 230q-6 -41 23 -59q17 -7 36 -7q38 0 59 26q9 12 12 28l2 17h-59l-3 -21
h31q-3 -16 -20 -22q-5 -4 -18 -4q-24 0 -30 19q-4 7 -2 23q5 28 24 38q15 5 20 5q28 0 28 -21h31q1 18 -15 33q-16 11 -40 11q-40 0 -64 -30q-10 -12 -15 -36zM869 165h29l21 129h-29zM911 133q10 -4 19 -4q19 0 35 14q5 3 10 13l58 107h-31l-34 -71h-2l-10 71h-33l24 -99
l-3 -5q-4 -11 -23 -7zM1021 129h31l9 52q4 -10 15 -14q3 -3 13 -3q27 0 43 23q6 8 10 26q5 31 -14 45q-13 5 -23 5q-18 0 -27 -9q-6 -4 -7 -9h-1l3 18h-30zM1065 200q-1 6 0 13q3 17 14 25q5 5 12 5q17 0 19 -14q2 -10 1 -16q-3 -15 -14 -25q-8 -2 -15 -2q-14 0 -17 14z
M1149 165h28l9 56q2 14 14 18q4 3 11 3q19 0 16 -19l-9 -58h31l10 62q3 24 -14 33q-12 3 -18 3q-25 0 -37 -18h-1l8 49h-27z" />
    <glyph glyph-name=".notdef" horiz-adv-x="1608" 
d="M195 -1l218 1378h1224l-218 -1378h-1224zM425 165h31l13 83h1l49 -83h29l21 129h-31l-13 -81h-2l-51 81h-26zM470 510l98 -114l346 298l257 -298l136 114l-254 301l344 301l-95 114l-351 -299l-250 299l-136 -114l253 -301zM569 213q-4 -28 18 -43q16 -6 28 -6
q31 0 52 23q7 10 10 26q5 30 -18 44q-12 6 -28 6q-37 0 -52 -24q-9 -12 -10 -26zM599 213q2 15 15 26q4 4 13 4q16 0 19 -14q1 -7 0 -16q-3 -17 -14 -25q-10 -2 -14 -2q-17 0 -17 14q-4 5 -2 13zM730 230q-6 -41 23 -59q17 -7 36 -7q38 0 59 26q9 12 12 28l2 17h-59l-3 -21
h31q-3 -16 -20 -22q-5 -4 -18 -4q-24 0 -30 19q-4 7 -2 23q5 28 24 38q15 5 20 5q28 0 28 -21h31q1 18 -15 33q-16 11 -40 11q-40 0 -64 -30q-10 -12 -15 -36zM869 165h29l21 129h-29zM911 133q10 -4 19 -4q19 0 35 14q5 3 10 13l58 107h-31l-34 -71h-2l-10 71h-33l24 -99
l-3 -5q-4 -11 -23 -7zM1021 129h31l9 52q4 -10 15 -14q3 -3 13 -3q27 0 43 23q6 8 10 26q5 31 -14 45q-13 5 -23 5q-18 0 -27 -9q-6 -4 -7 -9h-1l3 18h-30zM1065 200q-1 6 0 13q3 17 14 25q5 5 12 5q17 0 19 -14q2 -10 1 -16q-3 -15 -14 -25q-8 -2 -15 -2q-14 0 -17 14z
M1149 165h28l9 56q2 14 14 18q4 3 11 3q19 0 16 -19l-9 -58h31l10 62q3 24 -14 33q-12 3 -18 3q-25 0 -37 -18h-1l8 49h-27z" />
    <glyph glyph-name=".null" horiz-adv-x="1259" 
 />
    <glyph glyph-name="nonmarkingreturn" horiz-adv-x="682" 
 />
    <glyph glyph-name="CR" unicode="&#xd;" horiz-adv-x="1259" 
 />
    <glyph glyph-name="space" unicode=" " horiz-adv-x="530" 
 />
    <glyph glyph-name="space" unicode="&#xa0;" horiz-adv-x="530" 
 />
    <glyph glyph-name="exclam" unicode="!" horiz-adv-x="423" 
d="M180 411l157 989h155l-157 -989h-155zM106 69q6 38 38.5 65t72.5 27q39 0 63 -27.5t18 -64.5q-6 -39 -38.5 -66.5t-71.5 -27.5q-40 0 -64 27.5t-18 66.5z" />
    <glyph glyph-name="quotedbl" unicode="&#x22;" horiz-adv-x="584" 
d="M223 860l86 540h139l-86 -540h-139zM489 860l86 540h139l-86 -540h-139z" />
    <glyph glyph-name="numbersign" unicode="#" horiz-adv-x="1612" 
d="M209 0l145 330h-207l73 162h206l182 417h-207l73 162h206l144 329h174l-144 -329h453l143 329h173l-143 -329h206l-71 -162h-208l-182 -417h207l-71 -162h-206l-146 -330h-174l146 330h-453l-145 -330h-174zM599 492h452l183 417h-452z" />
    <glyph glyph-name="dollar" unicode="$" horiz-adv-x="1272" 
d="M563 -22q-170 15 -286.5 97.5t-136.5 206.5l171 58q10 -88 108 -143.5t238 -55.5q90 0 183 30q190 67 212 207q11 69 -31 116q-74 82 -291 120q-139 23 -255 67q-246 95 -208 336q18 113 99 202q75 82 187 134t237 63l32 203h139l-32 -203q96 -9 180 -42
q98 -39 162.5 -106t80.5 -157l-173 -57q-10 89 -108 144t-238 55q-90 1 -181 -29q-90 -32 -145.5 -84.5t-66.5 -122.5q-13 -82 24 -124q35 -42 104.5 -64.5t192.5 -45.5q125 -19 247 -70q118 -52 176 -136t40 -199q-18 -116 -97 -202q-75 -83 -186.5 -134.5t-238.5 -63.5
l-32 -197h-139z" />
    <glyph glyph-name="percent" unicode="%" horiz-adv-x="1368" 
d="M160 0l1067 1400h201l-1067 -1400h-201zM267 1084q16 106 103 177.5t195 71.5q109 0 172.5 -72t47.5 -177q-17 -106 -104 -177.5t-195 -71.5t-171.5 72t-47.5 177zM406 1084q-8 -50 20.5 -82.5t80.5 -32.5q53 0 92 32.5t47 82.5q8 51 -20.5 83t-81.5 32
q-52 0 -91.5 -32.5t-46.5 -82.5zM802 315q16 106 104 178t196 72q109 0 173 -73t47 -177q-16 -105 -102.5 -177t-196.5 -72q-108 0 -173 73.5t-48 175.5zM940 315q-7 -49 23 -82t82 -33q51 0 91.5 33t47.5 82t-22.5 82.5t-80.5 33.5q-52 0 -93 -33.5t-48 -82.5z" />
    <glyph glyph-name="ampersand" unicode="&#x26;" horiz-adv-x="1513" 
d="M520 -25q-126 0 -214 58q-87 58 -127 153t-23 202q11 66 33.5 115t65.5 97q26 29 72 71t81.5 71.5t129.5 107.5q-38 43 -54.5 62.5t-34.5 45t-27 44.5q-31 53 -17 140q12 82 64 147q52 66 127 104.5t155 38.5q84 0 147 -39q63 -40 93.5 -105.5t17.5 -145.5
q-13 -85 -65 -145q-35 -43 -161 -147l306 -346l276 229l-37 -234l-137 -114l244 -273l-141 -118l-243 272q-225 -186 -301 -232q-53 -33 -106 -46t-124 -13zM330 385q-16 -106 45 -175t171 -69q50 0 84.5 10.5t75.5 36.5q61 43 99 77q2 2 81 68q5 4 27 22.5t34 30.5
l-307 346l-148 -123q-70 -61 -94 -84q-32 -32 -46.5 -63t-21.5 -77zM563 1143q-5 -33 3 -54q11 -29 87 -113l22 -24l104 85q38 31 51.5 51.5t18.5 54.5q10 59 -26 98t-96 39q-61 0 -108 -39.5t-56 -97.5z" />
    <glyph glyph-name="quotesingle" unicode="'" horiz-adv-x="316" 
d="M224 860l86 540h139l-86 -540h-139z" />
    <glyph glyph-name="parenleft" unicode="(" horiz-adv-x="739" 
d="M417 -110q-96 100 -139 219q-89 227 -41 536q26 163 103 340q60 139 142 248.5t175 166.5h188q-128 -90 -243 -269q-144 -228 -191 -486q-31 -230 19.5 -423.5t170.5 -331.5h-184z" />
    <glyph glyph-name="parenright" unicode=")" horiz-adv-x="736" 
d="M102 -110q164 140 274.5 331.5t153.5 423.5q22 161 -2 332q-43 287 -191 423h187q100 -76 153 -252q67 -240 25 -503q-24 -152 -72 -280q-105 -285 -344 -475h-184z" />
    <glyph glyph-name="asterisk" unicode="*" horiz-adv-x="788" 
d="M383 829l-98 80l149 162l-190 62l63 127l191 -62l32 202h140l-32 -202l208 62l25 -127l-211 -62l98 -162l-125 -80l-99 165z" />
    <glyph glyph-name="plus" unicode="+" horiz-adv-x="1244" 
d="M551 98l66 421h-440l26 166h440l67 421h172l-67 -421h441l-26 -166h-441l-66 -421h-172z" />
    <glyph glyph-name="comma" unicode="," horiz-adv-x="476" 
d="M78 -110l126 361h176l-178 -361h-124z" />
    <glyph glyph-name="hyphen" unicode="-" horiz-adv-x="956" 
d="M217 519l26 166h685l-26 -166h-685z" />
    <glyph glyph-name="period" unicode="." horiz-adv-x="424" 
d="M186 -25q-39 0 -62.5 27.5t-17.5 66.5q6 37 38 64.5t71 27.5q40 0 65 -27.5t19 -64.5q-6 -39 -39 -66.5t-74 -27.5z" />
    <glyph glyph-name="slash" unicode="/" horiz-adv-x="789" 
d="M78 -110l662 1510h175l-663 -1510h-174z" />
    <glyph glyph-name="zero" unicode="0" horiz-adv-x="1276" 
d="M635 -25q-104 0 -188.5 37t-140.5 103.5t-91 157.5t-40.5 199t11.5 228q32 201 124 364.5t237.5 262t317.5 98.5q127 0 224.5 -55t152.5 -152.5t75.5 -230t-6.5 -287.5q-33 -208 -127 -372t-237.5 -258.5t-311.5 -94.5zM350 700q-26 -163 1 -289t107 -198t203 -72
q184 0 314.5 155.5t169.5 403.5q40 254 -42 406.5t-265 152.5q-192 0 -325 -165q-126 -159 -163 -394z" />
    <glyph glyph-name="one" unicode="1" horiz-adv-x="445" 
d="M95 0l222 1400h174l-222 -1400h-174z" />
    <glyph glyph-name="two" unicode="2" horiz-adv-x="1170" 
d="M95 0l23 143l215 167q114 88 228 183q103 86 209 186q210 203 227 312q18 113 -50 190.5t-186 77.5q-74 0 -146 -36q-75 -40 -122 -104.5t-55 -142.5h-172q17 132 99 235q77 99 189.5 156.5t233.5 57.5q126 0 217 -58q94 -60 138.5 -158.5t26.5 -217.5
q-21 -135 -198 -332q-187 -212 -543 -493h631l-26 -166h-939z" />
    <glyph glyph-name="three" unicode="3" horiz-adv-x="1062" 
d="M526 -25q-134 0 -228 57q-96 59 -138 160t-20 221h172q-14 -80 12 -143q25 -61 83 -95t145 -34q72 0 145 35q72 37 120.5 95t59.5 127q21 131 -66.5 199.5t-272.5 65.5l23 143q158 -3 257 56t117 174q10 58 -16 110q-27 53 -79.5 83.5t-117.5 30.5q-64 0 -129 -30
q-72 -35 -116 -89.5t-49 -119.5h-174q13 108 86.5 201.5t182.5 148.5t224 55q113 0 201 -52q89 -54 133 -143.5t27 -194.5q-15 -96 -74.5 -175.5t-148.5 -120.5q98 -45 140 -135.5t24 -206.5q-18 -115 -96 -213q-80 -97 -193.5 -153.5t-233.5 -56.5z" />
    <glyph glyph-name="four" unicode="4" horiz-adv-x="1199" 
d="M739 0l50 314h-644l25 159l761 927h203l-146 -919h151l-26 -167h-151l-50 -314h-173zM383 483l432 -2l103 660z" />
    <glyph glyph-name="five" unicode="5" horiz-adv-x="1139" 
d="M270 337q27 -97 96 -150.5t175 -53.5q88 0 169 42q172 90 199 263q15 86 -18 151q-34 73 -102 113.5t-144.5 44.5t-153 -15t-132.5 -58h-117l197 733h712l-25 -160h-562l-98 -366q78 19 165 21q145 -1 251 -56q112 -58 162 -164t28 -244q-30 -192 -193 -328t-363 -136
q-133 0 -233 62q-121 74 -160 204z" />
    <glyph glyph-name="six" unicode="6" horiz-adv-x="1160" 
d="M569 -25q-139 0 -244 66q-106 66 -157 178t-30 244q12 73 38 127.5t77 127.5l521 682h200l-368 -482q173 48 324 -21q131 -60 190.5 -174.5t36.5 -259.5q-21 -132 -107.5 -244.5t-214.5 -178t-266 -65.5zM311 464q-13 -92 22 -164q36 -75 104.5 -117t157.5 -42
q99 0 182 46q85 46 140 119t68 158q14 87 -19 161q-34 74 -104 116.5t-163 42.5q-95 0 -179 -45q-86 -46 -140.5 -117.5t-68.5 -157.5z" />
    <glyph glyph-name="seven" unicode="7" horiz-adv-x="1034" 
d="M199 0l771 1234h-720l27 166h923l-25 -155l-779 -1245h-197z" />
    <glyph glyph-name="eight" unicode="8" horiz-adv-x="1134" 
d="M562 -25q-128 0 -228 56q-99 58 -146.5 154t-29.5 211q16 105 88.5 196t177.5 145q-72 51 -107.5 130t-20.5 171q19 110 90 196q74 88 181 139.5t225 51.5t211 -51q91 -53 135 -141.5t27 -194.5q-15 -92 -75 -171t-148 -130q88 -54 131.5 -145t27.5 -196
q-18 -116 -99 -212q-80 -97 -196 -153t-244 -56zM339 396q-11 -66 19 -128q30 -60 90.5 -93.5t139.5 -33.5q124 0 218.5 73t111.5 182q17 107 -54.5 180t-194.5 73q-80 0 -151 -34q-74 -36 -121 -92.5t-58 -126.5zM477 1038q-15 -96 47.5 -159t170.5 -63t191 63t98 159
q15 94 -48 157.5t-171 63.5q-107 0 -190 -63.5t-98 -157.5z" />
    <glyph glyph-name="nine" unicode="9" horiz-adv-x="1134" 
d="M753 513q-76 -21 -147.5 -16t-134.5 26t-113.5 63.5t-84 96t-46.5 124t-1 146.5q31 195 197 333.5t370 138.5q135 0 236 -63q103 -65 151.5 -172.5t28.5 -236.5q-11 -70 -36.5 -123.5t-76.5 -122.5l-535 -707h-199zM395 952q-14 -86 20 -153q33 -72 98 -112.5t154 -40.5
q94 0 173 43q81 43 133.5 112.5t65.5 150.5q14 89 -20 157q-34 71 -100 111t-152 40q-94 0 -174 -43q-80 -44 -132.5 -113.5t-65.5 -151.5z" />
    <glyph glyph-name="colon" unicode=":" horiz-adv-x="424" 
d="M320 822q-39 0 -62.5 27.5t-17.5 66.5q6 38 38.5 65t71.5 27q40 0 64.5 -27t18.5 -65q-6 -39 -39 -66.5t-74 -27.5zM106 69q6 37 38 64.5t71 27.5q40 0 65 -27.5t19 -64.5q-6 -39 -39 -66.5t-74 -27.5q-39 0 -62.5 27.5t-17.5 66.5z" />
    <glyph glyph-name="semicolon" unicode=";" horiz-adv-x="478" 
d="M78 -110l126 361h176l-178 -361h-124zM294 914q6 39 39 66.5t73 27.5q39 0 63 -27.5t18 -66.5t-39 -65.5t-72 -26.5q-40 0 -64 26.5t-18 65.5z" />
    <glyph glyph-name="less" unicode="&#x3c;" horiz-adv-x="1244" 
d="M1178 191l-1007 287l39 246l1098 289l-27 -174l-910 -237l834 -239z" />
    <glyph glyph-name="equal" unicode="=" horiz-adv-x="1244" 
d="M209 717l26 166h1053l-26 -166h-1053zM146 321l26 167h1053l-26 -167h-1053z" />
    <glyph glyph-name="greater" unicode="&#x3e;" horiz-adv-x="1244" 
d="M126 195l27 172l909 235l-835 232l28 175l1008 -285l-39 -247z" />
    <glyph glyph-name="question" unicode="?" horiz-adv-x="1081" 
d="M444 69q6 38 38.5 65t72.5 27t64.5 -27t18.5 -65t-39 -66t-73 -28t-64 28t-18 66zM254 1004q15 120 93 221q72 93 178.5 147t220.5 54q118 0 205 -54q90 -55 131.5 -148t23.5 -205q-18 -115 -91.5 -212t-182.5 -149q-55 -25 -90 -70.5t-44 -101.5l-31 -196h-172l31 196
q16 101 81.5 185.5t165.5 133.5q66 30 108 86.5t53 127.5q16 104 -45 172.5t-169 68.5q-112 0 -197 -73.5t-96 -182.5h-173z" />
    <glyph glyph-name="at" unicode="@" horiz-adv-x="1827" 
d="M899 -182q-172 -2 -315.5 51.5t-244.5 154.5q-99 100 -140 235.5t-16 294.5t112.5 304t213.5 250t288 167t329 62t308.5 -62t234 -167t134 -250t16.5 -304q-11 -68 -35.5 -135t-61.5 -126.5t-82.5 -105.5t-103 -73t-117.5 -27q-62 0 -118 28q-48 24 -79 62.5t-37 86.5
q-116 -114 -279 -114q-116 0 -202 55q-89 54 -131 146t-24 203q16 110 89 204q73 92 178 145.5t218 53.5q77 0 140 -27.5t102 -76.5l14 87l143 -21l-91 -570q-7 -41 21.5 -68t73.5 -27q55 0 96 44q87 92 114 256q27 169 -37 311t-199.5 224t-311.5 82q-177 0 -338.5 -82
t-269.5 -224t-135 -311q-40 -255 123 -412q166 -162 446 -158zM702 554q-12 -73 17 -133q29 -61 86 -96t132 -35t136 39q63 40 103.5 102.5t51.5 134.5q10 65 -8 123q-42 128 -200 128q-76 0 -145 -35q-70 -37 -116 -96t-57 -132z" />
    <glyph glyph-name="A" unicode="A" horiz-adv-x="1454" 
d="M95 0l755 1400h197l311 -1400h-184l-80 359h-622l-194 -359h-183zM562 526h494l-143 650z" />
    <glyph glyph-name="B" unicode="B" horiz-adv-x="1256" 
d="M135 0l222 1400h568q176 0 268 -100.5t64 -275.5q-13 -85 -57 -158.5t-103 -112.5q167 -98 127 -349v-1q-31 -193 -155 -298t-301 -105h-633zM332 152h448q109 0 189 64t99 185q20 130 -38.5 194t-169.5 64h-448zM436 809h384q105 0 180 54.5t93 165.5
q17 110 -40.5 164.5t-162.5 54.5h-384z" />
    <glyph glyph-name="C" unicode="C" horiz-adv-x="1527" 
d="M805 -30q-212 0 -360.5 93.5t-210 259.5t-28.5 377t147.5 377t292.5 259.5t390 93.5q197 0 339.5 -81t213.5 -227l-163 -76q-58 105 -164 162t-254 57q-250 0 -426.5 -157t-215.5 -409q-40 -252 86.5 -409t376.5 -157q147 0 271.5 57.5t216.5 162.5l136 -75
q-115 -145 -283.5 -226.5t-364.5 -81.5z" />
    <glyph glyph-name="D" unicode="D" horiz-adv-x="1399" 
d="M135 0l222 1400h504q203 0 345.5 -90.5t201 -249.5t26.5 -361q-24 -151 -93.5 -280.5t-172.5 -221.5t-239.5 -144.5t-289.5 -52.5h-504zM335 166l332 -1q237 0 403 147.5t204 385.5q37 238 -82 386.5t-356 148.5l-332 1z" />
    <glyph glyph-name="E" unicode="E" horiz-adv-x="1186" 
d="M135 0l222 1400h935l-27 -166h-761l-66 -418h636l-26 -167h-636l-77 -483h761l-26 -166h-935z" />
    <glyph glyph-name="F" unicode="F" horiz-adv-x="1106" 
d="M135 0l222 1400h935l-27 -166h-761l-66 -418h636l-26 -167h-636l-103 -649h-174z" />
    <glyph glyph-name="G" unicode="G" horiz-adv-x="1507" 
d="M805 -30q-212 0 -360.5 93.5t-210 259.5t-28.5 377t147.5 377t292.5 259.5t390 93.5q197 0 339.5 -81t213.5 -227l-163 -76q-58 105 -164 162t-254 57q-250 0 -426.5 -157t-215.5 -409q-40 -252 86.5 -409t376.5 -157q265 0 451 180l53 335h-551l26 167h723l-87 -548
q-114 -140 -280 -218.5t-359 -78.5z" />
    <glyph glyph-name="H" unicode="H" horiz-adv-x="1376" 
d="M135 0l222 1400h174l-90 -568h758l90 568h173l-222 -1400h-173l105 666h-758l-105 -666h-174z" />
    <glyph glyph-name="I" unicode="I" horiz-adv-x="503" 
d="M165 0l222 1400h172l-222 -1400h-172z" />
    <glyph glyph-name="J" unicode="J" horiz-adv-x="1332" 
d="M621 -25q-178 0 -291 82q-117 83 -163.5 226t-16.5 318h172q-36 -206 51 -333t274 -127q130 0 228 61t159.5 161t81.5 223l129 814h173l-129 -814q-28 -173 -119 -311t-234.5 -219t-314.5 -81z" />
    <glyph glyph-name="K" unicode="K" horiz-adv-x="1167" 
d="M135 0l222 1400h174l-104 -657l678 657h228l-688 -663l456 -737h-222l-369 607l-124 -122l-77 -485h-174z" />
    <glyph glyph-name="L" unicode="L" horiz-adv-x="1186" 
d="M135 0l222 1400h174l-196 -1234h761l-26 -166h-935z" />
    <glyph glyph-name="M" unicode="M" horiz-adv-x="1585" 
d="M135 -1l222 1401h161l335 -1027l659 1027h159l-222 -1401h-183l140 897l-552 -859h-111l-280 861l-143 -899h-185z" />
    <glyph glyph-name="N" unicode="N" horiz-adv-x="1356" 
d="M135 0l222 1400h179l560 -1091l173 1091h173l-222 -1400h-177l-561 1090l-173 -1090h-174z" />
    <glyph glyph-name="O" unicode="O" horiz-adv-x="1621" 
d="M805 -30q-212 0 -360.5 93.5t-210 259.5t-28.5 377t147.5 377t292.5 259.5t390 93.5q159 0 284.5 -54.5t203 -151t107.5 -231.5t5 -293q-33 -211 -147.5 -377t-292.5 -259.5t-391 -93.5zM366 699q-40 -252 86.5 -409t376.5 -157q251 0 427.5 157t216.5 409
q39 252 -87.5 409t-377.5 157q-250 0 -426.5 -157t-215.5 -409z" />
    <glyph glyph-name="P" unicode="P" horiz-adv-x="1191" 
d="M135 0l222 1400h526q87 0 159 -26.5t125 -78t75 -137t6 -193.5q-18 -108 -67.5 -193.5t-118.5 -137t-149.5 -78t-167.5 -26.5h-352l-84 -530h-174zM417 679l340 2q42 0 81.5 8.5t80.5 29.5t73.5 52.5t57 81t34.5 112.5q13 78 -3 135.5t-53.5 88t-82.5 45t-98 14.5h-340z
" />
    <glyph glyph-name="Q" unicode="Q" horiz-adv-x="1623" 
d="M805 -30q-212 0 -360.5 93.5t-210 259.5t-28.5 377t147.5 377t292.5 259.5t390 93.5q159 0 284.5 -54.5t203 -151t107.5 -231.5t5 -293q-45 -281 -230 -477l122 -136l-141 -117l-120 135q-206 -135 -462 -135zM366 699q-40 -252 86.5 -409t376.5 -157q183 0 333 89
l-207 233l142 119l208 -235q134 149 168 360q39 252 -87.5 409t-377.5 157q-250 0 -426.5 -157t-215.5 -409z" />
    <glyph glyph-name="R" unicode="R" horiz-adv-x="1222" 
d="M135 0l222 1400h526q87 0 159 -26.5t125 -78t75 -137t6 -193.5q-29 -176 -134 -283t-251 -140l243 -542h-201l-237 530h-275l-84 -530h-174zM417 679l340 2q42 0 81.5 8.5t80.5 29.5t73.5 52.5t57 81t34.5 112.5q13 78 -3 135.5t-53.5 88t-82.5 45t-98 14.5h-340z" />
    <glyph glyph-name="S" unicode="S" horiz-adv-x="1311" 
d="M650 -25q-117 0 -221 35q-111 38 -182.5 108t-86.5 164l170 58q10 -88 108 -143.5t238 -55.5q91 0 184 30q90 32 145.5 84.5t66.5 122.5t-32 116q-75 82 -291 120q-143 24 -254 67q-246 95 -208 336q19 123 108 216q88 89 216 138.5t268 49.5q191 0 329 -84.5t163 -225.5
l-173 -57q-10 89 -108 144t-238 55q-88 1 -181 -29q-90 -32 -145.5 -84.5t-66.5 -122.5q-13 -81 25 -124q35 -42 104 -64.5t192 -45.5q123 -19 248 -70q117 -52 175.5 -136t40.5 -199q-20 -123 -108 -214q-88 -90 -216.5 -139.5t-269.5 -49.5z" />
    <glyph glyph-name="T" unicode="T" horiz-adv-x="1345" 
d="M585 0l195 1234h-490l27 166h1154l-27 -166h-491l-195 -1234h-173z" />
    <glyph glyph-name="U" unicode="U" horiz-adv-x="1413" 
d="M702 -25q-178 0 -291 82q-115 81 -162.5 220.5t-20.5 308.5l129 814h174l-129 -814q-32 -200 55 -322.5t271 -122.5q130 0 228 61t159.5 161t81.5 223l129 814h173l-129 -814q-28 -173 -119 -311t-234.5 -219t-314.5 -81z" />
    <glyph glyph-name="V" unicode="V" horiz-adv-x="1381" 
d="M594 0l-310 1400h183l259 -1172l632 1172h182l-755 -1400h-191z" />
    <glyph glyph-name="W" unicode="W" horiz-adv-x="1795" 
d="M437 0l-153 1400h179l118 -1092l463 1092h150l118 -1094l464 1094h178l-594 -1400h-194l-109 1010l-429 -1010h-191z" />
    <glyph glyph-name="X" unicode="X" horiz-adv-x="1436" 
d="M75 0l647 704l-419 696h213l335 -556l512 556h212l-637 -696l422 -704h-214l-340 562l-516 -562h-215z" />
    <glyph glyph-name="Y" unicode="Y" horiz-adv-x="1311" 
d="M568 0l100 631l-371 769h203l283 -587l471 587h203l-617 -769l-100 -631h-172z" />
    <glyph glyph-name="Z" unicode="Z" horiz-adv-x="1378" 
d="M95 0l25 158l1120 1076h-950l27 166h1187l-25 -158l-1120 -1076h949l-26 -166h-1187z" />
    <glyph glyph-name="bracketleft" unicode="[" horiz-adv-x="608" 
d="M118 -110l239 1510h357l-27 -166h-183l-186 -1177h183l-26 -167h-357z" />
    <glyph glyph-name="backslash" unicode="\" horiz-adv-x="789" 
d="M501 -110l-184 1510h174l185 -1510h-175z" />
    <glyph glyph-name="bracketright" unicode="]" horiz-adv-x="606" 
d="M98 -110l26 167h183l186 1177h-183l27 166h355l-239 -1510h-355z" />
    <glyph glyph-name="asciicircum" unicode="^" horiz-adv-x="874" 
d="M250 979l360 666h175l148 -666h-184l-92 415l-225 -415h-182z" />
    <glyph glyph-name="underscore" unicode="_" horiz-adv-x="1324" 
d="M118 -110l26 167h1053l-26 -167h-1053z" />
    <glyph glyph-name="grave" unicode="`" horiz-adv-x="820" 
d="M747 2274l-94 311h176l42 -311h-124z" />
    <glyph glyph-name="a" unicode="a" horiz-adv-x="1221" 
d="M590 -25q-233 0 -352.5 148t-82.5 381q37 234 203.5 382t399.5 148q216 0 338 -132l17 106h172l-160 -1008h-172l17 107q-162 -132 -380 -132zM315 504q-26 -163 56 -265t245 -102q162 0 276 102t140 265q26 164 -56 265.5t-244 101.5q-163 0 -277 -101.5t-140 -265.5z
" />
    <glyph glyph-name="b" unicode="b" horiz-adv-x="1263" 
d="M664 -25q-107 1 -194.5 38t-142.5 102l-18 -115h-174l237 1498h174l-95 -604q75 65 174.5 102t206.5 38q232 0 352 -148.5t83 -381.5t-204 -381t-399 -148zM390 504q-26 -163 56 -265t244 -102t276 102t140 265q26 164 -56 265.5t-244 101.5t-276 -101.5t-140 -265.5z
" />
    <glyph glyph-name="c" unicode="c" horiz-adv-x="1152" 
d="M590 -25q-233 0 -352.5 148t-82.5 381q37 234 203.5 382t399.5 148q174 -1 287 -88.5t143 -235.5l-164 -36q-28 92 -103.5 144t-188.5 52v1q-163 0 -277 -101.5t-140 -265.5q-26 -163 56 -265t245 -102q113 0 205 52t149 144l153 -36q-77 -149 -218 -235.5t-315 -86.5z
" />
    <glyph glyph-name="d" unicode="d" horiz-adv-x="1261" 
d="M590 -25q-233 0 -352.5 148t-82.5 381q37 234 203.5 382t399.5 148q106 -1 193.5 -38t143.5 -102l95 604h172l-237 -1498h-172l18 115q-75 -65 -175 -102t-206 -38zM315 504q-26 -163 56 -265t245 -102q162 0 276 102t140 265q26 164 -56 265.5t-244 101.5
q-163 0 -277 -101.5t-140 -265.5z" />
    <glyph glyph-name="e" unicode="e" horiz-adv-x="1188" 
d="M590 -25q-233 0 -352.5 148t-82.5 381q37 234 203.5 382t399.5 148q232 0 351.5 -148t82.5 -382l-11 -66h-872q-2 -137 80 -219t227 -82q113 0 205 52t149 144l153 -36q-77 -149 -218 -235.5t-315 -86.5zM332 578h706q-1 134 -82.5 213.5t-223.5 79.5
q-143 0 -250.5 -79.5t-149.5 -213.5z" />
    <glyph glyph-name="f" unicode="f" horiz-adv-x="747" 
d="M206 0l133 842h-141l27 166h141l38 241q18 115 113 193.5t214 78.5q61 0 114 -25t87 -72l-144 -118q-21 49 -83 49q-48 0 -85 -30t-44 -76l-38 -241h308l-27 -166h-308l-133 -842h-172z" />
    <glyph glyph-name="g" unicode="g" horiz-adv-x="1261" 
d="M1120 -32q-15 -95 -73.5 -182t-141 -149.5t-184.5 -99.5t-203 -37q-105 0 -204 48q-98 50 -161.5 134t-76.5 183l171 70q5 -115 91 -191t206 -76q148 0 266.5 89.5t137.5 210.5l22 139q-162 -132 -380 -132q-233 0 -352.5 148t-82.5 381q37 234 203.5 382t399.5 148
q216 0 338 -132l17 106h172zM315 504q-26 -163 56 -265t245 -102q162 0 276 102t140 265q26 164 -56 265.5t-244 101.5q-163 0 -277 -101.5t-140 -265.5z" />
    <glyph glyph-name="h" unicode="h" horiz-adv-x="1153" 
d="M135 0l237 1498h174l-94 -598q67 64 155 100t181 36q120 0 209 -56q92 -55 134.5 -150t23.5 -209l-98 -621h-173l94 593q19 118 -51 196.5t-193 78.5q-81 0 -149 -37q-74 -38 -122 -100t-60 -138l-94 -593h-174z" />
    <glyph glyph-name="i" unicode="i" horiz-adv-x="445" 
d="M129 0l160 1008h174l-160 -1008h-174zM335 1338q6 37 38 64.5t71 27.5q40 0 65 -27.5t19 -64.5q-6 -39 -39 -66.5t-74 -27.5q-39 0 -62.5 27.5t-17.5 66.5z" />
    <glyph glyph-name="j" unicode="j" horiz-adv-x="503" 
d="M-118 -323q116 -4 201.5 61.5t102.5 170.5l174 1099h172l-174 -1099q-18 -111 -86 -201q-74 -95 -183.5 -148t-233.5 -50zM395 1338q6 37 38 64.5t71 27.5q40 0 65 -27.5t19 -64.5q-6 -39 -39 -66.5t-74 -27.5q-39 0 -62.5 27.5t-17.5 66.5z" />
    <glyph glyph-name="k" unicode="k" horiz-adv-x="1072" 
d="M135 0l237 1498h174l-157 -992l519 502h226l-425 -411l266 -597h-198l-207 463l-222 -215l-39 -248h-174z" />
    <glyph glyph-name="l" unicode="l" horiz-adv-x="445" 
d="M135 0l237 1498h174l-237 -1498h-174z" />
    <glyph glyph-name="m" unicode="m" horiz-adv-x="1875" 
d="M135 0l160 1008h174l-17 -108q68 64 155 100t180 36q112 0 199 -50t135 -136q72 86 174.5 136t214.5 50q117 0 209 -56q91 -55 134 -150.5t24 -208.5l-98 -621h-173l93 590q12 74 -15 137q-29 66 -86.5 103.5t-135.5 37.5q-77 0 -147 -35q-151 -80 -178 -243l-93 -590
h-172l93 590q14 84 -15 144q-28 64 -86.5 99t-136.5 35q-77 0 -146 -38q-72 -40 -119.5 -102.5t-59.5 -137.5l-93 -590h-174z" />
    <glyph glyph-name="n" unicode="n" horiz-adv-x="1153" 
d="M295 1008h174l-17 -108q67 64 155.5 100t180.5 36q120 0 209 -56q92 -55 134 -150t24 -209l-98 -621h-173l94 593q12 80 -15 141q-28 63 -88.5 98.5t-140.5 35.5q-81 0 -149 -37q-75 -38 -122.5 -100.5t-59.5 -137.5l-94 -593h-174z" />
    <glyph glyph-name="o" unicode="o" horiz-adv-x="1188" 
d="M590 -25q-233 0 -352.5 148t-82.5 381q37 234 203.5 382t399.5 148q232 0 351.5 -148t82.5 -382q-37 -233 -203.5 -381t-398.5 -148zM315 504q-26 -163 56 -265t245 -102q162 0 276 102t140 265q26 164 -56 265.5t-244 101.5q-163 0 -277 -101.5t-140 -265.5z" />
    <glyph glyph-name="p" unicode="p" horiz-adv-x="1263" 
d="M57 -490l238 1498h174l-18 -114q75 65 174.5 102t206.5 38q232 0 352 -148.5t83 -381.5t-204 -381t-399 -148q-107 1 -194.5 38t-142.5 102l-96 -605h-174zM390 504q-26 -163 56 -265t244 -102t276 102t140 265q26 164 -56 265.5t-244 101.5t-276 -101.5t-140 -265.5z
" />
    <glyph glyph-name="q" unicode="q" horiz-adv-x="1261" 
d="M971 115q-75 -65 -175 -102t-206 -38q-233 0 -352.5 148t-82.5 381q37 234 203.5 382t399.5 148q106 -1 193.5 -38t143.5 -102l18 114h172l-238 -1498h-172zM315 504q-26 -163 56 -265t245 -102q162 0 276 102t140 265q26 164 -56 265.5t-244 101.5q-163 0 -277 -101.5
t-140 -265.5z" />
    <glyph glyph-name="r" unicode="r" horiz-adv-x="796" 
d="M135 0l160 1008h174l-17 -108q67 64 155 100t181 36q70 0 133 -20l-97 -163q-48 15 -90 15q-81 0 -149 -37q-74 -38 -122 -100t-60 -138l-94 -593h-174z" />
    <glyph glyph-name="s" unicode="s" horiz-adv-x="935" 
d="M488 138q85 0 163.5 37.5t90.5 109.5q5 30 -3.5 52.5t-27.5 36.5t-44 23.5t-55 16.5t-59 12q-16 3 -24 4h1q-88 14 -183 50q-183 71 -154 253q15 93 82 163q65 66 159 103t196 37q146 0 250 -68t114 -180l-153 -52q-7 64 -71 104t-165 40q-85 0 -163.5 -37.5
t-90.5 -109.5q-5 -30 4.5 -52.5t26.5 -36.5t45 -24t54 -16t60 -12q15 -3 23 -4q88 -14 178 -51q87 -39 130.5 -102.5t29.5 -150.5q-16 -95 -82 -161q-65 -67 -159.5 -104t-197.5 -37h-1q-146 0 -250 68t-114 180l154 52q6 -64 70 -104t165 -40h1z" />
    <glyph glyph-name="t" unicode="t" horiz-adv-x="764" 
d="M554 -4q-119 0 -189 79t-52 193l91 574h-185l27 166h185l47 308h173l-48 -308h245l-27 -166h-245l-91 -574q-9 -57 34.5 -83t100 -22t99.5 24l-26 -159q-69 -32 -139 -32z" />
    <glyph glyph-name="u" unicode="u" horiz-adv-x="1113" 
d="M524 -25q-120 0 -208 55q-92 56 -135 151t-24 209l98 618h173l-94 -591q-12 -77 17 -138q31 -64 90 -100.5t137 -36.5q123 0 217 78.5t113 196.5l94 591h174l-159 -1008h-174l17 111q-67 -64 -154.5 -100t-181.5 -36z" />
    <glyph glyph-name="v" unicode="v" horiz-adv-x="1123" 
d="M460 0l-225 1011h184l175 -795l429 795h184l-546 -1011h-201z" />
    <glyph glyph-name="w" unicode="w" horiz-adv-x="1732" 
d="M427 0l-192 1008h171l146 -759l387 759h173l144 -759l388 759h172l-514 -1008h-169l-148 768l-389 -768h-169z" />
    <glyph glyph-name="x" unicode="x" horiz-adv-x="1176" 
d="M95 0l465 506l-304 505h213l222 -363l334 363h212l-463 -505l306 -506h-214l-220 366l-338 -366h-213z" />
    <glyph glyph-name="y" unicode="y" horiz-adv-x="1127" 
d="M198 -490l272 505l-215 993h188l151 -762l415 762h182l-809 -1498h-184z" />
    <glyph glyph-name="z" unicode="z" horiz-adv-x="1094" 
d="M95 0l25 158l760 684h-652l27 166h903l-25 -157l-760 -685h651l-26 -166h-903z" />
    <glyph glyph-name="braceleft" unicode="{" horiz-adv-x="877" 
d="M653 -111q-102 0 -179 49q-79 48 -115.5 130t-20.5 179l38 240q2 13 -1.5 22.5t-15 18t-20 13t-27.5 13.5q-20 10 -29.5 15t-24 16.5t-19.5 26t-2 32.5q4 26 23 45.5t37 28.5t47 20q27 11 40.5 17.5t26 18.5t15.5 28l38 241q15 98 79 180q63 82 156 129.5t194 47.5h90
l-27 -166h-90q-85 0 -151 -54.5t-79 -136.5l-39 -246q-7 -41 -29 -69q-21 -26 -82 -66q-5 -3 -14 -9.5t-12 -8.5q22 -22 45 -40q26 -23 37 -47.5t7 -65.5l-39 -244q-13 -82 35.5 -136.5t134.5 -54.5h90l-27 -167h-90z" />
    <glyph glyph-name="bar" unicode="|" horiz-adv-x="484" 
d="M108 -296l269 1696h173l-269 -1696h-173z" />
    <glyph glyph-name="braceright" unicode="}" horiz-adv-x="876" 
d="M97 -111l27 167h89q87 0 152.5 54.5t78.5 136.5l39 245q9 42 29 68q18 23 76 61q22 14 34 23q-14 15 -44 38q-27 24 -39 49.5t-8 64.5l39 247q13 82 -35.5 136.5t-135.5 54.5h-89l27 166h89q100 0 181 -48q78 -49 114.5 -130.5t20.5 -178.5l-38 -240q-1 -24 14.5 -38
t49.5 -28q83 -34 74 -93q-5 -34 -32 -54t-71 -37q-38 -15 -58 -29t-27 -38l-38 -239q-15 -97 -77 -179q-65 -83 -158 -131t-195 -48h-89z" />
    <glyph glyph-name="asciitilde" unicode="~" horiz-adv-x="1310" 
d="M1012 414q-44 0 -98 19t-90.5 38.5t-102.5 58.5q-56 33 -87 50.5t-73.5 33t-73.5 15.5q-65 1 -108 -48.5t-32 -118.5l-170 -9q-11 91 39 169q44 75 121 121.5t164 46.5q44 0 96.5 -19.5t84 -38t90.5 -56.5q55 -35 84 -52t73 -34t79 -17q68 0 110.5 50t28.5 114l173 11
q13 -89 -32 -169q-43 -75 -116.5 -120t-159.5 -45z" />
    <glyph glyph-name="exclamdown" unicode="&#xa1;" horiz-adv-x="397" 
d="M51 -392l157 989h156l-157 -989h-156zM244 940q7 41 38.5 67.5t71.5 26.5q41 0 65 -26.5t17 -67.5q-6 -38 -38.5 -65t-73.5 -27q-39 0 -62.5 27t-17.5 65z" />
    <glyph glyph-name="cent" unicode="&#xa2;" horiz-adv-x="1179" 
d="M584 201q-118 13 -212 82q-97 71 -141.5 181t-24.5 238q21 128 100 239q79 108 193 176.5t243 83.5l32 199h138l-32 -198q123 -13 216 -80t138 -171l-163 -83q-34 79 -111 126.5t-172 47.5q-96 0 -185 -46q-90 -47 -149.5 -124t-74.5 -170q-15 -98 22 -172
q37 -79 110.5 -124.5t168.5 -45.5t187.5 47.5t151.5 126.5l135 -83q-76 -103 -190.5 -170t-241.5 -81l-32 -200h-138z" />
    <glyph glyph-name="sterling" unicode="&#xa3;" horiz-adv-x="1245" 
d="M145 166q138 -3 232.5 53.5t92.5 142.5q6 44 -3 78h-278l21 134h171q-20 22 -34 35q-31 32 -62 75q-67 96 -44 238q16 102 72.5 195.5t137.5 160.5t185 107t210 40q146 0 258 -69.5t163.5 -189t25.5 -258.5h-174q20 104 -19 184q-37 78 -110 122.5t-171 44.5
q-94 0 -184 -45q-90 -47 -148 -123t-73 -169q-13 -83 2 -127q20 -77 109 -153q12 -10 67 -68h417l-21 -134h-341q6 -47 -3 -107q-16 -99 -116 -167h637l-26 -166h-1020z" />
    <glyph glyph-name="currency" unicode="&#xa4;" horiz-adv-x="1075" 
d="M237 276l-83 94l148 124q-52 98 -33 209t101 202l-112 126l113 93l111 -125q108 65 225 66t204 -64l149 123l82 -93l-146 -123q56 -93 38.5 -207.5t-102.5 -209.5l105 -121l-111 -94l-108 121q-111 -68 -227.5 -67.5t-206.5 69.5zM407 698q-10 -65 15 -117
q25 -55 75.5 -85.5t115.5 -30.5q105 2 185.5 68t96.5 165q16 101 -44 166.5t-165 65.5t-184 -66t-95 -166z" />
    <glyph glyph-name="yen" unicode="&#xa5;" horiz-adv-x="1340" 
d="M585 0l30 189h-302l21 133h302l20 127h-302l21 134h302l8 48l-375 769h205l285 -587l470 587h203l-616 -769l-8 -48h301l-21 -134h-301l-20 -127h301l-21 -133h-301l-30 -189h-172z" />
    <glyph glyph-name="brokenbar" unicode="&#xa6;" horiz-adv-x="445" 
d="M236 636l121 764h174l-121 -764h-174zM88 -296l121 764h174l-121 -764h-174z" />
    <glyph glyph-name="section" unicode="&#xa7;" horiz-adv-x="1156" 
d="M524 -393q-134 0 -234.5 58t-129.5 153l155 79q12 -62 75.5 -99.5t148.5 -39.5q100 -2 171.5 39.5t83.5 112.5q7 49 -16 75q-40 43 -204 77q-193 36 -289.5 152.5t-69.5 288.5q19 117 99.5 215.5t196.5 148.5q-182 58 -154 229q15 96 82 164q65 67 159 104t195 37
q134 0 233 -57t130 -154l-154 -79q-12 62 -75.5 99.5t-148.5 39.5q-102 2 -173 -39.5t-82 -112.5q-7 -45 15 -73q40 -44 203 -77q199 -41 293 -153.5t66 -291.5q-19 -117 -99 -214.5t-196 -147.5q182 -59 155 -229q-15 -94 -81 -163q-65 -68 -159 -105t-196 -37zM375 503
q-13 -75 19 -138q31 -63 90.5 -99t134.5 -36q77 0 145 37q72 38 118.5 98.5t57.5 133.5q20 125 -50 202t-196 77q-117 0 -208.5 -78.5t-110.5 -196.5z" />
    <glyph glyph-name="dieresis" unicode="&#xa8;" horiz-adv-x="1350" 
d="M1192 2246q-41 0 -65.5 26t-18.5 66q6 39 39 66.5t74 27.5q40 0 64.5 -28t18.5 -66q-6 -39 -39 -65.5t-73 -26.5zM785 2338q7 39 40.5 66.5t73.5 27.5t64 -27.5t18 -66.5t-38 -65.5t-73 -26.5q-40 0 -65.5 26.5t-19.5 65.5z" />
    <glyph glyph-name="copyright" unicode="&#xa9;" horiz-adv-x="1901" 
d="M915 -212q-174 0 -322 65t-244.5 174.5t-140 261t-17.5 318.5q35 223 179.5 411.5t358.5 297.5t446 109q175 0 323 -64.5t245 -174t141 -261t17 -318.5t-119 -319t-224 -261.5t-300.5 -174t-342.5 -64.5zM364 607q-21 -136 14 -257.5t113 -208t195.5 -137t255.5 -50.5
q190 0 361.5 88.5t284 238.5t140.5 326q29 179 -38.5 329.5t-211 237t-330.5 85.5t-357 -88.5t-284.5 -237t-142.5 -326.5zM528 607q24 149 115.5 272t222.5 191.5t272 68.5q131 0 235 -61t160 -165l-167 -79q-41 66 -108 102t-146 36q-100 0 -187 -50q-91 -51 -150 -133.5
t-75 -181.5q-15 -99 19 -181q37 -85 109 -133.5t169 -48.5q82 0 160.5 37.5t137.5 100.5l141 -80q-88 -104 -211.5 -164.5t-254.5 -60.5q-144 0 -253 72q-110 73 -161 193.5t-28 264.5z" />
    <glyph glyph-name="ordfeminine" unicode="&#xaa;" horiz-adv-x="836" 
d="M513 731q-148 0 -223.5 94t-52.5 242t128.5 242.5t253.5 94.5q136 0 215 -84l11 67h109l-102 -640h-109l11 68q-103 -84 -241 -84zM338 1067q-17 -104 35.5 -168.5t155.5 -64.5t175.5 64.5t89.5 168.5t-35 168.5t-156 64.5t-176 -64.5t-89 -168.5z" />
    <glyph glyph-name="guillemotleft" unicode="&#xab;" horiz-adv-x="1118" 
d="M495 256l-266 347l375 346h196l-374 -346l265 -347h-196zM576 603l375 346h196l-374 -346l265 -347h-196z" />
    <glyph glyph-name="logicalnot" unicode="&#xac;" horiz-adv-x="1052" 
d="M833 308l66 421h-689l27 167h861l-93 -588h-172z" />
    <glyph glyph-name="uni00AD" unicode="&#xad;" horiz-adv-x="978" 
d="M239 519l26 166h685l-26 -166h-685z" />
    <glyph glyph-name="registered" unicode="&#xae;" horiz-adv-x="1076" 
d="M609 453q-125 0 -222 60t-143 162t-27 222q29 181 185 311.5t347 130.5q127 0 224.5 -60.5t142.5 -162t26 -219.5q-29 -182 -186 -313t-347 -131zM359 897q-14 -87 19 -153q34 -73 99 -113.5t153 -40.5q86 0 169 42q81 43 134.5 112t66.5 153q13 82 -20 153
q-33 72 -99 112t-154 40q-89 0 -167 -41q-81 -43 -134.5 -111.5t-66.5 -152.5zM507 694l67 421h168q55 0 87 -39t24 -94q-7 -38 -31.5 -69t-59.5 -47l79 -172h-125l-71 157h-5l-25 -157h-108zM656 955h60q24 0 29 27q4 28 -20 28h-60z" />
    <glyph glyph-name="macron" unicode="&#xaf;" horiz-adv-x="1276" 
d="M551 1733l23 140h721l-23 -140h-721z" />
    <glyph glyph-name="degree" unicode="&#xb0;" horiz-adv-x="779" 
d="M514 791q-81 0 -143 39q-61 39 -89.5 103.5t-16.5 138.5q19 118 117 199.5t221 81.5t195.5 -82t54.5 -199q-12 -76 -63 -143q-51 -64 -124 -101t-152 -37zM438 1072q-8 -49 21.5 -82t81.5 -33t91 32.5t47 82.5t-21 82.5t-81 32.5t-92 -32.5t-47 -82.5z" />
    <glyph glyph-name="plusminus" unicode="&#xb1;" horiz-adv-x="1244" 
d="M587 326l66 421h-440l27 166h440l66 421h172l-66 -421h441l-27 -166h-441l-66 -421h-172zM95 0l26 166h1053l-26 -166h-1053z" />
    <glyph glyph-name="acute" unicode="&#xb4;" horiz-adv-x="818" 
d="M655 2274l140 311h176l-190 -311h-126z" />
    <glyph glyph-name="uni00B5" unicode="&#xb5;" horiz-adv-x="1134" 
d="M24 -423l227 1431h173l-85 -535q-16 -97 14 -169q30 -78 92 -122.5t146 -44.5q83 0 159 45q75 46 125.5 122.5t65.5 168.5l85 535h172l-160 -1008h-172l21 134q-152 -160 -340 -160q-86 0 -154 36t-112 98l-84 -531h-173z" />
    <glyph glyph-name="paragraph" unicode="&#xb6;" horiz-adv-x="933" 
d="M554 703q-92 3 -160 47q-76 47 -112 126.5t-21 174.5q17 97 77 177q63 79 153.5 125.5t188.5 46.5h157l-269 -1696h-172zM618 -296l269 1696h172l-269 -1696h-172z" />
    <glyph glyph-name="periodcentered" unicode="&#xb7;" horiz-adv-x="384" 
d="M271 509q-39 0 -63 27.5t-17 66.5q5 37 37.5 64.5t71.5 27.5q40 0 64.5 -27t19.5 -65q-7 -39 -40 -66.5t-73 -27.5z" />
    <glyph glyph-name="cedilla" unicode="&#xb8;" horiz-adv-x="1289" 
d="M579 -359q-77 -20 -136.5 20.5t-61.5 114.5l123 29q-2 -29 16 -43t46 -7q26 7 40 25t10 40q-8 48 -64 37l-130 -17l187 248l97 -58l-52 -68q76 -32 84 -112q9 -68 -37.5 -129t-121.5 -80z" />
    <glyph glyph-name="ordmasculine" unicode="&#xba;" horiz-adv-x="806" 
d="M512 734q-148 0 -223.5 93.5t-52.5 241.5t129 242t254 94q147 0 222 -94t52 -242q-23 -147 -128.5 -241t-252.5 -94zM338 1069q-16 -104 36 -168t155 -64t175 64.5t88 167.5q17 103 -35 167.5t-155 64.5t-175 -64t-89 -168z" />
    <glyph glyph-name="guillemotright" unicode="&#xbb;" horiz-adv-x="1136" 
d="M500 256l374 347l-265 346h196l266 -346l-375 -347h-196zM153 256l374 347l-265 346h196l266 -346l-375 -347h-196z" />
    <glyph glyph-name="questiondown" unicode="&#xbf;" horiz-adv-x="1054" 
d="M756 940q-6 -39 -39 -65.5t-73 -26.5q-39 0 -63.5 26.5t-18.5 65.5q6 38 39.5 66t72.5 28q40 0 64 -28t18 -66zM93 -11q18 115 92 212t183 149q115 55 134 173l31 196h173l-31 -196q-16 -101 -82 -186t-166 -133q-65 -31 -107.5 -87.5t-53.5 -127.5q-16 -104 45 -172.5
t169 -68.5q112 0 197.5 73.5t96.5 182.5h172q-15 -121 -93 -220q-73 -93 -178.5 -147.5t-220.5 -54.5q-117 0 -204 55q-91 54 -132.5 147t-24.5 205z" />
    <glyph glyph-name="Agrave" unicode="&#xc0;" horiz-adv-x="1450" 
d="M91 0l755 1400h197l311 -1400h-184l-80 359h-622l-194 -359h-183zM558 526h494l-143 650zM860 1985h176l42 -311h-124z" />
    <glyph glyph-name="Aacute" unicode="&#xc1;" horiz-adv-x="1450" 
d="M91 0l755 1400h197l311 -1400h-184l-80 359h-622l-194 -359h-183zM558 526h494l-143 650zM888 1674l140 311h176l-190 -311h-126z" />
    <glyph glyph-name="Acircumflex" unicode="&#xc2;" horiz-adv-x="1450" 
d="M91 0l755 1400h197l311 -1400h-184l-80 359h-622l-194 -359h-183zM558 526h494l-143 650zM696 1674l266 311h171l170 -311h-174l-101 188l-159 -188h-173z" />
    <glyph glyph-name="Atilde" unicode="&#xc3;" horiz-adv-x="1450" 
d="M91 0l755 1400h197l311 -1400h-184l-80 359h-622l-194 -359h-183zM558 526h494l-143 650zM672 1681q-16 68 12 129q24 56 76 90.5t116 34.5q29 0 65.5 -14.5t55.5 -26t63 -39.5q86 -62 125 -62q28 0 42 33.5t-4 56.5l135 38q19 -67 -10 -131q-27 -56 -79.5 -90.5
t-116.5 -34.5q-26 0 -59.5 14t-53 26.5t-56.5 38.5q-35 24 -53 35.5t-42 20.5t-40 6q-26 -6 -40 -31t-3 -60z" />
    <glyph glyph-name="Adieresis" unicode="&#xc4;" horiz-adv-x="1450" 
d="M91 0l755 1400h197l311 -1400h-184l-80 359h-622l-194 -359h-183zM558 526h494l-143 650zM744 1765q6 39 39.5 66.5t73.5 27.5t64.5 -28t18.5 -66q-7 -39 -39 -65.5t-73 -26.5t-66 26.5t-18 65.5zM1067 1765q6 39 38.5 66.5t73.5 27.5q40 0 65 -28t19 -66
q-7 -39 -40 -65.5t-73 -26.5q-42 0 -66 26.5t-17 65.5z" />
    <glyph glyph-name="Aring" unicode="&#xc5;" horiz-adv-x="1450" 
d="M91 0l755 1400h197l311 -1400h-184l-80 359h-622l-194 -359h-183zM558 526h494l-143 650zM844 1831q11 70 70.5 119.5t133.5 49.5q73 0 117.5 -49.5t33.5 -119.5q-11 -71 -71.5 -121.5t-133.5 -50.5t-117 51t-33 121zM955 1831q-5 -29 11 -47.5t45 -18.5q30 0 51.5 18.5
t26.5 47.5q5 26 -11.5 43.5t-46.5 17.5q-29 0 -50 -17t-26 -44z" />
    <glyph glyph-name="AE" unicode="&#xc6;" horiz-adv-x="1909" 
d="M1160 816h637l-26 -167h-637l-77 -483h762l-26 -166h-935l57 359h-443l-194 -359h-183l755 1400h1165l-27 -166h-762zM562 526h379l107 676h-121z" />
    <glyph glyph-name="Ccedilla" unicode="&#xc7;" horiz-adv-x="1525" 
d="M771 -396q-77 -20 -136.5 20.5t-61.5 114.5l123 29q-2 -29 16 -43t46 -7q26 7 40 25t11 40q-10 48 -65 37l-130 -17l128 169q-292 21 -439 222t-99 506q33 211 147.5 377t292.5 259.5t390 93.5q197 0 339.5 -81t213.5 -227l-163 -76q-58 105 -164 162t-254 57
q-250 0 -426.5 -157t-215.5 -409q-40 -252 86.5 -409t376.5 -157q147 0 271.5 57.5t216.5 162.5l136 -75q-103 -130 -249.5 -209t-318.5 -95l-37 -49q76 -32 84 -112q9 -68 -37.5 -129t-121.5 -80z" />
    <glyph glyph-name="Egrave" unicode="&#xc8;" horiz-adv-x="1181" 
d="M130 0l222 1400h935l-27 -166h-761l-66 -418h636l-26 -167h-636l-77 -483h761l-26 -166h-935zM785 1985h176l42 -311h-124z" />
    <glyph glyph-name="Eacute" unicode="&#xc9;" horiz-adv-x="1181" 
d="M130 0l222 1400h935l-27 -166h-761l-66 -418h636l-26 -167h-636l-77 -483h761l-26 -166h-935zM753 1674l140 311h176l-190 -311h-126z" />
    <glyph glyph-name="Ecircumflex" unicode="&#xca;" horiz-adv-x="1181" 
d="M130 0l222 1400h935l-27 -166h-761l-66 -418h636l-26 -167h-636l-77 -483h761l-26 -166h-935zM596 1674l266 311h171l170 -311h-174l-101 188l-159 -188h-173z" />
    <glyph glyph-name="Edieresis" unicode="&#xcb;" horiz-adv-x="1181" 
d="M130 0l222 1400h935l-27 -166h-761l-66 -418h636l-26 -167h-636l-77 -483h761l-26 -166h-935zM653 1747q6 39 40 66.5t74 27.5t64 -27.5t18 -66.5q-7 -39 -39 -65.5t-73 -26.5t-66 26.5t-18 65.5zM976 1747q6 39 39 66.5t74 27.5q40 0 64.5 -28t18.5 -66
q-7 -39 -40 -65.5t-73 -26.5q-42 0 -66 26.5t-17 65.5z" />
    <glyph glyph-name="Igrave" unicode="&#xcc;" horiz-adv-x="471" 
d="M133 0l222 1400h172l-222 -1400h-172zM350 1985h176l42 -311h-124z" />
    <glyph glyph-name="Iacute" unicode="&#xcd;" horiz-adv-x="497" 
d="M158 0l222 1400h172l-222 -1400h-172zM432 1674l140 311h176l-190 -311h-126z" />
    <glyph glyph-name="Icircumflex" unicode="&#xce;" horiz-adv-x="541" 
d="M169 0l222 1400h172l-222 -1400h-172zM233 1674l266 311h171l170 -311h-174l-101 188l-159 -188h-173z" />
    <glyph glyph-name="Idieresis" unicode="&#xcf;" horiz-adv-x="521" 
d="M165 0l222 1400h172l-222 -1400h-172zM280 1738q7 39 40.5 66.5t73.5 27.5t64 -27.5t18 -66.5t-38 -65.5t-73 -26.5q-40 0 -65.5 26.5t-19.5 65.5zM603 1738q6 39 39 66.5t74 27.5q40 0 64.5 -28t18.5 -66q-6 -39 -39 -65.5t-73 -26.5q-41 0 -65.5 26t-18.5 66z" />
    <glyph glyph-name="Eth" unicode="&#xd0;" horiz-adv-x="1651" 
d="M387 0l94 593h-278l22 140h278l106 667h504q203 0 345.5 -90.5t201 -249.5t26.5 -361q-24 -151 -93.5 -280.5t-172.5 -221.5t-239.5 -144.5t-289.5 -52.5h-504zM587 166l332 -1q237 0 403 147.5t204 385.5q37 238 -82 386.5t-356 148.5l-332 1l-79 -501h269l-22 -140
h-269z" />
    <glyph glyph-name="Ntilde" unicode="&#xd1;" horiz-adv-x="1351" 
d="M130 0l222 1400h179l560 -1091l173 1091h173l-222 -1400h-177l-561 1090l-173 -1090h-174zM592 1677q-16 70 11 129q25 56 77 90.5t116 34.5q29 0 65.5 -15t54.5 -25.5t63 -39.5q88 -62 125 -62q28 0 42 33.5t-3 56.5l135 38q18 -67 -11 -131q-27 -56 -79.5 -90.5
t-116.5 -34.5q-26 0 -59.5 14t-52 26t-56.5 39q-38 25 -54.5 35.5t-41 20t-40.5 6.5q-26 -6 -40 -31t-3 -60z" />
    <glyph glyph-name="Ograve" unicode="&#xd2;" horiz-adv-x="1617" 
d="M801 -30q-212 0 -360.5 93.5t-210 259.5t-28.5 377t147.5 377t292.5 259.5t390 93.5q159 0 284.5 -54.5t203 -151t107.5 -231.5t5 -293q-33 -211 -147.5 -377t-292.5 -259.5t-391 -93.5zM362 699q-40 -252 86.5 -409t376.5 -157q251 0 427.5 157t216.5 409
q39 252 -87.5 409t-377.5 157q-250 0 -426.5 -157t-215.5 -409zM993 1985h176l42 -311h-124z" />
    <glyph glyph-name="Oacute" unicode="&#xd3;" horiz-adv-x="1617" 
d="M801 -30q-212 0 -360.5 93.5t-210 259.5t-28.5 377t147.5 377t292.5 259.5t390 93.5q159 0 284.5 -54.5t203 -151t107.5 -231.5t5 -293q-33 -211 -147.5 -377t-292.5 -259.5t-391 -93.5zM362 699q-40 -252 86.5 -409t376.5 -157q251 0 427.5 157t216.5 409
q39 252 -87.5 409t-377.5 157q-250 0 -426.5 -157t-215.5 -409zM970 1674l140 311h176l-190 -311h-126z" />
    <glyph glyph-name="Ocircumflex" unicode="&#xd4;" horiz-adv-x="1617" 
d="M801 -30q-212 0 -360.5 93.5t-210 259.5t-28.5 377t147.5 377t292.5 259.5t390 93.5q159 0 284.5 -54.5t203 -151t107.5 -231.5t5 -293q-33 -211 -147.5 -377t-292.5 -259.5t-391 -93.5zM362 699q-40 -252 86.5 -409t376.5 -157q251 0 427.5 157t216.5 409
q39 252 -87.5 409t-377.5 157q-250 0 -426.5 -157t-215.5 -409zM786 1674l266 311h171l170 -311h-174l-101 188l-159 -188h-173z" />
    <glyph glyph-name="Otilde" unicode="&#xd5;" horiz-adv-x="1617" 
d="M801 -30q-212 0 -360.5 93.5t-210 259.5t-28.5 377t147.5 377t292.5 259.5t390 93.5q159 0 284.5 -54.5t203 -151t107.5 -231.5t5 -293q-33 -211 -147.5 -377t-292.5 -259.5t-391 -93.5zM362 699q-40 -252 86.5 -409t376.5 -157q251 0 427.5 157t216.5 409
q39 252 -87.5 409t-377.5 157q-250 0 -426.5 -157t-215.5 -409zM718 1669q-16 68 12 129q24 56 76.5 90.5t116.5 34.5q29 0 65.5 -15t54.5 -25.5t63 -39.5q88 -62 125 -62q28 0 42 33.5t-4 56.5l135 38q19 -67 -10 -131q-27 -56 -79.5 -90.5t-116.5 -34.5q-26 0 -59.5 14
t-53 26.5t-56.5 38.5q-35 24 -53 35.5t-42 20.5t-40 6q-26 -6 -40 -31t-3 -60z" />
    <glyph glyph-name="Odieresis" unicode="&#xd6;" horiz-adv-x="1617" 
d="M801 -30q-212 0 -360.5 93.5t-210 259.5t-28.5 377t147.5 377t292.5 259.5t390 93.5q159 0 284.5 -54.5t203 -151t107.5 -231.5t5 -293q-33 -211 -147.5 -377t-292.5 -259.5t-391 -93.5zM362 699q-40 -252 86.5 -409t376.5 -157q251 0 427.5 157t216.5 409
q39 252 -87.5 409t-377.5 157q-250 0 -426.5 -157t-215.5 -409zM820 1738q7 39 40.5 66.5t73.5 27.5t64 -27.5t18 -66.5t-38 -65.5t-73 -26.5q-40 0 -65.5 26.5t-19.5 65.5zM1143 1738q6 39 39 66.5t74 27.5q40 0 64.5 -28t18.5 -66q-6 -39 -39 -65.5t-73 -26.5
q-41 0 -65.5 26t-18.5 66z" />
    <glyph glyph-name="multiply" unicode="&#xd7;" horiz-adv-x="1059" 
d="M248 187l-105 117l357 298l-262 298l141 117l263 -297l358 297l106 -117l-361 -298l266 -298l-142 -117l-264 298z" />
    <glyph glyph-name="Oslash" unicode="&#xd8;" horiz-adv-x="1617" 
d="M801 -30h-19l-68 -175h-173l76 196q-234 56 -346 247.5t-69 461.5q33 211 147.5 377t292.5 259.5t390 93.5q80 0 146 -13l68 173h174l-87 -221q177 -82 256.5 -259t42.5 -410q-33 -211 -147.5 -377t-292.5 -259.5t-391 -93.5zM362 699q-34 -211 51.5 -358.5t266.5 -191.5
l435 1107q-53 9 -111 9q-250 0 -426.5 -157t-215.5 -409zM847 133q243 7 413 163.5t209 402.5q27 173 -26 304.5t-175 199.5z" />
    <glyph glyph-name="Ugrave" unicode="&#xd9;" horiz-adv-x="1408" 
d="M697 -25q-178 0 -291 82q-115 81 -162.5 220.5t-20.5 308.5l129 814h174l-129 -814q-32 -200 55 -322.5t271 -122.5q130 0 228 61t159.5 161t81.5 223l129 814h173l-129 -814q-28 -173 -119 -311t-234.5 -219t-314.5 -81zM826 1985h176l42 -311h-124z" />
    <glyph glyph-name="Uacute" unicode="&#xda;" horiz-adv-x="1408" 
d="M697 -25q-178 0 -291 82q-115 81 -162.5 220.5t-20.5 308.5l129 814h174l-129 -814q-32 -200 55 -322.5t271 -122.5q130 0 228 61t159.5 161t81.5 223l129 814h173l-129 -814q-28 -173 -119 -311t-234.5 -219t-314.5 -81zM846 1674l140 311h176l-190 -311h-126z" />
    <glyph glyph-name="Ucircumflex" unicode="&#xdb;" horiz-adv-x="1408" 
d="M697 -25q-178 0 -291 82q-115 81 -162.5 220.5t-20.5 308.5l129 814h174l-129 -814q-32 -200 55 -322.5t271 -122.5q130 0 228 61t159.5 161t81.5 223l129 814h173l-129 -814q-28 -173 -119 -311t-234.5 -219t-314.5 -81zM685 1674l266 311h171l170 -311h-174l-101 188
l-159 -188h-173z" />
    <glyph glyph-name="Udieresis" unicode="&#xdc;" horiz-adv-x="1408" 
d="M697 -25q-178 0 -291 82q-115 81 -162.5 220.5t-20.5 308.5l129 814h174l-129 -814q-32 -200 55 -322.5t271 -122.5q130 0 228 61t159.5 161t81.5 223l129 814h173l-129 -814q-28 -173 -119 -311t-234.5 -219t-314.5 -81zM727 1738q7 39 40.5 66.5t73.5 27.5t64 -27.5
t18 -66.5t-38 -65.5t-73 -26.5q-40 0 -65.5 26.5t-19.5 65.5zM1050 1738q6 39 39 66.5t74 27.5q40 0 64.5 -28t18.5 -66q-6 -39 -39 -65.5t-73 -26.5q-41 0 -65.5 26t-18.5 66z" />
    <glyph glyph-name="Yacute" unicode="&#xdd;" horiz-adv-x="1308" 
d="M565 0l100 631l-371 769h203l283 -587l471 587h203l-617 -769l-100 -631h-172zM783 1674l140 311h176l-190 -311h-126z" />
    <glyph glyph-name="Thorn" unicode="&#xde;" horiz-adv-x="1169" 
d="M95 -243l261 1650h174l-40 -250h352q87 0 159 -26.5t125 -78t75.5 -137t5.5 -193.5q-14 -87 -49.5 -159.5t-84 -123t-109 -85.5t-126 -51t-134.5 -16h-352l-83 -530h-174zM376 436l340 2q42 0 82 8.5t81 29.5t73.5 52.5t57 81t33.5 112.5q13 65 2.5 113t-32 80.5
t-57 52.5t-72 28.5t-78.5 8.5h-340z" />
    <glyph glyph-name="germandbls" unicode="&#xdf;" horiz-adv-x="1057" 
d="M594 -27q-129 0 -218 44l26 166q90 -37 164 -45.5t126.5 7.5t91 54.5t61 91t33.5 120.5t-0.5 121t-37 85t-65 53t-79.5 28.5t-85 7.5h-109l25 161h103q237 0 272 224q33 205 -165 205q-69 0 -116.5 -18t-79 -58.5t-50 -94.5t-31.5 -137l-191 -1207h-169l197 1244
q33 204 150.5 318.5t315.5 114.5q73 0 133.5 -22t105.5 -65.5t64 -115.5t5 -164q-32 -194 -170 -295q188 -115 145 -385q-30 -188 -155.5 -313t-296.5 -125z" />
    <glyph glyph-name="agrave" unicode="&#xe0;" horiz-adv-x="1218" 
d="M587 -25q-233 0 -352.5 148t-82.5 381q37 234 203.5 382t399.5 148q216 0 338 -132l17 106h172l-160 -1008h-172l17 107q-162 -132 -380 -132zM312 504q-26 -163 56 -265t245 -102q162 0 276 102t140 265q26 164 -56 265.5t-244 101.5q-163 0 -277 -101.5t-140 -265.5z
M709 1551h176l41 -311h-124z" />
    <glyph glyph-name="aacute" unicode="&#xe1;" horiz-adv-x="1218" 
d="M587 -25q-233 0 -352.5 148t-82.5 381q37 234 203.5 382t399.5 148q216 0 338 -132l17 106h172l-160 -1008h-172l17 107q-162 -132 -380 -132zM312 504q-26 -163 56 -265t245 -102q162 0 276 102t140 265q26 164 -56 265.5t-244 101.5q-163 0 -277 -101.5t-140 -265.5z
M696 1272l141 311h176l-191 -311h-126z" />
    <glyph glyph-name="acircumflex" unicode="&#xe2;" horiz-adv-x="1218" 
d="M587 -25q-233 0 -352.5 148t-82.5 381q37 234 203.5 382t399.5 148q216 0 338 -132l17 106h172l-160 -1008h-172l17 107q-162 -132 -380 -132zM312 504q-26 -163 56 -265t245 -102q162 0 276 102t140 265q26 164 -56 265.5t-244 101.5q-163 0 -277 -101.5t-140 -265.5z
M529 1279l266 311h171l170 -311h-174l-102 188l-158 -188h-173z" />
    <glyph glyph-name="atilde" unicode="&#xe3;" horiz-adv-x="1218" 
d="M587 -25q-233 0 -352.5 148t-82.5 381q37 234 203.5 382t399.5 148q216 0 338 -132l17 106h172l-160 -1008h-172l17 107q-162 -132 -380 -132zM312 504q-26 -163 56 -265t245 -102q162 0 276 102t140 265q26 164 -56 265.5t-244 101.5q-163 0 -277 -101.5t-140 -265.5z
M496 1292q-16 70 11 129q25 56 77 90.5t116 34.5q29 0 65.5 -15t54.5 -25.5t63 -39.5q88 -62 125 -62q28 0 42 33.5t-3 56.5l135 38q18 -67 -11 -131q-27 -56 -79.5 -90.5t-116.5 -34.5q-26 0 -59.5 14t-52 26t-56.5 39q-38 25 -54.5 35.5t-41 20t-40.5 6.5q-26 -6 -40 -31
t-3 -60z" />
    <glyph glyph-name="adieresis" unicode="&#xe4;" horiz-adv-x="1218" 
d="M587 -25q-233 0 -352.5 148t-82.5 381q37 234 203.5 382t399.5 148q216 0 338 -132l17 106h172l-160 -1008h-172l17 107q-162 -132 -380 -132zM312 504q-26 -163 56 -265t245 -102q162 0 276 102t140 265q26 164 -56 265.5t-244 101.5q-163 0 -277 -101.5t-140 -265.5z
M582 1366q7 39 40.5 66.5t73.5 27.5t64 -27.5t18 -66.5t-38 -65.5t-73 -26.5q-40 0 -65.5 26.5t-19.5 65.5zM905 1366q6 39 39 66.5t74 27.5q40 0 64.5 -28t18.5 -66q-6 -39 -39 -65.5t-73 -26.5q-41 0 -65.5 26t-18.5 66z" />
    <glyph glyph-name="aring" unicode="&#xe5;" horiz-adv-x="1218" 
d="M587 -25q-233 0 -352.5 148t-82.5 381q37 234 203.5 382t399.5 148q216 0 338 -132l17 106h172l-160 -1008h-172l17 107q-162 -132 -380 -132zM312 504q-26 -163 56 -265t245 -102q162 0 276 102t140 265q26 164 -56 265.5t-244 101.5q-163 0 -277 -101.5t-140 -265.5z
M692 1440q11 70 70.5 119.5t133.5 49.5q73 0 117.5 -49.5t33.5 -119.5q-11 -71 -71.5 -121.5t-133.5 -50.5t-117 51t-33 121zM803 1440q-5 -29 11 -47.5t45 -18.5q30 0 51.5 18.5t26.5 47.5q5 26 -11.5 43.5t-46.5 17.5q-29 0 -50 -17t-26 -44z" />
    <glyph glyph-name="ae" unicode="&#xe6;" horiz-adv-x="2100" 
d="M590 -25q-233 0 -352.5 148t-82.5 381q37 234 203.5 382t399.5 148q216 0 338 -132l17 106h172l-20 -124q169 150 402 150q232 0 351.5 -148t82.5 -382l-11 -66h-872q-2 -137 80 -219t227 -82q113 0 205 52t149 144l153 -36q-77 -149 -218 -235.5t-315 -86.5
q-234 0 -354 150l-20 -125h-172l17 107q-162 -132 -380 -132zM315 504q-26 -163 56 -265t245 -102q162 0 276 102t140 265q26 164 -56 265.5t-244 101.5q-163 0 -277 -101.5t-140 -265.5zM1241 578h706q-1 134 -82.5 213.5t-223.5 79.5q-143 0 -250.5 -79.5t-149.5 -213.5z
" />
    <glyph glyph-name="ccedilla" unicode="&#xe7;" horiz-adv-x="1102" 
d="M594 -359q-77 -20 -136.5 20.5t-61.5 114.5l123 29q-2 -29 16 -43t46 -7q26 7 40 25t10 40q-8 48 -64 37l-130 -17l103 137q-212 16 -317.5 161t-70.5 366q37 234 203.5 382t399.5 148q174 -1 287 -88.5t143 -235.5l-164 -36q-28 92 -103.5 144t-188.5 52v1
q-163 0 -277 -101.5t-140 -265.5q-26 -163 56 -265t245 -102q113 0 205 52t149 144l153 -36q-66 -127 -179.5 -210t-255.5 -105l-16 -20q76 -32 84 -112q9 -68 -37.5 -129t-121.5 -80z" />
    <glyph glyph-name="egrave" unicode="&#xe8;" 
d="M587 -25q-233 0 -352.5 148t-82.5 381q37 234 203.5 382t399.5 148q232 0 351.5 -148t82.5 -382l-11 -66h-872q-2 -137 80 -219t227 -82q113 0 205 52t149 144l153 -36q-77 -149 -218 -235.5t-315 -86.5zM329 578h706q-1 134 -82.5 213.5t-223.5 79.5
q-143 0 -250.5 -79.5t-149.5 -213.5zM748 1579h176l42 -311h-124z" />
    <glyph glyph-name="eacute" unicode="&#xe9;" 
d="M587 -25q-233 0 -352.5 148t-82.5 381q37 234 203.5 382t399.5 148q232 0 351.5 -148t82.5 -382l-11 -66h-872q-2 -137 80 -219t227 -82q113 0 205 52t149 144l153 -36q-77 -149 -218 -235.5t-315 -86.5zM329 578h706q-1 134 -82.5 213.5t-223.5 79.5
q-143 0 -250.5 -79.5t-149.5 -213.5zM688 1266l140 311h176l-190 -311h-126z" />
    <glyph glyph-name="ecircumflex" unicode="&#xea;" 
d="M587 -25q-233 0 -352.5 148t-82.5 381q37 234 203.5 382t399.5 148q232 0 351.5 -148t82.5 -382l-11 -66h-872q-2 -137 80 -219t227 -82q113 0 205 52t149 144l153 -36q-77 -149 -218 -235.5t-315 -86.5zM329 578h706q-1 134 -82.5 213.5t-223.5 79.5
q-143 0 -250.5 -79.5t-149.5 -213.5zM509 1271l267 311h171l169 -311h-174l-101 188l-159 -188h-173z" />
    <glyph glyph-name="edieresis" unicode="&#xeb;" 
d="M587 -25q-233 0 -352.5 148t-82.5 381q37 234 203.5 382t399.5 148q232 0 351.5 -148t82.5 -382l-11 -66h-872q-2 -137 80 -219t227 -82q113 0 205 52t149 144l153 -36q-77 -149 -218 -235.5t-315 -86.5zM329 578h706q-1 134 -82.5 213.5t-223.5 79.5
q-143 0 -250.5 -79.5t-149.5 -213.5zM579 1337q6 39 40 66.5t74 27.5t64 -27.5t18 -66.5q-7 -39 -39 -65.5t-73 -26.5t-66 26.5t-18 65.5zM902 1337q6 39 39 66.5t74 27.5q40 0 64.5 -28t18.5 -66q-7 -39 -40 -65.5t-73 -26.5q-42 0 -66 26.5t-17 65.5z" />
    <glyph glyph-name="igrave" unicode="&#xec;" horiz-adv-x="418" 
d="M108 0l160 1008h174l-160 -1008h-174zM256 1579h176l42 -311h-124z" />
    <glyph glyph-name="iacute" unicode="&#xed;" horiz-adv-x="443" 
d="M130 0l160 1008h174l-160 -1008h-174zM345 1274l140 311h176l-190 -311h-126z" />
    <glyph glyph-name="icircumflex" unicode="&#xee;" horiz-adv-x="286" 
d="M132 0l160 1008h174l-160 -1008h-174zM136 1252l267 311h171l169 -311h-174l-101 188l-159 -188h-173z" />
    <glyph glyph-name="idieresis" unicode="&#xef;" horiz-adv-x="461" 
d="M149 0l160 1008h174l-160 -1008h-174zM191 1363q6 39 40 66.5t74 27.5t64 -27.5t18 -66.5q-7 -39 -39 -65.5t-73 -26.5t-66 26.5t-18 65.5zM514 1363q6 39 39 66.5t74 27.5q40 0 64.5 -28t18.5 -66q-7 -39 -40 -65.5t-73 -26.5q-42 0 -66 26.5t-17 65.5z" />
    <glyph glyph-name="eth" unicode="&#xf0;" horiz-adv-x="1231" 
d="M655 137q163 0 277 102t140 265q26 164 -56 265.5t-245 101.5q-162 0 -276 -101.5t-140 -265.5q-26 -163 56 -265t244 -102zM194 504q37 234 203.5 382t399.5 148q164 -2 275 -83q-37 143 -116 235l-195 -103l-51 121l139 73q-100 57 -224 53l26 167q216 4 375 -126
l201 106l51 -121l-158 -83q25 -31 46 -67q81 -134 109 -310t0 -373q-26 -161 -111 -284q-87 -125 -218.5 -194.5t-285.5 -69.5h-31q-233 0 -352.5 148t-82.5 381z" />
    <glyph glyph-name="ntilde" unicode="&#xf1;" horiz-adv-x="1148" 
d="M290 1008h174l-17 -108q67 64 155.5 100t180.5 36q120 0 209 -56q92 -55 134 -150t24 -209l-98 -621h-173l94 593q12 80 -15 141q-28 63 -88.5 98.5t-140.5 35.5q-81 0 -149 -37q-75 -38 -122.5 -100.5t-59.5 -137.5l-94 -593h-174zM467 1277q-16 68 12 129
q24 56 76 90.5t116 34.5q29 0 65.5 -14.5t55.5 -26t63 -39.5q86 -62 125 -62q28 0 42 33.5t-4 56.5l135 38q19 -67 -10 -131q-27 -56 -79.5 -90.5t-116.5 -34.5q-26 0 -59.5 14t-53 26.5t-56.5 38.5q-35 24 -53 35.5t-42 20.5t-40 6q-26 -6 -40 -31t-3 -60z" />
    <glyph glyph-name="ograve" unicode="&#xf2;" 
d="M587 -25q-233 0 -352.5 148t-82.5 381q37 234 203.5 382t399.5 148q232 0 351.5 -148t82.5 -382q-37 -233 -203.5 -381t-398.5 -148zM312 504q-26 -163 56 -265t245 -102q162 0 276 102t140 265q26 164 -56 265.5t-244 101.5q-163 0 -277 -101.5t-140 -265.5zM755 1578
h176l42 -311h-124z" />
    <glyph glyph-name="oacute" unicode="&#xf3;" 
d="M587 -25q-233 0 -352.5 148t-82.5 381q37 234 203.5 382t399.5 148q232 0 351.5 -148t82.5 -382q-37 -233 -203.5 -381t-398.5 -148zM312 504q-26 -163 56 -265t245 -102q162 0 276 102t140 265q26 164 -56 265.5t-244 101.5q-163 0 -277 -101.5t-140 -265.5zM648 1250
l140 311h176l-190 -311h-126z" />
    <glyph glyph-name="ocircumflex" unicode="&#xf4;" 
d="M587 -25q-233 0 -352.5 148t-82.5 381q37 234 203.5 382t399.5 148q232 0 351.5 -148t82.5 -382q-37 -233 -203.5 -381t-398.5 -148zM312 504q-26 -163 56 -265t245 -102q162 0 276 102t140 265q26 164 -56 265.5t-244 101.5q-163 0 -277 -101.5t-140 -265.5zM515 1252
l267 311h171l169 -311h-174l-101 188l-159 -188h-173z" />
    <glyph glyph-name="otilde" unicode="&#xf5;" 
d="M587 -25q-233 0 -352.5 148t-82.5 381q37 234 203.5 382t399.5 148q232 0 351.5 -148t82.5 -382q-37 -233 -203.5 -381t-398.5 -148zM312 504q-26 -163 56 -265t245 -102q162 0 276 102t140 265q26 164 -56 265.5t-244 101.5q-163 0 -277 -101.5t-140 -265.5zM473 1276
q-16 68 12 129q24 56 76 90.5t116 34.5q29 0 65.5 -14.5t55.5 -26t63 -39.5q86 -62 125 -62q28 0 42 33.5t-4 56.5l135 38q19 -68 -11 -131q-26 -56 -78 -90.5t-117 -34.5q-26 0 -59.5 14t-53 26.5t-56.5 38.5q-35 24 -53 35.5t-42 20.5t-40 6q-26 -6 -40.5 -31t-3.5 -60z
" />
    <glyph glyph-name="odieresis" unicode="&#xf6;" 
d="M587 -25q-233 0 -352.5 148t-82.5 381q37 234 203.5 382t399.5 148q232 0 351.5 -148t82.5 -382q-37 -233 -203.5 -381t-398.5 -148zM312 504q-26 -163 56 -265t245 -102q162 0 276 102t140 265q26 164 -56 265.5t-244 101.5q-163 0 -277 -101.5t-140 -265.5zM547 1363
q6 39 40 66.5t74 27.5t64 -27.5t18 -66.5q-7 -39 -39 -65.5t-73 -26.5t-66 26.5t-18 65.5zM870 1363q6 39 39 66.5t74 27.5q40 0 64.5 -28t18.5 -66q-7 -39 -40 -65.5t-73 -26.5q-42 0 -66 26.5t-17 65.5z" />
    <glyph glyph-name="divide" unicode="&#xf7;" horiz-adv-x="1244" 
d="M177 519l26 166h1053l-26 -166h-1053zM541 246q8 47 47.5 82t89.5 35q48 0 79.5 -35.5t24.5 -81.5q-7 -48 -49 -81.5t-91 -33.5q-51 0 -80 33.5t-21 81.5zM653 956q8 47 47.5 82t90.5 35q48 0 78 -35.5t22 -81.5q-7 -47 -48 -81.5t-89 -34.5q-50 0 -79.5 34t-21.5 82z
" />
    <glyph glyph-name="oslash" unicode="&#xf8;" 
d="M587 -25q-19 0 -51 2l-70 -145h-173l87 182q-134 57 -195 187t-33 303q37 234 203.5 382t399.5 148q60 0 109 -10l59 123h174l-86 -178q109 -66 156 -187.5t22 -277.5q-37 -233 -203.5 -381t-398.5 -148zM312 504q-19 -116 19 -204t124 -130l334 697q-25 4 -60 4
q-163 0 -277 -101.5t-140 -265.5zM613 137q162 0 276 102t140 265q16 99 -9 177.5t-86 126.5z" />
    <glyph glyph-name="ugrave" unicode="&#xf9;" horiz-adv-x="1109" 
d="M520 -25q-120 0 -208 55q-92 56 -135 151t-24 209l98 618h173l-94 -591q-12 -77 17 -138q31 -64 90 -100.5t137 -36.5q123 0 217 78.5t113 196.5l94 591h174l-159 -1008h-174l17 111q-67 -64 -154.5 -100t-181.5 -36zM674 1577h176l42 -311h-124z" />
    <glyph glyph-name="uacute" unicode="&#xfa;" horiz-adv-x="1109" 
d="M520 -25q-120 0 -208 55q-92 56 -135 151t-24 209l98 618h173l-94 -591q-12 -77 17 -138q31 -64 90 -100.5t137 -36.5q123 0 217 78.5t113 196.5l94 591h174l-159 -1008h-174l17 111q-67 -64 -154.5 -100t-181.5 -36zM622 1258l141 311h176l-191 -311h-126z" />
    <glyph glyph-name="ucircumflex" unicode="&#xfb;" horiz-adv-x="1109" 
d="M520 -25q-120 0 -208 55q-92 56 -135 151t-24 209l98 618h173l-94 -591q-12 -77 17 -138q31 -64 90 -100.5t137 -36.5q123 0 217 78.5t113 196.5l94 591h174l-159 -1008h-174l17 111q-67 -64 -154.5 -100t-181.5 -36zM490 1273l266 311h171l170 -311h-174l-102 188
l-158 -188h-173z" />
    <glyph glyph-name="udieresis" unicode="&#xfc;" horiz-adv-x="1109" 
d="M520 -25q-120 0 -208 55q-92 56 -135 151t-24 209l98 618h173l-94 -591q-12 -77 17 -138q31 -64 90 -100.5t137 -36.5q123 0 217 78.5t113 196.5l94 591h174l-159 -1008h-174l17 111q-67 -64 -154.5 -100t-181.5 -36zM514 1364q6 39 40 66.5t74 27.5t64 -27.5t18 -66.5
t-38.5 -65.5t-73.5 -26.5q-40 0 -65 26.5t-19 65.5zM837 1364q6 39 39 66.5t74 27.5q40 0 64.5 -28t18.5 -66q-6 -39 -39.5 -65.5t-73.5 -26.5q-41 0 -65 26t-18 66z" />
    <glyph glyph-name="yacute" unicode="&#xfd;" horiz-adv-x="1123" 
d="M194 -490l272 505l-215 993h188l151 -762l415 762h182l-809 -1498h-184zM624 1272l141 311h176l-191 -311h-126z" />
    <glyph glyph-name="thorn" unicode="&#xfe;" horiz-adv-x="1258" 
d="M52 -491l301 1898h174l-82 -514q76 65 175.5 102t206.5 38q232 0 352 -148.5t83 -381.5t-204 -381t-399 -148q-107 1 -195 38t-142 102l-96 -605h-174zM385 503q-26 -163 56 -265t244 -102t276 101.5t140 265.5t-56 265.5t-244 101.5t-276 -101.5t-140 -265.5z" />
    <glyph glyph-name="ydieresis" unicode="&#xff;" horiz-adv-x="1123" 
d="M194 -490l272 505l-215 993h188l151 -762l415 762h182l-809 -1498h-184zM539 1334q7 39 40.5 66.5t73.5 27.5t64 -27.5t18 -66.5t-38 -65.5t-73 -26.5q-40 0 -65.5 26.5t-19.5 65.5zM862 1334q6 39 39 66.5t74 27.5q40 0 64.5 -28t18.5 -66q-6 -39 -39 -65.5t-73 -26.5
q-41 0 -65.5 26t-18.5 66z" />
    <glyph glyph-name="Amacron" unicode="&#x100;" horiz-adv-x="1450" 
d="M91 0l755 1400h197l311 -1400h-184l-80 359h-622l-194 -359h-183zM558 526h494l-143 650zM629 1680l22 140h721l-22 -140h-721z" />
    <glyph glyph-name="amacron" unicode="&#x101;" horiz-adv-x="1218" 
d="M587 -25q-233 0 -352.5 148t-82.5 381q37 234 203.5 382t399.5 148q216 0 338 -132l17 106h172l-160 -1008h-172l17 107q-162 -132 -380 -132zM312 504q-26 -163 56 -265t245 -102q162 0 276 102t140 265q26 164 -56 265.5t-244 101.5q-163 0 -277 -101.5t-140 -265.5z
M453 1266l22 140h721l-22 -140h-721z" />
    <glyph glyph-name="Abreve" unicode="&#x102;" horiz-adv-x="1450" 
d="M91 0l755 1400h197l311 -1400h-184l-80 359h-622l-194 -359h-183zM558 526h494l-143 650zM680 1954h131q-21 -96 35 -161.5t153 -65.5q99 0 173.5 65.5t84.5 161.5h131q-10 -99 -77 -187q-62 -78 -150 -122.5t-183 -44.5q-99 0 -169 46q-77 48 -112.5 130t-16.5 178z" />
    <glyph glyph-name="abreve" unicode="&#x103;" horiz-adv-x="1218" 
d="M587 -25q-233 0 -352.5 148t-82.5 381q37 234 203.5 382t399.5 148q216 0 338 -132l17 106h172l-160 -1008h-172l17 107q-162 -132 -380 -132zM312 504q-26 -163 56 -265t245 -102q162 0 276 102t140 265q26 164 -56 265.5t-244 101.5q-163 0 -277 -101.5t-140 -265.5z
M507 1578h131q-21 -96 34.5 -161.5t152.5 -65.5q99 0 174 65t85 162h131q-12 -100 -78 -187q-62 -78 -149.5 -122.5t-182.5 -44.5q-100 0 -170 46q-78 48 -112.5 130t-15.5 178z" />
    <glyph glyph-name="Aogonek" unicode="&#x104;" horiz-adv-x="1460" 
d="M91 0l755 1400h197l306 -1376l7 -9l-4 -4l2 -11h-15q-8 -7 -23 -19t-22 -18q-112 -93 -123 -104q-39 -36 -45 -66q-4 -24 9.5 -40t41.5 -18q41 0 73 28t33 72h134q-10 -98 -87.5 -165t-178.5 -67q-86 1 -133 58.5t-35 135.5q13 80 81 137l102 85l-76 340h-622l-194 -359
h-183zM558 526h494l-143 650z" />
    <glyph glyph-name="aogonek" unicode="&#x105;" horiz-adv-x="1232" 
d="M587 -25q-233 0 -352.5 148t-82.5 381q37 234 203.5 382t399.5 148q216 0 338 -132l17 106h172l-157 -989l3 -4l-4 -4l-2 -11h-11q-8 -7 -23 -19t-22 -18q-112 -93 -123 -104q-39 -36 -45 -66q-4 -24 9.5 -40t41.5 -18q41 0 73 28t33 72h134q-10 -98 -87.5 -165
t-178.5 -67q-86 1 -133 58.5t-35 135.5q13 80 81 137l119 100l12 73q-162 -132 -380 -132zM312 504q-26 -163 56 -265t245 -102q162 0 276 102t140 265q26 164 -56 265.5t-244 101.5q-163 0 -277 -101.5t-140 -265.5z" />
    <glyph glyph-name="Cacute" unicode="&#x106;" horiz-adv-x="1525" 
d="M803 -30q-212 0 -360.5 93.5t-210 259.5t-28.5 377t147.5 377t292.5 259.5t390 93.5q197 0 339.5 -81t213.5 -227l-163 -76q-58 105 -164 162t-254 57q-250 0 -426.5 -157t-215.5 -409q-40 -252 86.5 -409t376.5 -157q147 0 271.5 57.5t216.5 162.5l136 -75
q-115 -145 -283.5 -226.5t-364.5 -81.5zM930 1674l140 311h176l-190 -311h-126z" />
    <glyph glyph-name="cacute" unicode="&#x107;" horiz-adv-x="1102" 
d="M587 -25q-233 0 -352.5 148t-82.5 381q37 234 203.5 382t399.5 148q174 -1 287 -88.5t143 -235.5l-164 -36q-28 92 -103.5 144t-188.5 52v1q-163 0 -277 -101.5t-140 -265.5q-26 -163 56 -265t245 -102q113 0 205 52t149 144l153 -36q-77 -149 -218 -235.5t-315 -86.5z
M654 1274l140 311h176l-190 -311h-126z" />
    <glyph glyph-name="Cdotaccent" unicode="&#x10a;" horiz-adv-x="1525" 
d="M803 -30q-212 0 -360.5 93.5t-210 259.5t-28.5 377t147.5 377t292.5 259.5t390 93.5q197 0 339.5 -81t213.5 -227l-163 -76q-58 105 -164 162t-254 57q-250 0 -426.5 -157t-215.5 -409q-40 -252 86.5 -409t376.5 -157q147 0 271.5 57.5t216.5 162.5l136 -75
q-115 -145 -283.5 -226.5t-364.5 -81.5zM1005 1757q7 39 39.5 65.5t73.5 26.5q40 0 64 -26.5t17 -65.5q-6 -39 -37.5 -65.5t-72.5 -26.5t-65.5 26.5t-18.5 65.5z" />
    <glyph glyph-name="cdotaccent" unicode="&#x10b;" horiz-adv-x="1102" 
d="M587 -25q-233 0 -352.5 148t-82.5 381q37 234 203.5 382t399.5 148q174 -1 287 -88.5t143 -235.5l-164 -36q-28 92 -103.5 144t-188.5 52v1q-163 0 -277 -101.5t-140 -265.5q-26 -163 56 -265t245 -102q113 0 205 52t149 144l153 -36q-77 -149 -218 -235.5t-315 -86.5z
M695 1333q7 39 39.5 65.5t73.5 26.5q40 0 64 -26.5t17 -65.5q-6 -39 -37.5 -65.5t-72.5 -26.5t-65.5 26.5t-18.5 65.5z" />
    <glyph glyph-name="Ccaron" unicode="&#x10c;" horiz-adv-x="1525" 
d="M803 -30q-212 0 -360.5 93.5t-210 259.5t-28.5 377t147.5 377t292.5 259.5t390 93.5q197 0 339.5 -81t213.5 -227l-163 -76q-58 105 -164 162t-254 57q-250 0 -426.5 -157t-215.5 -409q-40 -252 86.5 -409t376.5 -157q147 0 271.5 57.5t216.5 162.5l136 -75
q-115 -145 -283.5 -226.5t-364.5 -81.5zM820 1970h174l101 -187l156 187h175l-265 -311h-172z" />
    <glyph glyph-name="ccaron" unicode="&#x10d;" horiz-adv-x="1102" 
d="M587 -25q-233 0 -352.5 148t-82.5 381q37 234 203.5 382t399.5 148q174 -1 287 -88.5t143 -235.5l-164 -36q-28 92 -103.5 144t-188.5 52v1q-163 0 -277 -101.5t-140 -265.5q-26 -163 56 -265t245 -102q113 0 205 52t149 144l153 -36q-77 -149 -218 -235.5t-315 -86.5z
M520 1569h174l101 -187l156 187h175l-266 -311h-172z" />
    <glyph glyph-name="Dcaron" unicode="&#x10e;" horiz-adv-x="1394" 
d="M130 0l222 1400h504q203 0 345.5 -90.5t201 -249.5t26.5 -361q-24 -151 -93.5 -280.5t-172.5 -221.5t-239.5 -144.5t-289.5 -52.5h-504zM330 166l332 -1q237 0 403 147.5t204 385.5q37 238 -82 386.5t-356 148.5l-332 1zM672 1972h174l102 -187l155 187h175l-265 -311
h-172z" />
    <glyph glyph-name="dcaron" unicode="&#x10f;" horiz-adv-x="1195" 
d="M587 -25q-233 0 -352.5 148t-82.5 381q37 234 203.5 382t399.5 148q106 -1 193.5 -38t143.5 -102l95 604h172l-237 -1498h-172l18 115q-75 -65 -175 -102t-206 -38zM312 504q-26 -163 56 -265t245 -102q162 0 276 102t140 265q26 164 -56 265.5t-244 101.5
q-163 0 -277 -101.5t-140 -265.5zM575 1581h174l102 -187l155 187h175l-265 -311h-172z" />
    <glyph glyph-name="Dcroat" unicode="&#x110;" horiz-adv-x="1408" 
d="M141 0l94 593h-278l22 140h278l106 667h504q203 0 345.5 -90.5t201 -249.5t26.5 -361q-24 -151 -93.5 -280.5t-172.5 -221.5t-239.5 -144.5t-289.5 -52.5h-504zM341 166l332 -1q237 0 403 147.5t204 385.5q37 238 -82 386.5t-356 148.5l-332 1l-79 -501h269l-22 -140
h-269z" />
    <glyph glyph-name="dcroat" unicode="&#x111;" horiz-adv-x="1240" 
d="M590 -25q-233 0 -352.5 148t-82.5 381q37 234 203.5 382t399.5 148q106 -1 193.5 -38t143.5 -102l43 276h-257l22 140h257l30 188h172l-30 -188h292l-22 -140h-292l-185 -1170h-172l18 115q-75 -65 -175 -102t-206 -38zM315 504q-26 -163 56 -265t245 -102q162 0 276 102
t140 265q26 164 -56 265.5t-244 101.5q-163 0 -277 -101.5t-140 -265.5z" />
    <glyph glyph-name="Emacron" unicode="&#x112;" horiz-adv-x="1181" 
d="M130 0l222 1400h935l-27 -166h-761l-66 -418h636l-26 -167h-636l-77 -483h761l-26 -166h-935zM542 1666l22 140h721l-22 -140h-721z" />
    <glyph glyph-name="emacron" unicode="&#x113;" 
d="M587 -25q-233 0 -352.5 148t-82.5 381q37 234 203.5 382t399.5 148q232 0 351.5 -148t82.5 -382l-11 -66h-872q-2 -137 80 -219t227 -82q113 0 205 52t149 144l153 -36q-77 -149 -218 -235.5t-315 -86.5zM329 578h706q-1 134 -82.5 213.5t-223.5 79.5
q-143 0 -250.5 -79.5t-149.5 -213.5zM431 1275l22 140h721l-22 -140h-721z" />
    <glyph glyph-name="Edotaccent" unicode="&#x116;" horiz-adv-x="1181" 
d="M130 0l222 1400h935l-27 -166h-761l-66 -418h636l-26 -167h-636l-77 -483h761l-26 -166h-935zM801 1728q6 39 38.5 65.5t73.5 26.5q40 0 64 -26.5t18 -65.5q-7 -39 -38.5 -65.5t-72.5 -26.5t-65.5 26.5t-17.5 65.5z" />
    <glyph glyph-name="edotaccent" unicode="&#x117;" 
d="M587 -25q-233 0 -352.5 148t-82.5 381q37 234 203.5 382t399.5 148q232 0 351.5 -148t82.5 -382l-11 -66h-872q-2 -137 80 -219t227 -82q113 0 205 52t149 144l153 -36q-77 -149 -218 -235.5t-315 -86.5zM329 578h706q-1 134 -82.5 213.5t-223.5 79.5
q-143 0 -250.5 -79.5t-149.5 -213.5zM713 1379q7 39 39.5 65.5t73.5 26.5q40 0 64 -26.5t17 -65.5q-6 -39 -37.5 -65.5t-72.5 -26.5t-65.5 26.5t-18.5 65.5z" />
    <glyph glyph-name="Eogonek" unicode="&#x118;" horiz-adv-x="1300" 
d="M130 0l222 1400h935l-27 -166h-761l-66 -418h636l-26 -167h-636l-77 -483h761l-21 -136l13 -15q-24 -22 -62 -52q-112 -93 -123 -104q-39 -36 -45 -66q-4 -24 9.5 -40t41.5 -18q41 0 73 28t33 72h134q-10 -98 -87.5 -165t-178.5 -67q-86 1 -133 58.5t-35 135.5
q13 80 81 137l79 66h-740z" />
    <glyph glyph-name="eogonek" unicode="&#x119;" 
d="M1035 578q-1 134 -82.5 213.5t-223.5 79.5q-143 0 -250.5 -79.5t-149.5 -213.5h706zM152 504q37 234 203.5 382t399.5 148q232 0 351.5 -148t82.5 -382l-11 -66h-872q-2 -137 80 -219t227 -82q113 0 205 52t149 144l153 -36q-55 -106 -145 -182.5t-203 -111.5l-48 -40
q-112 -93 -123 -104q-39 -36 -45 -66q-4 -24 9.5 -40t41.5 -18q41 0 73 28t33 72h134q-10 -98 -87.5 -165t-178.5 -67q-86 1 -133 58.5t-35 135.5q13 80 81 137l50 42q-213 15 -320 160.5t-72 367.5z" />
    <glyph glyph-name="Ecaron" unicode="&#x11a;" horiz-adv-x="1181" 
d="M130 0l222 1400h935l-27 -166h-761l-66 -418h636l-26 -167h-636l-77 -483h761l-26 -166h-935zM612 1976h174l101 -187l156 187h175l-265 -311h-172z" />
    <glyph glyph-name="ecaron" unicode="&#x11b;" horiz-adv-x="1223" 
d="M625 -25q-233 0 -352.5 148t-82.5 381q37 234 203.5 382t399.5 148q232 0 351.5 -148t82.5 -382l-11 -66h-872q-2 -137 80 -219t227 -82q113 0 205 52t149 144l153 -36q-77 -149 -218 -235.5t-315 -86.5zM367 578h706q-1 134 -82.5 213.5t-223.5 79.5
q-143 0 -250.5 -79.5t-149.5 -213.5zM574 1607h174l101 -187l156 187h175l-266 -311h-172z" />
    <glyph glyph-name="Gbreve" unicode="&#x11e;" horiz-adv-x="1503" 
d="M801 -30q-212 0 -360.5 93.5t-210 259.5t-28.5 377t147.5 377t292.5 259.5t390 93.5q197 0 339.5 -81t213.5 -227l-163 -76q-58 105 -164 162t-254 57q-250 0 -426.5 -157t-215.5 -409q-40 -252 86.5 -409t376.5 -157q265 0 451 180l53 335h-551l26 167h723l-87 -548
q-114 -140 -280 -218.5t-359 -78.5zM723 1975h131q-21 -96 34.5 -161.5t152.5 -65.5q99 0 174 65t85 162h131q-12 -100 -78 -187q-62 -78 -149.5 -122.5t-182.5 -44.5q-100 0 -170 46q-78 48 -112.5 130t-15.5 178z" />
    <glyph glyph-name="gbreve" unicode="&#x11f;" horiz-adv-x="1258" 
d="M1117 -32q-15 -95 -73.5 -182t-141 -149.5t-184.5 -99.5t-203 -37q-105 0 -204 48q-98 50 -161.5 134t-76.5 183l171 70q5 -115 91 -191t206 -76q148 0 266.5 89.5t137.5 210.5l22 139q-162 -132 -380 -132q-233 0 -352.5 148t-82.5 381q37 234 203.5 382t399.5 148
q216 0 338 -132l17 106h172zM312 504q-26 -163 56 -265t245 -102q162 0 276 102t140 265q26 164 -56 265.5t-244 101.5q-163 0 -277 -101.5t-140 -265.5zM515 1632h131q-21 -96 35 -161.5t153 -65.5q99 0 173.5 65.5t84.5 161.5h131q-10 -99 -77 -187q-62 -78 -150 -122.5
t-183 -44.5q-99 0 -169 46q-77 48 -112.5 130t-16.5 178z" />
    <glyph glyph-name="Gdotaccent" unicode="&#x120;" horiz-adv-x="1503" 
d="M801 -30q-212 0 -360.5 93.5t-210 259.5t-28.5 377t147.5 377t292.5 259.5t390 93.5q197 0 339.5 -81t213.5 -227l-163 -76q-58 105 -164 162t-254 57q-250 0 -426.5 -157t-215.5 -409q-40 -252 86.5 -409t376.5 -157q265 0 451 180l53 335h-551l26 167h723l-87 -548
q-114 -140 -280 -218.5t-359 -78.5zM968 1757q7 39 39.5 65.5t73.5 26.5q40 0 64 -26.5t17 -65.5q-6 -39 -37.5 -65.5t-72.5 -26.5t-65.5 26.5t-18.5 65.5z" />
    <glyph glyph-name="gdotaccent" unicode="&#x121;" horiz-adv-x="1258" 
d="M1117 -32q-15 -95 -73.5 -182t-141 -149.5t-184.5 -99.5t-203 -37q-105 0 -204 48q-98 50 -161.5 134t-76.5 183l171 70q5 -115 91 -191t206 -76q148 0 266.5 89.5t137.5 210.5l22 139q-162 -132 -380 -132q-233 0 -352.5 148t-82.5 381q37 234 203.5 382t399.5 148
q216 0 338 -132l17 106h172zM312 504q-26 -163 56 -265t245 -102q162 0 276 102t140 265q26 164 -56 265.5t-244 101.5q-163 0 -277 -101.5t-140 -265.5zM757 1402q6 39 39 65.5t74 26.5q39 0 63 -26.5t18 -65.5t-38 -65.5t-73 -26.5t-65 26.5t-18 65.5z" />
    <glyph glyph-name="uni0122" unicode="&#x122;" horiz-adv-x="1510" 
d="M805 -30q-212 0 -360.5 93.5t-210 259.5t-28.5 377t147.5 377t292.5 259.5t390 93.5q197 0 339.5 -81t213.5 -227l-163 -76q-58 105 -164 162t-254 57q-250 0 -426.5 -157t-215.5 -409q-40 -252 86.5 -409t376.5 -157q265 0 451 180l53 335h-551l26 167h723l-87 -548
q-114 -140 -280 -218.5t-359 -78.5zM592 -453l141 311h177l-191 -311h-127z" />
    <glyph glyph-name="uni0123" unicode="&#x123;" horiz-adv-x="1235" 
d="M1120 -32q-15 -95 -73.5 -182t-141 -149.5t-184.5 -99.5t-203 -37q-105 0 -204 48q-98 50 -161.5 134t-76.5 183l171 70q5 -115 91 -191t206 -76q148 0 266.5 89.5t137.5 210.5l22 139q-162 -132 -380 -132q-233 0 -352.5 148t-82.5 381q37 234 203.5 382t399.5 148
q216 0 338 -132l17 106h172zM315 504q-26 -163 56 -265t245 -102q162 0 276 102t140 265q26 164 -56 265.5t-244 101.5q-163 0 -277 -101.5t-140 -265.5zM723 1314l140 311h177l-190 -311h-127z" />
    <glyph glyph-name="Hbar" unicode="&#x126;" horiz-adv-x="1379" 
d="M135 0l163 1031h-151l27 166h151l32 203h174l-32 -203h758l32 203h173l-32 -203h159l-27 -166h-159l-163 -1031h-173l105 666h-758l-105 -666h-174zM441 832h758l31 199h-758z" />
    <glyph glyph-name="hbar" unicode="&#x127;" horiz-adv-x="1148" 
d="M126 0l185 1170h-277l22 140h277l30 188h174l-30 -188h270l-22 -140h-270l-42 -270q67 64 155 100t181 36q120 0 209 -56q92 -55 134.5 -150t23.5 -209l-98 -621h-173l94 593q19 118 -51 196.5t-193 78.5q-81 0 -149 -37q-74 -38 -122 -100t-60 -138l-94 -593h-174z" />
    <glyph glyph-name="Itilde" unicode="&#x128;" horiz-adv-x="520" 
d="M177 0l222 1400h172l-222 -1400h-172zM188 1665q-16 70 11 129q25 56 77 90.5t116 34.5q29 0 65.5 -15t54.5 -25.5t63 -39.5q88 -62 125 -62q28 0 42 33.5t-3 56.5l135 38q18 -67 -11 -131q-27 -56 -79.5 -90.5t-116.5 -34.5q-26 0 -59.5 14t-52 26t-56.5 39
q-35 24 -53 35.5t-42 20.5t-40 6q-27 -6 -41 -31t-3 -60z" />
    <glyph glyph-name="itilde" unicode="&#x129;" horiz-adv-x="358" 
d="M102 0l160 1008h174l-160 -1008h-174zM57 1263q-15 68 11 129q25 56 77 90.5t116 34.5q9 0 19 -1.5t18 -3t19 -6t18 -7t19.5 -9t18 -9.5t19 -11t17.5 -10.5t18.5 -11.5t17.5 -11q86 -62 125 -62q28 0 42 33.5t-4 56.5l135 38q19 -68 -11 -131q-26 -56 -78 -90.5
t-117 -34.5q-26 0 -59.5 14t-53 26.5t-56.5 38.5q-35 24 -53 35.5t-42 20.5t-40 6q-26 -6 -40.5 -31t-3.5 -60z" />
    <glyph glyph-name="Imacron" unicode="&#x12a;" horiz-adv-x="513" 
d="M153 0l222 1400h172l-222 -1400h-172zM146 1668l22 140h721l-22 -140h-721z" />
    <glyph glyph-name="imacron" unicode="&#x12b;" horiz-adv-x="449" 
d="M137 0l160 1008h174l-160 -1008h-174zM64 1275l22 140h721l-22 -140h-721z" />
    <glyph glyph-name="Iogonek" unicode="&#x12e;" horiz-adv-x="506" 
d="M127 -397q-86 1 -133 58.5t-35 135.5q13 80 81 137l123 103l216 1363h172l-219 -1384v-1l-1 -1l-2 -14h-14q-8 -7 -23 -19t-22 -18q-112 -93 -123 -104q-39 -36 -45 -66q-4 -24 9.5 -40t41.5 -18q41 0 73 28t33 72h134q-10 -98 -87.5 -165t-178.5 -67z" />
    <glyph glyph-name="iogonek" unicode="&#x12f;" horiz-adv-x="446" 
d="M97 -397q-86 1 -133 58.5t-35 135.5q13 80 81 137l119 100l155 974h174l-157 -991l1 -2l-2 -2l-2 -13h-13q-8 -7 -23 -19t-22 -18q-112 -93 -123 -104q-39 -36 -45 -66q-4 -24 9.5 -40t41.5 -18q41 0 73 28t33 72h134q-10 -98 -87.5 -165t-178.5 -67z" />
    <glyph glyph-name="Idotaccent" unicode="&#x130;" horiz-adv-x="513" 
d="M167 0l222 1400h172l-222 -1400h-172zM439 1737q7 39 39.5 65.5t73.5 26.5q40 0 64 -26.5t17 -65.5q-6 -39 -37.5 -65.5t-72.5 -26.5t-65.5 26.5t-18.5 65.5z" />
    <glyph glyph-name="dotlessi" unicode="&#x131;" horiz-adv-x="445" 
d="M135 0l160 1008h174l-160 -1008h-174z" />
    <glyph glyph-name="IJ" unicode="&#x132;" horiz-adv-x="1743" 
d="M158 0l222 1400h172l-222 -1400h-172zM559 601h172q-36 -206 51 -333t274 -127q130 0 228 61t159.5 161t81.5 223l129 814h173l-129 -814q-28 -173 -119 -311t-234.5 -219t-314.5 -81q-178 0 -291 82q-117 83 -163.5 226t-16.5 318z" />
    <glyph glyph-name="ij" unicode="&#x133;" horiz-adv-x="752" 
d="M114 0l160 1008h174l-160 -1008h-174zM124 -490l27 167q116 -4 201.5 61.5t102.5 170.5l174 1099h172l-174 -1099q-19 -111 -86 -201q-74 -95 -183.5 -148t-233.5 -50zM320 1338q6 37 38 64.5t71 27.5q40 0 65 -27.5t19 -64.5q-6 -39 -39 -66.5t-74 -27.5
q-39 0 -62.5 27.5t-17.5 66.5zM664 1338q6 37 38 64.5t71 27.5q40 0 65 -27.5t19 -64.5q-6 -39 -39 -66.5t-74 -27.5q-39 0 -62.5 27.5t-17.5 66.5z" />
    <glyph glyph-name="uni0136" unicode="&#x136;" horiz-adv-x="1168" 
d="M135 0l222 1400h174l-104 -657l678 657h228l-688 -663l456 -737h-222l-369 607l-124 -122l-77 -485h-174zM364 -453l141 311h177l-191 -311h-127z" />
    <glyph glyph-name="uni0137" unicode="&#x137;" horiz-adv-x="1076" 
d="M135 0l237 1498h174l-157 -992l519 502h226l-425 -411l266 -597h-198l-207 463l-222 -215l-39 -248h-174zM334 -453l141 311h177l-191 -311h-127z" />
    <glyph glyph-name="Lacute" unicode="&#x139;" horiz-adv-x="1181" 
d="M130 0l222 1400h174l-196 -1234h761l-26 -166h-935zM417 1674l140 311h176l-190 -311h-126z" />
    <glyph glyph-name="lacute" unicode="&#x13a;" horiz-adv-x="436" 
d="M134 0l237 1498h174l-237 -1498h-174zM401 1674l140 311h176l-190 -311h-126z" />
    <glyph glyph-name="uni013B" unicode="&#x13b;" horiz-adv-x="1190" 
d="M135 0l222 1400h174l-196 -1234h761l-26 -166h-935zM397 -453l141 311h177l-191 -311h-127z" />
    <glyph glyph-name="uni013C" unicode="&#x13c;" horiz-adv-x="477" 
d="M146 0l237 1498h174l-237 -1498h-174zM1 -453l141 311h177l-191 -311h-127z" />
    <glyph glyph-name="Lcaron" unicode="&#x13d;" horiz-adv-x="1181" 
d="M130 0l222 1400h174l-196 -1234h761l-26 -166h-935zM610 1980h174l101 -187l156 187h175l-266 -311h-172z" />
    <glyph glyph-name="lcaron" unicode="&#x13e;" horiz-adv-x="548" 
d="M315 0l237 1498h174l-237 -1498h-174zM420 1985h174l102 -187l155 187h175l-265 -311h-172z" />
    <glyph glyph-name="Lslash" unicode="&#x141;" horiz-adv-x="1223" 
d="M122 0l134 843l-214 -113l-51 122l290 153l63 395h174l-47 -295l202 107l51 -121l-279 -147l-123 -778h761l-26 -166h-935z" />
    <glyph glyph-name="lslash" unicode="&#x142;" horiz-adv-x="441" 
d="M122 0l134 843l-214 -113l-51 122l290 153l78 493h174l-62 -393l202 107l51 -121l-279 -147l-149 -944h-174z" />
    <glyph glyph-name="Nacute" unicode="&#x143;" horiz-adv-x="1351" 
d="M130 0l222 1400h179l560 -1091l173 1091h173l-222 -1400h-177l-561 1090l-173 -1090h-174zM836 1674l140 311h176l-190 -311h-126z" />
    <glyph glyph-name="nacute" unicode="&#x144;" horiz-adv-x="1148" 
d="M290 1008h174l-17 -108q67 64 155.5 100t180.5 36q120 0 209 -56q92 -55 134 -150t24 -209l-98 -621h-173l94 593q12 80 -15 141q-28 63 -88.5 98.5t-140.5 35.5q-81 0 -149 -37q-75 -38 -122.5 -100.5t-59.5 -137.5l-94 -593h-174zM651 1274l140 311h176l-190 -311h-126
z" />
    <glyph glyph-name="uni0145" unicode="&#x145;" horiz-adv-x="1361" 
d="M135 0l222 1400h179l560 -1091l173 1091h173l-222 -1400h-177l-561 1090l-173 -1090h-174zM449 -453l141 311h177l-191 -311h-127z" />
    <glyph glyph-name="uni0146" unicode="&#x146;" horiz-adv-x="1157" 
d="M295 1008h174l-17 -108q67 64 155.5 100t180.5 36q120 0 209 -56q92 -55 134 -150t24 -209l-98 -621h-173l94 593q12 80 -15 141q-28 63 -88.5 98.5t-140.5 35.5q-81 0 -149 -37q-75 -38 -122.5 -100.5t-59.5 -137.5l-94 -593h-174zM377 -453l141 311h177l-191 -311h-127
z" />
    <glyph glyph-name="Ncaron" unicode="&#x147;" horiz-adv-x="1351" 
d="M130 0l222 1400h179l560 -1091l173 1091h173l-222 -1400h-177l-561 1090l-173 -1090h-174zM683 1980h174l101 -187l156 187h175l-266 -311h-172z" />
    <glyph glyph-name="ncaron" unicode="&#x148;" horiz-adv-x="1148" 
d="M290 1008h174l-17 -108q67 64 155.5 100t180.5 36q120 0 209 -56q92 -55 134 -150t24 -209l-98 -621h-173l94 593q12 80 -15 141q-28 63 -88.5 98.5t-140.5 35.5q-81 0 -149 -37q-75 -38 -122.5 -100.5t-59.5 -137.5l-94 -593h-174zM549 1562h174l102 -187l155 187h175
l-265 -311h-172z" />
    <glyph glyph-name="Omacron" unicode="&#x14c;" horiz-adv-x="1617" 
d="M801 -30q-212 0 -360.5 93.5t-210 259.5t-28.5 377t147.5 377t292.5 259.5t390 93.5q159 0 284.5 -54.5t203 -151t107.5 -231.5t5 -293q-33 -211 -147.5 -377t-292.5 -259.5t-391 -93.5zM362 699q-40 -252 86.5 -409t376.5 -157q251 0 427.5 157t216.5 409
q39 252 -87.5 409t-377.5 157q-250 0 -426.5 -157t-215.5 -409zM712 1656l22 140h721l-22 -140h-721z" />
    <glyph glyph-name="omacron" unicode="&#x14d;" 
d="M587 -25q-233 0 -352.5 148t-82.5 381q37 234 203.5 382t399.5 148q232 0 351.5 -148t82.5 -382q-37 -233 -203.5 -381t-398.5 -148zM312 504q-26 -163 56 -265t245 -102q162 0 276 102t140 265q26 164 -56 265.5t-244 101.5q-163 0 -277 -101.5t-140 -265.5zM461 1254
l22 140h721l-22 -140h-721z" />
    <glyph glyph-name="Ohungarumlaut" unicode="&#x150;" horiz-adv-x="1617" 
d="M801 -30q-212 0 -360.5 93.5t-210 259.5t-28.5 377t147.5 377t292.5 259.5t390 93.5q159 0 284.5 -54.5t203 -151t107.5 -231.5t5 -293q-33 -211 -147.5 -377t-292.5 -259.5t-391 -93.5zM362 699q-40 -252 86.5 -409t376.5 -157q251 0 427.5 157t216.5 409
q39 252 -87.5 409t-377.5 157q-250 0 -426.5 -157t-215.5 -409zM836 1674l140 311h176l-190 -311h-126zM1110 1674l140 311h176l-190 -311h-126z" />
    <glyph glyph-name="ohungarumlaut" unicode="&#x151;" 
d="M587 -25q-233 0 -352.5 148t-82.5 381q37 234 203.5 382t399.5 148q232 0 351.5 -148t82.5 -382q-37 -233 -203.5 -381t-398.5 -148zM312 504q-26 -163 56 -265t245 -102q162 0 276 102t140 265q26 164 -56 265.5t-244 101.5q-163 0 -277 -101.5t-140 -265.5zM559 1273
l140 311h176l-190 -311h-126zM833 1273l140 311h176l-190 -311h-126z" />
    <glyph glyph-name="OE" unicode="&#x152;" horiz-adv-x="2436" 
d="M801 -30q-212 0 -360.5 93.5t-210 259.5t-28.5 377t147.5 377t292.5 259.5t390 93.5q187 0 324.5 -73t211.5 -204l39 247h935l-27 -166h-761l-66 -418h636l-26 -167h-636l-77 -483h761l-26 -166h-935l39 247q-115 -131 -275.5 -204t-347.5 -73zM362 699
q-40 -252 86.5 -409t376.5 -157q251 0 427.5 157t216.5 409q39 252 -87.5 409t-377.5 157q-250 0 -426.5 -157t-215.5 -409z" />
    <glyph glyph-name="oe" unicode="&#x153;" horiz-adv-x="2082" 
d="M590 -25q-233 0 -352.5 148t-82.5 381q37 234 203.5 382t399.5 148q149 0 255 -64.5t153 -178.5q83 114 209 178.5t277 64.5q232 0 351.5 -148t82.5 -382l-11 -66h-872q-2 -137 80 -219t227 -82q113 0 205 52t149 144l153 -36q-77 -149 -218 -235.5t-315 -86.5
q-151 0 -256.5 64.5t-152.5 178.5q-84 -115 -209.5 -179t-275.5 -64zM315 504q-26 -163 56 -265t245 -102q162 0 276 102t140 265q26 164 -56 265.5t-244 101.5q-163 0 -277 -101.5t-140 -265.5zM1226 578h706q-1 134 -82.5 213.5t-223.5 79.5q-143 0 -250.5 -79.5
t-149.5 -213.5z" />
    <glyph glyph-name="Racute" unicode="&#x154;" horiz-adv-x="1217" 
d="M130 0l222 1400h526q87 0 159 -26.5t125 -78t75 -137t6 -193.5q-29 -176 -134 -283t-251 -140l243 -542h-201l-237 530h-275l-84 -530h-174zM412 679l340 2q42 0 81.5 8.5t80.5 29.5t73.5 52.5t57 81t34.5 112.5q13 78 -3 135.5t-53.5 88t-82.5 45t-98 14.5h-340z
M727 1674l140 311h176l-190 -311h-126z" />
    <glyph glyph-name="racute" unicode="&#x155;" horiz-adv-x="791" 
d="M130 0l160 1008h174l-17 -108q67 64 155 100t181 36q70 0 133 -20l-97 -163q-48 15 -90 15q-81 0 -149 -37q-74 -38 -122 -100t-60 -138l-94 -593h-174zM556 1257l140 311h176l-190 -311h-126z" />
    <glyph glyph-name="uni0156" unicode="&#x156;" horiz-adv-x="1227" 
d="M135 0l222 1400h526q87 0 159 -26.5t125 -78t75 -137t6 -193.5q-29 -176 -134 -283t-251 -140l243 -542h-201l-237 530h-275l-84 -530h-174zM391 -453l141 311h177l-191 -311h-127zM417 679l340 2q42 0 81.5 8.5t80.5 29.5t73.5 52.5t57 81t34.5 112.5q13 78 -3 135.5
t-53.5 88t-82.5 45t-98 14.5h-340z" />
    <glyph glyph-name="uni0157" unicode="&#x157;" horiz-adv-x="808" 
d="M146 0l160 1008h174l-17 -108q67 64 155 100t181 36q70 0 133 -20l-97 -163q-48 15 -90 15q-81 0 -149 -37q-74 -38 -122 -100t-60 -138l-94 -593h-174zM3 -453l141 311h177l-191 -311h-127z" />
    <glyph glyph-name="Rcaron" unicode="&#x158;" horiz-adv-x="1217" 
d="M130 0l222 1400h526q87 0 159 -26.5t125 -78t75 -137t6 -193.5q-29 -176 -134 -283t-251 -140l243 -542h-201l-237 530h-275l-84 -530h-174zM412 679l340 2q42 0 81.5 8.5t80.5 29.5t73.5 52.5t57 81t34.5 112.5q13 78 -3 135.5t-53.5 88t-82.5 45t-98 14.5h-340z
M595 1995h174l101 -187l156 187h175l-265 -311h-172z" />
    <glyph glyph-name="rcaron" unicode="&#x159;" horiz-adv-x="796" 
d="M135 0l160 1008h174l-17 -108q67 64 155 100t181 36q70 0 133 -20l-97 -163q-48 15 -90 15q-81 0 -149 -37q-74 -38 -122 -100t-60 -138l-94 -593h-174zM365 1571h174l101 -187l156 187h175l-265 -311h-172z" />
    <glyph glyph-name="Sacute" unicode="&#x15a;" horiz-adv-x="1306" 
d="M645 -25q-117 0 -221 35q-111 38 -182.5 108t-86.5 164l170 58q10 -88 108 -143.5t238 -55.5q91 0 184 30q90 32 145.5 84.5t66.5 122.5t-32 116q-75 82 -291 120q-143 24 -254 67q-246 95 -208 336q19 123 108 216q88 89 216 138.5t268 49.5q191 0 329 -84.5t163 -225.5
l-173 -57q-10 89 -108 144t-238 55q-88 1 -181 -29q-90 -32 -145.5 -84.5t-66.5 -122.5q-13 -81 25 -124q35 -42 104 -64.5t192 -45.5q123 -19 248 -70q117 -52 175.5 -136t40.5 -199q-20 -123 -108 -214q-88 -90 -216.5 -139.5t-269.5 -49.5zM767 1674l140 311h176
l-190 -311h-126z" />
    <glyph glyph-name="sacute" unicode="&#x15b;" horiz-adv-x="945" 
d="M486 138q85 0 163.5 37.5t90.5 109.5q5 30 -3.5 52.5t-27.5 36.5t-44 23.5t-55 16.5t-59 12q-16 3 -24 4h1q-88 14 -183 50q-183 71 -154 253q15 93 82 163q65 66 159 103t196 37q146 0 250 -68t114 -180l-153 -52q-7 64 -71 104t-165 40q-85 0 -163.5 -37.5
t-90.5 -109.5q-5 -30 4.5 -52.5t26.5 -36.5t45 -24t54 -16t60 -12q15 -3 23 -4q88 -14 178 -51q87 -39 130.5 -102.5t29.5 -150.5q-16 -95 -82 -161q-65 -67 -159.5 -104t-197.5 -37h-1q-146 0 -250 68t-114 180l154 52q6 -64 70 -104t165 -40h1zM570 1268l140 311h176
l-190 -311h-126z" />
    <glyph glyph-name="Scedilla" unicode="&#x15e;" horiz-adv-x="1306" 
d="M592 -359q-77 -20 -136.5 20.5t-61.5 114.5l123 29q-2 -29 16 -43t46 -7q26 7 40 25t10 40q-8 48 -64 37l-130 -17l107 142q-64 10 -118 28q-111 38 -182.5 108t-86.5 164l170 58q10 -88 108 -143.5t238 -55.5q91 0 184 30q90 32 145.5 84.5t66.5 122.5t-32 116
q-75 82 -291 120q-143 24 -254 67q-246 95 -208 336q19 123 108 216q88 89 216 138.5t268 49.5q191 0 329 -84.5t163 -225.5l-173 -57q-10 89 -108 144t-238 55q-88 1 -181 -29q-90 -32 -145.5 -84.5t-66.5 -122.5q-13 -81 25 -124q35 -42 104 -64.5t192 -45.5
q123 -19 248 -70q117 -52 175.5 -136t40.5 -199q-20 -123 -108 -214q-83 -85 -202 -134t-252 -54l-10 -14q76 -32 84 -112q9 -68 -37.5 -129t-121.5 -80z" />
    <glyph glyph-name="scedilla" unicode="&#x15f;" horiz-adv-x="945" 
d="M486 138q85 0 163.5 37.5t90.5 109.5q5 30 -3.5 52.5t-27.5 36.5t-44 23.5t-55 16.5t-59 12q-16 3 -24 4h1q-88 14 -183 50q-183 71 -154 253q15 93 82 163q65 66 159 103t196 37q146 0 250 -68t114 -180l-153 -52q-7 64 -71 104t-165 40q-85 0 -163.5 -37.5
t-90.5 -109.5q-5 -30 4.5 -52.5t26.5 -36.5t45 -24t54 -16t60 -12q15 -3 23 -4q88 -14 178 -51q87 -39 130.5 -102.5t29.5 -150.5q-16 -95 -82 -161q-95 -100 -249 -130l-23 -31q76 -32 84 -112q9 -68 -37.5 -129t-121.5 -80q-77 -20 -136.5 20.5t-61.5 114.5l123 29
q-2 -29 16 -43t46 -7q26 7 40 25t10 40q-8 48 -64 37l-130 -17l108 143q-133 9 -225 76t-101 171l154 52q6 -64 70 -104t165 -40h1z" />
    <glyph glyph-name="Scaron" unicode="&#x160;" horiz-adv-x="1306" 
d="M645 -25q-117 0 -221 35q-111 38 -182.5 108t-86.5 164l170 58q10 -88 108 -143.5t238 -55.5q91 0 184 30q90 32 145.5 84.5t66.5 122.5t-32 116q-75 82 -291 120q-143 24 -254 67q-246 95 -208 336q19 123 108 216q88 89 216 138.5t268 49.5q191 0 329 -84.5t163 -225.5
l-173 -57q-10 89 -108 144t-238 55q-88 1 -181 -29q-90 -32 -145.5 -84.5t-66.5 -122.5q-13 -81 25 -124q35 -42 104 -64.5t192 -45.5q123 -19 248 -70q117 -52 175.5 -136t40.5 -199q-20 -123 -108 -214q-88 -90 -216.5 -139.5t-269.5 -49.5zM674 1984h174l102 -187
l155 187h175l-265 -311h-172z" />
    <glyph glyph-name="scaron" unicode="&#x161;" horiz-adv-x="945" 
d="M486 138q85 0 163.5 37.5t90.5 109.5q5 30 -3.5 52.5t-27.5 36.5t-44 23.5t-55 16.5t-59 12q-16 3 -24 4h1q-88 14 -183 50q-183 71 -154 253q15 93 82 163q65 66 159 103t196 37q146 0 250 -68t114 -180l-153 -52q-7 64 -71 104t-165 40q-85 0 -163.5 -37.5
t-90.5 -109.5q-5 -30 4.5 -52.5t26.5 -36.5t45 -24t54 -16t60 -12q15 -3 23 -4q88 -14 178 -51q87 -39 130.5 -102.5t29.5 -150.5q-16 -95 -82 -161q-65 -67 -159.5 -104t-197.5 -37h-1q-146 0 -250 68t-114 180l154 52q6 -64 70 -104t165 -40h1zM430 1585h174l101 -187
l156 187h175l-265 -311h-172z" />
    <glyph glyph-name="uni0162" unicode="&#x162;" horiz-adv-x="1349" 
d="M585 0l195 1234h-490l27 166h1154l-27 -166h-491l-189 -1199l9 -5l-13 -17l-2 -13h-8l-29 -38q76 -32 84 -112q9 -68 -37.5 -129t-121.5 -80q-77 -20 -136.5 20.5t-61.5 114.5l123 29q-2 -29 16 -43t46 -7q26 7 40 25t10 40q-8 48 -64 37l-130 -17l120 160h-24z" />
    <glyph glyph-name="uni0163" unicode="&#x163;" horiz-adv-x="771" 
d="M505 -361q-77 -20 -136.5 20.5t-62.5 114.5l124 29q-2 -29 15.5 -43t46.5 -7q25 7 39 25t11 40q-8 48 -64 37l-131 -17l128 169q-86 25 -131 96.5t-31 164.5l91 574h-185l27 166h185l47 308h173l-48 -308h245l-27 -166h-245l-91 -574q-9 -57 34.5 -83t100 -22t99.5 24
l-26 -159q-40 -19 -82 -26l-31 -42q75 -32 84 -112q9 -68 -37.5 -129t-121.5 -80z" />
    <glyph glyph-name="Tcaron" unicode="&#x164;" horiz-adv-x="1400" 
d="M640 0l195 1234h-490l27 166h1154l-27 -166h-491l-195 -1234h-173zM730 2015h174l102 -187l155 187h175l-265 -311h-172z" />
    <glyph glyph-name="tcaron" unicode="&#x165;" horiz-adv-x="658" 
d="M554 -4q-119 0 -189 79t-52 193l91 574h-185l27 166h185l47 308h173l-48 -308h245l-27 -166h-245l-91 -574q-9 -57 34.5 -83t100 -22t99.5 24l-26 -159q-69 -32 -139 -32zM338 1674h174l102 -187l155 187h175l-265 -311h-172z" />
    <glyph glyph-name="Utilde" unicode="&#x168;" horiz-adv-x="1408" 
d="M697 -25q-178 0 -291 82q-115 81 -162.5 220.5t-20.5 308.5l129 814h174l-129 -814q-32 -200 55 -322.5t271 -122.5q130 0 228 61t159.5 161t81.5 223l129 814h173l-129 -814q-28 -173 -119 -311t-234.5 -219t-314.5 -81zM664 1711q-15 68 11 129q25 56 77 90.5t116 34.5
q9 0 19 -1.5t18 -3t19 -6t18 -7t19.5 -9t18 -9.5t19 -11t17.5 -10.5t18.5 -11.5t17.5 -11q86 -62 125 -62q28 0 42 33.5t-4 56.5l135 38q19 -68 -11 -131q-26 -56 -78.5 -90.5t-117.5 -34.5q-26 0 -59.5 14t-52 26t-56.5 39q-35 24 -53 35.5t-42 20.5t-40 6
q-26 -6 -40.5 -31t-3.5 -60z" />
    <glyph glyph-name="utilde" unicode="&#x169;" horiz-adv-x="1109" 
d="M520 -25q-120 0 -208 55q-92 56 -135 151t-24 209l98 618h173l-94 -591q-12 -77 17 -138q31 -64 90 -100.5t137 -36.5q123 0 217 78.5t113 196.5l94 591h174l-159 -1008h-174l17 111q-67 -64 -154.5 -100t-181.5 -36zM422 1302q-16 68 12 129q24 56 76 90.5t116 34.5
q29 0 65.5 -14.5t55.5 -26t63 -39.5q86 -62 125 -62q28 0 42 33.5t-4 56.5l135 38q19 -68 -11 -131q-26 -56 -78 -90.5t-117 -34.5q-26 0 -59.5 14t-53 26.5t-56.5 38.5q-35 24 -53 35.5t-42 20.5t-40 6q-26 -6 -40 -31t-3 -60z" />
    <glyph glyph-name="Umacron" unicode="&#x16a;" horiz-adv-x="1408" 
d="M697 -25q-178 0 -291 82q-115 81 -162.5 220.5t-20.5 308.5l129 814h174l-129 -814q-32 -200 55 -322.5t271 -122.5q130 0 228 61t159.5 161t81.5 223l129 814h173l-129 -814q-28 -173 -119 -311t-234.5 -219t-314.5 -81zM605 1673l22 140h721l-22 -140h-721z" />
    <glyph glyph-name="umacron" unicode="&#x16b;" horiz-adv-x="1109" 
d="M520 -25q-120 0 -208 55q-92 56 -135 151t-24 209l98 618h173l-94 -591q-12 -77 17 -138q31 -64 90 -100.5t137 -36.5q123 0 217 78.5t113 196.5l94 591h174l-159 -1008h-174l17 111q-67 -64 -154.5 -100t-181.5 -36zM420 1302l22 140h721l-22 -140h-721z" />
    <glyph glyph-name="Uring" unicode="&#x16e;" horiz-adv-x="1408" 
d="M697 -25q-178 0 -291 82q-115 81 -162.5 220.5t-20.5 308.5l129 814h174l-129 -814q-32 -200 55 -322.5t271 -122.5q130 0 228 61t159.5 161t81.5 223l129 814h173l-129 -814q-28 -173 -119 -311t-234.5 -219t-314.5 -81zM829 1831q11 70 70.5 119.5t133.5 49.5
q73 0 117.5 -49.5t33.5 -119.5q-11 -71 -71.5 -121.5t-133.5 -50.5t-117 51t-33 121zM940 1831q-5 -29 11 -47.5t45 -18.5q30 0 51.5 18.5t26.5 47.5q5 26 -11.5 43.5t-46.5 17.5q-29 0 -50 -17t-26 -44z" />
    <glyph glyph-name="uring" unicode="&#x16f;" horiz-adv-x="1109" 
d="M520 -25q-120 0 -208 55q-92 56 -135 151t-24 209l98 618h173l-94 -591q-12 -77 17 -138q31 -64 90 -100.5t137 -36.5q123 0 217 78.5t113 196.5l94 591h174l-159 -1008h-174l17 111q-67 -64 -154.5 -100t-181.5 -36zM593 1424q10 70 69.5 119.5t133.5 49.5
q73 0 117.5 -49.5t34.5 -119.5q-12 -71 -72.5 -121.5t-133.5 -50.5t-116.5 51t-32.5 121zM704 1424q-5 -29 10.5 -47.5t44.5 -18.5q30 0 52 18.5t27 47.5q4 26 -12.5 43.5t-46.5 17.5q-29 0 -50 -17t-25 -44z" />
    <glyph glyph-name="Uhungarumlaut" unicode="&#x170;" horiz-adv-x="1408" 
d="M697 -25q-178 0 -291 82q-115 81 -162.5 220.5t-20.5 308.5l129 814h174l-129 -814q-32 -200 55 -322.5t271 -122.5q130 0 228 61t159.5 161t81.5 223l129 814h173l-129 -814q-28 -173 -119 -311t-234.5 -219t-314.5 -81zM746 1674l140 311h176l-190 -311h-126z
M1020 1674l140 311h176l-190 -311h-126z" />
    <glyph glyph-name="uhungarumlaut" unicode="&#x171;" horiz-adv-x="1109" 
d="M520 -25q-120 0 -208 55q-92 56 -135 151t-24 209l98 618h173l-94 -591q-12 -77 17 -138q31 -64 90 -100.5t137 -36.5q123 0 217 78.5t113 196.5l94 591h174l-159 -1008h-174l17 111q-67 -64 -154.5 -100t-181.5 -36zM496 1285l140 311h176l-190 -311h-126zM770 1285
l140 311h176l-190 -311h-126z" />
    <glyph glyph-name="Uogonek" unicode="&#x172;" horiz-adv-x="1408" 
d="M625 -417q-86 1 -133 58.5t-35 135.5q13 80 80 137l79 66q-125 15 -210 77q-115 81 -162.5 220.5t-20.5 308.5l129 814h174l-129 -814q-32 -200 55 -322.5t271 -122.5q130 0 228 61t159.5 161t81.5 223l129 814h173l-129 -814q-36 -230 -184 -394.5t-361 -205.5l-52 -43
q-112 -93 -123 -104q-41 -37 -45 -66q-4 -24 9 -40t42 -18q41 0 73 28t33 72h134q-10 -98 -87.5 -165t-178.5 -67z" />
    <glyph glyph-name="uogonek" unicode="&#x173;" horiz-adv-x="1131" 
d="M520 -25q-120 0 -208 55q-92 56 -135 151t-24 209l98 618h173l-94 -591q-12 -77 17 -138q31 -64 90 -100.5t137 -36.5q123 0 217 78.5t113 196.5l94 591h174l-155 -981l10 -12l-14 -12v-3h-3q-8 -7 -23 -19t-22 -18q-112 -93 -123 -104q-39 -36 -45 -66q-4 -24 9.5 -40
t41.5 -18q41 0 73 28t33 72h134q-10 -98 -87.5 -165t-178.5 -67q-86 1 -133 58.5t-35 135.5q13 80 81 137l108 90l13 87q-67 -64 -154.5 -100t-181.5 -36z" />
    <glyph glyph-name="Wcircumflex" unicode="&#x174;" horiz-adv-x="1793" 
d="M435 0l-153 1400h179l118 -1092l463 1092h150l118 -1094l464 1094h178l-594 -1400h-194l-109 1010l-429 -1010h-191zM865 1674l266 311h171l170 -311h-174l-101 188l-159 -188h-173z" />
    <glyph glyph-name="wcircumflex" unicode="&#x175;" horiz-adv-x="1729" 
d="M424 0l-192 1008h171l146 -759l387 759h173l144 -759l388 759h172l-514 -1008h-169l-148 768l-389 -768h-169zM765 1275l266 311h171l170 -311h-174l-101 188l-159 -188h-173z" />
    <glyph glyph-name="Ycircumflex" unicode="&#x176;" horiz-adv-x="1308" 
d="M565 0l100 631l-371 769h203l283 -587l471 587h203l-617 -769l-100 -631h-172zM633 1674l266 311h171l170 -311h-174l-101 188l-159 -188h-173z" />
    <glyph glyph-name="ycircumflex" unicode="&#x177;" horiz-adv-x="1123" 
d="M194 -490l272 505l-215 993h188l151 -762l415 762h182l-809 -1498h-184zM467 1274l266 311h171l170 -311h-174l-101 188l-159 -188h-173z" />
    <glyph glyph-name="Ydieresis" unicode="&#x178;" horiz-adv-x="1308" 
d="M565 0l100 631l-371 769h203l283 -587l471 587h203l-617 -769l-100 -631h-172zM674 1738q7 39 40.5 66.5t73.5 27.5t64 -27.5t18 -66.5t-38 -65.5t-73 -26.5q-40 0 -65.5 26.5t-19.5 65.5zM997 1738q6 39 39 66.5t74 27.5q40 0 64.5 -28t18.5 -66q-6 -39 -39 -65.5
t-73 -26.5q-41 0 -65.5 26t-18.5 66z" />
    <glyph glyph-name="Zacute" unicode="&#x179;" horiz-adv-x="1374" 
d="M91 0l25 158l1120 1076h-950l27 166h1187l-25 -158l-1120 -1076h949l-26 -166h-1187zM821 1674l140 311h176l-190 -311h-126z" />
    <glyph glyph-name="zacute" unicode="&#x17a;" horiz-adv-x="1090" 
d="M91 0l25 158l760 684h-652l27 166h903l-25 -157l-760 -685h651l-26 -166h-903zM600 1263l140 311h176l-190 -311h-126z" />
    <glyph glyph-name="Zdotaccent" unicode="&#x17b;" horiz-adv-x="1374" 
d="M91 0l25 158l1120 1076h-950l27 166h1187l-25 -158l-1120 -1076h949l-26 -166h-1187zM850 1700q7 39 39.5 65.5t73.5 26.5q40 0 64 -26.5t17 -65.5q-6 -39 -37.5 -65.5t-72.5 -26.5t-65.5 26.5t-18.5 65.5z" />
    <glyph glyph-name="zdotaccent" unicode="&#x17c;" horiz-adv-x="1090" 
d="M91 0l25 158l760 684h-652l27 166h903l-25 -157l-760 -685h651l-26 -166h-903zM649 1386q6 39 38.5 65.5t73.5 26.5q40 0 64 -26.5t18 -65.5q-7 -39 -38.5 -65.5t-72.5 -26.5t-65.5 26.5t-17.5 65.5z" />
    <glyph glyph-name="Zcaron" unicode="&#x17d;" horiz-adv-x="1374" 
d="M91 0l25 158l1120 1076h-950l27 166h1187l-25 -158l-1120 -1076h949l-26 -166h-1187zM710 1968h174l101 -187l156 187h175l-266 -311h-172z" />
    <glyph glyph-name="zcaron" unicode="&#x17e;" horiz-adv-x="1090" 
d="M91 0l25 158l760 684h-652l27 166h903l-25 -157l-760 -685h651l-26 -166h-903zM511 1604h174l101 -187l156 187h175l-265 -311h-172z" />
    <glyph glyph-name="uni018F" unicode="&#x18f;" horiz-adv-x="1629" 
d="M1035 1394q202 0 342 -87.5t197.5 -243.5t25.5 -357q-32 -202 -138.5 -358t-274.5 -243.5t-370 -87.5t-341.5 87.5t-197.5 243.5t-26 358l9 61h1187q14 210 -104 338.5t-335 128.5q-155 0 -283 -69.5t-211 -192.5l-155 36q104 181 280 283.5t395 102.5zM403 635
q-11 -206 107 -331.5t332 -125.5t373 125.5t214 331.5h-1026z" />
    <glyph glyph-name="uni0218" unicode="&#x218;" horiz-adv-x="1316" 
d="M650 -25q-117 0 -221 35q-111 38 -182.5 108t-86.5 164l170 58q10 -88 108 -143.5t238 -55.5q91 0 184 30q90 32 145.5 84.5t66.5 122.5t-32 116q-75 82 -291 120q-143 24 -254 67q-246 95 -208 336q19 123 108 216q88 89 216 138.5t268 49.5q191 0 329 -84.5t163 -225.5
l-173 -57q-10 89 -108 144t-238 55q-88 1 -181 -29q-90 -32 -145.5 -84.5t-66.5 -122.5q-13 -81 25 -124q35 -42 104 -64.5t192 -45.5q123 -19 248 -70q117 -52 175.5 -136t40.5 -199q-20 -123 -108 -214q-88 -90 -216.5 -139.5t-269.5 -49.5zM449 -453l141 311h177
l-191 -311h-127z" />
    <glyph glyph-name="uni0219" unicode="&#x219;" horiz-adv-x="949" 
d="M488 138q85 0 163.5 37.5t90.5 109.5q5 30 -3.5 52.5t-27.5 36.5t-44 23.5t-55 16.5t-59 12q-16 3 -24 4h1q-88 14 -183 50q-183 71 -154 253q15 93 82 163q65 66 159 103t196 37q146 0 250 -68t114 -180l-153 -52q-7 64 -71 104t-165 40q-85 0 -163.5 -37.5
t-90.5 -109.5q-5 -30 4.5 -52.5t26.5 -36.5t45 -24t54 -16t60 -12q15 -3 23 -4q88 -14 178 -51q87 -39 130.5 -102.5t29.5 -150.5q-16 -95 -82 -161q-65 -67 -159.5 -104t-197.5 -37h-1q-146 0 -250 68t-114 180l154 52q6 -64 70 -104t165 -40h1zM269 -453l141 311h177
l-191 -311h-127z" />
    <glyph glyph-name="uni021A" unicode="&#x21a;" horiz-adv-x="1349" 
d="M585 0l195 1234h-490l27 166h1154l-27 -166h-491l-195 -1234h-173zM449 -453l141 311h177l-191 -311h-127z" />
    <glyph glyph-name="uni021B" unicode="&#x21b;" horiz-adv-x="766" 
d="M554 -4q-119 0 -189 79t-52 193l91 574h-185l27 166h185l47 308h173l-48 -308h245l-27 -166h-245l-91 -574q-9 -57 34.5 -83t100 -22t99.5 24l-26 -159q-69 -32 -139 -32zM294 -453l141 311h177l-191 -311h-127z" />
    <glyph glyph-name="uni0237" unicode="&#x237;" horiz-adv-x="512" 
d="M-120 -323q116 -4 201.5 61.5t102.5 170.5l174 1099h172l-174 -1099q-18 -111 -86 -201q-74 -95 -183.5 -148t-233.5 -50z" />
    <glyph glyph-name="uni0259" unicode="&#x259;" horiz-adv-x="1196" 
d="M732 1030q233 0 352.5 -148t82.5 -381q-37 -234 -203.5 -382t-399.5 -148q-232 0 -351.5 148t-82.5 382l11 66h872q2 137 -80 219t-227 82q-113 0 -204.5 -52t-149.5 -144l-153 36q77 149 218 235.5t315 86.5zM285 427q0 -134 81.5 -213.5t223.5 -79.5q143 0 250.5 79.5
t150.5 213.5h-706z" />
    <glyph glyph-name="circumflex" unicode="&#x2c6;" horiz-adv-x="666" 
d="M389 2274l266 311h171l170 -311h-174l-101 188l-159 -188h-173z" />
    <glyph glyph-name="caron" unicode="&#x2c7;" horiz-adv-x="629" 
d="M494 1674l-169 311h174l102 -187l155 187h175l-265 -311h-172z" />
    <glyph glyph-name="breve" unicode="&#x2d8;" horiz-adv-x="1219" 
d="M871 1653q-100 0 -170 46q-78 48 -112.5 130t-15.5 178h131q-21 -96 34.5 -161.5t152.5 -65.5q99 0 174 65t85 162h131q-12 -100 -78 -187q-62 -78 -149.5 -122.5t-182.5 -44.5z" />
    <glyph glyph-name="dotaccent" unicode="&#x2d9;" horiz-adv-x="1025" 
d="M883 2338q-41 0 -65.5 26.5t-17.5 65.5q6 39 38.5 65.5t73.5 26.5q40 0 64 -26.5t18 -65.5t-38 -65.5t-73 -26.5z" />
    <glyph glyph-name="ring" unicode="&#x2da;" horiz-adv-x="1186" 
d="M950 2259q-73 0 -117 51t-33 121t70.5 119.5t133.5 49.5q73 0 117.5 -49.5t33.5 -119.5q-11 -71 -71.5 -121.5t-133.5 -50.5zM911 2431q-5 -29 11 -47.5t45 -18.5q30 0 51.5 18.5t26.5 47.5q5 26 -11.5 43.5t-46.5 17.5q-29 0 -50 -17t-26 -44z" />
    <glyph glyph-name="ogonek" unicode="&#x2db;" horiz-adv-x="1059" 
d="M451 -397q-86 1 -133 58.5t-35 135.5q13 80 81 137l209 175l83 -94q-24 -22 -62 -52q-112 -93 -123 -104q-39 -36 -45 -66q-4 -24 9.5 -40t41.5 -18q41 0 73 28t33 72h134q-10 -98 -87.5 -165t-178.5 -67z" />
    <glyph glyph-name="tilde" unicode="&#x2dc;" horiz-adv-x="1256" 
d="M1151 2307q-26 0 -59.5 14t-52 26t-56.5 39q-35 24 -53 35.5t-42 20.5t-40 6q-26 -6 -40.5 -31t-3.5 -60l-132 -34q-15 68 11 129q25 56 77 90.5t116 34.5q29 0 65.5 -15t54.5 -25.5t63 -39.5q88 -62 126 -62q28 0 42 33.5t-4 56.5l135 38q19 -68 -11 -131
q-26 -56 -78.5 -90.5t-117.5 -34.5z" />
    <glyph glyph-name="hungarumlaut" unicode="&#x2dd;" horiz-adv-x="959" 
d="M836 2274l140 311h176l-190 -311h-126zM562 2274l140 311h176l-190 -311h-126z" />
    <glyph glyph-name="gravecomb" unicode="&#x300;" horiz-adv-x="0" 
d="M663 1674l-94 311h176l42 -311h-124z" />
    <glyph glyph-name="acutecomb" unicode="&#x301;" horiz-adv-x="0" 
d="M573 1674l140 311h176l-190 -311h-126z" />
    <glyph glyph-name="uni0302" unicode="&#x302;" horiz-adv-x="0" 
d="M294 1674l266 311h171l170 -311h-174l-101 188l-159 -188h-173z" />
    <glyph glyph-name="tildecomb" unicode="&#x303;" horiz-adv-x="0" 
d="M1081 1695q-26 0 -59.5 14t-52 26t-56.5 39q-35 24 -53 35.5t-42 20.5t-40 6q-26 -6 -40.5 -31t-3.5 -60l-132 -34q-15 68 11 129q25 56 77 90.5t116 34.5q9 0 19 -1.5t18 -3t19 -6t18 -7t19.5 -9t18 -9.5t19 -11t17.5 -10.5t18.5 -11.5t17.5 -11q86 -62 125 -62
q28 0 42 33.5t-4 56.5l135 38q19 -68 -11 -131q-26 -56 -78.5 -90.5t-117.5 -34.5z" />
    <glyph glyph-name="uni0304" unicode="&#x304;" horiz-adv-x="0" 
d="M653 2333l22 140h721l-22 -140h-721z" />
    <glyph glyph-name="uni0306" unicode="&#x306;" horiz-adv-x="0" 
d="M971 2253q-100 0 -170 46q-78 48 -112.5 130t-15.5 178h131q-21 -96 34.5 -161.5t152.5 -65.5q99 0 174 65t85 162h131q-12 -100 -78 -187q-62 -78 -149.5 -122.5t-182.5 -44.5z" />
    <glyph glyph-name="uni0307" unicode="&#x307;" horiz-adv-x="0" 
d="M806 1738q-41 0 -65.5 26.5t-17.5 65.5q6 39 38.5 65.5t73.5 26.5q40 0 64 -26.5t18 -65.5t-38 -65.5t-73 -26.5z" />
    <glyph glyph-name="uni0308" unicode="&#x308;" horiz-adv-x="0" 
d="M1115 1646q-41 0 -65.5 26t-18.5 66q6 39 39 66.5t74 27.5q40 0 64.5 -28t18.5 -66q-6 -39 -39 -65.5t-73 -26.5zM708 1738q7 39 40.5 66.5t73.5 27.5t64 -27.5t18 -66.5t-38 -65.5t-73 -26.5q-40 0 -65.5 26.5t-19.5 65.5z" />
    <glyph glyph-name="uni030A" unicode="&#x30a;" horiz-adv-x="0" 
d="M873 1659q-73 0 -117 51t-33 121t70.5 119.5t133.5 49.5q73 0 117.5 -49.5t33.5 -119.5q-11 -71 -71.5 -121.5t-133.5 -50.5zM834 1831q-5 -29 11 -47.5t45 -18.5q30 0 51.5 18.5t26.5 47.5q5 26 -11.5 43.5t-46.5 17.5q-29 0 -50 -17t-26 -44z" />
    <glyph glyph-name="uni030B" unicode="&#x30b;" horiz-adv-x="0" 
d="M754 1674l140 311h176l-190 -311h-126zM480 1674l140 311h176l-190 -311h-126z" />
    <glyph glyph-name="uni030C" unicode="&#x30c;" horiz-adv-x="0" 
d="M589 2274l-169 311h174l102 -187l155 187h175l-265 -311h-172z" />
    <glyph glyph-name="dotbelowcomb" unicode="&#x323;" horiz-adv-x="0" 
d="M540 169q-41 0 -65.5 26.5t-18.5 65.5q7 39 39.5 65.5t73.5 26.5q40 0 64 -26.5t17 -65.5q-6 -39 -37.5 -65.5t-72.5 -26.5z" />
    <glyph glyph-name="uni0326" unicode="&#x326;" horiz-adv-x="0" 
d="M449 -453l141 311h177l-191 -311h-127z" />
    <glyph glyph-name="uni0327" unicode="&#x327;" horiz-adv-x="0" 
d="M597 -359q-77 -20 -136.5 20.5t-61.5 114.5l123 29q-2 -29 16 -43t46 -7q26 7 40 25t10 40q-8 48 -64 37l-130 -17l187 248l97 -58l-52 -68q76 -32 84 -112q9 -68 -37.5 -129t-121.5 -80z" />
    <glyph glyph-name="uni0328" unicode="&#x328;" horiz-adv-x="0" 
d="M457 -397q-86 1 -133 58.5t-35 135.5q13 80 81 137l209 175l83 -94q-24 -22 -62 -52q-112 -93 -123 -104q-39 -36 -45 -66q-4 -24 9.5 -40t41.5 -18q41 0 73 28t33 72h134q-10 -98 -87.5 -165t-178.5 -67z" />
    <glyph glyph-name="uni03BC" unicode="&#x3bc;" horiz-adv-x="1138" 
d="M28 -423l227 1431h173l-85 -535q-16 -97 14 -169q30 -78 92 -122.5t146 -44.5q83 0 159 45q75 46 125.5 122.5t65.5 168.5l85 535h172l-160 -1008h-172l21 134q-152 -160 -340 -160q-86 0 -154 36t-112 98l-84 -531h-173z" />
    <glyph glyph-name="uni1E20" unicode="&#x1e20;" horiz-adv-x="1510" 
d="M805 -30q-212 0 -360.5 93.5t-210 259.5t-28.5 377t147.5 377t292.5 259.5t390 93.5q197 0 339.5 -81t213.5 -227l-163 -76q-58 105 -164 162t-254 57q-250 0 -426.5 -157t-215.5 -409q-40 -252 86.5 -409t376.5 -157q265 0 451 180l53 335h-551l26 167h723l-87 -548
q-114 -140 -280 -218.5t-359 -78.5zM657 1664l22 140h721l-22 -140h-721z" />
    <glyph glyph-name="uni1E21" unicode="&#x1e21;" horiz-adv-x="1266" 
d="M1120 -32q-15 -95 -73.5 -182t-141 -149.5t-184.5 -99.5t-203 -37q-105 0 -204 48q-98 50 -161.5 134t-76.5 183l171 70q5 -115 91 -191t206 -76q148 0 266.5 89.5t137.5 210.5l22 139q-162 -132 -380 -132q-233 0 -352.5 148t-82.5 381q37 234 203.5 382t399.5 148
q216 0 338 -132l17 106h172zM315 504q-26 -163 56 -265t245 -102q162 0 276 102t140 265q26 164 -56 265.5t-244 101.5q-163 0 -277 -101.5t-140 -265.5zM450 1286l22 140h721l-22 -140h-721z" />
    <glyph glyph-name="Wgrave" unicode="&#x1e80;" horiz-adv-x="1793" 
d="M435 0l-153 1400h179l118 -1092l463 1092h150l118 -1094l464 1094h178l-594 -1400h-194l-109 1010l-429 -1010h-191zM1034 1985h176l42 -311h-124z" />
    <glyph glyph-name="wgrave" unicode="&#x1e81;" horiz-adv-x="1729" 
d="M424 0l-192 1008h171l146 -759l387 759h173l144 -759l388 759h172l-514 -1008h-169l-148 768l-389 -768h-169zM994 1584h176l42 -311h-124z" />
    <glyph glyph-name="Wacute" unicode="&#x1e82;" horiz-adv-x="1793" 
d="M435 0l-153 1400h179l118 -1092l463 1092h150l118 -1094l464 1094h178l-594 -1400h-194l-109 1010l-429 -1010h-191zM1024 1674l140 311h176l-190 -311h-126z" />
    <glyph glyph-name="wacute" unicode="&#x1e83;" horiz-adv-x="1729" 
d="M424 0l-192 1008h171l146 -759l387 759h173l144 -759l388 759h172l-514 -1008h-169l-148 768l-389 -768h-169zM931 1263l140 311h176l-190 -311h-126z" />
    <glyph glyph-name="Wdieresis" unicode="&#x1e84;" horiz-adv-x="1793" 
d="M435 0l-153 1400h179l118 -1092l463 1092h150l118 -1094l464 1094h178l-594 -1400h-194l-109 1010l-429 -1010h-191zM915 1738q7 39 40.5 66.5t73.5 27.5t64 -27.5t18 -66.5t-38 -65.5t-73 -26.5q-40 0 -65.5 26.5t-19.5 65.5zM1238 1738q6 39 39 66.5t74 27.5
q40 0 64.5 -28t18.5 -66q-6 -39 -39 -65.5t-73 -26.5q-41 0 -65.5 26t-18.5 66z" />
    <glyph glyph-name="wdieresis" unicode="&#x1e85;" horiz-adv-x="1729" 
d="M424 0l-192 1008h171l146 -759l387 759h173l144 -759l388 759h172l-514 -1008h-169l-148 768l-389 -768h-169zM816 1351q6 39 40 66.5t74 27.5t64 -27.5t18 -66.5t-38.5 -65.5t-73.5 -26.5q-40 0 -65 26.5t-19 65.5zM1139 1351q6 39 39 66.5t74 27.5q40 0 64.5 -28
t18.5 -66q-6 -39 -39.5 -65.5t-73.5 -26.5q-41 0 -65 26t-18 66z" />
    <glyph glyph-name="uni1E9E" unicode="&#x1e9e;" horiz-adv-x="1281" 
d="M434 156q158 -48 291 -28t224 97.5t108 185.5q11 68 -0.5 121t-37 85t-65 53t-79.5 28.5t-85 7.5h-269l25 161h263q237 0 272 224q33 205 -165 205h-423l-240 -1515h-168l266 1677h591q73 0 133.5 -22t105.5 -65.5t64 -115.5t5 -164q-32 -194 -170 -295
q188 -115 145 -385q-14 -91 -53.5 -165.5t-93 -122.5t-119 -83t-133.5 -51.5t-134 -24.5t-123 -4.5t-98.5 12t-62.5 20.5z" />
    <glyph glyph-name="uni1EBC" unicode="&#x1ebc;" horiz-adv-x="1190" 
d="M135 0l222 1400h935l-27 -166h-761l-66 -418h636l-26 -167h-636l-77 -483h761l-26 -166h-935zM545 1650q-16 68 12 129q24 56 76.5 90.5t116.5 34.5q29 0 65.5 -15t54.5 -25.5t63 -39.5q88 -62 125 -62q28 0 42 33.5t-4 56.5l135 38q19 -67 -10 -131q-27 -56 -79.5 -90.5
t-116.5 -34.5q-26 0 -59.5 14t-53 26.5t-56.5 38.5q-35 24 -53 35.5t-42 20.5t-40 6q-26 -6 -40 -31t-3 -60z" />
    <glyph glyph-name="uni1EBD" unicode="&#x1ebd;" horiz-adv-x="1190" 
d="M590 -25q-233 0 -352.5 148t-82.5 381q37 234 203.5 382t399.5 148q232 0 351.5 -148t82.5 -382l-11 -66h-872q-2 -137 80 -219t227 -82q113 0 205 52t149 144l153 -36q-77 -149 -218 -235.5t-315 -86.5zM332 578h706q-1 134 -82.5 213.5t-223.5 79.5
q-143 0 -250.5 -79.5t-149.5 -213.5zM478 1263q-15 68 11 129q25 56 77 90.5t116 34.5q9 0 19 -1.5t18 -3t19 -6t18 -7t19.5 -9t18 -9.5t19 -11t17.5 -10.5t18.5 -11.5t17.5 -11q86 -62 125 -62q28 0 42 33.5t-4 56.5l135 38q19 -68 -11 -131q-26 -56 -78 -90.5t-117 -34.5
q-26 0 -59.5 14t-53 26.5t-56.5 38.5q-35 24 -53 35.5t-42 20.5t-40 6q-26 -6 -40.5 -31t-3.5 -60z" />
    <glyph glyph-name="Ygrave" unicode="&#x1ef2;" horiz-adv-x="1308" 
d="M565 0l100 631l-371 769h203l283 -587l471 587h203l-617 -769l-100 -631h-172zM805 1985h176l42 -311h-124z" />
    <glyph glyph-name="ygrave" unicode="&#x1ef3;" horiz-adv-x="1123" 
d="M194 -490l272 505l-215 993h188l151 -762l415 762h182l-809 -1498h-184zM652 1564h176l41 -311h-124z" />
    <glyph glyph-name="uni1EF8" unicode="&#x1ef8;" horiz-adv-x="1314" 
d="M568 0l100 631l-371 769h203l283 -587l471 587h203l-617 -769l-100 -631h-172zM592 1692q-15 68 11 129q25 56 77 90.5t116 34.5q9 0 19 -1.5t18 -3t19 -6t18 -7t19.5 -9t18 -9.5t19 -11t17.5 -10.5t18.5 -11.5t17.5 -11q86 -62 125 -62q28 0 42 33.5t-4 56.5l135 38
q19 -68 -11 -131q-26 -56 -78.5 -90.5t-117.5 -34.5q-26 0 -59.5 14t-52 26t-56.5 39q-35 24 -53 35.5t-42 20.5t-40 6q-26 -6 -40.5 -31t-3.5 -60z" />
    <glyph glyph-name="uni1EF9" unicode="&#x1ef9;" horiz-adv-x="1130" 
d="M198 -490l272 505l-215 993h188l151 -762l415 762h182l-809 -1498h-184zM441 1275q-15 68 11 129q25 56 77 90.5t116 34.5q29 0 65.5 -15t54.5 -25.5t63 -39.5q88 -62 126 -62q28 0 42 33.5t-4 56.5l135 38q19 -68 -11 -131q-26 -56 -78.5 -90.5t-117.5 -34.5
q-26 0 -59.5 14t-52 26t-56.5 39q-35 24 -53 35.5t-42 20.5t-40 6q-26 -6 -40.5 -31t-3.5 -60z" />
    <glyph glyph-name="endash" unicode="&#x2013;" horiz-adv-x="1324" 
d="M217 519l26 166h1053l-26 -166h-1053z" />
    <glyph glyph-name="emdash" unicode="&#x2014;" horiz-adv-x="2142" 
d="M217 519l26 166h1871l-26 -166h-1871z" />
    <glyph glyph-name="quoteleft" unicode="&#x2018;" horiz-adv-x="513" 
d="M390 860l-33 540h176l-20 -540h-123z" />
    <glyph glyph-name="quoteright" unicode="&#x2019;" horiz-adv-x="373" 
d="M191 860l153 540h175l-204 -540h-124z" />
    <glyph glyph-name="quotesinglbase" unicode="&#x201a;" horiz-adv-x="405" 
d="M47 -110l126 361h176l-178 -361h-124z" />
    <glyph glyph-name="quotedblleft" unicode="&#x201c;" horiz-adv-x="720" 
d="M269 860l204 540h124l-154 -540h-174zM556 864l203 540h124l-153 -540h-174z" />
    <glyph glyph-name="quotedblright" unicode="&#x201d;" horiz-adv-x="720" 
d="M190 860l153 540h175l-204 -540h-124zM476 860l153 540h175l-204 -540h-124z" />
    <glyph glyph-name="quotedblbase" unicode="&#x201e;" horiz-adv-x="679" 
d="M47 -110l126 361h176l-178 -361h-124zM321 -110l126 361h176l-178 -361h-124z" />
    <glyph glyph-name="dagger" unicode="&#x2020;" horiz-adv-x="864" 
d="M437 575l78 495h-251l27 166h251l41 262h172l-41 -262h250l-27 -166h-250l-78 -495h-172z" />
    <glyph glyph-name="daggerdbl" unicode="&#x2021;" horiz-adv-x="864" 
d="M433 548l34 218h-251l26 164h251l28 173h-251l26 167h251l36 228h172l-36 -228h250l-26 -167h-250l-28 -173h250l-26 -164h-250l-34 -218h-172z" />
    <glyph glyph-name="bullet" unicode="&#x2022;" horiz-adv-x="438" 
d="M294 483q-51 0 -81 35t-22 85q7 49 48.5 84t92.5 35q52 0 83 -34.5t23 -84.5t-50 -85t-94 -35z" />
    <glyph glyph-name="ellipsis" unicode="&#x2026;" horiz-adv-x="1087" 
d="M182 -25q-39 0 -62.5 27.5t-17.5 66.5q6 37 38 64.5t71 27.5q40 0 65 -27.5t19 -64.5q-6 -39 -39 -66.5t-74 -27.5zM435 69q6 37 38 64.5t71 27.5q40 0 65 -27.5t19 -64.5q-6 -39 -39 -66.5t-74 -27.5q-39 0 -62.5 27.5t-17.5 66.5zM769 69q6 37 38 64.5t71 27.5
q40 0 65 -27.5t19 -64.5q-6 -39 -39 -66.5t-74 -27.5q-39 0 -62.5 27.5t-17.5 66.5z" />
    <glyph glyph-name="guilsinglleft" unicode="&#x2039;" horiz-adv-x="768" 
d="M497 256l-266 347l375 346h196l-374 -346l265 -347h-196z" />
    <glyph glyph-name="guilsinglright" unicode="&#x203a;" horiz-adv-x="767" 
d="M156 256l374 347l-265 346h196l266 -346l-375 -347h-196z" />
    <glyph glyph-name="fraction" unicode="&#x2044;" horiz-adv-x="555" 
d="M-228 0l1068 1400h164l-1066 -1400h-166z" />
    <glyph glyph-name="Euro" unicode="&#x20ac;" horiz-adv-x="1251" 
d="M1153 -12q-193 -36 -358 20t-268 186.5t-124 308.5h-228l21 134h206l20 125h-206l21 134h228q79 180 225 311t328 186.5t361 19.5l-27 -171q-204 52 -400.5 -48t-301.5 -298h333l-21 -134h-366l-20 -125h366l-21 -134h-332q26 -131 111 -222t207.5 -122t272.5 1z" />
    <glyph glyph-name="trademark" unicode="&#x2122;" horiz-adv-x="1554" 
d="M449 662l103 650h-258l14 88h608l-14 -88h-259l-103 -650h-91zM823 661l117 739h85l176 -541l348 541h84l-117 -739h-97l74 474l-291 -454h-59l-147 454l-75 -474h-98z" />
    <glyph glyph-name="arrowleft" unicode="&#x2190;" horiz-adv-x="1465" 
d="M662 244l-448 505l608 505l102 -117l-366 -305h943l-27 -166h-943l270 -305z" />
    <glyph glyph-name="arrowup" unicode="&#x2191;" horiz-adv-x="1248" 
d="M560 141l144 905l-368 -307l-105 119l609 505l448 -505l-142 -119l-270 307l-144 -905h-172z" />
    <glyph glyph-name="arrowright" unicode="&#x2192;" horiz-adv-x="1466" 
d="M880 244l-104 117l365 305h-941l27 166h941l-269 305l141 117l449 -505z" />
    <glyph glyph-name="arrowdown" unicode="&#x2193;" horiz-adv-x="1247" 
d="M643 136l-446 505l141 118l269 -306l143 903h173l-143 -903l368 306l105 -118z" />
    <glyph glyph-name="arrowboth" unicode="&#x2194;" horiz-adv-x="1793" 
d="M662 244l-448 505l608 505l102 -117l-366 -305h939l-271 305l141 117l449 -505l-609 -505l-104 117l367 305h-939l270 -305z" />
    <glyph glyph-name="arrowupdn" unicode="&#x2195;" horiz-adv-x="1248" 
d="M620 -19l-448 507l142 118l270 -307l143 900l-368 -306l-104 118l608 505l449 -505l-143 -118l-269 306l-143 -900l367 307l105 -118z" />
    <glyph glyph-name="uni2196" unicode="&#x2196;" horiz-adv-x="1155" 
d="M980 286l-566 638l-68 -433h-173l113 715h745l-26 -166h-449l567 -638z" />
    <glyph glyph-name="uni2197" unicode="&#x2197;" horiz-adv-x="1154" 
d="M263 286l-104 117l768 637h-452l26 166h748l-113 -715h-173l68 432z" />
    <glyph glyph-name="uni2198" unicode="&#x2198;" horiz-adv-x="1154" 
d="M358 292l27 166h450l-567 637l142 117l566 -637l68 431h173l-113 -714h-746z" />
    <glyph glyph-name="uni2199" unicode="&#x2199;" horiz-adv-x="1154" 
d="M141 292l113 714h173l-68 -431l767 637l105 -117l-768 -637h450l-27 -166h-745z" />
    <glyph glyph-name="partialdiff" unicode="&#x2202;" horiz-adv-x="1269" 
d="M636 137q163 0 277 102t140 265q26 164 -56 265.5t-245 101.5q-162 0 -276 -101.5t-140 -265.5q-26 -163 56 -265t244 -102zM175 504q37 234 203.5 382t399.5 148q164 -2 275 -83q-44 173 -157.5 278.5t-289.5 100.5l26 167q167 4 298.5 -73t216.5 -218q81 -134 109 -310
t0 -373q-26 -161 -111 -284q-87 -125 -218.5 -194.5t-285.5 -69.5h-31q-233 0 -352.5 148t-82.5 381z" />
    <glyph glyph-name="emptyset" unicode="&#x2205;" horiz-adv-x="1244" 
d="M359 -59l-121 73l65 84q-78 74 -112.5 180t-15.5 226q23 146 113 268.5t222 193t275 70.5q108 0 199 -43l61 78l120 -72l-63 -85q77 -75 111 -181t15 -229q-17 -109 -74.5 -207t-139.5 -168.5t-186 -112t-211 -41.5q-104 0 -199 44zM338 498q-25 -154 73 -257l468 615
q-67 24 -136.5 22.5t-137 -33.5t-122.5 -81t-94 -119t-51 -147zM524 156q69 -24 139 -22t137 33.5t121.5 80t92.5 117.5t50 145q24 158 -72 260z" />
    <glyph glyph-name="minus" unicode="&#x2212;" horiz-adv-x="1244" 
d="M177 519l26 166h1053l-26 -166h-1053z" />
    <glyph glyph-name="radical" unicode="&#x221a;" horiz-adv-x="1380" 
d="M370 0l-160 723h183l111 -492l632 1169h370l-27 -166h-250l-667 -1234h-192z" />
    <glyph glyph-name="infinity" unicode="&#x221e;" horiz-adv-x="1562" 
d="M469 297q-98 9 -163 56t-95 119t-17 156q22 137 129.5 231t251.5 99q84 0 137 -23q89 -40 190 -180q53 53 117 106q127 97 254 97q108 -3 180 -49q69 -45 97.5 -118.5t14.5 -162.5q-14 -90 -66 -161q-55 -75 -135.5 -120t-175.5 -50q-86 0 -134 22q-51 20 -95 62.5
t-98 117.5q-77 -70 -124 -108q-64 -51 -127 -73.5t-141 -20.5zM356 628q-11 -71 29 -119t112 -56q57 0 96 20q37 17 76 51t109 104q-31 47 -71 98q-34 41 -67.5 58.5t-87.5 16.5q-76 -7 -130 -56t-66 -117zM982 628q80 -110 113 -138q44 -37 114 -37q76 8 130 57t65 118
q12 72 -27.5 119.5t-122.5 54.5q-50 0 -87 -19q-55 -28 -185 -155z" />
    <glyph glyph-name="integral" unicode="&#x222b;" horiz-adv-x="955" 
d="M297 -25q-100 1 -148 69.5t-18 161.5l129 -10q-17 -69 34 -76q27 -2 46.5 11.5t25.5 37.5l277 1092q24 75 93 121t148 43q93 -2 141.5 -71t19.5 -161l-122 11q9 38 -4.5 57t-44.5 18q-24 2 -43 -13t-25 -38l-274 -1088q-27 -82 -89.5 -123t-145.5 -42z" />
    <glyph glyph-name="approxequal" unicode="&#x2248;" horiz-adv-x="1312" 
d="M1017 712q-44 0 -98.5 19t-89.5 38t-103 59q-56 33 -87 50.5t-73.5 33t-73.5 15.5q-65 1 -108 -48.5t-32 -118.5l-170 -9q-11 91 39 169q44 75 121 121.5t164 46.5q44 0 96.5 -19.5t84 -38t90.5 -56.5q55 -35 84 -52t73 -34t79 -17q68 0 110.5 50t28.5 114l174 11
q12 -90 -33 -169q-42 -74 -116 -119.5t-160 -45.5zM95 203q-11 89 39 169q44 75 121.5 121.5t164.5 46.5q44 0 96.5 -20t83 -38t90.5 -56q55 -35 84 -52t73 -34t79 -17q69 0 111.5 50t27.5 114l174 11q12 -90 -33 -169q-42 -74 -116 -119.5t-160 -45.5q-44 0 -98.5 19
t-89.5 38t-103 59q-81 49 -135 74t-99 25q-65 1 -108 -48.5t-31 -118.5z" />
    <glyph glyph-name="notequal" unicode="&#x2260;" horiz-adv-x="1244" 
d="M356 18l141 303h-351l26 167h400l108 229h-471l26 166h523l140 304h178l-140 -304h352l-26 -166h-403l-107 -229h473l-26 -167h-523l-142 -303h-178z" />
    <glyph glyph-name="lessequal" unicode="&#x2264;" horiz-adv-x="1244" 
d="M1200 329l-1007 287l39 246l1098 289l-27 -173l-910 -238l835 -238zM95 0l26 166h1053l-26 -166h-1053z" />
    <glyph glyph-name="greaterequal" unicode="&#x2265;" horiz-adv-x="1244" 
d="M148 337l28 174l908 233l-834 233l27 174l1008 -285l-39 -247zM95 0l26 166h1053l-26 -166h-1053z" />
    <glyph glyph-name="uniA78B" unicode="&#xa78b;" horiz-adv-x="289" 
d="M295 1442h154l-94 -507h-125z" />
    <glyph glyph-name="uniA78C" unicode="&#xa78c;" horiz-adv-x="289" 
d="M295 1442h154l-94 -507h-125z" />
    <glyph glyph-name="uni004A0301" horiz-adv-x="1356" 
d="M621 -25q-178 0 -291 82q-117 83 -163.5 226t-16.5 318h172q-36 -206 51 -333t274 -127q130 0 228 61t159.5 161t81.5 223l129 814h173l-129 -814q-28 -173 -119 -311t-234.5 -219t-314.5 -81zM1307 1674l140 311h176l-190 -311h-126z" />
    <glyph glyph-name="i.loclTRK" horiz-adv-x="463" 
d="M144 0l160 1008h174l-160 -1008h-174zM355 1379q7 39 39.5 65.5t73.5 26.5q40 0 64 -26.5t17 -65.5q-6 -39 -37.5 -65.5t-72.5 -26.5t-65.5 26.5t-18.5 65.5z" />
    <glyph glyph-name="uni006A0301" horiz-adv-x="514" 
d="M-120 -323q116 -4 201.5 61.5t102.5 170.5l174 1099h172l-174 -1099q-18 -111 -86 -201q-74 -95 -183.5 -148t-233.5 -50zM404 1274l140 311h176l-190 -311h-126z" />
    <glyph glyph-name="_Designova" horiz-adv-x="1401" 
d="M699 38q-162 0 -300 81t-218.5 219.5t-80.5 300.5q1 122 48.5 233t128 191t191.5 127.5t233 47.5t233 -47.5t191.5 -127.5t128 -191t47.5 -233q0 -163 -80.5 -301.5t-219.5 -219t-302 -80.5zM172 639q0 -108 42 -206t112.5 -168.5t168.5 -112.5t206 -42q143 0 264.5 70.5
t192.5 192t71 265.5t-70.5 266t-191.5 192.5t-265 70.5t-266 -70.5t-193 -192t-71 -265.5zM360 744q8 0 12 -4q53 -20 107 -29q43 -4 76 3q24 4 49 13q4 0 10.5 3.5t7.5 3.5l-17 8.5t-17.5 9t-15 10t-14.5 13.5h20q37 0 80 18q77 48 147 68q30 9 61 9q6 0 23 1.5t25 0.5
q62 -4 94 -36q7 -5 31 -34v-2q-3 2 -6 2q-50 19 -89.5 4.5t-66.5 -55.5q-6 -11 -15.5 -33.5t-12.5 -29.5q-5 -12 -15 -36.5t-19 -44.5t-17 -37q-31 -65 -69 -111q-17 -23 -68 -61q-51 -36 -127 -59h-6l26 23q16 15 28 47q8 25 24.5 71t23.5 68q31 89 60 139v1q-1 -2 -4.5 -6
t-5.5 -6q-8 -8 -10 -15q-21 -24 -35 -60q-3 -5 -9 -5q-110 5 -190 73q-1 1 -61 58q-5 7 -15 17z" />
    <glyph glyph-name="_Origin" horiz-adv-x="1874" 
d="M100 40v1150h1674v-1149l-43 -1v1zM143 82h1588v625h-1588v-625zM289 224v128h30v-128h-30zM293 884h68q60 0 84 40q11 19 11 46q0 55 -44 75q-19 11 -49 11h-70v-172zM312 439v127h107v-23h-77v-28h70v-22h-70v-31h77v-23h-107zM333 916v108h27q37 0 49 -23q7 -19 7 -31
q0 -36 -26 -48q-10 -6 -31 -6h-26zM339 224v128h25l64 -77v77h29v-128h-24l-63 79v-79h-31zM440 439v127h25l64 -76v76h29v-127h-25l-63 78v-78h-30zM472 948q0 -44 33 -58q13 -7 39 -7q35 0 54 17q9 12 12 22l-38 1q-3 -9 -16 -13q-2 0 -5.5 -0.5t-6.5 -0.5q-22 0 -29 15
q-5 8 -5 15h100v11q0 32 -20 49q-19 16 -48 16q-43 0 -63 -32q-7 -17 -7 -35zM510 962q1 12 15 22q8 5 17 5q21 0 26 -16q4 -5 4 -11h-62zM524 224v128h63q52 0 52 -32q0 -20 -18 -29q2 0 2 -2q20 -7 20 -30q0 -35 -51 -35h-68zM554 247h35q24 0 24 16q0 15 -24 15h-35v-31z
M554 303h31q24 0 24 14q0 16 -24 16h-31v-30zM579 543v23h112v-23h-41v-104h-29v104h-42zM621 922q6 -39 67 -39q39 0 57 20q7 11 7 21q0 26 -41 35l-28 5q-18 3 -18 13q0 12 23 12t23 -14l38 2q-7 38 -62 38q-38 0 -54 -19q-8 -8 -8 -21q0 -28 41 -37l26 -5q19 -3 19 -12
q0 -14 -23 -14q-24 0 -27 16zM657 224v128h107v-24h-78v-27h70v-23h-70v-29h76v-25h-105zM704 566h32l29 -89l30 89h27l29 -90l31 90h28l-41 -127h-33l-28 87l-29 -87h-31zM767 1047q0 -7 7 -12.5t15 -5.5q9 0 15.5 5.5t6.5 12.5t-6.5 12.5t-15.5 5.5q-8 0 -15 -5.5
t-7 -12.5zM768 884h41v129h-41v-129zM784 224v128h59q19 0 29 -5q27 -12 27 -41q0 -14 -7 -24q-11 -13 -21 -18l27 -40h-32l-25 37h-26v-37h-31zM815 285h26q28 0 28 21q0 22 -28 22h-26v-43zM827 949q0 -42 30 -56q12 -6 30 -6q21 0 33 10q7 5 7 10h2v-23q0 -24 -30 -24
q-18 0 -25 7q-2 1 -5 8l-37 -6q3 -15 20 -25t46 -10q43 0 62 22q10 10 10 27v130h-40v-21h-3q-4 13 -21 19q-10 4 -19 4q-35 0 -52 -29q-8 -16 -8 -37zM869 949q0 24 12 33q10 5 18 5q19 0 28 -19q0 -2 1.5 -8.5t1.5 -10.5q0 -36 -31 -36q-18 0 -28 18q-2 10 -2 18zM913 224
v128h29v-103h76v-25h-105zM915 503q0 27 20 47q19 19 50 19q33 0 51 -19q20 -20 20 -47q0 -25 -20 -47q-18 -19 -50 -19t-51 19q-20 22 -20 47zM946 503q0 -18 11 -29.5t28 -11.5q18 0 29 11.5t11 29.5q0 19 -11 30.5t-29 11.5q-17 0 -28 -11.5t-11 -30.5zM993 884h41v75
q0 17 13 23q5 3 14 3q25 0 25 -25v-76h42v82q0 31 -24 42q-11 7 -27 7q-31 0 -43 -25h-1v23h-40v-129zM1039 224v128h30v-128h-30zM1073 439v127h57q22 0 30 -3q26 -14 26 -42q0 -15 -7 -25q-6 -10 -21 -17l28 -40h-32l-25 36h-28v-36h-28zM1090 224v128h25l63 -77v77h31
v-128h-25l-64 79v-79h-30zM1101 499h27q28 0 28 22t-28 22h-27v-44zM1145 948q0 -39 34 -58q12 -7 38 -7q42 0 64 31q8 14 8 34q0 39 -33 59q-19 8 -39 8q-44 0 -63 -32q-9 -18 -9 -35zM1187 949q0 24 13 33q6 5 17 5q19 0 27 -19q3 -7 3 -19q0 -24 -13 -34q-8 -5 -17 -5
q-19 0 -28 20q-2 10 -2 19zM1201 439v127h107v-23h-77v-28h69v-22h-69v-54h-30zM1227 242q0 17 19 17q7 0 12 -5t5 -12q0 -6 -5 -19l-11 -27h-18l9 30q-11 4 -11 16zM1290 1013l51 -129h45l52 129h-42l-31 -91h-1l-31 91h-43zM1319 439v127h107v-23h-77v-28h69v-22h-69v-31
h77v-23h-107zM1336 224v128h57q23 0 38 -8q33 -14 33 -55q0 -22 -9 -35q-16 -30 -62 -30h-57zM1366 249h26q13 0 23 5q19 11 19 35q0 16 -5 21q-9 18 -37 18h-26v-79zM1439 921q0 -26 23 -34q9 -4 25 -4q21 0 34 9q8 10 8 11h2v-19h37v88q0 19 -17 33q-22 10 -43 10
q-35 0 -53 -18q-9 -7 -12 -20l39 -4q4 16 25 16t21 -16v-1q0 -7 -15 -10q-2 -1 -9 -1.5t-10 -0.5q-25 -2 -39 -10q-16 -9 -16 -29zM1448 439v127h22l66 -76v76h29v-127h-25l-64 78v-78h-28zM1477 922q0 7 12 14q4 2 12 2q19 2 28 6v-13q0 -15 -15 -21q-12 -3 -16 -3
q-21 0 -21 15zM1482 224v128h105v-24h-76v-27h69v-23h-69v-29h76v-25h-105z" />
    <glyph glyph-name="_Typeface" horiz-adv-x="2096" 
d="M100 355v540h1896v-540h-1896zM274 522h38v159h3l122 -159h37v217h-39v-159h-2l-123 159h-36v-217zM502 602q0 -49 39 -72q17 -10 46 -10q52 0 74 39q12 21 12 43q0 53 -41 74q-15 10 -45 10q-51 0 -75 -38q-10 -21 -10 -46zM539 602q0 36 21 50q11 8 27 8q33 0 45 -29
q5 -13 5 -29q0 -34 -21 -48q-13 -8 -29 -8q-32 0 -44 29q-4 8 -4 27zM697 522h36v27h3q12 -17 26 -24q13 -5 27 -5q45 0 67 39q10 17 10 45q0 52 -39 72q-11 10 -38 10q-30 0 -44 -17q-8 -11 -9 -12h-3v82h-36v-217zM733 604q0 34 22 48q11 8 27 8q32 0 43 -27q5 -25 5 -29
q0 -36 -22 -50q-11 -8 -26 -8q-33 0 -44 27q-5 25 -5 31zM883 602q0 -51 41 -72q18 -10 45 -10q39 0 63 19q11 11 14 24l-33 5q-9 -17 -25 -19q-7 -5 -16 -5q-34 0 -46 24q-7 10 -7 27h130v9q0 42 -24 63q-23 19 -58 19q-51 0 -75 -38q-9 -19 -9 -46zM919 619q0 19 21 36
q8 5 27 5q34 0 41 -24q3 -3 5 -10l2 -7h-96zM1075 522h34v217h-34v-217zM1222 597q0 -48 46 -67q17 -10 50 -10q62 0 87 36q12 21 12 41v142h-39v-140q0 -32 -26 -43q-14 -7 -34 -7q-36 0 -53 24q-7 10 -7 26v140h-36v-142zM1453 522h36v97q0 26 22 36q10 5 21 5
q18 0 28.5 -10.5t10.5 -28.5v-99h36v104q0 41 -29 53q-14 7 -34 7q-41 0 -53 -29h-4v27h-34v-162zM1633 602q0 -49 39 -72q18 -10 46 -10q52 0 74 39q12 21 12 43q0 53 -41 74q-15 10 -45 10q-53 0 -75 -38q-10 -21 -10 -46zM1669 602q0 36 22 50q11 8 27 8q33 0 45 -29
q5 -13 5 -29q0 -35 -22 -48q-11 -8 -28 -8q-33 0 -44 29q-5 8 -5 27z" />
    <glyph glyph-name="_VendorID" horiz-adv-x="1106" 
d="M100 143v1104h906v-1104h-906zM103 59q0 12 7 19t17 7q8 0 11 -3l4 -5v24h12v-67h-12v9l-4 -7q-6 -4 -14 -4q-21 0 -21 27zM116 59q0 -16 12 -16q14 0 14 16v1q0 16 -13 16t-13 -17zM163 59q0 11 7 18.5t18 7.5q10 0 17 -7t7 -18q0 -2 -2 -5h-34q1 -12 12 -12q9 0 11 8
h11q-3 -19 -22 -19q-25 0 -25 27zM176 62h23q-3 14 -11 14q-11 0 -12 -14zM216 48h13q3 -8 8 -8q9 0 9 7q0 2 -11 8q-17 5 -17 15q0 15 19 15q20 0 20 -15h-13q-2 6 -7 6q-6 0 -6 -5q0 -4 11 -9q16 -3 16 -14q0 -16 -21 -16q-18 0 -21 16zM255 423q0 -56 39.5 -96t96.5 -40
q56 0 94.5 39.5t38.5 96.5q0 58 -37.5 96.5t-95.5 38.5q-11 0 -22 -3l79 112h-60l-90 -128q-43 -60 -43 -116zM255 861q0 -56 39.5 -95t96.5 -39q56 0 94.5 39t38.5 95q0 58 -37.5 96.5t-95.5 38.5q-15 0 -22 -2l79 114h-60l-90 -132q-43 -62 -43 -115zM265 95q0 6 8 6
q7 0 7 -6q0 -8 -7 -8q-8 0 -8 8zM266 34v51h13v-51h-13zM289 31v1h13v-1q0 -8 12 -8q10 0 14 12v8l-4 -7q-8 -2 -13 -2q-22 0 -22 25q0 26 24 26q8 0 11 -3l4 -5v8h13v-38q0 -8 -2 -11q0 -22 -25 -22t-25 17zM302 60q0 -17 12 -17q14 0 14 16v1q0 16 -14 16q-12 0 -12 -16z
M305 423q0 37 24 60.5t62 23.5q36 0 60 -23.5t24 -60.5q0 -39 -24 -63t-60 -24q-38 0 -62 24t-24 63zM305 861q0 39 24 62.5t62 23.5q36 0 60 -24.5t24 -61.5t-24 -61.5t-60 -24.5q-38 0 -62 24t-24 62zM351 34v51h13v-10l4 7q4 3 12 3q14 0 18 -14q1 -3 1 -9v-28h-14v32
q0 10 -9 10q-12 0 -12 -19v-23h-13zM406 59q0 11 7 18.5t18 7.5q26 0 26 -26q0 -27 -26 -27q-11 0 -18 7.5t-7 19.5zM419 59q0 -16 12 -16q14 0 14 16q0 17 -14 17q-12 0 -12 -17zM461 85h14l13 -42l12 42h13l-18 -51h-17zM517 48q0 15 28 15h3v7q0 6 -8 6q-11 0 -11 -8h-12
q0 17 23 17q17 0 19 -14v-37h-11v6l-3 -5q-6 -3 -13 -3q-15 0 -15 16zM529 48q0 -5 8 -5q11 0 11 8v6q-19 2 -19 -9zM568 74v9h5v7q0 14 18 14h5v-10q-10 2 -10 -5v-6h10v-9h-10v-40h-13v40h-5zM580 423q0 -57 39.5 -96.5t95.5 -39.5t94.5 39.5t38.5 96.5t-38 96t-95 39
q-13 0 -23 -3l80 112h-61l-90 -128q-41 -58 -41 -116zM580 861q0 -56 39.5 -95t95.5 -39t94.5 39t38.5 95q0 58 -38 96.5t-95 38.5q-16 0 -24 -2l81 114h-61l-90 -132q-41 -62 -41 -115zM600 59q0 26 26 26q25 0 25 -26q0 -27 -25 -27q-26 0 -26 27zM613 59q0 -16 13 -16
q12 0 12 16q0 17 -12 17q-13 0 -13 -17zM629 423q0 37 24 60.5t62 23.5q36 0 58.5 -23.5t22.5 -60.5q0 -39 -22.5 -63t-58.5 -24q-38 0 -62 24t-24 63zM629 861q0 38 24 62t62 24q36 0 58.5 -24t22.5 -62t-22.5 -62t-58.5 -24q-38 0 -62 24t-24 62zM660 34v51h11v-10l5 7
q4 3 12 3q14 0 18 -14v-37h-13v32q-3 10 -8 10q-14 0 -14 -19v-23h-11zM713 74v9h7v12h13v-12h9v-9h-9v-26q2 -9 8 -5v-10h-7q-14 0 -14 10v31h-7zM746 48h14q2 -8 9 -8q8 0 8 7q0 2 -11 8q-16 4 -16 15q0 15 18 15t23 -15h-15q0 6 -9 6q-4 0 -4 -5t10 -9q18 -4 18 -14
q0 -16 -22 -16q-19 0 -23 16zM794 39q0 9 9 9q8 0 8 -9q0 -7 -8 -7q-9 0 -9 7zM817 59q0 11 7.5 18.5t16.5 7.5q23 0 23 -19h-12q-3 10 -11 10q-11 0 -11 -17q0 -16 11 -16q9 0 11 8h12q-1 -19 -23 -19q-24 0 -24 27zM869 59q0 26 27 26q24 0 24 -26q0 -27 -24 -27
q-27 0 -27 27zM882 59q0 -16 14 -16q12 0 12 16q0 17 -12 17q-14 0 -14 -17zM929 34v51h13v-9l5 6q3 3 8 3q12 0 17 -10l5 7q3 3 10 3q16 0 16 -12q1 -3 1 -11v-28h-12v26q0 1 -0.5 3.5t-0.5 4.5q0 8 -10 8q-8 0 -8 -16v-26h-12v34q-5 8 -9 8q-10 0 -10 -16v-26h-13z" />
    <glyph glyph-name="crossbarcomb" horiz-adv-x="1446" 
d="M97 519l26 166h1415l-26 -166h-1415z" />
    <glyph glyph-name="crossslashcomb" horiz-adv-x="626" 
d="M-17 -205l705 1795h174l-706 -1795h-173z" />
    <glyph glyph-name="dotlessicomb" horiz-adv-x="455" 
d="M140 0l160 1008h174l-160 -1008h-174z" />
    <glyph glyph-name="dotlessjcomb" horiz-adv-x="512" 
d="M-120 -323q116 -4 201.5 61.5t102.5 170.5l174 1099h172l-174 -1099q-18 -111 -86 -201q-74 -95 -183.5 -148t-233.5 -50z" />
    <glyph glyph-name="leftspikecomb" horiz-adv-x="373" 
d="M211 860l204 540h124l-154 -540h-174z" />
    <glyph glyph-name="rightspikecomb" horiz-adv-x="471" 
d="M189 860l153 540h175l-204 -540h-124z" />
    </font>
</defs>
</svg>
