<?xml version="1.0" standalone="no"?>
<!DOCTYPE svg PUBLIC "-//W3C//DTD SVG 1.1//EN" "http://www.w3.org/Graphics/SVG/1.1/DTD/svg11.dtd" >
<svg xmlns="http://www.w3.org/2000/svg" xmlns:xlink="http://www.w3.org/1999/xlink" version="1.1">
<metadata>
Created by FontForge 20201107 at Tue May 21 02:52:48 2024
 By 
Copyright (c) 2024 by Designova. All rights reserved.
</metadata>
<defs>
<font id="NobelUno-ThinItalic" horiz-adv-x="1186" >
  <font-face 
    font-family="Nobel Uno Thin Italic"
    font-weight="100"
    font-style="italic"
    font-stretch="normal"
    units-per-em="2048"
    panose-1="0 0 0 0 0 0 0 0 0 0"
    ascent="1638"
    descent="-410"
    x-height="1000"
    cap-height="1400"
    bbox="-208 -504 2591 2620"
    underline-thickness="50"
    underline-position="-125"
    unicode-range="U+000D-A78C"
  />
<missing-glyph horiz-adv-x="1608" 
d="M195 -1l218 1378h1224l-218 -1378h-1224zM425 165h31l13 83h1l49 -83h29l21 129h-31l-13 -81h-2l-51 81h-26zM470 510l98 -114l346 298l257 -298l136 114l-254 301l344 301l-95 114l-351 -299l-250 299l-136 -114l253 -301zM569 213q-4 -28 18 -43q16 -6 28 -6
q31 0 52 23q7 10 10 26q5 30 -18 44q-12 6 -28 6q-37 0 -52 -24q-9 -12 -10 -26zM599 213q2 15 15 26q4 4 13 4q16 0 19 -14q1 -7 0 -16q-3 -17 -14 -25q-10 -2 -14 -2q-17 0 -17 14q-4 5 -2 13zM730 230q-6 -41 23 -59q17 -7 36 -7q38 0 59 26q9 12 12 28l2 17h-59l-3 -21
h31q-3 -16 -20 -22q-5 -4 -18 -4q-24 0 -30 19q-4 7 -2 23q5 28 24 38q15 5 20 5q28 0 28 -21h31q1 18 -15 33q-16 11 -40 11q-40 0 -64 -30q-10 -12 -15 -36zM869 165h29l21 129h-29zM911 133q10 -4 19 -4q19 0 35 14q5 3 10 13l58 107h-31l-34 -71h-2l-10 71h-33l24 -99
l-3 -5q-4 -11 -23 -7zM1021 129h31l9 52q4 -10 15 -14q3 -3 13 -3q27 0 43 23q6 8 10 26q5 31 -14 45q-13 5 -23 5q-18 0 -27 -9q-6 -4 -7 -9h-1l3 18h-30zM1065 200q-1 6 0 13q3 17 14 25q5 5 12 5q17 0 19 -14q2 -10 1 -16q-3 -15 -14 -25q-8 -2 -15 -2q-14 0 -17 14z
M1149 165h28l9 56q2 14 14 18q4 3 11 3q19 0 16 -19l-9 -58h31l10 62q3 24 -14 33q-12 3 -18 3q-25 0 -37 -18h-1l8 49h-27z" />
    <glyph glyph-name=".notdef" horiz-adv-x="1608" 
d="M195 -1l218 1378h1224l-218 -1378h-1224zM425 165h31l13 83h1l49 -83h29l21 129h-31l-13 -81h-2l-51 81h-26zM470 510l98 -114l346 298l257 -298l136 114l-254 301l344 301l-95 114l-351 -299l-250 299l-136 -114l253 -301zM569 213q-4 -28 18 -43q16 -6 28 -6
q31 0 52 23q7 10 10 26q5 30 -18 44q-12 6 -28 6q-37 0 -52 -24q-9 -12 -10 -26zM599 213q2 15 15 26q4 4 13 4q16 0 19 -14q1 -7 0 -16q-3 -17 -14 -25q-10 -2 -14 -2q-17 0 -17 14q-4 5 -2 13zM730 230q-6 -41 23 -59q17 -7 36 -7q38 0 59 26q9 12 12 28l2 17h-59l-3 -21
h31q-3 -16 -20 -22q-5 -4 -18 -4q-24 0 -30 19q-4 7 -2 23q5 28 24 38q15 5 20 5q28 0 28 -21h31q1 18 -15 33q-16 11 -40 11q-40 0 -64 -30q-10 -12 -15 -36zM869 165h29l21 129h-29zM911 133q10 -4 19 -4q19 0 35 14q5 3 10 13l58 107h-31l-34 -71h-2l-10 71h-33l24 -99
l-3 -5q-4 -11 -23 -7zM1021 129h31l9 52q4 -10 15 -14q3 -3 13 -3q27 0 43 23q6 8 10 26q5 31 -14 45q-13 5 -23 5q-18 0 -27 -9q-6 -4 -7 -9h-1l3 18h-30zM1065 200q-1 6 0 13q3 17 14 25q5 5 12 5q17 0 19 -14q2 -10 1 -16q-3 -15 -14 -25q-8 -2 -15 -2q-14 0 -17 14z
M1149 165h28l9 56q2 14 14 18q4 3 11 3q19 0 16 -19l-9 -58h31l10 62q3 24 -14 33q-12 3 -18 3q-25 0 -37 -18h-1l8 49h-27z" />
    <glyph glyph-name=".null" horiz-adv-x="1285" 
 />
    <glyph glyph-name="nonmarkingreturn" horiz-adv-x="682" 
 />
    <glyph glyph-name="CR" unicode="&#xd;" horiz-adv-x="1285" 
 />
    <glyph glyph-name="space" unicode=" " horiz-adv-x="541" 
 />
    <glyph glyph-name="space" unicode="&#xa0;" horiz-adv-x="541" 
 />
    <glyph glyph-name="exclam" unicode="!" horiz-adv-x="334" 
d="M183 420l155 980h62l-155 -980h-62zM102 20q3 18 19 31t36 13q19 0 30.5 -13t8.5 -31q-3 -19 -18.5 -32.5t-34.5 -13.5q-20 0 -32 13.5t-9 32.5z" />
    <glyph glyph-name="quotedbl" unicode="&#x22;" horiz-adv-x="518" 
d="M238 878l83 522h62l-83 -522h-62zM750 878l83 522h62l-83 -522h-62z" />
    <glyph glyph-name="numbersign" unicode="#" horiz-adv-x="1561" 
d="M233 0l166 376h-240l26 58h237l235 534h-240l26 58h240l164 374h63l-164 -374h578l163 374h63l-164 -374h238l-26 -58h-239l-234 -534h241l-27 -58h-238l-166 -376h-63l166 376h-576l-167 -376h-62zM485 434h578l234 534h-577z" />
    <glyph glyph-name="dollar" unicode="$" horiz-adv-x="1241" 
d="M586 -26q-175 6 -298.5 82.5t-148.5 195.5l62 22q23 -110 137 -175t286 -65q117 0 228 39q112 40 184.5 112t87.5 165q16 97 -40 161q-94 106 -360 155q-140 25 -250 66q-115 41 -167 115t-33 195q25 157 177.5 261.5t362.5 112.5l33 208h62l-33 -208q179 -7 297.5 -81.5
t148.5 -196.5l-64 -20q-23 111 -137 175.5t-287 64.5q-119 0 -227 -39q-111 -41 -183 -112.5t-87 -164.5q-17 -108 33 -167q45 -55 132.5 -86.5t232.5 -58.5q133 -24 240 -70q244 -102 211 -310q-16 -110 -95 -193q-79 -81 -196 -129t-247 -54l-31 -198h-62z" />
    <glyph glyph-name="percent" unicode="%" horiz-adv-x="1189" 
d="M134 0l1066 1400h73l-1066 -1400h-73zM272 1092q13 81 80 137.5t151 56.5q85 0 134 -56.5t36 -137.5t-79.5 -136.5t-151.5 -55.5q-84 0 -133.5 55.5t-36.5 136.5zM334 1092q-8 -54 26 -93t91 -39q58 0 104.5 39t54.5 93q9 56 -25 95t-92 39q-57 0 -103.5 -39t-55.5 -95z
M735 308q13 81 80.5 136.5t152.5 55.5q84 0 133.5 -55.5t36.5 -136.5t-80 -137.5t-151 -56.5q-85 0 -135 56.5t-37 137.5zM797 308q-9 -55 26.5 -94.5t93.5 -39.5q56 0 103 39.5t56 94.5q8 54 -26.5 93t-90.5 39q-58 0 -106 -39t-56 -93z" />
    <glyph glyph-name="ampersand" unicode="&#x26;" horiz-adv-x="1501" 
d="M498 -26q-121 0 -203 56q-82 55 -118.5 143.5t-20.5 188.5q11 67 34 114.5t69 95.5q48 51 127 117l209 173q-124 140 -148 180q-33 52 -20 132q16 106 104 179t197 73q111 0 175.5 -73t48.5 -179q-13 -81 -65 -136q-11 -12 -24.5 -24.5t-36.5 -32.5t-36 -31t-51.5 -43
t-53.5 -45l406 -458l235 194l-14 -84l-186 -156l282 -316l-52 -42l-279 314q-256 -213 -320 -258q-15 -10 -28 -19q-56 -35 -107.5 -49t-123.5 -14zM220 358q-15 -89 20 -163q34 -75 103.5 -118t163.5 -43q65 0 111.5 13.5t96.5 47.5q20 13 42 30t57 46t58 48t80.5 67
t87.5 74l-408 460l-203 -169q-75 -62 -120 -107q-41 -43 -60.5 -84.5t-28.5 -101.5zM490 1174q-7 -46 3.5 -77t47.5 -73q67 -78 104 -120q141 117 146 121q50 42 70 72.5t28 76.5q13 80 -37 136t-134 56t-150 -57.5t-78 -134.5z" />
    <glyph glyph-name="quotesingle" unicode="'" horiz-adv-x="261" 
d="M238 878l83 522h62l-83 -522h-62z" />
    <glyph glyph-name="parenleft" unicode="(" horiz-adv-x="610" 
d="M408 -112q-124 125 -163.5 324t-2.5 432q28 179 96 340q115 270 310 416h63q-141 -126 -226 -268q-121 -198 -180 -488q-28 -240 9 -425t157 -331h-63z" />
    <glyph glyph-name="parenright" unicode=")" horiz-adv-x="610" 
d="M102 -112q166 147 262.5 332t142.5 424q24 185 6 339q-29 236 -171 417h62q104 -99 148 -258q62 -216 18 -498q-24 -147 -71 -280q-111 -307 -335 -476h-62z" />
    <glyph glyph-name="asterisk" unicode="*" horiz-adv-x="752" 
d="M347 866l-45 36l180 196l-229 76l28 56l231 -74l39 244h62l-39 -244l254 74l10 -56l-254 -76l119 -196l-58 -36l-116 198z" />
    <glyph glyph-name="plus" unicode="+" horiz-adv-x="1243" 
d="M606 100l74 470h-491l10 60h491l74 470h62l-74 -470h492l-10 -60h-492l-74 -470h-62z" />
    <glyph glyph-name="comma" unicode="," horiz-adv-x="367" 
d="M81 -112l118 338h63l-140 -338h-41z" />
    <glyph glyph-name="hyphen" unicode="-" horiz-adv-x="951" 
d="M230 570l10 60h669l-10 -60h-669z" />
    <glyph glyph-name="period" unicode="." horiz-adv-x="334" 
d="M140 -26q-18 0 -29.5 13.5t-8.5 32.5q3 18 18.5 31t33.5 13q21 0 33 -13t9 -31q-3 -19 -19 -32.5t-37 -13.5z" />
    <glyph glyph-name="slash" unicode="/" horiz-adv-x="683" 
d="M81 -112l661 1512h63l-662 -1512h-62z" />
    <glyph glyph-name="zero" unicode="0" horiz-adv-x="1262" 
d="M628 -26q-172 0 -283.5 94.5t-150 258t-5.5 373.5q33 209 123 372t232 258.5t314 95.5q258 0 375 -212q111 -203 62 -514q-50 -312 -224 -513q-184 -213 -443 -213zM251 700q-31 -194 3.5 -344t133.5 -236t249 -86q225 0 386.5 186t208.5 480q30 192 -4 342
q-34 153 -130.5 238.5t-249.5 85.5q-157 0 -284 -89t-205 -237.5t-108 -339.5z" />
    <glyph glyph-name="one" unicode="1" horiz-adv-x="428" 
d="M182 0l222 1400h63l-222 -1400h-63z" />
    <glyph glyph-name="two" unicode="2" horiz-adv-x="1126" 
d="M107 52q328 271 486 411q116 101 221 207q216 223 238 356q13 92 -20 171q-36 78 -109 123.5t-169 45.5q-98 0 -184 -46q-90 -46 -149.5 -124t-73.5 -170h-63q16 107 87 201q73 92 176.5 145.5t216.5 53.5q114 0 199 -54q87 -55 128 -146t24 -200q-22 -137 -242 -373
q-263 -286 -662 -593h784l-10 -60h-886z" />
    <glyph glyph-name="three" unicode="3" horiz-adv-x="1026" 
d="M509 -26q-133 0 -225 54q-87 53 -125.5 143t-21.5 199h62q-15 -92 17 -169q33 -78 110 -122.5t192 -44.5q97 0 188 46q95 46 158.5 122.5t78.5 167.5q25 159 -80 247.5t-306 88.5l9 60q180 0 299.5 78t142.5 222q13 81 -25 150q-37 69 -107.5 109.5t-155.5 40.5t-169 -41
q-86 -42 -144 -110.5t-70 -148.5h-63q23 147 159 253.5t297 106.5q104 0 186 -49q86 -50 127.5 -132t26.5 -179q-19 -118 -99.5 -205t-197.5 -123q134 -44 194 -139t39 -229q-18 -111 -93 -199q-77 -91 -184.5 -144t-219.5 -53z" />
    <glyph glyph-name="four" unicode="4" horiz-adv-x="1197" 
d="M878 0h-63l51 321h-716l10 64l856 1015h84l-162 -1019h177l-9 -60h-177zM239 385l636 -4l142 921z" />
    <glyph glyph-name="five" unicode="5" horiz-adv-x="1087" 
d="M175 225q40 -88 122.5 -139.5t191.5 -51.5q111 0 209 52q101 52 168 139t83 191q17 107 -23 192t-120.5 134t-172 56t-182 -12t-158.5 -61h-44l180 675h659l-10 -60h-598l-139 -528q110 44 244 46q146 -2 247 -55q106 -55 153.5 -155.5t26.5 -231.5q-19 -120 -97 -221.5
t-193.5 -161t-241.5 -59.5q-130 0 -224 60q-93 57 -138 154z" />
    <glyph glyph-name="six" unicode="6" horiz-adv-x="1139" 
d="M558 -26q-135 0 -238 65q-104 66 -153 174t-29 237q7 40 16 71t27 65t30.5 53t44.5 65l528 696h73l-411 -542q208 109 411 44q97 -32 161 -95q70 -66 100.5 -157.5t12.5 -199.5q-32 -198 -198.5 -337t-374.5 -139zM202 452q-19 -117 26 -212q46 -96 135.5 -151t203.5 -55
q128 0 235 59t178 154t89 205q18 113 -26 208q-44 94 -133.5 149t-207.5 55q-124 0 -231 -57q-108 -58 -180 -152t-89 -203z" />
    <glyph glyph-name="seven" unicode="7" horiz-adv-x="995" 
d="M234 0l843 1340h-808l10 60h881l-10 -60l-845 -1340h-71z" />
    <glyph glyph-name="eight" unicode="8" horiz-adv-x="1101" 
d="M546 -26q-125 0 -218 54q-95 54 -141 144.5t-29 197.5q19 123 113 222.5t227 145.5q-100 43 -153.5 132t-36.5 196q15 99 85 181q69 82 170.5 130.5t212.5 48.5q113 0 198 -49q88 -50 130.5 -131.5t26.5 -179.5q-17 -107 -98.5 -196t-196.5 -132q119 -46 181 -145.5
t43 -222.5q-18 -111 -93 -199q-76 -91 -187 -144t-234 -53zM227 370q-15 -93 25 -169q41 -77 120.5 -122t182.5 -45q109 0 202 46q95 46 157.5 122t77.5 168q14 94 -25 170q-39 77 -119.5 121.5t-185.5 44.5t-198 -45q-96 -46 -159.5 -122.5t-77.5 -168.5zM376 1066
q-13 -82 22 -151q36 -69 108 -109t165 -40q95 0 180 41t141.5 109t69.5 150q14 84 -22 151q-37 69 -108.5 109t-165.5 40q-96 0 -179 -40q-86 -41 -142 -109.5t-69 -150.5z" />
    <glyph glyph-name="nine" unicode="9" horiz-adv-x="1097" 
d="M881 588q-82 -43 -169 -57t-162 -0.5t-140.5 52t-109 95t-62.5 133.5t-6 163q20 122 98.5 226t196.5 165t247 61t226 -61q98 -62 144.5 -165.5t27.5 -225.5q-8 -50 -24.5 -91t-32.5 -66.5t-56 -82.5l-555 -734h-71zM291 972q-17 -110 24 -196q42 -90 126.5 -142
t196.5 -52q117 0 219 54t170 143.5t84 192.5q18 111 -25 202q-43 90 -128 142t-193 52q-121 0 -222 -55q-102 -55 -168.5 -145.5t-83.5 -195.5z" />
    <glyph glyph-name="colon" unicode=":" horiz-adv-x="334" 
d="M288 910q-18 0 -29.5 13.5t-8.5 32.5q3 18 18.5 31t33.5 13q21 0 33 -13t9 -31q-3 -19 -19 -32.5t-37 -13.5zM102 20q3 18 18.5 31t33.5 13q21 0 33 -13t9 -31q-3 -19 -19 -32.5t-37 -13.5q-18 0 -29.5 13.5t-8.5 32.5z" />
    <glyph glyph-name="semicolon" unicode=";" horiz-adv-x="380" 
d="M81 -112l118 338h63l-140 -338h-41zM295 954q3 20 19 33t37 13q18 0 29.5 -13t8.5 -33q-3 -18 -18.5 -31t-33.5 -13q-20 0 -32.5 13t-9.5 31z" />
    <glyph glyph-name="less" unicode="&#x3c;" horiz-adv-x="1243" 
d="M1186 268l-1000 284l15 94l1091 286l-11 -64l-1031 -268l946 -270z" />
    <glyph glyph-name="equal" unicode="=" horiz-adv-x="1243" 
d="M220 762l9 60h1045l-9 -60h-1045zM159 378l9 60h1045l-9 -60h-1045z" />
    <glyph glyph-name="greater" unicode="&#x3e;" horiz-adv-x="1243" 
d="M141 268l10 62l1032 270l-947 268l11 64l999 -286l-15 -94z" />
    <glyph glyph-name="question" unicode="?" horiz-adv-x="994" 
d="M471 -26q-19 0 -30.5 14t-8.5 32t18.5 31t34.5 13q20 0 32 -13t9 -31t-19 -32t-36 -14zM268 1066q15 98 80 182q65 83 158 131.5t195 48.5q106 0 182 -49q79 -50 117 -132.5t22 -180.5q-17 -102 -81.5 -187.5t-161.5 -132.5q-71 -34 -118 -93.5t-58 -130.5l-36 -226h-62
l36 226q13 88 71 161.5t147 116.5q79 38 132.5 109.5t67.5 156.5t-19 153q-33 69 -97.5 109t-150.5 40q-133 0 -237.5 -87t-124.5 -215h-62z" />
    <glyph glyph-name="at" unicode="@" horiz-adv-x="1756" 
d="M857 -136q-162 0 -297.5 50.5t-226 139.5t-131 218t-16.5 279q24 153 107.5 291t203 237.5t273.5 158t314 58.5t294.5 -58.5t223 -158t127.5 -237.5t15 -291q-16 -99 -62.5 -194t-122.5 -161.5t-159 -66.5q-58 0 -104 27q-50 27 -74 73.5t-15 104.5q-60 -84 -148 -132.5
t-195 -48.5q-114 0 -200 54q-88 54 -129 144.5t-24 199.5q18 112 89 200q72 91 175 144t215 53q107 0 179.5 -48.5t105.5 -132.5l26 161h63l-96 -603q-8 -55 36.5 -95.5t105.5 -40.5q101 0 174 104.5t97 257.5q30 187 -40.5 344.5t-220.5 249t-345 91.5q-196 0 -375.5 -91
t-300.5 -248.5t-151 -345.5q-22 -139 15.5 -257t121.5 -198.5t208.5 -126t273.5 -45.5zM574 551q-15 -96 22 -172q37 -78 110 -122t168 -44q136 0 237 103t125 253q22 139 -43.5 229t-211.5 90q-101 0 -186 -45q-88 -47 -147 -123.5t-74 -168.5z" />
    <glyph glyph-name="A" unicode="A" horiz-adv-x="1360" 
d="M99 0l755 1400h96l310 -1400h-66l-92 412h-715l-222 -412h-66zM420 472h669l-195 878z" />
    <glyph glyph-name="B" unicode="B" horiz-adv-x="1185" 
d="M107 0l222 1400h533q165 0 249.5 -93t57.5 -263q-14 -92 -54 -153q-32 -51 -72.5 -88t-78.5 -52q103 -34 148 -125t22 -240v-2q-30 -189 -144 -286.5t-281 -97.5h-602zM180 60h531q87 0 157 30.5t123.5 105t71.5 187.5q26 166 -44.5 244.5t-205.5 78.5h-531zM291 766h470
q131 0 227.5 72t117.5 206q24 148 -48.5 222t-205.5 74h-470z" />
    <glyph glyph-name="C" unicode="C" horiz-adv-x="1510" 
d="M806 -29q-216 0 -364 92t-208 257t-26 380q51 327 277 528t552 201q195 0 334.5 -75t210.5 -212l-67 -32q-67 121 -193 188.5t-297 67.5q-193 0 -355 -85.5t-266.5 -237t-134.5 -344.5q-31 -193 25.5 -344.5t191.5 -237t328 -85.5q171 0 318 67.5t253 189.5l57 -32
q-115 -137 -278 -211.5t-358 -74.5z" />
    <glyph glyph-name="D" unicode="D" horiz-adv-x="1401" 
d="M140 0l222 1400h467l1 1q216 0 365 -88t210 -246.5t28 -365.5t-144.5 -365.5t-288 -247t-392.5 -88.5h-468zM213 60l402 -1q193 0 355.5 82t266 228t132.5 331t-28 331t-193 228t-330 82l-403 -1z" />
    <glyph glyph-name="E" unicode="E" horiz-adv-x="1164" 
d="M140 0l222 1400h904l-10 -60h-841l-91 -577h720l-10 -60h-720l-101 -643h841l-10 -60h-904z" />
    <glyph glyph-name="F" unicode="F" horiz-adv-x="1081" 
d="M140 0l222 1400h904l-10 -60h-841l-91 -577h720l-10 -60h-720l-111 -703h-63z" />
    <glyph glyph-name="G" unicode="G" horiz-adv-x="1503" 
d="M808 -29q-216 0 -364 92t-208 257t-26 380q51 327 277 528t552 201q195 0 334.5 -75t210.5 -212l-67 -32q-67 121 -193 188.5t-297 67.5q-145 0 -275 -50t-228 -138t-164.5 -211.5t-89.5 -267.5q-31 -193 25.5 -344.5t192 -237t328.5 -85.5q170 0 316.5 66.5t251.5 187.5
l67 418h-644l9 60h707l-80 -507h1q-115 -137 -278 -211.5t-358 -74.5z" />
    <glyph glyph-name="H" unicode="H" horiz-adv-x="1379" 
d="M140 0l222 1400h63l-98 -620h972l98 620h63l-222 -1400h-63l114 720h-972l-114 -720h-63z" />
    <glyph glyph-name="I" unicode="I" horiz-adv-x="407" 
d="M172 0l222 1400h62l-222 -1400h-62z" />
    <glyph glyph-name="J" unicode="J" horiz-adv-x="1304" 
d="M607 -26q-177 0 -287 82q-110 81 -154 219t-17 309h63q-38 -244 70 -397t334 -153q227 0 382.5 148t195.5 402l130 816h63l-130 -816q-43 -271 -219.5 -440.5t-430.5 -169.5z" />
    <glyph glyph-name="K" unicode="K" horiz-adv-x="1048" 
d="M140 0l222 1400h63l-128 -806l835 806h81l-686 -662l453 -738h-79l-424 690l-195 -190l-79 -500h-63z" />
    <glyph glyph-name="L" unicode="L" horiz-adv-x="1164" 
d="M140 0l222 1400h63l-212 -1340h841l-10 -60h-904z" />
    <glyph glyph-name="M" unicode="M" horiz-adv-x="1499" 
d="M140 0l222 1400h63l368 -1128l725 1128h61l-222 -1400h-62l192 1228l-698 -1090h-37l-353 1090l-196 -1228h-63z" />
    <glyph glyph-name="N" unicode="N" horiz-adv-x="1304" 
d="M140 0l222 1400h70l685 -1292l205 1292h63l-222 -1400h-68l-687 1292l-205 -1292h-63z" />
    <glyph glyph-name="O" unicode="O" horiz-adv-x="1627" 
d="M808 -29q-216 0 -364 92t-208 257t-26 380q51 327 277 528t552 201q216 0 364 -92t208.5 -256.5t26.5 -380.5q-26 -161 -97.5 -296.5t-178.5 -231t-249.5 -148.5t-304.5 -53zM270 699q-31 -193 25.5 -344.5t192 -237t328.5 -85.5q292 0 501.5 186.5t256.5 480.5
q30 193 -26.5 344.5t-192 237t-328.5 85.5q-145 0 -275 -50t-228 -138t-164.5 -211.5t-89.5 -267.5z" />
    <glyph glyph-name="P" unicode="P" horiz-adv-x="1137" 
d="M140 0l222 1400h479q82 0 150.5 -24.5t120 -74t73.5 -134.5t6 -197q-18 -112 -66.5 -197t-116.5 -134.5t-144.5 -74t-158.5 -24.5h-416l-86 -540h-63zM298 600h416q52 0 103 11.5t102 38.5t92.5 67.5t72.5 103t43 140.5v1q16 87 3 151t-39.5 107.5t-70.5 70t-90 38
t-99 11.5h-416z" />
    <glyph glyph-name="Q" unicode="Q" horiz-adv-x="1634" 
d="M808 -29q-216 0 -364 92t-208 257t-26 380q51 327 277 528t552 201q216 0 364 -92t208.5 -256.5t26.5 -380.5q-48 -306 -247 -500l148 -168l-51 -42l-146 165q-223 -184 -534 -184zM270 699q-31 -193 25.5 -344.5t192 -237t328.5 -85.5q277 0 483 171l-244 273l52 44
l241 -273q182 180 226 452q30 193 -26.5 344.5t-192 237t-328.5 85.5q-145 0 -275 -50t-228 -138t-164.5 -211.5t-89.5 -267.5z" />
    <glyph glyph-name="R" unicode="R" horiz-adv-x="1158" 
d="M140 0l222 1400h479q82 0 150.5 -24.5t120 -74t73.5 -134.5t6 -197q-30 -187 -139 -292.5t-257 -130.5l242 -547h-73l-241 540h-434l-86 -540h-63zM298 600h416q52 0 103 11.5t102 38.5t92.5 67.5t72.5 103t43 140.5v1q16 87 3 151t-39.5 107.5t-70.5 70t-90 38t-99 11.5
h-416z" />
    <glyph glyph-name="S" unicode="S" horiz-adv-x="1283" 
d="M636 -26q-115 0 -216 34q-106 34 -174.5 96.5t-85.5 147.5l61 22q24 -110 138 -175t286 -65q117 0 228 39q112 40 184 112t87 165q17 98 -39 161q-94 106 -360 155q-140 25 -250 66q-115 41 -167 115t-33 195q18 113 103 200q83 83 207.5 129.5t259.5 46.5
q181 0 313.5 -75.5t164.5 -204.5l-64 -20q-23 111 -137 175.5t-287 64.5q-119 0 -227 -39q-111 -41 -183 -112.5t-87 -164.5q-17 -108 33 -167q44 -55 131.5 -86.5t233.5 -58.5q134 -25 240 -70q244 -102 211 -310q-18 -115 -103 -199q-84 -84 -207.5 -130.5t-260.5 -46.5z
" />
    <glyph glyph-name="T" unicode="T" horiz-adv-x="1346" 
d="M640 0l212 1340h-541l10 60h1147l-10 -60h-543l-212 -1340h-63z" />
    <glyph glyph-name="U" unicode="U" horiz-adv-x="1390" 
d="M690 -26q-176 0 -286 82q-110 81 -154.5 219.5t-17.5 308.5l130 816h63l-130 -816q-38 -244 70 -397t334 -153q227 0 382.5 148t195.5 402l130 816h63l-130 -816q-43 -271 -219.5 -440.5t-430.5 -169.5z" />
    <glyph glyph-name="V" unicode="V" horiz-adv-x="1200" 
d="M567 0l-309 1400h66l289 -1308l704 1308h68l-755 -1400h-63z" />
    <glyph glyph-name="W" unicode="W" horiz-adv-x="1653" 
d="M410 0l-152 1400h65l143 -1314l557 1314h50l144 -1314l556 1314h65l-594 -1400h-83l-137 1250l-532 -1250h-82z" />
    <glyph glyph-name="X" unicode="X" horiz-adv-x="1306" 
d="M78 0l648 704l-420 696h77l388 -646l595 646h77l-639 -696l423 -704h-77l-395 652l-597 -652h-80z" />
    <glyph glyph-name="Y" unicode="Y" horiz-adv-x="1189" 
d="M562 0l101 636l-363 764h73l332 -698l554 698h73l-606 -764l-101 -636h-63z" />
    <glyph glyph-name="Z" unicode="Z" horiz-adv-x="1381" 
d="M99 0l10 60l1303 1280h-1101l10 60h1182l-10 -60l-1303 -1280h1101l-10 -60h-1182z" />
    <glyph glyph-name="bracketleft" unicode="[" horiz-adv-x="512" 
d="M122 -112l240 1512h251l-10 -60h-188l-220 -1392h188l-10 -60h-251z" />
    <glyph glyph-name="backslash" unicode="\" horiz-adv-x="686" 
d="M505 -112l-184 1512h62l185 -1512h-63z" />
    <glyph glyph-name="bracketright" unicode="]" horiz-adv-x="512" 
d="M102 -112l10 60h188l220 1392h-188l10 60h250l-240 -1512h-250z" />
    <glyph glyph-name="asciicircum" unicode="^" horiz-adv-x="712" 
d="M257 1000l350 650h21l143 -650h-67l-110 502l-273 -502h-64z" />
    <glyph glyph-name="underscore" unicode="_" horiz-adv-x="1327" 
d="M122 -112l10 60h1045l-10 -60h-1045z" />
    <glyph glyph-name="grave" unicode="`" horiz-adv-x="595" 
d="M695 2310l-60 288h63l38 -288h-41z" />
    <glyph glyph-name="a" unicode="a" horiz-adv-x="1208" 
d="M589 -26q-231 0 -349.5 147t-82.5 379q37 232 202.5 379t396.5 147q154 0 261 -68.5t151 -189.5l36 232h62l-158 -1000h-62l37 232q-82 -121 -211 -189.5t-283 -68.5zM220 500q-32 -203 72.5 -332t306.5 -129t347 129t177 332t-72 332t-306 129t-347 -129t-178 -332z" />
    <glyph glyph-name="b" unicode="b" horiz-adv-x="1250" 
d="M652 -26q-154 0 -261 68.5t-151 189.5l-37 -232h-63l238 1500h63l-116 -732q82 121 211 189.5t283 68.5q231 0 349.5 -147t81.5 -379q-36 -232 -201.5 -379t-396.5 -147zM284 500q-32 -203 72 -332t306 -129t347.5 129t177.5 332q33 203 -72 332t-307 129t-346.5 -129
t-177.5 -332z" />
    <glyph glyph-name="c" unicode="c" horiz-adv-x="1145" 
d="M589 -26q-231 0 -349.5 147t-82.5 379q37 232 202.5 379t396.5 147q168 0 279.5 -81t145.5 -221l-68 -15q-32 117 -128.5 184.5t-239.5 67.5q-202 0 -347 -129t-178 -332q-32 -203 72.5 -332t306.5 -129q143 0 261 67.5t187 184.5l63 -15q-78 -140 -215 -221t-306 -81z
" />
    <glyph glyph-name="d" unicode="d" horiz-adv-x="1250" 
d="M589 -26q-231 0 -349.5 147t-82.5 379q37 232 202.5 379t396.5 147q154 0 261 -68.5t151 -189.5l116 732h62l-238 -1500h-62l37 232q-82 -121 -211 -189.5t-283 -68.5zM220 500q-32 -203 72.5 -332t306.5 -129t347 129t177 332t-72 332t-306 129t-347 -129t-178 -332z
" />
    <glyph glyph-name="e" unicode="e" 
d="M589 -26q-231 0 -349.5 147t-82.5 379q37 232 202.5 379t396.5 147t349.5 -147t81.5 -379l-5 -30h-966q-20 -191 84.5 -311t298.5 -120q143 0 261 67.5t187 184.5l63 -15q-78 -140 -215 -221t-306 -81zM226 530h901q21 191 -83.5 311t-298.5 120t-336.5 -120t-182.5 -311
z" />
    <glyph glyph-name="f" unicode="f" horiz-adv-x="679" 
d="M233 0l149 940h-166l9 60h166l48 300q15 95 92 159.5t176 64.5q101 0 156 -66l-51 -42q-40 48 -114 48q-70 0 -128.5 -48t-68.5 -116l-48 -300h337l-9 -60h-337l-149 -940h-62z" />
    <glyph glyph-name="g" unicode="g" horiz-adv-x="1250" 
d="M534 -500q-167 0 -290.5 106t-137.5 257l2 -1l60 25q7 -133 116.5 -230t258.5 -97q167 0 319 119.5t176 270.5l45 282q-82 -121 -211 -189.5t-283 -68.5q-231 0 -349.5 147t-82.5 379q37 232 202.5 379t396.5 147q154 0 261 -68.5t151 -189.5l36 232h62l-166 -1050
q-18 -116 -104.5 -220.5t-211.5 -167t-250 -62.5zM220 500q-32 -203 72.5 -332t306.5 -129t347 129t177 332t-72 332t-306 129t-347 -129t-178 -332z" />
    <glyph glyph-name="h" unicode="h" horiz-adv-x="1116" 
d="M140 0l238 1500h63l-107 -675q73 93 181.5 148t225.5 55q120 0 212 -56q92 -58 134.5 -153.5t24.5 -209.5l-96 -609h-62l96 609q17 102 -23 181q-38 82 -116 130t-180 48q-103 0 -196 -48q-94 -49 -157 -131t-79 -180l-96 -609h-63z" />
    <glyph glyph-name="i" unicode="i" horiz-adv-x="375" 
d="M147 0l158 1000h63l-158 -1000h-63zM344 1289q3 18 18.5 31t33.5 13q21 0 33 -13t9 -31q-3 -19 -19 -32.5t-37 -13.5q-18 0 -29.5 13.5t-8.5 32.5z" />
    <glyph glyph-name="j" unicode="j" horiz-adv-x="471" 
d="M-139 -440q139 0 243.5 83t124.5 209l181 1148h62l-181 -1148q-17 -100 -79 -178q-63 -82 -157 -128t-203 -46zM441 1289q3 18 18.5 31t33.5 13q21 0 33 -13t9 -31q-3 -19 -19 -32.5t-37 -13.5q-18 0 -29.5 13.5t-8.5 32.5z" />
    <glyph glyph-name="k" unicode="k" horiz-adv-x="986" 
d="M140 0l238 1500h63l-182 -1148l670 648h82l-414 -398l268 -602h-70l-247 552l-304 -294l-41 -258h-63z" />
    <glyph glyph-name="l" unicode="l" horiz-adv-x="345" 
d="M140 0l238 1500h63l-238 -1500h-63z" />
    <glyph glyph-name="m" unicode="m" horiz-adv-x="1888" 
d="M140 0l158 1000h63l-27 -175q74 94 182 148.5t225 54.5q124 0 218 -60t134 -161q72 101 185 161t236 60q120 0 211 -56q92 -58 135 -153.5t25 -209.5l-96 -609h-63l96 605q15 97 -21 180q-37 84 -112.5 133.5t-174.5 49.5q-101 0 -190 -46q-93 -48 -154.5 -130
t-77.5 -187l-96 -605h-62l96 605q16 106 -20 189q-37 82 -113 128t-176 46q-99 0 -191 -50q-92 -52 -154 -135t-77 -178l-96 -605h-63z" />
    <glyph glyph-name="n" unicode="n" horiz-adv-x="1116" 
d="M298 1000h63l-27 -175q72 94 181.5 148.5t225.5 54.5q120 0 212 -56q93 -58 135.5 -154t23.5 -209l-96 -609h-62l96 609q17 103 -23 181q-39 83 -117 130.5t-179 47.5q-103 0 -196 -48q-96 -51 -158 -132.5t-78 -178.5l-96 -609h-63z" />
    <glyph glyph-name="o" unicode="o" 
d="M589 -26q-231 0 -349.5 147t-82.5 379q37 232 202.5 379t396.5 147t349.5 -147t81.5 -379q-36 -232 -201.5 -379t-396.5 -147zM220 500q-32 -203 72.5 -332t306.5 -129t347 129t177 332t-72 332t-306 129t-347 -129t-178 -332z" />
    <glyph glyph-name="p" unicode="p" horiz-adv-x="1250" 
d="M60 -503l238 1500h63l-37 -232q82 121 211 189.5t283 68.5q231 0 349.5 -147t82.5 -379q-37 -232 -202.5 -379t-396.5 -147q-154 0 -261 68.5t-151 189.5l-116 -732h-63zM284 497q-32 -203 72 -332t306 -129t347 129t178 332q32 203 -72.5 332t-306.5 129t-347 -129
t-177 -332z" />
    <glyph glyph-name="q" unicode="q" horiz-adv-x="1250" 
d="M1083 232q-82 -121 -211 -189.5t-283 -68.5q-231 0 -349.5 147t-82.5 379q37 232 202.5 379t396.5 147q154 0 261 -68.5t151 -189.5l36 232h62l-237 -1500h-62zM220 500q-32 -203 72.5 -332t306.5 -129t347 129t177 332t-72 332t-306 129t-347 -129t-178 -332z" />
    <glyph glyph-name="r" unicode="r" horiz-adv-x="733" 
d="M140 0l158 1000h63l-27 -175q73 93 181.5 148t225.5 55q63 0 115 -15l-34 -56q-49 11 -91 11q-103 0 -196 -48q-94 -49 -157 -131t-79 -180l-96 -609h-63z" />
    <glyph glyph-name="s" unicode="s" horiz-adv-x="901" 
d="M446 -17q-76 0 -156 25q-80 26 -130.5 74.5t-61.5 114.5l63 23q14 -81 92.5 -127.5t202.5 -46.5q54 0 109.5 13.5t105.5 39t85.5 68t43.5 95.5q11 66 -25 106q-65 74 -253 108q-91 16 -180 47q-85 31 -122.5 85t-23.5 144q13 85 77 149q63 62 152.5 96t186.5 34
q137 0 234.5 -58t115.5 -157l-64 -21q-14 82 -92 127.5t-204 45.5q-73 0 -144.5 -22t-129.5 -73t-69 -121t24 -110q31 -38 92 -60t162 -41q108 -21 173 -50q179 -77 154 -229q-13 -87 -76 -148q-62 -62 -152.5 -96.5t-189.5 -34.5z" />
    <glyph glyph-name="t" unicode="t" horiz-adv-x="731" 
d="M537 0q-99 0 -156 64.5t-43 159.5l114 716h-214l9 60h214l50 315h63v-1l-49 -314h286l-9 -60h-287l-114 -716q-10 -68 32.5 -116t113.5 -48q65 0 123 39l-11 -69q-57 -30 -122 -30z" />
    <glyph glyph-name="u" unicode="u" horiz-adv-x="1074" 
d="M533 -26q-122 0 -212 57q-92 57 -135 152t-25 210l96 607h62l-96 -607q-15 -101 23 -180q37 -83 115.5 -131t180.5 -48q105 0 196 49q94 49 157 130.5t79 179.5l96 607h63l-158 -1000h-63l28 177q-73 -92 -182 -147.5t-225 -55.5z" />
    <glyph glyph-name="v" unicode="v" horiz-adv-x="996" 
d="M461 0l-224 1004h66l207 -930l500 930h67l-541 -1004h-75z" />
    <glyph glyph-name="w" unicode="w" horiz-adv-x="1665" 
d="M429 0l-193 1000h61l180 -928l473 928h80l179 -928l473 928h62l-508 -1000h-73l-184 940l-479 -940h-71z" />
    <glyph glyph-name="x" unicode="x" horiz-adv-x="1041" 
d="M99 0l462 502l-303 502h77l273 -450l414 450h78l-462 -502l303 -502h-78l-271 452l-416 -452h-77z" />
    <glyph glyph-name="y" unicode="y" horiz-adv-x="1020" 
d="M204 -500l269 500l-216 1000h69l191 -916l496 916h65l-808 -1500h-66z" />
    <glyph glyph-name="z" unicode="z" horiz-adv-x="1090" 
d="M99 0l10 60l947 880h-808l9 60h892l-9 -60l-948 -880h809l-10 -60h-892z" />
    <glyph glyph-name="braceleft" unicode="{" horiz-adv-x="857" 
d="M668 -114q-102 0 -177 48q-77 48 -113 127.5t-21 174.5l39 246q3 34 -22 55.5t-56.5 30.5t-56 27.5t-19.5 46.5q5 32 35.5 51.5t64.5 26.5t66 28t39 56l39 246q15 96 77 176q63 81 154 127.5t191 46.5h50l-10 -60h-50q-84 0 -157 -39q-76 -40 -127.5 -106t-64.5 -145
l-39 -248q-9 -43 -25 -65q-14 -21 -43 -38.5t-104 -56.5q69 -43 83 -53q28 -19 36 -40.5t3 -64.5l-40 -248q-19 -122 55.5 -206t201.5 -84h50l-9 -60h-50z" />
    <glyph glyph-name="bar" unicode="|" horiz-adv-x="386" 
d="M113 -302l270 1702h63l-270 -1702h-63z" />
    <glyph glyph-name="braceright" unicode="}" horiz-adv-x="857" 
d="M102 -114l9 60h50q128 0 229 84t120 206l40 248q6 37 23 65q4 6 10 12t15.5 13t17.5 12t23 13t24 13t28.5 15t29.5 15q-49 30 -81 53q-28 19 -36.5 41.5t-3.5 65.5l39 248q13 78 -19 146q-31 67 -94 105.5t-144 38.5h-50l10 60h50q100 0 176 -47q77 -49 113.5 -128.5
t20.5 -174.5l-39 -246q-3 -29 13 -47.5t41 -27.5t49 -18t39.5 -25.5t11.5 -43.5q-5 -28 -35 -46.5t-64.5 -27.5t-66.5 -30.5t-39 -55.5l-39 -246q-15 -95 -77 -175q-63 -81 -153.5 -128t-190.5 -47h-50z" />
    <glyph glyph-name="asciitilde" unicode="~" horiz-adv-x="1244" 
d="M970 443q-49 0 -107.5 26t-112 63.5t-105.5 75t-104.5 63t-92.5 24.5q-87 2 -149.5 -64t-53.5 -150l-63 -14q-11 70 26 136q37 68 105.5 111t146.5 43q46 0 102 -26t108 -63l104 -74t107 -63t101 -26q88 0 152 64t52 144l64 18q12 -73 -27 -140t-108 -107.5t-145 -40.5z
" />
    <glyph glyph-name="exclamdown" unicode="&#xa1;" horiz-adv-x="292" 
d="M50 -400l155 980h63l-155 -980h-63zM254 980q3 20 18.5 33t34.5 13q22 0 33 -13t8 -33q-3 -18 -19 -31t-37 -13q-18 0 -29.5 13t-8.5 31z" />
    <glyph glyph-name="cent" unicode="&#xa2;" horiz-adv-x="1172" 
d="M620 200q-136 9 -236 79q-101 70 -148 181t-26 242q21 135 104 243q84 112 205.5 180t258.5 77l32 198h63l-32 -198q131 -6 232.5 -70.5t150.5 -169.5l-58 -30q-46 96 -145 154t-217 58q-125 0 -240 -59q-117 -61 -195 -162t-97 -221q-20 -126 29 -225q48 -101 144 -160
t219 -59q118 0 235 58t193 154l50 -30q-83 -105 -205 -169.5t-254 -70.5l-32 -200h-63z" />
    <glyph glyph-name="sterling" unicode="&#xa3;" horiz-adv-x="1216" 
d="M133 60q136 0 240.5 67t121.5 173q13 91 -3 137q-1 5 -5 15h-292l9 60h250q-26 36 -86 86q-40 33 -72 75q-76 94 -48 267q16 99 70.5 189.5t132.5 155t178 103t204 38.5q140 0 246.5 -65t156.5 -176.5t29 -244.5h-63q18 115 -25 214q-47 98 -140 155t-214 57
q-123 0 -232 -58q-112 -59 -187.5 -156t-93.5 -212q-15 -98 0 -156q15 -55 45.5 -93t78.5 -74q45 -36 74 -68q16 -17 27 -37h439l-9 -60h-408q14 -62 1 -152q-12 -76 -73 -141t-153 -99h794l-10 -60h-993z" />
    <glyph glyph-name="currency" unicode="&#xa4;" horiz-adv-x="1024" 
d="M190 304l-36 42l144 122q-71 103 -50.5 231.5t125.5 230.5l-107 124l50 42l110 -124q118 85 254 85.5t227 -83.5l147 122l37 -42l-144 -122q74 -102 54 -232.5t-126 -233.5l104 -120l-51 -42l-106 120q-122 -88 -257 -87.5t-230 89.5zM312 698q-14 -88 18 -153
q33 -69 98.5 -108t147.5 -39q131 0 236 87t125 213q20 127 -56.5 212.5t-209.5 85.5t-236.5 -85.5t-122.5 -212.5z" />
    <glyph glyph-name="yen" unicode="&#xa5;" horiz-adv-x="1231" 
d="M583 0l36 227h-349l9 60h349l33 206h-349l10 60h349l13 83l-363 764h73l331 -698l555 698h73l-606 -764l-13 -83h349l-10 -60h-349l-33 -206h349l-9 -60h-349l-36 -227h-63z" />
    <glyph glyph-name="brokenbar" unicode="&#xa6;" horiz-adv-x="345" 
d="M243 650l119 750h63l-119 -750h-63zM92 -302l119 750h63l-119 -750h-63z" />
    <glyph glyph-name="section" unicode="&#xa7;" horiz-adv-x="1135" 
d="M519 -424q-130 0 -227 55.5t-121 142.5l60 30q19 -75 103 -121.5t194 -46.5q134 0 233.5 61.5t114.5 156.5q11 70 -20 109q-27 37 -89 61.5t-170 47.5q-125 27 -222 82q-193 113 -156 344q23 142 134.5 250.5t266.5 139.5q-154 20 -219 83t-47 175q14 86 76 148t153.5 96
t190.5 34q130 0 226.5 -55.5t119.5 -142.5l-59 -30q-18 75 -102.5 121.5t-194.5 46.5q-134 0 -233.5 -61.5t-114.5 -156.5q-12 -66 19 -108q28 -37 90 -61.5t170 -48.5q134 -31 224 -82q192 -109 154 -348q-23 -141 -135.5 -250t-266.5 -138q154 -19 219.5 -82t48.5 -174
q-13 -84 -76 -147q-63 -62 -154 -96.5t-190 -34.5zM282 498q-15 -98 25 -174q42 -78 118 -123t167 -45q100 0 189 46q91 46 152 122.5t76 167.5q18 111 -24 190q-42 77 -118 119.5t-166 42.5q-101 0 -190 -45q-92 -46 -152.5 -124.5t-76.5 -176.5z" />
    <glyph glyph-name="dieresis" unicode="&#xa8;" horiz-adv-x="1229" 
d="M1110 2289q-21 0 -34 13t-10 31q2 18 20 32t38 14q18 0 30.5 -14t10.5 -32q-3 -18 -19.5 -31t-35.5 -13zM803 2333q2 18 19.5 32t37.5 14q19 0 31 -14t10 -32q-3 -18 -19.5 -31t-35.5 -13q-20 0 -33 13t-10 31z" />
    <glyph glyph-name="copyright" unicode="&#xa9;" horiz-adv-x="1832" 
d="M894 -138q-224 0 -395.5 104t-251.5 283.5t-46 394.5t171 394.5t341.5 283.5t428.5 104t395.5 -104t251.5 -283.5t46 -394.5t-171 -394.5t-341.5 -283.5t-428.5 -104zM263 644q-24 -150 15 -284.5t125.5 -230t217 -151.5t283.5 -56q208 0 397 97.5t314.5 263t156.5 361.5
q24 149 -15 283.5t-125 231t-216.5 153t-283.5 54.5q-207 -1 -396 -98.5t-315.5 -263t-157.5 -360.5zM507 644q23 144 112.5 266t221 192t273.5 70q126 0 226.5 -56.5t155.5 -153.5l-58 -28q-52 85 -142 131.5t-192 46.5q-128 0 -243 -64q-115 -65 -193 -172t-98 -232
q-21 -128 26 -234q46 -107 141 -169.5t219 -62.5q107 0 211 49t179 129l50 -28q-86 -97 -204.5 -153.5t-244.5 -56.5q-144 0 -251 71q-110 72 -161 192t-28 263z" />
    <glyph glyph-name="ordfeminine" unicode="&#xaa;" horiz-adv-x="817" 
d="M519 732q-147 0 -222 93.5t-52 241.5q23 147 128 240.5t252 93.5q98 0 166 -43.5t95 -120.5l23 147h40l-100 -635h-40l23 147q-52 -77 -133.5 -120.5t-179.5 -43.5zM285 1067q-20 -129 46 -211t195 -82q128 0 220 82t112 211q20 128 -46 210t-194 82q-129 0 -221 -81.5
t-112 -210.5z" />
    <glyph glyph-name="guillemotleft" unicode="&#xab;" horiz-adv-x="1326" 
d="M495 261l-260 340l368 338h84l-368 -338l260 -340h-84zM882 601l368 338h84l-368 -338l260 -340h-84z" />
    <glyph glyph-name="logicalnot" unicode="&#xac;" horiz-adv-x="1007" 
d="M897 335l74 470h-745l10 60h808l-84 -530h-63z" />
    <glyph glyph-name="uni00AD" unicode="&#xad;" horiz-adv-x="992" 
d="M297 570l10 60h669l-10 -60h-669z" />
    <glyph glyph-name="registered" unicode="&#xae;" horiz-adv-x="968" 
d="M564 512q-112 1 -197 54t-124 141.5t-22 192.5q25 161 161 274.5t305 113.5q170 0 269.5 -115t75.5 -273q-26 -159 -162 -272.5t-306 -115.5zM283 900q-15 -90 21 -164q35 -76 106 -120t164 -44q94 0 179 45q86 45 144 119.5t72 163.5q13 89 -20 165q-37 76 -108 119.5
t-164 43.5t-178 -44q-86 -46 -144 -120.5t-72 -163.5zM481 714l60 380h145q46 0 72 -31.5t19 -78.5q-6 -39 -34.5 -68.5t-67.5 -37.5l73 -164h-73l-72 162h-33l-26 -162h-63zM579 936h82q19 0 34.5 14.5t18.5 33.5q3 21 -7.5 35.5t-29.5 14.5h-82z" />
    <glyph glyph-name="macron" unicode="&#xaf;" horiz-adv-x="1285" 
d="M573 1790l9 60h706l-9 -60h-706z" />
    <glyph glyph-name="degree" unicode="&#xb0;" horiz-adv-x="599" 
d="M440 888q-84 0 -133.5 55.5t-36.5 136.5t79.5 136.5t150.5 55.5q85 0 134.5 -55.5t36.5 -136.5t-79.5 -136.5t-151.5 -55.5zM332 1080q-9 -55 25.5 -93.5t91.5 -38.5q58 0 104 38.5t55 93.5q9 56 -24.5 94t-92.5 38q-57 0 -103.5 -38t-55.5 -94z" />
    <glyph glyph-name="plusminus" unicode="&#xb1;" horiz-adv-x="1243" 
d="M634 280l78 490h-491l9 60h491l75 470h62l-75 -470h492l-9 -60h-492l-78 -490h-62zM99 0l10 60h1045l-10 -60h-1045z" />
    <glyph glyph-name="acute" unicode="&#xb4;" horiz-adv-x="595" 
d="M590 2310l129 288h62l-149 -288h-42z" />
    <glyph glyph-name="uni00B5" unicode="&#xb5;" horiz-adv-x="1074" 
d="M31 -432l226 1432h62l-86 -548q-19 -116 18 -210q37 -97 113.5 -152.5t178.5 -55.5q103 0 196 57q96 57 161 152.5t84 208.5l86 548h63l-158 -1000h-63l33 206q-83 -110 -190 -171t-221 -61q-120 0 -209.5 64t-130.5 170l-101 -640h-62z" />
    <glyph glyph-name="paragraph" unicode="&#xb6;" horiz-adv-x="764" 
d="M568 718q-99 0 -172 46q-74 46 -109 124t-20 170q15 94 75 172q61 79 149 124.5t185 45.5h63l-270 -1702h-63zM554 -302l270 1702h63l-270 -1702h-63z" />
    <glyph glyph-name="periodcentered" unicode="&#xb7;" horiz-adv-x="292" 
d="M232 555q-18 0 -29.5 13.5t-8.5 32.5q3 18 18.5 31t33.5 13q21 0 33 -13t9 -31q-3 -19 -19 -32.5t-37 -13.5z" />
    <glyph glyph-name="cedilla" unicode="&#xb8;" horiz-adv-x="1257" 
d="M560 -360q-62 -16 -111.5 14t-56.5 88l64 15q4 -33 32 -50.5t65 -8.5q38 9 60.5 39t17.5 64q-3 34 -31.5 51.5t-65.5 8.5l-77 -19l144 188l50 -30l-60 -78q42 -7 71 -35.5t33 -69.5q8 -58 -32 -110t-103 -67z" />
    <glyph glyph-name="ordmasculine" unicode="&#xba;" horiz-adv-x="815" 
d="M517 735q-146 0 -221 93t-52 240t128 239.5t251 92.5q147 0 221.5 -92.5t51.5 -239.5t-127.5 -240t-251.5 -93zM284 1068q-20 -128 46 -210t194 -82t220 81.5t112 210.5q20 128 -46 209.5t-194 81.5t-220 -81.5t-112 -209.5z" />
    <glyph glyph-name="guillemotright" unicode="&#xbb;" horiz-adv-x="1285" 
d="M808 261l367 340l-259 338h83l260 -338l-368 -340h-83zM161 261l367 340l-259 338h83l260 -338l-368 -340h-83z" />
    <glyph glyph-name="questiondown" unicode="&#xbf;" horiz-adv-x="954" 
d="M640 1026q19 0 30 -14t8 -32t-18.5 -31t-34.5 -13q-20 0 -32 13t-9 31t19.5 32t36.5 14zM89 -66q16 102 80.5 187.5t161.5 132.5q71 34 118.5 93.5t58.5 130.5l36 226h62l-36 -226q-14 -88 -72 -161.5t-146 -116.5q-80 -38 -133.5 -109.5t-66.5 -156.5q-14 -84 18 -153
q33 -69 98 -109t151 -40q133 0 237 87t125 215h62q-16 -98 -80 -182q-66 -83 -159 -131.5t-195 -48.5q-105 0 -182 49q-79 50 -116.5 132.5t-21.5 180.5z" />
    <glyph glyph-name="Agrave" unicode="&#xc0;" horiz-adv-x="1360" 
d="M99 0l755 1400h96l310 -1400h-66l-92 412h-715l-222 -412h-66zM420 472h669l-195 878zM899 1998h63l38 -288h-41z" />
    <glyph glyph-name="Aacute" unicode="&#xc1;" horiz-adv-x="1360" 
d="M99 0l755 1400h96l310 -1400h-66l-92 412h-715l-222 -412h-66zM420 472h669l-195 878zM914 1710l129 288h62l-149 -288h-42z" />
    <glyph glyph-name="Acircumflex" unicode="&#xc2;" horiz-adv-x="1360" 
d="M99 0l755 1400h96l310 -1400h-66l-92 412h-715l-222 -412h-66zM420 472h669l-195 878zM711 1710l245 288h63l156 -288h-81l-120 210l-182 -210h-81z" />
    <glyph glyph-name="Atilde" unicode="&#xc3;" horiz-adv-x="1360" 
d="M99 0l755 1400h96l310 -1400h-66l-92 412h-715l-222 -412h-66zM420 472h669l-195 878zM661 1745q-12 64 43 123t130 59q47 0 107 -36.5t117 -73t96 -36.5q37 0 66 38t22 68l62 18q11 -67 -44 -125.5t-132 -58.5q-36 0 -79.5 23t-77 50t-76 50t-76.5 23q-38 0 -68 -32.5
t-27 -73.5z" />
    <glyph glyph-name="Adieresis" unicode="&#xc4;" horiz-adv-x="1360" 
d="M99 0l755 1400h96l310 -1400h-66l-92 412h-715l-222 -412h-66zM420 472h669l-195 878zM786 1760q3 18 20.5 32t36.5 14t31.5 -14t9.5 -32t-19.5 -31t-35.5 -13q-20 0 -33 13t-10 31zM1049 1760q3 18 20.5 32t37.5 14q18 0 31 -14t10 -32t-19.5 -31t-35.5 -13
q-21 0 -34 13t-10 31z" />
    <glyph glyph-name="Aring" unicode="&#xc5;" horiz-adv-x="1360" 
d="M99 0l755 1400h96l310 -1400h-66l-92 412h-715l-222 -412h-66zM420 472h669l-195 878zM831 1855q9 57 57.5 97.5t108.5 40.5q59 0 95.5 -41t27.5 -97q-9 -58 -58.5 -99t-108.5 -41t-95 41.5t-27 98.5zM881 1855q-6 -39 17 -65.5t62 -26.5q40 0 71.5 26.5t37.5 65.5
q5 37 -17.5 62.5t-62.5 25.5q-38 0 -70.5 -26t-37.5 -62z" />
    <glyph glyph-name="AE" unicode="&#xc6;" horiz-adv-x="1916" 
d="M1095 762h695l-9 -53h-695l-104 -656h832l-8 -53h-893l62 392h-591l-211 -392h-64l755 1400h1164l-9 -53h-832zM413 446h571l142 901h-226z" />
    <glyph glyph-name="Ccedilla" unicode="&#xc7;" horiz-adv-x="1510" 
d="M736 -397q-62 -16 -111.5 14t-56.5 88l64 15q4 -33 32 -50.5t65 -8.5t60.5 39t18.5 64q-4 34 -32.5 51.5t-65.5 8.5l-77 -19l128 167q-304 15 -453.5 214t-99.5 514q51 327 277 528t552 201q195 0 334.5 -75t210.5 -212l-67 -32q-67 121 -193 188.5t-297 67.5
q-193 0 -355 -85.5t-266.5 -237t-134.5 -344.5q-31 -193 25.5 -344.5t191.5 -237t328 -85.5q171 0 318 67.5t253 189.5l57 -32q-114 -135 -275 -210t-353 -76l13 -8l-60 -78q42 -7 71 -35.5t33 -69.5q8 -58 -32 -110t-103 -67z" />
    <glyph glyph-name="Egrave" unicode="&#xc8;" horiz-adv-x="1164" 
d="M140 0l222 1400h904l-10 -60h-841l-91 -577h720l-10 -60h-720l-101 -643h841l-10 -60h-904zM789 1998h63l38 -288h-41z" />
    <glyph glyph-name="Eacute" unicode="&#xc9;" horiz-adv-x="1164" 
d="M140 0l222 1400h904l-10 -60h-841l-91 -577h720l-10 -60h-720l-101 -643h841l-10 -60h-904zM820 1710l129 288h62l-149 -288h-42z" />
    <glyph glyph-name="Ecircumflex" unicode="&#xca;" horiz-adv-x="1164" 
d="M140 0l222 1400h904l-10 -60h-841l-91 -577h720l-10 -60h-720l-101 -643h841l-10 -60h-904zM667 1710l245 288h63l156 -288h-81l-120 210l-182 -210h-81z" />
    <glyph glyph-name="Edieresis" unicode="&#xcb;" horiz-adv-x="1164" 
d="M140 0l222 1400h904l-10 -60h-841l-91 -577h720l-10 -60h-720l-101 -643h841l-10 -60h-904zM681 1742q3 18 20.5 32t36.5 14t31.5 -14t9.5 -32t-19.5 -31t-35.5 -13q-20 0 -33 13t-10 31zM944 1742q3 18 20.5 32t37.5 14q18 0 31 -14t10 -32t-19.5 -31t-35.5 -13
q-21 0 -34 13t-10 31z" />
    <glyph glyph-name="Igrave" unicode="&#xcc;" horiz-adv-x="407" 
d="M172 0l222 1400h62l-222 -1400h-62zM429 1998h63l38 -288h-41z" />
    <glyph glyph-name="Iacute" unicode="&#xcd;" horiz-adv-x="407" 
d="M172 0l222 1400h62l-222 -1400h-62zM447 1710l129 288h62l-149 -288h-42z" />
    <glyph glyph-name="Icircumflex" unicode="&#xce;" horiz-adv-x="407" 
d="M172 0l222 1400h62l-222 -1400h-62zM234 1710l245 288h63l156 -288h-81l-120 210l-182 -210h-81z" />
    <glyph glyph-name="Idieresis" unicode="&#xcf;" horiz-adv-x="407" 
d="M172 0l222 1400h62l-222 -1400h-62zM295 1733q3 18 20.5 32t37.5 14q19 0 31 -14t9 -32q-2 -18 -18.5 -31t-35.5 -13q-20 0 -33 13t-11 31zM558 1733q3 18 21 32t38 14q18 0 30.5 -14t9.5 -32q-2 -18 -18.5 -31t-35.5 -13q-21 0 -34 12.5t-11 31.5z" />
    <glyph glyph-name="Eth" unicode="&#xd0;" horiz-adv-x="1231" 
d="M140 0l103 650h-271l9 60h271l110 690h467l1 1q216 0 365 -88t210 -246.5t28 -365.5t-144.5 -365.5t-288 -247t-392.5 -88.5h-468zM213 60l402 -1q193 0 355.5 82t266 228t132.5 331t-28 331t-193 228t-330 82l-403 -1l-100 -630h372l-9 -60h-372z" />
    <glyph glyph-name="Ntilde" unicode="&#xd1;" horiz-adv-x="1304" 
d="M140 0l222 1400h70l685 -1292l205 1292h63l-222 -1400h-68l-687 1292l-205 -1292h-63zM611 1741q-13 64 42.5 123t130.5 59q37 0 83.5 -23t82.5 -50t79 -50t74 -23q37 0 66 38t22 68l62 18q11 -67 -44 -125.5t-132 -58.5q-36 0 -79.5 23t-77 50t-76 50t-76.5 23
q-38 0 -68 -32.5t-27 -73.5z" />
    <glyph glyph-name="Ograve" unicode="&#xd2;" horiz-adv-x="1627" 
d="M808 -29q-216 0 -364 92t-208 257t-26 380q51 327 277 528t552 201q216 0 364 -92t208.5 -256.5t26.5 -380.5q-26 -161 -97.5 -296.5t-178.5 -231t-249.5 -148.5t-304.5 -53zM270 699q-31 -193 25.5 -344.5t192 -237t328.5 -85.5q292 0 501.5 186.5t256.5 480.5
q30 193 -26.5 344.5t-192 237t-328.5 85.5q-145 0 -275 -50t-228 -138t-164.5 -211.5t-89.5 -267.5zM1027 1998h63l38 -288h-41z" />
    <glyph glyph-name="Oacute" unicode="&#xd3;" horiz-adv-x="1627" 
d="M808 -29q-216 0 -364 92t-208 257t-26 380q51 327 277 528t552 201q216 0 364 -92t208.5 -256.5t26.5 -380.5q-26 -161 -97.5 -296.5t-178.5 -231t-249.5 -148.5t-304.5 -53zM270 699q-31 -193 25.5 -344.5t192 -237t328.5 -85.5q292 0 501.5 186.5t256.5 480.5
q30 193 -26.5 344.5t-192 237t-328.5 85.5q-145 0 -275 -50t-228 -138t-164.5 -211.5t-89.5 -267.5zM1045 1710l129 288h62l-149 -288h-42z" />
    <glyph glyph-name="Ocircumflex" unicode="&#xd4;" horiz-adv-x="1627" 
d="M808 -29q-216 0 -364 92t-208 257t-26 380q51 327 277 528t552 201q216 0 364 -92t208.5 -256.5t26.5 -380.5q-26 -161 -97.5 -296.5t-178.5 -231t-249.5 -148.5t-304.5 -53zM270 699q-31 -193 25.5 -344.5t192 -237t328.5 -85.5q292 0 501.5 186.5t256.5 480.5
q30 193 -26.5 344.5t-192 237t-328.5 85.5q-145 0 -275 -50t-228 -138t-164.5 -211.5t-89.5 -267.5zM876 1710l245 288h63l156 -288h-81l-120 210l-182 -210h-81z" />
    <glyph glyph-name="Otilde" unicode="&#xd5;" horiz-adv-x="1627" 
d="M808 -29q-216 0 -364 92t-208 257t-26 380q51 327 277 528t552 201q216 0 364 -92t208.5 -256.5t26.5 -380.5q-26 -161 -97.5 -296.5t-178.5 -231t-249.5 -148.5t-304.5 -53zM270 699q-31 -193 25.5 -344.5t192 -237t328.5 -85.5q292 0 501.5 186.5t256.5 480.5
q30 193 -26.5 344.5t-192 237t-328.5 85.5q-145 0 -275 -50t-228 -138t-164.5 -211.5t-89.5 -267.5zM736 1733q-12 64 43 123t130 59q47 0 107 -36.5t117 -73t96 -36.5q37 0 66 38t22 68l62 18q11 -67 -44 -125.5t-132 -58.5q-36 0 -79.5 23t-77 50t-76 50t-76.5 23
q-38 0 -68 -32.5t-27 -73.5z" />
    <glyph glyph-name="Odieresis" unicode="&#xd6;" horiz-adv-x="1627" 
d="M808 -29q-216 0 -364 92t-208 257t-26 380q51 327 277 528t552 201q216 0 364 -92t208.5 -256.5t26.5 -380.5q-26 -161 -97.5 -296.5t-178.5 -231t-249.5 -148.5t-304.5 -53zM270 699q-31 -193 25.5 -344.5t192 -237t328.5 -85.5q292 0 501.5 186.5t256.5 480.5
q30 193 -26.5 344.5t-192 237t-328.5 85.5q-145 0 -275 -50t-228 -138t-164.5 -211.5t-89.5 -267.5zM904 1733q3 18 20.5 32t37.5 14q19 0 31 -14t9 -32q-2 -18 -18.5 -31t-35.5 -13q-20 0 -33 13t-11 31zM1167 1733q3 18 21 32t38 14q18 0 30.5 -14t9.5 -32
q-2 -18 -18.5 -31t-35.5 -13q-21 0 -34 12.5t-11 31.5z" />
    <glyph glyph-name="multiply" unicode="&#xd7;" horiz-adv-x="982" 
d="M178 226l-37 42l399 332l-293 332l49 42l295 -332l400 332l39 -42l-401 -332l295 -332l-51 -42l-296 332z" />
    <glyph glyph-name="Oslash" unicode="&#xd8;" horiz-adv-x="1627" 
d="M808 -29q-59 0 -120 8l-74 -188h-70l79 200q-237 55 -347 244t-66 465q51 327 277 528t552 201q77 0 144 -12l69 177h71l-75 -191q226 -61 329.5 -247.5t60.5 -455.5q-26 -161 -97.5 -296.5t-178.5 -231t-249.5 -148.5t-304.5 -53zM270 699q-39 -246 62.5 -420.5
t313.5 -226.5l512 1303q-64 11 -131 11q-145 0 -275 -50t-228 -138t-164.5 -211.5t-89.5 -267.5zM712 39q46 -7 104 -7q292 0 501.5 186.5t256.5 480.5q37 238 -57 409.5t-294 230.5z" />
    <glyph glyph-name="Ugrave" unicode="&#xd9;" horiz-adv-x="1390" 
d="M690 -26q-176 0 -286 82q-110 81 -154.5 219.5t-17.5 308.5l130 816h63l-130 -816q-38 -244 70 -397t334 -153q227 0 382.5 148t195.5 402l130 816h63l-130 -816q-43 -271 -219.5 -440.5t-430.5 -169.5zM907 1998h63l38 -288h-41z" />
    <glyph glyph-name="Uacute" unicode="&#xda;" horiz-adv-x="1390" 
d="M690 -26q-176 0 -286 82q-110 81 -154.5 219.5t-17.5 308.5l130 816h63l-130 -816q-38 -244 70 -397t334 -153q227 0 382.5 148t195.5 402l130 816h63l-130 -816q-43 -271 -219.5 -440.5t-430.5 -169.5zM911 1710l129 288h62l-149 -288h-42z" />
    <glyph glyph-name="Ucircumflex" unicode="&#xdb;" horiz-adv-x="1390" 
d="M690 -26q-176 0 -286 82q-110 81 -154.5 219.5t-17.5 308.5l130 816h63l-130 -816q-38 -244 70 -397t334 -153q227 0 382.5 148t195.5 402l130 816h63l-130 -816q-43 -271 -219.5 -440.5t-430.5 -169.5zM749 1710l245 288h63l156 -288h-81l-120 210l-182 -210h-81z" />
    <glyph glyph-name="Udieresis" unicode="&#xdc;" horiz-adv-x="1390" 
d="M690 -26q-176 0 -286 82q-110 81 -154.5 219.5t-17.5 308.5l130 816h63l-130 -816q-38 -244 70 -397t334 -153q227 0 382.5 148t195.5 402l130 816h63l-130 -816q-43 -271 -219.5 -440.5t-430.5 -169.5zM799 1733q3 18 20.5 32t37.5 14q19 0 31 -14t9 -32
q-2 -18 -18.5 -31t-35.5 -13q-20 0 -33 13t-11 31zM1062 1733q3 18 21 32t38 14q18 0 30.5 -14t9.5 -32q-2 -18 -18.5 -31t-35.5 -13q-21 0 -34 12.5t-11 31.5z" />
    <glyph glyph-name="Yacute" unicode="&#xdd;" horiz-adv-x="1189" 
d="M562 0l101 636l-363 764h73l332 -698l554 698h73l-606 -764l-101 -636h-63zM790 1710l129 288h62l-149 -288h-42z" />
    <glyph glyph-name="Thorn" unicode="&#xde;" horiz-adv-x="1178" 
d="M102 -243l260 1642h63l-39 -242h416q82 0 150.5 -24.5t120 -74t73.5 -134.5t6 -197q-18 -112 -66.5 -197t-116.5 -134.5t-144.5 -74t-158.5 -24.5h-416l-85 -540h-63zM260 357h416q66 0 129 19.5t122.5 59.5t103 113t58.5 169v1q16 87 3 151t-39.5 107.5t-70.5 70t-90 38
t-99 11.5h-416z" />
    <glyph glyph-name="germandbls" unicode="&#xdf;" horiz-adv-x="969" 
d="M525 7q-107 0 -174 28l10 66q115 -34 201 -27t148 53.5t98 116t50 161.5q13 80 -1.5 143t-46 101.5t-78 63t-93 34t-96.5 9.5h-61l10 65h55q129 0 220.5 68t114.5 210q19 121 -34 190.5t-176 69.5q-83 0 -143 -24t-99 -73t-61.5 -113t-37.5 -155l-187 -1183h-72l193 1221
q63 392 418 392q143 0 220.5 -80.5t51.5 -244.5q-18 -114 -73 -187.5t-156 -122.5q125 -47 177 -137t27 -247q-28 -177 -138.5 -287.5t-266.5 -110.5z" />
    <glyph glyph-name="agrave" unicode="&#xe0;" horiz-adv-x="1208" 
d="M589 -26q-231 0 -349.5 147t-82.5 379q37 232 202.5 379t396.5 147q154 0 261 -68.5t151 -189.5l36 232h62l-158 -1000h-62l37 232q-82 -121 -211 -189.5t-283 -68.5zM220 500q-32 -203 72.5 -332t306.5 -129t347 129t177 332t-72 332t-306 129t-347 -129t-178 -332z
M755 1564h63l37 -288h-41z" />
    <glyph glyph-name="aacute" unicode="&#xe1;" horiz-adv-x="1208" 
d="M589 -26q-231 0 -349.5 147t-82.5 379q37 232 202.5 379t396.5 147q154 0 261 -68.5t151 -189.5l36 232h62l-158 -1000h-62l37 232q-82 -121 -211 -189.5t-283 -68.5zM220 500q-32 -203 72.5 -332t306.5 -129t347 129t177 332t-72 332t-306 129t-347 -129t-178 -332z
M739 1308l130 288h62l-150 -288h-42z" />
    <glyph glyph-name="acircumflex" unicode="&#xe2;" horiz-adv-x="1208" 
d="M589 -26q-231 0 -349.5 147t-82.5 379q37 232 202.5 379t396.5 147q154 0 261 -68.5t151 -189.5l36 232h62l-158 -1000h-62l37 232q-82 -121 -211 -189.5t-283 -68.5zM220 500q-32 -203 72.5 -332t306.5 -129t347 129t177 332t-72 332t-306 129t-347 -129t-178 -332z
M578 1315l246 288h63l155 -288h-81l-119 210l-183 -210h-81z" />
    <glyph glyph-name="atilde" unicode="&#xe3;" horiz-adv-x="1208" 
d="M589 -26q-231 0 -349.5 147t-82.5 379q37 232 202.5 379t396.5 147q154 0 261 -68.5t151 -189.5l36 232h62l-158 -1000h-62l37 232q-82 -121 -211 -189.5t-283 -68.5zM220 500q-32 -203 72.5 -332t306.5 -129t347 129t177 332t-72 332t-306 129t-347 -129t-178 -332z
M513 1356q-13 64 42.5 123t130.5 59q37 0 83.5 -23t82.5 -50t79 -50t74 -23q37 0 66 38t22 68l62 18q11 -67 -44 -125.5t-132 -58.5q-36 0 -79.5 23t-77 50t-76 50t-76.5 23q-38 0 -68 -32.5t-27 -73.5z" />
    <glyph glyph-name="adieresis" unicode="&#xe4;" horiz-adv-x="1208" 
d="M589 -26q-231 0 -349.5 147t-82.5 379q37 232 202.5 379t396.5 147q154 0 261 -68.5t151 -189.5l36 232h62l-158 -1000h-62l37 232q-82 -121 -211 -189.5t-283 -68.5zM220 500q-32 -203 72.5 -332t306.5 -129t347 129t177 332t-72 332t-306 129t-347 -129t-178 -332z
M667 1361q2 18 19.5 32t37.5 14q19 0 31 -14t10 -32q-3 -18 -19.5 -31t-35.5 -13q-20 0 -33 13t-10 31zM930 1361q2 18 20 32t38 14q18 0 30.5 -14t10.5 -32q-3 -18 -19.5 -31t-35.5 -13q-21 0 -34 13t-10 31z" />
    <glyph glyph-name="aring" unicode="&#xe5;" horiz-adv-x="1208" 
d="M589 -26q-231 0 -349.5 147t-82.5 379q37 232 202.5 379t396.5 147q154 0 261 -68.5t151 -189.5l36 232h62l-158 -1000h-62l37 232q-82 -121 -211 -189.5t-283 -68.5zM220 500q-32 -203 72.5 -332t306.5 -129t347 129t177 332t-72 332t-306 129t-347 -129t-178 -332z
M699 1464q9 57 57.5 97.5t108.5 40.5q59 0 95.5 -41t27.5 -97q-9 -58 -58.5 -99t-108.5 -41t-95 41.5t-27 98.5zM749 1464q-6 -39 17 -65.5t62 -26.5q40 0 71.5 26.5t37.5 65.5q5 37 -17.5 62.5t-62.5 25.5q-38 0 -70.5 -26t-37.5 -62z" />
    <glyph glyph-name="ae" unicode="&#xe6;" horiz-adv-x="2147" 
d="M589 -26q-231 0 -349.5 147t-82.5 379q37 232 202.5 379t396.5 147q154 0 261 -68.5t151 -189.5l36 232h62l-34 -219q82 115 208 180t277 65q231 0 349.5 -147t81.5 -379l-5 -30h-961l-8 -51q-2 -171 101.5 -275.5t284.5 -104.5q143 0 261 67.5t187 184.5l63 -15
q-78 -140 -215 -221t-306 -81q-151 0 -256 65t-151 180l-35 -219h-62l37 232q-82 -121 -211 -189.5t-283 -68.5zM220 500q-32 -203 72.5 -332t306.5 -129q187 0 327 112t186 293q2 28 6 56q4 22 11 56q11 181 -93 293t-291 112q-202 0 -347 -129t-178 -332zM1192 530h896
q21 191 -83.5 311t-298.5 120q-181 0 -317.5 -104.5t-188.5 -275.5z" />
    <glyph glyph-name="ccedilla" unicode="&#xe7;" horiz-adv-x="1095" 
d="M560 -360q-62 -16 -111.5 14t-56.5 88l64 15q4 -33 32 -50.5t65 -8.5q38 9 60.5 39t17.5 64q-3 34 -31.5 51.5t-65.5 8.5l-77 -19l101 133q-217 10 -326.5 155.5t-74.5 369.5q37 232 202.5 379t396.5 147q168 0 279.5 -81t145.5 -221l-68 -15q-32 117 -128.5 184.5
t-239.5 67.5q-202 0 -347 -129t-178 -332q-32 -203 72.5 -332t306.5 -129q143 0 261 67.5t187 184.5l63 -15q-74 -131 -198.5 -211t-279.5 -90l-41 -53q42 -7 71 -35.5t33 -69.5q8 -58 -32 -110t-103 -67z" />
    <glyph glyph-name="egrave" unicode="&#xe8;" 
d="M589 -26q-231 0 -349.5 147t-82.5 379q37 232 202.5 379t396.5 147t349.5 -147t81.5 -379l-5 -30h-966q-20 -191 84.5 -311t298.5 -120q143 0 261 67.5t187 184.5l63 -15q-78 -140 -215 -221t-306 -81zM226 530h901q21 191 -83.5 311t-298.5 120t-336.5 -120t-182.5 -311
zM722 1592h63l38 -288h-41z" />
    <glyph glyph-name="eacute" unicode="&#xe9;" 
d="M589 -26q-231 0 -349.5 147t-82.5 379q37 232 202.5 379t396.5 147t349.5 -147t81.5 -379l-5 -30h-966q-20 -191 84.5 -311t298.5 -120q143 0 261 67.5t187 184.5l63 -15q-78 -140 -215 -221t-306 -81zM226 530h901q21 191 -83.5 311t-298.5 120t-336.5 -120t-182.5 -311
zM612 1302l130 288h62l-150 -288h-42z" />
    <glyph glyph-name="ecircumflex" unicode="&#xea;" 
d="M589 -26q-231 0 -349.5 147t-82.5 379q37 232 202.5 379t396.5 147t349.5 -147t81.5 -379l-5 -30h-966q-20 -191 84.5 -311t298.5 -120q143 0 261 67.5t187 184.5l63 -15q-78 -140 -215 -221t-306 -81zM226 530h901q21 191 -83.5 311t-298.5 120t-336.5 -120t-182.5 -311
zM567 1307l246 288h63l155 -288h-81l-120 210l-182 -210h-81z" />
    <glyph glyph-name="edieresis" unicode="&#xeb;" 
d="M589 -26q-231 0 -349.5 147t-82.5 379q37 232 202.5 379t396.5 147t349.5 -147t81.5 -379l-5 -30h-966q-20 -191 84.5 -311t298.5 -120q143 0 261 67.5t187 184.5l63 -15q-78 -140 -215 -221t-306 -81zM226 530h901q21 191 -83.5 311t-298.5 120t-336.5 -120t-182.5 -311
zM631 1332q3 18 20.5 32t36.5 14t31.5 -14t9.5 -32t-19.5 -31t-35.5 -13q-20 0 -33 13t-10 31zM894 1332q3 18 20.5 32t37.5 14q18 0 31 -14t10 -32t-19.5 -31t-35.5 -13q-21 0 -34 13t-10 31z" />
    <glyph glyph-name="igrave" unicode="&#xec;" horiz-adv-x="345" 
d="M140 0l158 1000h63l-158 -1000h-63zM301 1592h63l38 -288h-41z" />
    <glyph glyph-name="iacute" unicode="&#xed;" horiz-adv-x="433" 
d="M140 0l158 1000h63l-158 -1000h-63zM353 1310l130 288h62l-150 -288h-42z" />
    <glyph glyph-name="icircumflex" unicode="&#xee;" horiz-adv-x="45" 
d="M-10 0l158 1000h63l-158 -1000h-63zM-6 1288l246 288h63l155 -288h-81l-120 210l-182 -210h-81z" />
    <glyph glyph-name="idieresis" unicode="&#xef;" horiz-adv-x="333" 
d="M140 0l158 1000h63l-158 -1000h-63zM200 1358q3 18 20.5 32t36.5 14t31.5 -14t9.5 -32t-19.5 -31t-35.5 -13q-20 0 -33 13t-10 31zM463 1358q3 18 20.5 32t37.5 14q18 0 31 -14t10 -32t-19.5 -31t-35.5 -13q-21 0 -34 13t-10 31z" />
    <glyph glyph-name="eth" unicode="&#xf0;" horiz-adv-x="1231" 
d="M619 -26q-142 0 -252 68t-162 182.5t-31 251.5q22 137 110 252.5t219 182.5t275 67q138 0 244.5 -61t160.5 -167q-5 152 -58.5 288t-147.5 230l-251 -133l-22 52l228 121q-137 110 -316 110l9 60q213 0 370 -137l214 113l22 -52l-194 -102q45 -48 78 -101
q84 -134 114.5 -307.5t0.5 -369.5q-26 -164 -110 -285q-87 -125 -216.5 -194t-284.5 -69zM236 476q-18 -120 28 -220q47 -103 142.5 -162.5t221.5 -59.5q132 0 247 62q116 62 193 162.5t95 217.5q19 122 -27 222q-47 102 -143.5 161t-224.5 59q-131 0 -244 -61
q-115 -61 -192 -162t-96 -219z" />
    <glyph glyph-name="ntilde" unicode="&#xf1;" horiz-adv-x="1116" 
d="M298 1000h63l-27 -175q72 94 181.5 148.5t225.5 54.5q120 0 212 -56q93 -58 135.5 -154t23.5 -209l-96 -609h-62l96 609q17 103 -23 181q-39 83 -117 130.5t-179 47.5q-103 0 -196 -48q-96 -51 -158 -132.5t-78 -178.5l-96 -609h-63zM486 1341q-12 64 43 123t130 59
q47 0 107 -36.5t117 -73t96 -36.5q37 0 66 38t22 68l62 18q11 -67 -44 -125.5t-132 -58.5q-36 0 -79.5 23t-77 50t-76 50t-76.5 23q-38 0 -68 -32.5t-27 -73.5z" />
    <glyph glyph-name="ograve" unicode="&#xf2;" 
d="M589 -26q-231 0 -349.5 147t-82.5 379q37 232 202.5 379t396.5 147t349.5 -147t81.5 -379q-36 -232 -201.5 -379t-396.5 -147zM220 500q-32 -203 72.5 -332t306.5 -129t347 129t177 332t-72 332t-306 129t-347 -129t-178 -332zM729 1591h63l37 -288h-41z" />
    <glyph glyph-name="oacute" unicode="&#xf3;" 
d="M589 -26q-231 0 -349.5 147t-82.5 379q37 232 202.5 379t396.5 147t349.5 -147t81.5 -379q-36 -232 -201.5 -379t-396.5 -147zM220 500q-32 -203 72.5 -332t306.5 -129t347 129t177 332t-72 332t-306 129t-347 -129t-178 -332zM756 1286l129 288h62l-149 -288h-42z" />
    <glyph glyph-name="ocircumflex" unicode="&#xf4;" 
d="M589 -26q-231 0 -349.5 147t-82.5 379q37 232 202.5 379t396.5 147t349.5 -147t81.5 -379q-36 -232 -201.5 -379t-396.5 -147zM220 500q-32 -203 72.5 -332t306.5 -129t347 129t177 332t-72 332t-306 129t-347 -129t-178 -332zM566 1288l246 288h63l155 -288h-81
l-120 210l-182 -210h-81z" />
    <glyph glyph-name="otilde" unicode="&#xf5;" 
d="M589 -26q-231 0 -349.5 147t-82.5 379q37 232 202.5 379t396.5 147t349.5 -147t81.5 -379q-36 -232 -201.5 -379t-396.5 -147zM220 500q-32 -203 72.5 -332t306.5 -129t347 129t177 332t-72 332t-306 129t-347 -129t-178 -332zM490 1340q-12 64 43 123t130 59
q47 0 107 -36.5t117 -73t96 -36.5q37 0 66 38t22 68l62 18q11 -67 -44.5 -125.5t-132.5 -58.5q-36 0 -79 23t-76.5 50t-76 50t-76.5 23q-38 0 -68 -32.5t-27 -73.5z" />
    <glyph glyph-name="odieresis" unicode="&#xf6;" 
d="M589 -26q-231 0 -349.5 147t-82.5 379q37 232 202.5 379t396.5 147t349.5 -147t81.5 -379q-36 -232 -201.5 -379t-396.5 -147zM220 500q-32 -203 72.5 -332t306.5 -129t347 129t177 332t-72 332t-306 129t-347 -129t-178 -332zM617 1358q3 18 20.5 32t36.5 14t31.5 -14
t9.5 -32t-19.5 -31t-35.5 -13q-20 0 -33 13t-10 31zM880 1358q3 18 20.5 32t37.5 14q18 0 31 -14t10 -32t-19.5 -31t-35.5 -13q-21 0 -34 13t-10 31z" />
    <glyph glyph-name="divide" unicode="&#xf7;" horiz-adv-x="1243" 
d="M189 570l10 60h1045l-10 -60h-1045zM575 234q5 33 32.5 57.5t63.5 24.5q34 0 56 -25t17 -57t-34.5 -55t-63.5 -23q-37 0 -56.5 22.5t-14.5 55.5zM690 962q6 32 33 57t63 25q33 0 53.5 -25.5t15.5 -56.5q-5 -33 -32.5 -56.5t-61.5 -23.5q-37 0 -56.5 23t-14.5 57z" />
    <glyph glyph-name="oslash" unicode="&#xf8;" horiz-adv-x="1231" 
d="M589 -26q-79 0 -145 18l-78 -163h-70l88 184q-133 57 -193.5 186t-33.5 301q37 232 202.5 379t396.5 147q59 0 108 -10l64 134h71l-72 -150q150 -50 219.5 -183.5t40.5 -316.5q-36 -232 -201.5 -379t-396.5 -147zM220 500q-23 -149 28.5 -261t165.5 -163l420 877
q-45 8 -89 8q-202 0 -347 -129t-178 -332zM474 54q57 -15 125 -15q202 0 347 129t177 332q25 159 -35.5 276t-190.5 161z" />
    <glyph glyph-name="ugrave" unicode="&#xf9;" horiz-adv-x="1074" 
d="M533 -26q-122 0 -212 57q-92 57 -135 152t-25 210l96 607h62l-96 -607q-15 -101 23 -180q37 -83 115.5 -131t180.5 -48q105 0 196 49q94 49 157 130.5t79 179.5l96 607h63l-158 -1000h-63l28 177q-73 -92 -182 -147.5t-225 -55.5zM708 1590h63l37 -288h-41z" />
    <glyph glyph-name="uacute" unicode="&#xfa;" horiz-adv-x="1074" 
d="M533 -26q-122 0 -212 57q-92 57 -135 152t-25 210l96 607h62l-96 -607q-15 -101 23 -180q37 -83 115.5 -131t180.5 -48q105 0 196 49q94 49 157 130.5t79 179.5l96 607h63l-158 -1000h-63l28 177q-73 -92 -182 -147.5t-225 -55.5zM704 1294l130 288h62l-150 -288h-42z
" />
    <glyph glyph-name="ucircumflex" unicode="&#xfb;" horiz-adv-x="1074" 
d="M533 -26q-122 0 -212 57q-92 57 -135 152t-25 210l96 607h62l-96 -607q-15 -101 23 -180q37 -83 115.5 -131t180.5 -48q105 0 196 49q94 49 157 130.5t79 179.5l96 607h63l-158 -1000h-63l28 177q-73 -92 -182 -147.5t-225 -55.5zM529 1309l246 288h63l155 -288h-81
l-119 210l-183 -210h-81z" />
    <glyph glyph-name="udieresis" unicode="&#xfc;" horiz-adv-x="1074" 
d="M533 -26q-122 0 -212 57q-92 57 -135 152t-25 210l96 607h62l-96 -607q-15 -101 23 -180q37 -83 115.5 -131t180.5 -48q105 0 196 49q94 49 157 130.5t79 179.5l96 607h63l-158 -1000h-63l28 177q-73 -92 -182 -147.5t-225 -55.5zM573 1359q3 18 20.5 32t37.5 14
q19 0 31 -14t9 -32t-19.5 -31t-35.5 -13q-20 0 -33 13t-10 31zM836 1359q3 18 21 32t38 14q18 0 30.5 -14t9.5 -32t-19.5 -31t-35.5 -13q-21 0 -34 13t-10 31z" />
    <glyph glyph-name="yacute" unicode="&#xfd;" horiz-adv-x="1020" 
d="M204 -500l269 500l-216 1000h69l191 -916l496 916h65l-808 -1500h-66zM652 1308l130 288h62l-150 -288h-42z" />
    <glyph glyph-name="thorn" unicode="&#xfe;" horiz-adv-x="1231" 
d="M60 -504l302 1903h63l-101 -635q82 121 211 189.5t283 68.5q231 0 349.5 -147t82.5 -379q-37 -232 -202.5 -379t-396.5 -147q-154 0 -261 68.5t-151 189.5l-116 -732h-63zM284 496q-32 -203 72 -332t306 -129t347 129t178 332q32 203 -72.5 332t-306.5 129t-347 -129
t-177 -332z" />
    <glyph glyph-name="ydieresis" unicode="&#xff;" horiz-adv-x="1020" 
d="M204 -500l269 500l-216 1000h69l191 -916l496 916h65l-808 -1500h-66zM552 1329q3 18 20.5 32t37.5 14q19 0 31 -14t9 -32q-2 -18 -18.5 -31t-35.5 -13q-20 0 -33 13t-11 31zM815 1329q3 18 21 32t38 14q18 0 30.5 -14t9.5 -32q-2 -18 -18.5 -31t-35.5 -13
q-21 0 -34 12.5t-11 31.5z" />
    <glyph glyph-name="Amacron" unicode="&#x100;" horiz-adv-x="1360" 
d="M99 0l755 1400h96l310 -1400h-66l-92 412h-715l-222 -412h-66zM420 472h669l-195 878zM599 1737l10 60h706l-10 -60h-706z" />
    <glyph glyph-name="amacron" unicode="&#x101;" horiz-adv-x="1208" 
d="M589 -26q-231 0 -349.5 147t-82.5 379q37 232 202.5 379t396.5 147q154 0 261 -68.5t151 -189.5l36 232h62l-158 -1000h-62l37 232q-82 -121 -211 -189.5t-283 -68.5zM220 500q-32 -203 72.5 -332t306.5 -129t347 129t177 332t-72 332t-306 129t-347 -129t-178 -332z
M471 1323l9 60h706l-9 -60h-706z" />
    <glyph glyph-name="Abreve" unicode="&#x102;" horiz-adv-x="1360" 
d="M99 0l755 1400h96l310 -1400h-66l-92 412h-715l-222 -412h-66zM420 472h669l-195 878zM653 1958h63q-12 -76 17 -138q32 -62 91 -98t133 -36q119 0 214 79t113 193h62q-15 -94 -75 -169q-60 -76 -146 -119.5t-177 -43.5q-96 0 -167 45q-73 45 -107.5 121t-20.5 166z" />
    <glyph glyph-name="abreve" unicode="&#x103;" horiz-adv-x="1208" 
d="M589 -26q-231 0 -349.5 147t-82.5 379q37 232 202.5 379t396.5 147q154 0 261 -68.5t151 -189.5l36 232h62l-158 -1000h-62l37 232q-82 -121 -211 -189.5t-283 -68.5zM220 500q-32 -203 72.5 -332t306.5 -129t347 129t177 332t-72 332t-306 129t-347 -129t-178 -332z
M518 1591h63q-12 -76 17 -138q32 -62 91 -98t133 -36q119 0 214 79t113 193h62q-15 -94 -75 -169q-61 -76 -147 -119.5t-177 -43.5q-96 0 -166 45q-73 45 -107.5 121t-20.5 166z" />
    <glyph glyph-name="Aogonek" unicode="&#x104;" horiz-adv-x="1360" 
d="M99 0l755 1400h96l310 -1400h-1q-194 -162 -200 -168q-33 -30 -37 -59q-5 -32 14.5 -57t57.5 -27q44 0 83.5 29.5t47.5 77.5h62q-12 -73 -70.5 -120t-133.5 -47q-62 2 -97.5 43t-25.5 101t59 101l171 142l-88 396h-715l-222 -412h-66zM420 472h669l-195 878z" />
    <glyph glyph-name="aogonek" unicode="&#x105;" horiz-adv-x="1208" 
d="M589 -26q-231 0 -349.5 147t-82.5 379q37 232 202.5 379t396.5 147q154 0 261 -68.5t151 -189.5l36 232h62l-158 -1000h-2q-194 -162 -200 -168q-33 -30 -37 -59q-5 -32 14.5 -57t57.5 -27q44 0 83.5 29.5t47.5 77.5h62q-12 -73 -70.5 -120t-133.5 -47q-62 2 -97.5 43
t-25.5 101t59 101l184 153l33 205q-82 -121 -211 -189.5t-283 -68.5zM220 500q-32 -203 72.5 -332t306.5 -129t347 129t177 332t-72 332t-306 129t-347 -129t-178 -332z" />
    <glyph glyph-name="Cacute" unicode="&#x106;" horiz-adv-x="1510" 
d="M806 -29q-216 0 -364 92t-208 257t-26 380q51 327 277 528t552 201q195 0 334.5 -75t210.5 -212l-67 -32q-67 121 -193 188.5t-297 67.5q-193 0 -355 -85.5t-266.5 -237t-134.5 -344.5q-31 -193 25.5 -344.5t191.5 -237t328 -85.5q171 0 318 67.5t253 189.5l57 -32
q-115 -137 -278 -211.5t-358 -74.5zM1013 1710l129 288h62l-149 -288h-42z" />
    <glyph glyph-name="cacute" unicode="&#x107;" horiz-adv-x="1095" 
d="M589 -26q-231 0 -349.5 147t-82.5 379q37 232 202.5 379t396.5 147q168 0 279.5 -81t145.5 -221l-68 -15q-32 117 -128.5 184.5t-239.5 67.5q-202 0 -347 -129t-178 -332q-32 -203 72.5 -332t306.5 -129q143 0 261 67.5t187 184.5l63 -15q-78 -140 -215 -221t-306 -81z
M748 1310l130 288h62l-150 -288h-42z" />
    <glyph glyph-name="Cdotaccent" unicode="&#x10a;" horiz-adv-x="1510" 
d="M806 -29q-216 0 -364 92t-208 257t-26 380q51 327 277 528t552 201q195 0 334.5 -75t210.5 -212l-67 -32q-67 121 -193 188.5t-297 67.5q-193 0 -355 -85.5t-266.5 -237t-134.5 -344.5q-31 -193 25.5 -344.5t191.5 -237t328 -85.5q171 0 318 67.5t253 189.5l57 -32
q-115 -137 -278 -211.5t-358 -74.5zM1025 1781q3 20 19 32t36 12q19 0 30.5 -12.5t8.5 -30.5q-3 -20 -18.5 -32.5t-34.5 -12.5q-20 0 -32 12.5t-9 31.5z" />
    <glyph glyph-name="cdotaccent" unicode="&#x10b;" horiz-adv-x="1095" 
d="M589 -26q-231 0 -349.5 147t-82.5 379q37 232 202.5 379t396.5 147q168 0 279.5 -81t145.5 -221l-68 -15q-32 117 -128.5 184.5t-239.5 67.5q-202 0 -347 -129t-178 -332q-32 -203 72.5 -332t306.5 -129q143 0 261 67.5t187 184.5l63 -15q-78 -140 -215 -221t-306 -81z
M747 1357q3 20 19 32t36 12q19 0 30.5 -12.5t8.5 -30.5q-3 -20 -18.5 -32.5t-34.5 -12.5q-20 0 -32 12.5t-9 31.5z" />
    <glyph glyph-name="Ccaron" unicode="&#x10c;" horiz-adv-x="1510" 
d="M806 -29q-216 0 -364 92t-208 257t-26 380q51 327 277 528t552 201q195 0 334.5 -75t210.5 -212l-67 -32q-67 121 -193 188.5t-297 67.5q-193 0 -355 -85.5t-266.5 -237t-134.5 -344.5q-31 -193 25.5 -344.5t191.5 -237t328 -85.5q171 0 318 67.5t253 189.5l57 -32
q-115 -137 -278 -211.5t-358 -74.5zM880 1983h83l117 -210l180 210h83l-246 -288h-62z" />
    <glyph glyph-name="ccaron" unicode="&#x10d;" horiz-adv-x="1095" 
d="M589 -26q-231 0 -349.5 147t-82.5 379q37 232 202.5 379t396.5 147q168 0 279.5 -81t145.5 -221l-68 -15q-32 117 -128.5 184.5t-239.5 67.5q-202 0 -347 -129t-178 -332q-32 -203 72.5 -332t306.5 -129q143 0 261 67.5t187 184.5l63 -15q-78 -140 -215 -221t-306 -81z
M594 1582h83l116 -210l181 210h83l-246 -288h-62z" />
    <glyph glyph-name="Dcaron" unicode="&#x10e;" horiz-adv-x="1401" 
d="M140 0l222 1400h467l1 1q216 0 365 -88t210 -246.5t28 -365.5t-144.5 -365.5t-288 -247t-392.5 -88.5h-468zM213 60l402 -1q193 0 355.5 82t266 228t132.5 331t-28 331t-193 228t-330 82l-403 -1zM751 1985h83l117 -210l180 210h83l-245 -288h-62z" />
    <glyph glyph-name="dcaron" unicode="&#x10f;" horiz-adv-x="1187" 
d="M589 -26q-231 0 -349.5 147t-82.5 379q37 232 202.5 379t396.5 147q154 0 261 -68.5t151 -189.5l116 732h62l-238 -1500h-62l37 232q-82 -121 -211 -189.5t-283 -68.5zM220 500q-32 -203 72.5 -332t306.5 -129t347 129t177 332t-72 332t-306 129t-347 -129t-178 -332z
M618 1594h83l117 -210l180 210h83l-245 -288h-62z" />
    <glyph glyph-name="Dcroat" unicode="&#x110;" horiz-adv-x="1231" 
d="M140 0l103 650h-271l9 60h271l110 690h467l1 1q216 0 365 -88t210 -246.5t28 -365.5t-144.5 -365.5t-288 -247t-392.5 -88.5h-468zM213 60l402 -1q193 0 355.5 82t266 228t132.5 331t-28 331t-193 228t-330 82l-403 -1l-100 -630h372l-9 -60h-372z" />
    <glyph glyph-name="dcroat" unicode="&#x111;" horiz-adv-x="1231" 
d="M589 -26q-231 0 -349.5 147t-82.5 379q37 232 202.5 379t396.5 147q154 0 261 -68.5t151 -189.5l72 459h-344l10 60h344l34 213h62l-34 -213h300l-10 -60h-300l-194 -1227h-62l37 232q-82 -121 -211 -189.5t-283 -68.5zM220 500q-32 -203 72.5 -332t306.5 -129t347 129
t177 332t-72 332t-306 129t-347 -129t-178 -332z" />
    <glyph glyph-name="Emacron" unicode="&#x112;" horiz-adv-x="1164" 
d="M140 0l222 1400h904l-10 -60h-841l-91 -577h720l-10 -60h-720l-101 -643h841l-10 -60h-904zM531 1723l9 60h706l-9 -60h-706z" />
    <glyph glyph-name="emacron" unicode="&#x113;" 
d="M589 -26q-231 0 -349.5 147t-82.5 379q37 232 202.5 379t396.5 147t349.5 -147t81.5 -379l-5 -30h-966q-20 -191 84.5 -311t298.5 -120q143 0 261 67.5t187 184.5l63 -15q-78 -140 -215 -221t-306 -81zM226 530h901q21 191 -83.5 311t-298.5 120t-336.5 -120t-182.5 -311
zM487 1332l9 60h706l-9 -60h-706z" />
    <glyph glyph-name="Edotaccent" unicode="&#x116;" horiz-adv-x="1164" 
d="M140 0l222 1400h904l-10 -60h-841l-91 -577h720l-10 -60h-720l-101 -643h841l-10 -60h-904zM809 1752q4 20 19.5 32t35.5 12q19 0 31 -12.5t9 -30.5q-4 -20 -19 -32.5t-34 -12.5q-20 0 -32 12.5t-10 31.5z" />
    <glyph glyph-name="edotaccent" unicode="&#x117;" 
d="M589 -26q-231 0 -349.5 147t-82.5 379q37 232 202.5 379t396.5 147t349.5 -147t81.5 -379l-5 -30h-966q-20 -191 84.5 -311t298.5 -120q143 0 261 67.5t187 184.5l63 -15q-78 -140 -215 -221t-306 -81zM226 530h901q21 191 -83.5 311t-298.5 120t-336.5 -120t-182.5 -311
zM777 1403q3 20 19 32t36 12q19 0 30.5 -12.5t8.5 -30.5q-3 -20 -18.5 -32.5t-34.5 -12.5q-20 0 -32 12.5t-9 31.5z" />
    <glyph glyph-name="Eogonek" unicode="&#x118;" horiz-adv-x="1164" 
d="M140 0l222 1400h904l-10 -60h-841l-91 -577h720l-10 -60h-720l-101 -643h841l-10 -60h-3q-194 -162 -200 -168q-33 -30 -37 -59q-5 -32 14.5 -57t57.5 -27q44 0 83.5 29.5t47.5 77.5h62q-12 -73 -70.5 -120t-133.5 -47q-62 2 -97.5 43t-25.5 101t59 101l152 126h-813z
" />
    <glyph glyph-name="eogonek" unicode="&#x119;" 
d="M589 -26q-231 0 -349.5 147t-82.5 379q37 232 202.5 379t396.5 147t349.5 -147t81.5 -379l-5 -30h-966q-20 -191 84.5 -311t298.5 -120q143 0 261 67.5t187 184.5l63 -15q-65 -116 -171.5 -192.5t-239.5 -99.5q-178 -150 -180 -152q-33 -30 -37 -59q-5 -32 14.5 -57
t57.5 -27q44 0 83.5 29.5t47.5 77.5h62q-12 -73 -70.5 -120t-133.5 -47q-62 2 -97.5 43t-25.5 101t59 101l121 100h-11zM226 530h901q21 191 -83.5 311t-298.5 120t-336.5 -120t-182.5 -311z" />
    <glyph glyph-name="Ecaron" unicode="&#x11a;" horiz-adv-x="1164" 
d="M140 0l222 1400h904l-10 -60h-841l-91 -577h720l-10 -60h-720l-101 -643h841l-10 -60h-904zM707 1989h83l117 -210l180 210h83l-246 -288h-62z" />
    <glyph glyph-name="ecaron" unicode="&#x11b;" 
d="M589 -26q-231 0 -349.5 147t-82.5 379q37 232 202.5 379t396.5 147t349.5 -147t81.5 -379l-5 -30h-966q-20 -191 84.5 -311t298.5 -120q143 0 261 67.5t187 184.5l63 -15q-78 -140 -215 -221t-306 -81zM226 530h901q21 191 -83.5 311t-298.5 120t-336.5 -120t-182.5 -311
zM615 1553h83l117 -210l180 210h83l-246 -288h-62z" />
    <glyph glyph-name="Gbreve" unicode="&#x11e;" horiz-adv-x="1503" 
d="M808 -29q-216 0 -364 92t-208 257t-26 380q51 327 277 528t552 201q195 0 334.5 -75t210.5 -212l-67 -32q-67 121 -193 188.5t-297 67.5q-145 0 -275 -50t-228 -138t-164.5 -211.5t-89.5 -267.5q-31 -193 25.5 -344.5t192 -237t328.5 -85.5q170 0 316.5 66.5t251.5 187.5
l67 418h-644l9 60h707l-80 -507h1q-115 -137 -278 -211.5t-358 -74.5zM745 2053h63q-12 -76 17 -138q32 -62 91 -98t133 -36q119 0 214 79t113 193h62q-15 -94 -75 -169q-60 -76 -146 -119.5t-177 -43.5q-96 0 -167 45q-73 45 -107.5 121t-20.5 166z" />
    <glyph glyph-name="gbreve" unicode="&#x11f;" horiz-adv-x="1250" 
d="M534 -500q-167 0 -290.5 106t-137.5 257l2 -1l60 25q7 -133 116.5 -230t258.5 -97q167 0 319 119.5t176 270.5l45 282q-82 -121 -211 -189.5t-283 -68.5q-231 0 -349.5 147t-82.5 379q37 232 202.5 379t396.5 147q154 0 261 -68.5t151 -189.5l36 232h62l-166 -1050
q-18 -116 -104.5 -220.5t-211.5 -167t-250 -62.5zM220 500q-32 -203 72.5 -332t306.5 -129t347 129t177 332t-72 332t-306 129t-347 -129t-178 -332zM527 1645h63q-13 -76 17 -138q32 -62 91 -98t132 -36q119 0 214 79t114 193h62q-15 -94 -75 -169q-61 -76 -147 -119.5
t-177 -43.5q-97 0 -167 45q-73 46 -107.5 121.5t-19.5 165.5z" />
    <glyph glyph-name="Gdotaccent" unicode="&#x120;" horiz-adv-x="1503" 
d="M808 -29q-216 0 -364 92t-208 257t-26 380q51 327 277 528t552 201q195 0 334.5 -75t210.5 -212l-67 -32q-67 121 -193 188.5t-297 67.5q-145 0 -275 -50t-228 -138t-164.5 -211.5t-89.5 -267.5q-31 -193 25.5 -344.5t192 -237t328.5 -85.5q170 0 316.5 66.5t251.5 187.5
l67 418h-644l9 60h707l-80 -507h1q-115 -137 -278 -211.5t-358 -74.5zM976 1781q3 20 19 32t36 12q19 0 30.5 -12.5t8.5 -30.5q-3 -20 -18.5 -32.5t-34.5 -12.5q-20 0 -32 12.5t-9 31.5z" />
    <glyph glyph-name="gdotaccent" unicode="&#x121;" horiz-adv-x="1250" 
d="M534 -500q-167 0 -290.5 106t-137.5 257l2 -1l60 25q7 -133 116.5 -230t258.5 -97q167 0 319 119.5t176 270.5l45 282q-82 -121 -211 -189.5t-283 -68.5q-231 0 -349.5 147t-82.5 379q37 232 202.5 379t396.5 147q154 0 261 -68.5t151 -189.5l36 232h62l-166 -1050
q-18 -116 -104.5 -220.5t-211.5 -167t-250 -62.5zM220 500q-32 -203 72.5 -332t306.5 -129t347 129t177 332t-72 332t-306 129t-347 -129t-178 -332zM764 1426q3 20 19 32t36 12q19 0 30.5 -12.5t8.5 -30.5q-3 -20 -18.5 -32.5t-34.5 -12.5q-20 0 -32 12.5t-9 31.5z" />
    <glyph glyph-name="uni0122" unicode="&#x122;" horiz-adv-x="1503" 
d="M808 -29q-216 0 -364 92t-208 257t-26 380q51 327 277 528t552 201q195 0 334.5 -75t210.5 -212l-67 -32q-67 121 -193 188.5t-297 67.5q-145 0 -275 -50t-228 -138t-164.5 -211.5t-89.5 -267.5q-31 -193 25.5 -344.5t192 -237t328.5 -85.5q170 0 316.5 66.5t251.5 187.5
l67 418h-644l9 60h707l-80 -507h1q-115 -137 -278 -211.5t-358 -74.5zM620 -500l129 288h62l-149 -288h-42z" />
    <glyph glyph-name="uni0123" unicode="&#x123;" horiz-adv-x="1231" 
d="M534 -500q-167 0 -290.5 106t-137.5 257l2 -1l60 25q7 -133 116.5 -230t258.5 -97q167 0 319 119.5t176 270.5l45 282q-82 -121 -211 -189.5t-283 -68.5q-231 0 -349.5 147t-82.5 379q37 232 202.5 379t396.5 147q154 0 261 -68.5t151 -189.5l36 232h62l-166 -1050
q-18 -116 -104.5 -220.5t-211.5 -167t-250 -62.5zM220 500q-32 -203 72.5 -332t306.5 -129t347 129t177 332t-72 332t-306 129t-347 -129t-178 -332zM751 1267l129 288h62l-149 -288h-42z" />
    <glyph glyph-name="Hbar" unicode="&#x126;" horiz-adv-x="1231" 
d="M140 0l173 1091h-156l9 58h156l40 251h63l-40 -251h972l40 251h63l-40 -251h161l-9 -58h-161l-173 -1091h-63l114 720h-972l-114 -720h-63zM327 780h972l49 311h-972z" />
    <glyph glyph-name="hbar" unicode="&#x127;" horiz-adv-x="1231" 
d="M140 0l194 1227h-276l10 60h276l34 213h63l-34 -213h367l-10 -60h-367l-63 -402q73 93 181.5 148t225.5 55q120 0 212 -56q92 -58 134.5 -153.5t24.5 -209.5l-96 -609h-62l96 609q17 102 -23 181q-38 82 -116 130t-180 48q-103 0 -196 -48q-94 -49 -157 -131t-79 -180
l-96 -609h-63z" />
    <glyph glyph-name="Itilde" unicode="&#x128;" horiz-adv-x="407" 
d="M172 0l222 1400h62l-222 -1400h-62zM190 1729q-13 64 42.5 123t130.5 59q47 0 107 -36.5t117 -73t96 -36.5q37 0 65.5 38t21.5 68l62 18q11 -67 -44 -125.5t-132 -58.5q-36 0 -79.5 23t-77 50t-76 50t-76.5 23q-38 0 -68 -32.5t-27 -73.5z" />
    <glyph glyph-name="itilde" unicode="&#x129;" horiz-adv-x="347" 
d="M140 0l158 1000h63l-158 -1000h-63zM75 1327q-12 64 43 123t130 59q47 0 107 -36.5t117 -73t96 -36.5q37 0 66 38t22 68l62 18q11 -67 -44.5 -125.5t-132.5 -58.5q-36 0 -79.5 23t-77 50t-76 50t-76.5 23q-38 0 -67.5 -32.5t-26.5 -73.5z" />
    <glyph glyph-name="Imacron" unicode="&#x12a;" horiz-adv-x="407" 
d="M172 0l222 1400h62l-222 -1400h-62zM125 1725l10 60h706l-10 -60h-706z" />
    <glyph glyph-name="imacron" unicode="&#x12b;" horiz-adv-x="439" 
d="M140 0l158 1000h63l-158 -1000h-63zM77 1332l9 60h706l-9 -60h-706z" />
    <glyph glyph-name="Iogonek" unicode="&#x12e;" horiz-adv-x="407" 
d="M63 -371q-62 2 -97.5 43t-25.5 101t59 101l176 146l219 1380h62l-221 -1395l4 -5q-194 -162 -200 -168q-33 -30 -37 -59q-5 -32 14.5 -57t57.5 -27q44 0 83.5 29.5t47.5 77.5h62q-12 -73 -70.5 -120t-133.5 -47z" />
    <glyph glyph-name="iogonek" unicode="&#x12f;" horiz-adv-x="408" 
d="M30 -371q-62 2 -97.5 43t-25.5 101t59 101l177 147l155 979h63l-158 -997l3 -3q-194 -162 -200 -168q-33 -30 -37 -59q-5 -32 14.5 -57t57.5 -27q44 0 83.5 29.5t47.5 77.5h62q-12 -73 -70.5 -120t-133.5 -47z" />
    <glyph glyph-name="Idotaccent" unicode="&#x130;" horiz-adv-x="407" 
d="M172 0l222 1400h62l-222 -1400h-62zM441 1761q3 20 19 32t36 12q19 0 30.5 -12.5t8.5 -30.5q-3 -20 -18.5 -32.5t-34.5 -12.5q-20 0 -32 12.5t-9 31.5z" />
    <glyph glyph-name="dotlessi" unicode="&#x131;" horiz-adv-x="345" 
d="M140 0l158 1000h63l-158 -1000h-63z" />
    <glyph glyph-name="IJ" unicode="&#x132;" horiz-adv-x="1754" 
d="M172 0l222 1400h62l-222 -1400h-62zM565 584h63q-38 -244 70 -397t334 -153q227 0 382.5 148t195.5 402l130 816h63l-130 -816q-43 -271 -219.5 -440.5t-430.5 -169.5q-177 0 -287 82q-110 81 -154 219t-17 309z" />
    <glyph glyph-name="ij" unicode="&#x133;" horiz-adv-x="733" 
d="M147 0l158 1000h63l-158 -1000h-63zM113 -500l9 60q139 0 243.5 83t124.5 209l181 1148h62l-181 -1148q-17 -100 -79 -178q-63 -82 -157 -128t-203 -46zM344 1289q3 18 18.5 31t33.5 13q21 0 33 -13t9 -31q-3 -19 -19 -32.5t-37 -13.5q-18 0 -29.5 13.5t-8.5 32.5z
M702 1289q3 18 18.5 31t33.5 13q21 0 33 -13t9 -31q-3 -19 -19 -32.5t-37 -13.5q-18 0 -29.5 13.5t-8.5 32.5z" />
    <glyph glyph-name="uni0136" unicode="&#x136;" horiz-adv-x="1048" 
d="M140 0l222 1400h63l-128 -806l835 806h81l-686 -662l453 -738h-79l-424 690l-195 -190l-79 -500h-63zM392 -500l129 288h62l-149 -288h-42z" />
    <glyph glyph-name="uni0137" unicode="&#x137;" horiz-adv-x="986" 
d="M140 0l238 1500h63l-182 -1148l670 648h82l-414 -398l268 -602h-70l-247 552l-304 -294l-41 -258h-63zM314 -500l129 288h62l-149 -288h-42z" />
    <glyph glyph-name="Lacute" unicode="&#x139;" horiz-adv-x="1164" 
d="M140 0l222 1400h63l-212 -1340h841l-10 -60h-904zM429 1710l129 288h62l-149 -288h-42z" />
    <glyph glyph-name="lacute" unicode="&#x13a;" horiz-adv-x="345" 
d="M140 0l238 1500h63l-238 -1500h-63zM404 1710l129 288h62l-149 -288h-42z" />
    <glyph glyph-name="uni013B" unicode="&#x13b;" horiz-adv-x="1164" 
d="M140 0l222 1400h63l-212 -1340h841l-10 -60h-904zM425 -500l129 288h62l-149 -288h-42z" />
    <glyph glyph-name="uni013C" unicode="&#x13c;" horiz-adv-x="345" 
d="M140 0l238 1500h63l-238 -1500h-63zM-16 -500l129 288h62l-149 -288h-42z" />
    <glyph glyph-name="Lcaron" unicode="&#x13d;" horiz-adv-x="1164" 
d="M140 0l222 1400h63l-212 -1340h841l-10 -60h-904zM617 1993h83l116 -210l181 210h83l-246 -288h-62z" />
    <glyph glyph-name="lcaron" unicode="&#x13e;" horiz-adv-x="345" 
d="M140 0l238 1500h63l-238 -1500h-63zM242 1998h83l117 -210l180 210h83l-245 -288h-62z" />
    <glyph glyph-name="Lslash" unicode="&#x141;" horiz-adv-x="1231" 
d="M140 0l144 912l-244 -129l-22 52l277 147l67 418h63l-61 -382l322 170l22 -52l-355 -187l-140 -889h841l-10 -60h-904z" />
    <glyph glyph-name="lslash" unicode="&#x142;" horiz-adv-x="419" 
d="M140 0l144 912l-244 -129l-22 52l277 147l83 518h63l-77 -482l322 170l22 -52l-355 -187l-150 -949h-63z" />
    <glyph glyph-name="Nacute" unicode="&#x143;" horiz-adv-x="1304" 
d="M140 0l222 1400h70l685 -1292l205 1292h63l-222 -1400h-68l-687 1292l-205 -1292h-63zM833 1710l129 288h62l-149 -288h-42z" />
    <glyph glyph-name="nacute" unicode="&#x144;" horiz-adv-x="1116" 
d="M298 1000h63l-27 -175q72 94 181.5 148.5t225.5 54.5q120 0 212 -56q93 -58 135.5 -154t23.5 -209l-96 -609h-62l96 609q17 103 -23 181q-39 83 -117 130.5t-179 47.5q-103 0 -196 -48q-96 -51 -158 -132.5t-78 -178.5l-96 -609h-63zM740 1310l130 288h62l-150 -288h-42z
" />
    <glyph glyph-name="uni0145" unicode="&#x145;" horiz-adv-x="1304" 
d="M140 0l222 1400h70l685 -1292l205 1292h63l-222 -1400h-68l-687 1292l-205 -1292h-63zM477 -500l129 288h62l-149 -288h-42z" />
    <glyph glyph-name="uni0146" unicode="&#x146;" horiz-adv-x="1116" 
d="M298 1000h63l-27 -175q72 94 181.5 148.5t225.5 54.5q120 0 212 -56q93 -58 135.5 -154t23.5 -209l-96 -609h-62l96 609q17 103 -23 181q-39 83 -117 130.5t-179 47.5q-103 0 -196 -48q-96 -51 -158 -132.5t-78 -178.5l-96 -609h-63zM405 -500l129 288h62l-149 -288h-42z
" />
    <glyph glyph-name="Ncaron" unicode="&#x147;" horiz-adv-x="1304" 
d="M140 0l222 1400h70l685 -1292l205 1292h63l-222 -1400h-68l-687 1292l-205 -1292h-63zM746 1993h83l116 -210l181 210h83l-246 -288h-62z" />
    <glyph glyph-name="ncaron" unicode="&#x148;" horiz-adv-x="1116" 
d="M298 1000h63l-27 -175q72 94 181.5 148.5t225.5 54.5q120 0 212 -56q93 -58 135.5 -154t23.5 -209l-96 -609h-62l96 609q17 103 -23 181q-39 83 -117 130.5t-179 47.5q-103 0 -196 -48q-96 -51 -158 -132.5t-78 -178.5l-96 -609h-63zM607 1575h83l117 -210l180 210h83
l-245 -288h-62z" />
    <glyph glyph-name="Omacron" unicode="&#x14c;" horiz-adv-x="1627" 
d="M808 -29q-216 0 -364 92t-208 257t-26 380q51 327 277 528t552 201q216 0 364 -92t208.5 -256.5t26.5 -380.5q-26 -161 -97.5 -296.5t-178.5 -231t-249.5 -148.5t-304.5 -53zM270 699q-31 -193 25.5 -344.5t192 -237t328.5 -85.5q292 0 501.5 186.5t256.5 480.5
q30 193 -26.5 344.5t-192 237t-328.5 85.5q-145 0 -275 -50t-228 -138t-164.5 -211.5t-89.5 -267.5zM731 1713l10 60h706l-10 -60h-706z" />
    <glyph glyph-name="omacron" unicode="&#x14d;" 
d="M589 -26q-231 0 -349.5 147t-82.5 379q37 232 202.5 379t396.5 147t349.5 -147t81.5 -379q-36 -232 -201.5 -379t-396.5 -147zM220 500q-32 -203 72.5 -332t306.5 -129t347 129t177 332t-72 332t-306 129t-347 -129t-178 -332zM479 1311l9 60h706l-9 -60h-706z" />
    <glyph glyph-name="Ohungarumlaut" unicode="&#x150;" horiz-adv-x="1627" 
d="M808 -29q-216 0 -364 92t-208 257t-26 380q51 327 277 528t552 201q216 0 364 -92t208.5 -256.5t26.5 -380.5q-26 -161 -97.5 -296.5t-178.5 -231t-249.5 -148.5t-304.5 -53zM270 699q-31 -193 25.5 -344.5t192 -237t328.5 -85.5q292 0 501.5 186.5t256.5 480.5
q30 193 -26.5 344.5t-192 237t-328.5 85.5q-145 0 -275 -50t-228 -138t-164.5 -211.5t-89.5 -267.5zM762 1710l129 288h62l-149 -288h-42zM1263 1710l129 288h62l-149 -288h-42z" />
    <glyph glyph-name="ohungarumlaut" unicode="&#x151;" 
d="M589 -26q-231 0 -349.5 147t-82.5 379q37 232 202.5 379t396.5 147t349.5 -147t81.5 -379q-36 -232 -201.5 -379t-396.5 -147zM220 500q-32 -203 72.5 -332t306.5 -129t347 129t177 332t-72 332t-306 129t-347 -129t-178 -332zM525 1309l130 288h62l-150 -288h-42z
M1026 1309l130 288h62l-150 -288h-42z" />
    <glyph glyph-name="OE" unicode="&#x152;" horiz-adv-x="2489" 
d="M808 -29q-216 0 -364 92t-208 257t-26 380q51 327 277 528t552 201q234 0 386.5 -106.5t202.5 -295.5l59 373h904l-10 -60h-841l-91 -577h720l-10 -60h-720l-101 -643h841l-10 -60h-904l59 373q-110 -189 -296 -295.5t-420 -106.5zM270 699q-31 -193 25.5 -344.5
t192 -237t328.5 -85.5q292 0 501.5 186.5t256.5 480.5q30 193 -26.5 344.5t-192 237t-328.5 85.5q-145 0 -275 -50t-228 -138t-164.5 -211.5t-89.5 -267.5z" />
    <glyph glyph-name="oe" unicode="&#x153;" horiz-adv-x="2148" 
d="M589 -26q-231 0 -349.5 147t-82.5 379q37 232 202.5 379t396.5 147q174 0 286.5 -86.5t142.5 -235.5q78 149 218 235.5t315 86.5q231 0 349.5 -147t81.5 -379l-5 -30h-962l-6 -24q-11 -182 93 -294.5t292 -112.5q143 0 261 67.5t187 184.5l63 -15q-78 -140 -215 -221
t-306 -81q-175 0 -287.5 86.5t-142.5 235.5q-78 -149 -218 -235.5t-314 -86.5zM220 500q-32 -203 72.5 -332t306.5 -129q189 0 329 114t185 297q0 7 1 15.5t2.5 18.5t2.5 16q6 34 10 50q13 183 -91 297t-293 114q-202 0 -347 -129t-178 -332zM1191 530h898q21 191 -83.5 311
t-298.5 120q-188 0 -328 -112.5t-185 -294.5z" />
    <glyph glyph-name="Racute" unicode="&#x154;" horiz-adv-x="1158" 
d="M140 0l222 1400h479q82 0 150.5 -24.5t120 -74t73.5 -134.5t6 -197q-30 -187 -139 -292.5t-257 -130.5l242 -547h-73l-241 540h-434l-86 -540h-63zM298 600h416q52 0 103 11.5t102 38.5t92.5 67.5t72.5 103t43 140.5v1q16 87 3 151t-39.5 107.5t-70.5 70t-90 38t-99 11.5
h-416zM809 1710l129 288h62l-149 -288h-42z" />
    <glyph glyph-name="racute" unicode="&#x155;" horiz-adv-x="733" 
d="M140 0l158 1000h63l-27 -175q73 93 181.5 148t225.5 55q63 0 115 -15l-34 -56q-49 11 -91 11q-103 0 -196 -48q-94 -49 -157 -131t-79 -180l-96 -609h-63zM537 1293l129 288h62l-149 -288h-42z" />
    <glyph glyph-name="uni0156" unicode="&#x156;" horiz-adv-x="1158" 
d="M140 0l222 1400h479q82 0 150.5 -24.5t120 -74t73.5 -134.5t6 -197q-30 -187 -139 -292.5t-257 -130.5l242 -547h-73l-241 540h-434l-86 -540h-63zM298 600h416q52 0 103 11.5t102 38.5t92.5 67.5t72.5 103t43 140.5v1q16 87 3 151t-39.5 107.5t-70.5 70t-90 38t-99 11.5
h-416zM419 -500l129 288h62l-149 -288h-42z" />
    <glyph glyph-name="uni0157" unicode="&#x157;" horiz-adv-x="733" 
d="M140 0l158 1000h63l-27 -175q73 93 181.5 148t225.5 55q63 0 115 -15l-34 -56q-49 11 -91 11q-103 0 -196 -48q-94 -49 -157 -131t-79 -180l-96 -609h-63zM-12 -500l129 288h62l-149 -288h-42z" />
    <glyph glyph-name="Rcaron" unicode="&#x158;" horiz-adv-x="1158" 
d="M140 0l222 1400h479q82 0 150.5 -24.5t120 -74t73.5 -134.5t6 -197q-30 -187 -139 -292.5t-257 -130.5l242 -547h-73l-241 540h-434l-86 -540h-63zM298 600h416q52 0 103 11.5t102 38.5t92.5 67.5t72.5 103t43 140.5v1q16 87 3 151t-39.5 107.5t-70.5 70t-90 38t-99 11.5
h-416zM639 2008h83l117 -210l180 210h83l-246 -288h-62z" />
    <glyph glyph-name="rcaron" unicode="&#x159;" horiz-adv-x="733" 
d="M140 0l158 1000h63l-27 -175q73 93 181.5 148t225.5 55q63 0 115 -15l-34 -56q-49 11 -91 11q-103 0 -196 -48q-94 -49 -157 -131t-79 -180l-96 -609h-63zM410 1584h83l117 -210l180 210h83l-246 -288h-62z" />
    <glyph glyph-name="Sacute" unicode="&#x15a;" horiz-adv-x="1283" 
d="M636 -26q-115 0 -216 34q-106 34 -174.5 96.5t-85.5 147.5l61 22q24 -110 138 -175t286 -65q117 0 228 39q112 40 184 112t87 165q17 98 -39 161q-94 106 -360 155q-140 25 -250 66q-115 41 -167 115t-33 195q18 113 103 200q83 83 207.5 129.5t259.5 46.5
q181 0 313.5 -75.5t164.5 -204.5l-64 -20q-23 111 -137 175.5t-287 64.5q-119 0 -227 -39q-111 -41 -183 -112.5t-87 -164.5q-17 -108 33 -167q44 -55 131.5 -86.5t233.5 -58.5q134 -25 240 -70q244 -102 211 -310q-18 -115 -103 -199q-84 -84 -207.5 -130.5t-260.5 -46.5z
M869 1710l129 288h62l-149 -288h-42z" />
    <glyph glyph-name="sacute" unicode="&#x15b;" horiz-adv-x="921" 
d="M446 -17q-76 0 -156 25q-80 26 -130.5 74.5t-61.5 114.5l63 23q14 -81 92.5 -127.5t202.5 -46.5q54 0 109.5 13.5t105.5 39t85.5 68t43.5 95.5q11 66 -25 106q-65 74 -253 108q-91 16 -180 47q-85 31 -122.5 85t-23.5 144q13 85 77 149q63 62 152.5 96t186.5 34
q137 0 234.5 -58t115.5 -157l-64 -21q-14 82 -92 127.5t-204 45.5q-73 0 -144.5 -22t-129.5 -73t-69 -121t24 -110q31 -38 92 -60t162 -41q108 -21 173 -50q179 -77 154 -229q-13 -87 -76 -148q-62 -62 -152.5 -96.5t-189.5 -34.5zM631 1304l129 288h62l-149 -288h-42z" />
    <glyph glyph-name="Scedilla" unicode="&#x15e;" horiz-adv-x="1283" 
d="M613 -372q-62 -16 -111.5 14t-56.5 88l64 15q4 -33 32 -50.5t65 -8.5t60.5 39t18.5 64q-4 34 -32.5 51.5t-65.5 8.5l-77 -19l110 144q-107 3 -200 34q-106 34 -174.5 96.5t-85.5 147.5l61 22q24 -110 138 -175t286 -65q117 0 228 39q112 40 184 112t87 165q17 98 -39 161
q-94 106 -360 155q-140 25 -250 66q-115 41 -167 115t-33 195q18 113 103 200q83 83 207.5 129.5t259.5 46.5q181 0 313.5 -75.5t164.5 -204.5l-64 -20q-23 111 -137 175.5t-287 64.5q-119 0 -227 -39q-111 -41 -183 -112.5t-87 -164.5q-17 -108 33 -167q44 -55 131.5 -86.5
t233.5 -58.5q134 -25 240 -70q244 -102 211 -310q-18 -115 -103 -199q-75 -75 -181.5 -120t-227.5 -55l-51 -66q42 -7 71 -35.5t33 -69.5q8 -58 -32 -110t-103 -67z" />
    <glyph glyph-name="scedilla" unicode="&#x15f;" horiz-adv-x="921" 
d="M436 -360q-62 -16 -111.5 14t-56.5 88l64 15q4 -33 32 -50.5t65 -8.5q38 9 60.5 39t17.5 64q-3 34 -31.5 51.5t-65.5 8.5l-77 -19l108 141q-74 1 -151 25q-80 26 -130.5 74.5t-61.5 114.5l63 23q14 -81 92.5 -127.5t202.5 -46.5q54 0 109.5 13.5t105.5 39t85.5 68
t43.5 95.5q11 66 -25 106q-65 74 -253 108q-91 16 -180 47q-85 31 -122.5 85t-23.5 144q13 85 77 149q63 62 152.5 96t186.5 34q137 0 234.5 -58t115.5 -157l-64 -21q-14 82 -92 127.5t-204 45.5q-73 0 -144.5 -22t-129.5 -73t-69 -121t24 -110q31 -38 92 -60t162 -41
q108 -21 173 -50q179 -77 154 -229q-13 -87 -76 -148q-104 -104 -271 -126l-50 -66q42 -7 71 -35.5t33 -69.5q8 -58 -32 -110t-103 -67z" />
    <glyph glyph-name="Scaron" unicode="&#x160;" horiz-adv-x="1283" 
d="M636 -26q-115 0 -216 34q-106 34 -174.5 96.5t-85.5 147.5l61 22q24 -110 138 -175t286 -65q117 0 228 39q112 40 184 112t87 165q17 98 -39 161q-94 106 -360 155q-140 25 -250 66q-115 41 -167 115t-33 195q18 113 103 200q83 83 207.5 129.5t259.5 46.5
q181 0 313.5 -75.5t164.5 -204.5l-64 -20q-23 111 -137 175.5t-287 64.5q-119 0 -227 -39q-111 -41 -183 -112.5t-87 -164.5q-17 -108 33 -167q44 -55 131.5 -86.5t233.5 -58.5q134 -25 240 -70q244 -102 211 -310q-18 -115 -103 -199q-84 -84 -207.5 -130.5t-260.5 -46.5z
M731 1997h83l117 -210l180 210h83l-245 -288h-62z" />
    <glyph glyph-name="scaron" unicode="&#x161;" horiz-adv-x="921" 
d="M446 -17q-76 0 -156 25q-80 26 -130.5 74.5t-61.5 114.5l63 23q14 -81 92.5 -127.5t202.5 -46.5q54 0 109.5 13.5t105.5 39t85.5 68t43.5 95.5q11 66 -25 106q-65 74 -253 108q-91 16 -180 47q-85 31 -122.5 85t-23.5 144q13 85 77 149q63 62 152.5 96t186.5 34
q137 0 234.5 -58t115.5 -157l-64 -21q-14 82 -92 127.5t-204 45.5q-73 0 -144.5 -22t-129.5 -73t-69 -121t24 -110q31 -38 92 -60t162 -41q108 -21 173 -50q179 -77 154 -229q-13 -87 -76 -148q-62 -62 -152.5 -96.5t-189.5 -34.5zM479 1598h83l117 -210l180 210h83
l-246 -288h-62z" />
    <glyph glyph-name="uni0162" unicode="&#x162;" horiz-adv-x="1346" 
d="M609 -360q-62 -16 -111.5 14t-56.5 88l64 15q4 -33 32 -50.5t65 -8.5q38 9 60.5 39t17.5 64q-3 34 -31.5 51.5t-65.5 8.5l-77 -19l137 180l209 1318h-541l10 60h1147l-10 -60h-543l-212 -1340h-3l-60 -78q42 -7 71 -35.5t33 -69.5q8 -58 -32 -110t-103 -67z" />
    <glyph glyph-name="uni0163" unicode="&#x163;" horiz-adv-x="731" 
d="M485 -347q-62 -16 -111.5 14t-56.5 88l64 15q4 -33 32 -50.5t65 -8.5t60.5 39t18.5 64q-4 34 -32.5 51.5t-65.5 8.5l-77 -19l114 148q-82 14 -126.5 75.5t-31.5 145.5l114 716h-214l9 60h214l50 315h63v-1l-49 -314h286l-9 -60h-287l-114 -716q-10 -68 32.5 -116
t113.5 -48q65 0 123 39l-11 -69q-42 -22 -92 -28l-51 -67q42 -7 71 -35.5t33 -69.5q8 -58 -32 -110t-103 -67z" />
    <glyph glyph-name="Tcaron" unicode="&#x164;" horiz-adv-x="1346" 
d="M640 0l212 1340h-541l10 60h1147l-10 -60h-543l-212 -1340h-63zM747 2007h83l117 -210l180 210h83l-246 -288h-62z" />
    <glyph glyph-name="tcaron" unicode="&#x165;" horiz-adv-x="731" 
d="M537 0q-99 0 -156 64.5t-43 159.5l114 716h-214l9 60h214l50 315h63v-1l-49 -314h286l-9 -60h-287l-114 -716q-10 -68 32.5 -116t113.5 -48q65 0 123 39l-11 -69q-57 -30 -122 -30zM371 1687h83l117 -210l180 210h83l-245 -288h-62z" />
    <glyph glyph-name="Utilde" unicode="&#x168;" horiz-adv-x="1390" 
d="M690 -26q-176 0 -286 82q-110 81 -154.5 219.5t-17.5 308.5l130 816h63l-130 -816q-38 -244 70 -397t334 -153q227 0 382.5 148t195.5 402l130 816h63l-130 -816q-43 -271 -219.5 -440.5t-430.5 -169.5zM683 1775q-12 64 43 123t130 59q47 0 107 -36.5t117 -73t96 -36.5
q37 0 66 38t22 68l61 18q11 -67 -44 -125.5t-132 -58.5q-36 0 -79.5 23t-77 50t-76 50t-76.5 23q-38 0 -67.5 -32.5t-26.5 -73.5z" />
    <glyph glyph-name="utilde" unicode="&#x169;" horiz-adv-x="1074" 
d="M533 -26q-122 0 -212 57q-92 57 -135 152t-25 210l96 607h62l-96 -607q-15 -101 23 -180q37 -83 115.5 -131t180.5 -48q105 0 196 49q94 49 157 130.5t79 179.5l96 607h63l-158 -1000h-63l28 177q-73 -92 -182 -147.5t-225 -55.5zM440 1366q-12 64 43 123t130 59
q47 0 107 -36.5t117 -73t96 -36.5q37 0 66 38t22 68l62 18q11 -67 -44 -125.5t-132 -58.5q-36 0 -79.5 23t-77 50t-76 50t-76.5 23q-38 0 -68 -32.5t-27 -73.5z" />
    <glyph glyph-name="Umacron" unicode="&#x16a;" horiz-adv-x="1390" 
d="M690 -26q-176 0 -286 82q-110 81 -154.5 219.5t-17.5 308.5l130 816h63l-130 -816q-38 -244 70 -397t334 -153q227 0 382.5 148t195.5 402l130 816h63l-130 -816q-43 -271 -219.5 -440.5t-430.5 -169.5zM625 1730l10 60h706l-10 -60h-706z" />
    <glyph glyph-name="umacron" unicode="&#x16b;" horiz-adv-x="1074" 
d="M533 -26q-122 0 -212 57q-92 57 -135 152t-25 210l96 607h62l-96 -607q-15 -101 23 -180q37 -83 115.5 -131t180.5 -48q105 0 196 49q94 49 157 130.5t79 179.5l96 607h63l-158 -1000h-63l28 177q-73 -92 -182 -147.5t-225 -55.5zM409 1359l10 60h706l-10 -60h-706z" />
    <glyph glyph-name="Uring" unicode="&#x16e;" horiz-adv-x="1390" 
d="M690 -26q-176 0 -286 82q-110 81 -154.5 219.5t-17.5 308.5l130 816h63l-130 -816q-38 -244 70 -397t334 -153q227 0 382.5 148t195.5 402l130 816h63l-130 -816q-43 -271 -219.5 -440.5t-430.5 -169.5zM838 1855q9 57 57.5 97.5t108.5 40.5q59 0 95.5 -41t27.5 -97
q-9 -58 -58.5 -99t-108.5 -41t-95 41.5t-27 98.5zM888 1855q-6 -39 17 -65.5t62 -26.5q40 0 71.5 26.5t37.5 65.5q5 37 -17.5 62.5t-62.5 25.5q-38 0 -70.5 -26t-37.5 -62z" />
    <glyph glyph-name="uring" unicode="&#x16f;" horiz-adv-x="1074" 
d="M533 -26q-122 0 -212 57q-92 57 -135 152t-25 210l96 607h62l-96 -607q-15 -101 23 -180q37 -83 115.5 -131t180.5 -48q105 0 196 49q94 49 157 130.5t79 179.5l96 607h63l-158 -1000h-63l28 177q-73 -92 -182 -147.5t-225 -55.5zM600 1448q9 57 57.5 97.5t108.5 40.5
q59 0 95.5 -41t27.5 -97q-9 -58 -58.5 -99t-108.5 -41t-95 41.5t-27 98.5zM650 1448q-6 -39 17.5 -65.5t62.5 -26.5q40 0 71 26.5t37 65.5q6 36 -17 62t-63 26q-38 0 -70 -26t-38 -62z" />
    <glyph glyph-name="Uhungarumlaut" unicode="&#x170;" horiz-adv-x="1390" 
d="M690 -26q-176 0 -286 82q-110 81 -154.5 219.5t-17.5 308.5l130 816h63l-130 -816q-38 -244 70 -397t334 -153q227 0 382.5 148t195.5 402l130 816h63l-130 -816q-43 -271 -219.5 -440.5t-430.5 -169.5zM673 1710l129 288h62l-149 -288h-42zM1174 1710l129 288h62
l-149 -288h-42z" />
    <glyph glyph-name="uhungarumlaut" unicode="&#x171;" horiz-adv-x="1074" 
d="M533 -26q-122 0 -212 57q-92 57 -135 152t-25 210l96 607h62l-96 -607q-15 -101 23 -180q37 -83 115.5 -131t180.5 -48q105 0 196 49q94 49 157 130.5t79 179.5l96 607h63l-158 -1000h-63l28 177q-73 -92 -182 -147.5t-225 -55.5zM459 1321l130 288h62l-150 -288h-42z
M960 1321l130 288h62l-150 -288h-42z" />
    <glyph glyph-name="Uogonek" unicode="&#x172;" horiz-adv-x="1390" 
d="M690 -26q-66 0 -117 10q-168 -140 -181 -152q-33 -30 -37 -59q-5 -32 14.5 -57t57.5 -27q44 0 83.5 29.5t47.5 77.5h62q-12 -73 -70.5 -120t-133.5 -47q-62 2 -97.5 43t-25.5 101t59 101l155 128q-56 19 -103 54q-110 81 -154.5 219.5t-17.5 308.5l130 816h63l-130 -816
q-38 -244 70 -397t334 -153q227 0 382.5 148t195.5 402l130 816h63l-130 -816q-43 -271 -219.5 -440.5t-430.5 -169.5z" />
    <glyph glyph-name="uogonek" unicode="&#x173;" horiz-adv-x="1074" 
d="M533 -26q-122 0 -212 57q-92 57 -135 152t-25 210l96 607h62l-96 -607q-15 -101 23 -180q37 -83 115.5 -131t180.5 -48q105 0 196 49q94 49 157 130.5t79 179.5l96 607h63l-158 -997l3 -3q-194 -162 -200 -168q-33 -30 -37 -59q-5 -32 14.5 -57t57.5 -27q44 0 83.5 29.5
t47.5 77.5h62q-12 -73 -70.5 -120t-133.5 -47q-62 2 -97.5 43t-25.5 101t59 101l177 147l25 156q-73 -92 -182 -147.5t-225 -55.5z" />
    <glyph glyph-name="Wcircumflex" unicode="&#x174;" horiz-adv-x="1653" 
d="M410 0l-152 1400h65l143 -1314l557 1314h50l144 -1314l556 1314h65l-594 -1400h-83l-137 1250l-532 -1250h-82zM866 1710l245 288h63l156 -288h-81l-120 210l-182 -210h-81z" />
    <glyph glyph-name="wcircumflex" unicode="&#x175;" horiz-adv-x="1665" 
d="M429 0l-193 1000h61l180 -928l473 928h80l179 -928l473 928h62l-508 -1000h-73l-184 940l-479 -940h-71zM814 1311l245 288h63l156 -288h-81l-120 210l-182 -210h-81z" />
    <glyph glyph-name="Ycircumflex" unicode="&#x176;" horiz-adv-x="1189" 
d="M562 0l101 636l-363 764h73l332 -698l554 698h73l-606 -764l-101 -636h-63zM641 1710l245 288h63l156 -288h-81l-120 210l-182 -210h-81z" />
    <glyph glyph-name="ycircumflex" unicode="&#x177;" horiz-adv-x="1020" 
d="M204 -500l269 500l-216 1000h69l191 -916l496 916h65l-808 -1500h-66zM475 1310l246 288h63l155 -288h-81l-119 210l-183 -210h-81z" />
    <glyph glyph-name="Ydieresis" unicode="&#x178;" horiz-adv-x="1189" 
d="M562 0l101 636l-363 764h73l332 -698l554 698h73l-606 -764l-101 -636h-63zM676 1733q3 18 20.5 32t37.5 14q19 0 31 -14t9 -32q-2 -18 -18.5 -31t-35.5 -13q-20 0 -33 13t-11 31zM939 1733q3 18 21 32t38 14q18 0 30.5 -14t9.5 -32q-2 -18 -18.5 -31t-35.5 -13
q-21 0 -34 12.5t-11 31.5z" />
    <glyph glyph-name="Zacute" unicode="&#x179;" horiz-adv-x="1381" 
d="M99 0l10 60l1303 1280h-1101l10 60h1182l-10 -60l-1303 -1280h1101l-10 -60h-1182zM903 1710l129 288h62l-149 -288h-42z" />
    <glyph glyph-name="zacute" unicode="&#x17a;" horiz-adv-x="1090" 
d="M99 0l10 60l947 880h-808l9 60h892l-9 -60l-948 -880h809l-10 -60h-892zM691 1299l129 288h62l-149 -288h-42z" />
    <glyph glyph-name="Zdotaccent" unicode="&#x17b;" horiz-adv-x="1381" 
d="M99 0l10 60l1303 1280h-1101l10 60h1182l-10 -60l-1303 -1280h1101l-10 -60h-1182zM913 1724q3 20 19 32t36 12q19 0 30.5 -12.5t8.5 -30.5q-3 -20 -18.5 -32.5t-34.5 -12.5q-20 0 -32 12.5t-9 31.5z" />
    <glyph glyph-name="zdotaccent" unicode="&#x17c;" horiz-adv-x="1090" 
d="M99 0l10 60l947 880h-808l9 60h892l-9 -60l-948 -880h809l-10 -60h-892zM724 1410q4 20 19.5 32t35.5 12q19 0 30.5 -12.5t8.5 -30.5q-3 -20 -18.5 -32.5t-34.5 -12.5q-20 0 -32 12.5t-9 31.5z" />
    <glyph glyph-name="Zcaron" unicode="&#x17d;" horiz-adv-x="1381" 
d="M99 0l10 60l1303 1280h-1101l10 60h1182l-10 -60l-1303 -1280h1101l-10 -60h-1182zM725 1981h83l116 -210l181 210h83l-246 -288h-62z" />
    <glyph glyph-name="zcaron" unicode="&#x17e;" horiz-adv-x="1090" 
d="M99 0l10 60l947 880h-808l9 60h892l-9 -60l-948 -880h809l-10 -60h-892zM558 1617h83l117 -210l180 210h83l-246 -288h-62z" />
    <glyph glyph-name="uni018F" unicode="&#x18f;" horiz-adv-x="1628" 
d="M1040 1396q204 0 346 -89t200 -247.5t26 -362.5t-140.5 -362.5t-278.5 -247.5t-374 -89t-346 89t-200.5 247.5t-26.5 362.5l5 26h1312q22 178 -35 317.5t-186 218.5t-311 79q-195 0 -357 -91t-260 -249l-56 15q107 179 284.5 281t397.5 102zM298 671q-23 -178 34 -317.5
t186 -218.5t310 -79q275 0 474.5 172t251.5 443h-1256z" />
    <glyph glyph-name="uni0218" unicode="&#x218;" horiz-adv-x="1283" 
d="M636 -26q-115 0 -216 34q-106 34 -174.5 96.5t-85.5 147.5l61 22q24 -110 138 -175t286 -65q117 0 228 39q112 40 184 112t87 165q17 98 -39 161q-94 106 -360 155q-140 25 -250 66q-115 41 -167 115t-33 195q18 113 103 200q83 83 207.5 129.5t259.5 46.5
q181 0 313.5 -75.5t164.5 -204.5l-64 -20q-23 111 -137 175.5t-287 64.5q-119 0 -227 -39q-111 -41 -183 -112.5t-87 -164.5q-17 -108 33 -167q44 -55 131.5 -86.5t233.5 -58.5q134 -25 240 -70q244 -102 211 -310q-18 -115 -103 -199q-84 -84 -207.5 -130.5t-260.5 -46.5z
M477 -500l129 288h62l-149 -288h-42z" />
    <glyph glyph-name="uni0219" unicode="&#x219;" horiz-adv-x="921" 
d="M446 -17q-76 0 -156 25q-80 26 -130.5 74.5t-61.5 114.5l63 23q14 -81 92.5 -127.5t202.5 -46.5q54 0 109.5 13.5t105.5 39t85.5 68t43.5 95.5q11 66 -25 106q-65 74 -253 108q-91 16 -180 47q-85 31 -122.5 85t-23.5 144q13 85 77 149q63 62 152.5 96t186.5 34
q137 0 234.5 -58t115.5 -157l-64 -21q-14 82 -92 127.5t-204 45.5q-73 0 -144.5 -22t-129.5 -73t-69 -121t24 -110q31 -38 92 -60t162 -41q108 -21 173 -50q179 -77 154 -229q-13 -87 -76 -148q-62 -62 -152.5 -96.5t-189.5 -34.5zM297 -500l129 288h62l-149 -288h-42z" />
    <glyph glyph-name="uni021A" unicode="&#x21a;" horiz-adv-x="1346" 
d="M640 0l212 1340h-541l10 60h1147l-10 -60h-543l-212 -1340h-63zM477 -500l129 288h62l-149 -288h-42z" />
    <glyph glyph-name="uni021B" unicode="&#x21b;" horiz-adv-x="731" 
d="M537 0q-99 0 -156 64.5t-43 159.5l114 716h-214l9 60h214l50 315h63v-1l-49 -314h286l-9 -60h-287l-114 -716q-10 -68 32.5 -116t113.5 -48q65 0 123 39l-11 -69q-57 -30 -122 -30zM322 -500l129 288h62l-149 -288h-42z" />
    <glyph glyph-name="uni0237" unicode="&#x237;" horiz-adv-x="456" 
d="M-139 -440q139 0 243.5 83t124.5 209l181 1148h62l-181 -1148q-17 -100 -79 -178q-63 -82 -157 -128t-203 -46z" />
    <glyph glyph-name="uni0259" unicode="&#x259;" horiz-adv-x="1231" 
d="M726 1031q232 0 350.5 -147t81.5 -379t-202 -379t-396 -147t-350 147t-82 379l5 30h966q20 191 -84 311t-299 120q-143 0 -261 -67.5t-187 -184.5l-63 15q79 140 216 221t305 81zM188 475q-21 -191 83.5 -311t298.5 -120t336.5 120t182.5 311h-901z" />
    <glyph glyph-name="circumflex" unicode="&#x2c6;" horiz-adv-x="521" 
d="M394 2310l245 288h63l156 -288h-81l-120 210l-182 -210h-81z" />
    <glyph glyph-name="caron" unicode="&#x2c7;" horiz-adv-x="486" 
d="M483 1710l-156 288h83l117 -210l180 210h83l-245 -288h-62z" />
    <glyph glyph-name="breve" unicode="&#x2d8;" horiz-adv-x="1226" 
d="M880 1688q-95 0 -167 45q-73 45 -107 121t-20 166h63q-12 -76 17 -138q32 -62 91 -98t133 -36q119 0 214 79t113 193h62q-15 -94 -75 -169q-61 -76 -147 -119.5t-177 -43.5z" />
    <glyph glyph-name="dotaccent" unicode="&#x2d9;" horiz-adv-x="961" 
d="M863 2410q-20 0 -32 12.5t-9 31.5q3 20 19 32t36 12q19 0 30.5 -12.5t8.5 -30.5q-3 -20 -18.5 -32.5t-34.5 -12.5z" />
    <glyph glyph-name="ring" unicode="&#x2da;" horiz-adv-x="1156" 
d="M944 2315q-59 0 -95 41.5t-27 98.5t57.5 97.5t108.5 40.5q59 0 95.5 -41t27.5 -97q-9 -58 -58.5 -99t-108.5 -41zM872 2455q-6 -39 17 -65.5t62 -26.5q40 0 71.5 26.5t37.5 65.5q5 37 -17.5 62.5t-62.5 25.5q-38 0 -70.5 -26t-37.5 -62z" />
    <glyph glyph-name="ogonek" unicode="&#x2db;" horiz-adv-x="982" 
d="M416 -371q-62 2 -97.5 43t-25.5 101t59 101l203 168l37 -42q-194 -162 -200 -168q-33 -30 -37 -59q-5 -32 14.5 -57t57.5 -27q44 0 83.5 29.5t47.5 77.5h62q-12 -73 -70.5 -120t-133.5 -47z" />
    <glyph glyph-name="tilde" unicode="&#x2dc;" horiz-adv-x="1237" 
d="M1149 2381q-36 0 -79.5 23t-77 50t-76 50t-76.5 23q-38 0 -68 -32.5t-27 -73.5l-62 -16q-13 64 42.5 123t130.5 59q47 0 107 -36.5t117 -73t96 -36.5q37 0 65.5 38t21.5 68l62 18q11 -67 -44 -125.5t-132 -58.5z" />
    <glyph glyph-name="hungarumlaut" unicode="&#x2dd;" horiz-adv-x="833" 
d="M998 2310l129 288h62l-149 -288h-42zM497 2310l129 288h62l-149 -288h-42z" />
    <glyph glyph-name="gravecomb" unicode="&#x300;" horiz-adv-x="0" 
d="M600 1710l-60 288h63l38 -288h-41z" />
    <glyph glyph-name="acutecomb" unicode="&#x301;" horiz-adv-x="0" 
d="M495 1710l129 288h62l-149 -288h-42z" />
    <glyph glyph-name="uni0302" unicode="&#x302;" horiz-adv-x="0" 
d="M299 1710l245 288h63l156 -288h-81l-120 210l-182 -210h-81z" />
    <glyph glyph-name="tildecomb" unicode="&#x303;" horiz-adv-x="0" 
d="M1082 1751q-36 0 -79.5 23t-77 50t-76 50t-76.5 23q-38 0 -67.5 -32.5t-26.5 -73.5l-63 -16q-12 64 43 123t130 59q47 0 107 -36.5t117 -73t96 -36.5q37 0 66 38t22 68l61 18q11 -67 -44 -125.5t-132 -58.5z" />
    <glyph glyph-name="uni0304" unicode="&#x304;" horiz-adv-x="0" 
d="M668 2390l9 60h706l-9 -60h-706z" />
    <glyph glyph-name="uni0306" unicode="&#x306;" horiz-adv-x="0" 
d="M975 2288q-95 0 -166 45q-73 45 -107.5 121t-20.5 166h63q-12 -76 17 -138q32 -62 91 -98t133 -36q119 0 214 79t113 193h62q-15 -94 -75 -169q-61 -76 -147 -119.5t-177 -43.5z" />
    <glyph glyph-name="uni0307" unicode="&#x307;" horiz-adv-x="0" 
d="M768 1810q-20 0 -32 12.5t-9 31.5q3 20 19 32t36 12q19 0 30.5 -12.5t8.5 -30.5q-3 -20 -18.5 -32.5t-34.5 -12.5z" />
    <glyph glyph-name="uni0308" unicode="&#x308;" horiz-adv-x="0" 
d="M1015 1689q-21 0 -34 12.5t-11 31.5q3 18 21 32t38 14q18 0 30.5 -14t9.5 -32q-2 -18 -18.5 -31t-35.5 -13zM707 1733q3 18 20.5 32t37.5 14q19 0 31 -14t9 -32q-2 -18 -18.5 -31t-35.5 -13q-20 0 -33 13t-11 31z" />
    <glyph glyph-name="uni030A" unicode="&#x30a;" horiz-adv-x="0" 
d="M849 1715q-59 0 -95 41.5t-27 98.5t57.5 97.5t108.5 40.5q59 0 95.5 -41t27.5 -97q-9 -58 -58.5 -99t-108.5 -41zM777 1855q-6 -39 17 -65.5t62 -26.5q40 0 71.5 26.5t37.5 65.5q5 37 -17.5 62.5t-62.5 25.5q-38 0 -70.5 -26t-37.5 -62z" />
    <glyph glyph-name="uni030B" unicode="&#x30b;" horiz-adv-x="0" 
d="M903 1710l129 288h62l-149 -288h-42zM402 1710l129 288h62l-149 -288h-42z" />
    <glyph glyph-name="uni030C" unicode="&#x30c;" horiz-adv-x="0" 
d="M578 2310l-156 288h83l117 -210l180 210h83l-245 -288h-62z" />
    <glyph glyph-name="dotbelowcomb" unicode="&#x323;" horiz-adv-x="0" 
d="M519 241q-20 0 -32 12.5t-9 31.5q3 20 19 32t36 12q19 0 30.5 -12.5t8.5 -30.5q-3 -20 -18.5 -32.5t-34.5 -12.5z" />
    <glyph glyph-name="uni0326" unicode="&#x326;" horiz-adv-x="0" 
d="M477 -500l129 288h62l-149 -288h-42z" />
    <glyph glyph-name="uni0327" unicode="&#x327;" horiz-adv-x="0" 
d="M560 -360q-62 -16 -111.5 14t-56.5 88l64 15q4 -33 32 -50.5t65 -8.5q38 9 60.5 39t17.5 64q-3 34 -31.5 51.5t-65.5 8.5l-77 -19l144 188l50 -30l-60 -78q42 -7 71 -35.5t33 -69.5q8 -58 -32 -110t-103 -67z" />
    <glyph glyph-name="uni0328" unicode="&#x328;" horiz-adv-x="0" 
d="M416 -371q-62 2 -97.5 43t-25.5 101t59 101l203 168l37 -42q-194 -162 -200 -168q-33 -30 -37 -59q-5 -32 14.5 -57t57.5 -27q44 0 83.5 29.5t47.5 77.5h62q-12 -73 -70.5 -120t-133.5 -47z" />
    <glyph glyph-name="uni03BC" unicode="&#x3bc;" horiz-adv-x="1074" 
d="M31 -432l226 1432h62l-86 -548q-19 -116 18 -210q37 -97 113.5 -152.5t178.5 -55.5q103 0 196 57q96 57 161 152.5t84 208.5l86 548h63l-158 -1000h-63l33 206q-83 -110 -190 -171t-221 -61q-120 0 -209.5 64t-130.5 170l-101 -640h-62z" />
    <glyph glyph-name="uni1E20" unicode="&#x1e20;" horiz-adv-x="1503" 
d="M808 -29q-216 0 -364 92t-208 257t-26 380q51 327 277 528t552 201q195 0 334.5 -75t210.5 -212l-67 -32q-67 121 -193 188.5t-297 67.5q-145 0 -275 -50t-228 -138t-164.5 -211.5t-89.5 -267.5q-31 -193 25.5 -344.5t192 -237t328.5 -85.5q170 0 316.5 66.5t251.5 187.5
l67 418h-644l9 60h707l-80 -507h1q-115 -137 -278 -211.5t-358 -74.5zM672 1721l9 60h706l-9 -60h-706z" />
    <glyph glyph-name="uni1E21" unicode="&#x1e21;" horiz-adv-x="1250" 
d="M534 -500q-167 0 -290.5 106t-137.5 257l2 -1l60 25q7 -133 116.5 -230t258.5 -97q167 0 319 119.5t176 270.5l45 282q-82 -121 -211 -189.5t-283 -68.5q-231 0 -349.5 147t-82.5 379q37 232 202.5 379t396.5 147q154 0 261 -68.5t151 -189.5l36 232h62l-166 -1050
q-18 -116 -104.5 -220.5t-211.5 -167t-250 -62.5zM220 500q-32 -203 72.5 -332t306.5 -129t347 129t177 332t-72 332t-306 129t-347 -129t-178 -332zM465 1343l9 60h706l-9 -60h-706z" />
    <glyph glyph-name="Wgrave" unicode="&#x1e80;" horiz-adv-x="1653" 
d="M410 0l-152 1400h65l143 -1314l557 1314h50l144 -1314l556 1314h65l-594 -1400h-83l-137 1250l-532 -1250h-82zM1007 1998h63l38 -288h-41z" />
    <glyph glyph-name="wgrave" unicode="&#x1e81;" horiz-adv-x="1665" 
d="M429 0l-193 1000h61l180 -928l473 928h80l179 -928l473 928h62l-508 -1000h-73l-184 940l-479 -940h-71zM968 1597h63l37 -288h-41z" />
    <glyph glyph-name="Wacute" unicode="&#x1e82;" horiz-adv-x="1653" 
d="M410 0l-152 1400h65l143 -1314l557 1314h50l144 -1314l556 1314h65l-594 -1400h-83l-137 1250l-532 -1250h-82zM1041 1710l129 288h62l-149 -288h-42z" />
    <glyph glyph-name="wacute" unicode="&#x1e83;" horiz-adv-x="1665" 
d="M429 0l-193 1000h61l180 -928l473 928h80l179 -928l473 928h62l-508 -1000h-73l-184 940l-479 -940h-71zM970 1299l129 288h62l-149 -288h-42z" />
    <glyph glyph-name="Wdieresis" unicode="&#x1e84;" horiz-adv-x="1653" 
d="M410 0l-152 1400h65l143 -1314l557 1314h50l144 -1314l556 1314h65l-594 -1400h-83l-137 1250l-532 -1250h-82zM916 1733q3 18 20.5 32t37.5 14q19 0 31 -14t9 -32q-2 -18 -18.5 -31t-35.5 -13q-20 0 -33 13t-11 31zM1179 1733q3 18 21 32t38 14q18 0 30.5 -14t9.5 -32
q-2 -18 -18.5 -31t-35.5 -13q-21 0 -34 12.5t-11 31.5z" />
    <glyph glyph-name="wdieresis" unicode="&#x1e85;" horiz-adv-x="1665" 
d="M429 0l-193 1000h61l180 -928l473 928h80l179 -928l473 928h62l-508 -1000h-73l-184 940l-479 -940h-71zM863 1346q3 18 20.5 32t36.5 14t31.5 -14t9.5 -32t-19.5 -31t-35.5 -13q-20 0 -33 13t-10 31zM1126 1346q3 18 20.5 32t37.5 14q18 0 31 -14t10 -32t-19.5 -31
t-35.5 -13q-21 0 -34 13t-10 31z" />
    <glyph glyph-name="uni1E9E" unicode="&#x1e9e;" horiz-adv-x="1274" 
d="M463 79q163 -34 300 -3t232.5 120.5t114.5 208.5q13 80 -1.5 143t-46 101.5t-78 63t-93 34t-96.5 9.5h-225l10 65h219q129 0 220.5 68t114.5 210q19 121 -34 190.5t-176 69.5h-482l-245 -1548h-72l256 1613h554q143 0 220.5 -80.5t51.5 -244.5q-18 -114 -73 -187.5
t-156 -122.5q125 -47 177 -137t27 -247q-16 -103 -67 -182t-119.5 -123t-147 -71.5t-156 -33t-139 -1.5t-101.5 17z" />
    <glyph glyph-name="uni1EBC" unicode="&#x1ebc;" horiz-adv-x="1164" 
d="M140 0l222 1400h904l-10 -60h-841l-91 -577h720l-10 -60h-720l-101 -643h841l-10 -60h-904zM559 1714q-12 64 43 123t130 59q47 0 107 -36.5t117 -73t96 -36.5q37 0 66 38t22 68l62 18q11 -67 -44 -125.5t-132 -58.5q-36 0 -79.5 23t-77 50t-76 50t-76.5 23
q-38 0 -68 -32.5t-27 -73.5z" />
    <glyph glyph-name="uni1EBD" unicode="&#x1ebd;" 
d="M589 -26q-231 0 -349.5 147t-82.5 379q37 232 202.5 379t396.5 147t349.5 -147t81.5 -379l-5 -30h-966q-20 -191 84.5 -311t298.5 -120q143 0 261 67.5t187 184.5l63 -15q-78 -140 -215 -221t-306 -81zM226 530h901q21 191 -83.5 311t-298.5 120t-336.5 -120t-182.5 -311
zM492 1327q-12 64 43 123t130 59q47 0 107 -36.5t117 -73t96 -36.5q37 0 66 38t22 68l62 18q11 -67 -44.5 -125.5t-132.5 -58.5q-36 0 -79.5 23t-77 50t-76 50t-76.5 23q-38 0 -67.5 -32.5t-26.5 -73.5z" />
    <glyph glyph-name="Ygrave" unicode="&#x1ef2;" horiz-adv-x="1189" 
d="M562 0l101 636l-363 764h73l332 -698l554 698h73l-606 -764l-101 -636h-63zM779 1998h63l38 -288h-41z" />
    <glyph glyph-name="ygrave" unicode="&#x1ef3;" horiz-adv-x="1020" 
d="M204 -500l269 500l-216 1000h69l191 -916l496 916h65l-808 -1500h-66zM675 1577h63l37 -288h-41z" />
    <glyph glyph-name="uni1EF8" unicode="&#x1ef8;" horiz-adv-x="1189" 
d="M562 0l101 636l-363 764h73l332 -698l554 698h73l-606 -764l-101 -636h-63zM558 1756q-12 64 43 123t130 59q47 0 107 -36.5t117 -73t96 -36.5q37 0 66 38t22 68l61 18q11 -67 -44 -125.5t-132 -58.5q-36 0 -79.5 23t-77 50t-76 50t-76.5 23q-38 0 -67.5 -32.5
t-26.5 -73.5z" />
    <glyph glyph-name="uni1EF9" unicode="&#x1ef9;" horiz-adv-x="1020" 
d="M204 -500l269 500l-216 1000h69l191 -916l496 916h65l-808 -1500h-66zM455 1339q-12 64 43 123t130 59q47 0 107 -36.5t117 -73t96 -36.5q37 0 66 38t22 68l61 18q11 -67 -44 -125.5t-132 -58.5q-36 0 -79.5 23t-77 50t-76 50t-76.5 23q-38 0 -68 -32.5t-26 -73.5z" />
    <glyph glyph-name="endash" unicode="&#x2013;" horiz-adv-x="1327" 
d="M230 570l10 60h1045l-10 -60h-1045z" />
    <glyph glyph-name="emdash" unicode="&#x2014;" horiz-adv-x="2163" 
d="M230 570l10 60h1881l-10 -60h-1881z" />
    <glyph glyph-name="quoteleft" unicode="&#x2018;" horiz-adv-x="409" 
d="M365 878l-3 522h63l-18 -522h-42z" />
    <glyph glyph-name="quoteright" unicode="&#x2019;" horiz-adv-x="263" 
d="M196 878l147 522h63l-168 -522h-42z" />
    <glyph glyph-name="quotesinglbase" unicode="&#x201a;" horiz-adv-x="284" 
d="M14 -112l118 338h63l-140 -338h-41z" />
    <glyph glyph-name="quotedblleft" unicode="&#x201c;" horiz-adv-x="583" 
d="M337 878l168 522h42l-148 -522h-62zM870 886l168 522h42l-148 -522h-62z" />
    <glyph glyph-name="quotedblright" unicode="&#x201d;" horiz-adv-x="583" 
d="M196 878l147 522h63l-168 -522h-42zM728 878l147 522h63l-168 -522h-42z" />
    <glyph glyph-name="quotedblbase" unicode="&#x201e;" horiz-adv-x="493" 
d="M14 -112l118 338h63l-140 -338h-41zM488 -112l118 338h63l-140 -338h-41z" />
    <glyph glyph-name="dagger" unicode="&#x2020;" horiz-adv-x="801" 
d="M463 600l86 540h-269l9 60h269l48 300h63l-48 -300h270l-9 -60h-270l-86 -540h-63z" />
    <glyph glyph-name="daggerdbl" unicode="&#x2021;" horiz-adv-x="801" 
d="M457 560l41 262h-269l9 58h269l42 260h-269l9 60h269l48 300h63l-48 -300h270l-9 -60h-270l-42 -260h270l-9 -58h-270l-41 -262h-63z" />
    <glyph glyph-name="bullet" unicode="&#x2022;" horiz-adv-x="324" 
d="M245 540q-25 0 -40 17.5t-11 44.5q4 24 24.5 41t45.5 17q27 0 43 -17t12 -41q-4 -27 -25 -44.5t-49 -17.5z" />
    <glyph glyph-name="ellipsis" unicode="&#x2026;" horiz-adv-x="1520" 
d="M140 -26q-18 0 -29.5 13.5t-8.5 32.5q3 18 18.5 31t33.5 13q21 0 33 -13t9 -31q-3 -19 -19 -32.5t-37 -13.5zM715 20q3 18 18.5 31t33.5 13q21 0 33 -13t9 -31q-3 -19 -19 -32.5t-37 -13.5q-18 0 -29.5 13.5t-8.5 32.5zM1329 20q3 18 18.5 31t33.5 13q21 0 33 -13t9 -31
q-3 -19 -19 -32.5t-37 -13.5q-18 0 -29.5 13.5t-8.5 32.5z" />
    <glyph glyph-name="guilsinglleft" unicode="&#x2039;" horiz-adv-x="658" 
d="M495 261l-260 340l368 338h84l-368 -338l260 -340h-84z" />
    <glyph glyph-name="guilsinglright" unicode="&#x203a;" horiz-adv-x="658" 
d="M161 261l367 340l-259 338h83l260 -338l-368 -340h-83z" />
    <glyph glyph-name="fraction" unicode="&#x2044;" horiz-adv-x="501" 
d="M-208 0l1065 1400h74l-1066 -1400h-73z" />
    <glyph glyph-name="Euro" unicode="&#x20ac;" horiz-adv-x="1287" 
d="M1185 -14q-146 -28 -280 2.5t-231.5 105.5t-159.5 191t-71 253h-259l10 60h249l32 204h-249l10 60h259q55 139 154 255t220.5 190.5t263.5 105t278 3.5l-9 -60q-169 34 -339.5 -22t-302 -180.5t-200.5 -291.5h395l-10 -60h-406l-32 -204h406l-10 -60h-395
q12 -127 70.5 -231t149.5 -169.5t212 -91t254 -0.5z" />
    <glyph glyph-name="trademark" unicode="&#x2122;" horiz-adv-x="1473" 
d="M482 662l112 706h-285l5 32h605l-5 -32h-287l-112 -706h-33zM830 662l117 738h33l193 -595l383 595h32l-117 -738h-33l101 647l-368 -574h-19l-186 574l-103 -647h-33z" />
    <glyph glyph-name="arrowleft" unicode="&#x2190;" horiz-adv-x="1433" 
d="M631 284l-413 466l561 466l37 -42l-475 -394h1117l-10 -60h-1117l351 -394z" />
    <glyph glyph-name="arrowup" unicode="&#x2191;" horiz-adv-x="1174" 
d="M582 158l169 1070l-475 -396l-38 44l563 466l412 -466l-50 -44l-350 396l-169 -1070h-62z" />
    <glyph glyph-name="arrowright" unicode="&#x2192;" horiz-adv-x="1433" 
d="M889 284l-36 42l474 394h-1114l10 60h1114l-350 394l50 42l416 -466z" />
    <glyph glyph-name="arrowdown" unicode="&#x2193;" horiz-adv-x="1174" 
d="M611 160l-413 466l50 42l350 -394l169 1066h62l-169 -1066l477 394l36 -42z" />
    <glyph glyph-name="arrowboth" unicode="&#x2194;" horiz-adv-x="1663" 
d="M631 284l-413 466l561 466l37 -42l-475 -394h1226l-350 394l50 42l416 -466l-564 -466l-36 42l474 394h-1226l351 -394z" />
    <glyph glyph-name="arrowupdn" unicode="&#x2195;" horiz-adv-x="1174" 
d="M594 48l-413 468l50 44l350 -398l186 1176l-476 -396l-36 44l561 466l414 -466l-52 -44l-349 396l-186 -1176l475 398l38 -44z" />
    <glyph glyph-name="uni2196" unicode="&#x2196;" horiz-adv-x="1095" 
d="M1003 322l-672 754l-88 -558h-62l105 660h689l-10 -60h-581l669 -754z" />
    <glyph glyph-name="uni2197" unicode="&#x2197;" horiz-adv-x="1093" 
d="M193 322l-36 42l906 754h-582l10 60h690l-105 -660h-63l88 558z" />
    <glyph glyph-name="uni2198" unicode="&#x2198;" horiz-adv-x="1093" 
d="M355 322l10 60h582l-668 754l50 42l669 -754l89 558h63l-105 -660h-690z" />
    <glyph glyph-name="uni2199" unicode="&#x2199;" horiz-adv-x="1093" 
d="M150 322l105 660h62l-89 -558l908 754l38 -42l-908 -754h583l-10 -60h-689z" />
    <glyph glyph-name="partialdiff" unicode="&#x2202;" horiz-adv-x="1247" 
d="M619 -26q-142 0 -252 68t-162 182.5t-31 251.5q22 137 110 252.5t219 182.5t275 67q138 0 244.5 -61t160.5 -167q-5 132 -46.5 252t-112.5 213t-177 148t-231 55l9 60q154 0 279.5 -73t210.5 -206q84 -134 114.5 -307.5t0.5 -369.5q-26 -164 -110 -285
q-87 -125 -216.5 -194t-284.5 -69zM236 476q-18 -120 28 -220q47 -103 142.5 -162.5t221.5 -59.5q132 0 247 62q116 62 193 162.5t95 217.5q19 122 -27 222q-47 102 -143.5 161t-224.5 59q-131 0 -244 -61q-115 -61 -192 -162t-96 -219z" />
    <glyph glyph-name="emptyset" unicode="&#x2205;" horiz-adv-x="1243" 
d="M324 -40l-50 30l62 78q-93 73 -136 187.5t-22 244.5q23 144 112.5 266t220.5 192t273 70q136 0 234 -60l61 76l50 -30l-61 -78q93 -73 134.5 -187t20.5 -249q-23 -144 -111.5 -265t-220 -191t-274.5 -70q-122 0 -234 62zM240 500q-18 -115 18.5 -214.5t116.5 -163.5
l604 794q-68 40 -147.5 50.5t-155.5 -6.5t-150 -59t-132 -101t-99.5 -137t-54.5 -163zM422 88q70 -41 150.5 -51t157 7t149.5 58.5t130 100.5t97.5 136t53.5 161q18 115 -17.5 216t-113.5 166z" />
    <glyph glyph-name="minus" unicode="&#x2212;" horiz-adv-x="1243" 
d="M189 570l10 60h1045l-10 -60h-1045z" />
    <glyph glyph-name="radical" unicode="&#x221a;" horiz-adv-x="1327" 
d="M368 0l-157 708h66l138 -612l704 1304h330l-10 -60h-286l-724 -1340h-61z" />
    <glyph glyph-name="infinity" unicode="&#x221e;" horiz-adv-x="1529" 
d="M431 340q-121 15 -185 97.5t-47 194.5q18 115 110 198.5t214 93.5q86 0 143 -26q51 -24 93.5 -72t113.5 -148q66 68 144 136q66 56 125.5 83t128.5 27q140 -10 209 -90.5t50 -201.5q-18 -114 -109 -196t-213 -96q-82 0 -139 23q-50 22 -95.5 72t-114.5 151
q-82 -79 -154 -141q-64 -56 -126.5 -80.5t-147.5 -24.5zM261 632q-15 -91 39 -155.5t144 -76.5q75 0 126 21q32 13 73.5 45.5t70 59.5t110.5 106q-56 77 -106 143q-41 51 -83.5 70t-116.5 19q-96 -10 -169.5 -76t-87.5 -156zM905 632q49 -66 68.5 -91.5t45.5 -55.5t45 -45
q28 -23 61 -31.5t85 -8.5q97 11 170 76.5t87 155.5q15 95 -39 158.5t-166 73.5q-60 0 -111 -23q-11 -5 -21 -11t-22.5 -15.5t-22 -16.5t-25.5 -20.5t-25 -22t-29 -27t-30 -28t-34.5 -33t-36.5 -35.5z" />
    <glyph glyph-name="integral" unicode="&#x222b;" horiz-adv-x="791" 
d="M219 -26q-56 2 -87 44.5t-14 97.5l61 -6q-7 -28 8.5 -49t47.5 -27q30 -3 55 15.5t35 48.5l300 1210q16 56 62.5 88.5t104.5 29.5q55 -5 86 -45.5t16 -96.5l-59 6q7 30 -10 52.5t-48 23.5q-31 5 -58 -16.5t-32 -47.5l-301 -1208q-30 -115 -167 -120z" />
    <glyph glyph-name="approxequal" unicode="&#x2248;" horiz-adv-x="1244" 
d="M928 684q-49 0 -107.5 26t-112 63.5t-105.5 75t-104.5 63t-92.5 24.5q-86 2 -149 -64t-54 -150l-63 -14q-10 68 26 136q38 68 106 111t146 43q46 0 102 -26t108 -63l104 -74t107 -63t101 -26q88 0 152 64t52 144l64 18q12 -75 -27 -140q-39 -67 -108 -107.5t-145 -40.5z
M58 187q-11 69 25 136q38 68 106.5 111t146.5 43q46 0 102 -26t108 -63l104 -74t107 -63t101 -26q88 0 152 64t52 144l63 18q13 -73 -27 -140q-39 -67 -107.5 -107.5t-144.5 -40.5q-49 0 -107.5 26t-112 63.5t-106 75t-104.5 63t-92 24.5q-87 2 -149.5 -64t-53.5 -150z" />
    <glyph glyph-name="notequal" unicode="&#x2260;" horiz-adv-x="1243" 
d="M413 18l167 360h-421l9 60h439l152 324h-539l9 60h557l167 360h64l-165 -360h422l-9 -60h-441l-151 -324h540l-9 -60h-558l-168 -360h-65z" />
    <glyph glyph-name="lessequal" unicode="&#x2264;" horiz-adv-x="1243" 
d="M1199 348l-1000 284l15 94l1090 286l-10 -64l-1031 -268l946 -270zM99 0l10 60h1045l-10 -60h-1045z" />
    <glyph glyph-name="greaterequal" unicode="&#x2265;" horiz-adv-x="1243" 
d="M154 348l10 62l1032 270l-947 268l10 64l1000 -286l-15 -94zM99 0l10 60h1045l-10 -60h-1045z" />
    <glyph glyph-name="uniA78B" unicode="&#xa78b;" horiz-adv-x="206" 
d="M296 1443h71l-86 -488h-55z" />
    <glyph glyph-name="uniA78C" unicode="&#xa78c;" horiz-adv-x="206" 
d="M296 1443h71l-86 -488h-55z" />
    <glyph glyph-name="uni004A0301" horiz-adv-x="1304" 
d="M607 -26q-177 0 -287 82q-110 81 -154 219t-17 309h63q-38 -244 70 -397t334 -153q227 0 382.5 148t195.5 402l130 816h63l-130 -816q-43 -271 -219.5 -440.5t-430.5 -169.5zM1374 1710l129 288h62l-149 -288h-42z" />
    <glyph glyph-name="i.loclTRK" horiz-adv-x="351" 
d="M140 0l158 1000h63l-158 -1000h-63zM350 1403q3 20 19 32t36 12q19 0 30.5 -12.5t8.5 -30.5q-3 -20 -18.5 -32.5t-34.5 -12.5q-20 0 -32 12.5t-9 31.5z" />
    <glyph glyph-name="uni006A0301" horiz-adv-x="454" 
d="M-139 -440q139 0 243.5 83t124.5 209l181 1148h62l-181 -1148q-17 -100 -79 -178q-63 -82 -157 -128t-203 -46zM457 1310l130 288h62l-150 -288h-42z" />
    <glyph glyph-name="_Designova" horiz-adv-x="1401" 
d="M699 38q-162 0 -300 81t-218.5 219.5t-80.5 300.5q1 122 48.5 233t128 191t191.5 127.5t233 47.5t233 -47.5t191.5 -127.5t128 -191t47.5 -233q0 -163 -80.5 -301.5t-219.5 -219t-302 -80.5zM172 639q0 -108 42 -206t112.5 -168.5t168.5 -112.5t206 -42q143 0 264.5 70.5
t192.5 192t71 265.5t-70.5 266t-191.5 192.5t-265 70.5t-266 -70.5t-193 -192t-71 -265.5zM360 744q8 0 12 -4q53 -20 107 -29q43 -4 76 3q24 4 49 13q4 0 10.5 3.5t7.5 3.5l-17 8.5t-17.5 9t-15 10t-14.5 13.5h20q37 0 80 18q77 48 147 68q30 9 61 9q6 0 23 1.5t25 0.5
q62 -4 94 -36q7 -5 31 -34v-2q-3 2 -6 2q-50 19 -89.5 4.5t-66.5 -55.5q-6 -11 -15.5 -33.5t-12.5 -29.5q-5 -12 -15 -36.5t-19 -44.5t-17 -37q-31 -65 -69 -111q-17 -23 -68 -61q-51 -36 -127 -59h-6l26 23q16 15 28 47q8 25 24.5 71t23.5 68q31 89 60 139v1q-1 -2 -4.5 -6
t-5.5 -6q-8 -8 -10 -15q-21 -24 -35 -60q-3 -5 -9 -5q-110 5 -190 73q-1 1 -61 58q-5 7 -15 17z" />
    <glyph glyph-name="_Origin" horiz-adv-x="1874" 
d="M100 40v1150h1674v-1149l-43 -1v1zM143 82h1588v625h-1588v-625zM289 224v128h30v-128h-30zM293 884h68q60 0 84 40q11 19 11 46q0 55 -44 75q-19 11 -49 11h-70v-172zM312 439v127h107v-23h-77v-28h70v-22h-70v-31h77v-23h-107zM333 916v108h27q37 0 49 -23q7 -19 7 -31
q0 -36 -26 -48q-10 -6 -31 -6h-26zM339 224v128h25l64 -77v77h29v-128h-24l-63 79v-79h-31zM440 439v127h25l64 -76v76h29v-127h-25l-63 78v-78h-30zM472 948q0 -44 33 -58q13 -7 39 -7q35 0 54 17q9 12 12 22l-38 1q-3 -9 -16 -13q-2 0 -5.5 -0.5t-6.5 -0.5q-22 0 -29 15
q-5 8 -5 15h100v11q0 32 -20 49q-19 16 -48 16q-43 0 -63 -32q-7 -17 -7 -35zM510 962q1 12 15 22q8 5 17 5q21 0 26 -16q4 -5 4 -11h-62zM524 224v128h63q52 0 52 -32q0 -20 -18 -29q2 0 2 -2q20 -7 20 -30q0 -35 -51 -35h-68zM554 247h35q24 0 24 16q0 15 -24 15h-35v-31z
M554 303h31q24 0 24 14q0 16 -24 16h-31v-30zM579 543v23h112v-23h-41v-104h-29v104h-42zM621 922q6 -39 67 -39q39 0 57 20q7 11 7 21q0 26 -41 35l-28 5q-18 3 -18 13q0 12 23 12t23 -14l38 2q-7 38 -62 38q-38 0 -54 -19q-8 -8 -8 -21q0 -28 41 -37l26 -5q19 -3 19 -12
q0 -14 -23 -14q-24 0 -27 16zM657 224v128h107v-24h-78v-27h70v-23h-70v-29h76v-25h-105zM704 566h32l29 -89l30 89h27l29 -90l31 90h28l-41 -127h-33l-28 87l-29 -87h-31zM767 1047q0 -7 7 -12.5t15 -5.5q9 0 15.5 5.5t6.5 12.5t-6.5 12.5t-15.5 5.5q-8 0 -15 -5.5
t-7 -12.5zM768 884h41v129h-41v-129zM784 224v128h59q19 0 29 -5q27 -12 27 -41q0 -14 -7 -24q-11 -13 -21 -18l27 -40h-32l-25 37h-26v-37h-31zM815 285h26q28 0 28 21q0 22 -28 22h-26v-43zM827 949q0 -42 30 -56q12 -6 30 -6q21 0 33 10q7 5 7 10h2v-23q0 -24 -30 -24
q-18 0 -25 7q-2 1 -5 8l-37 -6q3 -15 20 -25t46 -10q43 0 62 22q10 10 10 27v130h-40v-21h-3q-4 13 -21 19q-10 4 -19 4q-35 0 -52 -29q-8 -16 -8 -37zM869 949q0 24 12 33q10 5 18 5q19 0 28 -19q0 -2 1.5 -8.5t1.5 -10.5q0 -36 -31 -36q-18 0 -28 18q-2 10 -2 18zM913 224
v128h29v-103h76v-25h-105zM915 503q0 27 20 47q19 19 50 19q33 0 51 -19q20 -20 20 -47q0 -25 -20 -47q-18 -19 -50 -19t-51 19q-20 22 -20 47zM946 503q0 -18 11 -29.5t28 -11.5q18 0 29 11.5t11 29.5q0 19 -11 30.5t-29 11.5q-17 0 -28 -11.5t-11 -30.5zM993 884h41v75
q0 17 13 23q5 3 14 3q25 0 25 -25v-76h42v82q0 31 -24 42q-11 7 -27 7q-31 0 -43 -25h-1v23h-40v-129zM1039 224v128h30v-128h-30zM1073 439v127h57q22 0 30 -3q26 -14 26 -42q0 -15 -7 -25q-6 -10 -21 -17l28 -40h-32l-25 36h-28v-36h-28zM1090 224v128h25l63 -77v77h31
v-128h-25l-64 79v-79h-30zM1101 499h27q28 0 28 22t-28 22h-27v-44zM1145 948q0 -39 34 -58q12 -7 38 -7q42 0 64 31q8 14 8 34q0 39 -33 59q-19 8 -39 8q-44 0 -63 -32q-9 -18 -9 -35zM1187 949q0 24 13 33q6 5 17 5q19 0 27 -19q3 -7 3 -19q0 -24 -13 -34q-8 -5 -17 -5
q-19 0 -28 20q-2 10 -2 19zM1201 439v127h107v-23h-77v-28h69v-22h-69v-54h-30zM1227 242q0 17 19 17q7 0 12 -5t5 -12q0 -6 -5 -19l-11 -27h-18l9 30q-11 4 -11 16zM1290 1013l51 -129h45l52 129h-42l-31 -91h-1l-31 91h-43zM1319 439v127h107v-23h-77v-28h69v-22h-69v-31
h77v-23h-107zM1336 224v128h57q23 0 38 -8q33 -14 33 -55q0 -22 -9 -35q-16 -30 -62 -30h-57zM1366 249h26q13 0 23 5q19 11 19 35q0 16 -5 21q-9 18 -37 18h-26v-79zM1439 921q0 -26 23 -34q9 -4 25 -4q21 0 34 9q8 10 8 11h2v-19h37v88q0 19 -17 33q-22 10 -43 10
q-35 0 -53 -18q-9 -7 -12 -20l39 -4q4 16 25 16t21 -16v-1q0 -7 -15 -10q-2 -1 -9 -1.5t-10 -0.5q-25 -2 -39 -10q-16 -9 -16 -29zM1448 439v127h22l66 -76v76h29v-127h-25l-64 78v-78h-28zM1477 922q0 7 12 14q4 2 12 2q19 2 28 6v-13q0 -15 -15 -21q-12 -3 -16 -3
q-21 0 -21 15zM1482 224v128h105v-24h-76v-27h69v-23h-69v-29h76v-25h-105z" />
    <glyph glyph-name="_Typeface" horiz-adv-x="2096" 
d="M100 355v540h1896v-540h-1896zM274 522h38v159h3l122 -159h37v217h-39v-159h-2l-123 159h-36v-217zM502 602q0 -49 39 -72q17 -10 46 -10q52 0 74 39q12 21 12 43q0 53 -41 74q-15 10 -45 10q-51 0 -75 -38q-10 -21 -10 -46zM539 602q0 36 21 50q11 8 27 8q33 0 45 -29
q5 -13 5 -29q0 -34 -21 -48q-13 -8 -29 -8q-32 0 -44 29q-4 8 -4 27zM697 522h36v27h3q12 -17 26 -24q13 -5 27 -5q45 0 67 39q10 17 10 45q0 52 -39 72q-11 10 -38 10q-30 0 -44 -17q-8 -11 -9 -12h-3v82h-36v-217zM733 604q0 34 22 48q11 8 27 8q32 0 43 -27q5 -25 5 -29
q0 -36 -22 -50q-11 -8 -26 -8q-33 0 -44 27q-5 25 -5 31zM883 602q0 -51 41 -72q18 -10 45 -10q39 0 63 19q11 11 14 24l-33 5q-9 -17 -25 -19q-7 -5 -16 -5q-34 0 -46 24q-7 10 -7 27h130v9q0 42 -24 63q-23 19 -58 19q-51 0 -75 -38q-9 -19 -9 -46zM919 619q0 19 21 36
q8 5 27 5q34 0 41 -24q3 -3 5 -10l2 -7h-96zM1075 522h34v217h-34v-217zM1222 597q0 -48 46 -67q17 -10 50 -10q62 0 87 36q12 21 12 41v142h-39v-140q0 -32 -26 -43q-14 -7 -34 -7q-36 0 -53 24q-7 10 -7 26v140h-36v-142zM1453 522h36v97q0 26 22 36q10 5 21 5
q18 0 28.5 -10.5t10.5 -28.5v-99h36v104q0 41 -29 53q-14 7 -34 7q-41 0 -53 -29h-4v27h-34v-162zM1633 602q0 -49 39 -72q18 -10 46 -10q52 0 74 39q12 21 12 43q0 53 -41 74q-15 10 -45 10q-53 0 -75 -38q-10 -21 -10 -46zM1669 602q0 36 22 50q11 8 27 8q33 0 45 -29
q5 -13 5 -29q0 -35 -22 -48q-11 -8 -28 -8q-33 0 -44 29q-5 8 -5 27z" />
    <glyph glyph-name="_VendorID" horiz-adv-x="1106" 
d="M100 143v1104h906v-1104h-906zM103 59q0 12 7 19t17 7q8 0 11 -3l4 -5v24h12v-67h-12v9l-4 -7q-6 -4 -14 -4q-21 0 -21 27zM116 59q0 -16 12 -16q14 0 14 16v1q0 16 -13 16t-13 -17zM163 59q0 11 7 18.5t18 7.5q10 0 17 -7t7 -18q0 -2 -2 -5h-34q1 -12 12 -12q9 0 11 8
h11q-3 -19 -22 -19q-25 0 -25 27zM176 62h23q-3 14 -11 14q-11 0 -12 -14zM216 48h13q3 -8 8 -8q9 0 9 7q0 2 -11 8q-17 5 -17 15q0 15 19 15q20 0 20 -15h-13q-2 6 -7 6q-6 0 -6 -5q0 -4 11 -9q16 -3 16 -14q0 -16 -21 -16q-18 0 -21 16zM255 423q0 -56 39.5 -96t96.5 -40
q56 0 94.5 39.5t38.5 96.5q0 58 -37.5 96.5t-95.5 38.5q-11 0 -22 -3l79 112h-60l-90 -128q-43 -60 -43 -116zM255 861q0 -56 39.5 -95t96.5 -39q56 0 94.5 39t38.5 95q0 58 -37.5 96.5t-95.5 38.5q-15 0 -22 -2l79 114h-60l-90 -132q-43 -62 -43 -115zM265 95q0 6 8 6
q7 0 7 -6q0 -8 -7 -8q-8 0 -8 8zM266 34v51h13v-51h-13zM289 31v1h13v-1q0 -8 12 -8q10 0 14 12v8l-4 -7q-8 -2 -13 -2q-22 0 -22 25q0 26 24 26q8 0 11 -3l4 -5v8h13v-38q0 -8 -2 -11q0 -22 -25 -22t-25 17zM302 60q0 -17 12 -17q14 0 14 16v1q0 16 -14 16q-12 0 -12 -16z
M305 423q0 37 24 60.5t62 23.5q36 0 60 -23.5t24 -60.5q0 -39 -24 -63t-60 -24q-38 0 -62 24t-24 63zM305 861q0 39 24 62.5t62 23.5q36 0 60 -24.5t24 -61.5t-24 -61.5t-60 -24.5q-38 0 -62 24t-24 62zM351 34v51h13v-10l4 7q4 3 12 3q14 0 18 -14q1 -3 1 -9v-28h-14v32
q0 10 -9 10q-12 0 -12 -19v-23h-13zM406 59q0 11 7 18.5t18 7.5q26 0 26 -26q0 -27 -26 -27q-11 0 -18 7.5t-7 19.5zM419 59q0 -16 12 -16q14 0 14 16q0 17 -14 17q-12 0 -12 -17zM461 85h14l13 -42l12 42h13l-18 -51h-17zM517 48q0 15 28 15h3v7q0 6 -8 6q-11 0 -11 -8h-12
q0 17 23 17q17 0 19 -14v-37h-11v6l-3 -5q-6 -3 -13 -3q-15 0 -15 16zM529 48q0 -5 8 -5q11 0 11 8v6q-19 2 -19 -9zM568 74v9h5v7q0 14 18 14h5v-10q-10 2 -10 -5v-6h10v-9h-10v-40h-13v40h-5zM580 423q0 -57 39.5 -96.5t95.5 -39.5t94.5 39.5t38.5 96.5t-38 96t-95 39
q-13 0 -23 -3l80 112h-61l-90 -128q-41 -58 -41 -116zM580 861q0 -56 39.5 -95t95.5 -39t94.5 39t38.5 95q0 58 -38 96.5t-95 38.5q-16 0 -24 -2l81 114h-61l-90 -132q-41 -62 -41 -115zM600 59q0 26 26 26q25 0 25 -26q0 -27 -25 -27q-26 0 -26 27zM613 59q0 -16 13 -16
q12 0 12 16q0 17 -12 17q-13 0 -13 -17zM629 423q0 37 24 60.5t62 23.5q36 0 58.5 -23.5t22.5 -60.5q0 -39 -22.5 -63t-58.5 -24q-38 0 -62 24t-24 63zM629 861q0 38 24 62t62 24q36 0 58.5 -24t22.5 -62t-22.5 -62t-58.5 -24q-38 0 -62 24t-24 62zM660 34v51h11v-10l5 7
q4 3 12 3q14 0 18 -14v-37h-13v32q-3 10 -8 10q-14 0 -14 -19v-23h-11zM713 74v9h7v12h13v-12h9v-9h-9v-26q2 -9 8 -5v-10h-7q-14 0 -14 10v31h-7zM746 48h14q2 -8 9 -8q8 0 8 7q0 2 -11 8q-16 4 -16 15q0 15 18 15t23 -15h-15q0 6 -9 6q-4 0 -4 -5t10 -9q18 -4 18 -14
q0 -16 -22 -16q-19 0 -23 16zM794 39q0 9 9 9q8 0 8 -9q0 -7 -8 -7q-9 0 -9 7zM817 59q0 11 7.5 18.5t16.5 7.5q23 0 23 -19h-12q-3 10 -11 10q-11 0 -11 -17q0 -16 11 -16q9 0 11 8h12q-1 -19 -23 -19q-24 0 -24 27zM869 59q0 26 27 26q24 0 24 -26q0 -27 -24 -27
q-27 0 -27 27zM882 59q0 -16 14 -16q12 0 12 16q0 17 -12 17q-14 0 -14 -17zM929 34v51h13v-9l5 6q3 3 8 3q12 0 17 -10l5 7q3 3 10 3q16 0 16 -12q1 -3 1 -11v-28h-12v26q0 1 -0.5 3.5t-0.5 4.5q0 8 -10 8q-8 0 -8 -16v-26h-12v34q-5 8 -9 8q-10 0 -10 -16v-26h-13z" />
    <glyph glyph-name="crossbarcomb" horiz-adv-x="1446" 
d="M107 579l9 58h1415l-9 -58h-1415z" />
    <glyph glyph-name="crossslashcomb" horiz-adv-x="525" 
d="M-18 -209l708 1803h71l-709 -1803h-70z" />
    <glyph glyph-name="dotlessicomb" horiz-adv-x="345" 
d="M140 0l158 1000h63l-158 -1000h-63z" />
    <glyph glyph-name="dotlessjcomb" horiz-adv-x="456" 
d="M-139 -440q139 0 243.5 83t124.5 209l181 1148h62l-181 -1148q-17 -100 -79 -178q-63 -82 -157 -128t-203 -46z" />
    <glyph glyph-name="leftspikecomb" horiz-adv-x="263" 
d="M217 878l168 522h42l-148 -522h-62z" />
    <glyph glyph-name="rightspikecomb" horiz-adv-x="346" 
d="M196 878l147 522h63l-168 -522h-42z" />
    </font>
</defs>
</svg>
