<?xml version="1.0" standalone="no"?>
<!DOCTYPE svg PUBLIC "-//W3C//DTD SVG 1.1//EN" "http://www.w3.org/Graphics/SVG/1.1/DTD/svg11.dtd" >
<svg xmlns="http://www.w3.org/2000/svg" xmlns:xlink="http://www.w3.org/1999/xlink" version="1.1">
<metadata>
Created by FontForge 20201107 at Tue May 21 02:52:48 2024
 By 
Copyright (c) 2024 by Designova. All rights reserved.
</metadata>
<defs>
<font id="NobelUno-SemiBoldItalic" horiz-adv-x="1185" >
  <font-face 
    font-family="Nobel Uno SemiBold Italic"
    font-weight="600"
    font-style="italic"
    font-stretch="normal"
    units-per-em="2048"
    panose-1="0 0 0 0 0 0 0 0 0 0"
    ascent="1638"
    descent="-410"
    x-height="1019"
    cap-height="1400"
    bbox="-248 -500 2583 2590"
    underline-thickness="50"
    underline-position="-125"
    unicode-range="U+000D-A78C"
  />
<missing-glyph horiz-adv-x="1608" 
d="M195 -1l218 1378h1224l-218 -1378h-1224zM425 165h31l13 83h1l49 -83h29l21 129h-31l-13 -81h-2l-51 81h-26zM470 510l98 -114l346 298l257 -298l136 114l-254 301l344 301l-95 114l-351 -299l-250 299l-136 -114l253 -301zM569 213q-4 -28 18 -43q16 -6 28 -6
q31 0 52 23q7 10 10 26q5 30 -18 44q-12 6 -28 6q-37 0 -52 -24q-9 -12 -10 -26zM599 213q2 15 15 26q4 4 13 4q16 0 19 -14q1 -7 0 -16q-3 -17 -14 -25q-10 -2 -14 -2q-17 0 -17 14q-4 5 -2 13zM730 230q-6 -41 23 -59q17 -7 36 -7q38 0 59 26q9 12 12 28l2 17h-59l-3 -21
h31q-3 -16 -20 -22q-5 -4 -18 -4q-24 0 -30 19q-4 7 -2 23q5 28 24 38q15 5 20 5q28 0 28 -21h31q1 18 -15 33q-16 11 -40 11q-40 0 -64 -30q-10 -12 -15 -36zM869 165h29l21 129h-29zM911 133q10 -4 19 -4q19 0 35 14q5 3 10 13l58 107h-31l-34 -71h-2l-10 71h-33l24 -99
l-3 -5q-4 -11 -23 -7zM1021 129h31l9 52q4 -10 15 -14q3 -3 13 -3q27 0 43 23q6 8 10 26q5 31 -14 45q-13 5 -23 5q-18 0 -27 -9q-6 -4 -7 -9h-1l3 18h-30zM1065 200q-1 6 0 13q3 17 14 25q5 5 12 5q17 0 19 -14q2 -10 1 -16q-3 -15 -14 -25q-8 -2 -15 -2q-14 0 -17 14z
M1149 165h28l9 56q2 14 14 18q4 3 11 3q19 0 16 -19l-9 -58h31l10 62q3 24 -14 33q-12 3 -18 3q-25 0 -37 -18h-1l8 49h-27z" />
    <glyph glyph-name=".notdef" horiz-adv-x="1608" 
d="M195 -1l218 1378h1224l-218 -1378h-1224zM425 165h31l13 83h1l49 -83h29l21 129h-31l-13 -81h-2l-51 81h-26zM470 510l98 -114l346 298l257 -298l136 114l-254 301l344 301l-95 114l-351 -299l-250 299l-136 -114l253 -301zM569 213q-4 -28 18 -43q16 -6 28 -6
q31 0 52 23q7 10 10 26q5 30 -18 44q-12 6 -28 6q-37 0 -52 -24q-9 -12 -10 -26zM599 213q2 15 15 26q4 4 13 4q16 0 19 -14q1 -7 0 -16q-3 -17 -14 -25q-10 -2 -14 -2q-17 0 -17 14q-4 5 -2 13zM730 230q-6 -41 23 -59q17 -7 36 -7q38 0 59 26q9 12 12 28l2 17h-59l-3 -21
h31q-3 -16 -20 -22q-5 -4 -18 -4q-24 0 -30 19q-4 7 -2 23q5 28 24 38q15 5 20 5q28 0 28 -21h31q1 18 -15 33q-16 11 -40 11q-40 0 -64 -30q-10 -12 -15 -36zM869 165h29l21 129h-29zM911 133q10 -4 19 -4q19 0 35 14q5 3 10 13l58 107h-31l-34 -71h-2l-10 71h-33l24 -99
l-3 -5q-4 -11 -23 -7zM1021 129h31l9 52q4 -10 15 -14q3 -3 13 -3q27 0 43 23q6 8 10 26q5 31 -14 45q-13 5 -23 5q-18 0 -27 -9q-6 -4 -7 -9h-1l3 18h-30zM1065 200q-1 6 0 13q3 17 14 25q5 5 12 5q17 0 19 -14q2 -10 1 -16q-3 -15 -14 -25q-8 -2 -15 -2q-14 0 -17 14z
M1149 165h28l9 56q2 14 14 18q4 3 11 3q19 0 16 -19l-9 -58h31l10 62q3 24 -14 33q-12 3 -18 3q-25 0 -37 -18h-1l8 49h-27z" />
    <glyph glyph-name=".null" horiz-adv-x="1259" 
 />
    <glyph glyph-name="nonmarkingreturn" horiz-adv-x="682" 
 />
    <glyph glyph-name="CR" unicode="&#xd;" horiz-adv-x="1259" 
 />
    <glyph glyph-name="space" unicode=" " horiz-adv-x="530" 
 />
    <glyph glyph-name="space" unicode="&#xa0;" horiz-adv-x="530" 
 />
    <glyph glyph-name="exclam" unicode="!" horiz-adv-x="423" 
d="M161 400l159 1000h190l-159 -1000h-190zM93 87q7 45 45.5 77t85.5 32q46 0 73.5 -32.5t20.5 -76.5q-7 -46 -45 -78.5t-84 -32.5q-47 0 -75 32.5t-21 78.5z" />
    <glyph glyph-name="quotedbl" unicode="&#x22;" horiz-adv-x="584" 
d="M210 836l90 564h174l-90 -564h-174zM476 836l90 564h174l-90 -564h-174z" />
    <glyph glyph-name="numbersign" unicode="#" horiz-adv-x="1612" 
d="M200 0l141 321h-201l88 196h200l160 367h-202l88 196h200l141 320h209l-140 -320h400l139 320h209l-140 -320h201l-86 -196h-202l-160 -367h201l-85 -196h-201l-142 -321h-210l143 321h-400l-142 -321h-209zM636 517h399l161 367h-399z" />
    <glyph glyph-name="dollar" unicode="$" horiz-adv-x="1272" 
d="M546 -19q-171 19 -285 106.5t-127 218.5l208 70q-3 -88 88.5 -144t232.5 -56q84 0 171 28q171 60 190 183q9 59 -26 99q-69 75 -273 111q-132 22 -252 66q-252 97 -212 345q18 116 102 208q74 80 181.5 132t228.5 66l31 199h174l-31 -199q87 -11 161 -41
q104 -41 170.5 -114t78.5 -172l-209 -68q2 89 -89 144t-231 55q-85 1 -169 -27q-172 -61 -191 -183q-11 -72 20 -106q31 -38 96 -59t183 -43q121 -19 244 -69q256 -114 219 -344q-19 -121 -100 -208q-73 -81 -180.5 -132.5t-229.5 -65.5l-31 -194h-174z" />
    <glyph glyph-name="percent" unicode="%" horiz-adv-x="1368" 
d="M140 0l1067 1400h241l-1067 -1400h-241zM262 1073q18 112 108.5 187t203.5 75q114 0 180.5 -75.5t49.5 -186.5q-18 -111 -108.5 -186t-203.5 -75t-180 75.5t-50 185.5zM436 1073q-7 -42 15.5 -67t66.5 -25q45 0 75 25t37 67q7 43 -15 68t-67 25q-44 0 -74.5 -25
t-37.5 -68zM782 326q17 111 109.5 186.5t205.5 75.5q114 0 180.5 -76.5t49.5 -185.5q-18 -110 -108.5 -186t-204.5 -76q-113 0 -181 77.5t-51 184.5zM955 326q-7 -41 17 -67t69 -26q43 0 74.5 26t38.5 67q7 42 -16.5 67.5t-67.5 25.5q-45 0 -77 -26t-38 -67z" />
    <glyph glyph-name="ampersand" unicode="&#x26;" horiz-adv-x="1513" 
d="M526 -24q-130 0 -217 59q-89 59 -129 155.5t-23 206.5q20 126 101 217q52 59 261 232q-84 96 -103 137q-32 57 -18 147q14 86 67 153q54 68 132 108t160 40q84 0 152 -40q66 -41 97 -110t18 -151q-15 -89 -68 -152q-36 -43 -143 -132l274 -310l290 242l-44 -282
l-124 -102l237 -265l-168 -142l-236 264q-206 -169 -280 -215q-99 -60 -236 -60zM364 394q-15 -97 39 -157.5t155 -60.5q46 0 75.5 9t67.5 33q57 41 94 73q2 2 79 66l18 16q16 14 25 21l-275 310l-128 -106q-58 -50 -90 -81q-28 -29 -40.5 -55t-19.5 -68zM591 1131
q-4 -29 2 -43q10 -27 81 -105q3 -4 10 -11l49 40q20 15 37 30q34 28 44.5 43.5t15.5 45.5q8 51 -21 82t-82 31t-90.5 -31.5t-45.5 -81.5z" />
    <glyph glyph-name="quotesingle" unicode="'" horiz-adv-x="316" 
d="M203 836l90 564h174l-90 -564h-174z" />
    <glyph glyph-name="parenleft" unicode="(" horiz-adv-x="739" 
d="M408 -107q-97 100 -143 223q-89 227 -41 531q26 162 103 335q61 140 143.5 250.5t178.5 167.5h189l6 -35q-121 -86 -229 -254q-138 -219 -183 -464q-32 -235 24.5 -428t187.5 -326h-236z" />
    <glyph glyph-name="parenright" unicode=")" horiz-adv-x="736" 
d="M60 -107q174 135 290 326t159 428q21 158 -2 317q-39 271 -181 401l18 35h188q104 -76 158 -256q67 -237 25 -497q-25 -155 -71 -277q-108 -289 -349 -477h-235z" />
    <glyph glyph-name="asterisk" unicode="*" horiz-adv-x="788" 
d="M387 799l-125 100l139 151l-177 58l79 161l180 -58l30 189h175l-30 -189l194 58l32 -161l-198 -58l91 -151l-155 -100l-94 155z" />
    <glyph glyph-name="plus" unicode="+" horiz-adv-x="1244" 
d="M532 95l65 410h-427l32 200h427l64 409h207l-64 -409h428l-32 -200h-428l-65 -410h-207z" />
    <glyph glyph-name="comma" unicode="," horiz-adv-x="476" 
d="M58 -107l137 390h214l-193 -390h-158z" />
    <glyph glyph-name="hyphen" unicode="-" horiz-adv-x="956" 
d="M205 505l32 200h704l-32 -200h-704z" />
    <glyph glyph-name="period" unicode="." horiz-adv-x="424" 
d="M187 -24q-46 0 -73.5 32.5t-20.5 78.5q7 44 45 76.5t84 32.5q47 0 75.5 -32.5t21.5 -76.5q-7 -46 -46 -78.5t-86 -32.5z" />
    <glyph glyph-name="slash" unicode="/" horiz-adv-x="789" 
d="M61 -107l661 1507h210l-662 -1507h-209z" />
    <glyph glyph-name="zero" unicode="0" horiz-adv-x="1276" 
d="M635 -24q-88 0 -162 26t-128 73.5t-94 114t-59 147t-23 172.5t13 191q24 149 84 280.5t147 230t204 156t248 57.5q170 0 284.5 -95.5t156.5 -259.5t9 -369q-33 -206 -127.5 -370t-239 -259t-313.5 -95zM381 700q-37 -237 38.5 -380.5t247.5 -143.5q171 0 291 144t157 380
q38 242 -36.5 383t-245.5 141q-177 0 -298 -151q-118 -147 -154 -373z" />
    <glyph glyph-name="one" unicode="1" horiz-adv-x="445" 
d="M79 0l222 1400h208l-222 -1400h-208z" />
    <glyph glyph-name="two" unicode="2" horiz-adv-x="1170" 
d="M89 0l26 167l218 168q113 88 220 178q91 76 202 180q198 192 214 290q17 104 -43 172.5t-169 68.5q-69 0 -133 -32q-155 -84 -161 -243h-207q14 147 103 258q78 100 192.5 158.5t237.5 58.5q129 0 219 -59q96 -60 142 -160.5t27 -221.5q-22 -138 -198 -334
q-176 -197 -489 -449h583l-32 -200h-952z" />
    <glyph glyph-name="three" unicode="3" horiz-adv-x="1062" 
d="M526 -24q-136 0 -231 58q-101 63 -143 171t-13 235h207q-22 -85 5 -148q49 -116 207 -116q64 0 131 32q67 34 109.5 84.5t52.5 113.5q20 124 -64 184.5t-269 53.5l28 179q158 -7 251.5 44.5t110.5 159.5q8 51 -15 96q-53 102 -177 102q-56 0 -115 -27q-152 -73 -148 -205
h-210q8 114 82.5 214.5t188 159t233.5 58.5q117 0 204 -53q90 -55 135.5 -146t28.5 -199q-14 -89 -65.5 -165t-129.5 -122q84 -50 119.5 -137.5t17.5 -196.5q-18 -117 -98 -217q-82 -99 -196.5 -156t-236.5 -57z" />
    <glyph glyph-name="four" unicode="4" horiz-adv-x="1199" 
d="M716 0l48 305h-626l29 180l751 915h227l-142 -893h147l-32 -202h-147l-48 -305h-207zM431 508l365 -1l87 557z" />
    <glyph glyph-name="five" unicode="5" horiz-adv-x="1139" 
d="M295 378q46 -210 253 -210q80 0 154 39q158 83 181 238q13 79 -16 137q-42 90 -136.5 124.5t-191.5 17t-167 -68.5h-143l202 752h729l-31 -195h-548l-83 -311q66 13 137 15q146 -2 252 -56q114 -60 164.5 -167.5t28.5 -247.5q-31 -194 -196 -332t-367 -138
q-136 0 -235 63q-62 38 -106 95.5t-60 125.5z" />
    <glyph glyph-name="six" unicode="6" horiz-adv-x="1160" 
d="M569 -24q-142 0 -245 67q-107 66 -159 179.5t-31 247.5q12 74 38.5 129.5t77.5 127.5l514 673h240l-350 -458q151 27 280 -33q132 -60 192.5 -176t37.5 -263q-21 -134 -109 -248t-217.5 -180t-268.5 -66zM342 471q-14 -81 19 -149q32 -70 94.5 -108t145.5 -38
q90 0 167 42q79 43 128 108.5t62 144.5q12 81 -17 146q-69 145 -245 145q-88 0 -164 -41q-166 -89 -190 -250z" />
    <glyph glyph-name="seven" unicode="7" horiz-adv-x="1034" 
d="M177 0l750 1200h-689l32 200h937l-28 -174l-767 -1226h-235z" />
    <glyph glyph-name="eight" unicode="8" horiz-adv-x="1134" 
d="M562 -24q-130 0 -230 56q-101 59 -149 157t-30 216q16 100 81.5 188t161.5 144q-63 52 -92.5 128.5t-15.5 163.5q17 113 92 201q76 90 184 142t228 52t213 -51q93 -55 138 -145.5t28 -198.5q-14 -87 -67.5 -163t-132.5 -129q79 -56 116 -144t21 -188q-18 -120 -100 -217
q-82 -98 -199 -155t-247 -57zM368 405q-10 -61 17 -114q28 -55 82 -85t127 -30q115 0 198.5 64.5t99.5 164.5q16 98 -48 162t-178 64q-72 0 -137 -31q-140 -67 -161 -195zM503 1029q-14 -87 40.5 -142t154.5 -55t173 55t86 142q14 85 -41.5 140t-155.5 55q-99 0 -171 -55
t-86 -140z" />
    <glyph glyph-name="nine" unicode="9" horiz-adv-x="1134" 
d="M707 490q-106 -18 -203.5 9t-166.5 87.5t-102 155t-16 204.5q21 130 105 240t209 174t260 64q138 0 238 -64q104 -65 154 -174.5t29 -239.5q-11 -71 -37.5 -125.5t-77.5 -123.5l-527 -697h-239zM422 945q-13 -76 18 -138q63 -140 231 -140q86 0 158 39q75 40 122 102
t59 137q12 82 -19 142q-32 66 -91 102t-139 36q-86 0 -158 -39q-75 -41 -122 -103t-59 -138z" />
    <glyph glyph-name="colon" unicode=":" horiz-adv-x="424" 
d="M318 799q-46 0 -74 32.5t-21 78.5q7 44 45 76.5t84 32.5t75 -32.5t22 -76.5q-8 -46 -46.5 -78.5t-84.5 -32.5zM93 87q7 44 45 76.5t84 32.5q47 0 75.5 -32.5t21.5 -76.5q-7 -46 -46 -78.5t-86 -32.5q-46 0 -73.5 32.5t-20.5 78.5z" />
    <glyph glyph-name="semicolon" unicode=";" horiz-adv-x="478" 
d="M58 -107l137 390h214l-193 -390h-158zM276 908q7 46 45.5 78.5t85.5 32.5q45 0 73.5 -32.5t21.5 -78.5t-45 -77.5t-84 -31.5q-47 0 -75.5 31.5t-21.5 77.5z" />
    <glyph glyph-name="less" unicode="&#x3c;" horiz-adv-x="1244" 
d="M1181 180l-1017 289l43 269l1108 292l-33 -210l-828 -215l759 -218z" />
    <glyph glyph-name="equal" unicode="=" horiz-adv-x="1244" 
d="M200 697l32 200h1062l-32 -200h-1062zM139 312l32 201h1062l-32 -201h-1062z" />
    <glyph glyph-name="greater" unicode="&#x3e;" horiz-adv-x="1244" 
d="M119 184l33 207l825 214l-758 210l34 211l1016 -288l-43 -270z" />
    <glyph glyph-name="question" unicode="?" horiz-adv-x="1081" 
d="M430 87q7 45 45.5 77t85.5 32t75.5 -32t21.5 -77q-7 -46 -46 -78.5t-86 -32.5t-75 32.5t-21 78.5zM244 976q11 135 96 245q73 94 181.5 149t224.5 55q121 0 209 -55q91 -56 133.5 -151t24.5 -209q-19 -117 -94 -216.5t-186 -151.5q-100 -47 -117 -150l-33 -210h-206
l33 210q17 103 84 190.5t170 136.5q121 56 143 191q15 95 -39 155t-154 60q-108 0 -184 -71t-78 -178h-208z" />
    <glyph glyph-name="at" unicode="@" horiz-adv-x="1827" 
d="M919 -176q-177 -6 -325 47t-251 157q-99 100 -140 235.5t-16 294.5t112.5 303.5t213 249t286.5 166.5t327 62t307.5 -62t233.5 -166.5t133 -249t16 -303.5q-18 -116 -73 -222.5t-145 -178.5t-193 -72q-66 0 -122 29q-91 44 -115 126q-113 -94 -262 -94q-117 0 -205 56
q-90 55 -133.5 149t-25.5 207q18 111 92 209q75 94 181 148t221 54q134 0 221 -76l10 63l176 -26l-90 -571q-5 -33 16.5 -53t59.5 -20q43 0 77 35q81 86 104 237q19 120 -11.5 227.5t-99 185t-174.5 122.5t-231 45q-168 0 -319.5 -76.5t-253 -209.5t-127.5 -294
q-37 -239 116 -386q162 -158 441 -148zM730 558q-10 -66 16 -119q56 -118 197 -118q67 0 120 34q58 37 93.5 93t46.5 122q10 57 -7 111q-38 113 -178 113q-71 0 -132 -31q-134 -70 -156 -205z" />
    <glyph glyph-name="A" unicode="A" horiz-adv-x="1454" 
d="M84 0l755 1400h219l311 -1400h-221l-78 349h-578l-188 -349h-220zM601 550h424l-123 558z" />
    <glyph glyph-name="B" unicode="B" horiz-adv-x="1256" 
d="M130 0l222 1400h571q179 0 273.5 -103.5t66.5 -281.5q-13 -78 -51 -147.5t-91 -113.5q147 -105 109 -342v-1q-31 -196 -158.5 -303.5t-307.5 -107.5h-634zM367 187h416q100 0 169.5 56t86.5 166q19 120 -31 176t-153 56h-416zM468 825h354q97 0 161.5 47t80.5 148
q16 99 -34 146t-147 47h-354z" />
    <glyph glyph-name="C" unicode="C" horiz-adv-x="1527" 
d="M803 -29q-211 0 -359.5 94t-210 259.5t-28.5 375.5t147.5 375.5t292.5 259.5t389 94q202 0 347.5 -86.5t213.5 -240.5l-196 -91q-109 219 -398 219q-237 0 -400.5 -146t-201.5 -385t79.5 -385t354.5 -146q288 0 468 220l164 -90q-115 -153 -287.5 -240t-374.5 -87z" />
    <glyph glyph-name="D" unicode="D" horiz-adv-x="1399" 
d="M132 0l222 1400h509q153 0 273 -53t193.5 -145.5t102 -222t4.5 -280.5q-49 -307 -268.5 -503t-526.5 -196h-509zM372 200l303 -1q224 0 377.5 136.5t189.5 362.5t-74.5 363.5t-334.5 137.5l-303 1z" />
    <glyph glyph-name="E" unicode="E" horiz-adv-x="1186" 
d="M128 0l222 1400h948l-32 -200h-740l-58 -368h618l-32 -201h-618l-68 -431h740l-32 -200h-948z" />
    <glyph glyph-name="F" unicode="F" horiz-adv-x="1106" 
d="M128 0l222 1400h947l-32 -200h-739l-58 -368h618l-32 -201h-618l-100 -631h-208z" />
    <glyph glyph-name="G" unicode="G" horiz-adv-x="1507" 
d="M803 -29q-211 0 -359.5 94t-210 259.5t-28.5 375.5t147.5 375.5t292.5 259.5t389 94q202 0 347.5 -86.5t213.5 -240.5l-196 -91q-109 219 -398 219q-237 0 -400.5 -146t-201.5 -385t79.5 -385t354.5 -146q244 0 416 163l48 299h-536l32 201h742l-89 -558
q-113 -142 -280.5 -222t-362.5 -80z" />
    <glyph glyph-name="H" unicode="H" horiz-adv-x="1376" 
d="M131 0l222 1400h208l-88 -552h697l88 552h208l-222 -1400h-208l102 647h-697l-102 -647h-208z" />
    <glyph glyph-name="I" unicode="I" horiz-adv-x="503" 
d="M148 0l222 1400h206l-222 -1400h-206z" />
    <glyph glyph-name="J" unicode="J" horiz-adv-x="1332" 
d="M622 -24q-179 0 -293 83q-121 86 -167 235t-10 329h206q-42 -203 37 -325t259 -122q119 0 210 56q184 114 222 357l129 811h207l-129 -811q-27 -173 -118.5 -311.5t-236 -220t-316.5 -81.5z" />
    <glyph glyph-name="K" unicode="K" horiz-adv-x="1167" 
d="M128 0l222 1400h208l-96 -606l626 606h273l-690 -665l455 -735h-265l-351 579l-97 -95l-77 -484h-208z" />
    <glyph glyph-name="L" unicode="L" horiz-adv-x="1186" 
d="M128 0l222 1400h208l-190 -1200h740l-32 -200h-948z" />
    <glyph glyph-name="M" unicode="M" horiz-adv-x="1585" 
d="M134 -1l222 1401h188l318 -973l624 973h186l-222 -1401h-216l126 808l-495 -771h-132l-251 772l-129 -809h-219z" />
    <glyph glyph-name="N" unicode="N" horiz-adv-x="1356" 
d="M131 0l222 1400h203l522 -1016l161 1016h207l-222 -1400h-202l-522 1015l-161 -1015h-208z" />
    <glyph glyph-name="O" unicode="O" horiz-adv-x="1621" 
d="M805 -29q-211 0 -359.5 94t-210.5 259.5t-29 375.5t147.5 375.5t292.5 259.5t390 94t360.5 -94t210 -259.5t28.5 -375.5t-147.5 -375.5t-292.5 -259.5t-390 -94zM401 699q-38 -239 79.5 -385t354.5 -146q238 0 401.5 146t201.5 385t-79.5 385t-355.5 146
q-237 0 -400.5 -146t-201.5 -385z" />
    <glyph glyph-name="P" unicode="P" horiz-adv-x="1191" 
d="M128 0l222 1400h531q88 0 161 -27t127 -79.5t77 -139t6 -196.5q-18 -110 -68.5 -196.5t-121 -139.5t-152 -80t-169.5 -27h-323l-82 -515h-208zM447 699l311 2q50 0 95 13t87.5 41t72.5 80t41 123q11 59 2 102.5t-27.5 73t-50.5 47t-66 25t-73 7.5h-311z" />
    <glyph glyph-name="Q" unicode="Q" horiz-adv-x="1623" 
d="M805 -29q-211 0 -359.5 94t-210.5 259.5t-29 375.5t147.5 375.5t292.5 259.5t390 94t360.5 -94t210 -259.5t28.5 -375.5q-42 -267 -216 -462l119 -134l-168 -141l-119 133q-201 -125 -446 -125zM401 699q-38 -239 79.5 -385t354.5 -146q158 0 289 71l-198 223l170 143
l200 -226q112 134 142 320q38 239 -79.5 385t-355.5 146q-237 0 -400.5 -146t-201.5 -385z" />
    <glyph glyph-name="R" unicode="R" horiz-adv-x="1222" 
d="M129 0l222 1400h530q70 0 131 -17t112 -51.5t84 -87t46 -124t-1 -162.5q-29 -170 -128 -277.5t-238 -146.5l240 -534h-241l-230 515h-237l-82 -515h-208zM448 699l311 2q50 0 94.5 13t87 41t72.5 80t41 123q12 71 -1.5 123t-47.5 79.5t-74.5 40t-90.5 12.5h-311z" />
    <glyph glyph-name="S" unicode="S" horiz-adv-x="1311" 
d="M650 -24q-117 0 -221 35q-116 40 -190 116t-85 179l207 70q-2 -88 89.5 -144t231.5 -56q85 0 172 28q171 61 190 183q10 60 -27 98q-69 76 -273 112q-136 23 -251 66q-252 97 -212 345q20 128 112 223q89 90 217.5 139.5t268.5 49.5q198 0 338.5 -90.5t158.5 -242.5
l-209 -69q3 89 -88.5 144.5t-231.5 55.5q-84 1 -169 -27q-172 -61 -191 -183q-11 -71 21 -106q31 -38 96 -59t182 -43q120 -19 245 -69q119 -54 178.5 -139.5t40.5 -204.5q-20 -128 -112 -220q-88 -91 -217 -141t-271 -50z" />
    <glyph glyph-name="T" unicode="T" horiz-adv-x="1345" 
d="M568 0l190 1200h-476l32 200h1160l-32 -200h-477l-190 -1200h-207z" />
    <glyph glyph-name="U" unicode="U" horiz-adv-x="1413" 
d="M702 -24q-179 0 -293 83q-115 81 -163 221t-21 309l129 811h208l-129 -811q-30 -189 49.5 -301t251.5 -112q119 0 210 56t148 148.5t75 208.5l129 811h207l-129 -811q-27 -172 -118.5 -311t-236.5 -220.5t-317 -81.5z" />
    <glyph glyph-name="V" unicode="V" horiz-adv-x="1381" 
d="M583 0l-310 1400h219l245 -1104l595 1104h218l-755 -1400h-212z" />
    <glyph glyph-name="W" unicode="W" horiz-adv-x="1795" 
d="M435 0l-153 1400h214l108 -1005l427 1005h176l109 -1007l427 1007h213l-594 -1400h-219l-99 926l-394 -926h-215z" />
    <glyph glyph-name="X" unicode="X" horiz-adv-x="1436" 
d="M54 0l647 704l-419 696h256l317 -528l487 528h255l-637 -696l422 -704h-257l-323 534l-490 -534h-258z" />
    <glyph glyph-name="Y" unicode="Y" horiz-adv-x="1311" 
d="M551 0l99 627l-372 773h243l267 -554l445 554h244l-621 -773l-99 -627h-206z" />
    <glyph glyph-name="Z" unicode="Z" horiz-adv-x="1378" 
d="M92 0l29 180l1061 1020h-900l32 200h1193l-29 -180l-1060 -1020h899l-32 -200h-1193z" />
    <glyph glyph-name="bracketleft" unicode="[" horiz-adv-x="608" 
d="M103 -107l239 1507h386l-32 -200h-178l-175 -1106h178l-32 -201h-386z" />
    <glyph glyph-name="backslash" unicode="\" horiz-adv-x="789" 
d="M483 -107l-183 1507h209l184 -1507h-210z" />
    <glyph glyph-name="bracketright" unicode="]" horiz-adv-x="606" 
d="M84 -107l32 201h178l175 1106h-178l32 200h384l-239 -1507h-384z" />
    <glyph glyph-name="asciicircum" unicode="^" horiz-adv-x="874" 
d="M227 952l370 686h197l154 -686h-221l-82 368l-199 -368h-219z" />
    <glyph glyph-name="underscore" unicode="_" horiz-adv-x="1324" 
d="M113 -107l32 201h1063l-32 -201h-1063z" />
    <glyph glyph-name="grave" unicode="`" horiz-adv-x="820" 
d="M729 2227l-103 342h216l46 -342h-159z" />
    <glyph glyph-name="a" unicode="a" horiz-adv-x="1221" 
d="M590 -24q-235 0 -355.5 149.5t-83.5 384.5t205 384.5t403 149.5q192 0 314 -106l12 81h206l-161 -1019h-206l13 82q-154 -106 -347 -106zM346 510q-24 -154 49.5 -246t225.5 -92t255.5 92.5t127.5 245.5t-50 245t-226 92t-255 -92t-127 -245z" />
    <glyph glyph-name="b" unicode="b" horiz-adv-x="1263" 
d="M663 -24q-194 2 -311 111l-14 -87h-208l237 1495h208l-89 -563q154 110 346 112q234 0 355.5 -150t84.5 -384t-206 -384t-403 -150zM420 510q-24 -153 49.5 -245.5t224.5 -92.5q152 0 255.5 92.5t127.5 245.5t-50 245t-226 92q-151 0 -254 -92t-127 -245z" />
    <glyph glyph-name="c" unicode="c" horiz-adv-x="1149" 
d="M589 -24q-235 0 -355.5 149.5t-83.5 384.5t205 384.5t403 149.5h1q182 0 298 -93.5t142 -252.5l-199 -44q-24 93 -93 143.5t-180 50.5q-152 -1 -255 -93t-127 -245q-24 -154 49.5 -246t225.5 -92h1q110 0 195 51t138 143l185 -44q-75 -158 -221 -252t-328 -94h-1z" />
    <glyph glyph-name="d" unicode="d" horiz-adv-x="1261" 
d="M591 -24q-235 0 -355.5 149.5t-83.5 384.5t205 384.5t403 149.5q193 -2 313 -112l89 563h206l-237 -1495h-206l14 88q-153 -110 -348 -112zM347 510q-24 -154 49.5 -246t225.5 -92t255.5 92.5t127.5 245.5t-50 245t-226 92t-255 -92t-127 -245z" />
    <glyph glyph-name="e" unicode="e" horiz-adv-x="1188" 
d="M590 -24q-235 0 -355.5 149.5t-83.5 384.5t205 384.5t403 149.5q234 0 355 -150t84 -384l-14 -84h-844q5 -119 78 -186.5t203 -67.5q110 0 195 51t138 143l185 -44q-75 -158 -221 -252t-328 -94zM368 601h640q-7 115 -80 180.5t-200 65.5t-221.5 -65.5t-138.5 -180.5z
" />
    <glyph glyph-name="f" unicode="f" horiz-adv-x="747" 
d="M191 0l130 819h-137l31 200h137l34 215q20 119 118.5 201.5t222.5 82.5q67 0 125.5 -30t92.5 -86l-177 -145q-11 60 -72 60q-41 0 -69 -22.5t-35 -60.5l-34 -215h300l-31 -200h-300l-130 -819h-206z" />
    <glyph glyph-name="g" unicode="g" horiz-adv-x="1261" 
d="M519 -500q-107 0 -206 48q-97 50 -161.5 133.5t-79.5 182.5l191 74q13 -104 94.5 -170t193.5 -66q138 0 245 80.5t125 191.5l17 108q-154 -106 -347 -106q-235 0 -355.5 149.5t-83.5 384.5t205 384.5t403 149.5q191 0 314 -106l12 81h206l-165 -1045
q-20 -128 -113.5 -238t-226 -173t-268.5 -63zM347 510q-24 -154 49.5 -246t225.5 -92t255.5 92.5t127.5 245.5t-50 245t-226 92t-255 -92t-127 -245z" />
    <glyph glyph-name="h" unicode="h" horiz-adv-x="1153" 
d="M128 0l237 1495h208l-88 -554q135 105 304 105q123 0 212 -57q92 -56 135.5 -153t25.5 -213l-99 -623h-207l94 596q17 109 -44.5 178.5t-174.5 69.5q-72 0 -137 -33q-142 -75 -164 -215l-94 -596h-208z" />
    <glyph glyph-name="i" unicode="i" horiz-adv-x="445" 
d="M119 0l161 1019h208l-161 -1019h-208zM329 1356q7 44 45 76.5t84 32.5q47 0 75.5 -32.5t21.5 -76.5q-7 -46 -46 -78.5t-86 -32.5q-46 0 -73.5 32.5t-20.5 78.5z" />
    <glyph glyph-name="j" unicode="j" horiz-adv-x="503" 
d="M-114 -274q113 -10 194.5 47.5t97.5 157.5l172 1088h206l-172 -1088q-16 -109 -87 -205q-79 -100 -195.5 -154.5t-247.5 -46.5zM389 1356q7 44 45 76.5t84 32.5q47 0 75.5 -32.5t21.5 -76.5q-7 -46 -46 -78.5t-86 -32.5q-46 0 -73.5 32.5t-20.5 78.5z" />
    <glyph glyph-name="k" unicode="k" horiz-adv-x="1072" 
d="M127 0l237 1495h208l-148 -932l470 456h272l-435 -421l266 -598h-238l-195 437l-189 -184l-40 -253h-208z" />
    <glyph glyph-name="l" unicode="l" horiz-adv-x="445" 
d="M118 0l237 1495h208l-237 -1495h-208z" />
    <glyph glyph-name="m" unicode="m" horiz-adv-x="1875" 
d="M138 0l161 1019h208l-12 -78q137 105 303 105q106 0 190.5 -44.5t135.5 -122.5q72 78 171.5 122.5t205.5 44.5q121 0 212 -57q92 -56 135.5 -153t25.5 -213l-99 -623h-207l94 593q10 68 -14 123q-55 128 -200 128q-70 0 -133 -32q-137 -71 -160 -219l-94 -593h-206
l94 593q11 73 -14 130q-54 121 -201 121q-72 0 -132 -34q-140 -78 -162 -217l-94 -593h-208z" />
    <glyph glyph-name="n" unicode="n" horiz-adv-x="1153" 
d="M128 0l161 1019h208l-12 -78q135 105 304 105q123 0 212 -57q92 -56 135.5 -153t25.5 -213l-99 -623h-207l94 596q17 109 -44.5 178.5t-174.5 69.5q-72 0 -137 -33q-142 -75 -164 -215l-94 -596h-208z" />
    <glyph glyph-name="o" unicode="o" horiz-adv-x="1188" 
d="M590 -24q-235 0 -355.5 149.5t-83.5 384.5t205 384.5t403 149.5q234 0 355 -150t84 -384t-205.5 -384t-402.5 -150zM345 510q-24 -154 50 -246t226 -92q151 0 254.5 92.5t127.5 245.5t-50 245t-225 92q-153 0 -256 -92t-127 -245z" />
    <glyph glyph-name="p" unicode="p" horiz-adv-x="1263" 
d="M55 -476l236 1495h208l-13 -87q154 110 346 112q234 0 355.5 -150t84.5 -384t-206 -384t-403 -150q-194 2 -311 111l-89 -563h-208zM420 510q-24 -153 49.5 -245.5t224.5 -92.5q152 0 255.5 92.5t127.5 245.5t-50 245t-226 92q-151 0 -254 -92t-127 -245z" />
    <glyph glyph-name="q" unicode="q" horiz-adv-x="1261" 
d="M939 88q-153 -110 -348 -112q-235 0 -355.5 149.5t-83.5 384.5t205 384.5t403 149.5q193 -2 313 -112l13 87h206l-236 -1495h-206zM347 510q-24 -154 49.5 -246t225.5 -92t255.5 92.5t127.5 245.5t-50 245t-226 92t-255 -92t-127 -245z" />
    <glyph glyph-name="r" unicode="r" horiz-adv-x="812" 
d="M123 0l161 1019h208l-12 -78q135 105 303 105q83 0 154 -27l-114 -194q-57 19 -98 19q-73 0 -136 -33q-141 -74 -164 -215l-94 -596h-208z" />
    <glyph glyph-name="s" unicode="s" horiz-adv-x="964" 
d="M510 175q42 0 87.5 10.5t88.5 40.5t49 73q6 40 -24 66.5t-59 34t-89 18.5q-14 3 -21 4q-87 14 -182 49q-190 74 -160 266q16 99 85 171q68 68 164 106t200 38q153 0 261 -75.5t111 -198.5l-181 -62q-9 66 -65 105.5t-157 39.5q-42 0 -87.5 -10.5t-88.5 -40.5t-49 -73
q-4 -25 5.5 -44t23.5 -30.5t42.5 -20.5t47.5 -13t52 -10q16 -3 23 -4q84 -13 177 -51q89 -41 134.5 -107.5t31.5 -158.5q-16 -99 -86 -169q-66 -69 -163 -107t-202 -38h-1q-153 0 -261 75.5t-111 198.5l181 62q9 -66 65 -105.5t157 -39.5h1z" />
    <glyph glyph-name="t" unicode="t" horiz-adv-x="764" 
d="M549 -4q-123 0 -196.5 82.5t-54.5 201.5l86 539h-179l31 200h179l47 299h207l-48 -299h239l-31 -200h-239l-86 -539q-6 -41 23 -62.5t70.5 -21t82.5 13t58 31.5l-32 -206q-78 -39 -157 -39z" />
    <glyph glyph-name="u" unicode="u" horiz-adv-x="1113" 
d="M525 -24q-124 0 -211 56q-93 57 -136.5 154t-25.5 213l98 620h207l-94 -594q-10 -70 16 -124q27 -59 80 -91.5t125 -32.5q114 0 197.5 69.5t100.5 178.5l94 594h208l-160 -1019h-208l12 81q-135 -105 -303 -105z" />
    <glyph glyph-name="v" unicode="v" horiz-adv-x="1123" 
d="M450 0l-227 1022h220l162 -738l398 738h221l-552 -1022h-222z" />
    <glyph glyph-name="w" unicode="w" horiz-adv-x="1732" 
d="M426 0l-195 1019h207l136 -699l355 699h196l133 -699l356 699h209l-519 -1019h-192l-137 707l-357 -707h-192z" />
    <glyph glyph-name="x" unicode="x" horiz-adv-x="1176" 
d="M69 0l471 511l-308 511h256l208 -341l314 341h254l-468 -511l310 -511h-257l-207 343l-317 -343h-256z" />
    <glyph glyph-name="y" unicode="y" horiz-adv-x="1127" 
d="M181 -476l274 510l-214 985h225l140 -704l383 704h218l-806 -1495h-220z" />
    <glyph glyph-name="z" unicode="z" horiz-adv-x="1094" 
d="M88 0l29 181l709 638h-608l31 200h916l-28 -180l-708 -639h607l-32 -200h-916z" />
    <glyph glyph-name="braceleft" unicode="{" horiz-adv-x="877" 
d="M648 -108q-104 0 -184 50t-117.5 134t-21.5 184l37 233q1 14 -10.5 23t-43.5 24q-21 10 -31.5 16t-26.5 19t-22 30.5t-2 40.5q5 30 27.5 54t42 33.5t50.5 21.5q35 14 48.5 22.5t16.5 22.5l37 233q15 102 80 186q65 83 160.5 132t198.5 49h107l-32 -200h-107
q-77 0 -133.5 -47t-67.5 -120l-38 -239q-8 -44 -33 -77q-28 -32 -87 -70q-1 0 -3 -2q4 -4 13.5 -11.5t14.5 -11.5q27 -24 39.5 -51.5t8.5 -73.5l-38 -237q-12 -74 30 -120.5t119 -46.5h107l-32 -201h-107z" />
    <glyph glyph-name="bar" unicode="|" horiz-adv-x="484" 
d="M92 -288l268 1688h207l-268 -1688h-207z" />
    <glyph glyph-name="braceright" unicode="}" horiz-adv-x="876" 
d="M88 -108l32 201h106q79 0 134.5 46.5t67.5 120.5l38 239q11 47 32 75q23 28 80 65q1 1 11 7q-9 9 -25 21q-29 24 -42 53t-9 73l38 240q11 74 -30.5 120.5t-119.5 46.5h-106l32 200h106q101 0 185 -49q79 -51 117 -134.5t22 -183.5l-37 -232q-1 -15 10 -24.5t41 -22.5
q93 -37 82 -108q-5 -29 -25 -51.5t-40 -33.5t-50 -22q-35 -14 -49 -23t-18 -25l-37 -231q-15 -100 -80 -185q-67 -84 -161.5 -133.5t-198.5 -49.5h-106z" />
    <glyph glyph-name="asciitilde" unicode="~" horiz-adv-x="1310" 
d="M1002 403q-45 0 -99.5 18.5t-91.5 38.5t-101 58q-55 33 -83.5 48.5t-67.5 30.5t-68 15q-62 1 -95 -45.5t-12 -115.5l-208 -11q-17 102 38 192q46 78 126.5 126.5t171.5 48.5q45 0 99.5 -20.5t82.5 -36.5t91 -56q52 -34 79.5 -50.5t67.5 -32t72 -15.5q66 0 98.5 47.5
t6.5 110.5l213 13q21 -99 -32 -192q-45 -78 -121.5 -125t-166.5 -47z" />
    <glyph glyph-name="exclamdown" unicode="&#xa1;" horiz-adv-x="397" 
d="M36 -381l158 1000h191l-158 -1000h-191zM227 933q7 48 44.5 79.5t84.5 31.5t75 -31.5t21 -79.5q-8 -45 -46 -77t-84 -32t-74 32t-21 77z" />
    <glyph glyph-name="cent" unicode="&#xa2;" horiz-adv-x="1179" 
d="M565 198q-110 16 -197 80q-98 72 -143.5 183.5t-24.5 240.5q21 128 102 242q76 105 187 173.5t236 86.5l31 196h173l-31 -195q122 -17 214 -89t132 -179l-194 -100q-28 81 -101.5 128.5t-166.5 47.5q-89 0 -169 -42q-84 -44 -138 -113.5t-68 -155.5q-13 -90 20 -157
q36 -74 102.5 -115t154.5 -41q93 0 180.5 47.5t141.5 128.5l164 -100q-75 -107 -189.5 -178.5t-242.5 -89.5l-31 -197h-173z" />
    <glyph glyph-name="sterling" unicode="&#xa3;" horiz-adv-x="1245" 
d="M145 201q135 -7 225 41.5t87 126.5q4 34 0 59h-276l27 169h135q-30 30 -63 75q-68 97 -45 244q22 138 112 255t222.5 185t276.5 68q112 0 207.5 -43t155 -117t85 -172t-1.5 -209h-208q24 111 -12 188q-34 73 -100.5 113t-157.5 40q-88 0 -170 -41q-173 -91 -202 -267
q-12 -76 1 -116q12 -42 36 -73t65 -68q28 -24 62 -62h418l-27 -169h-327q3 -37 -5 -85q-12 -78 -79 -143h590l-32 -200h-1031z" />
    <glyph glyph-name="currency" unicode="&#xa4;" horiz-adv-x="1075" 
d="M243 261l-104 118l148 124q-45 94 -27.5 199.5t92.5 194.5l-111 125l142 117l110 -124q105 59 215.5 59.5t196.5 -57.5l147 122l105 -117l-145 -122q48 -91 31 -200t-94 -201l104 -120l-140 -118l-107 120q-106 -61 -217 -60.5t-199 62.5zM433 698q-10 -57 13 -103
q48 -104 171 -104q96 2 167 59.5t85 147.5q14 92 -38.5 149t-148.5 57t-165.5 -57.5t-83.5 -148.5z" />
    <glyph glyph-name="yen" unicode="&#xa5;" horiz-adv-x="1340" 
d="M568 0l29 184h-294l27 168h294l13 85h-294l27 169h294l3 21l-377 773h246l269 -554l444 554h243l-619 -773l-3 -21h292l-27 -169h-292l-13 -85h292l-27 -168h-292l-29 -184h-206z" />
    <glyph glyph-name="brokenbar" unicode="&#xa6;" horiz-adv-x="445" 
d="M216 618l124 782h208l-124 -782h-208zM72 -288l124 782h208l-124 -782h-208z" />
    <glyph glyph-name="section" unicode="&#xa7;" horiz-adv-x="1156" 
d="M525 -382q-141 0 -245 64t-129 169l192 98q0 -65 58.5 -104t145.5 -41q93 -2 153.5 32.5t70.5 95.5q6 37 -11 59q-22 23 -65.5 38t-123.5 32q-194 37 -292 155t-70 293q17 107 86.5 200.5t171.5 149.5q-145 64 -120 226q15 100 86 172q66 68 162 106t198 38
q141 0 244.5 -63t129.5 -170l-191 -98q0 65 -58.5 104t-145.5 41q-94 2 -154.5 -32.5t-70.5 -95.5q-5 -34 12 -57q21 -23 65.5 -38.5t122.5 -31.5q198 -42 294 -156t67 -295q-17 -108 -86.5 -200.5t-170.5 -148.5q147 -67 122 -226q-17 -101 -86 -171q-67 -69 -163 -107
t-199 -38zM404 509q-12 -69 16 -124q28 -58 81.5 -90t123.5 -32t130 33q138 73 159 209q18 115 -44 183t-179 68q-108 0 -189.5 -69.5t-97.5 -177.5z" />
    <glyph glyph-name="dieresis" unicode="&#xa8;" horiz-adv-x="1350" 
d="M1180 2200q-48 0 -76 31t-21 78q7 45 45.5 78t86.5 33q46 0 75 -32.5t22 -78.5t-46 -77.5t-86 -31.5zM769 2309q7 46 46.5 78.5t86.5 32.5t75 -33t21 -78q-7 -47 -45.5 -78t-85.5 -31t-76 31.5t-22 77.5z" />
    <glyph glyph-name="copyright" unicode="&#xa9;" horiz-adv-x="1901" 
d="M916 -206q-173 0 -320 64.5t-243.5 174t-140 260.5t-16.5 317q35 222 178.5 409.5t356.5 296t444 108.5q174 0 321 -64.5t243.5 -173t140 -259.5t17.5 -317q-26 -167 -118 -318.5t-223.5 -260.5t-299 -173t-340.5 -64zM403 610q-27 -173 36.5 -314.5t198 -221.5
t310.5 -80q181 0 342.5 83t267 224.5t132.5 308.5q27 170 -36 311.5t-198 222.5t-313 80t-339 -83t-267.5 -222.5t-133.5 -308.5zM524 610q23 150 115.5 274t225.5 193t275 69q137 0 245.5 -67t161.5 -179l-200 -95q-36 68 -99 104t-140 36q-93 0 -172 -46
q-85 -47 -138.5 -121.5t-67.5 -167.5q-14 -89 17 -167q34 -79 99.5 -123t155.5 -44q80 0 154.5 37.5t129.5 102.5l169 -96q-89 -112 -218.5 -178.5t-266.5 -66.5q-148 0 -257 73q-110 73 -161 195t-28 267z" />
    <glyph glyph-name="ordfeminine" unicode="&#xaa;" horiz-adv-x="836" 
d="M525 732q-149 0 -226 95t-53 244q23 149 130 244t256 95q120 0 200 -67l8 51h131l-103 -647h-131l9 52q-98 -67 -221 -67zM370 1071q-16 -97 31.5 -156t143.5 -59q97 0 162 58.5t81 156.5q15 98 -31.5 156t-143.5 58q-96 0 -162 -58.5t-81 -155.5z" />
    <glyph glyph-name="guillemotleft" unicode="&#xab;" horiz-adv-x="1118" 
d="M498 249l-273 357l386 356h244l-385 -356l272 -357h-244zM572 606l386 356h244l-385 -356l272 -357h-244z" />
    <glyph glyph-name="logicalnot" unicode="&#xac;" horiz-adv-x="1052" 
d="M805 300l64 409h-670l32 201h876l-96 -610h-206z" />
    <glyph glyph-name="uni00AD" unicode="&#xad;" horiz-adv-x="978" 
d="M241 505l32 200h704l-32 -200h-704z" />
    <glyph glyph-name="registered" unicode="&#xae;" horiz-adv-x="1076" 
d="M607 440q-126 0 -225 61t-145.5 165.5t-27.5 225.5t98.5 224.5t197 164t244.5 60.5q128 0 227 -61.5t144.5 -165t26.5 -222.5q-19 -121 -98.5 -225.5t-197.5 -165.5t-244 -61zM386 892q-12 -80 17 -139q65 -140 231 -140q78 0 154 38q19 10 40 24h-128l-50 111l-18 -111
h-144l71 448h183q61 0 97.5 -43.5t26.5 -105.5q-11 -77 -82 -119l73 -158q96 80 114 195q13 72 -18 138q-66 139 -231 139q-81 0 -153 -38q-157 -83 -183 -239zM678 967h39q4 0 5 7q2 8 -2 8h-39z" />
    <glyph glyph-name="macron" unicode="&#xaf;" horiz-adv-x="1276" 
d="M535 1685l28 175h739l-28 -175h-739z" />
    <glyph glyph-name="degree" unicode="&#xb0;" horiz-adv-x="779" 
d="M511 769q-83 0 -148 41q-63 39 -93 106.5t-18 145.5q19 123 121 207.5t230 84.5t203.5 -85t55.5 -207q-11 -77 -66 -150q-53 -67 -128 -105t-157 -38zM459 1062q-7 -41 16 -67t67 -26q45 0 75 25.5t37 67.5q7 43 -15 67.5t-67 24.5q-44 0 -75 -25t-38 -67z" />
    <glyph glyph-name="plusminus" unicode="&#xb1;" horiz-adv-x="1244" 
d="M567 317l65 409h-427l32 201h427l65 409h207l-65 -409h428l-32 -201h-428l-65 -409h-207zM90 0l32 200h1062l-32 -200h-1062z" />
    <glyph glyph-name="acute" unicode="&#xb4;" horiz-adv-x="818" 
d="M626 2227l154 342h216l-209 -342h-161z" />
    <glyph glyph-name="uni00B5" unicode="&#xb5;" horiz-adv-x="1134" 
d="M36 -411l226 1430h207l-85 -540q-14 -90 12 -155q59 -152 216 -152q75 0 144 41q70 42 115.5 111t58.5 155l85 540h206l-161 -1019h-206l15 98q-139 -123 -306 -123q-149 0 -243 102l-77 -488h-207z" />
    <glyph glyph-name="paragraph" unicode="&#xb6;" horiz-adv-x="933" 
d="M532 685q-83 6 -145 47q-78 48 -115 130t-21 179q15 97 79 183q65 81 157.5 128.5t192.5 47.5h172l-268 -1688h-206zM594 -288l268 1688h206l-268 -1688h-206z" />
    <glyph glyph-name="periodcentered" unicode="&#xb7;" horiz-adv-x="384" 
d="M268 495q-46 0 -73.5 32.5t-20.5 78.5q7 44 45 76.5t84 32.5t75 -32.5t22 -76.5q-7 -46 -46 -78.5t-86 -32.5z" />
    <glyph glyph-name="cedilla" unicode="&#xb8;" horiz-adv-x="1289" 
d="M587 -348q-89 -23 -155 27t-60 138l163 38q-7 -34 1 -47.5t34 -7.5q35 10 32 39q-6 30 -43 22l-168 -22l220 292l125 -75l-49 -65q65 -39 72 -112q9 -74 -41.5 -140.5t-130.5 -86.5z" />
    <glyph glyph-name="ordmasculine" unicode="&#xba;" horiz-adv-x="806" 
d="M523 735q-149 0 -225 95t-53 243t129.5 243t255.5 95q148 0 224.5 -95t53.5 -243t-130 -243t-255 -95zM368 1073q-15 -98 31.5 -156t143.5 -58q96 0 161.5 58.5t80.5 155.5t-31.5 155t-142.5 58q-97 0 -162.5 -58t-80.5 -155z" />
    <glyph glyph-name="guillemotright" unicode="&#xbb;" horiz-adv-x="1136" 
d="M477 249l385 357l-272 356h243l273 -356l-386 -357h-243zM130 249l385 357l-272 356h243l273 -356l-386 -357h-243z" />
    <glyph glyph-name="questiondown" unicode="&#xbf;" horiz-adv-x="1054" 
d="M772 933q-7 -46 -45.5 -77.5t-85.5 -31.5q-46 0 -75 32t-22 77t46 78t85 33q47 0 75.5 -32.5t21.5 -78.5zM88 9q19 117 94.5 216.5t187.5 151.5q99 49 116 151l33 210h207l-33 -210q-17 -103 -84.5 -190.5t-169.5 -136.5q-122 -59 -144 -192q-15 -95 39 -155t153 -60
q109 0 185 71t79 178h207q-9 -132 -97 -244q-74 -95 -181.5 -150t-223.5 -55q-120 0 -208 56q-92 55 -135 150t-25 209z" />
    <glyph glyph-name="Agrave" unicode="&#xc0;" horiz-adv-x="1450" 
d="M100 15l740 1371h214l304 -1371h-216l-75 342h-566l-185 -342h-216zM607 553h415l-120 547zM841 1969h216l46 -342h-159z" />
    <glyph glyph-name="Aacute" unicode="&#xc1;" horiz-adv-x="1450" 
d="M100 15l740 1371h214l304 -1371h-216l-75 342h-566l-185 -342h-216zM607 553h415l-120 547zM867 1627l154 342h216l-209 -342h-161z" />
    <glyph glyph-name="Acircumflex" unicode="&#xc2;" horiz-adv-x="1450" 
d="M100 15l740 1371h214l304 -1371h-216l-75 342h-566l-185 -342h-216zM607 553h415l-120 547zM672 1627l292 342h186l187 -342h-217l-91 168l-141 -168h-216z" />
    <glyph glyph-name="Atilde" unicode="&#xc3;" horiz-adv-x="1450" 
d="M100 15l740 1371h214l304 -1371h-216l-75 342h-566l-185 -342h-216zM607 553h415l-120 547zM664 1630q-24 81 9 154q27 60 83 97.5t125 37.5q23 0 46.5 -6t54 -22t41 -22.5t46.5 -29.5q81 -58 112 -58q15 0 22.5 15.5t-1.5 34t-35 24.5l194 55q27 -78 -7 -157
q-29 -60 -86 -97.5t-126 -37.5q-28 0 -62.5 14.5t-54.5 27t-56 38.5q-32 22 -49 33t-36.5 19t-31.5 5q-48 -9 -17 -82z" />
    <glyph glyph-name="Adieresis" unicode="&#xc4;" horiz-adv-x="1450" 
d="M100 15l740 1371h214l304 -1371h-216l-75 342h-566l-185 -342h-216zM607 553h415l-120 547zM728 1736q7 46 47 78.5t87 32.5t74.5 -33t20.5 -78q-7 -47 -45 -78t-85 -31t-76.5 31.5t-22.5 77.5zM1042 1736q7 45 46 78t87 33q46 0 74.5 -33t21.5 -78q-7 -46 -45.5 -77.5
t-85.5 -31.5q-48 0 -76.5 31t-21.5 78z" />
    <glyph glyph-name="Aring" unicode="&#xc5;" horiz-adv-x="1450" 
d="M100 15l740 1371h214l304 -1371h-216l-75 342h-566l-185 -342h-216zM607 553h415l-120 547zM828 1800q12 76 76.5 129.5t143.5 53.5t127.5 -53.5t36.5 -129.5q-12 -78 -78 -132.5t-145 -54.5q-78 0 -125.5 55t-35.5 132zM975 1800q-7 -45 37 -45q46 0 54 45q3 19 -7 29
t-34 10q-44 0 -50 -39z" />
    <glyph glyph-name="AE" unicode="&#xc6;" horiz-adv-x="1909" 
d="M1180 832h619l-32 -201h-619l-68 -431h741l-32 -200h-948l55 349h-398l-188 -349h-220l755 1400h1166l-32 -200h-741zM607 550h321l98 619h-85z" />
    <glyph glyph-name="Ccedilla" unicode="&#xc7;" horiz-adv-x="1525" 
d="M782 -385q-89 -23 -155 27t-60 138l163 38q-7 -34 1 -47.5t34 -7.5q35 10 32 39q-6 30 -43 22l-168 -22l132 175q-179 23 -302 121t-172.5 254t-19.5 348q33 210 147.5 375.5t292.5 259.5t389 94q202 0 347.5 -86.5t213.5 -240.5l-196 -91q-110 219 -398 219
q-237 0 -400.5 -146t-201.5 -385t79.5 -385t354.5 -146q288 0 468 220l164 -90q-104 -138 -256 -223t-331 -101l-15 -20q65 -39 72 -112q9 -74 -41.5 -140.5t-130.5 -86.5z" />
    <glyph glyph-name="Egrave" unicode="&#xc8;" horiz-adv-x="1181" 
d="M139 0l222 1400h948l-32 -200h-740l-58 -368h618l-32 -201h-618l-68 -431h740l-32 -200h-948zM762 1969h216l46 -342h-159z" />
    <glyph glyph-name="Eacute" unicode="&#xc9;" horiz-adv-x="1181" 
d="M139 0l222 1400h948l-32 -200h-740l-58 -368h618l-32 -201h-618l-68 -431h740l-32 -200h-948zM728 1627l154 342h216l-209 -342h-161z" />
    <glyph glyph-name="Ecircumflex" unicode="&#xca;" horiz-adv-x="1181" 
d="M139 0l222 1400h948l-32 -200h-740l-58 -368h618l-32 -201h-618l-68 -431h740l-32 -200h-948zM568 1627l292 342h186l187 -342h-217l-91 168l-141 -168h-216z" />
    <glyph glyph-name="Edieresis" unicode="&#xcb;" horiz-adv-x="1181" 
d="M139 0l222 1400h948l-32 -200h-740l-58 -368h618l-32 -201h-618l-68 -431h740l-32 -200h-948zM633 1718q7 46 47 78.5t87 32.5t75 -33t20 -78q-7 -47 -45 -78t-85 -31t-76.5 31.5t-22.5 77.5zM947 1718q8 45 46.5 78t86.5 33q46 0 74.5 -33t21.5 -78q-7 -46 -45.5 -77.5
t-85.5 -31.5q-48 0 -76.5 31t-21.5 78z" />
    <glyph glyph-name="Igrave" unicode="&#xcc;" horiz-adv-x="471" 
d="M123 0l222 1400h206l-222 -1400h-206zM318 1969h216l46 -342h-159z" />
    <glyph glyph-name="Iacute" unicode="&#xcd;" horiz-adv-x="497" 
d="M148 0l222 1400h206l-222 -1400h-206zM398 1627l154 342h216l-209 -342h-161z" />
    <glyph glyph-name="Icircumflex" unicode="&#xce;" horiz-adv-x="541" 
d="M160 0l222 1400h206l-222 -1400h-206zM197 1627l292 342h186l187 -342h-217l-91 168l-141 -168h-216z" />
    <glyph glyph-name="Idieresis" unicode="&#xcf;" horiz-adv-x="521" 
d="M155 0l222 1400h206l-222 -1400h-206zM252 1709q7 46 46.5 78.5t86.5 32.5t75 -33t21 -78q-7 -47 -45.5 -78t-85.5 -31t-76 31.5t-22 77.5zM566 1709q7 45 45.5 78t86.5 33q46 0 75 -32.5t22 -78.5t-46 -77.5t-86 -31.5q-48 0 -76 31t-21 78z" />
    <glyph glyph-name="Eth" unicode="&#xd0;" horiz-adv-x="1651" 
d="M407 0l86 545h-284l28 175h284l108 680h509q153 0 273 -53t193.5 -145.5t102 -222t4.5 -280.5q-49 -307 -268.5 -503t-526.5 -196h-509zM647 200l303 -1q224 0 377.5 136.5t189.5 362.5t-74.5 363.5t-334.5 137.5l-303 1l-76 -480h247l-28 -175h-247z" />
    <glyph glyph-name="Ntilde" unicode="&#xd1;" horiz-adv-x="1351" 
d="M145 0l222 1400h203l522 -1016l161 1016h207l-222 -1400h-202l-522 1015l-161 -1015h-208zM583 1626q-24 81 8 154q27 60 83 97.5t125 37.5q11 0 21.5 -1t23 -5t20.5 -6.5t22.5 -9.5t20 -9.5t22 -12t19.5 -11.5t21 -13.5t19 -11.5q79 -58 111 -58q15 0 22.5 15.5t-1.5 34
t-35 24.5l194 55q28 -80 -7 -157q-29 -60 -85.5 -97.5t-125.5 -37.5q-28 0 -63 14.5t-53.5 26.5t-57.5 39q-32 22 -49 33t-36.5 19t-31.5 5q-48 -9 -17 -82z" />
    <glyph glyph-name="Ograve" unicode="&#xd2;" horiz-adv-x="1617" 
d="M824 -29q-211 0 -359.5 94t-210.5 259.5t-29 375.5t147.5 375.5t292.5 259.5t390 94t360.5 -94t210 -259.5t28.5 -375.5t-147.5 -375.5t-292.5 -259.5t-390 -94zM420 699q-38 -239 79.5 -385t354.5 -146q238 0 401.5 146t201.5 385t-79.5 385t-355.5 146
q-237 0 -400.5 -146t-201.5 -385zM977 1969h216l46 -342h-159z" />
    <glyph glyph-name="Oacute" unicode="&#xd3;" horiz-adv-x="1617" 
d="M824 -29q-211 0 -359.5 94t-210.5 259.5t-29 375.5t147.5 375.5t292.5 259.5t390 94t360.5 -94t210 -259.5t28.5 -375.5t-147.5 -375.5t-292.5 -259.5t-390 -94zM420 699q-38 -239 79.5 -385t354.5 -146q238 0 401.5 146t201.5 385t-79.5 385t-355.5 146
q-237 0 -400.5 -146t-201.5 -385zM952 1627l154 342h216l-209 -342h-161z" />
    <glyph glyph-name="Ocircumflex" unicode="&#xd4;" horiz-adv-x="1617" 
d="M824 -29q-211 0 -359.5 94t-210.5 259.5t-29 375.5t147.5 375.5t292.5 259.5t390 94t360.5 -94t210 -259.5t28.5 -375.5t-147.5 -375.5t-292.5 -259.5t-390 -94zM420 699q-38 -239 79.5 -385t354.5 -146q238 0 401.5 146t201.5 385t-79.5 385t-355.5 146
q-237 0 -400.5 -146t-201.5 -385zM765 1627l292 342h186l187 -342h-217l-91 168l-141 -168h-216z" />
    <glyph glyph-name="Otilde" unicode="&#xd5;" horiz-adv-x="1617" 
d="M824 -29q-211 0 -359.5 94t-210.5 259.5t-29 375.5t147.5 375.5t292.5 259.5t390 94t360.5 -94t210 -259.5t28.5 -375.5t-147.5 -375.5t-292.5 -259.5t-390 -94zM420 699q-38 -239 79.5 -385t354.5 -146q238 0 401.5 146t201.5 385t-79.5 385t-355.5 146
q-237 0 -400.5 -146t-201.5 -385zM713 1618q-23 79 9 154q27 60 83 97.5t125 37.5q23 0 46.5 -6t54 -22t41 -22.5t46.5 -29.5q81 -58 112 -58q15 0 22.5 15.5t-1.5 34t-35 24.5l194 55q27 -78 -7 -157q-29 -60 -86 -97.5t-126 -37.5q-28 0 -62.5 14.5t-54.5 27t-56 38.5
q-32 22 -49 33t-36.5 19t-31.5 5q-48 -9 -17 -82z" />
    <glyph glyph-name="Odieresis" unicode="&#xd6;" horiz-adv-x="1617" 
d="M824 -29q-211 0 -359.5 94t-210.5 259.5t-29 375.5t147.5 375.5t292.5 259.5t390 94t360.5 -94t210 -259.5t28.5 -375.5t-147.5 -375.5t-292.5 -259.5t-390 -94zM420 699q-38 -239 79.5 -385t354.5 -146q238 0 401.5 146t201.5 385t-79.5 385t-355.5 146
q-237 0 -400.5 -146t-201.5 -385zM808 1709q7 46 46.5 78.5t86.5 32.5t75 -33t21 -78q-7 -47 -45.5 -78t-85.5 -31t-76 31.5t-22 77.5zM1122 1709q7 45 45.5 78t86.5 33q46 0 75 -32.5t22 -78.5t-46 -77.5t-86 -31.5q-48 0 -76 31t-21 78z" />
    <glyph glyph-name="multiply" unicode="&#xd7;" horiz-adv-x="1059" 
d="M255 174l-126 141l348 290l-256 290l170 140l255 -289l348 289l127 -140l-350 -290l258 -290l-171 -140l-257 289z" />
    <glyph glyph-name="Oslash" unicode="&#xd8;" horiz-adv-x="1617" 
d="M824 -29h-1l-67 -170h-209l77 195q-226 61 -333.5 250.5t-65.5 453.5q33 210 147.5 375.5t292.5 259.5t390 94q70 0 129 -10l65 166h209l-88 -224q169 -85 244.5 -259.5t39.5 -401.5q-33 -210 -147.5 -375.5t-292.5 -259.5t-390 -94zM420 699q-31 -195 43.5 -331
t235.5 -180l408 1036q-41 6 -85 6q-237 0 -400.5 -146t-201.5 -385zM901 170q221 15 370.5 158.5t185.5 370.5q25 156 -18.5 276t-147.5 186z" />
    <glyph glyph-name="Ugrave" unicode="&#xd9;" horiz-adv-x="1408" 
d="M717 -24q-179 0 -293 83q-115 81 -163 221t-21 309l129 811h208l-129 -811q-30 -189 49.5 -301t251.5 -112q119 0 210 56t148 148.5t75 208.5l129 811h207l-129 -811q-27 -172 -118.5 -311t-236.5 -220.5t-317 -81.5zM807 1969h216l46 -342h-159z" />
    <glyph glyph-name="Uacute" unicode="&#xda;" horiz-adv-x="1408" 
d="M717 -24q-179 0 -293 83q-115 81 -163 221t-21 309l129 811h208l-129 -811q-30 -189 49.5 -301t251.5 -112q119 0 210 56t148 148.5t75 208.5l129 811h207l-129 -811q-27 -172 -118.5 -311t-236.5 -220.5t-317 -81.5zM825 1627l154 342h216l-209 -342h-161z" />
    <glyph glyph-name="Ucircumflex" unicode="&#xdb;" horiz-adv-x="1408" 
d="M717 -24q-179 0 -293 83q-115 81 -163 221t-21 309l129 811h208l-129 -811q-30 -189 49.5 -301t251.5 -112q119 0 210 56t148 148.5t75 208.5l129 811h207l-129 -811q-27 -172 -118.5 -311t-236.5 -220.5t-317 -81.5zM661 1627l292 342h186l187 -342h-217l-91 168
l-141 -168h-216z" />
    <glyph glyph-name="Udieresis" unicode="&#xdc;" horiz-adv-x="1408" 
d="M717 -24q-179 0 -293 83q-115 81 -163 221t-21 309l129 811h208l-129 -811q-30 -189 49.5 -301t251.5 -112q119 0 210 56t148 148.5t75 208.5l129 811h207l-129 -811q-27 -172 -118.5 -311t-236.5 -220.5t-317 -81.5zM712 1709q7 46 46.5 78.5t86.5 32.5t75 -33t21 -78
q-7 -47 -45.5 -78t-85.5 -31t-76 31.5t-22 77.5zM1026 1709q7 45 45.5 78t86.5 33q46 0 75 -32.5t22 -78.5t-46 -77.5t-86 -31.5q-48 0 -76 31t-21 78z" />
    <glyph glyph-name="Yacute" unicode="&#xdd;" horiz-adv-x="1308" 
d="M567 0l99 627l-372 773h243l267 -554l445 554h244l-621 -773l-99 -627h-206zM761 1627l154 342h216l-209 -342h-161z" />
    <glyph glyph-name="Thorn" unicode="&#xde;" horiz-adv-x="1169" 
d="M104 -243l101 642h-2l162 1019h208l-42 -261h325q88 0 161 -27t127 -79.5t77 -139t6 -196.5q-18 -110 -68.5 -196.5t-121 -139.5t-152 -80t-169.5 -27h-323l-81 -515h-208zM422 456l312 2q50 0 95 13t87.5 41t72.5 80t40 123q12 71 -1.5 123t-47 79.5t-74.5 40t-91 12.5
h-311z" />
    <glyph glyph-name="germandbls" unicode="&#xdf;" horiz-adv-x="1057" 
d="M592 -26q-76 0 -127 11.5t-103 38.5l32 202q111 -49 195 -57t137 23.5t83 87t43 139.5q13 64 1 110.5t-33.5 77t-58 48t-73 24.5t-79.5 7h-125l31 196h119q102 0 163 45.5t78 152.5q15 93 -18.5 136.5t-124.5 43.5q-121 0 -171.5 -61.5t-75.5 -218.5l-189 -1193h-203
l195 1229q33 206 153 323t322 117q74 0 136 -22.5t108.5 -67t66 -118.5t4.5 -168q-29 -182 -151 -283q168 -120 127 -378q-30 -190 -158.5 -317.5t-303.5 -127.5z" />
    <glyph glyph-name="agrave" unicode="&#xe0;" horiz-adv-x="1218" 
d="M604 -24q-235 0 -355.5 149.5t-83.5 384.5t205 384.5t403 149.5q192 0 314 -106l12 81h206l-161 -1019h-206l13 82q-154 -106 -347 -106zM360 510q-24 -154 49.5 -246t225.5 -92t255.5 92.5t127.5 245.5t-50 245t-226 92t-255 -92t-127 -245zM686 1535h216l46 -342h-159z
" />
    <glyph glyph-name="aacute" unicode="&#xe1;" horiz-adv-x="1218" 
d="M604 -24q-235 0 -355.5 149.5t-83.5 384.5t205 384.5t403 149.5q192 0 314 -106l12 81h206l-161 -1019h-206l13 82q-154 -106 -347 -106zM360 510q-24 -154 49.5 -246t225.5 -92t255.5 92.5t127.5 245.5t-50 245t-226 92t-255 -92t-127 -245zM672 1225l154 342h216
l-209 -342h-161z" />
    <glyph glyph-name="acircumflex" unicode="&#xe2;" horiz-adv-x="1218" 
d="M604 -24q-235 0 -355.5 149.5t-83.5 384.5t205 384.5t403 149.5q192 0 314 -106l12 81h206l-161 -1019h-206l13 82q-154 -106 -347 -106zM360 510q-24 -154 49.5 -246t225.5 -92t255.5 92.5t127.5 245.5t-50 245t-226 92t-255 -92t-127 -245zM501 1232l292 342h186
l187 -342h-217l-90 168l-142 -168h-216z" />
    <glyph glyph-name="atilde" unicode="&#xe3;" horiz-adv-x="1218" 
d="M604 -24q-235 0 -355.5 149.5t-83.5 384.5t205 384.5t403 149.5q192 0 314 -106l12 81h206l-161 -1019h-206l13 82q-154 -106 -347 -106zM360 510q-24 -154 49.5 -246t225.5 -92t255.5 92.5t127.5 245.5t-50 245t-226 92t-255 -92t-127 -245zM485 1241q-24 81 8 154
q27 60 83 97.5t125 37.5q11 0 21.5 -1t23 -5t20.5 -6.5t22.5 -9.5t20 -9.5t22 -12t19.5 -11.5t21 -13.5t19 -11.5q79 -58 111 -58q15 0 22.5 15.5t-1.5 34t-35 24.5l194 55q28 -80 -7 -157q-29 -60 -85.5 -97.5t-125.5 -37.5q-28 0 -63 14.5t-53.5 26.5t-57.5 39
q-32 22 -49 33t-36.5 19t-31.5 5q-48 -9 -17 -82z" />
    <glyph glyph-name="adieresis" unicode="&#xe4;" horiz-adv-x="1218" 
d="M604 -24q-235 0 -355.5 149.5t-83.5 384.5t205 384.5t403 149.5q192 0 314 -106l12 81h206l-161 -1019h-206l13 82q-154 -106 -347 -106zM360 510q-24 -154 49.5 -246t225.5 -92t255.5 92.5t127.5 245.5t-50 245t-226 92t-255 -92t-127 -245zM564 1337q7 46 46.5 78.5
t86.5 32.5t75 -33t21 -78q-7 -47 -45.5 -78t-85.5 -31t-76 31.5t-22 77.5zM878 1337q7 45 45.5 78t86.5 33q46 0 75 -32.5t22 -78.5t-46 -77.5t-86 -31.5q-48 0 -76 31t-21 78z" />
    <glyph glyph-name="aring" unicode="&#xe5;" horiz-adv-x="1218" 
d="M604 -24q-235 0 -355.5 149.5t-83.5 384.5t205 384.5t403 149.5q192 0 314 -106l12 81h206l-161 -1019h-206l13 82q-154 -106 -347 -106zM360 510q-24 -154 49.5 -246t225.5 -92t255.5 92.5t127.5 245.5t-50 245t-226 92t-255 -92t-127 -245zM673 1409q12 76 76.5 129.5
t143.5 53.5t127.5 -53.5t36.5 -129.5q-12 -78 -77.5 -132.5t-144.5 -54.5q-78 0 -126 55.5t-36 131.5zM820 1409q-8 -45 37 -45q48 0 54 45q3 19 -7 29t-34 10q-44 0 -50 -39z" />
    <glyph glyph-name="ae" unicode="&#xe6;" horiz-adv-x="2097" 
d="M590 -24q-235 0 -355.5 149.5t-83.5 384.5t205 384.5t403 149.5q192 0 314 -106l12 81h206l-18 -118q167 143 395 143q234 0 355 -150t84 -384l-14 -84h-844q5 -119 78 -186.5t203 -67.5q110 0 195 51t138 143l185 -44q-75 -158 -221 -252t-328 -94q-228 0 -350 143
l-19 -119h-206l13 82q-154 -106 -347 -106zM346 510q-24 -154 49.5 -246t225.5 -92t255.5 92.5t127.5 245.5t-50 245t-226 92t-255 -92t-127 -245zM1277 601h640q-7 115 -80 180.5t-200 65.5t-221.5 -65.5t-138.5 -180.5z" />
    <glyph glyph-name="ccedilla" unicode="&#xe7;" horiz-adv-x="1102" 
d="M599 -348q-89 -23 -155 27t-60 138l163 38q-7 -34 1 -47.5t34 -7.5q35 10 32 39q-6 30 -43 22l-168 -22l108 144q-193 29 -287.5 173t-61.5 354q37 235 205 384.5t403 149.5h1q182 0 298 -93.5t142 -252.5l-199 -44q-24 93 -93 143.5t-180 50.5q-152 -1 -255 -93
t-127 -245q-24 -154 49.5 -246t225.5 -92h1q110 0 195 51t138 143l185 -44q-64 -134 -180 -223t-263 -114q56 -39 63 -106q9 -74 -41.5 -140.5t-130.5 -86.5z" />
    <glyph glyph-name="egrave" unicode="&#xe8;" 
d="M603 -24q-235 0 -355.5 149.5t-83.5 384.5t205 384.5t403 149.5q234 0 355 -150t84 -384l-14 -84h-844q5 -119 78 -186.5t203 -67.5q110 0 195 51t138 143l185 -44q-75 -158 -221 -252t-328 -94zM381 601h640q-7 115 -80 180.5t-200 65.5t-221.5 -65.5t-138.5 -180.5z
M725 1563h216l45 -342h-159z" />
    <glyph glyph-name="eacute" unicode="&#xe9;" 
d="M603 -24q-235 0 -355.5 149.5t-83.5 384.5t205 384.5t403 149.5q234 0 355 -150t84 -384l-14 -84h-844q5 -119 78 -186.5t203 -67.5q110 0 195 51t138 143l185 -44q-75 -158 -221 -252t-328 -94zM381 601h640q-7 115 -80 180.5t-200 65.5t-221.5 -65.5t-138.5 -180.5z
M662 1219l154 342h216l-209 -342h-161z" />
    <glyph glyph-name="ecircumflex" unicode="&#xea;" 
d="M603 -24q-235 0 -355.5 149.5t-83.5 384.5t205 384.5t403 149.5q234 0 355 -150t84 -384l-14 -84h-844q5 -119 78 -186.5t203 -67.5q110 0 195 51t138 143l185 -44q-75 -158 -221 -252t-328 -94zM381 601h640q-7 115 -80 180.5t-200 65.5t-221.5 -65.5t-138.5 -180.5z
M481 1224l292 342h186l187 -342h-217l-91 168l-141 -168h-216z" />
    <glyph glyph-name="edieresis" unicode="&#xeb;" 
d="M603 -24q-235 0 -355.5 149.5t-83.5 384.5t205 384.5t403 149.5q234 0 355 -150t84 -384l-14 -84h-844q5 -119 78 -186.5t203 -67.5q110 0 195 51t138 143l185 -44q-75 -158 -221 -252t-328 -94zM381 601h640q-7 115 -80 180.5t-200 65.5t-221.5 -65.5t-138.5 -180.5z
M559 1308q7 46 47 78.5t87 32.5t75 -33t20 -78q-7 -47 -45 -78t-85 -31t-76.5 31.5t-22.5 77.5zM873 1308q8 45 46.5 78t86.5 33q46 0 74.5 -33t21.5 -78q-7 -46 -45.5 -77.5t-85.5 -31.5q-48 0 -76.5 31t-21.5 78z" />
    <glyph glyph-name="igrave" unicode="&#xec;" horiz-adv-x="418" 
d="M97 0l161 1019h208l-161 -1019h-208zM223 1563h216l45 -342h-159z" />
    <glyph glyph-name="iacute" unicode="&#xed;" horiz-adv-x="443" 
d="M120 0l161 1019h208l-161 -1019h-208zM310 1227l155 342h216l-210 -342h-161z" />
    <glyph glyph-name="icircumflex" unicode="&#xee;" horiz-adv-x="286" 
d="M119 0l161 1019h208l-161 -1019h-208zM96 1205l292 342h186l187 -342h-217l-91 168l-141 -168h-216z" />
    <glyph glyph-name="idieresis" unicode="&#xef;" horiz-adv-x="461" 
d="M139 0l161 1019h208l-161 -1019h-208zM162 1334q7 46 47 78.5t87 32.5t75 -33t20 -78q-7 -47 -45 -78t-85 -31t-76.5 31.5t-22.5 77.5zM476 1334q8 45 46.5 78t86.5 33q46 0 74.5 -33t21.5 -78q-7 -46 -45.5 -77.5t-85.5 -31.5q-48 0 -76.5 31t-21.5 78z" />
    <glyph glyph-name="eth" unicode="&#xf0;" horiz-adv-x="1231" 
d="M678 172q152 0 255.5 92.5t127.5 245.5t-50 245t-226 92t-255 -92t-127 -245q-24 -154 49.5 -246t225.5 -92zM208 510q37 235 205 384.5t403 149.5q130 -2 230 -54q-36 106 -100 177l-179 -95l-63 151l90 48q-75 27 -171 21l32 202q208 10 365 -103l213 112l64 -151
l-153 -81q23 -30 46 -67q80 -133 108 -308t0 -368q-26 -159 -113 -285q-87 -127 -220 -197t-288 -70h-30q-235 0 -355.5 149.5t-83.5 384.5z" />
    <glyph glyph-name="ntilde" unicode="&#xf1;" horiz-adv-x="1148" 
d="M139 0l161 1019h208l-12 -78q135 105 304 105q124 0 212 -57q92 -56 135.5 -153t25.5 -213l-99 -623h-207l94 596q17 109 -44.5 178.5t-174.5 69.5q-72 0 -137 -33q-142 -75 -164 -215l-94 -596h-208zM455 1226q-24 81 9 154q27 60 83 97.5t125 37.5q23 0 46.5 -6t54 -22
t41 -22.5t46.5 -29.5q81 -58 112 -58q15 0 22.5 15.5t-1.5 34t-35 24.5l194 55q27 -78 -7 -157q-29 -60 -86 -97.5t-126 -37.5q-28 0 -62.5 14.5t-54.5 27t-56 38.5q-32 22 -49 33t-36.5 19t-31.5 5q-48 -9 -17 -82z" />
    <glyph glyph-name="ograve" unicode="&#xf2;" 
d="M603 -24q-235 0 -355.5 149.5t-83.5 384.5t205 384.5t403 149.5q234 0 355 -150t84 -384t-205.5 -384t-402.5 -150zM358 510q-24 -154 50 -246t226 -92q151 0 254.5 92.5t127.5 245.5t-50 245t-225 92q-153 0 -256 -92t-127 -245zM731 1562h216l46 -342h-159z" />
    <glyph glyph-name="oacute" unicode="&#xf3;" 
d="M603 -24q-235 0 -355.5 149.5t-83.5 384.5t205 384.5t403 149.5q234 0 355 -150t84 -384t-205.5 -384t-402.5 -150zM358 510q-24 -154 50 -246t226 -92q151 0 254.5 92.5t127.5 245.5t-50 245t-225 92q-153 0 -256 -92t-127 -245zM623 1203l154 342h216l-209 -342h-161z
" />
    <glyph glyph-name="ocircumflex" unicode="&#xf4;" 
d="M603 -24q-235 0 -355.5 149.5t-83.5 384.5t205 384.5t403 149.5q234 0 355 -150t84 -384t-205.5 -384t-402.5 -150zM358 510q-24 -154 50 -246t226 -92q151 0 254.5 92.5t127.5 245.5t-50 245t-225 92q-153 0 -256 -92t-127 -245zM487 1205l292 342h186l187 -342h-217
l-91 168l-141 -168h-216z" />
    <glyph glyph-name="otilde" unicode="&#xf5;" 
d="M603 -24q-235 0 -355.5 149.5t-83.5 384.5t205 384.5t403 149.5q234 0 355 -150t84 -384t-205.5 -384t-402.5 -150zM358 510q-24 -154 50 -246t226 -92q151 0 254.5 92.5t127.5 245.5t-50 245t-225 92q-153 0 -256 -92t-127 -245zM461 1225q-24 81 8 154q28 60 84 97.5
t125 37.5q23 0 46.5 -6t54 -22t41 -22.5t46.5 -29.5q81 -58 112 -58q15 0 22.5 15.5t-1.5 34t-35 24.5l193 55q29 -78 -6 -157q-29 -60 -86 -97.5t-126 -37.5q-28 0 -62.5 14.5t-54.5 27t-56 38.5q-35 24 -50.5 33.5t-35 18t-31.5 5.5q-49 -9 -17 -82z" />
    <glyph glyph-name="odieresis" unicode="&#xf6;" 
d="M603 -24q-235 0 -355.5 149.5t-83.5 384.5t205 384.5t403 149.5q234 0 355 -150t84 -384t-205.5 -384t-402.5 -150zM358 510q-24 -154 50 -246t226 -92q151 0 254.5 92.5t127.5 245.5t-50 245t-225 92q-153 0 -256 -92t-127 -245zM527 1334q7 46 47 78.5t87 32.5t75 -33
t20 -78q-7 -47 -45 -78t-85 -31t-76.5 31.5t-22.5 77.5zM841 1334q8 45 46.5 78t86.5 33q46 0 74.5 -33t21.5 -78q-7 -46 -45.5 -77.5t-85.5 -31.5q-48 0 -76.5 31t-21.5 78z" />
    <glyph glyph-name="divide" unicode="&#xf7;" horiz-adv-x="1244" 
d="M170 505l32 200h1062l-32 -200h-1062zM526 259q8 53 53.5 93t103.5 40q54 0 89.5 -40.5t27.5 -92.5q-9 -55 -56.5 -93.5t-102.5 -38.5q-58 0 -91 38.5t-24 93.5zM635 949q8 53 53.5 93t103.5 40q54 0 88 -40t26 -93q-8 -54 -55 -93t-101 -39q-57 0 -90 38.5t-25 93.5z
" />
    <glyph glyph-name="oslash" unicode="&#xf8;" 
d="M603 -24q-22 0 -34 1l-67 -141h-209l89 185q-129 61 -187 190t-31 299q37 235 205 384.5t403 149.5q44 0 96 -7l51 107h209l-83 -175q102 -68 146 -188t20 -271q-37 -234 -205.5 -384t-402.5 -150zM358 510q-16 -104 13.5 -181.5t100.5 -118.5l304 636q-11 1 -35 1
q-153 0 -256 -92t-127 -245zM663 173q140 9 235 100t118 237q27 171 -66 263z" />
    <glyph glyph-name="ugrave" unicode="&#xf9;" horiz-adv-x="1109" 
d="M537 -24q-124 0 -211 56q-93 57 -136.5 154t-25.5 213l98 620h207l-94 -594q-10 -70 16 -124q27 -59 80 -91.5t125 -32.5q114 0 197.5 69.5t100.5 178.5l94 594h208l-160 -1019h-208l12 81q-135 -105 -303 -105zM650 1561h216l46 -342h-159z" />
    <glyph glyph-name="uacute" unicode="&#xfa;" horiz-adv-x="1109" 
d="M537 -24q-124 0 -211 56q-93 57 -136.5 154t-25.5 213l98 620h207l-94 -594q-10 -70 16 -124q27 -59 80 -91.5t125 -32.5q114 0 197.5 69.5t100.5 178.5l94 594h208l-160 -1019h-208l12 81q-135 -105 -303 -105zM597 1211l154 342h216l-209 -342h-161z" />
    <glyph glyph-name="ucircumflex" unicode="&#xfb;" horiz-adv-x="1109" 
d="M537 -24q-124 0 -211 56q-93 57 -136.5 154t-25.5 213l98 620h207l-94 -594q-10 -70 16 -124q27 -59 80 -91.5t125 -32.5q114 0 197.5 69.5t100.5 178.5l94 594h208l-160 -1019h-208l12 81q-135 -105 -303 -105zM461 1226l292 342h186l187 -342h-217l-90 168l-142 -168
h-216z" />
    <glyph glyph-name="udieresis" unicode="&#xfc;" horiz-adv-x="1109" 
d="M537 -24q-124 0 -211 56q-93 57 -136.5 154t-25.5 213l98 620h207l-94 -594q-10 -70 16 -124q27 -59 80 -91.5t125 -32.5q114 0 197.5 69.5t100.5 178.5l94 594h208l-160 -1019h-208l12 81q-135 -105 -303 -105zM494 1335q7 46 47 78.5t87 32.5t75 -33t20 -78
q-7 -47 -45 -78t-85 -31t-76.5 31.5t-22.5 77.5zM808 1335q8 45 46.5 78t86.5 33q46 0 74.5 -33t21.5 -78q-7 -46 -45.5 -77.5t-85.5 -31.5q-48 0 -76.5 31t-21.5 78z" />
    <glyph glyph-name="yacute" unicode="&#xfd;" horiz-adv-x="1123" 
d="M193 -476l274 510l-214 985h225l140 -704l383 704h218l-806 -1495h-220zM599 1225l154 342h216l-209 -342h-161z" />
    <glyph glyph-name="thorn" unicode="&#xfe;" horiz-adv-x="1258" 
d="M67 -477l139 876h-2l162 1019h208l-64 -400h2l-14 -87q154 110 347 112q234 0 355.5 -150t84.5 -384t-206 -384t-403 -150q-194 2 -311 111l-90 -563h-208zM433 509q-25 -153 49 -245.5t225 -92.5q152 0 255 92t128 246q24 153 -50 245t-226 92q-151 0 -254 -92
t-127 -245z" />
    <glyph glyph-name="ydieresis" unicode="&#xff;" horiz-adv-x="1123" 
d="M193 -476l274 510l-214 985h225l140 -704l383 704h218l-806 -1495h-220zM520 1305q7 46 46.5 78.5t86.5 32.5t75 -33t21 -78q-7 -47 -45.5 -78t-85.5 -31t-76 31.5t-22 77.5zM834 1305q7 45 45.5 78t86.5 33q46 0 75 -32.5t22 -78.5t-46 -77.5t-86 -31.5q-48 0 -76 31
t-21 78z" />
    <glyph glyph-name="Amacron" unicode="&#x100;" horiz-adv-x="1450" 
d="M100 15l740 1371h214l304 -1371h-216l-75 342h-566l-185 -342h-216zM607 553h415l-120 547zM632 1632l28 175h739l-28 -175h-739z" />
    <glyph glyph-name="amacron" unicode="&#x101;" horiz-adv-x="1218" 
d="M604 -24q-235 0 -355.5 149.5t-83.5 384.5t205 384.5t403 149.5q192 0 314 -106l12 81h206l-161 -1019h-206l13 82q-154 -106 -347 -106zM360 510q-24 -154 49.5 -246t225.5 -92t255.5 92.5t127.5 245.5t-50 245t-226 92t-255 -92t-127 -245zM453 1218l28 175h739
l-28 -175h-739z" />
    <glyph glyph-name="Abreve" unicode="&#x102;" horiz-adv-x="1450" 
d="M100 15l740 1371h214l304 -1371h-216l-75 342h-566l-185 -342h-216zM607 553h415l-120 547zM698 1990h167q-30 -95 17.5 -158t142.5 -63q96 0 162.5 63t67.5 158h167q-6 -111 -81 -211q-64 -80 -154 -126t-187 -46q-102 0 -175 47q-83 52 -118 142t-9 194z" />
    <glyph glyph-name="abreve" unicode="&#x103;" horiz-adv-x="1218" 
d="M604 -24q-235 0 -355.5 149.5t-83.5 384.5t205 384.5t403 149.5q192 0 314 -106l12 81h206l-161 -1019h-206l13 82q-154 -106 -347 -106zM360 510q-24 -154 49.5 -246t225.5 -92t255.5 92.5t127.5 245.5t-50 245t-226 92t-255 -92t-127 -245zM519 1595h167
q-30 -94 17.5 -157.5t142.5 -63.5q96 0 162.5 63t67.5 158h167q-7 -114 -82 -211q-64 -80 -154 -126t-187 -46q-102 0 -175 47q-83 52 -118 142t-8 194z" />
    <glyph glyph-name="Aogonek" unicode="&#x104;" horiz-adv-x="1460" 
d="M100 15l740 1371h214l283 -1276l68 -75q-15 -13 -43 -37t-34 -29l-42 -34q-62 -51 -77 -66q-21 -19 -27.5 -28.5t-8.5 -22.5q-2 -18 5 -26.5t28 -10.5q39 1 63 27t15 71h173q-4 -111 -87.5 -188t-195.5 -77q-92 1 -142 62.5t-37 145.5q13 86 86 147l60 50l-74 338h-566
l-185 -342h-216zM607 553h415l-120 547z" />
    <glyph glyph-name="aogonek" unicode="&#x105;" horiz-adv-x="1232" 
d="M604 -24q-235 0 -355.5 149.5t-83.5 384.5t205 384.5t403 149.5q192 0 314 -106l12 81h206l-152 -961l21 -23l-28 -25l-2 -10h-10l-37 -31q-33 -27 -42 -34q-62 -51 -77 -66q-21 -19 -27.5 -28.5t-8.5 -22.5q-2 -18 5 -26.5t28 -10.5q39 1 63 27t15 71h173
q-4 -111 -87.5 -188t-195.5 -77q-92 1 -142 62.5t-37 145.5q13 86 86 147l96 80l5 33q-154 -106 -347 -106zM360 510q-24 -154 49.5 -246t225.5 -92t255.5 92.5t127.5 245.5t-50 245t-226 92t-255 -92t-127 -245z" />
    <glyph glyph-name="Cacute" unicode="&#x106;" horiz-adv-x="1525" 
d="M822 -29q-211 0 -359.5 94t-210 259.5t-28.5 375.5t147.5 375.5t292.5 259.5t389 94q202 0 347.5 -86.5t213.5 -240.5l-196 -91q-110 219 -398 219q-237 0 -400.5 -146t-201.5 -385t79.5 -385t354.5 -146q288 0 468 220l164 -90q-115 -153 -287.5 -240t-374.5 -87z
M910 1627l154 342h216l-209 -342h-161z" />
    <glyph glyph-name="cacute" unicode="&#x107;" horiz-adv-x="1102" 
d="M601 -24q-235 0 -355.5 149.5t-83.5 384.5t205 384.5t403 149.5h1q182 0 298 -93.5t142 -252.5l-199 -44q-24 93 -93 143.5t-180 50.5q-152 -1 -255 -93t-127 -245q-24 -154 49.5 -246t225.5 -92h1q110 0 195 51t138 143l185 -44q-75 -158 -221 -252t-328 -94h-1z
M627 1227l155 342h216l-210 -342h-161z" />
    <glyph glyph-name="Cdotaccent" unicode="&#x10a;" horiz-adv-x="1525" 
d="M822 -29q-211 0 -359.5 94t-210 259.5t-28.5 375.5t147.5 375.5t292.5 259.5t389 94q202 0 347.5 -86.5t213.5 -240.5l-196 -91q-110 219 -398 219q-237 0 -400.5 -146t-201.5 -385t79.5 -385t354.5 -146q288 0 468 220l164 -90q-115 -153 -287.5 -240t-374.5 -87z
M990 1726q7 46 46 77t86 31q46 0 74.5 -31t21.5 -77t-44.5 -77.5t-85.5 -31.5q-47 0 -76 31.5t-22 77.5z" />
    <glyph glyph-name="cdotaccent" unicode="&#x10b;" horiz-adv-x="1102" 
d="M601 -24q-235 0 -355.5 149.5t-83.5 384.5t205 384.5t403 149.5h1q182 0 298 -93.5t142 -252.5l-199 -44q-24 93 -93 143.5t-180 50.5q-152 -1 -255 -93t-127 -245q-24 -154 49.5 -246t225.5 -92h1q110 0 195 51t138 143l185 -44q-75 -158 -221 -252t-328 -94h-1z
M674 1302q7 46 46 77t86 31q46 0 74.5 -31t21.5 -77q-8 -47 -45 -78t-85 -31q-47 0 -76 31.5t-22 77.5z" />
    <glyph glyph-name="Ccaron" unicode="&#x10c;" horiz-adv-x="1525" 
d="M822 -29q-211 0 -359.5 94t-210 259.5t-28.5 375.5t147.5 375.5t292.5 259.5t389 94q202 0 347.5 -86.5t213.5 -240.5l-196 -91q-110 219 -398 219q-237 0 -400.5 -146t-201.5 -385t79.5 -385t354.5 -146q288 0 468 220l164 -90q-115 -153 -287.5 -240t-374.5 -87z
M810 1954h217l91 -167l138 167h218l-291 -342h-188z" />
    <glyph glyph-name="ccaron" unicode="&#x10d;" horiz-adv-x="1102" 
d="M601 -24q-235 0 -355.5 149.5t-83.5 384.5t205 384.5t403 149.5h1q182 0 298 -93.5t142 -252.5l-199 -44q-24 93 -93 143.5t-180 50.5q-152 -1 -255 -93t-127 -245q-24 -154 49.5 -246t225.5 -92h1q110 0 195 51t138 143l185 -44q-75 -158 -221 -252t-328 -94h-1z
M504 1553h217l91 -167l138 167h218l-291 -342h-188z" />
    <glyph glyph-name="Dcaron" unicode="&#x10e;" horiz-adv-x="1394" 
d="M147 0l222 1400h509q153 0 273 -53t193.5 -145.5t102 -222t4.5 -280.5q-49 -307 -268.5 -503t-526.5 -196h-509zM387 200l303 -1q224 0 377.5 136.5t189.5 362.5t-74.5 363.5t-334.5 137.5l-303 1zM662 1956h217l90 -167l139 167h218l-291 -342h-188z" />
    <glyph glyph-name="dcaron" unicode="&#x10f;" horiz-adv-x="952" 
d="M601 -24q-235 0 -355.5 149.5t-83.5 384.5t205 384.5t403 149.5q193 -2 313 -112l89 563h206l-237 -1495h-206l14 88q-153 -110 -348 -112zM357 510q-24 -154 49.5 -246t225.5 -92t255.5 92.5t127.5 245.5t-50 245t-226 92t-255 -92t-127 -245zM558 1565h217l90 -167
l139 167h218l-291 -342h-188z" />
    <glyph glyph-name="Dcroat" unicode="&#x110;" horiz-adv-x="1408" 
d="M158 0l86 545h-284l28 175h284l108 680h509q153 0 273 -53t193.5 -145.5t102 -222t4.5 -280.5q-49 -307 -268.5 -503t-526.5 -196h-509zM398 200l303 -1q224 0 377.5 136.5t189.5 362.5t-74.5 363.5t-334.5 137.5l-303 1l-76 -480h247l-28 -175h-247z" />
    <glyph glyph-name="dcroat" unicode="&#x111;" horiz-adv-x="1240" 
d="M608 -24q-235 0 -355.5 149.5t-83.5 384.5t205 384.5t403 149.5q193 -2 313 -112l30 190h-238l27 175h238l32 198h206l-32 -198h295l-27 -175h-295l-178 -1122h-206l14 88q-153 -110 -348 -112zM364 510q-24 -154 49.5 -246t225.5 -92t255.5 92.5t127.5 245.5t-50 245
t-226 92t-255 -92t-127 -245z" />
    <glyph glyph-name="Emacron" unicode="&#x112;" horiz-adv-x="1181" 
d="M139 0l222 1400h948l-32 -200h-740l-58 -368h618l-32 -201h-618l-68 -431h740l-32 -200h-948zM541 1618l28 175h739l-28 -175h-739z" />
    <glyph glyph-name="emacron" unicode="&#x113;" 
d="M603 -24q-235 0 -355.5 149.5t-83.5 384.5t205 384.5t403 149.5q234 0 355 -150t84 -384l-14 -84h-844q5 -119 78 -186.5t203 -67.5q110 0 195 51t138 143l185 -44q-75 -158 -221 -252t-328 -94zM381 601h640q-7 115 -80 180.5t-200 65.5t-221.5 -65.5t-138.5 -180.5z
M430 1227l28 175h739l-28 -175h-739z" />
    <glyph glyph-name="Edotaccent" unicode="&#x116;" horiz-adv-x="1181" 
d="M139 0l222 1400h948l-32 -200h-740l-58 -368h618l-32 -201h-618l-68 -431h740l-32 -200h-948zM781 1697q7 46 46 77t86 31q46 0 74.5 -31t21.5 -77q-8 -47 -45 -78t-85 -31q-47 0 -76 31.5t-22 77.5z" />
    <glyph glyph-name="edotaccent" unicode="&#x117;" 
d="M603 -24q-235 0 -355.5 149.5t-83.5 384.5t205 384.5t403 149.5q234 0 355 -150t84 -384l-14 -84h-844q5 -119 78 -186.5t203 -67.5q110 0 195 51t138 143l185 -44q-75 -158 -221 -252t-328 -94zM381 601h640q-7 115 -80 180.5t-200 65.5t-221.5 -65.5t-138.5 -180.5z
M694 1348q7 46 46 77t86 31q46 0 74.5 -31t21.5 -77t-45 -77.5t-86 -31.5q-47 0 -75.5 31t-21.5 78z" />
    <glyph glyph-name="Eogonek" unicode="&#x118;" horiz-adv-x="1300" 
d="M142 0l222 1400h948l-32 -200h-740l-58 -368h618l-32 -201h-618l-68 -431h740l-21 -132l30 -33q-15 -13 -43 -37t-34 -29l-42 -34q-62 -51 -77 -66q-21 -19 -27.5 -28.5t-8.5 -22.5q-2 -18 5 -26.5t28 -10.5q39 1 63 27t15 71h173q-4 -111 -87.5 -188t-195.5 -77
q-92 1 -142 62.5t-37 145.5q13 86 86 147l37 31h-702z" />
    <glyph glyph-name="eogonek" unicode="&#x119;" 
d="M1021 601q-7 115 -80 180.5t-200 65.5t-221.5 -65.5t-138.5 -180.5h640zM164 510q37 235 205 384.5t403 149.5q234 0 355 -150t84 -384l-14 -84h-844q5 -119 78 -186.5t203 -67.5q110 0 195 51t138 143l185 -44q-53 -113 -144.5 -194.5t-208.5 -120.5l-45 -38
q-33 -27 -42 -34q-62 -51 -77 -66q-21 -19 -27.5 -28.5t-8.5 -22.5q-2 -18 5 -26.5t28 -10.5q39 1 63 27t15 71h173q-4 -111 -87.5 -188t-195.5 -77q-92 1 -142 62.5t-37 145.5q13 86 86 147l15 12q-197 27 -294.5 172t-63.5 357z" />
    <glyph glyph-name="Ecaron" unicode="&#x11a;" horiz-adv-x="1181" 
d="M139 0l222 1400h948l-32 -200h-740l-58 -368h618l-32 -201h-618l-68 -431h740l-32 -200h-948zM597 1960h217l91 -167l138 167h218l-291 -342h-188z" />
    <glyph glyph-name="ecaron" unicode="&#x11b;" horiz-adv-x="1223" 
d="M642 -24q-235 0 -355.5 149.5t-83.5 384.5t205 384.5t403 149.5q234 0 355 -150t84 -384l-14 -84h-844q5 -119 78 -186.5t203 -67.5q110 0 195 51t138 143l185 -44q-75 -158 -221 -252t-328 -94zM420 601h640q-7 115 -80 180.5t-200 65.5t-221.5 -65.5t-138.5 -180.5z
M547 1575h217l91 -167l138 167h218l-291 -342h-188z" />
    <glyph glyph-name="Gbreve" unicode="&#x11e;" horiz-adv-x="1503" 
d="M820 -29q-211 0 -359.5 94t-210 259.5t-28.5 375.5t147.5 375.5t292.5 259.5t389 94q202 0 347.5 -86.5t213.5 -240.5l-196 -91q-110 219 -398 219q-237 0 -400.5 -146t-201.5 -385t79.5 -385t354.5 -146q244 0 416 163l48 299h-536l32 201h742l-89 -558
q-113 -142 -280.5 -222t-362.5 -80zM736 1979h167q-30 -95 17.5 -158t142.5 -63q96 0 162.5 63t67.5 158h167q-6 -113 -81 -211q-64 -80 -154 -126t-187 -46q-102 0 -175 47q-83 52 -118 142t-9 194z" />
    <glyph glyph-name="gbreve" unicode="&#x11f;" horiz-adv-x="1258" 
d="M534 -500q-107 0 -206 48q-97 50 -161.5 133.5t-79.5 182.5l191 74q13 -104 94.5 -170t193.5 -66q138 0 245 80.5t125 191.5l17 108q-154 -106 -347 -106q-235 0 -355.5 149.5t-83.5 384.5t205 384.5t403 149.5q191 0 314 -106l12 81h206l-165 -1045
q-20 -128 -113.5 -238t-226 -173t-268.5 -63zM362 510q-24 -154 49.5 -246t225.5 -92t255.5 92.5t127.5 245.5t-50 245t-226 92t-255 -92t-127 -245zM523 1615h167q-30 -95 17.5 -158t142.5 -63q96 0 162.5 63t67.5 158h167q-7 -114 -82 -211q-64 -80 -154 -126t-187 -46
q-101 0 -174 47q-84 52 -119 142t-8 194z" />
    <glyph glyph-name="Gdotaccent" unicode="&#x120;" horiz-adv-x="1503" 
d="M820 -29q-211 0 -359.5 94t-210 259.5t-28.5 375.5t147.5 375.5t292.5 259.5t389 94q202 0 347.5 -86.5t213.5 -240.5l-196 -91q-110 219 -398 219q-237 0 -400.5 -146t-201.5 -385t79.5 -385t354.5 -146q244 0 416 163l48 299h-536l32 201h742l-89 -558
q-113 -142 -280.5 -222t-362.5 -80zM953 1726q7 46 46 77t86 31q46 0 74.5 -31t21.5 -77t-44.5 -77.5t-85.5 -31.5q-47 0 -76 31.5t-22 77.5z" />
    <glyph glyph-name="gdotaccent" unicode="&#x121;" horiz-adv-x="1258" 
d="M534 -500q-107 0 -206 48q-97 50 -161.5 133.5t-79.5 182.5l191 74q13 -104 94.5 -170t193.5 -66q138 0 245 80.5t125 191.5l17 108q-154 -106 -347 -106q-235 0 -355.5 149.5t-83.5 384.5t205 384.5t403 149.5q191 0 314 -106l12 81h206l-165 -1045
q-20 -128 -113.5 -238t-226 -173t-268.5 -63zM362 510q-24 -154 49.5 -246t225.5 -92t255.5 92.5t127.5 245.5t-50 245t-226 92t-255 -92t-127 -245zM739 1371q7 46 46 77t86 31q46 0 74.5 -31t21.5 -77q-8 -47 -45 -78t-85 -31q-47 0 -76 31.5t-22 77.5z" />
    <glyph glyph-name="uni0122" unicode="&#x122;" horiz-adv-x="1510" 
d="M824 -29q-211 0 -359.5 94t-210 259.5t-28.5 375.5t147.5 375.5t292.5 259.5t389 94q202 0 347.5 -86.5t213.5 -240.5l-196 -91q-110 219 -398 219q-237 0 -400.5 -146t-201.5 -385t79.5 -385t354.5 -146q244 0 416 163l48 299h-536l32 201h742l-89 -558
q-113 -142 -280.5 -222t-362.5 -80zM592 -440l154 341h217l-209 -341h-162z" />
    <glyph glyph-name="uni0123" unicode="&#x123;" horiz-adv-x="1235" 
d="M536 -500q-107 0 -206 48q-97 50 -161.5 133.5t-79.5 182.5l191 74q13 -104 94.5 -170t193.5 -66q138 0 245 80.5t125 191.5l17 108q-154 -106 -347 -106q-235 0 -355.5 149.5t-83.5 384.5t205 384.5t403 149.5q191 0 314 -106l12 81h206l-165 -1045
q-20 -128 -113.5 -238t-226 -173t-268.5 -63zM364 510q-24 -154 49.5 -246t225.5 -92t255.5 92.5t127.5 245.5t-50 245t-226 92t-255 -92t-127 -245zM719 1327l154 341h217l-209 -341h-162z" />
    <glyph glyph-name="Hbar" unicode="&#x126;" horiz-adv-x="1379" 
d="M150 5l160 1012h-146l32 200h146l28 178h207l-28 -178h692l28 178h206l-28 -178h164l-32 -200h-164l-160 -1012h-206l101 642h-692l-101 -642h-207zM490 847h692l27 170h-692z" />
    <glyph glyph-name="hbar" unicode="&#x127;" horiz-adv-x="1148" 
d="M135 0l178 1122h-279l27 175h279l32 198h208l-32 -198h252l-27 -175h-252l-29 -181q135 105 304 105q124 0 212 -57q92 -56 135.5 -153t25.5 -213l-99 -623h-207l94 596q17 109 -44.5 178.5t-174.5 69.5q-72 0 -137 -33q-142 -75 -164 -215l-94 -596h-208z" />
    <glyph glyph-name="Itilde" unicode="&#x128;" horiz-adv-x="520" 
d="M167 0l222 1400h206l-222 -1400h-206zM167 1614q-24 81 8 154q28 60 84 97.5t124 37.5q11 0 21.5 -1t23 -5t20.5 -6.5t22.5 -9.5t20 -9.5t22 -12t19.5 -11.5t21 -13.5t19 -11.5q81 -58 112 -58q19 0 24 23q7 30 -23 45q-7 4 -16 6l194 55q28 -80 -7 -157
q-29 -60 -85.5 -97.5t-125.5 -37.5q-28 0 -63 14.5t-53.5 26.5t-57.5 39q-32 22 -49 33t-36.5 19t-31.5 5q-48 -9 -17 -82z" />
    <glyph glyph-name="itilde" unicode="&#x129;" horiz-adv-x="358" 
d="M90 0l161 1019h208l-161 -1019h-208zM34 1212q-24 81 8 154q28 60 84 97.5t125 37.5q23 0 46.5 -6t54 -22t41 -22.5t46.5 -29.5q81 -58 112 -58q15 0 22.5 15.5t-1.5 34t-35 24.5l193 55q29 -78 -7 -157q-29 -60 -85.5 -97.5t-125.5 -37.5q-28 0 -62.5 14.5t-54.5 27
t-56 38.5q-35 24 -50.5 33.5t-35 18t-31.5 5.5q-49 -9 -17 -82z" />
    <glyph glyph-name="Imacron" unicode="&#x12a;" horiz-adv-x="513" 
d="M143 0l222 1400h206l-222 -1400h-206zM137 1620l27 175h739l-27 -175h-739z" />
    <glyph glyph-name="imacron" unicode="&#x12b;" horiz-adv-x="449" 
d="M127 0l161 1019h208l-161 -1019h-208zM54 1227l28 175h739l-28 -175h-739z" />
    <glyph glyph-name="Iogonek" unicode="&#x12e;" horiz-adv-x="506" 
d="M137 -386q-92 1 -142 62.5t-37 145.5q13 86 86 147l113 94l212 1337h206l-215 -1356l8 -9q-4 -3 -11 -10l-4 -25h-25l-37 -31q-33 -27 -42 -34q-62 -51 -77 -66q-21 -19 -27.5 -28.5t-8.5 -22.5q-2 -18 5 -26.5t28 -10.5q39 1 63 27t15 71h173q-4 -111 -87.5 -188
t-195.5 -77z" />
    <glyph glyph-name="iogonek" unicode="&#x12f;" horiz-adv-x="446" 
d="M107 -386q-92 1 -142 62.5t-37 145.5q13 86 86 147l110 92l151 958h208l-154 -974l9 -10l-12 -11l-4 -24h-24l-37 -31q-33 -27 -42 -34q-62 -51 -77 -66q-21 -19 -27.5 -28.5t-8.5 -22.5q-2 -18 5 -26.5t28 -10.5q39 1 63 27t15 71h173q-4 -111 -87.5 -188t-195.5 -77z
" />
    <glyph glyph-name="Idotaccent" unicode="&#x130;" horiz-adv-x="513" 
d="M157 0l222 1400h206l-222 -1400h-206zM410 1706q7 46 46 77t86 31q46 0 74.5 -31t21.5 -77q-8 -47 -45 -78t-85 -31q-47 0 -76 31.5t-22 77.5z" />
    <glyph glyph-name="dotlessi" unicode="&#x131;" horiz-adv-x="445" 
d="M118 0l161 1019h208l-161 -1019h-208z" />
    <glyph glyph-name="IJ" unicode="&#x132;" horiz-adv-x="1743" 
d="M165 0l222 1400h206l-222 -1400h-206zM585 623h206q-42 -203 37 -325t259 -122q119 0 210 56q184 114 222 357l129 811h207l-129 -811q-27 -173 -118.5 -311.5t-236 -220t-316.5 -81.5q-179 0 -293 83q-121 86 -167 235t-10 329z" />
    <glyph glyph-name="ij" unicode="&#x133;" horiz-adv-x="752" 
d="M115 0l161 1019h208l-161 -1019h-208zM134 -475l32 201q113 -10 194.5 47.5t97.5 157.5l172 1088h206l-172 -1088q-16 -109 -87 -205q-79 -100 -195.5 -154.5t-247.5 -46.5zM325 1356q7 44 45 76.5t84 32.5q47 0 75.5 -32.5t21.5 -76.5q-7 -46 -46 -78.5t-86 -32.5
q-46 0 -73.5 32.5t-20.5 78.5zM669 1356q7 44 45 76.5t84 32.5q47 0 75.5 -32.5t21.5 -76.5q-7 -46 -46 -78.5t-86 -32.5q-46 0 -73.5 32.5t-20.5 78.5z" />
    <glyph glyph-name="uni0136" unicode="&#x136;" horiz-adv-x="1168" 
d="M144 0l222 1400h208l-96 -606l626 606h273l-690 -665l455 -735h-265l-351 579l-97 -95l-77 -484h-208zM359 -440l154 341h217l-209 -341h-162z" />
    <glyph glyph-name="uni0137" unicode="&#x137;" horiz-adv-x="1076" 
d="M142 0l237 1495h208l-148 -932l470 456h272l-435 -421l266 -598h-238l-195 437l-189 -184l-40 -253h-208zM328 -440l154 341h217l-209 -341h-162z" />
    <glyph glyph-name="Lacute" unicode="&#x139;" horiz-adv-x="1181" 
d="M139 0l222 1400h208l-190 -1200h740l-32 -200h-948zM392 1627l154 342h216l-209 -342h-161z" />
    <glyph glyph-name="lacute" unicode="&#x13a;" horiz-adv-x="436" 
d="M124 0l237 1495h208l-237 -1495h-208zM367 1627l154 342h216l-209 -342h-161z" />
    <glyph glyph-name="uni013B" unicode="&#x13b;" horiz-adv-x="1190" 
d="M144 0l222 1400h208l-190 -1200h740l-32 -200h-948zM392 -440l154 341h217l-209 -341h-162z" />
    <glyph glyph-name="uni013C" unicode="&#x13c;" horiz-adv-x="477" 
d="M136 0l237 1495h208l-237 -1495h-208zM-13 -440l154 341h217l-209 -341h-162z" />
    <glyph glyph-name="Lcaron" unicode="&#x13d;" horiz-adv-x="1181" 
d="M139 0l222 1400h208l-190 -1200h740l-32 -200h-948zM595 1964h217l91 -167l138 167h218l-291 -342h-188z" />
    <glyph glyph-name="lcaron" unicode="&#x13e;" horiz-adv-x="548" 
d="M306 0l237 1495h208l-237 -1495h-208zM398 1969h217l90 -167l139 167h218l-291 -342h-188z" />
    <glyph glyph-name="Lslash" unicode="&#x141;" horiz-adv-x="1223" 
d="M132 0l124 783l-188 -99l-64 152l284 150l66 414h208l-47 -294l188 99l64 -151l-284 -150l-111 -704h740l-32 -200h-948z" />
    <glyph glyph-name="lslash" unicode="&#x142;" horiz-adv-x="441" 
d="M112 0l123 778l-177 -94l-64 152l273 144l82 515h208l-63 -395l199 105l64 -151l-295 -156l-142 -898h-208z" />
    <glyph glyph-name="Nacute" unicode="&#x143;" horiz-adv-x="1351" 
d="M145 0l222 1400h203l522 -1016l161 1016h207l-222 -1400h-202l-522 1015l-161 -1015h-208zM814 1627l154 342h216l-209 -342h-161z" />
    <glyph glyph-name="nacute" unicode="&#x144;" horiz-adv-x="1148" 
d="M139 0l161 1019h208l-12 -78q135 105 304 105q124 0 212 -57q92 -56 135.5 -153t25.5 -213l-99 -623h-207l94 596q17 109 -44.5 178.5t-174.5 69.5q-72 0 -137 -33q-142 -75 -164 -215l-94 -596h-208zM625 1227l155 342h216l-210 -342h-161z" />
    <glyph glyph-name="uni0145" unicode="&#x145;" horiz-adv-x="1361" 
d="M150 0l222 1400h203l522 -1016l161 1016h207l-222 -1400h-202l-522 1015l-161 -1015h-208zM447 -440l154 341h217l-209 -341h-162z" />
    <glyph glyph-name="uni0146" unicode="&#x146;" horiz-adv-x="1157" 
d="M144 0l161 1019h208l-12 -78q135 105 304 105q123 0 212 -57q92 -56 135.5 -153t25.5 -213l-99 -623h-207l94 596q17 109 -44.5 178.5t-174.5 69.5q-72 0 -137 -33q-142 -75 -164 -215l-94 -596h-208zM372 -440l154 341h217l-209 -341h-162z" />
    <glyph glyph-name="Ncaron" unicode="&#x147;" horiz-adv-x="1351" 
d="M145 0l222 1400h203l522 -1016l161 1016h207l-222 -1400h-202l-522 1015l-161 -1015h-208zM671 1964h217l91 -167l138 167h218l-291 -342h-188z" />
    <glyph glyph-name="ncaron" unicode="&#x148;" horiz-adv-x="1148" 
d="M139 0l161 1019h208l-12 -78q135 105 304 105q124 0 212 -57q92 -56 135.5 -153t25.5 -213l-99 -623h-207l94 596q17 109 -44.5 178.5t-174.5 69.5q-72 0 -137 -33q-142 -75 -164 -215l-94 -596h-208zM535 1546h217l90 -167l139 167h218l-291 -342h-188z" />
    <glyph glyph-name="Omacron" unicode="&#x14c;" horiz-adv-x="1617" 
d="M824 -29q-211 0 -359.5 94t-210.5 259.5t-29 375.5t147.5 375.5t292.5 259.5t390 94t360.5 -94t210 -259.5t28.5 -375.5t-147.5 -375.5t-292.5 -259.5t-390 -94zM420 699q-38 -239 79.5 -385t354.5 -146q238 0 401.5 146t201.5 385t-79.5 385t-355.5 146
q-237 0 -400.5 -146t-201.5 -385zM719 1608l27 175h739l-27 -175h-739z" />
    <glyph glyph-name="omacron" unicode="&#x14d;" 
d="M603 -24q-235 0 -355.5 149.5t-83.5 384.5t205 384.5t403 149.5q234 0 355 -150t84 -384t-205.5 -384t-402.5 -150zM358 510q-24 -154 50 -246t226 -92q151 0 254.5 92.5t127.5 245.5t-50 245t-225 92q-153 0 -256 -92t-127 -245zM460 1206l28 175h739l-28 -175h-739z
" />
    <glyph glyph-name="Ohungarumlaut" unicode="&#x150;" horiz-adv-x="1617" 
d="M824 -29q-211 0 -359.5 94t-210.5 259.5t-29 375.5t147.5 375.5t292.5 259.5t390 94t360.5 -94t210 -259.5t28.5 -375.5t-147.5 -375.5t-292.5 -259.5t-390 -94zM420 699q-38 -239 79.5 -385t354.5 -146q238 0 401.5 146t201.5 385t-79.5 385t-355.5 146
q-237 0 -400.5 -146t-201.5 -385zM819 1627l154 342h216l-209 -342h-161zM1093 1627l154 342h216l-209 -342h-161z" />
    <glyph glyph-name="ohungarumlaut" unicode="&#x151;" 
d="M603 -24q-235 0 -355.5 149.5t-83.5 384.5t205 384.5t403 149.5q234 0 355 -150t84 -384t-205.5 -384t-402.5 -150zM358 510q-24 -154 50 -246t226 -92q151 0 254.5 92.5t127.5 245.5t-50 245t-225 92q-153 0 -256 -92t-127 -245zM534 1226l154 342h216l-209 -342h-161z
M808 1226l154 342h216l-209 -342h-161z" />
    <glyph glyph-name="OE" unicode="&#x152;" horiz-adv-x="2436" 
d="M836 -29q-211 0 -359.5 94t-210.5 259.5t-29 375.5t147.5 375.5t292.5 259.5t390 94q183 0 319 -70.5t211 -198.5l38 240h948l-32 -200h-740l-58 -368h618l-32 -201h-618l-68 -431h740l-32 -200h-948l38 240q-115 -128 -273.5 -198.5t-341.5 -70.5zM432 699
q-38 -239 79.5 -385t354.5 -146q238 0 401.5 146t201.5 385t-79.5 385t-355.5 146q-237 0 -400.5 -146t-201.5 -385z" />
    <glyph glyph-name="oe" unicode="&#x153;" horiz-adv-x="2082" 
d="M590 -24q-235 0 -355.5 149.5t-83.5 384.5t205 384.5t403 149.5q148 0 254 -63.5t155 -175.5q85 112 210.5 175.5t274.5 63.5q234 0 355 -150t84 -384l-14 -84h-844q5 -119 78 -186.5t203 -67.5q110 0 195 51t138 143l185 -44q-75 -158 -221 -252t-328 -94
q-149 0 -254.5 63.5t-155.5 175.5q-85 -112 -210.5 -175.5t-273.5 -63.5zM345 510q-24 -154 50 -246t226 -92q151 0 254.5 92.5t127.5 245.5t-50 245t-225 92q-153 0 -256 -92t-127 -245zM1262 601h640q-7 115 -80 180.5t-200 65.5t-221.5 -65.5t-138.5 -180.5z" />
    <glyph glyph-name="Racute" unicode="&#x154;" horiz-adv-x="1217" 
d="M141 0l222 1400h530q70 0 131 -17t112 -51.5t84 -87t46 -124t-1 -162.5q-29 -170 -128 -277.5t-238 -146.5l240 -534h-241l-230 515h-237l-82 -515h-208zM460 699l311 2q50 0 94.5 13t87 41t72.5 80t41 123q12 71 -1.5 123t-47.5 79.5t-74.5 40t-90.5 12.5h-311z
M703 1627l154 342h216l-209 -342h-161z" />
    <glyph glyph-name="racute" unicode="&#x155;" horiz-adv-x="791" 
d="M129 0l161 1019h208l-12 -78q135 105 303 105q83 0 154 -27l-114 -194q-57 19 -98 19q-73 0 -136 -33q-141 -74 -164 -215l-94 -596h-208zM526 1210l154 342h216l-209 -342h-161z" />
    <glyph glyph-name="uni0156" unicode="&#x156;" horiz-adv-x="1227" 
d="M146 0l222 1400h530q70 0 131 -17t112 -51.5t84 -87t46 -124t-1 -162.5q-29 -170 -128 -277.5t-238 -146.5l240 -534h-241l-230 515h-237l-82 -515h-208zM387 -440l154 341h217l-209 -341h-162zM465 699l311 2q50 0 94.5 13t87 41t72.5 80t41 123q12 71 -1.5 123
t-47.5 79.5t-74.5 40t-90.5 12.5h-311z" />
    <glyph glyph-name="uni0157" unicode="&#x157;" horiz-adv-x="808" 
d="M145 0l161 1019h208l-12 -78q135 105 303 105q83 0 154 -27l-114 -194q-57 19 -98 19q-73 0 -136 -33q-141 -74 -164 -215l-94 -596h-208zM-7 -440l154 341h217l-209 -341h-162z" />
    <glyph glyph-name="Rcaron" unicode="&#x158;" horiz-adv-x="1217" 
d="M141 0l222 1400h530q70 0 131 -17t112 -51.5t84 -87t46 -124t-1 -162.5q-29 -170 -128 -277.5t-238 -146.5l240 -534h-241l-230 515h-237l-82 -515h-208zM460 699l311 2q50 0 94.5 13t87 41t72.5 80t41 123q12 71 -1.5 123t-47.5 79.5t-74.5 40t-90.5 12.5h-311z
M581 1979h217l91 -167l138 167h218l-291 -342h-188z" />
    <glyph glyph-name="rcaron" unicode="&#x159;" horiz-adv-x="796" 
d="M134 0l161 1019h208l-12 -78q135 105 303 105q83 0 154 -27l-114 -194q-57 19 -98 19q-73 0 -136 -33q-141 -74 -164 -215l-94 -596h-208zM345 1555h217l91 -167l138 167h218l-291 -342h-188z" />
    <glyph glyph-name="Sacute" unicode="&#x15a;" horiz-adv-x="1306" 
d="M664 -24q-117 0 -221 35q-116 40 -190 116t-85 179l207 70q-2 -88 89.5 -144t231.5 -56q85 0 172 28q171 61 190 183q10 60 -27 98q-69 76 -273 112q-136 23 -251 66q-252 97 -212 345q20 128 112 223q89 90 217.5 139.5t268.5 49.5q198 0 338.5 -90.5t158.5 -242.5
l-209 -69q3 89 -88.5 144.5t-231.5 55.5q-84 1 -169 -27q-172 -61 -191 -183q-11 -71 21 -106q31 -38 96 -59t182 -43q120 -19 245 -69q119 -54 178.5 -139.5t40.5 -204.5q-20 -128 -112 -220q-88 -91 -217 -141t-271 -50zM745 1627l154 342h216l-209 -342h-161z" />
    <glyph glyph-name="sacute" unicode="&#x15b;" horiz-adv-x="945" 
d="M521 175q42 0 87.5 10.5t88.5 40.5t49 73q6 40 -24 66.5t-59 34t-89 18.5q-14 3 -21 4q-87 14 -182 49q-190 74 -160 266q16 99 85 171q68 68 164 106t200 38q153 0 261 -75.5t111 -198.5l-181 -62q-9 66 -65 105.5t-157 39.5q-42 0 -87.5 -10.5t-88.5 -40.5t-49 -73
q-4 -25 5.5 -44t23.5 -30.5t42.5 -20.5t47.5 -13t52 -10q16 -3 23 -4q84 -13 177 -51q89 -41 134.5 -107.5t31.5 -158.5q-16 -99 -86 -169q-66 -69 -163 -107t-202 -38h-1q-153 0 -261 75.5t-111 198.5l181 62q9 -66 65 -105.5t157 -39.5h1zM541 1221l155 342h216l-210 -342
h-161z" />
    <glyph glyph-name="Scedilla" unicode="&#x15e;" horiz-adv-x="1306" 
d="M601 -348q-89 -23 -155 27t-60 138l163 38q-7 -34 1 -47.5t34 -7.5q35 10 32 39q-6 30 -43 22l-168 -22l114 151q-37 9 -76 21q-116 40 -190 116t-85 179l207 70q-2 -88 89.5 -144t231.5 -56q85 0 172 28q171 61 190 183q10 60 -27 98q-69 76 -273 112q-136 23 -251 66
q-252 97 -212 345q20 128 112 223q89 90 217.5 139.5t268.5 49.5q198 0 338.5 -90.5t158.5 -242.5l-209 -69q3 89 -88.5 144.5t-231.5 55.5q-84 1 -169 -27q-172 -61 -191 -183q-11 -71 21 -106q31 -38 96 -59t182 -43q120 -19 245 -69q119 -54 178.5 -139.5t40.5 -204.5
q-20 -128 -112 -220q-79 -82 -192.5 -131t-240.5 -58q48 -40 54 -99q9 -74 -41.5 -140.5t-130.5 -86.5z" />
    <glyph glyph-name="scedilla" unicode="&#x15f;" horiz-adv-x="945" 
d="M521 175q42 0 87.5 10.5t88.5 40.5t49 73q6 40 -24 66.5t-59 34t-89 18.5q-14 3 -21 4q-87 14 -182 49q-190 74 -160 266q16 99 85 171q68 68 164 106t200 38q153 0 261 -75.5t111 -198.5l-181 -62q-9 66 -65 105.5t-157 39.5q-42 0 -87.5 -10.5t-88.5 -40.5t-49 -73
q-4 -25 5.5 -44t23.5 -30.5t42.5 -20.5t47.5 -13t52 -10q16 -3 23 -4q84 -13 177 -51q89 -41 134.5 -107.5t31.5 -158.5q-16 -99 -86 -169q-107 -112 -280 -139q64 -40 71 -111q9 -74 -41.5 -140.5t-130.5 -86.5q-89 -23 -155 27t-60 138l163 38q-7 -34 1 -47.5t34 -7.5
q35 10 32 39q-6 30 -43 22l-168 -22l115 154q-120 22 -197 92.5t-79 172.5l181 62q9 -66 65 -105.5t157 -39.5h1z" />
    <glyph glyph-name="Scaron" unicode="&#x160;" horiz-adv-x="1306" 
d="M664 -24q-117 0 -221 35q-116 40 -190 116t-85 179l207 70q-2 -88 89.5 -144t231.5 -56q85 0 172 28q171 61 190 183q10 60 -27 98q-69 76 -273 112q-136 23 -251 66q-252 97 -212 345q20 128 112 223q89 90 217.5 139.5t268.5 49.5q198 0 338.5 -90.5t158.5 -242.5
l-209 -69q3 89 -88.5 144.5t-231.5 55.5q-84 1 -169 -27q-172 -61 -191 -183q-11 -71 21 -106q31 -38 96 -59t182 -43q120 -19 245 -69q119 -54 178.5 -139.5t40.5 -204.5q-20 -128 -112 -220q-88 -91 -217 -141t-271 -50zM663 1968h217l90 -167l139 167h218l-291 -342h-188
z" />
    <glyph glyph-name="scaron" unicode="&#x161;" horiz-adv-x="945" 
d="M521 175q42 0 87.5 10.5t88.5 40.5t49 73q6 40 -24 66.5t-59 34t-89 18.5q-14 3 -21 4q-87 14 -182 49q-190 74 -160 266q16 99 85 171q68 68 164 106t200 38q153 0 261 -75.5t111 -198.5l-181 -62q-9 66 -65 105.5t-157 39.5q-42 0 -87.5 -10.5t-88.5 -40.5t-49 -73
q-4 -25 5.5 -44t23.5 -30.5t42.5 -20.5t47.5 -13t52 -10q16 -3 23 -4q84 -13 177 -51q89 -41 134.5 -107.5t31.5 -158.5q-16 -99 -86 -169q-66 -69 -163 -107t-202 -38h-1q-153 0 -261 75.5t-111 198.5l181 62q9 -66 65 -105.5t157 -39.5h1zM413 1569h217l90 -167l139 167
h218l-292 -342h-188z" />
    <glyph glyph-name="uni0162" unicode="&#x162;" horiz-adv-x="1349" 
d="M655 -348q-89 -23 -155 27t-60 138l163 38q-7 -34 1 -47.5t34 -7.5q35 10 32 39q-6 30 -43 22l-168 -22l130 173l188 1188h-476l32 200h1160l-32 -200h-477l-181 -1143l1 -1l-1 -2l-9 -54h-33l-6 -9q65 -39 72 -112q9 -74 -41.5 -140.5t-130.5 -86.5z" />
    <glyph glyph-name="uni0163" unicode="&#x163;" horiz-adv-x="771" 
d="M506 -350q-89 -23 -155 27t-60 138l163 38q-8 -34 0.5 -47.5t34.5 -7.5q35 10 31 39q-4 30 -42 22l-169 -22l137 182q-75 33 -112.5 103.5t-24.5 157.5l86 539h-179l31 200h179l47 299h207l-48 -299h239l-31 -200h-239l-86 -539q-6 -41 23 -62.5t70.5 -21t82.5 13
t58 31.5l-32 -206q-52 -25 -103 -34l-9 -12q64 -38 73 -112t-41.5 -140.5t-130.5 -86.5z" />
    <glyph glyph-name="Tcaron" unicode="&#x164;" horiz-adv-x="1400" 
d="M643 0l190 1200h-476l32 200h1160l-32 -200h-477l-190 -1200h-207zM720 2028h217l91 -167l138 167h218l-291 -342h-188z" />
    <glyph glyph-name="tcaron" unicode="&#x165;" horiz-adv-x="658" 
d="M558 -4q-123 0 -196.5 82.5t-54.5 201.5l86 539h-179l31 200h179l47 299h29l-183 340h217l90 -167l139 167h218l-292 -342h-12l-47 -297h239l-31 -200h-239l-86 -539q-6 -41 23 -62.5t70.5 -21t82.5 13t58 31.5l-32 -206q-78 -39 -157 -39z" />
    <glyph glyph-name="Utilde" unicode="&#x168;" horiz-adv-x="1408" 
d="M717 -24q-179 0 -293 83q-115 81 -163 221t-21 309l129 811h208l-129 -811q-30 -189 49.5 -301t251.5 -112q119 0 210 56t148 148.5t75 208.5l129 811h207l-129 -811q-27 -172 -118.5 -311t-236.5 -220.5t-317 -81.5zM656 1660q-24 81 8 154q28 60 84 97.5t125 37.5
q23 0 46.5 -6t54 -22t41 -22.5t46.5 -29.5q81 -58 112 -58q15 0 22 15.5t-1.5 34t-34.5 24.5l193 55q29 -78 -7 -157q-29 -60 -85.5 -97.5t-125.5 -37.5q-28 0 -62.5 14.5t-54.5 27t-56 38.5q-35 24 -50.5 33.5t-35 18t-31.5 5.5q-49 -9 -17 -82z" />
    <glyph glyph-name="utilde" unicode="&#x169;" horiz-adv-x="1109" 
d="M537 -24q-124 0 -211 56q-93 57 -136.5 154t-25.5 213l98 620h207l-94 -594q-10 -70 16 -124q27 -59 80 -91.5t125 -32.5q114 0 197.5 69.5t100.5 178.5l94 594h208l-160 -1019h-208l12 81q-135 -105 -303 -105zM410 1251q-24 81 9 154q27 60 83 97.5t125 37.5
q23 0 46.5 -6t54 -22t41 -22.5t46.5 -29.5q81 -58 112 -58q15 0 22.5 15.5t-1.5 34t-35 24.5l193 55q29 -78 -6 -157q-29 -60 -86 -97.5t-126 -37.5q-28 0 -62.5 14.5t-54.5 27t-56 38.5q-32 22 -49 33t-36.5 19t-31.5 5q-48 -9 -17 -82z" />
    <glyph glyph-name="Umacron" unicode="&#x16a;" horiz-adv-x="1408" 
d="M717 -24q-179 0 -293 83q-115 81 -163 221t-21 309l129 811h208l-129 -811q-30 -189 49.5 -301t251.5 -112q119 0 210 56t148 148.5t75 208.5l129 811h207l-129 -811q-27 -172 -118.5 -311t-236.5 -220.5t-317 -81.5zM608 1625l28 175h739l-28 -175h-739z" />
    <glyph glyph-name="umacron" unicode="&#x16b;" horiz-adv-x="1109" 
d="M537 -24q-124 0 -211 56q-93 57 -136.5 154t-25.5 213l98 620h207l-94 -594q-10 -70 16 -124q27 -59 80 -91.5t125 -32.5q114 0 197.5 69.5t100.5 178.5l94 594h208l-160 -1019h-208l12 81q-135 -105 -303 -105zM420 1254l27 175h739l-27 -175h-739z" />
    <glyph glyph-name="Uring" unicode="&#x16e;" horiz-adv-x="1408" 
d="M717 -24q-179 0 -293 83q-115 81 -163 221t-21 309l129 811h208l-129 -811q-30 -189 49.5 -301t251.5 -112q119 0 210 56t148 148.5t75 208.5l129 811h207l-129 -811q-27 -172 -118.5 -311t-236.5 -220.5t-317 -81.5zM813 1800q12 76 76.5 129.5t143.5 53.5t127.5 -53.5
t36.5 -129.5q-12 -78 -78 -132.5t-145 -54.5q-78 0 -125.5 55t-35.5 132zM960 1800q-8 -45 37 -45q46 0 54 45q3 19 -7 29t-34 10q-44 0 -50 -39z" />
    <glyph glyph-name="uring" unicode="&#x16f;" horiz-adv-x="1109" 
d="M537 -24q-124 0 -211 56q-93 57 -136.5 154t-25.5 213l98 620h207l-94 -594q-10 -70 16 -124q27 -59 80 -91.5t125 -32.5q114 0 197.5 69.5t100.5 178.5l94 594h208l-160 -1019h-208l12 81q-135 -105 -303 -105zM573 1393q12 76 76.5 129.5t143.5 53.5t127.5 -53.5
t36.5 -129.5q-13 -78 -78.5 -132.5t-144.5 -54.5q-78 0 -126 55.5t-35 131.5zM720 1393q-8 -45 37 -45q46 0 54 45q3 19 -7 29t-34 10q-44 0 -50 -39z" />
    <glyph glyph-name="Uhungarumlaut" unicode="&#x170;" horiz-adv-x="1408" 
d="M717 -24q-179 0 -293 83q-115 81 -163 221t-21 309l129 811h208l-129 -811q-30 -189 49.5 -301t251.5 -112q119 0 210 56t148 148.5t75 208.5l129 811h207l-129 -811q-27 -172 -118.5 -311t-236.5 -220.5t-317 -81.5zM726 1627l154 342h216l-209 -342h-161zM1000 1627
l154 342h216l-209 -342h-161z" />
    <glyph glyph-name="uhungarumlaut" unicode="&#x171;" horiz-adv-x="1109" 
d="M537 -24q-124 0 -211 56q-93 57 -136.5 154t-25.5 213l98 620h207l-94 -594q-10 -70 16 -124q27 -59 80 -91.5t125 -32.5q114 0 197.5 69.5t100.5 178.5l94 594h208l-160 -1019h-208l12 81q-135 -105 -303 -105zM471 1238l154 342h216l-209 -342h-161zM745 1238l154 342
h216l-209 -342h-161z" />
    <glyph glyph-name="Uogonek" unicode="&#x172;" horiz-adv-x="1408" 
d="M648 -406q-92 1 -142 62.5t-37 145.5q13 87 86 147l45 37q-102 20 -176 73q-115 81 -163 221t-21 309l129 811h208l-129 -811q-30 -189 49.5 -301t251.5 -112q119 0 210 56t148 148.5t75 208.5l129 811h207l-129 -811q-36 -227 -182 -392t-358 -208l-47 -40
q-33 -27 -42 -34q-62 -51 -77 -66q-21 -19 -27.5 -28.5t-8.5 -22.5q-6 -33 33 -37q39 1 63 27t15 71h173q-4 -111 -87.5 -188t-195.5 -77z" />
    <glyph glyph-name="uogonek" unicode="&#x173;" horiz-adv-x="1131" 
d="M537 -24q-124 0 -211 56q-93 57 -136.5 154t-25.5 213l98 620h207l-94 -594q-10 -70 16 -124q27 -59 80 -91.5t125 -32.5q114 0 197.5 69.5t100.5 178.5l94 594h208l-150 -955l26 -29q-6 -5 -17.5 -15.5t-17.5 -15.5l-1 -4h-4l-37 -31q-33 -27 -42 -34q-62 -51 -77 -66
q-21 -19 -27.5 -28.5t-8.5 -22.5q-2 -18 5 -26.5t28 -10.5q39 1 63 27t15 71h173q-4 -111 -87.5 -188t-195.5 -77q-92 1 -142 62.5t-37 145.5q13 86 86 147l86 72l6 40q-135 -105 -303 -105z" />
    <glyph glyph-name="Wcircumflex" unicode="&#x174;" horiz-adv-x="1793" 
d="M458 0l-153 1400h214l108 -1005l427 1005h176l109 -1007l427 1007h213l-594 -1400h-219l-99 926l-394 -926h-215zM846 1627l292 342h186l187 -342h-217l-91 168l-141 -168h-216z" />
    <glyph glyph-name="wcircumflex" unicode="&#x175;" horiz-adv-x="1729" 
d="M447 0l-195 1019h207l136 -699l355 699h196l133 -699l356 699h209l-519 -1019h-192l-137 707l-357 -707h-192zM744 1228l293 342h186l186 -342h-217l-90 168l-142 -168h-216z" />
    <glyph glyph-name="Ycircumflex" unicode="&#x176;" horiz-adv-x="1308" 
d="M567 0l99 627l-372 773h243l267 -554l445 554h244l-621 -773l-99 -627h-206zM608 1627l292 342h186l187 -342h-217l-91 168l-141 -168h-216z" />
    <glyph glyph-name="ycircumflex" unicode="&#x177;" horiz-adv-x="1123" 
d="M193 -476l274 510l-214 985h225l140 -704l383 704h218l-806 -1495h-220zM438 1227l293 342h186l186 -342h-217l-90 168l-142 -168h-216z" />
    <glyph glyph-name="Ydieresis" unicode="&#x178;" horiz-adv-x="1308" 
d="M567 0l99 627l-372 773h243l267 -554l445 554h244l-621 -773l-99 -627h-206zM658 1709q7 46 46.5 78.5t86.5 32.5t75 -33t21 -78q-7 -47 -45.5 -78t-85.5 -31t-76 31.5t-22 77.5zM972 1709q7 45 45.5 78t86.5 33q46 0 75 -32.5t22 -78.5t-46 -77.5t-86 -31.5
q-48 0 -76 31t-21 78z" />
    <glyph glyph-name="Zacute" unicode="&#x179;" horiz-adv-x="1374" 
d="M107 0l29 180l1061 1020h-900l32 200h1193l-29 -180l-1060 -1020h899l-32 -200h-1193zM799 1627l154 342h216l-209 -342h-161z" />
    <glyph glyph-name="zacute" unicode="&#x17a;" horiz-adv-x="1090" 
d="M99 0l29 181l709 638h-608l31 200h916l-28 -180l-708 -639h607l-32 -200h-916zM574 1216l154 342h216l-209 -342h-161z" />
    <glyph glyph-name="Zdotaccent" unicode="&#x17b;" horiz-adv-x="1374" 
d="M107 0l29 180l1061 1020h-900l32 200h1193l-29 -180l-1060 -1020h899l-32 -200h-1193zM833 1669q7 46 46 77t86 31q46 0 74.5 -31t21.5 -77t-44.5 -77.5t-85.5 -31.5q-47 0 -76 31.5t-22 77.5z" />
    <glyph glyph-name="zdotaccent" unicode="&#x17c;" horiz-adv-x="1090" 
d="M99 0l29 181l709 638h-608l31 200h916l-28 -180l-708 -639h607l-32 -200h-916zM628 1355q7 46 46 77t86 31q46 0 74.5 -31t21.5 -77t-45 -77.5t-86 -31.5q-47 0 -75.5 31t-21.5 78z" />
    <glyph glyph-name="Zcaron" unicode="&#x17d;" horiz-adv-x="1374" 
d="M107 0l29 180l1061 1020h-900l32 200h1193l-29 -180l-1060 -1020h899l-32 -200h-1193zM698 1952h217l91 -167l138 167h218l-291 -342h-188z" />
    <glyph glyph-name="zcaron" unicode="&#x17e;" horiz-adv-x="1090" 
d="M99 0l29 181l709 638h-608l31 200h916l-28 -180l-708 -639h607l-32 -200h-916zM496 1588h217l90 -167l139 167h218l-292 -342h-188z" />
    <glyph glyph-name="uni018F" unicode="&#x18f;" horiz-adv-x="1629" 
d="M1035 1394q202 0 342.5 -87.5t198 -243.5t25.5 -357t-139 -357.5t-275 -244t-370 -87.5q-201 0 -341 87.5t-198.5 244t-26.5 357.5l12 79h1152q7 190 -102 302.5t-309 112.5q-151 0 -271.5 -67.5t-199.5 -190.5l-186 43q103 191 283 300t405 109zM436 617
q-4 -185 106 -295t306 -110q197 0 341.5 110t200.5 295h-954z" />
    <glyph glyph-name="uni0218" unicode="&#x218;" horiz-adv-x="1316" 
d="M669 -24q-117 0 -221 35q-116 40 -190 116t-85 179l207 70q-2 -88 89.5 -144t231.5 -56q85 0 172 28q171 61 190 183q10 60 -27 98q-69 76 -273 112q-136 23 -251 66q-252 97 -212 345q20 128 112 223q89 90 217.5 139.5t268.5 49.5q198 0 338.5 -90.5t158.5 -242.5
l-209 -69q3 89 -88.5 144.5t-231.5 55.5q-84 1 -169 -27q-172 -61 -191 -183q-11 -71 21 -106q31 -38 96 -59t182 -43q120 -19 245 -69q119 -54 178.5 -139.5t40.5 -204.5q-20 -128 -112 -220q-88 -91 -217 -141t-271 -50zM447 -440l154 341h217l-209 -341h-162z" />
    <glyph glyph-name="uni0219" unicode="&#x219;" horiz-adv-x="949" 
d="M523 175q42 0 87.5 10.5t88.5 40.5t49 73q6 40 -24 66.5t-59 34t-89 18.5q-14 3 -21 4q-87 14 -182 49q-190 74 -160 266q16 99 85 171q68 68 164 106t200 38q153 0 261 -75.5t111 -198.5l-181 -62q-9 66 -65 105.5t-157 39.5q-42 0 -87.5 -10.5t-88.5 -40.5t-49 -73
q-4 -25 5.5 -44t23.5 -30.5t42.5 -20.5t47.5 -13t52 -10q16 -3 23 -4q84 -13 177 -51q89 -41 134.5 -107.5t31.5 -158.5q-16 -99 -86 -169q-66 -69 -163 -107t-202 -38h-1q-153 0 -261 75.5t-111 198.5l181 62q9 -66 65 -105.5t157 -39.5h1zM261 -440l154 341h217l-209 -341
h-162z" />
    <glyph glyph-name="uni021A" unicode="&#x21a;" horiz-adv-x="1349" 
d="M587 0l190 1200h-476l32 200h1160l-32 -200h-477l-190 -1200h-207zM447 -440l154 341h217l-209 -341h-162z" />
    <glyph glyph-name="uni021B" unicode="&#x21b;" horiz-adv-x="766" 
d="M560 -4q-123 0 -196.5 82.5t-54.5 201.5l86 539h-179l31 200h179l47 299h207l-48 -299h239l-31 -200h-239l-86 -539q-6 -41 23 -62.5t70.5 -21t82.5 13t58 31.5l-32 -206q-78 -39 -157 -39zM284 -440l154 341h217l-209 -341h-162z" />
    <glyph glyph-name="uni0237" unicode="&#x237;" horiz-adv-x="512" 
d="M-123 -274q113 -10 194.5 47.5t97.5 157.5l172 1088h206l-172 -1088q-16 -109 -87 -205q-79 -100 -195.5 -154.5t-247.5 -46.5z" />
    <glyph glyph-name="uni0259" unicode="&#x259;" horiz-adv-x="1196" 
d="M748 1029q235 0 355.5 -149.5t83.5 -384.5t-205 -384.5t-403 -149.5q-234 0 -355 150t-84 384l14 84h844q-5 119 -78 186.5t-203 67.5q-110 0 -195 -51t-138 -143l-185 44q75 158 221 252t328 94zM330 404q7 -115 80 -180.5t200 -65.5t221.5 65.5t138.5 180.5h-640z" />
    <glyph glyph-name="circumflex" unicode="&#x2c6;" horiz-adv-x="666" 
d="M354 2227l292 342h186l187 -342h-217l-91 168l-141 -168h-216z" />
    <glyph glyph-name="caron" unicode="&#x2c7;" horiz-adv-x="629" 
d="M479 1627l-185 342h217l90 -167l139 167h218l-291 -342h-188z" />
    <glyph glyph-name="breve" unicode="&#x2d8;" horiz-adv-x="1219" 
d="M864 1607q-102 0 -175 47q-83 52 -118 142t-9 194h167q-30 -95 17.5 -158t142.5 -63q96 0 162.5 63t67.5 158h167q-6 -111 -81 -211q-64 -80 -154 -126t-187 -46z" />
    <glyph glyph-name="dotaccent" unicode="&#x2d9;" horiz-adv-x="1025" 
d="M877 2290q-47 0 -76 31.5t-22 77.5t46 77t86 31q46 0 74.5 -31t21.5 -77q-8 -47 -45 -78t-85 -31z" />
    <glyph glyph-name="ring" unicode="&#x2da;" horiz-adv-x="1186" 
d="M942 2213q-78 0 -126 55.5t-36 131.5t76.5 129.5t143.5 53.5t127.5 -53.5t36.5 -129.5q-12 -78 -77.5 -132.5t-144.5 -54.5zM927 2400q-7 -45 37 -45q48 0 54 45q3 19 -7 29t-34 10q-44 0 -50 -39z" />
    <glyph glyph-name="ogonek" unicode="&#x2db;" horiz-adv-x="1059" 
d="M453 -386q-92 1 -142 62.5t-37 145.5q13 86 86 147l219 183l105 -117q-15 -13 -43 -37t-34 -29l-42 -34q-62 -51 -77 -66q-21 -19 -27.5 -28.5t-8.5 -22.5q-2 -18 5 -26.5t28 -10.5q39 1 63 27t15 71h173q-4 -111 -87.5 -188t-195.5 -77z" />
    <glyph glyph-name="tilde" unicode="&#x2dc;" horiz-adv-x="1256" 
d="M1140 2260q-28 0 -62.5 14.5t-54.5 27t-56 38.5q-35 24 -50.5 33.5t-35 18t-31.5 5.5q-49 -9 -17 -82l-171 -43q-24 81 8 154q28 60 84 97.5t125 37.5q23 0 46.5 -6t54 -22t41 -22.5t46.5 -29.5q81 -58 112 -58q19 0 24 23q7 30 -23 45q-7 4 -16 6l194 55q29 -78 -7 -157
q-29 -60 -85.5 -97.5t-125.5 -37.5z" />
    <glyph glyph-name="hungarumlaut" unicode="&#x2dd;" horiz-adv-x="959" 
d="M808 2227l154 342h216l-209 -342h-161zM534 2227l154 342h216l-209 -342h-161z" />
    <glyph glyph-name="gravecomb" unicode="&#x300;" horiz-adv-x="0" 
d="M633 1627l-103 342h216l46 -342h-159z" />
    <glyph glyph-name="acutecomb" unicode="&#x301;" horiz-adv-x="0" 
d="M532 1627l154 342h216l-209 -342h-161z" />
    <glyph glyph-name="uni0302" unicode="&#x302;" horiz-adv-x="0" 
d="M250 1627l292 342h186l187 -342h-217l-91 168l-141 -168h-216z" />
    <glyph glyph-name="tildecomb" unicode="&#x303;" horiz-adv-x="0" 
d="M1052 1648q-28 0 -62.5 14.5t-54.5 27t-56 38.5q-35 24 -50.5 33.5t-35 18t-31.5 5.5q-49 -9 -17 -82l-171 -43q-24 81 8 154q28 60 84 97.5t125 37.5q23 0 46.5 -6t54 -22t41 -22.5t46.5 -29.5q81 -58 112 -58q15 0 22 15.5t-1.5 34t-34.5 24.5l193 55q29 -78 -7 -157
q-29 -60 -85.5 -97.5t-125.5 -37.5z" />
    <glyph glyph-name="uni0304" unicode="&#x304;" horiz-adv-x="0" 
d="M636 2285l28 175h739l-28 -175h-739z" />
    <glyph glyph-name="uni0306" unicode="&#x306;" horiz-adv-x="0" 
d="M964 2207q-102 0 -175 47q-83 52 -118 142t-9 194h167q-30 -95 17.5 -158t142.5 -63q96 0 162.5 63t67.5 158h167q-6 -111 -81 -211q-64 -80 -154 -126t-187 -46z" />
    <glyph glyph-name="uni0307" unicode="&#x307;" horiz-adv-x="0" 
d="M785 1690q-47 0 -76 31.5t-22 77.5t46 77t86 31q46 0 74.5 -31t21.5 -77q-8 -47 -45 -78t-85 -31z" />
    <glyph glyph-name="uni0308" unicode="&#x308;" horiz-adv-x="0" 
d="M1084 1600q-48 0 -76 31t-21 78q7 45 45.5 78t86.5 33q46 0 75 -32.5t22 -78.5t-46 -77.5t-86 -31.5zM673 1709q7 46 46.5 78.5t86.5 32.5t75 -33t21 -78q-7 -47 -45.5 -78t-85.5 -31t-76 31.5t-22 77.5z" />
    <glyph glyph-name="uni030A" unicode="&#x30a;" horiz-adv-x="0" 
d="M848 1613q-78 0 -125.5 55t-35.5 132q12 76 76.5 129.5t143.5 53.5t127.5 -53.5t36.5 -129.5q-12 -78 -78 -132.5t-145 -54.5zM834 1800q-8 -45 37 -45q46 0 54 45q3 19 -7 29t-34 10q-44 0 -50 -39z" />
    <glyph glyph-name="uni030B" unicode="&#x30b;" horiz-adv-x="0" 
d="M714 1627l154 342h216l-209 -342h-161zM440 1627l154 342h216l-209 -342h-161z" />
    <glyph glyph-name="uni030C" unicode="&#x30c;" horiz-adv-x="0" 
d="M575 2227l-185 342h217l90 -167l139 167h218l-291 -342h-188z" />
    <glyph glyph-name="dotbelowcomb" unicode="&#x323;" horiz-adv-x="0" 
d="M519 121q-47 0 -76 31.5t-22 77.5t46.5 77t86.5 31q46 0 74 -31t21 -77t-44.5 -77.5t-85.5 -31.5z" />
    <glyph glyph-name="uni0326" unicode="&#x326;" horiz-adv-x="0" 
d="M428 -440l154 341h217l-209 -341h-162z" />
    <glyph glyph-name="uni0327" unicode="&#x327;" horiz-adv-x="0" 
d="M587 -348q-89 -23 -155 27t-60 138l163 38q-7 -34 1 -47.5t34 -7.5q35 10 32 39q-6 30 -43 22l-168 -22l220 292l125 -75l-49 -65q65 -39 72 -112q9 -74 -41.5 -140.5t-130.5 -86.5z" />
    <glyph glyph-name="uni0328" unicode="&#x328;" horiz-adv-x="0" 
d="M460 -386q-92 1 -142 62.5t-37 145.5q13 86 86 147l219 183l105 -117q-15 -13 -43 -37t-34 -29l-42 -34q-62 -51 -77 -66q-21 -19 -27.5 -28.5t-8.5 -22.5q-2 -18 5 -26.5t28 -10.5q39 1 63 27t15 71h173q-4 -111 -87.5 -188t-195.5 -77z" />
    <glyph glyph-name="uni03BC" unicode="&#x3bc;" horiz-adv-x="1138" 
d="M24 -411l226 1430h207l-85 -540q-14 -90 12 -155q59 -152 216 -152q75 0 144 41q70 42 115.5 111t58.5 155l85 540h206l-161 -1019h-206l15 98q-139 -123 -306 -123q-149 0 -243 102l-77 -488h-207z" />
    <glyph glyph-name="uni1E20" unicode="&#x1e20;" horiz-adv-x="1510" 
d="M824 -29q-211 0 -359.5 94t-210 259.5t-28.5 375.5t147.5 375.5t292.5 259.5t389 94q202 0 347.5 -86.5t213.5 -240.5l-196 -91q-110 219 -398 219q-237 0 -400.5 -146t-201.5 -385t79.5 -385t354.5 -146q244 0 416 163l48 299h-536l32 201h742l-89 -558
q-113 -142 -280.5 -222t-362.5 -80zM661 1616l28 175h739l-28 -175h-739z" />
    <glyph glyph-name="uni1E21" unicode="&#x1e21;" horiz-adv-x="1266" 
d="M537 -500q-107 0 -206 48q-97 50 -161.5 133.5t-79.5 182.5l191 74q13 -104 94.5 -170t193.5 -66q138 0 245 80.5t125 191.5l17 108q-154 -106 -347 -106q-235 0 -355.5 149.5t-83.5 384.5t205 384.5t403 149.5q191 0 314 -106l12 81h206l-165 -1045
q-20 -128 -113.5 -238t-226 -173t-268.5 -63zM365 510q-24 -154 49.5 -246t225.5 -92t255.5 92.5t127.5 245.5t-50 245t-226 92t-255 -92t-127 -245zM451 1238l28 175h739l-28 -175h-739z" />
    <glyph glyph-name="Wgrave" unicode="&#x1e80;" horiz-adv-x="1793" 
d="M458 0l-153 1400h214l108 -1005l427 1005h176l109 -1007l427 1007h213l-594 -1400h-219l-99 926l-394 -926h-215zM1020 1969h216l46 -342h-159z" />
    <glyph glyph-name="wgrave" unicode="&#x1e81;" horiz-adv-x="1729" 
d="M447 0l-195 1019h207l136 -699l355 699h196l133 -699l356 699h209l-519 -1019h-192l-137 707l-357 -707h-192zM978 1568h216l46 -342h-159z" />
    <glyph glyph-name="Wacute" unicode="&#x1e82;" horiz-adv-x="1793" 
d="M458 0l-153 1400h214l108 -1005l427 1005h176l109 -1007l427 1007h213l-594 -1400h-219l-99 926l-394 -926h-215zM1008 1627l154 342h216l-209 -342h-161z" />
    <glyph glyph-name="wacute" unicode="&#x1e83;" horiz-adv-x="1729" 
d="M447 0l-195 1019h207l136 -699l355 699h196l133 -699l356 699h209l-519 -1019h-192l-137 707l-357 -707h-192zM914 1216l154 342h216l-209 -342h-161z" />
    <glyph glyph-name="Wdieresis" unicode="&#x1e84;" horiz-adv-x="1793" 
d="M458 0l-153 1400h214l108 -1005l427 1005h176l109 -1007l427 1007h213l-594 -1400h-219l-99 926l-394 -926h-215zM905 1709q7 46 46.5 78.5t86.5 32.5t75 -33t21 -78q-7 -47 -45.5 -78t-85.5 -31t-76 31.5t-22 77.5zM1219 1709q7 45 45.5 78t86.5 33q46 0 75 -32.5
t22 -78.5t-46 -77.5t-86 -31.5q-48 0 -76 31t-21 78z" />
    <glyph glyph-name="wdieresis" unicode="&#x1e85;" horiz-adv-x="1729" 
d="M447 0l-195 1019h207l136 -699l355 699h196l133 -699l356 699h209l-519 -1019h-192l-137 707l-357 -707h-192zM804 1322q7 46 47 78.5t87 32.5t75 -33t20 -78q-7 -47 -45 -78t-85 -31t-76.5 31.5t-22.5 77.5zM1118 1322q8 45 46.5 78t86.5 33q46 0 74.5 -33t21.5 -78
q-7 -46 -45.5 -77.5t-85.5 -31.5q-48 0 -76.5 31t-21.5 78z" />
    <glyph glyph-name="uni1E9E" unicode="&#x1e9e;" horiz-adv-x="1281" 
d="M427 198q155 -53 283.5 -38.5t215.5 85.5t103 174q13 64 1 110.5t-33.5 77t-58 48t-73 24.5t-79.5 7h-281l31 196h275q102 0 163 45.5t78 152.5q15 93 -18.5 136.5t-124.5 43.5h-392l-234 -1473h-202l265 1669h594q74 0 136 -22.5t108.5 -67t66 -118.5t4.5 -168
q-29 -182 -151 -283q168 -120 127 -378q-17 -108 -68.5 -192.5t-120.5 -134t-150.5 -81.5t-161.5 -41.5t-150 -8t-118.5 13t-65.5 26.5z" />
    <glyph glyph-name="uni1EBC" unicode="&#x1ebc;" horiz-adv-x="1190" 
d="M144 0l222 1400h948l-32 -200h-740l-58 -368h618l-32 -201h-618l-68 -431h740l-32 -200h-948zM533 1599q-23 79 9 154q27 60 83 97.5t125 37.5q23 0 46.5 -6t54 -22t41 -22.5t46.5 -29.5q81 -58 112 -58q15 0 22.5 15.5t-1.5 34t-35 24.5l194 55q27 -78 -7 -157
q-29 -60 -86 -97.5t-126 -37.5q-28 0 -62.5 14.5t-54.5 27t-56 38.5q-32 22 -49 33t-36.5 19t-31.5 5q-48 -9 -17 -82z" />
    <glyph glyph-name="uni1EBD" unicode="&#x1ebd;" horiz-adv-x="1190" 
d="M606 -24q-235 0 -355.5 149.5t-83.5 384.5t205 384.5t403 149.5q234 0 355 -150t84 -384l-14 -84h-844q5 -119 78 -186.5t203 -67.5q110 0 195 51t138 143l185 -44q-75 -158 -221 -252t-328 -94zM384 601h640q-7 115 -80 180.5t-200 65.5t-221.5 -65.5t-138.5 -180.5z
M466 1212q-24 81 8 154q28 60 84 97.5t125 37.5q23 0 46.5 -6t54 -22t41 -22.5t46.5 -29.5q81 -58 112 -58q15 0 22.5 15.5t-1.5 34t-35 24.5l193 55q29 -78 -7 -157q-29 -60 -85.5 -97.5t-125.5 -37.5q-28 0 -62.5 14.5t-54.5 27t-56 38.5q-35 24 -50.5 33.5t-35 18
t-31.5 5.5q-49 -9 -17 -82z" />
    <glyph glyph-name="Ygrave" unicode="&#x1ef2;" horiz-adv-x="1308" 
d="M567 0l99 627l-372 773h243l267 -554l445 554h244l-621 -773l-99 -627h-206zM785 1969h216l46 -342h-159z" />
    <glyph glyph-name="ygrave" unicode="&#x1ef3;" horiz-adv-x="1123" 
d="M193 -476l274 510l-214 985h225l140 -704l383 704h218l-806 -1495h-220zM628 1548h216l46 -342h-159z" />
    <glyph glyph-name="uni1EF8" unicode="&#x1ef8;" horiz-adv-x="1314" 
d="M570 0l99 627l-372 773h243l267 -554l445 554h244l-621 -773l-99 -627h-206zM583 1641q-24 81 8 154q28 60 84 97.5t125 37.5q23 0 46.5 -6t54 -22t41 -22.5t46.5 -29.5q81 -58 112 -58q15 0 22 15.5t-1.5 34t-34.5 24.5l193 55q29 -78 -7 -157q-29 -60 -85.5 -97.5
t-125.5 -37.5q-28 0 -62.5 14.5t-54.5 27t-56 38.5q-35 24 -50.5 33.5t-35 18t-31.5 5.5q-49 -9 -17 -82z" />
    <glyph glyph-name="uni1EF9" unicode="&#x1ef9;" horiz-adv-x="1130" 
d="M197 -476l274 510l-214 985h225l140 -704l383 704h218l-806 -1495h-220zM429 1224q-24 81 8 154q28 60 84 97.5t125 37.5q23 0 46.5 -6t54 -22t41 -22.5t46.5 -29.5q81 -58 112 -58q19 0 24 23q7 30 -23 45q-7 4 -16 6l194 55q29 -78 -7 -157q-29 -60 -85.5 -97.5
t-125.5 -37.5q-28 0 -62.5 14.5t-54.5 27t-56 38.5q-35 24 -50.5 33.5t-35 18t-31.5 5.5q-49 -9 -17 -82z" />
    <glyph glyph-name="endash" unicode="&#x2013;" horiz-adv-x="1324" 
d="M210 505l32 200h1063l-32 -200h-1063z" />
    <glyph glyph-name="emdash" unicode="&#x2014;" horiz-adv-x="2142" 
d="M222 505l32 200h1857l-32 -200h-1857z" />
    <glyph glyph-name="quoteleft" unicode="&#x2018;" horiz-adv-x="513" 
d="M370 836l-34 564h212l-21 -564h-157z" />
    <glyph glyph-name="quoteright" unicode="&#x2019;" horiz-adv-x="373" 
d="M168 836l160 564h212l-213 -564h-159z" />
    <glyph glyph-name="quotesinglbase" unicode="&#x201a;" horiz-adv-x="405" 
d="M33 -107l137 390h214l-193 -390h-158z" />
    <glyph glyph-name="quotedblleft" unicode="&#x201c;" horiz-adv-x="720" 
d="M254 836l213 564h158l-161 -564h-210zM541 840l212 564h158l-160 -564h-210z" />
    <glyph glyph-name="quotedblright" unicode="&#x201d;" horiz-adv-x="720" 
d="M177 836l160 564h212l-213 -564h-159zM463 836l160 564h212l-213 -564h-159z" />
    <glyph glyph-name="quotedblbase" unicode="&#x201e;" horiz-adv-x="679" 
d="M37 -107l137 390h214l-193 -390h-158zM311 -107l137 390h214l-193 -390h-158z" />
    <glyph glyph-name="dagger" unicode="&#x2020;" horiz-adv-x="864" 
d="M418 559l76 481h-244l32 201h244l40 254h206l-40 -254h243l-32 -201h-243l-76 -481h-206z" />
    <glyph glyph-name="daggerdbl" unicode="&#x2021;" horiz-adv-x="864" 
d="M413 533l34 212h-244l31 198h244l21 129h-244l32 202h244l35 221h206l-35 -221h243l-32 -202h-243l-21 -129h243l-31 -198h-243l-34 -212h-206z" />
    <glyph glyph-name="bullet" unicode="&#x2022;" horiz-adv-x="438" 
d="M292 470q-57 0 -91.5 39.5t-25.5 96.5q9 56 56 95.5t104 39.5q59 0 93.5 -39.5t25.5 -95.5q-9 -57 -56 -96.5t-106 -39.5z" />
    <glyph glyph-name="ellipsis" unicode="&#x2026;" horiz-adv-x="1087" 
d="M198 -24q-46 0 -73.5 32.5t-20.5 78.5q7 44 45 76.5t84 32.5q47 0 75.5 -32.5t21.5 -76.5q-7 -46 -46 -78.5t-86 -32.5zM437 87q7 44 45 76.5t84 32.5q47 0 75.5 -32.5t21.5 -76.5q-7 -46 -46 -78.5t-86 -32.5q-46 0 -73.5 32.5t-20.5 78.5zM771 87q7 44 45 76.5t84 32.5
q47 0 75.5 -32.5t21.5 -76.5q-7 -46 -46 -78.5t-86 -32.5q-46 0 -73.5 32.5t-20.5 78.5z" />
    <glyph glyph-name="guilsinglleft" unicode="&#x2039;" horiz-adv-x="768" 
d="M484 249l-273 357l386 356h244l-385 -356l272 -357h-244z" />
    <glyph glyph-name="guilsinglright" unicode="&#x203a;" horiz-adv-x="767" 
d="M117 249l385 357l-272 356h243l273 -356l-386 -357h-243z" />
    <glyph glyph-name="fraction" unicode="&#x2044;" horiz-adv-x="555" 
d="M-248 0l1068 1400h205l-1066 -1400h-207z" />
    <glyph glyph-name="Euro" unicode="&#x20ac;" horiz-adv-x="1251" 
d="M1159 -8q-148 -32 -279 -6.5t-232.5 91.5t-168 173t-85.5 239h-226l27 169h200l13 83h-200l27 169h226q82 178 230 306.5t331 180.5t361 12l-33 -207q-190 57 -374.5 -27t-291.5 -265h315l-27 -169h-356l-13 -83h356l-27 -169h-314q46 -182 206 -264.5t368 -23.5z" />
    <glyph glyph-name="trademark" unicode="&#x2122;" horiz-adv-x="1554" 
d="M462 662l100 632h-251l17 106h612l-17 -106h-252l-100 -632h-109zM845 661l117 739h99l166 -513l330 513h98l-117 -739h-114l66 426l-260 -406h-70l-132 406l-68 -426h-115z" />
    <glyph glyph-name="arrowleft" unicode="&#x2190;" horiz-adv-x="1465" 
d="M662 230l-459 518l624 518l123 -141l-333 -277h888l-31 -200h-888l245 -277z" />
    <glyph glyph-name="arrowup" unicode="&#x2191;" horiz-adv-x="1248" 
d="M543 137l135 854l-334 -280l-127 143l624 517l460 -517l-170 -143l-247 280l-135 -854h-206z" />
    <glyph glyph-name="arrowright" unicode="&#x2192;" horiz-adv-x="1466" 
d="M874 230l-124 140l332 278h-886l31 200h886l-244 277l170 141l459 -518z" />
    <glyph glyph-name="arrowdown" unicode="&#x2193;" horiz-adv-x="1247" 
d="M641 125l-457 518l170 141l244 -278l135 851h208l-135 -852l335 279l126 -141z" />
    <glyph glyph-name="arrowboth" unicode="&#x2194;" horiz-adv-x="1793" 
d="M667 230l-460 518l625 518l122 -141l-333 -277h816l-245 277l169 141l460 -518l-625 -518l-123 141l333 277h-816l245 -277z" />
    <glyph glyph-name="arrowupdn" unicode="&#x2195;" horiz-adv-x="1248" 
d="M619 -26l-459 520l171 142l245 -280l125 784l-335 -279l-125 141l623 518l461 -518l-172 -141l-246 278l-124 -783l335 280l126 -142z" />
    <glyph glyph-name="uni2196" unicode="&#x2196;" horiz-adv-x="1155" 
d="M968 271l-534 601l-62 -395h-207l116 734h763l-32 -200h-407l534 -601z" />
    <glyph glyph-name="uni2197" unicode="&#x2197;" horiz-adv-x="1154" 
d="M271 271l-125 140l723 600h-411l32 200h766l-116 -734h-207l62 394z" />
    <glyph glyph-name="uni2198" unicode="&#x2198;" horiz-adv-x="1154" 
d="M345 284l32 200h409l-533 600l169 141l534 -601l62 393h207l-116 -733h-764z" />
    <glyph glyph-name="uni2199" unicode="&#x2199;" horiz-adv-x="1154" 
d="M134 284l116 733h207l-62 -393l723 601l127 -141l-724 -600h408l-32 -200h-763z" />
    <glyph glyph-name="partialdiff" unicode="&#x2202;" horiz-adv-x="1269" 
d="M642 172q152 0 255.5 92.5t127.5 245.5t-50 245t-226 92t-255 -92t-127 -245q-24 -154 49.5 -246t225.5 -92zM172 510q37 235 205 384.5t403 149.5q130 -2 230 -54q-51 147 -157 230t-266 72l32 202q173 9 309.5 -68t225.5 -222q80 -133 108 -308t0 -368
q-26 -159 -113 -285q-87 -127 -220 -197t-288 -70h-30q-235 0 -355.5 149.5t-83.5 384.5z" />
    <glyph glyph-name="emptyset" unicode="&#x2205;" horiz-adv-x="1244" 
d="M372 -64l-149 90l66 85q-73 73 -104.5 177.5t-13.5 221.5q23 147 114 270.5t224.5 194.5t277.5 71q98 0 186 -37l60 78l148 -89l-65 -86q73 -75 104.5 -178.5t12.5 -223.5q-23 -146 -114 -269.5t-224.5 -194t-277.5 -70.5q-100 0 -187 38zM368 504q-21 -129 52 -219
l423 556q-98 32 -202 -4.5t-179 -126.5t-94 -206zM560 182q101 -31 204.5 4.5t177.5 124.5t93 204q20 130 -51 222z" />
    <glyph glyph-name="minus" unicode="&#x2212;" horiz-adv-x="1244" 
d="M170 505l32 200h1062l-32 -200h-1062z" />
    <glyph glyph-name="radical" unicode="&#x221a;" horiz-adv-x="1380" 
d="M365 0l-164 742h219l100 -444l596 1102h393l-32 -200h-250l-648 -1200h-214z" />
    <glyph glyph-name="infinity" unicode="&#x221e;" horiz-adv-x="1562" 
d="M477 289q-100 9 -168 57q-67 48 -97 123t-17 161q22 140 133 237.5t259 102.5q86 0 140 -24q85 -37 179 -163q40 39 99 88q128 99 261 99q111 -3 184 -50q71 -47 100.5 -122.5t15.5 -167.5q-16 -94 -69 -166q-56 -78 -138.5 -124t-180.5 -51q-89 0 -139 23
q-48 19 -90.5 58t-91.5 106q-65 -60 -105 -91q-126 -100 -275 -96zM391 630q-10 -62 23.5 -102.5t97.5 -48.5q50 0 83 18q49 22 161 133q-31 44 -60 82q-30 38 -59 53t-78 14q-68 -7 -113.5 -48t-54.5 -101zM1006 630q66 -91 97 -118q37 -32 99 -33q69 8 114 49t55 102
q10 65 -23.5 104t-106.5 46q-43 0 -75 -16q-48 -25 -160 -134z" />
    <glyph glyph-name="integral" unicode="&#x222b;" horiz-adv-x="955" 
d="M301 -24q-72 1 -121.5 38.5t-61.5 96t12 130.5l163 -13q-12 -40 -9.5 -55t23.5 -17q38 -4 45 30l270 1062q25 81 99.5 130.5t157.5 45.5q104 -2 155 -82.5t10 -183.5l-155 14q12 44 6 58.5t-34 12.5q-34 4 -42 -32l-267 -1058q-29 -88 -96 -132t-155 -45z" />
    <glyph glyph-name="approxequal" unicode="&#x2248;" horiz-adv-x="1312" 
d="M1026 701q-45 0 -99.5 18.5t-91.5 38.5t-101 58q-55 33 -83.5 48.5t-67.5 30.5t-68 15q-62 1 -94.5 -45.5t-11.5 -115.5l-209 -11q-17 102 38 192q46 78 126.5 126.5t171.5 48.5q45 0 99 -20t84 -37.5t90 -55.5q51 -33 79.5 -50t68.5 -32.5t72 -15.5q66 0 98 47.5
t7 110.5l213 13q19 -100 -33 -192q-45 -78 -121.5 -125t-166.5 -47zM113 190q-17 103 39 192q46 78 126 126.5t171 48.5q45 0 99 -20t84 -37.5t90 -55.5q51 -33 79.5 -50t68.5 -32.5t72 -15.5q66 0 98 47.5t7 110.5l213 13q20 -102 -33 -192q-45 -78 -121.5 -125t-166.5 -47
q-45 0 -99.5 18.5t-91.5 38.5t-101 58q-55 33 -83.5 48.5t-67.5 30.5t-68 15q-62 1 -94.5 -45.5t-11.5 -115.5z" />
    <glyph glyph-name="notequal" unicode="&#x2260;" horiz-adv-x="1244" 
d="M337 18l136 294h-334l32 201h394l86 184h-451l32 200h513l137 296h213l-136 -296h335l-32 -200h-397l-85 -184h453l-32 -201h-513l-138 -294h-213z" />
    <glyph glyph-name="lessequal" unicode="&#x2264;" horiz-adv-x="1244" 
d="M1202 314l-1016 290l42 268l1108 292l-33 -209l-828 -216l760 -217zM90 0l32 200h1062l-32 -200h-1062z" />
    <glyph glyph-name="greaterequal" unicode="&#x2265;" horiz-adv-x="1244" 
d="M141 322l33 209l825 212l-758 211l33 210l1017 -288l-43 -270zM90 0l32 200h1062l-32 -200h-1062z" />
    <glyph glyph-name="uniA78B" unicode="&#xa78b;" horiz-adv-x="289" 
d="M277 1441h190l-99 -532h-159z" />
    <glyph glyph-name="uniA78C" unicode="&#xa78c;" horiz-adv-x="289" 
d="M277 1441h190l-99 -532h-159z" />
    <glyph glyph-name="uni004A0301" horiz-adv-x="1356" 
d="M641 -24q-179 0 -293 83q-121 86 -167 235t-10 329h206q-42 -203 37 -325t259 -122q119 0 210 56q184 114 222 357l129 811h207l-129 -811q-27 -173 -118.5 -311.5t-236 -220t-316.5 -81.5zM1285 1627l154 342h216l-209 -342h-161z" />
    <glyph glyph-name="i.loclTRK" horiz-adv-x="463" 
d="M134 0l161 1019h208l-161 -1019h-208zM327 1348q7 46 46 77t86 31q46 0 74.5 -31t21.5 -77t-45 -77.5t-86 -31.5q-47 0 -75.5 31t-21.5 78z" />
    <glyph glyph-name="uni006A0301" horiz-adv-x="514" 
d="M-116 -274q113 -10 194.5 47.5t97.5 157.5l172 1088h206l-172 -1088q-16 -109 -87 -205q-79 -100 -195.5 -154.5t-247.5 -46.5zM369 1227l155 342h216l-210 -342h-161z" />
    <glyph glyph-name="_Designova" horiz-adv-x="1401" 
d="M699 38q-162 0 -300 81t-218.5 219.5t-80.5 300.5q1 122 48.5 233t128 191t191.5 127.5t233 47.5t233 -47.5t191.5 -127.5t128 -191t47.5 -233q0 -163 -80.5 -301.5t-219.5 -219t-302 -80.5zM172 639q0 -108 42 -206t112.5 -168.5t168.5 -112.5t206 -42q143 0 264.5 70.5
t192.5 192t71 265.5t-70.5 266t-191.5 192.5t-265 70.5t-266 -70.5t-193 -192t-71 -265.5zM360 744q8 0 12 -4q53 -20 107 -29q43 -4 76 3q24 4 49 13q4 0 10.5 3.5t7.5 3.5l-17 8.5t-17.5 9t-15 10t-14.5 13.5h20q37 0 80 18q77 48 147 68q30 9 61 9q6 0 23 1.5t25 0.5
q62 -4 94 -36q7 -5 31 -34v-2q-3 2 -6 2q-50 19 -89.5 4.5t-66.5 -55.5q-6 -11 -15.5 -33.5t-12.5 -29.5q-5 -12 -15 -36.5t-19 -44.5t-17 -37q-31 -65 -69 -111q-17 -23 -68 -61q-51 -36 -127 -59h-6l26 23q16 15 28 47q8 25 24.5 71t23.5 68q31 89 60 139v1q-1 -2 -4.5 -6
t-5.5 -6q-8 -8 -10 -15q-21 -24 -35 -60q-3 -5 -9 -5q-110 5 -190 73q-1 1 -61 58q-5 7 -15 17z" />
    <glyph glyph-name="_Origin" horiz-adv-x="1874" 
d="M100 40v1150h1674v-1149l-43 -1v1zM143 82h1588v625h-1588v-625zM289 224v128h30v-128h-30zM293 884h68q60 0 84 40q11 19 11 46q0 55 -44 75q-19 11 -49 11h-70v-172zM312 439v127h107v-23h-77v-28h70v-22h-70v-31h77v-23h-107zM333 916v108h27q37 0 49 -23q7 -19 7 -31
q0 -36 -26 -48q-10 -6 -31 -6h-26zM339 224v128h25l64 -77v77h29v-128h-24l-63 79v-79h-31zM440 439v127h25l64 -76v76h29v-127h-25l-63 78v-78h-30zM472 948q0 -44 33 -58q13 -7 39 -7q35 0 54 17q9 12 12 22l-38 1q-3 -9 -16 -13q-2 0 -5.5 -0.5t-6.5 -0.5q-22 0 -29 15
q-5 8 -5 15h100v11q0 32 -20 49q-19 16 -48 16q-43 0 -63 -32q-7 -17 -7 -35zM510 962q1 12 15 22q8 5 17 5q21 0 26 -16q4 -5 4 -11h-62zM524 224v128h63q52 0 52 -32q0 -20 -18 -29q2 0 2 -2q20 -7 20 -30q0 -35 -51 -35h-68zM554 247h35q24 0 24 16q0 15 -24 15h-35v-31z
M554 303h31q24 0 24 14q0 16 -24 16h-31v-30zM579 543v23h112v-23h-41v-104h-29v104h-42zM621 922q6 -39 67 -39q39 0 57 20q7 11 7 21q0 26 -41 35l-28 5q-18 3 -18 13q0 12 23 12t23 -14l38 2q-7 38 -62 38q-38 0 -54 -19q-8 -8 -8 -21q0 -28 41 -37l26 -5q19 -3 19 -12
q0 -14 -23 -14q-24 0 -27 16zM657 224v128h107v-24h-78v-27h70v-23h-70v-29h76v-25h-105zM704 566h32l29 -89l30 89h27l29 -90l31 90h28l-41 -127h-33l-28 87l-29 -87h-31zM767 1047q0 -7 7 -12.5t15 -5.5q9 0 15.5 5.5t6.5 12.5t-6.5 12.5t-15.5 5.5q-8 0 -15 -5.5
t-7 -12.5zM768 884h41v129h-41v-129zM784 224v128h59q19 0 29 -5q27 -12 27 -41q0 -14 -7 -24q-11 -13 -21 -18l27 -40h-32l-25 37h-26v-37h-31zM815 285h26q28 0 28 21q0 22 -28 22h-26v-43zM827 949q0 -42 30 -56q12 -6 30 -6q21 0 33 10q7 5 7 10h2v-23q0 -24 -30 -24
q-18 0 -25 7q-2 1 -5 8l-37 -6q3 -15 20 -25t46 -10q43 0 62 22q10 10 10 27v130h-40v-21h-3q-4 13 -21 19q-10 4 -19 4q-35 0 -52 -29q-8 -16 -8 -37zM869 949q0 24 12 33q10 5 18 5q19 0 28 -19q0 -2 1.5 -8.5t1.5 -10.5q0 -36 -31 -36q-18 0 -28 18q-2 10 -2 18zM913 224
v128h29v-103h76v-25h-105zM915 503q0 27 20 47q19 19 50 19q33 0 51 -19q20 -20 20 -47q0 -25 -20 -47q-18 -19 -50 -19t-51 19q-20 22 -20 47zM946 503q0 -18 11 -29.5t28 -11.5q18 0 29 11.5t11 29.5q0 19 -11 30.5t-29 11.5q-17 0 -28 -11.5t-11 -30.5zM993 884h41v75
q0 17 13 23q5 3 14 3q25 0 25 -25v-76h42v82q0 31 -24 42q-11 7 -27 7q-31 0 -43 -25h-1v23h-40v-129zM1039 224v128h30v-128h-30zM1073 439v127h57q22 0 30 -3q26 -14 26 -42q0 -15 -7 -25q-6 -10 -21 -17l28 -40h-32l-25 36h-28v-36h-28zM1090 224v128h25l63 -77v77h31
v-128h-25l-64 79v-79h-30zM1101 499h27q28 0 28 22t-28 22h-27v-44zM1145 948q0 -39 34 -58q12 -7 38 -7q42 0 64 31q8 14 8 34q0 39 -33 59q-19 8 -39 8q-44 0 -63 -32q-9 -18 -9 -35zM1187 949q0 24 13 33q6 5 17 5q19 0 27 -19q3 -7 3 -19q0 -24 -13 -34q-8 -5 -17 -5
q-19 0 -28 20q-2 10 -2 19zM1201 439v127h107v-23h-77v-28h69v-22h-69v-54h-30zM1227 242q0 17 19 17q7 0 12 -5t5 -12q0 -6 -5 -19l-11 -27h-18l9 30q-11 4 -11 16zM1290 1013l51 -129h45l52 129h-42l-31 -91h-1l-31 91h-43zM1319 439v127h107v-23h-77v-28h69v-22h-69v-31
h77v-23h-107zM1336 224v128h57q23 0 38 -8q33 -14 33 -55q0 -22 -9 -35q-16 -30 -62 -30h-57zM1366 249h26q13 0 23 5q19 11 19 35q0 16 -5 21q-9 18 -37 18h-26v-79zM1439 921q0 -26 23 -34q9 -4 25 -4q21 0 34 9q8 10 8 11h2v-19h37v88q0 19 -17 33q-22 10 -43 10
q-35 0 -53 -18q-9 -7 -12 -20l39 -4q4 16 25 16t21 -16v-1q0 -7 -15 -10q-2 -1 -9 -1.5t-10 -0.5q-25 -2 -39 -10q-16 -9 -16 -29zM1448 439v127h22l66 -76v76h29v-127h-25l-64 78v-78h-28zM1477 922q0 7 12 14q4 2 12 2q19 2 28 6v-13q0 -15 -15 -21q-12 -3 -16 -3
q-21 0 -21 15zM1482 224v128h105v-24h-76v-27h69v-23h-69v-29h76v-25h-105z" />
    <glyph glyph-name="_Typeface" horiz-adv-x="2096" 
d="M100 355v540h1896v-540h-1896zM274 522h38v159h3l122 -159h37v217h-39v-159h-2l-123 159h-36v-217zM502 602q0 -49 39 -72q17 -10 46 -10q52 0 74 39q12 21 12 43q0 53 -41 74q-15 10 -45 10q-51 0 -75 -38q-10 -21 -10 -46zM539 602q0 36 21 50q11 8 27 8q33 0 45 -29
q5 -13 5 -29q0 -34 -21 -48q-13 -8 -29 -8q-32 0 -44 29q-4 8 -4 27zM697 522h36v27h3q12 -17 26 -24q13 -5 27 -5q45 0 67 39q10 17 10 45q0 52 -39 72q-11 10 -38 10q-30 0 -44 -17q-8 -11 -9 -12h-3v82h-36v-217zM733 604q0 34 22 48q11 8 27 8q32 0 43 -27q5 -25 5 -29
q0 -36 -22 -50q-11 -8 -26 -8q-33 0 -44 27q-5 25 -5 31zM883 602q0 -51 41 -72q18 -10 45 -10q39 0 63 19q11 11 14 24l-33 5q-9 -17 -25 -19q-7 -5 -16 -5q-34 0 -46 24q-7 10 -7 27h130v9q0 42 -24 63q-23 19 -58 19q-51 0 -75 -38q-9 -19 -9 -46zM919 619q0 19 21 36
q8 5 27 5q34 0 41 -24q3 -3 5 -10l2 -7h-96zM1075 522h34v217h-34v-217zM1222 597q0 -48 46 -67q17 -10 50 -10q62 0 87 36q12 21 12 41v142h-39v-140q0 -32 -26 -43q-14 -7 -34 -7q-36 0 -53 24q-7 10 -7 26v140h-36v-142zM1453 522h36v97q0 26 22 36q10 5 21 5
q18 0 28.5 -10.5t10.5 -28.5v-99h36v104q0 41 -29 53q-14 7 -34 7q-41 0 -53 -29h-4v27h-34v-162zM1633 602q0 -49 39 -72q18 -10 46 -10q52 0 74 39q12 21 12 43q0 53 -41 74q-15 10 -45 10q-53 0 -75 -38q-10 -21 -10 -46zM1669 602q0 36 22 50q11 8 27 8q33 0 45 -29
q5 -13 5 -29q0 -35 -22 -48q-11 -8 -28 -8q-33 0 -44 29q-5 8 -5 27z" />
    <glyph glyph-name="_VendorID" horiz-adv-x="1106" 
d="M100 143v1104h906v-1104h-906zM103 59q0 12 7 19t17 7q8 0 11 -3l4 -5v24h12v-67h-12v9l-4 -7q-6 -4 -14 -4q-21 0 -21 27zM116 59q0 -16 12 -16q14 0 14 16v1q0 16 -13 16t-13 -17zM163 59q0 11 7 18.5t18 7.5q10 0 17 -7t7 -18q0 -2 -2 -5h-34q1 -12 12 -12q9 0 11 8
h11q-3 -19 -22 -19q-25 0 -25 27zM176 62h23q-3 14 -11 14q-11 0 -12 -14zM216 48h13q3 -8 8 -8q9 0 9 7q0 2 -11 8q-17 5 -17 15q0 15 19 15q20 0 20 -15h-13q-2 6 -7 6q-6 0 -6 -5q0 -4 11 -9q16 -3 16 -14q0 -16 -21 -16q-18 0 -21 16zM255 423q0 -56 39.5 -96t96.5 -40
q56 0 94.5 39.5t38.5 96.5q0 58 -37.5 96.5t-95.5 38.5q-11 0 -22 -3l79 112h-60l-90 -128q-43 -60 -43 -116zM255 861q0 -56 39.5 -95t96.5 -39q56 0 94.5 39t38.5 95q0 58 -37.5 96.5t-95.5 38.5q-15 0 -22 -2l79 114h-60l-90 -132q-43 -62 -43 -115zM265 95q0 6 8 6
q7 0 7 -6q0 -8 -7 -8q-8 0 -8 8zM266 34v51h13v-51h-13zM289 31v1h13v-1q0 -8 12 -8q10 0 14 12v8l-4 -7q-8 -2 -13 -2q-22 0 -22 25q0 26 24 26q8 0 11 -3l4 -5v8h13v-38q0 -8 -2 -11q0 -22 -25 -22t-25 17zM302 60q0 -17 12 -17q14 0 14 16v1q0 16 -14 16q-12 0 -12 -16z
M305 423q0 37 24 60.5t62 23.5q36 0 60 -23.5t24 -60.5q0 -39 -24 -63t-60 -24q-38 0 -62 24t-24 63zM305 861q0 39 24 62.5t62 23.5q36 0 60 -24.5t24 -61.5t-24 -61.5t-60 -24.5q-38 0 -62 24t-24 62zM351 34v51h13v-10l4 7q4 3 12 3q14 0 18 -14q1 -3 1 -9v-28h-14v32
q0 10 -9 10q-12 0 -12 -19v-23h-13zM406 59q0 11 7 18.5t18 7.5q26 0 26 -26q0 -27 -26 -27q-11 0 -18 7.5t-7 19.5zM419 59q0 -16 12 -16q14 0 14 16q0 17 -14 17q-12 0 -12 -17zM461 85h14l13 -42l12 42h13l-18 -51h-17zM517 48q0 15 28 15h3v7q0 6 -8 6q-11 0 -11 -8h-12
q0 17 23 17q17 0 19 -14v-37h-11v6l-3 -5q-6 -3 -13 -3q-15 0 -15 16zM529 48q0 -5 8 -5q11 0 11 8v6q-19 2 -19 -9zM568 74v9h5v7q0 14 18 14h5v-10q-10 2 -10 -5v-6h10v-9h-10v-40h-13v40h-5zM580 423q0 -57 39.5 -96.5t95.5 -39.5t94.5 39.5t38.5 96.5t-38 96t-95 39
q-13 0 -23 -3l80 112h-61l-90 -128q-41 -58 -41 -116zM580 861q0 -56 39.5 -95t95.5 -39t94.5 39t38.5 95q0 58 -38 96.5t-95 38.5q-16 0 -24 -2l81 114h-61l-90 -132q-41 -62 -41 -115zM600 59q0 26 26 26q25 0 25 -26q0 -27 -25 -27q-26 0 -26 27zM613 59q0 -16 13 -16
q12 0 12 16q0 17 -12 17q-13 0 -13 -17zM629 423q0 37 24 60.5t62 23.5q36 0 58.5 -23.5t22.5 -60.5q0 -39 -22.5 -63t-58.5 -24q-38 0 -62 24t-24 63zM629 861q0 38 24 62t62 24q36 0 58.5 -24t22.5 -62t-22.5 -62t-58.5 -24q-38 0 -62 24t-24 62zM660 34v51h11v-10l5 7
q4 3 12 3q14 0 18 -14v-37h-13v32q-3 10 -8 10q-14 0 -14 -19v-23h-11zM713 74v9h7v12h13v-12h9v-9h-9v-26q2 -9 8 -5v-10h-7q-14 0 -14 10v31h-7zM746 48h14q2 -8 9 -8q8 0 8 7q0 2 -11 8q-16 4 -16 15q0 15 18 15t23 -15h-15q0 6 -9 6q-4 0 -4 -5t10 -9q18 -4 18 -14
q0 -16 -22 -16q-19 0 -23 16zM794 39q0 9 9 9q8 0 8 -9q0 -7 -8 -7q-9 0 -9 7zM817 59q0 11 7.5 18.5t16.5 7.5q23 0 23 -19h-12q-3 10 -11 10q-11 0 -11 -17q0 -16 11 -16q9 0 11 8h12q-1 -19 -23 -19q-24 0 -24 27zM869 59q0 26 27 26q24 0 24 -26q0 -27 -24 -27
q-27 0 -27 27zM882 59q0 -16 14 -16q12 0 12 16q0 17 -12 17q-14 0 -14 -17zM929 34v51h13v-9l5 6q3 3 8 3q12 0 17 -10l5 7q3 3 10 3q16 0 16 -12q1 -3 1 -11v-28h-12v26q0 1 -0.5 3.5t-0.5 4.5q0 8 -10 8q-8 0 -8 -16v-26h-12v34q-5 8 -9 8q-10 0 -10 -16v-26h-13z" />
    <glyph glyph-name="crossbarcomb" horiz-adv-x="1446" 
d="M95 505l32 200h1415l-32 -200h-1415z" />
    <glyph glyph-name="crossslashcomb" horiz-adv-x="626" 
d="M-34 -199l702 1784h209l-702 -1784h-209z" />
    <glyph glyph-name="dotlessicomb" horiz-adv-x="455" 
d="M123 0l161 1019h208l-161 -1019h-208z" />
    <glyph glyph-name="dotlessjcomb" horiz-adv-x="512" 
d="M-123 -274q113 -10 194.5 47.5t97.5 157.5l172 1088h206l-172 -1088q-16 -109 -87 -205q-79 -100 -195.5 -154.5t-247.5 -46.5z" />
    <glyph glyph-name="leftspikecomb" horiz-adv-x="373" 
d="M186 836l213 564h158l-161 -564h-210z" />
    <glyph glyph-name="rightspikecomb" horiz-adv-x="471" 
d="M173 836l160 564h212l-213 -564h-159z" />
    </font>
</defs>
</svg>
