<?xml version="1.0" standalone="no"?>
<!DOCTYPE svg PUBLIC "-//W3C//DTD SVG 1.1//EN" "http://www.w3.org/Graphics/SVG/1.1/DTD/svg11.dtd" >
<svg xmlns="http://www.w3.org/2000/svg" xmlns:xlink="http://www.w3.org/1999/xlink" version="1.1">
<metadata>
Created by FontForge 20201107 at Tue May 21 02:52:21 2024
 By 
Copyright (c) 2024 by Designova. All rights reserved.
</metadata>
<defs>
<font id="NobelUno-Regular" horiz-adv-x="1178" >
  <font-face 
    font-family="Nobel Uno"
    font-weight="400"
    font-stretch="normal"
    units-per-em="2048"
    panose-1="0 0 0 0 0 0 0 0 0 0"
    ascent="1638"
    descent="-410"
    x-height="1000"
    cap-height="1400"
    bbox="-228 -501 2310 2620"
    underline-thickness="50"
    underline-position="-125"
    unicode-range="U+000D-A78C"
  />
<missing-glyph horiz-adv-x="1608" 
d="M195 -1v1378h1224v-1378h-1224zM389 510l116 -114l299 298l304 -298l118 114l-301 301l296 301l-113 114l-304 -299l-297 299l-118 -114l301 -301zM399 165h31v83h1l62 -83h29v129h-31v-81h-2l-64 81h-26v-129zM535 213q0 -28 25 -43q18 -6 29 -6q32 0 48 23q6 12 6 26
q0 31 -25 44q-12 6 -29 6q-36 0 -48 -24q-6 -11 -6 -26zM565 213q0 15 11 26q4 4 13 4q15 0 21 -14q2 -5 2 -16q0 -17 -10 -25q-10 -2 -13 -2q-17 0 -20 14q-4 5 -4 13zM694 230q0 -41 32 -59q19 -7 37 -7q38 0 55 26q7 11 7 28v17h-59v-21h31q0 -16 -16 -22q-5 -4 -18 -4
q-23 0 -33 19q-5 7 -5 23q0 28 18 38q12 5 19 5q28 0 31 -21h31q-1 18 -20 33q-17 11 -42 11q-40 0 -59 -30q-9 -14 -9 -36zM843 165h29v129h-29v-129zM881 263l40 -99l-2 -5q-2 -11 -22 -7l-7 -19q10 -4 20 -4q20 0 32 14q5 3 8 13l41 107h-31l-22 -71h-2l-22 71h-33z
M1001 129h31v52q6 -10 18 -14q3 -3 13 -3q27 0 39 23q6 10 6 26q0 31 -21 45q-13 5 -24 5q-17 0 -25 -9q-4 -3 -6 -9h-1v18h-30v-134zM1031 213q0 17 10 25q5 5 12 5q16 0 21 -14q3 -8 3 -16q0 -15 -10 -25q-8 -2 -14 -2q-14 0 -20 14q-2 8 -2 13zM1123 165h28v56
q0 14 11 18q4 3 11 3q19 0 19 -19v-58h31v62q0 24 -19 33q-12 3 -19 3q-25 0 -34 -18h-1v49h-27v-129z" />
    <glyph glyph-name=".notdef" horiz-adv-x="1608" 
d="M195 -1v1378h1224v-1378h-1224zM389 510l116 -114l299 298l304 -298l118 114l-301 301l296 301l-113 114l-304 -299l-297 299l-118 -114l301 -301zM399 165h31v83h1l62 -83h29v129h-31v-81h-2l-64 81h-26v-129zM535 213q0 -28 25 -43q18 -6 29 -6q32 0 48 23q6 12 6 26
q0 31 -25 44q-12 6 -29 6q-36 0 -48 -24q-6 -11 -6 -26zM565 213q0 15 11 26q4 4 13 4q15 0 21 -14q2 -5 2 -16q0 -17 -10 -25q-10 -2 -13 -2q-17 0 -20 14q-4 5 -4 13zM694 230q0 -41 32 -59q19 -7 37 -7q38 0 55 26q7 11 7 28v17h-59v-21h31q0 -16 -16 -22q-5 -4 -18 -4
q-23 0 -33 19q-5 7 -5 23q0 28 18 38q12 5 19 5q28 0 31 -21h31q-1 18 -20 33q-17 11 -42 11q-40 0 -59 -30q-9 -14 -9 -36zM843 165h29v129h-29v-129zM881 263l40 -99l-2 -5q-2 -11 -22 -7l-7 -19q10 -4 20 -4q20 0 32 14q5 3 8 13l41 107h-31l-22 -71h-2l-22 71h-33z
M1001 129h31v52q6 -10 18 -14q3 -3 13 -3q27 0 39 23q6 10 6 26q0 31 -21 45q-13 5 -24 5q-17 0 -25 -9q-4 -3 -6 -9h-1v18h-30v-134zM1031 213q0 17 10 25q5 5 12 5q16 0 21 -14q3 -8 3 -16q0 -15 -10 -25q-8 -2 -14 -2q-14 0 -20 14q-2 8 -2 13zM1123 165h28v56
q0 14 11 18q4 3 11 3q19 0 19 -19v-58h31v62q0 24 -19 33q-12 3 -19 3q-25 0 -34 -18h-1v49h-27v-129z" />
    <glyph glyph-name=".null" horiz-adv-x="1285" 
 />
    <glyph glyph-name="nonmarkingreturn" horiz-adv-x="682" 
 />
    <glyph glyph-name="CR" unicode="&#xd;" horiz-adv-x="1285" 
 />
    <glyph glyph-name="space" unicode=" " horiz-adv-x="541" 
 />
    <glyph glyph-name="space" unicode="&#xa0;" horiz-adv-x="541" 
 />
    <glyph glyph-name="exclam" unicode="!" horiz-adv-x="397" 
d="M115 420v980h128v-980h-128zM95 55q0 33 24.5 56t59.5 23q34 0 58 -23t24 -56q0 -34 -24 -57.5t-58 -23.5q-35 0 -59.5 23.5t-24.5 57.5z" />
    <glyph glyph-name="quotedbl" unicode="&#x22;" horiz-adv-x="555" 
d="M85 878v522h112v-522h-112zM351 878v522h112v-522h-112z" />
    <glyph glyph-name="numbersign" unicode="#" horiz-adv-x="1602" 
d="M211 0l95 337h-211l39 136h210l128 456h-212l39 135h211l94 336h146l-94 -336h494l93 336h146l-93 -336h210l-37 -135h-212l-128 -456h212l-37 -136h-211l-96 -337h-146l96 337h-494l-95 -337h-147zM490 473h493l128 456h-493z" />
    <glyph glyph-name="dollar" unicode="$" horiz-adv-x="1257" 
d="M572 -23q-171 11 -301.5 89t-175.5 198l136 49q33 -88 144.5 -143.5t251.5 -55.5q99 0 187 32q89 33 141 91t52 134q0 79 -55 130q-95 88 -325 126q-154 26 -268 68q-257 92 -257 329q0 111 65 197q63 84 170 135.5t235 60.5v207h112v-207q104 -8 200 -43
q212 -80 277 -245l-139 -48q-32 89 -143.5 144t-251.5 55q-98 1 -186 -31q-89 -34 -140.5 -92t-51.5 -133q0 -90 49 -138q44 -44 122 -69t207 -47q136 -22 260 -71q266 -108 266 -328q0 -112 -64 -197q-63 -84 -169.5 -135.5t-235.5 -61.5v-201h-112v201z" />
    <glyph glyph-name="percent" unicode="%" horiz-adv-x="1363" 
d="M173 0l844 1400h170l-844 -1400h-170zM95 1092q0 102 72.5 171t176.5 69q105 0 177.5 -69t72.5 -171q0 -101 -73 -170t-177 -69q-105 0 -177 69t-72 170zM207 1092q0 -55 40 -93.5t97 -38.5q59 0 98.5 38.5t39.5 93.5q0 56 -39.5 94.5t-98.5 38.5q-57 0 -97 -38.5
t-40 -94.5zM766 307q0 101 73.5 170.5t177.5 69.5q106 0 178 -70t72 -170q0 -101 -72 -170.5t-178 -69.5q-104 0 -177.5 70.5t-73.5 169.5zM877 307q0 -55 41.5 -94t98.5 -39t98 39t41 94t-41 94t-98 39t-98.5 -39t-41.5 -94z" />
    <glyph glyph-name="ampersand" unicode="&#x26;" horiz-adv-x="1504" 
d="M518 -26q-125 0 -220 58q-96 57 -149.5 150t-53.5 199q0 66 14.5 113.5t48.5 94.5q22 30 64.5 74.5t73 74t120.5 115.5q-52 51 -71 70t-44 46.5t-38 46.5q-37 53 -37 135q0 79 40 143t107 101.5t145 37.5q81 0 149 -38q68 -39 107 -103t39 -141q0 -82 -39 -139
q-28 -39 -151 -159l390 -374l230 220v-198l-128 -123l293 -279l-103 -99l-292 278q-203 -195 -277 -246q-49 -32 -98.5 -45t-119.5 -13zM242 378q0 -113 79.5 -188.5t196.5 -75.5q53 0 89.5 11.5t74.5 39.5q46 35 91 80q19 19 67 65.5t70 68.5l-392 375l-141 -136
q-54 -52 -84 -87q-29 -35 -40 -69.5t-11 -83.5zM358 1153q0 -37 14 -63q5 -11 14 -22.5t26 -28.5t27.5 -28t38 -37t40.5 -38q66 63 103 97q35 33 47 57.5t12 62.5q0 65 -48 109.5t-114 44.5q-67 0 -113.5 -45.5t-46.5 -108.5z" />
    <glyph glyph-name="quotesingle" unicode="'" horiz-adv-x="289" 
d="M88 878v522h112v-522h-112z" />
    <glyph glyph-name="parenleft" unicode="(" horiz-adv-x="693" 
d="M431 -112q-105 95 -170 215q-126 229 -126 541q0 165 49 343q38 138 101 246.5t146 166.5h146q-100 -91 -177 -254q-112 -237 -118 -502q5 -227 82.5 -420.5t212.5 -335.5h-146z" />
    <glyph glyph-name="parenright" unicode=")" horiz-adv-x="692" 
d="M115 -112q135 143 212 335t83 421q-4 170 -57 343q-83 270 -238 413h146q109 -76 188 -248q107 -239 107 -508q0 -151 -29 -283q-61 -287 -266 -473h-146z" />
    <glyph glyph-name="asterisk" unicode="*" horiz-adv-x="763" 
d="M234 853l-89 63l129 171l-209 65l34 101l210 -64v211h113v-211l209 64l36 -101l-212 -65l131 -171l-91 -63l-130 172z" />
    <glyph glyph-name="plus" unicode="+" horiz-adv-x="1236" 
d="M544 100v430h-449v140h449v430h146v-430h450v-140h-450v-430h-146z" />
    <glyph glyph-name="comma" unicode="," horiz-adv-x="442" 
d="M95 -112l64 338h147l-114 -338h-97z" />
    <glyph glyph-name="hyphen" unicode="-" horiz-adv-x="940" 
d="M135 530v140h669v-140h-669z" />
    <glyph glyph-name="period" unicode="." horiz-adv-x="398" 
d="M177 -26q-34 0 -58 23.5t-24 57.5q0 32 24 55.5t58 23.5q35 0 60 -23.5t25 -55.5q0 -34 -25 -57.5t-60 -23.5z" />
    <glyph glyph-name="slash" unicode="/" horiz-adv-x="761" 
d="M95 -112l423 1512h147l-424 -1512h-146z" />
    <glyph glyph-name="zero" unicode="0" horiz-adv-x="1270" 
d="M636 -26q-171 0 -300 98.5t-195 262t-66 365.5t66 366t195 262t300 98q168 0 296 -95t195 -259.5t67 -371.5q0 -209 -67.5 -373t-195.5 -258.5t-295 -94.5zM213 700q0 -169 50.5 -301t147 -208.5t225.5 -76.5t225 77t145 209t49 300q0 263 -113 424.5t-306 161.5
q-207 0 -318 -176q-105 -166 -105 -410z" />
    <glyph glyph-name="one" unicode="1" horiz-adv-x="418" 
d="M95 0v1400h147v-1400h-147z" />
    <glyph glyph-name="two" unicode="2" horiz-adv-x="1160" 
d="M95 0v124l188 167q113 100 203 187q94 90 184 191q186 211 186 328q0 121 -87 205t-212 84q-82 0 -151 -39q-69 -40 -109 -106t-40 -144h-146q0 120 61 217q61 98 163 155t222 57q123 0 224 -58q102 -59 161.5 -156.5t59.5 -214.5q0 -132 -145 -330q-165 -224 -502 -527
h669v-140h-929z" />
    <glyph glyph-name="three" unicode="3" horiz-adv-x="1052" 
d="M525 -26q-133 0 -235 57q-101 56 -158 151t-57 210h146q0 -77 37 -139q38 -65 106.5 -102t160.5 -37q79 0 149 38q71 38 113.5 102t42.5 138q0 136 -102 210.5t-287 74.5v116q159 0 252 64.5t93 185.5q0 68 -38 122q-38 56 -100 89t-131 33t-134 -33q-66 -35 -105 -90.5
t-39 -120.5h-146q0 103 58.5 192t156 140.5t208.5 51.5t206 -52q96 -53 153.5 -141t57.5 -191q0 -104 -55.5 -186.5t-149.5 -116.5q119 -38 183.5 -131.5t64.5 -216.5q0 -115 -62 -210q-64 -96 -167 -152t-222 -56z" />
    <glyph glyph-name="four" unicode="4" horiz-adv-x="1189" 
d="M752 0v321h-657v142l620 937h184v-939h154v-140h-154v-321h-147zM268 463l484 -2l-2 739z" />
    <glyph glyph-name="five" unicode="5" horiz-adv-x="1125" 
d="M195 306q46 -94 127.5 -147t188.5 -53q95 0 172 45q82 46 126 118t44 163t-45 163q-48 76 -126.5 118.5t-160 47.5t-159 -14t-130.5 -59h-97l78 719h700v-133h-573l-44 -409q86 25 182 26q146 -2 260 -56q119 -57 185 -161.5t66 -241.5q0 -190 -140 -324.5t-338 -134.5
q-132 0 -241 62q-125 70 -185 190z" />
    <glyph glyph-name="six" unicode="6" horiz-adv-x="1152" 
d="M569 -26q-138 0 -252 66q-116 66 -184 176.5t-68 241.5q0 72 17 125.5t57 127.5l416 689h170l-304 -504q182 67 362 -9q140 -59 216.5 -172t76.5 -257q0 -131 -68.5 -242.5t-185 -176.5t-253.5 -65zM212 459q0 -97 50 -176t131 -124t176 -45q106 0 186 49
q82 48 128.5 127t46.5 169q0 94 -48 172q-49 79 -131 124.5t-180 45.5q-103 0 -184 -48q-82 -48 -128.5 -126t-46.5 -168z" />
    <glyph glyph-name="seven" unicode="7" horiz-adv-x="1024" 
d="M211 0l588 1260h-744v140h913v-140l-590 -1260h-167z" />
    <glyph glyph-name="eight" unicode="8" horiz-adv-x="1124" 
d="M561 -26q-128 0 -235 56q-107 57 -169 151.5t-62 207.5q0 110 63.5 203t168.5 145q-88 49 -141.5 130.5t-53.5 177.5q0 106 58 192q59 88 156.5 138.5t214.5 50.5t216 -51q99 -52 156 -139t57 -191q0 -96 -53.5 -177.5t-142.5 -130.5q107 -52 170.5 -145t63.5 -203
q0 -113 -63 -208q-65 -96 -171 -151.5t-233 -55.5zM250 389q0 -75 43 -138q42 -64 113 -100.5t155 -36.5q131 0 220.5 79.5t89.5 195.5q0 115 -90 194.5t-220 79.5q-85 0 -155 -37q-72 -37 -114 -99.5t-42 -137.5zM287 1045q0 -102 79.5 -172t194.5 -70t194.5 70t79.5 172
t-79.5 171.5t-194.5 69.5q-114 0 -194 -69.5t-80 -171.5z" />
    <glyph glyph-name="nine" unicode="9" horiz-adv-x="1125" 
d="M703 535q-90 -29 -179 -28t-170 38t-143 94t-99 141t-37 178q0 95 38.5 181.5t104 149.5t156 100t189.5 37q135 0 244 -63q112 -65 177 -171.5t65 -233.5q0 -69 -16.5 -121.5t-56.5 -121.5l-428 -715h-168zM218 957q0 -92 47 -164q46 -76 123.5 -119.5t172.5 -43.5
q100 0 177 46q78 45 123 120t45 161q0 94 -48 169t-126.5 118t-168.5 43q-100 0 -179 -46q-77 -46 -121.5 -121.5t-44.5 -162.5z" />
    <glyph glyph-name="colon" unicode=":" horiz-adv-x="398" 
d="M177 840q-34 0 -58 23.5t-24 57.5q0 32 24 55.5t58 23.5q35 0 60 -23.5t25 -55.5q0 -34 -25 -57.5t-60 -23.5zM95 55q0 32 24 55.5t58 23.5q35 0 60 -23.5t25 -55.5q0 -34 -25 -57.5t-60 -23.5q-34 0 -58 23.5t-24 57.5z" />
    <glyph glyph-name="semicolon" unicode=";" horiz-adv-x="450" 
d="M95 -112l64 338h147l-114 -338h-97zM147 919q0 34 24.5 57.5t59.5 23.5q34 0 58.5 -23.5t24.5 -57.5q0 -33 -24.5 -56t-58.5 -23q-35 0 -59.5 23t-24.5 56z" />
    <glyph glyph-name="less" unicode="&#x3c;" horiz-adv-x="1236" 
d="M1140 200l-1045 284v230l1045 286v-147l-933 -253l933 -255v-145z" />
    <glyph glyph-name="equal" unicode="=" horiz-adv-x="1236" 
d="M95 732v140h1045v-140h-1045zM95 328v140h1045v-140h-1045z" />
    <glyph glyph-name="greater" unicode="&#x3e;" horiz-adv-x="1236" 
d="M95 204v145l933 251l-933 249v147l1045 -282v-230z" />
    <glyph glyph-name="question" unicode="?" horiz-adv-x="1069" 
d="M440 55q0 33 24.5 56t59.5 23t59.5 -23t24.5 -56t-25 -57t-59 -24t-59 24t-25 57zM95 1026q0 110 57 202t153 145.5t209 53.5q116 0 211 -54q98 -54 153 -145.5t55 -201.5q0 -113 -57 -208.5t-157 -147.5q-54 -28 -85.5 -78.5t-31.5 -110.5v-185h-146v185q0 99 51 182
t142 131q65 32 101.5 94t36.5 138q0 111 -79 186t-194 75t-194 -75t-79 -186h-146z" />
    <glyph glyph-name="at" unicode="@" horiz-adv-x="1832" 
d="M916 -186q-344 0 -581 207q-115 100 -177.5 235t-62.5 295t64.5 305t174.5 250.5t262 167.5t320 62t320 -62t261.5 -167.5t174 -250.5t64.5 -305q0 -85 -22 -167t-61.5 -148t-101 -106.5t-133.5 -40.5q-60 0 -119 27t-97.5 73t-42.5 102q-44 -65 -115 -101.5t-160 -36.5
q-114 0 -208 54q-96 54 -151.5 144.5t-55.5 199.5t56 200q57 91 151.5 144t207.5 53q88 0 162 -36t117 -98v114l119 -17v-570q0 -47 39 -79.5t89 -32.5q62 0 103 51q38 48 57.5 121.5t19.5 149.5q0 131 -53.5 251t-144 206t-215 137t-261.5 51t-262 -51t-215.5 -137
t-144 -206t-53.5 -251q0 -266 198 -432q195 -165 477 -165v-140zM595 551q0 -79 41 -144t109.5 -103t147.5 -38q83 0 142 43q59 42 92 110.5t33 143.5q0 71 -30 133q-31 65 -91.5 102t-145.5 37q-82 0 -150 -38q-69 -39 -108.5 -103.5t-39.5 -142.5z" />
    <glyph glyph-name="A" unicode="A" horiz-adv-x="1437" 
d="M95 0l532 1400h181l533 -1400h-156l-140 367h-655l-140 -367h-155zM443 507h549l-274 721z" />
    <glyph glyph-name="B" unicode="B" horiz-adv-x="1247" 
d="M135 0v1400h565q173 0 279 -98.5t106 -270.5q0 -93 -37.5 -170t-96.5 -109q200 -90 200 -354v-1q0 -191 -105 -294t-280 -103h-631zM281 125h473q116 0 192 71t76 199q0 138 -75 208t-193 70h-473v-548zM281 796h407q111 0 184.5 60.5t74.5 179.5q-1 118 -74.5 178.5
t-184.5 60.5h-407v-479z" />
    <glyph glyph-name="C" unicode="C" horiz-adv-x="1518" 
d="M810 -31q-159 0 -293 54.5t-226.5 151t-144 232t-51.5 293.5t51.5 293.5t144 232t226.5 151t293 54.5q193 0 345 -77t247 -217l-127 -65q-78 105 -197.5 162.5t-269.5 57.5q-260 0 -420 -165.5t-160 -427.5t160 -427.5t420 -165.5q150 0 269.5 58t198.5 163l124 -64
q-93 -139 -245.5 -216.5t-344.5 -77.5z" />
    <glyph glyph-name="D" unicode="D" horiz-adv-x="1394" 
d="M135 0v1400h499q204 0 360 -90t240 -249.5t84 -361.5t-84 -361t-240 -248.5t-360 -89.5h-499zM282 140l354 -1q247 0 398 155.5t151 403.5t-151 404.5t-398 156.5l-354 1v-1120z" />
    <glyph glyph-name="E" unicode="E" horiz-adv-x="1176" 
d="M135 0v1400h925v-140h-778v-457h650v-140h-650v-523h778v-140h-925z" />
    <glyph glyph-name="F" unicode="F" horiz-adv-x="1096" 
d="M135 0v1400h925v-140h-778v-457h650v-140h-650v-663h-147z" />
    <glyph glyph-name="G" unicode="G" horiz-adv-x="1498" 
d="M810 -31q-159 0 -293 54.5t-226.5 151t-144 232t-51.5 293.5t51.5 293.5t144 232t226.5 151t293 54.5q193 0 345 -77t247 -217l-127 -65q-78 105 -197.5 162.5t-269.5 57.5q-260 0 -420 -165.5t-160 -427.5t160 -427.5t420 -165.5q139 0 253 50.5t193 142.5v363h-563v140
h709v-539q-93 -139 -245.5 -216.5t-344.5 -77.5z" />
    <glyph glyph-name="H" unicode="H" horiz-adv-x="1369" 
d="M135 0v1400h147v-580h804v580h147v-1400h-147v680h-804v-680h-147z" />
    <glyph glyph-name="I" unicode="I" horiz-adv-x="477" 
d="M165 0v1400h146v-1400h-146z" />
    <glyph glyph-name="J" unicode="J" horiz-adv-x="1326" 
d="M622 -26q-177 0 -302 82q-127 81 -196 219.5t-69 308.5h146q0 -208 114.5 -339t306.5 -131q138 0 232 65q92 64 141 170.5t49 234.5v816h146v-816q0 -264 -156 -437t-412 -173z" />
    <glyph glyph-name="K" unicode="K" horiz-adv-x="1139" 
d="M135 0v1400h147v-696l609 696h192l-581 -661l573 -739h-189l-480 629l-124 -143v-486h-147z" />
    <glyph glyph-name="L" unicode="L" horiz-adv-x="1176" 
d="M135 0v1400h147v-1260h778v-140h-925z" />
    <glyph glyph-name="M" unicode="M" horiz-adv-x="1583" 
d="M135 -1v1401h140l518 -1068l515 1068h139v-1401h-157l-2 969l-449 -930h-96l-448 930l-2 -969h-158z" />
    <glyph glyph-name="N" unicode="N" horiz-adv-x="1349" 
d="M135 0v1400h159l772 -1147v1147h147v-1400h-158l-773 1147v-1147h-147z" />
    <glyph glyph-name="O" unicode="O" horiz-adv-x="1621" 
d="M810 -31q-159 0 -293 54.5t-226.5 151t-144 232t-51.5 293.5t51.5 293.5t144 232t226.5 151t293 54.5q213 0 376 -93.5t251 -259.5t88 -378t-88 -378t-251 -259.5t-376 -93.5zM228 699q0 -262 160 -427.5t420 -165.5q173 0 306 76t204 210.5t71 306.5t-71 306.5
t-204 210.5t-306 76q-260 0 -420 -165.5t-160 -427.5z" />
    <glyph glyph-name="P" unicode="P" horiz-adv-x="1181" 
d="M135 0v1400h522q86 0 161.5 -26t135.5 -77t95 -135t36 -191q-1 -107 -36 -191.5t-95 -135.5t-135.5 -77t-161.5 -26h-375v-541h-147zM282 664l363 2q43 0 84 9.5t82 32t71 56t48.5 87t17.5 120.5q1 82 -26.5 144t-74 95.5t-97 49t-105.5 15.5h-363v-611z" />
    <glyph glyph-name="Q" unicode="Q" horiz-adv-x="1623" 
d="M810 -31q-159 0 -293 54.5t-226.5 151t-144 232t-51.5 293.5t51.5 293.5t144 232t226.5 151t293 54.5q213 0 376 -93.5t251 -259.5t88 -378q0 -292 -162 -488l144 -138l-103 -99l-144 137q-185 -143 -450 -143zM228 699q0 -262 160 -427.5t420 -165.5q202 0 350 104
l-251 240l103 100l252 -241q127 160 127 390q0 172 -71 306.5t-204 210.5t-306 76q-260 0 -420 -165.5t-160 -427.5z" />
    <glyph glyph-name="R" unicode="R" horiz-adv-x="1201" 
d="M135 0v1400h522q86 0 161.5 -26t135.5 -77t95 -135t36 -191q-1 -122 -47 -213.5t-119 -141t-168 -67.5l333 -549h-170l-328 541h-304v-541h-147zM282 664l363 2q43 0 84 9.5t82 32t71 56t48.5 87t17.5 120.5q1 82 -26.5 144t-74 95.5t-97 49t-105.5 15.5h-363v-611z" />
    <glyph glyph-name="S" unicode="S" horiz-adv-x="1296" 
d="M647 -26q-114 0 -227 35q-112 36 -192.5 101.5t-112.5 153.5l136 49q33 -88 144.5 -143.5t251.5 -55.5q99 0 187 32q89 33 141 91t52 134q0 79 -56 130q-94 88 -324 126q-157 27 -268 68q-257 92 -257 329q0 120 73 210q73 89 192.5 138t259.5 49q186 0 334 -79t199 -213
l-138 -48q-32 89 -143.5 144t-251.5 55q-98 1 -186 -31q-89 -34 -141 -92t-52 -133q0 -90 50 -138q44 -44 122 -69t207 -47q136 -22 260 -71q266 -109 266 -328q0 -119 -73 -209t-192.5 -139t-260.5 -49z" />
    <glyph glyph-name="T" unicode="T" horiz-adv-x="1339" 
d="M595 0v1260h-500v140h1148v-140h-501v-1260h-147z" />
    <glyph glyph-name="U" unicode="U" horiz-adv-x="1407" 
d="M703 -26q-176 0 -303 82q-127 81 -196 219.5t-69 308.5v816h147v-816q0 -209 114 -339.5t307 -130.5q139 0 231 65q92 64 141 170t49 235v816h147v-816q0 -173 -69 -311t-199 -218.5t-300 -80.5z" />
    <glyph glyph-name="V" unicode="V" horiz-adv-x="1364" 
d="M593 0l-531 1400h155l464 -1224l466 1224h154l-532 -1400h-176z" />
    <glyph glyph-name="W" unicode="W" horiz-adv-x="1791" 
d="M437 0l-375 1400h151l309 -1159l308 1159h130l309 -1159l309 1159h150l-372 -1400h-174l-287 1075l-287 -1075h-171z" />
    <glyph glyph-name="X" unicode="X" horiz-adv-x="1404" 
d="M75 0l536 704l-530 696h181l439 -578l440 578h180l-528 -696l535 -704h-182l-445 584l-443 -584h-183z" />
    <glyph glyph-name="Y" unicode="Y" horiz-adv-x="1282" 
d="M567 0v634l-492 766h173l392 -613l394 613h172l-493 -766v-634h-146z" />
    <glyph glyph-name="Z" unicode="Z" horiz-adv-x="1373" 
d="M95 0v140l988 1120h-988v140h1182v-140l-987 -1120h987v-140h-1182z" />
    <glyph glyph-name="bracketleft" unicode="[" horiz-adv-x="585" 
d="M135 -112v1512h334v-140h-187v-1232h187v-140h-334z" />
    <glyph glyph-name="backslash" unicode="\" horiz-adv-x="761" 
d="M518 -112l-423 1512h146l424 -1512h-147z" />
    <glyph glyph-name="bracketright" unicode="]" horiz-adv-x="584" 
d="M115 -112v140h187v1232h-187v140h333v-1512h-333z" />
    <glyph glyph-name="asciicircum" unicode="^" horiz-adv-x="844" 
d="M95 1000l247 650h159l247 -650h-156l-171 451l-172 -451h-154z" />
    <glyph glyph-name="underscore" unicode="_" horiz-adv-x="1316" 
d="M135 -112v140h1045v-140h-1045z" />
    <glyph glyph-name="grave" unicode="`" horiz-adv-x="783" 
d="M377 2310l-133 288h146l84 -288h-97z" />
    <glyph glyph-name="a" unicode="a" horiz-adv-x="1214" 
d="M590 -26q-231 0 -373 147t-142 379t142 379t373 147q237 0 382 -156v130h146v-1000h-146v130q-145 -156 -382 -156zM209 500q0 -172 105 -281t276 -109t276 109t105 281t-105 281t-276 109t-276 -109t-105 -281z" />
    <glyph glyph-name="b" unicode="b" horiz-adv-x="1255" 
d="M664 -26q-118 1 -219 45.5t-163 121.5v-141h-147v1500h147v-641q62 77 163 121.5t219 45.5q231 0 373 -147t142 -379t-142 -379t-373 -147zM283 500q0 -172 105 -281t276 -109t276 109t105 281t-105 281t-276 109t-276 -109t-105 -281z" />
    <glyph glyph-name="c" unicode="c" horiz-adv-x="1139" 
d="M590 -26q-231 0 -373 147t-142 379t142 379t373 147q168 -1 292.5 -82.5t180.5 -221.5l-135 -31q-46 92 -134 145t-204 53q-171 1 -276 -108t-105 -281t105 -281t276 -109q116 0 204 53t134 145l135 -31q-56 -140 -180.5 -221.5t-292.5 -81.5z" />
    <glyph glyph-name="d" unicode="d" horiz-adv-x="1254" 
d="M590 -26q-231 0 -373 147t-142 379t142 379t373 147q117 -1 218 -45.5t164 -121.5v641h146v-1500h-146v141q-63 -77 -164 -121.5t-218 -45.5zM209 500q0 -172 105 -281t276 -109t276 109t105 281t-105 281t-276 109t-276 -109t-105 -281z" />
    <glyph glyph-name="e" unicode="e" horiz-adv-x="1181" 
d="M590 -26q-231 0 -373 147t-142 379t142 379t373 147t373 -147t142 -379v-53h-893q16 -151 118.5 -244t259.5 -93q116 0 204 53t134 145l135 -31q-56 -140 -180.5 -221.5t-292.5 -81.5zM212 560h755q-18 148 -120 239t-257 91t-257.5 -91t-120.5 -239z" />
    <glyph glyph-name="f" unicode="f" horiz-adv-x="725" 
d="M209 0v860h-144v140h144v261q0 111 79.5 187t195.5 76q119 0 200 -83l-105 -99q-34 42 -95 42q-53 0 -91 -36t-38 -87v-261h314v-140h-314v-860h-146z" />
    <glyph glyph-name="g" unicode="g" horiz-adv-x="1254" 
d="M593 -500q-107 0 -209 48t-177 127t-106 174l135 59q31 -115 133 -191t224 -76q156 0 267.5 96.5t111.5 225.5v167q-145 -156 -382 -156q-231 0 -373 147t-142 379t142 379t373 147q237 0 382 -156v130h146v-1037q0 -125 -74.5 -232.5t-195.5 -169t-255 -61.5zM209 500
q0 -172 105 -281t276 -109t276 109t105 281t-105 281t-276 109t-276 -109t-105 -281z" />
    <glyph glyph-name="h" unicode="h" horiz-adv-x="1142" 
d="M135 0v1500h147v-638q56 77 144.5 121.5t192.5 44.5q119 0 216 -55q98 -55 154.5 -148.5t56.5 -205.5v-619h-146v591q0 125 -89.5 210.5t-219.5 85.5q-86 0 -154 -40q-72 -40 -113.5 -107.5t-41.5 -148.5v-591h-147z" />
    <glyph glyph-name="i" unicode="i" horiz-adv-x="417" 
d="M127 0v1000h147v-1000h-147zM121 1324q0 32 24 55.5t58 23.5q35 0 60 -23.5t25 -55.5q0 -34 -25 -57.5t-60 -23.5q-34 0 -58 23.5t-24 57.5z" />
    <glyph glyph-name="j" unicode="j" horiz-adv-x="481" 
d="M-65 -360q118 0 195.5 71.5t77.5 180.5v1108h146v-1108q0 -109 -54 -197q-56 -91 -151 -143t-214 -52v140zM185 1324q0 32 24 55.5t58 23.5q35 0 60 -23.5t25 -55.5q0 -34 -25 -57.5t-60 -23.5q-34 0 -58 23.5t-24 57.5z" />
    <glyph glyph-name="k" unicode="k" horiz-adv-x="1048" 
d="M135 0v1500h147v-1038l471 538h191l-354 -403l361 -597h-168l-292 483l-209 -239v-244h-147z" />
    <glyph glyph-name="l" unicode="l" horiz-adv-x="418" 
d="M135 0v1500h147v-1500h-147z" />
    <glyph glyph-name="m" unicode="m" horiz-adv-x="1880" 
d="M135 0v1000h147v-138q57 77 145 121.5t191 44.5q117 0 215 -54.5t156 -148.5q55 93 153 148t214 55q118 0 216 -55q98 -56 155 -149t57 -205v-619h-147v588q0 81 -40 148q-42 70 -111 110.5t-151 40.5t-152 -38q-70 -40 -110 -108t-40 -153v-588h-146v588q0 89 -41 155
q-41 68 -110 106t-152 38t-151 -41q-70 -43 -110.5 -111t-40.5 -147v-588h-147z" />
    <glyph glyph-name="n" unicode="n" horiz-adv-x="1142" 
d="M135 0v1000h147v-138q57 78 145.5 122t191.5 44q119 0 216 -55q99 -55 155 -149t56 -205v-619h-146v591q0 82 -41 150t-112 107t-156 39q-87 0 -154 -40q-72 -40 -113.5 -107.5t-41.5 -148.5v-591h-147z" />
    <glyph glyph-name="o" unicode="o" horiz-adv-x="1181" 
d="M590 -26q-231 0 -373 147t-142 379t142 379t373 147t373 -147t142 -379t-142 -379t-373 -147zM209 500q0 -172 105 -281t276 -109t276 109t105 281t-105 281t-276 109t-276 -109t-105 -281z" />
    <glyph glyph-name="p" unicode="p" horiz-adv-x="1255" 
d="M135 -500v1500h147v-141q62 77 163 121.5t219 45.5q231 0 373 -147t142 -379t-142 -379t-373 -147q-118 1 -219 45.5t-163 121.5v-641h-147zM283 500q0 -172 105 -281t276 -109t276 109t105 281t-105 281t-276 109t-276 -109t-105 -281z" />
    <glyph glyph-name="q" unicode="q" horiz-adv-x="1254" 
d="M972 141q-63 -77 -164 -121.5t-218 -45.5q-231 0 -373 147t-142 379t142 379t373 147q117 -1 218 -45.5t164 -121.5v141h146v-1500h-146v641zM209 500q0 -172 105 -281t276 -109t276 109t105 281t-105 281t-276 109t-276 -109t-105 -281z" />
    <glyph glyph-name="r" unicode="r" horiz-adv-x="773" 
d="M135 0v1000h147v-138q56 77 144.5 121.5t192.5 44.5q61 0 118 -15l-60 -139q-43 13 -86 13q-86 0 -154 -40q-72 -40 -113.5 -107.5t-41.5 -148.5v-591h-147z" />
    <glyph glyph-name="s" unicode="s" horiz-adv-x="919" 
d="M461 -27q-82 0 -168 25q-88 29 -150 83t-84 126l126 46q16 -66 94.5 -107.5t181.5 -41.5q60 0 117 17.5t99 57.5t42 95q0 128 -261 170q-121 20 -195 50q-196 71 -196 251q0 91 56 160q56 67 145.5 104t192.5 37q143 0 256.5 -64t146.5 -171l-127 -46q-16 67 -94 108
t-182 41q-58 1 -115 -16.5t-99.5 -57.5t-42.5 -95q0 -56 31 -90q30 -29 84 -45.5t145 -32.5q104 -17 190 -52q202 -84 202 -251q0 -88 -56 -160q-56 -67 -145.5 -104t-193.5 -37z" />
    <glyph glyph-name="t" unicode="t" horiz-adv-x="747" 
d="M551 -4q-116 0 -196 76t-80 187v601h-189v140h189l-1 314h147v-314h250v-140h-250v-601q0 -49 31 -79.5t74 -38t83.5 -4.5t62.5 15v-129q-57 -27 -121 -27z" />
    <glyph glyph-name="u" unicode="u" horiz-adv-x="1102" 
d="M522 -26q-118 0 -215 55q-99 55 -155.5 148.5t-56.5 205.5v617h146v-589q0 -81 42 -149q43 -68 113.5 -107.5t154.5 -39.5q130 0 218.5 85.5t88.5 210.5v589h147l1 -1000h-147l-1 140q-56 -77 -144.5 -121.5t-191.5 -44.5z" />
    <glyph glyph-name="v" unicode="v" horiz-adv-x="1100" 
d="M457 0l-382 1003h156l318 -839l319 839h156l-382 -1003h-185z" />
    <glyph glyph-name="w" unicode="w" horiz-adv-x="1724" 
d="M425 0l-350 1000h143l284 -806l282 806h155l282 -806l283 806h144l-351 -1000h-151l-287 814l-284 -814h-150z" />
    <glyph glyph-name="x" unicode="x" horiz-adv-x="1137" 
d="M95 0l382 502l-381 501h180l292 -381l290 381h180l-380 -501l383 -502h-182l-291 384l-293 -384h-180z" />
    <glyph glyph-name="y" unicode="y" horiz-adv-x="1103" 
d="M280 -500l190 500l-375 1000h159l289 -807l310 807h154l-571 -1500h-156z" />
    <glyph glyph-name="z" unicode="z" horiz-adv-x="1083" 
d="M95 0v140l686 720h-686v140h892v-140l-685 -720h685v-140h-892z" />
    <glyph glyph-name="braceleft" unicode="{" horiz-adv-x="860" 
d="M667 -113q-101 0 -184 48q-84 48 -132.5 127.5t-48.5 174.5v245q-1 30 -27.5 51t-57.5 31t-56.5 30t-25.5 49q0 25 17 42.5t41 28t48.5 21t42 28t18.5 41.5v246q0 97 49 176q49 81 132.5 127.5t183.5 46.5h77v-140h-77q-91 0 -155 -61t-64 -149v-251q-1 -39 -17 -62
q-10 -15 -24 -27.5t-42.5 -34t-41.5 -32.5q50 -41 67 -53q29 -22 42.5 -44t15.5 -59v-250q0 -88 63.5 -149t155.5 -61h77v-140h-77z" />
    <glyph glyph-name="bar" unicode="|" horiz-adv-x="458" 
d="M155 -302v1702h147v-1702h-147z" />
    <glyph glyph-name="braceright" unicode="}" horiz-adv-x="859" 
d="M115 -113v140h76q93 0 156.5 60.5t63.5 149.5v250q3 38 17 62q9 13 23.5 26t42 33.5t44.5 34.5q-28 24 -66 51q-30 22 -44 45t-17 60v251q0 89 -63.5 149.5t-156.5 60.5h-76v140h76q101 0 186 -47q84 -49 132 -128.5t48 -174.5v-246q3 -29 25 -47t61 -33q38 -15 59 -33.5
t21 -47.5q0 -28 -21 -46t-59 -33q-39 -15 -61 -33.5t-25 -48.5v-245q0 -95 -48 -175q-50 -81 -134 -128t-184 -47h-76z" />
    <glyph glyph-name="asciitilde" unicode="~" horiz-adv-x="1304" 
d="M949 423q-49 0 -112.5 22.5t-123.5 55t-119 64.5t-117 54.5t-99 22.5q-68 2 -109 -49.5t-25 -121.5l-142 -7q-18 79 14 150q31 73 98.5 118t152.5 45q49 0 109 -23t116.5 -55.5t112 -65t112.5 -55.5t102 -23q70 0 111.5 51.5t24.5 117.5l144 9q21 -81 -9 -151
q-30 -72 -94 -115.5t-147 -43.5z" />
    <glyph glyph-name="exclamdown" unicode="&#xa1;" horiz-adv-x="371" 
d="M113 -400v980h129v-980h-129zM95 945q0 35 24 58t58 23q36 0 60 -23t24 -58q0 -33 -24.5 -56t-59.5 -23q-34 0 -58 23t-24 56z" />
    <glyph glyph-name="cent" unicode="&#xa2;" horiz-adv-x="1164" 
d="M561 203q-131 14 -236 84q-108 70 -169 178.5t-61 236.5q0 127 61 237q63 109 169 178t236 82v201h111v-201q123 -10 228 -73.5t168 -163.5l-126 -70q-51 78 -139 125t-184 47q-104 0 -189 -49q-87 -50 -138 -132.5t-51 -180.5q0 -102 52 -184q53 -83 139.5 -131.5
t186.5 -48.5q96 0 184 47t139 125l126 -70q-63 -99 -167.5 -162.5t-228.5 -74.5v-203h-111v203z" />
    <glyph glyph-name="sterling" unicode="&#xa3;" horiz-adv-x="1237" 
d="M119 140q139 0 228 62.5t73 154.5q-3 51 -22 92h-279v107h198q-20 20 -68 62q-35 31 -75 76q-79 92 -79 233q0 136 70 251t190 181.5t261 66.5q142 0 263 -66.5t191.5 -181.5t70.5 -251h-147q0 99 -51 181q-52 82 -138 130t-189 48q-102 0 -188 -48q-87 -49 -137 -131
t-50 -180q0 -82 24 -136q35 -82 141 -162q37 -29 79 -71l2 -2h418v-107h-353q19 -55 19 -124q0 -57 -35.5 -108t-94.5 -77h690v-140h-1012v140z" />
    <glyph glyph-name="currency" unicode="&#xa4;" horiz-adv-x="1050" 
d="M173 288l-78 75l129 125q-74 100 -72.5 215t75.5 207l-132 128l78 74l133 -126q99 71 219.5 72t219.5 -70l132 124l77 -74l-128 -125q78 -94 78.5 -213t-76.5 -214l126 -123l-77 -75l-128 122q-103 -74 -224 -73.5t-222 75.5zM263 698q0 -72 37 -128q36 -58 96.5 -91.5
t129.5 -33.5q112 2 188.5 74.5t76.5 178.5q0 108 -76.5 180t-188.5 72t-187.5 -72.5t-75.5 -179.5z" />
    <glyph glyph-name="yen" unicode="&#xa5;" horiz-adv-x="1309" 
d="M582 0v193h-308v106h308v160h-308v106h308v69l-494 766h173l394 -613l393 613h172l-492 -766v-69h307v-106h-307v-160h307v-106h-307v-193h-146z" />
    <glyph glyph-name="brokenbar" unicode="&#xa6;" horiz-adv-x="418" 
d="M135 650v750h147v-750h-147zM135 -302v750h147v-750h-147z" />
    <glyph glyph-name="section" unicode="&#xa7;" horiz-adv-x="1145" 
d="M580 -401q-128 0 -233 53t-152 141l118 66q28 -61 101 -97.5t157 -38.5q107 -2 179 44.5t72 125.5q0 57 -34 88q-51 47 -227 82q-198 36 -312 151t-114 285q0 128 76 230.5t200 143.5q-116 26 -171.5 82.5t-55.5 149.5q0 91 54 158q53 65 140 101.5t187 36.5
q128 0 232.5 -52.5t152.5 -141.5l-118 -66q-28 61 -101 97.5t-157 38.5q-108 2 -179.5 -45t-71.5 -125q0 -55 33 -86q30 -28 84 -46.5t142 -36.5q205 -41 316 -151.5t111 -287.5q0 -127 -76.5 -229t-200.5 -144q229 -49 229 -231q0 -90 -53 -157q-54 -66 -140.5 -102.5
t-187.5 -36.5zM268 499q0 -82 44 -149q43 -67 114 -106t151 -39q83 0 150 40q69 40 109 106.5t40 143.5q0 132 -89 216t-222 84q-124 0 -210.5 -86t-86.5 -210z" />
    <glyph glyph-name="dieresis" unicode="&#xa8;" horiz-adv-x="1331" 
d="M830 2281q-36 0 -60.5 22.5t-24.5 56.5q0 33 24.5 57t60.5 24q35 0 60 -24t25 -57t-25 -56t-60 -23zM415 2360q0 33 25.5 57t60.5 24t59.5 -24t24.5 -57q0 -34 -24.5 -56.5t-59.5 -22.5t-60.5 23t-25.5 56z" />
    <glyph glyph-name="copyright" unicode="&#xa9;" horiz-adv-x="1907" 
d="M952 -217q-140 0 -271 41.5t-236.5 117.5t-184.5 177t-122 226.5t-43 259.5q0 168 68 320t182.5 262t273 174.5t333.5 64.5t334.5 -65t274 -174.5t182.5 -261.5t68 -320q0 -225 -115.5 -414t-313 -298.5t-430.5 -109.5zM241 605q0 -189 96.5 -346t260 -246.5t354.5 -89.5
q148 0 280.5 55t227 147t150 217.5t55.5 262.5q0 139 -56.5 266t-152 218t-227.5 144.5t-277 52.5t-276.5 -55.5t-226.5 -145.5t-151.5 -216.5t-56.5 -263.5zM439 605q0 148 71.5 270t191 190t259.5 68q126 0 235.5 -56t181.5 -154l-131 -67q-53 65 -129 101t-157 36
q-105 0 -191 -53q-87 -54 -136 -142.5t-49 -192.5t51 -193q52 -89 137.5 -141t187.5 -52q84 0 159.5 37.5t126.5 99.5l131 -68q-73 -97 -182.5 -153t-234.5 -56q-144 0 -263 71q-121 72 -190 192t-69 263z" />
    <glyph glyph-name="ordfeminine" unicode="&#xaa;" horiz-adv-x="832" 
d="M395 730q-147 0 -237 93.5t-90 241.5q0 147 90 240.5t237 93.5q150 0 242 -100v83h93v-635h-93v83q-92 -100 -242 -100zM153 1065q0 -110 66.5 -179t175.5 -69t175.5 69t66.5 179q0 109 -66.5 178t-175.5 69t-175.5 -69t-66.5 -178z" />
    <glyph glyph-name="guillemotleft" unicode="&#xab;" horiz-adv-x="1072" 
d="M444 261l-314 340l314 338h160l-313 -338l313 -340h-160zM477 601l314 338h160l-313 -338l313 -340h-160z" />
    <glyph glyph-name="logicalnot" unicode="&#xac;" horiz-adv-x="1040" 
d="M798 315v430h-703v140h849v-570h-146z" />
    <glyph glyph-name="uni00AD" unicode="&#xad;" horiz-adv-x="962" 
d="M157 530v140h669v-140h-669z" />
    <glyph glyph-name="registered" unicode="&#xae;" horiz-adv-x="1066" 
d="M532 463q-188 0 -322.5 129t-134.5 309q0 179 134.5 308t322.5 129q126 0 231.5 -60t166 -160.5t60.5 -216.5q0 -180 -134.5 -309t-323.5 -129zM190 901q0 -91 46 -164q47 -76 125 -120t171 -44q94 0 173 45q78 45 124 120t46 163q0 89 -47 165q-47 75 -125 118.5
t-171 43.5q-94 0 -171 -44q-79 -45 -125 -119.5t-46 -163.5zM404 709v400h157q50 0 85 -35.5t35 -85.5q0 -39 -22 -69.5t-59 -41.5l103 -168h-92l-98 160h-29v-160h-80zM484 945h77q16 0 27.5 13t11.5 30q0 19 -11 31.5t-28 12.5h-77v-87z" />
    <glyph glyph-name="macron" unicode="&#xaf;" horiz-adv-x="1261" 
d="M277 1770v113h706v-113h-706z" />
    <glyph glyph-name="degree" unicode="&#xb0;" horiz-adv-x="761" 
d="M380 808q-79 0 -144 38q-66 38 -103.5 100t-37.5 134q0 115 82.5 193.5t202.5 78.5t202.5 -79t82.5 -193q0 -74 -39 -138q-40 -63 -104.5 -98.5t-141.5 -35.5zM241 1080q0 -55 41 -93.5t98 -38.5q58 0 98 38.5t40 93.5q0 56 -40 94t-98 38t-98.5 -38t-40.5 -94z" />
    <glyph glyph-name="plusminus" unicode="&#xb1;" horiz-adv-x="1236" 
d="M544 333v430h-449v140h449v430h146v-430h450v-140h-450v-430h-146zM95 0v140h1045v-140h-1045z" />
    <glyph glyph-name="acute" unicode="&#xb4;" horiz-adv-x="781" 
d="M295 2310l84 288h146l-131 -288h-99z" />
    <glyph glyph-name="uni00B5" unicode="&#xb5;" horiz-adv-x="1124" 
d="M91 -432v1432h146v-532q0 -100 44 -179q43 -83 118 -131t165 -48q92 0 163 49q73 48 114 129.5t41 179.5v532h146v-1000h-146v168q-60 -93 -146.5 -144t-189.5 -51q-96 0 -176 45t-133 121v-571h-146z" />
    <glyph glyph-name="paragraph" unicode="&#xb6;" horiz-adv-x="919" 
d="M450 718q-99 0 -179 46q-81 46 -128.5 124t-47.5 171q0 94 48 172q49 78 130 123.5t177 45.5h146v-1702h-146v1020zM677 -302v1702h146v-1702h-146z" />
    <glyph glyph-name="periodcentered" unicode="&#xb7;" horiz-adv-x="358" 
d="M177 520q-34 0 -58 23.5t-24 57.5q0 32 24 55.5t58 23.5q35 0 60 -23.5t25 -55.5q0 -34 -25 -57.5t-60 -23.5z" />
    <glyph glyph-name="cedilla" unicode="&#xb8;" horiz-adv-x="1264" 
d="M619 -367q-66 -17 -125.5 16t-77.5 96l91 23q8 -27 33.5 -41t54.5 -7q29 8 44 32.5t7 52.5t-33 41.5t-55 7.5l-100 -13l128 214l82 -45l-44 -73q40 -10 71 -39t42 -70q18 -64 -16.5 -121t-101.5 -74z" />
    <glyph glyph-name="ordmasculine" unicode="&#xba;" horiz-adv-x="801" 
d="M393 734q-146 0 -236 93t-90 240t90 239.5t236 92.5q147 0 236.5 -92.5t89.5 -239.5t-89.5 -240t-236.5 -93zM152 1067q0 -109 66.5 -178t174.5 -69q109 0 175.5 69t66.5 178q0 108 -66.5 177t-175.5 69q-108 0 -174.5 -69t-66.5 -177z" />
    <glyph glyph-name="guillemotright" unicode="&#xbb;" horiz-adv-x="1091" 
d="M457 261l312 340l-312 338h159l314 -338l-314 -340h-159zM110 261l312 340l-312 338h159l314 -338l-314 -340h-159z" />
    <glyph glyph-name="questiondown" unicode="&#xbf;" horiz-adv-x="1042" 
d="M588 945q0 -33 -24.5 -56t-59.5 -23t-59.5 23t-24.5 56t25 57t59 24t59 -24t25 -57zM95 -26q0 113 57 208.5t157 147.5q54 28 85.5 78.5t31.5 110.5v185h146v-185q0 -99 -51 -182t-142 -131q-65 -32 -101.5 -94t-36.5 -138q0 -111 79 -186t194 -75t194 75t79 186h146
q0 -110 -57 -202t-153 -145.5t-209 -53.5q-116 0 -211 54q-98 54 -153 145.5t-55 201.5z" />
    <glyph glyph-name="Agrave" unicode="&#xc0;" horiz-adv-x="1433" 
d="M91 0l532 1400h181l533 -1400h-156l-140 367h-655l-140 -367h-155zM439 507h549l-274 721zM546 1998h146l84 -288h-97z" />
    <glyph glyph-name="Aacute" unicode="&#xc1;" horiz-adv-x="1433" 
d="M91 0l532 1400h181l533 -1400h-156l-140 367h-655l-140 -367h-155zM439 507h549l-274 721zM623 1710l84 288h146l-131 -288h-99z" />
    <glyph glyph-name="Acircumflex" unicode="&#xc2;" horiz-adv-x="1433" 
d="M91 0l532 1400h181l533 -1400h-156l-140 367h-655l-140 -367h-155zM431 1710l201 288h159l202 -288h-140l-142 203l-140 -203h-140zM439 507h549l-274 721z" />
    <glyph glyph-name="Atilde" unicode="&#xc3;" horiz-adv-x="1433" 
d="M91 0l532 1400h181l533 -1400h-156l-140 367h-655l-140 -367h-155zM396 1830q15 53 58.5 85t104.5 32q47 0 114 -36.5t128.5 -72.5t95.5 -36q32 0 46.5 34t1.5 64l100 30q20 -58 5 -112q-17 -53 -61 -85t-105 -32q-36 0 -86.5 25t-92 54t-86 50t-71.5 15q-28 -6 -43 -34
t-4 -64l-100 -26q-20 58 -5 109zM439 507h549l-274 721z" />
    <glyph glyph-name="Adieresis" unicode="&#xc4;" horiz-adv-x="1433" 
d="M91 0l532 1400h181l533 -1400h-156l-140 367h-655l-140 -367h-155zM439 507h549l-274 721zM464 1787q0 33 25.5 57t60.5 24t59.5 -24t24.5 -57q0 -34 -24.5 -56.5t-59.5 -22.5t-60.5 23t-25.5 56zM794 1787q0 33 24.5 57t60.5 24q35 0 60 -24t25 -57t-25 -56t-60 -23
q-36 0 -60.5 22.5t-24.5 56.5z" />
    <glyph glyph-name="Aring" unicode="&#xc5;" horiz-adv-x="1433" 
d="M91 0l532 1400h181l533 -1400h-156l-140 367h-655l-140 -367h-155zM439 507h549l-274 721zM554 1855q0 66 48 112t118 46q68 0 117 -46.5t49 -111.5q0 -67 -49 -113.5t-117 -46.5q-69 0 -117.5 47t-48.5 113zM637 1855q0 -34 24.5 -58t58.5 -24q35 0 59.5 24t24.5 58
q0 32 -24.5 55t-59.5 23q-34 0 -58.5 -23t-24.5 -55z" />
    <glyph glyph-name="AE" unicode="&#xc6;" horiz-adv-x="1908" 
d="M1014 803h650v-140h-650v-523h778v-140h-925v367h-477l-140 -367h-155l532 1400h1165v-140h-778v-457zM443 507h424v721h-149z" />
    <glyph glyph-name="Ccedilla" unicode="&#xc7;" horiz-adv-x="1516" 
d="M817 -404q-66 -17 -125.5 16t-77.5 96l91 23q8 -27 33.5 -41t54.5 -7q29 8 44 32.5t7 52.5t-33 41.5t-55 7.5l-100 -13l100 167q-198 11 -349 107.5t-232.5 257.5t-81.5 364q0 158 51.5 293.5t144 232t226.5 151t293 54.5q193 0 345 -77t247 -217l-127 -65
q-78 105 -197.5 162.5t-269.5 57.5q-260 0 -420 -165.5t-160 -427.5t160 -427.5t420 -165.5q150 0 269.5 58t198.5 163l124 -64q-86 -128 -223 -204.5t-310 -87.5l-43 -71q40 -10 71 -39t42 -70q18 -64 -16.5 -121t-101.5 -74z" />
    <glyph glyph-name="Egrave" unicode="&#xc8;" horiz-adv-x="1171" 
d="M130 0v1400h925v-140h-778v-457h650v-140h-650v-523h778v-140h-925zM471 1998h146l84 -288h-97z" />
    <glyph glyph-name="Eacute" unicode="&#xc9;" horiz-adv-x="1171" 
d="M130 0v1400h925v-140h-778v-457h650v-140h-650v-523h778v-140h-925zM488 1710l84 288h146l-131 -288h-99z" />
    <glyph glyph-name="Ecircumflex" unicode="&#xca;" horiz-adv-x="1171" 
d="M130 0v1400h925v-140h-778v-457h650v-140h-650v-523h778v-140h-925zM331 1710l201 288h159l202 -288h-140l-142 203l-140 -203h-140z" />
    <glyph glyph-name="Edieresis" unicode="&#xcb;" horiz-adv-x="1171" 
d="M130 0v1400h925v-140h-778v-457h650v-140h-650v-523h778v-140h-925zM376 1769q0 33 25.5 57t60.5 24t59.5 -24t24.5 -57q0 -34 -24.5 -56.5t-59.5 -22.5t-60.5 23t-25.5 56zM706 1769q0 33 24.5 57t60.5 24q35 0 60 -24t25 -57t-25 -56t-60 -23q-36 0 -60.5 22.5
t-24.5 56.5z" />
    <glyph glyph-name="Igrave" unicode="&#xcc;" horiz-adv-x="440" 
d="M128 0v1400h146v-1400h-146zM31 1998h146l84 -288h-97z" />
    <glyph glyph-name="Iacute" unicode="&#xcd;" horiz-adv-x="460" 
d="M158 0v1400h146v-1400h-146zM167 1710l84 288h146l-131 -288h-99z" />
    <glyph glyph-name="Icircumflex" unicode="&#xce;" horiz-adv-x="496" 
d="M169 0v1400h146v-1400h-146zM-32 1710l201 288h159l202 -288h-140l-142 203l-140 -203h-140z" />
    <glyph glyph-name="Idieresis" unicode="&#xcf;" horiz-adv-x="493" 
d="M156 0v1400h146v-1400h-146zM-4 1760q0 33 25.5 57t60.5 24t59.5 -24t24.5 -57q0 -34 -24.5 -56.5t-59.5 -22.5t-60.5 23t-25.5 56zM326 1760q0 33 24.5 57t60.5 24q35 0 60 -24t25 -57t-25 -56t-60 -23q-36 0 -60.5 22.5t-24.5 56.5z" />
    <glyph glyph-name="Eth" unicode="&#xd0;" horiz-adv-x="1640" 
d="M381 0v630h-278v113h278v657h499q204 0 360 -90t240 -249.5t84 -361.5t-84 -361t-240 -248.5t-360 -89.5h-499zM528 140l354 -1q247 0 398 155.5t151 403.5t-151 404.5t-398 156.5l-354 1v-517h281v-113h-281v-490z" />
    <glyph glyph-name="Ntilde" unicode="&#xd1;" horiz-adv-x="1344" 
d="M130 0v1400h159l772 -1147v1147h147v-1400h-158l-773 1147v-1147h-147zM316 1826q15 53 58.5 85t104.5 32q47 0 114 -36.5t128.5 -72.5t95.5 -36q32 0 46.5 34t1.5 64l100 30q20 -58 5 -112q-17 -53 -61 -85t-105 -32q-36 0 -86.5 25t-92 54t-86 50t-71.5 15
q-28 -6 -43 -34t-4 -64l-100 -26q-20 58 -5 109z" />
    <glyph glyph-name="Ograve" unicode="&#xd2;" horiz-adv-x="1617" 
d="M806 -31q-159 0 -293 54.5t-226.5 151t-144 232t-51.5 293.5t51.5 293.5t144 232t226.5 151t293 54.5q213 0 376 -93.5t251 -259.5t88 -378t-88 -378t-251 -259.5t-376 -93.5zM224 699q0 -262 160 -427.5t420 -165.5q173 0 306 76t204 210.5t71 306.5t-71 306.5
t-204 210.5t-306 76q-260 0 -420 -165.5t-160 -427.5zM679 1998h146l84 -288h-97z" />
    <glyph glyph-name="Oacute" unicode="&#xd3;" horiz-adv-x="1617" 
d="M806 -31q-159 0 -293 54.5t-226.5 151t-144 232t-51.5 293.5t51.5 293.5t144 232t226.5 151t293 54.5q213 0 376 -93.5t251 -259.5t88 -378t-88 -378t-251 -259.5t-376 -93.5zM224 699q0 -262 160 -427.5t420 -165.5q173 0 306 76t204 210.5t71 306.5t-71 306.5
t-204 210.5t-306 76q-260 0 -420 -165.5t-160 -427.5zM705 1710l84 288h146l-131 -288h-99z" />
    <glyph glyph-name="Ocircumflex" unicode="&#xd4;" horiz-adv-x="1617" 
d="M806 -31q-159 0 -293 54.5t-226.5 151t-144 232t-51.5 293.5t51.5 293.5t144 232t226.5 151t293 54.5q213 0 376 -93.5t251 -259.5t88 -378t-88 -378t-251 -259.5t-376 -93.5zM224 699q0 -262 160 -427.5t420 -165.5q173 0 306 76t204 210.5t71 306.5t-71 306.5
t-204 210.5t-306 76q-260 0 -420 -165.5t-160 -427.5zM521 1710l201 288h159l202 -288h-140l-142 203l-140 -203h-140z" />
    <glyph glyph-name="Otilde" unicode="&#xd5;" horiz-adv-x="1617" 
d="M806 -31q-159 0 -293 54.5t-226.5 151t-144 232t-51.5 293.5t51.5 293.5t144 232t226.5 151t293 54.5q213 0 376 -93.5t251 -259.5t88 -378t-88 -378t-251 -259.5t-376 -93.5zM224 699q0 -262 160 -427.5t420 -165.5q173 0 306 76t204 210.5t71 306.5t-71 306.5
t-204 210.5t-306 76q-260 0 -420 -165.5t-160 -427.5zM444 1818q15 53 58.5 85t104.5 32q47 0 114 -36.5t128.5 -72.5t95.5 -36q32 0 46.5 34t1.5 64l100 30q20 -58 5 -112q-17 -53 -61 -85t-105 -32q-36 0 -86.5 25t-92 54t-86 50t-71.5 15q-28 -6 -43 -34t-4 -64l-100 -26
q-20 58 -5 109z" />
    <glyph glyph-name="Odieresis" unicode="&#xd6;" horiz-adv-x="1617" 
d="M806 -31q-159 0 -293 54.5t-226.5 151t-144 232t-51.5 293.5t51.5 293.5t144 232t226.5 151t293 54.5q213 0 376 -93.5t251 -259.5t88 -378t-88 -378t-251 -259.5t-376 -93.5zM224 699q0 -262 160 -427.5t420 -165.5q173 0 306 76t204 210.5t71 306.5t-71 306.5
t-204 210.5t-306 76q-260 0 -420 -165.5t-160 -427.5zM545 1760q0 33 25.5 57t60.5 24t59.5 -24t24.5 -57q0 -34 -24.5 -56.5t-59.5 -22.5t-60.5 23t-25.5 56zM875 1760q0 33 24.5 57t60.5 24q35 0 60 -24t25 -57t-25 -56t-60 -23q-36 0 -60.5 22.5t-24.5 56.5z" />
    <glyph glyph-name="multiply" unicode="&#xd7;" horiz-adv-x="1033" 
d="M198 197l-103 99l316 304l-316 304l103 99l317 -304l318 304l104 -99l-319 -304l319 -304l-104 -99l-318 304z" />
    <glyph glyph-name="Oslash" unicode="&#xd8;" horiz-adv-x="1617" 
d="M806 -31q-30 0 -45 1l-42 -179h-146l47 199q-244 56 -386.5 247.5t-142.5 462.5q0 158 51.5 293.5t144 232t226.5 151t293 54.5q80 0 149 -13l41 176h147l-50 -214q200 -78 314 -258.5t114 -421.5q0 -212 -88 -378t-251 -259.5t-376 -93.5zM224 699q0 -220 115 -374.5
t312 -201.5l272 1159q-54 10 -119 10q-260 0 -420 -165.5t-160 -427.5zM793 106h11q173 0 306 76t204 210.5t71 306.5q0 189 -86 332t-239 210z" />
    <glyph glyph-name="Ugrave" unicode="&#xd9;" horiz-adv-x="1402" 
d="M698 -26q-176 0 -303 82q-127 81 -196 219.5t-69 308.5v816h147v-816q0 -209 114 -339.5t307 -130.5q139 0 231 65q92 64 141 170t49 235v816h147v-816q0 -173 -69 -311t-199 -218.5t-300 -80.5zM512 1998h146l84 -288h-97z" />
    <glyph glyph-name="Uacute" unicode="&#xda;" horiz-adv-x="1402" 
d="M698 -26q-176 0 -303 82q-127 81 -196 219.5t-69 308.5v816h147v-816q0 -209 114 -339.5t307 -130.5q139 0 231 65q92 64 141 170t49 235v816h147v-816q0 -173 -69 -311t-199 -218.5t-300 -80.5zM581 1710l84 288h146l-131 -288h-99z" />
    <glyph glyph-name="Ucircumflex" unicode="&#xdb;" horiz-adv-x="1402" 
d="M698 -26q-176 0 -303 82q-127 81 -196 219.5t-69 308.5v816h147v-816q0 -209 114 -339.5t307 -130.5q139 0 231 65q92 64 141 170t49 235v816h147v-816q0 -173 -69 -311t-199 -218.5t-300 -80.5zM420 1710l201 288h159l202 -288h-140l-142 203l-140 -203h-140z" />
    <glyph glyph-name="Udieresis" unicode="&#xdc;" horiz-adv-x="1402" 
d="M698 -26q-176 0 -303 82q-127 81 -196 219.5t-69 308.5v816h147v-816q0 -209 114 -339.5t307 -130.5q139 0 231 65q92 64 141 170t49 235v816h147v-816q0 -173 -69 -311t-199 -218.5t-300 -80.5zM452 1760q0 33 25.5 57t60.5 24t59.5 -24t24.5 -57q0 -34 -24.5 -56.5
t-59.5 -22.5t-60.5 23t-25.5 56zM782 1760q0 33 24.5 57t60.5 24q35 0 60 -24t25 -57t-25 -56t-60 -23q-36 0 -60.5 22.5t-24.5 56.5z" />
    <glyph glyph-name="Yacute" unicode="&#xdd;" horiz-adv-x="1279" 
d="M564 0v634l-492 766h173l392 -613l394 613h172l-493 -766v-634h-146zM518 1710l84 288h146l-131 -288h-99z" />
    <glyph glyph-name="Thorn" unicode="&#xde;" horiz-adv-x="1156" 
d="M130 -243v1642h147v-242h375q86 0 161.5 -26t135.5 -77t95 -135t36 -191q-1 -107 -36 -191.5t-95 -135.5t-135.5 -77t-161.5 -26h-375v-541h-147zM277 421l363 2q43 0 84 9.5t82 32t71 56t48.5 87t17.5 120.5q1 82 -26.5 144t-74 95.5t-97 49t-105.5 15.5h-363v-611z" />
    <glyph glyph-name="germandbls" unicode="&#xdf;" horiz-adv-x="1045" 
d="M592 -28q-123 0 -214 40v138q123 -41 209 -42t139 40t77 105t24 152q0 73 -21.5 129.5t-55 91t-79.5 56.5t-89.5 30.5t-90.5 8.5h-96v135h90q117 0 186.5 58.5t69.5 184.5q0 107 -54 166t-162 59q-143 0 -195.5 -78.5t-52.5 -251.5v-1218h-142v1256q0 202 97 314.5
t293 112.5q72 0 135 -21.5t114 -64t80.5 -113t29.5 -161.5q0 -202 -139 -304q224 -109 224 -390q0 -187 -104.5 -310t-272.5 -123z" />
    <glyph glyph-name="agrave" unicode="&#xe0;" horiz-adv-x="1211" 
d="M587 -26q-231 0 -373 147t-142 379t142 379t373 147q237 0 382 -156v130h146v-1000h-146v130q-145 -156 -382 -156zM206 500q0 -172 105 -281t276 -109t276 109t105 281t-105 281t-276 109t-276 -109t-105 -281zM463 1564h146l84 -288h-97z" />
    <glyph glyph-name="aacute" unicode="&#xe1;" horiz-adv-x="1211" 
d="M587 -26q-231 0 -373 147t-142 379t142 379t373 147q237 0 382 -156v130h146v-1000h-146v130q-145 -156 -382 -156zM206 500q0 -172 105 -281t276 -109t276 109t105 281t-105 281t-276 109t-276 -109t-105 -281zM495 1308l84 288h146l-131 -288h-99z" />
    <glyph glyph-name="acircumflex" unicode="&#xe2;" horiz-adv-x="1211" 
d="M587 -26q-231 0 -373 147t-142 379t142 379t373 147q237 0 382 -156v130h146v-1000h-146v130q-145 -156 -382 -156zM206 500q0 -172 105 -281t276 -109t276 109t105 281t-105 281t-276 109t-276 -109t-105 -281zM326 1315l201 288h159l202 -288h-140l-142 203l-140 -203
h-140z" />
    <glyph glyph-name="atilde" unicode="&#xe3;" horiz-adv-x="1211" 
d="M587 -26q-231 0 -373 147t-142 379t142 379t373 147q237 0 382 -156v130h146v-1000h-146v130q-145 -156 -382 -156zM206 500q0 -172 105 -281t276 -109t276 109t105 281t-105 281t-276 109t-276 -109t-105 -281zM281 1441q15 53 58.5 85t104.5 32q37 0 87.5 -22.5
t91.5 -50t86.5 -50t72.5 -22.5q32 0 46.5 34t1.5 64l100 30q20 -58 5 -112q-17 -53 -61 -85t-105 -32q-36 0 -86.5 25t-92 54t-86 50t-71.5 15q-28 -6 -43 -34t-4 -64l-100 -26q-20 58 -5 109z" />
    <glyph glyph-name="adieresis" unicode="&#xe4;" horiz-adv-x="1211" 
d="M587 -26q-231 0 -373 147t-142 379t142 379t373 147q237 0 382 -156v130h146v-1000h-146v130q-145 -156 -382 -156zM206 500q0 -172 105 -281t276 -109t276 109t105 281t-105 281t-276 109t-276 -109t-105 -281zM366 1388q0 33 25.5 57t60.5 24t59.5 -24t24.5 -57
q0 -34 -24.5 -56.5t-59.5 -22.5t-60.5 23t-25.5 56zM696 1388q0 33 24.5 57t60.5 24q35 0 60 -24t25 -57t-25 -56t-60 -23q-36 0 -60.5 22.5t-24.5 56.5z" />
    <glyph glyph-name="aring" unicode="&#xe5;" horiz-adv-x="1211" 
d="M587 -26q-231 0 -373 147t-142 379t142 379t373 147q237 0 382 -156v130h146v-1000h-146v130q-145 -156 -382 -156zM206 500q0 -172 105 -281t276 -109t276 109t105 281t-105 281t-276 109t-276 -109t-105 -281zM464 1464q0 66 48 112t118 46q68 0 117 -46.5t49 -111.5
q0 -67 -49 -113.5t-117 -46.5q-69 0 -117.5 47t-48.5 113zM547 1464q0 -34 24.5 -58t58.5 -24q35 0 59.5 24t24.5 58q0 32 -24.5 55t-59.5 23q-34 0 -58.5 -23t-24.5 -55z" />
    <glyph glyph-name="ae" unicode="&#xe6;" horiz-adv-x="2090" 
d="M590 -26q-231 0 -373 147t-142 379t142 379t373 147q237 0 382 -156v130h146v-129q144 155 381 155q231 0 373 -147t142 -379v-53h-893q16 -151 118.5 -244t259.5 -93q116 0 204 53t134 145l135 -31q-56 -140 -180.5 -221.5t-292.5 -81.5q-237 0 -381 155v-129h-146v130
q-145 -156 -382 -156zM209 500q0 -172 105 -281t276 -109t276 109t105 281t-105 281t-276 109t-276 -109t-105 -281zM1121 560h755q-18 148 -120 239t-257 91t-257.5 -91t-120.5 -239z" />
    <glyph glyph-name="ccedilla" unicode="&#xe7;" horiz-adv-x="1086" 
d="M634 -367q-66 -17 -125.5 16t-77.5 96l91 23q8 -27 33.5 -41t54.5 -7q29 8 44 32.5t7 52.5t-33 41.5t-55 7.5l-100 -13l80 134q-218 11 -349.5 156.5t-131.5 368.5q0 232 142 379t373 147q168 -1 292.5 -82.5t180.5 -221.5l-135 -31q-46 92 -134 145t-204 53
q-171 1 -276 -108t-105 -281t105 -281t276 -109q116 0 204 53t134 145l135 -31q-49 -123 -152 -201.5t-244 -96.5l-25 -42q40 -10 71 -39t42 -70q18 -64 -16.5 -121t-101.5 -74z" />
    <glyph glyph-name="egrave" unicode="&#xe8;" 
d="M587 -26q-231 0 -373 147t-142 379t142 379t373 147t373 -147t142 -379v-53h-893q16 -151 118.5 -244t259.5 -93q116 0 204 53t134 145l135 -31q-56 -140 -180.5 -221.5t-292.5 -81.5zM209 560h755q-18 148 -120 239t-257 91t-257.5 -91t-120.5 -239zM498 1592h146
l84 -288h-97z" />
    <glyph glyph-name="eacute" unicode="&#xe9;" 
d="M587 -26q-231 0 -373 147t-142 379t142 379t373 147t373 -147t142 -379v-53h-893q16 -151 118.5 -244t259.5 -93q116 0 204 53t134 145l135 -31q-56 -140 -180.5 -221.5t-292.5 -81.5zM209 560h755q-18 148 -120 239t-257 91t-257.5 -91t-120.5 -239zM487 1302l84 288
h146l-131 -288h-99z" />
    <glyph glyph-name="ecircumflex" unicode="&#xea;" 
d="M587 -26q-231 0 -373 147t-142 379t142 379t373 147t373 -147t142 -379v-53h-893q16 -151 118.5 -244t259.5 -93q116 0 204 53t134 145l135 -31q-56 -140 -180.5 -221.5t-292.5 -81.5zM209 560h755q-18 148 -120 239t-257 91t-257.5 -91t-120.5 -239zM308 1307l201 288
h159l202 -288h-140l-142 203l-140 -203h-140z" />
    <glyph glyph-name="edieresis" unicode="&#xeb;" 
d="M587 -26q-231 0 -373 147t-142 379t142 379t373 147t373 -147t142 -379v-53h-893q16 -151 118.5 -244t259.5 -93q116 0 204 53t134 145l135 -31q-56 -140 -180.5 -221.5t-292.5 -81.5zM209 560h755q-18 148 -120 239t-257 91t-257.5 -91t-120.5 -239zM367 1359
q0 33 25.5 57t60.5 24t59.5 -24t24.5 -57q0 -34 -24.5 -56.5t-59.5 -22.5t-60.5 23t-25.5 56zM697 1359q0 33 24.5 57t60.5 24q35 0 60 -24t25 -57t-25 -56t-60 -23q-36 0 -60.5 22.5t-24.5 56.5z" />
    <glyph glyph-name="igrave" unicode="&#xec;" horiz-adv-x="386" 
d="M103 0v1000h147v-1000h-147zM1 1592h146l84 -288h-97z" />
    <glyph glyph-name="iacute" unicode="&#xed;" horiz-adv-x="406" 
d="M130 0v1000h147v-1000h-147zM143 1310l84 288h146l-131 -288h-99z" />
    <glyph glyph-name="icircumflex" unicode="&#xee;" horiz-adv-x="241" 
d="M132 0v1000h147v-1000h-147zM-62 1288l201 288h159l202 -288h-140l-142 203l-140 -203h-140z" />
    <glyph glyph-name="idieresis" unicode="&#xef;" horiz-adv-x="433" 
d="M140 0v1000h147v-1000h-147zM-34 1385q0 33 25.5 57t60.5 24t59.5 -24t24.5 -57q0 -34 -24.5 -56.5t-59.5 -22.5t-60.5 23t-25.5 56zM296 1385q0 33 24.5 57t60.5 24q35 0 60 -24t25 -57t-25 -56t-60 -23q-36 0 -60.5 22.5t-24.5 56.5z" />
    <glyph glyph-name="eth" unicode="&#xf0;" horiz-adv-x="1222" 
d="M627 110q171 0 276 109t105 281t-105 281t-276 109t-276 -109t-105 -281t105 -281t276 -109zM112 500q0 232 142 379t373 147q193 -2 326 -112q-66 190 -195 310l-193 -112l-57 98l150 87q-111 62 -240 62v140q206 0 377 -123l177 102l56 -98l-142 -82q42 -42 78 -90
q103 -136 160 -313.5t59 -375.5q0 -160 -66 -283q-67 -124 -186.5 -193t-272.5 -69h-31q-231 0 -373 147t-142 379z" />
    <glyph glyph-name="ntilde" unicode="&#xf1;" horiz-adv-x="1137" 
d="M130 0v1000h147v-138q57 78 145.5 122t191.5 44q119 0 216 -55q99 -55 155 -149t56 -205v-619h-146v591q0 82 -41 150t-112 107t-156 39q-87 0 -154 -40q-72 -40 -113.5 -107.5t-41.5 -148.5v-591h-147zM255 1426q15 53 58.5 85t104.5 32q47 0 114 -36.5t128.5 -72.5
t95.5 -36q32 0 46.5 34t1.5 64l100 30q20 -58 5 -112q-17 -53 -61 -85t-105 -32q-36 0 -86.5 25t-92 54t-86 50t-71.5 15q-28 -6 -43 -34t-4 -64l-100 -26q-20 58 -5 109z" />
    <glyph glyph-name="ograve" unicode="&#xf2;" 
d="M587 -26q-231 0 -373 147t-142 379t142 379t373 147t373 -147t142 -379t-142 -379t-373 -147zM206 500q0 -172 105 -281t276 -109t276 109t105 281t-105 281t-276 109t-276 -109t-105 -281zM505 1591h146l84 -288h-97z" />
    <glyph glyph-name="oacute" unicode="&#xf3;" 
d="M587 -26q-231 0 -373 147t-142 379t142 379t373 147t373 -147t142 -379t-142 -379t-373 -147zM206 500q0 -172 105 -281t276 -109t276 109t105 281t-105 281t-276 109t-276 -109t-105 -281zM450 1286l84 288h146l-131 -288h-99z" />
    <glyph glyph-name="ocircumflex" unicode="&#xf4;" 
d="M587 -26q-231 0 -373 147t-142 379t142 379t373 147t373 -147t142 -379t-142 -379t-373 -147zM206 500q0 -172 105 -281t276 -109t276 109t105 281t-105 281t-276 109t-276 -109t-105 -281zM317 1288l201 288h159l202 -288h-140l-142 203l-140 -203h-140z" />
    <glyph glyph-name="otilde" unicode="&#xf5;" 
d="M587 -26q-231 0 -373 147t-142 379t142 379t373 147t373 -147t142 -379t-142 -379t-373 -147zM206 500q0 -172 105 -281t276 -109t276 109t105 281t-105 281t-276 109t-276 -109t-105 -281zM261 1425q15 53 58.5 85t104.5 32q37 0 87.5 -22.5t91.5 -50t86.5 -50
t72.5 -22.5q32 0 46.5 34t1.5 64l100 30q20 -58 5 -112q-17 -53 -61 -85t-105 -32q-36 0 -86.5 25t-92 54t-86 50t-71.5 15q-28 -6 -43 -34t-4 -64l-100 -26q-20 58 -5 109z" />
    <glyph glyph-name="odieresis" unicode="&#xf6;" 
d="M587 -26q-231 0 -373 147t-142 379t142 379t373 147t373 -147t142 -379t-142 -379t-373 -147zM206 500q0 -172 105 -281t276 -109t276 109t105 281t-105 281t-276 109t-276 -109t-105 -281zM331 1385q0 33 25.5 57t60.5 24t59.5 -24t24.5 -57q0 -34 -24.5 -56.5
t-59.5 -22.5t-60.5 23t-25.5 56zM661 1385q0 33 24.5 57t60.5 24q35 0 60 -24t25 -57t-25 -56t-60 -23q-36 0 -60.5 22.5t-24.5 56.5z" />
    <glyph glyph-name="divide" unicode="&#xf7;" horiz-adv-x="1236" 
d="M95 530v140h1045v-140h-1045zM510 236q0 42 31 73.5t76 31.5q43 0 76.5 -32t33.5 -73q0 -42 -33 -72t-77 -30q-46 0 -76.5 29.5t-30.5 72.5zM510 961q0 42 31 73.5t76 31.5q43 0 75 -32t32 -73q0 -42 -32 -72.5t-75 -30.5q-46 0 -76.5 30t-30.5 73z" />
    <glyph glyph-name="oslash" unicode="&#xf8;" 
d="M587 -26q-41 0 -73 4l-48 -149h-146l59 183q-144 56 -225.5 185.5t-81.5 302.5q0 232 142 379t373 147q53 0 113 -10l43 134h147l-57 -178q127 -63 198 -187t71 -285q0 -232 -142 -379t-373 -147zM206 500q0 -124 57 -218.5t158 -138.5l237 742q-38 5 -71 5
q-171 0 -276 -109t-105 -281zM557 111q10 -1 30 -1q171 0 276 109t105 281q0 112 -47 200.5t-131 137.5z" />
    <glyph glyph-name="ugrave" unicode="&#xf9;" horiz-adv-x="1098" 
d="M518 -26q-118 0 -215 55q-99 55 -155.5 148.5t-56.5 205.5v617h146v-589q0 -81 42 -149q43 -68 113.5 -107.5t154.5 -39.5q130 0 218.5 85.5t88.5 210.5v589h147l1 -1000h-147l-1 140q-56 -77 -144.5 -121.5t-191.5 -44.5zM424 1590h146l84 -288h-97z" />
    <glyph glyph-name="uacute" unicode="&#xfa;" horiz-adv-x="1098" 
d="M518 -26q-118 0 -215 55q-99 55 -155.5 148.5t-56.5 205.5v617h146v-589q0 -81 42 -149q43 -68 113.5 -107.5t154.5 -39.5q130 0 218.5 85.5t88.5 210.5v589h147l1 -1000h-147l-1 140q-56 -77 -144.5 -121.5t-191.5 -44.5zM423 1294l84 288h146l-131 -288h-99z" />
    <glyph glyph-name="ucircumflex" unicode="&#xfb;" horiz-adv-x="1098" 
d="M518 -26q-118 0 -215 55q-99 55 -155.5 148.5t-56.5 205.5v617h146v-589q0 -81 42 -149q43 -68 113.5 -107.5t154.5 -39.5q130 0 218.5 85.5t88.5 210.5v589h147l1 -1000h-147l-1 140q-56 -77 -144.5 -121.5t-191.5 -44.5zM288 1309l201 288h159l202 -288h-140l-142 203
l-140 -203h-140z" />
    <glyph glyph-name="udieresis" unicode="&#xfc;" horiz-adv-x="1098" 
d="M518 -26q-118 0 -215 55q-99 55 -155.5 148.5t-56.5 205.5v617h146v-589q0 -81 42 -149q43 -68 113.5 -107.5t154.5 -39.5q130 0 218.5 85.5t88.5 210.5v589h147l1 -1000h-147l-1 140q-56 -77 -144.5 -121.5t-191.5 -44.5zM298 1386q0 33 25.5 57t60.5 24t59.5 -24
t24.5 -57q0 -34 -24.5 -56.5t-59.5 -22.5t-60.5 23t-25.5 56zM628 1386q0 33 24.5 57t60.5 24q35 0 60 -24t25 -57t-25 -56t-60 -23q-36 0 -60.5 22.5t-24.5 56.5z" />
    <glyph glyph-name="yacute" unicode="&#xfd;" horiz-adv-x="1099" 
d="M276 -500l190 500l-375 1000h159l289 -807l310 807h154l-571 -1500h-156zM423 1308l84 288h146l-131 -288h-99z" />
    <glyph glyph-name="thorn" unicode="&#xfe;" horiz-adv-x="1250" 
d="M130 -501v1900h147v-541q62 77 163 121.5t219 45.5q231 0 373 -147t142 -379t-142 -379t-373 -147q-118 1 -219 45.5t-163 121.5v-641h-147zM278 499q0 -172 105 -281t276 -109t276 109t105 281t-105 281t-276 109t-276 -109t-105 -281z" />
    <glyph glyph-name="ydieresis" unicode="&#xff;" horiz-adv-x="1099" 
d="M276 -500l190 500l-375 1000h159l289 -807l310 807h154l-571 -1500h-156zM328 1356q0 33 25.5 57t60.5 24t59.5 -24t24.5 -57q0 -34 -24.5 -56.5t-59.5 -22.5t-60.5 23t-25.5 56zM658 1356q0 33 24.5 57t60.5 24q35 0 60 -24t25 -57t-25 -56t-60 -23q-36 0 -60.5 22.5
t-24.5 56.5z" />
    <glyph glyph-name="Amacron" unicode="&#x100;" horiz-adv-x="1433" 
d="M91 0l532 1400h181l533 -1400h-156l-140 367h-655l-140 -367h-155zM357 1717v113h706v-113h-706zM439 507h549l-274 721z" />
    <glyph glyph-name="amacron" unicode="&#x101;" horiz-adv-x="1211" 
d="M587 -26q-231 0 -373 147t-142 379t142 379t373 147q237 0 382 -156v130h146v-1000h-146v130q-145 -156 -382 -156zM206 500q0 -172 105 -281t276 -109t276 109t105 281t-105 281t-276 109t-276 -109t-105 -281zM246 1303v113h706v-113h-706z" />
    <glyph glyph-name="Abreve" unicode="&#x102;" horiz-adv-x="1433" 
d="M91 0l532 1400h181l533 -1400h-156l-140 367h-655l-140 -367h-155zM366 1906h104q0 -98 71.5 -165t171.5 -67q102 0 172 67t70 165h104q0 -92 -47 -168q-48 -77 -127 -120.5t-172 -43.5q-96 0 -174 45q-80 45 -126.5 121t-46.5 166zM439 507h549l-274 721z" />
    <glyph glyph-name="abreve" unicode="&#x103;" horiz-adv-x="1211" 
d="M587 -26q-231 0 -373 147t-142 379t142 379t373 147q237 0 382 -156v130h146v-1000h-146v130q-145 -156 -382 -156zM206 500q0 -172 105 -281t276 -109t276 109t105 281t-105 281t-276 109t-276 -109t-105 -281zM252 1591h104q0 -98 71.5 -165t171.5 -67q102 0 172 67
t70 165h104q0 -92 -47 -168q-48 -77 -127 -120.5t-172 -43.5q-96 0 -174 45q-80 45 -126.5 121t-46.5 166z" />
    <glyph glyph-name="Aogonek" unicode="&#x104;" horiz-adv-x="1433" 
d="M91 0l532 1400h181l533 -1400h-18q-137 -131 -154 -149q-39 -43 -39 -77q0 -29 21 -51t56 -24q42 0 75 29t33 73h105q0 -88 -63 -147.5t-155 -59.5q-82 1 -135.5 55.5t-53.5 128.5t56 129l111 106l-135 354h-655l-140 -367h-155zM439 507h549l-274 721z" />
    <glyph glyph-name="aogonek" unicode="&#x105;" horiz-adv-x="1205" 
d="M587 -26q-231 0 -373 147t-142 379t142 379t373 147q237 0 382 -156v130h146v-1000h-24q-137 -131 -154 -149q-39 -43 -39 -77q0 -29 21 -51t56 -24q42 0 75 29t33 73h105q0 -88 -63 -147.5t-155 -59.5q-82 1 -135.5 55.5t-53.5 128.5t56 129l132 127v96
q-145 -156 -382 -156zM206 500q0 -172 105 -281t276 -109t276 109t105 281t-105 281t-276 109t-276 -109t-105 -281z" />
    <glyph glyph-name="Cacute" unicode="&#x106;" horiz-adv-x="1516" 
d="M808 -31q-159 0 -293 54.5t-226.5 151t-144 232t-51.5 293.5t51.5 293.5t144 232t226.5 151t293 54.5q193 0 345 -77t247 -217l-127 -65q-78 105 -197.5 162.5t-269.5 57.5q-260 0 -420 -165.5t-160 -427.5t160 -427.5t420 -165.5q150 0 269.5 58t198.5 163l124 -64
q-93 -139 -245.5 -216.5t-344.5 -77.5zM665 1710l84 288h146l-131 -288h-99z" />
    <glyph glyph-name="cacute" unicode="&#x107;" horiz-adv-x="1086" 
d="M587 -26q-231 0 -373 147t-142 379t142 379t373 147q168 -1 292.5 -82.5t180.5 -221.5l-135 -31q-46 92 -134 145t-204 53q-171 1 -276 -108t-105 -281t105 -281t276 -109q116 0 204 53t134 145l135 -31q-56 -140 -180.5 -221.5t-292.5 -81.5zM452 1310l84 288h146
l-131 -288h-99z" />
    <glyph glyph-name="Cdotaccent" unicode="&#x10a;" horiz-adv-x="1516" 
d="M808 -31q-159 0 -293 54.5t-226.5 151t-144 232t-51.5 293.5t51.5 293.5t144 232t226.5 151t293 54.5q193 0 345 -77t247 -217l-127 -65q-78 105 -197.5 162.5t-269.5 57.5q-260 0 -420 -165.5t-160 -427.5t160 -427.5t420 -165.5q150 0 269.5 58t198.5 163l124 -64
q-93 -139 -245.5 -216.5t-344.5 -77.5zM727 1781q0 34 25 56.5t60 22.5q34 0 58.5 -23t24.5 -56q0 -34 -23.5 -56.5t-59.5 -22.5q-35 0 -60 22.5t-25 56.5z" />
    <glyph glyph-name="cdotaccent" unicode="&#x10b;" horiz-adv-x="1086" 
d="M587 -26q-231 0 -373 147t-142 379t142 379t373 147q168 -1 292.5 -82.5t180.5 -221.5l-135 -31q-46 92 -134 145t-204 53q-171 1 -276 -108t-105 -281t105 -281t276 -109q116 0 204 53t134 145l135 -31q-56 -140 -180.5 -221.5t-292.5 -81.5zM484 1357q0 34 25 56.5
t60 22.5q34 0 58.5 -23t24.5 -56q0 -34 -23.5 -56.5t-59.5 -22.5q-35 0 -60 22.5t-25 56.5z" />
    <glyph glyph-name="Ccaron" unicode="&#x10c;" horiz-adv-x="1516" 
d="M808 -31q-159 0 -293 54.5t-226.5 151t-144 232t-51.5 293.5t51.5 293.5t144 232t226.5 151t293 54.5q193 0 345 -77t247 -217l-127 -65q-78 105 -197.5 162.5t-269.5 57.5q-260 0 -420 -165.5t-160 -427.5t160 -427.5t420 -165.5q150 0 269.5 58t198.5 163l124 -64
q-93 -139 -245.5 -216.5t-344.5 -77.5zM508 1983h141l141 -203l137 203h142l-200 -288h-159z" />
    <glyph glyph-name="ccaron" unicode="&#x10d;" horiz-adv-x="1086" 
d="M587 -26q-231 0 -373 147t-142 379t142 379t373 147q168 -1 292.5 -82.5t180.5 -221.5l-135 -31q-46 92 -134 145t-204 53q-171 1 -276 -108t-105 -281t105 -281t276 -109q116 0 204 53t134 145l135 -31q-56 -140 -180.5 -221.5t-292.5 -81.5zM271 1582h141l141 -203
l137 203h142l-200 -288h-159z" />
    <glyph glyph-name="Dcaron" unicode="&#x10e;" horiz-adv-x="1389" 
d="M130 0v1400h499q204 0 360 -90t240 -249.5t84 -361.5t-84 -361t-240 -248.5t-360 -89.5h-499zM277 140l354 -1q247 0 398 155.5t151 403.5t-151 404.5t-398 156.5l-354 1v-1120zM360 1985h141l141 -203l137 203h142l-200 -288h-159z" />
    <glyph glyph-name="dcaron" unicode="&#x10f;" horiz-adv-x="1188" 
d="M587 -26q-231 0 -373 147t-142 379t142 379t373 147q117 -1 218 -45.5t164 -121.5v641h146v-1500h-146v141q-63 -77 -164 -121.5t-218 -45.5zM206 500q0 -172 105 -281t276 -109t276 109t105 281t-105 281t-276 109t-276 -109t-105 -281zM325 1594h141l141 -203l137 203
h142l-200 -288h-159z" />
    <glyph glyph-name="Dcroat" unicode="&#x110;" horiz-adv-x="1397" 
d="M135 0v630h-278v113h278v657h499q204 0 360 -90t240 -249.5t84 -361.5t-84 -361t-240 -248.5t-360 -89.5h-499zM282 140l354 -1q247 0 398 155.5t151 403.5t-151 404.5t-398 156.5l-354 1v-517h281v-113h-281v-490z" />
    <glyph glyph-name="dcroat" unicode="&#x111;" horiz-adv-x="1219" 
d="M590 -26q-231 0 -373 147t-142 379t142 379t373 147q117 -1 218 -45.5t164 -121.5v348h-282v113h282v180h146v-180h278v-113h-278v-1207h-146v141q-63 -77 -164 -121.5t-218 -45.5zM209 500q0 -172 105 -281t276 -109t276 109t105 281t-105 281t-276 109t-276 -109
t-105 -281z" />
    <glyph glyph-name="Emacron" unicode="&#x112;" horiz-adv-x="1171" 
d="M130 0v1400h925v-140h-778v-457h650v-140h-650v-523h778v-140h-925zM272 1703v113h706v-113h-706z" />
    <glyph glyph-name="emacron" unicode="&#x113;" 
d="M587 -26q-231 0 -373 147t-142 379t142 379t373 147t373 -147t142 -379v-53h-893q16 -151 118.5 -244t259.5 -93q116 0 204 53t134 145l135 -31q-56 -140 -180.5 -221.5t-292.5 -81.5zM209 560h755q-18 148 -120 239t-257 91t-257.5 -91t-120.5 -239zM223 1312v113h706
v-113h-706z" />
    <glyph glyph-name="Edotaccent" unicode="&#x116;" horiz-adv-x="1171" 
d="M130 0v1400h925v-140h-778v-457h650v-140h-650v-523h778v-140h-925zM527 1752q0 34 25 56.5t60 22.5q34 0 58.5 -23t24.5 -56q0 -34 -23.5 -56.5t-59.5 -22.5q-35 0 -60 22.5t-25 56.5z" />
    <glyph glyph-name="edotaccent" unicode="&#x117;" 
d="M587 -26q-231 0 -373 147t-142 379t142 379t373 147t373 -147t142 -379v-53h-893q16 -151 118.5 -244t259.5 -93q116 0 204 53t134 145l135 -31q-56 -140 -180.5 -221.5t-292.5 -81.5zM209 560h755q-18 148 -120 239t-257 91t-257.5 -91t-120.5 -239zM495 1403
q0 34 25 56.5t60 22.5q34 0 58.5 -23t24.5 -56q0 -34 -23.5 -56.5t-59.5 -22.5q-35 0 -60 22.5t-25 56.5z" />
    <glyph glyph-name="Eogonek" unicode="&#x118;" horiz-adv-x="1273" 
d="M130 0v1400h925v-140h-778v-457h650v-140h-650v-523h778v-140h-9q-137 -131 -154 -149q-39 -43 -39 -77q0 -29 21 -51t56 -24q42 0 75 29t33 73h105q0 -88 -63 -147.5t-155 -59.5q-82 1 -135.5 55.5t-53.5 128.5t56 129l97 93h-759z" />
    <glyph glyph-name="eogonek" unicode="&#x119;" 
d="M964 560q-18 148 -120 239t-257 91t-257.5 -91t-120.5 -239h755zM72 500q0 232 142 379t373 147t373 -147t142 -379v-53h-893q16 -151 118.5 -244t259.5 -93q116 0 204 53t134 145l135 -31q-42 -105 -123.5 -178.5t-193.5 -104.5q-131 -125 -148 -143q-39 -43 -39 -77
q0 -29 21 -51t56 -24q42 0 75 29t33 73h105q0 -88 -63 -147.5t-155 -59.5q-82 1 -135.5 55.5t-53.5 128.5t56 129l70 67q-147 5 -259.5 73.5t-173 186t-60.5 266.5z" />
    <glyph glyph-name="Ecaron" unicode="&#x11a;" horiz-adv-x="1171" 
d="M130 0v1400h925v-140h-778v-457h650v-140h-650v-523h778v-140h-925zM299 1989h141l141 -203l137 203h142l-200 -288h-159z" />
    <glyph glyph-name="ecaron" unicode="&#x11b;" horiz-adv-x="1245" 
d="M654 -26q-231 0 -373 147t-142 379t142 379t373 147t373 -147t142 -379v-53h-893q16 -151 118.5 -244t259.5 -93q116 0 204 53t134 145l135 -31q-56 -140 -180.5 -221.5t-292.5 -81.5zM276 560h755q-18 148 -120 239t-257 91t-257.5 -91t-120.5 -239zM357 1574h141
l141 -203l137 203h142l-200 -288h-159z" />
    <glyph glyph-name="Gbreve" unicode="&#x11e;" horiz-adv-x="1494" 
d="M806 -31q-159 0 -293 54.5t-226.5 151t-144 232t-51.5 293.5t51.5 293.5t144 232t226.5 151t293 54.5q193 0 345 -77t247 -217l-127 -65q-78 105 -197.5 162.5t-269.5 57.5q-260 0 -420 -165.5t-160 -427.5t160 -427.5t420 -165.5q139 0 253 50.5t193 142.5v363h-563v140
h709v-539q-93 -139 -245.5 -216.5t-344.5 -77.5zM405 1932h104q0 -98 71.5 -165t171.5 -67q102 0 172 67t70 165h104q0 -92 -47 -168q-48 -77 -127 -120.5t-172 -43.5q-96 0 -174 45q-80 45 -126.5 121t-46.5 166z" />
    <glyph glyph-name="gbreve" unicode="&#x11f;" horiz-adv-x="1251" 
d="M590 -500q-107 0 -209 48t-177 127t-106 174l135 59q31 -115 133 -191t224 -76q156 0 267.5 96.5t111.5 225.5v167q-145 -156 -382 -156q-231 0 -373 147t-142 379t142 379t373 147q237 0 382 -156v130h146v-1037q0 -125 -74.5 -232.5t-195.5 -169t-255 -61.5zM206 500
q0 -172 105 -281t276 -109t276 109t105 281t-105 281t-276 109t-276 -109t-105 -281zM252 1645h104q0 -98 71.5 -165t171.5 -67q102 0 172 67t70 165h104q0 -92 -47 -168q-48 -77 -127 -120.5t-172 -43.5q-96 0 -174 45q-80 45 -126.5 121t-46.5 166z" />
    <glyph glyph-name="Gdotaccent" unicode="&#x120;" horiz-adv-x="1494" 
d="M806 -31q-159 0 -293 54.5t-226.5 151t-144 232t-51.5 293.5t51.5 293.5t144 232t226.5 151t293 54.5q193 0 345 -77t247 -217l-127 -65q-78 105 -197.5 162.5t-269.5 57.5q-260 0 -420 -165.5t-160 -427.5t160 -427.5t420 -165.5q139 0 253 50.5t193 142.5v363h-563v140
h709v-539q-93 -139 -245.5 -216.5t-344.5 -77.5zM690 1781q0 34 25 56.5t60 22.5q34 0 58.5 -23t24.5 -56q0 -34 -23.5 -56.5t-59.5 -22.5q-35 0 -60 22.5t-25 56.5z" />
    <glyph glyph-name="gdotaccent" unicode="&#x121;" horiz-adv-x="1251" 
d="M590 -500q-107 0 -209 48t-177 127t-106 174l135 59q31 -115 133 -191t224 -76q156 0 267.5 96.5t111.5 225.5v167q-145 -156 -382 -156q-231 0 -373 147t-142 379t142 379t373 147q237 0 382 -156v130h146v-1037q0 -125 -74.5 -232.5t-195.5 -169t-255 -61.5zM206 500
q0 -172 105 -281t276 -109t276 109t105 281t-105 281t-276 109t-276 -109t-105 -281zM535 1426q0 34 25 56.5t60 22.5q34 0 58.5 -23t24.5 -56q0 -34 -23.5 -56.5t-59.5 -22.5q-35 0 -60 22.5t-25 56.5z" />
    <glyph glyph-name="uni0122" unicode="&#x122;" horiz-adv-x="1501" 
d="M810 -31q-159 0 -293 54.5t-226.5 151t-144 232t-51.5 293.5t51.5 293.5t144 232t226.5 151t293 54.5q193 0 345 -77t247 -217l-127 -65q-78 105 -197.5 162.5t-269.5 57.5q-260 0 -420 -165.5t-160 -427.5t160 -427.5t420 -165.5q139 0 253 50.5t193 142.5v363h-563v140
h709v-539q-93 -139 -245.5 -216.5t-344.5 -77.5zM664 -463l84 288h146l-131 -288h-99z" />
    <glyph glyph-name="uni0123" unicode="&#x123;" horiz-adv-x="1228" 
d="M593 -500q-107 0 -209 48t-177 127t-106 174l135 59q31 -115 133 -191t224 -76q156 0 267.5 96.5t111.5 225.5v167q-145 -156 -382 -156q-231 0 -373 147t-142 379t142 379t373 147q237 0 382 -156v130h146v-1037q0 -125 -74.5 -232.5t-195.5 -169t-255 -61.5zM209 500
q0 -172 105 -281t276 -109t276 109t105 281t-105 281t-276 109t-276 -109t-105 -281zM515 1304l84 288h146l-131 -288h-99z" />
    <glyph glyph-name="Hbar" unicode="&#x126;" horiz-adv-x="1379" 
d="M135 0v1042h-151v140h151v218h147v-218h804v218h147v-218h166v-140h-166v-1042h-147v680h-804v-680h-147zM282 820h804v222h-804v-222z" />
    <glyph glyph-name="hbar" unicode="&#x127;" horiz-adv-x="1146" 
d="M135 0v1207h-283v113h283v180h147v-180h276v-113h-276v-345q56 77 144.5 121.5t192.5 44.5q119 0 216 -55q98 -55 154.5 -148.5t56.5 -205.5v-619h-146v591q0 125 -89.5 210.5t-219.5 85.5q-86 0 -154 -40q-72 -40 -113.5 -107.5t-41.5 -148.5v-591h-147z" />
    <glyph glyph-name="Itilde" unicode="&#x128;" horiz-adv-x="500" 
d="M171 0v1400h146v-1400h-146zM-92 1814q15 53 58.5 85t104.5 32q47 0 114 -36.5t128.5 -72.5t95.5 -36q32 0 46.5 34t1.5 64l100 30q20 -58 5 -112q-17 -53 -61 -85t-105 -32q-36 0 -86.5 25t-92 54t-86 50t-71.5 15q-28 -6 -43 -34t-4 -64l-100 -26q-20 58 -5 109z" />
    <glyph glyph-name="itilde" unicode="&#x129;" horiz-adv-x="338" 
d="M96 0v1000h147v-1000h-147zM-159 1412q15 53 58.5 85t104.5 32q47 0 114 -36.5t128.5 -72.5t95.5 -36q32 0 46.5 34t1.5 64l100 30q20 -58 5 -112q-17 -53 -61 -85t-105 -32q-36 0 -86.5 25t-92 54t-86 50t-71.5 15q-28 -6 -43 -34t-4 -64l-100 -26q-20 58 -5 109z" />
    <glyph glyph-name="Imacron" unicode="&#x12a;" horiz-adv-x="501" 
d="M162 0v1400h146v-1400h-146zM-115 1705v113h706v-113h-706z" />
    <glyph glyph-name="imacron" unicode="&#x12b;" horiz-adv-x="437" 
d="M146 0v1000h147v-1000h-147zM-135 1312v113h706v-113h-706z" />
    <glyph glyph-name="Iogonek" unicode="&#x12e;" horiz-adv-x="488" 
d="M183 -406q-82 1 -135.5 55.5t-53.5 128.5t56 129l116 111v1382h146v-1400h-8q-137 -131 -154 -149q-39 -43 -39 -77q0 -29 21 -51t56 -24q42 0 75 29t33 73h105q0 -88 -63 -147.5t-155 -59.5z" />
    <glyph glyph-name="iogonek" unicode="&#x12f;" horiz-adv-x="428" 
d="M153 -406q-82 1 -135.5 55.5t-53.5 128.5t56 129l113 108v985h147v-1000h-6q-137 -131 -154 -149q-39 -43 -39 -77q0 -29 21 -51t56 -24q42 0 75 29t33 73h105q0 -88 -63 -147.5t-155 -59.5z" />
    <glyph glyph-name="Idotaccent" unicode="&#x130;" horiz-adv-x="478" 
d="M158 0v1400h146v-1400h-146zM155 1761q0 34 25 56.5t60 22.5q34 0 58.5 -23t24.5 -56q0 -34 -23.5 -56.5t-59.5 -22.5q-35 0 -60 22.5t-25 56.5z" />
    <glyph glyph-name="dotlessi" unicode="&#x131;" horiz-adv-x="418" 
d="M135 0v1000h147v-1000h-147z" />
    <glyph glyph-name="IJ" unicode="&#x132;" horiz-adv-x="1737" 
d="M158 0v1400h146v-1400h-146zM464 584h146q0 -208 114.5 -339t306.5 -131q138 0 232 65q92 64 141 170.5t49 234.5v816h146v-816q0 -264 -156 -437t-412 -173q-177 0 -302 82q-127 81 -196 219.5t-69 308.5z" />
    <glyph glyph-name="ij" unicode="&#x133;" horiz-adv-x="730" 
d="M112 0v1000h147v-1000h-147zM106 1324q0 32 24 55.5t58 23.5q35 0 60 -23.5t25 -55.5q0 -34 -25 -57.5t-60 -23.5q-34 0 -58 23.5t-24 57.5zM204 -500v140q118 0 195.5 71.5t77.5 180.5v1108h146v-1108q0 -109 -54 -197q-56 -91 -151 -143t-214 -52zM454 1324
q0 32 24 55.5t58 23.5q35 0 60 -23.5t25 -55.5q0 -34 -25 -57.5t-60 -23.5q-34 0 -58 23.5t-24 57.5z" />
    <glyph glyph-name="uni0136" unicode="&#x136;" horiz-adv-x="1140" 
d="M135 0v1400h147v-696l609 696h192l-581 -661l573 -739h-189l-480 629l-124 -143v-486h-147zM436 -463l84 288h146l-131 -288h-99z" />
    <glyph glyph-name="uni0137" unicode="&#x137;" horiz-adv-x="1052" 
d="M135 0v1500h147v-1038l471 538h191l-354 -403l361 -597h-168l-292 483l-209 -239v-244h-147zM406 -463l84 288h146l-131 -288h-99z" />
    <glyph glyph-name="Lacute" unicode="&#x139;" horiz-adv-x="1171" 
d="M130 0v1400h147v-1260h778v-140h-925zM152 1710l84 288h146l-131 -288h-99z" />
    <glyph glyph-name="lacute" unicode="&#x13a;" horiz-adv-x="395" 
d="M130 0v1500h147v-1500h-147zM132 1710l84 288h146l-131 -288h-99z" />
    <glyph glyph-name="uni013B" unicode="&#x13b;" horiz-adv-x="1180" 
d="M135 0v1400h147v-1260h778v-140h-925zM469 -463l84 288h146l-131 -288h-99z" />
    <glyph glyph-name="uni013C" unicode="&#x13c;" horiz-adv-x="428" 
d="M135 0v1500h147v-1500h-147zM62 -463l84 288h146l-131 -288h-99z" />
    <glyph glyph-name="Lcaron" unicode="&#x13d;" horiz-adv-x="1171" 
d="M130 0v1400h147v-1260h778v-140h-925zM296 1993h141l141 -203l137 203h142l-200 -288h-159z" />
    <glyph glyph-name="lcaron" unicode="&#x13e;" horiz-adv-x="532" 
d="M344 0v1500h147v-1500h-147zM135 1998h141l141 -203l137 203h142l-200 -288h-159z" />
    <glyph glyph-name="Lslash" unicode="&#x141;" horiz-adv-x="1226" 
d="M135 0v886l-219 -127l-57 98l276 159v384h147v-299l189 109l56 -98l-245 -142v-830h778v-140h-925z" />
    <glyph glyph-name="lslash" unicode="&#x142;" horiz-adv-x="417" 
d="M135 0v886l-219 -127l-57 98l276 159v484h147v-399l189 109l56 -98l-245 -142v-970h-147z" />
    <glyph glyph-name="Nacute" unicode="&#x143;" horiz-adv-x="1344" 
d="M130 0v1400h159l772 -1147v1147h147v-1400h-158l-773 1147v-1147h-147zM571 1710l84 288h146l-131 -288h-99z" />
    <glyph glyph-name="nacute" unicode="&#x144;" horiz-adv-x="1137" 
d="M130 0v1000h147v-138q57 78 145.5 122t191.5 44q119 0 216 -55q99 -55 155 -149t56 -205v-619h-146v591q0 82 -41 150t-112 107t-156 39q-87 0 -154 -40q-72 -40 -113.5 -107.5t-41.5 -148.5v-591h-147zM449 1310l84 288h146l-131 -288h-99z" />
    <glyph glyph-name="uni0145" unicode="&#x145;" horiz-adv-x="1354" 
d="M135 0v1400h159l772 -1147v1147h147v-1400h-158l-773 1147v-1147h-147zM521 -463l84 288h146l-131 -288h-99z" />
    <glyph glyph-name="uni0146" unicode="&#x146;" horiz-adv-x="1146" 
d="M135 0v1000h147v-138q57 78 145.5 122t191.5 44q119 0 216 -55q99 -55 155 -149t56 -205v-619h-146v591q0 82 -41 150t-112 107t-156 39q-87 0 -154 -40q-72 -40 -113.5 -107.5t-41.5 -148.5v-591h-147zM449 -463l84 288h146l-131 -288h-99z" />
    <glyph glyph-name="Ncaron" unicode="&#x147;" horiz-adv-x="1344" 
d="M130 0v1400h159l772 -1147v1147h147v-1400h-158l-773 1147v-1147h-147zM369 1993h141l141 -203l137 203h142l-200 -288h-159z" />
    <glyph glyph-name="ncaron" unicode="&#x148;" horiz-adv-x="1137" 
d="M130 0v1000h147v-138q57 78 145.5 122t191.5 44q119 0 216 -55q99 -55 155 -149t56 -205v-619h-146v591q0 82 -41 150t-112 107t-156 39q-87 0 -154 -40q-72 -40 -113.5 -107.5t-41.5 -148.5v-591h-147zM302 1575h141l141 -203l137 203h142l-200 -288h-159z" />
    <glyph glyph-name="Omacron" unicode="&#x14c;" horiz-adv-x="1617" 
d="M806 -31q-159 0 -293 54.5t-226.5 151t-144 232t-51.5 293.5t51.5 293.5t144 232t226.5 151t293 54.5q213 0 376 -93.5t251 -259.5t88 -378t-88 -378t-251 -259.5t-376 -93.5zM224 699q0 -262 160 -427.5t420 -165.5q173 0 306 76t204 210.5t71 306.5t-71 306.5
t-204 210.5t-306 76q-260 0 -420 -165.5t-160 -427.5zM444 1693v113h706v-113h-706z" />
    <glyph glyph-name="omacron" unicode="&#x14d;" 
d="M587 -26q-231 0 -373 147t-142 379t142 379t373 147t373 -147t142 -379t-142 -379t-373 -147zM206 500q0 -172 105 -281t276 -109t276 109t105 281t-105 281t-276 109t-276 -109t-105 -281zM256 1291v113h706v-113h-706z" />
    <glyph glyph-name="Ohungarumlaut" unicode="&#x150;" horiz-adv-x="1617" 
d="M806 -31q-159 0 -293 54.5t-226.5 151t-144 232t-51.5 293.5t51.5 293.5t144 232t226.5 151t293 54.5q213 0 376 -93.5t251 -259.5t88 -378t-88 -378t-251 -259.5t-376 -93.5zM224 699q0 -262 160 -427.5t420 -165.5q173 0 306 76t204 210.5t71 306.5t-71 306.5
t-204 210.5t-306 76q-260 0 -420 -165.5t-160 -427.5zM571 1710l84 288h146l-131 -288h-99zM845 1710l84 288h146l-131 -288h-99z" />
    <glyph glyph-name="ohungarumlaut" unicode="&#x151;" 
d="M587 -26q-231 0 -373 147t-142 379t142 379t373 147t373 -147t142 -379t-142 -379t-373 -147zM206 500q0 -172 105 -281t276 -109t276 109t105 281t-105 281t-276 109t-276 -109t-105 -281zM357 1309l84 288h146l-131 -288h-99zM631 1309l84 288h146l-131 -288h-99z" />
    <glyph glyph-name="OE" unicode="&#x152;" horiz-adv-x="2426" 
d="M806 -31q-159 0 -293 54.5t-226.5 151t-144 232t-51.5 293.5t51.5 293.5t144 232t226.5 151t293 54.5q187 0 335.5 -73t243.5 -204v246h925v-140h-778v-457h650v-140h-650v-523h778v-140h-925v246q-95 -131 -243.5 -204t-335.5 -73zM224 699q0 -262 160 -427.5
t420 -165.5q173 0 306 76t204 210.5t71 306.5t-71 306.5t-204 210.5t-306 76q-260 0 -420 -165.5t-160 -427.5z" />
    <glyph glyph-name="oe" unicode="&#x153;" horiz-adv-x="2075" 
d="M590 -26q-231 0 -373 147t-142 379t142 379t373 147q150 0 266 -65.5t181 -181.5q64 116 180 181.5t267 65.5q231 0 373 -147t142 -379v-53h-893q16 -151 118.5 -244t259.5 -93q116 0 204 53t134 145l135 -31q-56 -140 -180.5 -221.5t-292.5 -81.5q-151 0 -267 65.5
t-180 181.5q-65 -116 -181 -181.5t-266 -65.5zM209 500q0 -172 105 -281t276 -109q162 0 265.5 98.5t114.5 257.5q-1 11 -1 34t1 34q-11 159 -114.5 257.5t-265.5 98.5q-171 0 -276 -109t-105 -281zM1106 560h755q-18 148 -120 239t-257 91t-257.5 -91t-120.5 -239z" />
    <glyph glyph-name="Racute" unicode="&#x154;" horiz-adv-x="1196" 
d="M130 0v1400h522q86 0 161.5 -26t135.5 -77t95 -135t36 -191q-1 -122 -47 -213.5t-119 -141t-168 -67.5l333 -549h-170l-328 541h-304v-541h-147zM277 664l363 2q43 0 84 9.5t82 32t71 56t48.5 87t17.5 120.5q1 82 -26.5 144t-74 95.5t-97 49t-105.5 15.5h-363v-611z
M462 1710l84 288h146l-131 -288h-99z" />
    <glyph glyph-name="racute" unicode="&#x155;" horiz-adv-x="768" 
d="M130 0v1000h147v-138q56 77 144.5 121.5t192.5 44.5q61 0 118 -15l-60 -139q-43 13 -86 13q-86 0 -154 -40q-72 -40 -113.5 -107.5t-41.5 -148.5v-591h-147zM357 1293l84 288h146l-131 -288h-99z" />
    <glyph glyph-name="uni0156" unicode="&#x156;" horiz-adv-x="1206" 
d="M135 0v1400h522q86 0 161.5 -26t135.5 -77t95 -135t36 -191q-1 -122 -47 -213.5t-119 -141t-168 -67.5l333 -549h-170l-328 541h-304v-541h-147zM282 664l363 2q43 0 84 9.5t82 32t71 56t48.5 87t17.5 120.5q1 82 -26.5 144t-74 95.5t-97 49t-105.5 15.5h-363v-611z
M463 -463l84 288h146l-131 -288h-99z" />
    <glyph glyph-name="uni0157" unicode="&#x157;" horiz-adv-x="774" 
d="M135 0v1000h147v-138q56 77 144.5 121.5t192.5 44.5q61 0 118 -15l-60 -139q-43 13 -86 13q-86 0 -154 -40q-72 -40 -113.5 -107.5t-41.5 -148.5v-591h-147zM64 -463l84 288h146l-131 -288h-99z" />
    <glyph glyph-name="Rcaron" unicode="&#x158;" horiz-adv-x="1196" 
d="M130 0v1400h522q86 0 161.5 -26t135.5 -77t95 -135t36 -191q-1 -122 -47 -213.5t-119 -141t-168 -67.5l333 -549h-170l-328 541h-304v-541h-147zM277 664l363 2q43 0 84 9.5t82 32t71 56t48.5 87t17.5 120.5q1 82 -26.5 144t-74 95.5t-97 49t-105.5 15.5h-363v-611z
M279 2008h141l141 -203l137 203h142l-200 -288h-159z" />
    <glyph glyph-name="rcaron" unicode="&#x159;" horiz-adv-x="792" 
d="M154 0v1000h147v-138q56 77 144.5 121.5t192.5 44.5q61 0 118 -15l-60 -139q-43 13 -86 13q-86 0 -154 -40q-72 -40 -113.5 -107.5t-41.5 -148.5v-591h-147zM135 1584h141l141 -203l137 203h142l-200 -288h-159z" />
    <glyph glyph-name="Sacute" unicode="&#x15a;" horiz-adv-x="1291" 
d="M642 -26q-114 0 -227 35q-112 36 -192.5 101.5t-112.5 153.5l136 49q33 -88 144.5 -143.5t251.5 -55.5q99 0 187 32q89 33 141 91t52 134q0 79 -56 130q-94 88 -324 126q-157 27 -268 68q-257 92 -257 329q0 120 73 210q73 89 192.5 138t259.5 49q186 0 334 -79t199 -213
l-138 -48q-32 89 -143.5 144t-251.5 55q-98 1 -186 -31q-89 -34 -141 -92t-52 -133q0 -90 50 -138q44 -44 122 -69t207 -47q136 -22 260 -71q266 -109 266 -328q0 -119 -73 -209t-192.5 -139t-260.5 -49zM502 1710l84 288h146l-131 -288h-99z" />
    <glyph glyph-name="sacute" unicode="&#x15b;" horiz-adv-x="923" 
d="M459 -27q-82 0 -168 25q-88 29 -150 83t-84 126l126 46q16 -66 94.5 -107.5t181.5 -41.5q60 0 117 17.5t99 57.5t42 95q0 128 -261 170q-121 20 -195 50q-196 71 -196 251q0 91 56 160q56 67 145.5 104t192.5 37q143 0 256.5 -64t146.5 -171l-127 -46q-16 67 -94 108
t-182 41q-58 1 -115 -16.5t-99.5 -57.5t-42.5 -95q0 -56 31 -90q30 -29 84 -45.5t145 -32.5q104 -17 190 -52q202 -84 202 -251q0 -88 -56 -160q-56 -67 -145.5 -104t-193.5 -37zM369 1304l84 288h146l-131 -288h-99z" />
    <glyph glyph-name="Scedilla" unicode="&#x15e;" horiz-adv-x="1291" 
d="M632 -367q-66 -17 -125.5 16t-77.5 96l91 23q8 -27 33.5 -41t54.5 -7q29 8 44 32.5t7 52.5t-33 41.5t-55 7.5l-100 -13l83 138q-70 9 -139 30q-112 36 -192.5 101.5t-112.5 153.5l136 49q33 -88 144.5 -143.5t251.5 -55.5q99 0 187 32q89 33 141 91t52 134q0 79 -56 130
q-94 88 -324 126q-157 27 -268 68q-257 92 -257 329q0 120 73 210q73 89 192.5 138t259.5 49q186 0 334 -79t199 -213l-138 -48q-32 89 -143.5 144t-251.5 55q-98 1 -186 -31q-89 -34 -141 -92t-52 -133q0 -90 50 -138q44 -44 122 -69t207 -47q136 -22 260 -71
q266 -109 266 -328q0 -119 -73 -209q-71 -87 -185.5 -136t-250.5 -52l-22 -37q40 -10 71 -39t42 -70q18 -64 -16.5 -121t-101.5 -74z" />
    <glyph glyph-name="scedilla" unicode="&#x15f;" horiz-adv-x="923" 
d="M511 -367q-66 -17 -125.5 16t-77.5 96l91 23q8 -27 33.5 -41t54.5 -7q29 8 44 32.5t7 52.5t-33 41.5t-55 7.5l-100 -13l79 133q-65 3 -138 24q-88 29 -150 83t-84 126l126 46q16 -66 94.5 -107.5t181.5 -41.5q60 0 117 17.5t99 57.5t42 95q0 128 -261 170
q-121 20 -195 50q-196 71 -196 251q0 91 56 160q56 67 145.5 104t192.5 37q143 0 256.5 -64t146.5 -171l-127 -46q-16 67 -94 108t-182 41q-58 1 -115 -16.5t-99.5 -57.5t-42.5 -95q0 -56 31 -90q30 -29 84 -45.5t145 -32.5q104 -17 190 -52q202 -84 202 -251
q0 -88 -56 -160q-91 -110 -257 -135l-25 -42q40 -10 71 -39t42 -70q18 -64 -16.5 -121t-101.5 -74z" />
    <glyph glyph-name="Scaron" unicode="&#x160;" horiz-adv-x="1291" 
d="M642 -26q-114 0 -227 35q-112 36 -192.5 101.5t-112.5 153.5l136 49q33 -88 144.5 -143.5t251.5 -55.5q99 0 187 32q89 33 141 91t52 134q0 79 -56 130q-94 88 -324 126q-157 27 -268 68q-257 92 -257 329q0 120 73 210q73 89 192.5 138t259.5 49q186 0 334 -79t199 -213
l-138 -48q-32 89 -143.5 144t-251.5 55q-98 1 -186 -31q-89 -34 -141 -92t-52 -133q0 -90 50 -138q44 -44 122 -69t207 -47q136 -22 260 -71q266 -109 266 -328q0 -119 -73 -209t-192.5 -139t-260.5 -49zM360 1997h141l141 -203l137 203h142l-200 -288h-159z" />
    <glyph glyph-name="scaron" unicode="&#x161;" horiz-adv-x="923" 
d="M459 -27q-82 0 -168 25q-88 29 -150 83t-84 126l126 46q16 -66 94.5 -107.5t181.5 -41.5q60 0 117 17.5t99 57.5t42 95q0 128 -261 170q-121 20 -195 50q-196 71 -196 251q0 91 56 160q56 67 145.5 104t192.5 37q143 0 256.5 -64t146.5 -171l-127 -46q-16 67 -94 108
t-182 41q-58 1 -115 -16.5t-99.5 -57.5t-42.5 -95q0 -56 31 -90q30 -29 84 -45.5t145 -32.5q104 -17 190 -52q202 -84 202 -251q0 -88 -56 -160q-56 -67 -145.5 -104t-193.5 -37zM179 1598h141l141 -203l137 203h142l-200 -288h-159z" />
    <glyph glyph-name="uni0162" unicode="&#x162;" horiz-adv-x="1343" 
d="M595 0v1260h-500v140h1148v-140h-501v-1260h-13l-38 -63q40 -10 71 -39t42 -70q18 -64 -16.5 -121t-101.5 -74q-66 -17 -125.5 16t-77.5 96l91 23q8 -27 33.5 -41t54.5 -7q29 8 44 32.5t7 52.5t-33 41.5t-55 7.5l-100 -13l95 159h-25z" />
    <glyph glyph-name="uni0163" unicode="&#x163;" horiz-adv-x="749" 
d="M545 -369q-66 -17 -125.5 16t-77.5 96l91 23q8 -27 33.5 -41t54.5 -7q29 8 44 32.5t7 52.5t-33 41.5t-55 7.5l-100 -13l99 165q-92 21 -150 91.5t-58 163.5v601h-189v140h189l-1 314h147v-314h250v-140h-250v-601q0 -49 31 -79.5t74 -38t83.5 -4.5t62.5 15v-129
q-39 -19 -84 -25l-38 -63q40 -10 71 -39t42 -70q18 -64 -16.5 -121t-101.5 -74z" />
    <glyph glyph-name="Tcaron" unicode="&#x164;" horiz-adv-x="1423" 
d="M679 0v1260h-500v140h1148v-140h-501v-1260h-147zM452 2013h141l141 -203l137 203h142l-200 -288h-159z" />
    <glyph glyph-name="tcaron" unicode="&#x165;" horiz-adv-x="654" 
d="M564 -4q-116 0 -196 76t-80 187v601h-189v140h189l-1 314h147v-314h250v-140h-250v-601q0 -49 31 -79.5t74 -38t83.5 -4.5t62.5 15v-129q-57 -27 -121 -27zM86 1687h141l141 -203l137 203h142l-200 -288h-159z" />
    <glyph glyph-name="Utilde" unicode="&#x168;" horiz-adv-x="1402" 
d="M698 -26q-176 0 -303 82q-127 81 -196 219.5t-69 308.5v816h147v-816q0 -209 114 -339.5t307 -130.5q139 0 231 65q92 64 141 170t49 235v816h147v-816q0 -173 -69 -311t-199 -218.5t-300 -80.5zM383 1860q15 53 58.5 85t104.5 32q47 0 114 -36.5t128.5 -72.5t95.5 -36
q32 0 46.5 34t1.5 64l100 30q20 -58 5 -112q-17 -53 -61 -85t-105 -32q-36 0 -86.5 25t-92 54t-86 50t-71.5 15q-28 -6 -43 -34t-4 -64l-100 -26q-20 58 -5 109z" />
    <glyph glyph-name="utilde" unicode="&#x169;" horiz-adv-x="1098" 
d="M518 -26q-118 0 -215 55q-99 55 -155.5 148.5t-56.5 205.5v617h146v-589q0 -81 42 -149q43 -68 113.5 -107.5t154.5 -39.5q130 0 218.5 85.5t88.5 210.5v589h147l1 -1000h-147l-1 140q-56 -77 -144.5 -121.5t-191.5 -44.5zM206 1451q15 53 58.5 85t104.5 32
q37 0 87.5 -22.5t91.5 -50t86.5 -50t72.5 -22.5q32 0 46.5 34t1.5 64l100 30q20 -58 5 -112q-17 -53 -61 -85t-105 -32q-36 0 -86.5 25t-92 54t-86 50t-71.5 15q-28 -6 -43 -34t-4 -64l-100 -26q-20 58 -5 109z" />
    <glyph glyph-name="Umacron" unicode="&#x16a;" horiz-adv-x="1402" 
d="M698 -26q-176 0 -303 82q-127 81 -196 219.5t-69 308.5v816h147v-816q0 -209 114 -339.5t307 -130.5q139 0 231 65q92 64 141 170t49 235v816h147v-816q0 -173 -69 -311t-199 -218.5t-300 -80.5zM334 1710v113h706v-113h-706z" />
    <glyph glyph-name="umacron" unicode="&#x16b;" horiz-adv-x="1098" 
d="M518 -26q-118 0 -215 55q-99 55 -155.5 148.5t-56.5 205.5v617h146v-589q0 -81 42 -149q43 -68 113.5 -107.5t154.5 -39.5q130 0 218.5 85.5t88.5 210.5v589h147l1 -1000h-147l-1 140q-56 -77 -144.5 -121.5t-191.5 -44.5zM208 1339v113h706v-113h-706z" />
    <glyph glyph-name="Uring" unicode="&#x16e;" horiz-adv-x="1402" 
d="M698 -26q-176 0 -303 82q-127 81 -196 219.5t-69 308.5v816h147v-816q0 -209 114 -339.5t307 -130.5q139 0 231 65q92 64 141 170t49 235v816h147v-816q0 -173 -69 -311t-199 -218.5t-300 -80.5zM539 1855q0 66 48 112t118 46q68 0 117 -46.5t49 -111.5q0 -67 -49 -113.5
t-117 -46.5q-69 0 -117.5 47t-48.5 113zM622 1855q0 -34 24.5 -58t58.5 -24q35 0 59.5 24t24.5 58q0 32 -24.5 55t-59.5 23q-34 0 -58.5 -23t-24.5 -55z" />
    <glyph glyph-name="uring" unicode="&#x16f;" horiz-adv-x="1098" 
d="M518 -26q-118 0 -215 55q-99 55 -155.5 148.5t-56.5 205.5v617h146v-589q0 -81 42 -149q43 -68 113.5 -107.5t154.5 -39.5q130 0 218.5 85.5t88.5 210.5v589h147l1 -1000h-147l-1 140q-56 -77 -144.5 -121.5t-191.5 -44.5zM367 1448q0 66 48 112t118 46q68 0 117 -46.5
t49 -111.5q0 -67 -49 -113.5t-117 -46.5q-69 0 -117.5 47t-48.5 113zM450 1448q0 -34 24.5 -58t58.5 -24q35 0 59.5 24t24.5 58q0 32 -24.5 55t-59.5 23q-34 0 -58.5 -23t-24.5 -55z" />
    <glyph glyph-name="Uhungarumlaut" unicode="&#x170;" horiz-adv-x="1402" 
d="M698 -26q-176 0 -303 82q-127 81 -196 219.5t-69 308.5v816h147v-816q0 -209 114 -339.5t307 -130.5q139 0 231 65q92 64 141 170t49 235v816h147v-816q0 -173 -69 -311t-199 -218.5t-300 -80.5zM481 1710l84 288h146l-131 -288h-99zM755 1710l84 288h146l-131 -288h-99z
" />
    <glyph glyph-name="uhungarumlaut" unicode="&#x171;" horiz-adv-x="1098" 
d="M518 -26q-118 0 -215 55q-99 55 -155.5 148.5t-56.5 205.5v617h146v-589q0 -81 42 -149q43 -68 113.5 -107.5t154.5 -39.5q130 0 218.5 85.5t88.5 210.5v589h147l1 -1000h-147l-1 140q-56 -77 -144.5 -121.5t-191.5 -44.5zM292 1321l84 288h146l-131 -288h-99zM566 1321
l84 288h146l-131 -288h-99z" />
    <glyph glyph-name="Uogonek" unicode="&#x172;" horiz-adv-x="1402" 
d="M675 -406q-82 1 -135.5 55.5t-53.5 128.5t56 129l75 72q-126 15 -222 77q-127 81 -196 219.5t-69 308.5v816h147v-816q0 -209 114 -339.5t307 -130.5q139 0 231 65q92 64 141 170t49 235v816h147v-816q0 -243 -134 -411t-359 -195q-109 -103 -131 -127q-39 -43 -39 -77
q0 -29 21 -51t56 -24q42 0 75 29t33 73h105q0 -88 -63 -147.5t-155 -59.5z" />
    <glyph glyph-name="uogonek" unicode="&#x173;" horiz-adv-x="1104" 
d="M518 -26q-118 0 -215 55q-99 55 -155.5 148.5t-56.5 205.5v617h146v-589q0 -81 42 -149q43 -68 113.5 -107.5t154.5 -39.5q130 0 218.5 85.5t88.5 210.5v589h147l1 -1000h-12q-137 -131 -154 -149q-39 -43 -39 -77q0 -29 21 -51t56 -24q42 0 75 29t33 73h105
q0 -88 -63 -147.5t-155 -59.5q-82 1 -135.5 55.5t-53.5 128.5t56 129l119 114l-1 119q-56 -77 -144.5 -121.5t-191.5 -44.5z" />
    <glyph glyph-name="Wcircumflex" unicode="&#x174;" horiz-adv-x="1789" 
d="M435 0l-375 1400h151l309 -1159l308 1159h130l309 -1159l309 1159h150l-372 -1400h-174l-287 1075l-287 -1075h-171zM600 1710l201 288h159l202 -288h-140l-142 203l-140 -203h-140z" />
    <glyph glyph-name="wcircumflex" unicode="&#x175;" horiz-adv-x="1721" 
d="M422 0l-350 1000h143l284 -806l282 806h155l282 -806l283 806h144l-351 -1000h-151l-287 814l-284 -814h-150zM563 1311l201 288h159l202 -288h-140l-142 203l-140 -203h-140z" />
    <glyph glyph-name="Ycircumflex" unicode="&#x176;" horiz-adv-x="1279" 
d="M564 0v634l-492 766h173l392 -613l394 613h172l-493 -766v-634h-146zM368 1710l201 288h159l202 -288h-140l-142 203l-140 -203h-140z" />
    <glyph glyph-name="ycircumflex" unicode="&#x177;" horiz-adv-x="1099" 
d="M276 -500l190 500l-375 1000h159l289 -807l310 807h154l-571 -1500h-156zM265 1310l201 288h159l202 -288h-140l-142 203l-140 -203h-140z" />
    <glyph glyph-name="Ydieresis" unicode="&#x178;" horiz-adv-x="1279" 
d="M564 0v634l-492 766h173l392 -613l394 613h172l-493 -766v-634h-146zM399 1760q0 33 25.5 57t60.5 24t59.5 -24t24.5 -57q0 -34 -24.5 -56.5t-59.5 -22.5t-60.5 23t-25.5 56zM729 1760q0 33 24.5 57t60.5 24q35 0 60 -24t25 -57t-25 -56t-60 -23q-36 0 -60.5 22.5
t-24.5 56.5z" />
    <glyph glyph-name="Zacute" unicode="&#x179;" horiz-adv-x="1369" 
d="M91 0v140l988 1120h-988v140h1182v-140l-987 -1120h987v-140h-1182zM556 1710l84 288h146l-131 -288h-99z" />
    <glyph glyph-name="zacute" unicode="&#x17a;" horiz-adv-x="1079" 
d="M91 0v140l686 720h-686v140h892v-140l-685 -720h685v-140h-892zM400 1299l84 288h146l-131 -288h-99z" />
    <glyph glyph-name="Zdotaccent" unicode="&#x17b;" horiz-adv-x="1369" 
d="M91 0v140l988 1120h-988v140h1182v-140l-987 -1120h987v-140h-1182zM581 1724q0 34 25 56.5t60 22.5q34 0 58.5 -23t24.5 -56q0 -34 -23.5 -56.5t-59.5 -22.5q-35 0 -60 22.5t-25 56.5z" />
    <glyph glyph-name="zdotaccent" unicode="&#x17c;" horiz-adv-x="1079" 
d="M91 0v140l686 720h-686v140h892v-140l-685 -720h685v-140h-892zM429 1410q0 34 25 56.5t60 22.5q34 0 58.5 -23t24.5 -56q0 -34 -23.5 -56.5t-59.5 -22.5q-35 0 -60 22.5t-25 56.5z" />
    <glyph glyph-name="Zcaron" unicode="&#x17d;" horiz-adv-x="1369" 
d="M91 0v140l988 1120h-988v140h1182v-140l-987 -1120h987v-140h-1182zM398 1981h141l141 -203l137 203h142l-200 -288h-159z" />
    <glyph glyph-name="zcaron" unicode="&#x17e;" horiz-adv-x="1079" 
d="M91 0v140l686 720h-686v140h892v-140l-685 -720h685v-140h-892zM257 1617h141l141 -203l137 203h142l-200 -288h-159z" />
    <glyph glyph-name="uni018F" unicode="&#x18f;" horiz-adv-x="1628" 
d="M813 1394q202 0 356 -87t236 -243t82 -358t-82 -358.5t-235.5 -243.5t-356.5 -87q-202 0 -355 87t-235.5 243.5t-82.5 358.5v47h1213q-14 225 -161.5 366t-378.5 141q-159 0 -281.5 -70.5t-189.5 -194.5l-135 31q78 173 235 270.5t371 97.5zM274 649q17 -221 164.5 -359
t374.5 -138q228 0 375.5 138t165.5 359h-1080z" />
    <glyph glyph-name="uni0218" unicode="&#x218;" horiz-adv-x="1301" 
d="M647 -26q-114 0 -227 35q-112 36 -192.5 101.5t-112.5 153.5l136 49q33 -88 144.5 -143.5t251.5 -55.5q99 0 187 32q89 33 141 91t52 134q0 79 -56 130q-94 88 -324 126q-157 27 -268 68q-257 92 -257 329q0 120 73 210q73 89 192.5 138t259.5 49q186 0 334 -79t199 -213
l-138 -48q-32 89 -143.5 144t-251.5 55q-98 1 -186 -31q-89 -34 -141 -92t-52 -133q0 -90 50 -138q44 -44 122 -69t207 -47q136 -22 260 -71q266 -109 266 -328q0 -119 -73 -209t-192.5 -139t-260.5 -49zM521 -463l84 288h146l-131 -288h-99z" />
    <glyph glyph-name="uni0219" unicode="&#x219;" horiz-adv-x="927" 
d="M461 -27q-82 0 -168 25q-88 29 -150 83t-84 126l126 46q16 -66 94.5 -107.5t181.5 -41.5q60 0 117 17.5t99 57.5t42 95q0 128 -261 170q-121 20 -195 50q-196 71 -196 251q0 91 56 160q56 67 145.5 104t192.5 37q143 0 256.5 -64t146.5 -171l-127 -46q-16 67 -94 108
t-182 41q-58 1 -115 -16.5t-99.5 -57.5t-42.5 -95q0 -56 31 -90q30 -29 84 -45.5t145 -32.5q104 -17 190 -52q202 -84 202 -251q0 -88 -56 -160q-56 -67 -145.5 -104t-193.5 -37zM341 -463l84 288h146l-131 -288h-99z" />
    <glyph glyph-name="uni021A" unicode="&#x21a;" horiz-adv-x="1343" 
d="M595 0v1260h-500v140h1148v-140h-501v-1260h-147zM521 -463l84 288h146l-131 -288h-99z" />
    <glyph glyph-name="uni021B" unicode="&#x21b;" horiz-adv-x="749" 
d="M551 -4q-116 0 -196 76t-80 187v601h-189v140h189l-1 314h147v-314h250v-140h-250v-601q0 -49 31 -79.5t74 -38t83.5 -4.5t62.5 15v-129q-57 -27 -121 -27zM366 -463l84 288h146l-131 -288h-99z" />
    <glyph glyph-name="uni0237" unicode="&#x237;" horiz-adv-x="492" 
d="M-69 -360q118 0 195.5 71.5t77.5 180.5v1108h146v-1108q0 -109 -54 -197q-56 -91 -151 -143t-214 -52v140z" />
    <glyph glyph-name="uni0259" unicode="&#x259;" horiz-adv-x="1189" 
d="M566 1031q231 0 373 -147t142 -379t-142 -379t-373 -147t-373 147t-142 379v53h893q-16 151 -118.5 244t-259.5 93q-116 0 -204 -53t-134 -145l-135 31q56 140 180.5 221.5t292.5 81.5zM189 445q18 -148 120 -239t257 -91t257.5 91t120.5 239h-755z" />
    <glyph glyph-name="circumflex" unicode="&#x2c6;" horiz-adv-x="621" 
d="M29 2310l201 288h159l202 -288h-140l-142 203l-140 -203h-140z" />
    <glyph glyph-name="caron" unicode="&#x2c7;" horiz-adv-x="584" 
d="M213 1710l-202 288h141l141 -203l137 203h142l-200 -288h-159z" />
    <glyph glyph-name="breve" unicode="&#x2d8;" horiz-adv-x="1204" 
d="M602 1688q-96 0 -174 45q-80 45 -126.5 121t-46.5 166h104q0 -98 71.5 -165t171.5 -67q102 0 172 67t70 165h104q0 -92 -47 -168q-48 -77 -127 -120.5t-172 -43.5z" />
    <glyph glyph-name="dotaccent" unicode="&#x2d9;" horiz-adv-x="999" 
d="M500 2375q-35 0 -60 22.5t-25 56.5t25 56.5t60 22.5q34 0 58.5 -23t24.5 -56q0 -34 -23.5 -56.5t-59.5 -22.5z" />
    <glyph glyph-name="ring" unicode="&#x2da;" horiz-adv-x="1163" 
d="M581 2295q-69 0 -117.5 47t-48.5 113t48 112t118 46q68 0 117 -46.5t49 -111.5q0 -67 -49 -113.5t-117 -46.5zM498 2455q0 -34 24.5 -58t58.5 -24q35 0 59.5 24t24.5 58q0 32 -24.5 55t-59.5 23q-34 0 -58.5 -23t-24.5 -55z" />
    <glyph glyph-name="ogonek" unicode="&#x2db;" horiz-adv-x="1038" 
d="M504 -406q-82 1 -135.5 55.5t-53.5 128.5t56 129l175 168l79 -75q-137 -131 -154 -149q-39 -43 -39 -77q0 -29 21 -51t56 -24q42 0 75 29t33 73h105q0 -88 -63 -147.5t-155 -59.5z" />
    <glyph glyph-name="tilde" unicode="&#x2dc;" horiz-adv-x="1242" 
d="M782 2343q-36 0 -86.5 25t-92 54t-86 50t-71.5 15q-28 -6 -43 -34t-4 -64l-100 -26q-20 58 -5 109q15 53 58.5 85t104.5 32q47 0 114 -36.5t128.5 -72.5t95.5 -36q32 0 46.5 34t1.5 64l100 30q20 -58 5 -112q-17 -53 -61 -85t-105 -32z" />
    <glyph glyph-name="hungarumlaut" unicode="&#x2dd;" horiz-adv-x="922" 
d="M476 2310l84 288h146l-131 -288h-99zM202 2310l84 288h146l-131 -288h-99z" />
    <glyph glyph-name="gravecomb" unicode="&#x300;" horiz-adv-x="0" 
d="M388 1710l-133 288h146l84 -288h-97z" />
    <glyph glyph-name="acutecomb" unicode="&#x301;" horiz-adv-x="0" 
d="M308 1710l84 288h146l-131 -288h-99z" />
    <glyph glyph-name="uni0302" unicode="&#x302;" horiz-adv-x="0" 
d="M29 1710l201 288h159l202 -288h-140l-142 203l-140 -203h-140z" />
    <glyph glyph-name="tildecomb" unicode="&#x303;" horiz-adv-x="0" 
d="M809 1731q-36 0 -86.5 25t-92 54t-86 50t-71.5 15q-28 -6 -43 -34t-4 -64l-100 -26q-20 58 -5 109q15 53 58.5 85t104.5 32q47 0 114 -36.5t128.5 -72.5t95.5 -36q32 0 46.5 34t1.5 64l100 30q20 -58 5 -112q-17 -53 -61 -85t-105 -32z" />
    <glyph glyph-name="uni0304" unicode="&#x304;" horiz-adv-x="0" 
d="M277 2370v113h706v-113h-706z" />
    <glyph glyph-name="uni0306" unicode="&#x306;" horiz-adv-x="0" 
d="M602 2288q-96 0 -174 45q-80 45 -126.5 121t-46.5 166h104q0 -98 71.5 -165t171.5 -67q102 0 172 67t70 165h104q0 -92 -47 -168q-48 -77 -127 -120.5t-172 -43.5z" />
    <glyph glyph-name="uni0307" unicode="&#x307;" horiz-adv-x="0" 
d="M518 1775q-35 0 -60 22.5t-25 56.5t25 56.5t60 22.5q34 0 58.5 -23t24.5 -56q0 -34 -23.5 -56.5t-59.5 -22.5z" />
    <glyph glyph-name="uni0308" unicode="&#x308;" horiz-adv-x="0" 
d="M848 1681q-36 0 -60.5 22.5t-24.5 56.5q0 33 24.5 57t60.5 24q35 0 60 -24t25 -57t-25 -56t-60 -23zM433 1760q0 33 25.5 57t60.5 24t59.5 -24t24.5 -57q0 -34 -24.5 -56.5t-59.5 -22.5t-60.5 23t-25.5 56z" />
    <glyph glyph-name="uni030A" unicode="&#x30a;" horiz-adv-x="0" 
d="M599 1695q-69 0 -117.5 47t-48.5 113t48 112t118 46q68 0 117 -46.5t49 -111.5q0 -67 -49 -113.5t-117 -46.5zM516 1855q0 -34 24.5 -58t58.5 -24q35 0 59.5 24t24.5 58q0 32 -24.5 55t-59.5 23q-34 0 -58.5 -23t-24.5 -55z" />
    <glyph glyph-name="uni030B" unicode="&#x30b;" horiz-adv-x="0" 
d="M489 1710l84 288h146l-131 -288h-99zM215 1710l84 288h146l-131 -288h-99z" />
    <glyph glyph-name="uni030C" unicode="&#x30c;" horiz-adv-x="0" 
d="M213 2310l-202 288h141l141 -203l137 203h142l-200 -288h-159z" />
    <glyph glyph-name="dotbelowcomb" unicode="&#x323;" horiz-adv-x="0" 
d="M500 206q-35 0 -60 22.5t-25 56.5t25 56.5t60 22.5q34 0 58.5 -23t24.5 -56q0 -34 -23.5 -56.5t-59.5 -22.5z" />
    <glyph glyph-name="uni0326" unicode="&#x326;" horiz-adv-x="0" 
d="M521 -463l84 288h146l-131 -288h-99z" />
    <glyph glyph-name="uni0327" unicode="&#x327;" horiz-adv-x="0" 
d="M637 -367q-66 -17 -125.5 16t-77.5 96l91 23q8 -27 33.5 -41t54.5 -7q29 8 44 32.5t7 52.5t-33 41.5t-55 7.5l-100 -13l128 214l82 -45l-44 -73q40 -10 71 -39t42 -70q18 -64 -16.5 -121t-101.5 -74z" />
    <glyph glyph-name="uni0328" unicode="&#x328;" horiz-adv-x="0" 
d="M504 -406q-82 1 -135.5 55.5t-53.5 128.5t56 129l175 168l79 -75q-137 -131 -154 -149q-39 -43 -39 -77q0 -29 21 -51t56 -24q42 0 75 29t33 73h105q0 -88 -63 -147.5t-155 -59.5z" />
    <glyph glyph-name="uni03BC" unicode="&#x3bc;" horiz-adv-x="1128" 
d="M95 -432v1432h146v-532q0 -100 44 -179q43 -83 118 -131t165 -48q92 0 163 49q73 48 114 129.5t41 179.5v532h146v-1000h-146v168q-60 -93 -146.5 -144t-189.5 -51q-96 0 -176 45t-133 121v-571h-146z" />
    <glyph glyph-name="uni1E20" unicode="&#x1e20;" horiz-adv-x="1501" 
d="M810 -31q-159 0 -293 54.5t-226.5 151t-144 232t-51.5 293.5t51.5 293.5t144 232t226.5 151t293 54.5q193 0 345 -77t247 -217l-127 -65q-78 105 -197.5 162.5t-269.5 57.5q-260 0 -420 -165.5t-160 -427.5t160 -427.5t420 -165.5q139 0 253 50.5t193 142.5v363h-563v140
h709v-539q-93 -139 -245.5 -216.5t-344.5 -77.5zM387 1701v113h706v-113h-706z" />
    <glyph glyph-name="uni1E21" unicode="&#x1e21;" horiz-adv-x="1259" 
d="M593 -500q-107 0 -209 48t-177 127t-106 174l135 59q31 -115 133 -191t224 -76q156 0 267.5 96.5t111.5 225.5v167q-145 -156 -382 -156q-231 0 -373 147t-142 379t142 379t373 147q237 0 382 -156v130h146v-1037q0 -125 -74.5 -232.5t-195.5 -169t-255 -61.5zM209 500
q0 -172 105 -281t276 -109t276 109t105 281t-105 281t-276 109t-276 -109t-105 -281zM240 1323v113h706v-113h-706z" />
    <glyph glyph-name="Wgrave" unicode="&#x1e80;" horiz-adv-x="1789" 
d="M435 0l-375 1400h151l309 -1159l308 1159h130l309 -1159l309 1159h150l-372 -1400h-174l-287 1075l-287 -1075h-171zM720 1998h146l84 -288h-97z" />
    <glyph glyph-name="wgrave" unicode="&#x1e81;" horiz-adv-x="1721" 
d="M422 0l-350 1000h143l284 -806l282 806h155l282 -806l283 806h144l-351 -1000h-151l-287 814l-284 -814h-150zM743 1597h146l84 -288h-97z" />
    <glyph glyph-name="Wacute" unicode="&#x1e82;" horiz-adv-x="1789" 
d="M435 0l-375 1400h151l309 -1159l308 1159h130l309 -1159l309 1159h150l-372 -1400h-174l-287 1075l-287 -1075h-171zM759 1710l84 288h146l-131 -288h-99z" />
    <glyph glyph-name="wacute" unicode="&#x1e83;" horiz-adv-x="1721" 
d="M422 0l-350 1000h143l284 -806l282 806h155l282 -806l283 806h144l-351 -1000h-151l-287 814l-284 -814h-150zM731 1299l84 288h146l-131 -288h-99z" />
    <glyph glyph-name="Wdieresis" unicode="&#x1e84;" horiz-adv-x="1789" 
d="M435 0l-375 1400h151l309 -1159l308 1159h130l309 -1159l309 1159h150l-372 -1400h-174l-287 1075l-287 -1075h-171zM640 1760q0 33 25.5 57t60.5 24t59.5 -24t24.5 -57q0 -34 -24.5 -56.5t-59.5 -22.5t-60.5 23t-25.5 56zM970 1760q0 33 24.5 57t60.5 24q35 0 60 -24
t25 -57t-25 -56t-60 -23q-36 0 -60.5 22.5t-24.5 56.5z" />
    <glyph glyph-name="wdieresis" unicode="&#x1e85;" horiz-adv-x="1721" 
d="M422 0l-350 1000h143l284 -806l282 806h155l282 -806l283 806h144l-351 -1000h-151l-287 814l-284 -814h-150zM602 1373q0 33 25.5 57t60.5 24t59.5 -24t24.5 -57q0 -34 -24.5 -56.5t-59.5 -22.5t-60.5 23t-25.5 56zM932 1373q0 33 24.5 57t60.5 24q35 0 60 -24t25 -57
t-25 -56t-60 -23q-36 0 -60.5 22.5t-24.5 56.5z" />
    <glyph glyph-name="uni1E9E" unicode="&#x1e9e;" horiz-adv-x="1274" 
d="M1153 405q0 -100 -34 -179.5t-89 -128t-125.5 -81t-143.5 -44.5t-141.5 -13.5t-121.5 6.5t-83 21v138q168 -44 300.5 -20t214 106.5t81.5 194.5q0 73 -21.5 129.5t-55 91t-79.5 56.5t-89.5 30.5t-90.5 8.5h-260v135h254q117 0 186.5 58.5t69.5 184.5q0 107 -54 166
t-162 59h-447v-1548h-142v1683h589q72 0 135 -21.5t114 -64t80.5 -113t29.5 -161.5q0 -202 -139 -304q224 -109 224 -390z" />
    <glyph glyph-name="uni1EBC" unicode="&#x1ebc;" horiz-adv-x="1180" 
d="M135 0v1400h925v-140h-778v-457h650v-140h-650v-523h778v-140h-925zM274 1799q15 53 58.5 85t104.5 32q37 0 87.5 -22.5t91.5 -50t86.5 -50t72.5 -22.5q32 0 46.5 34t1.5 64l100 30q20 -58 5 -112q-17 -53 -61 -85t-105 -32q-36 0 -86.5 25t-92 54t-86 50t-71.5 15
q-28 -6 -43 -34t-4 -64l-100 -26q-20 58 -5 109z" />
    <glyph glyph-name="uni1EBD" unicode="&#x1ebd;" horiz-adv-x="1183" 
d="M590 -26q-231 0 -373 147t-142 379t142 379t373 147t373 -147t142 -379v-53h-893q16 -151 118.5 -244t259.5 -93q116 0 204 53t134 145l135 -31q-56 -140 -180.5 -221.5t-292.5 -81.5zM212 560h755q-18 148 -120 239t-257 91t-257.5 -91t-120.5 -239zM268 1412
q15 53 58.5 85t104.5 32q47 0 114 -36.5t128.5 -72.5t95.5 -36q32 0 46.5 34t1.5 64l100 30q20 -58 5 -112q-17 -53 -61 -85t-105 -32q-36 0 -86.5 25t-92 54t-86 50t-71.5 15q-28 -6 -43 -34t-4 -64l-100 -26q-20 58 -5 109z" />
    <glyph glyph-name="Ygrave" unicode="&#x1ef2;" horiz-adv-x="1279" 
d="M564 0v634l-492 766h173l392 -613l394 613h172l-493 -766v-634h-146zM491 1998h146l84 -288h-97z" />
    <glyph glyph-name="ygrave" unicode="&#x1ef3;" horiz-adv-x="1099" 
d="M276 -500l190 500l-375 1000h159l289 -807l310 807h154l-571 -1500h-156zM404 1577h146l84 -288h-97z" />
    <glyph glyph-name="uni1EF8" unicode="&#x1ef8;" horiz-adv-x="1285" 
d="M567 0v634l-492 766h173l392 -613l394 613h172l-493 -766v-634h-146zM314 1841q15 53 58.5 85t104.5 32q37 0 87.5 -22.5t91.5 -50t86.5 -50t72.5 -22.5q32 0 46.5 34t1.5 64l100 30q20 -58 5 -112q-17 -53 -61 -85t-105 -32q-36 0 -86.5 25t-92 54t-86 50t-71.5 15
q-28 -6 -43 -34t-4 -64l-100 -26q-20 58 -5 109z" />
    <glyph glyph-name="uni1EF9" unicode="&#x1ef9;" horiz-adv-x="1106" 
d="M280 -500l190 500l-375 1000h159l289 -807l310 807h154l-571 -1500h-156zM229 1424q15 53 58.5 85t104.5 32q47 0 114 -36.5t128.5 -72.5t95.5 -36q32 0 46.5 34t1.5 64l100 30q20 -58 5 -112q-17 -53 -61 -85t-105 -32q-36 0 -86.5 25t-92 54t-86 50t-71.5 15
q-28 -6 -43 -34t-4 -64l-100 -26q-20 58 -5 109z" />
    <glyph glyph-name="endash" unicode="&#x2013;" horiz-adv-x="1316" 
d="M135 530v140h1045v-140h-1045z" />
    <glyph glyph-name="emdash" unicode="&#x2014;" horiz-adv-x="2152" 
d="M135 530v140h1881v-140h-1881z" />
    <glyph glyph-name="quoteleft" unicode="&#x2018;" horiz-adv-x="482" 
d="M249 878l-114 522h147l64 -522h-97z" />
    <glyph glyph-name="quoteright" unicode="&#x2019;" horiz-adv-x="342" 
d="M55 878l64 522h147l-114 -522h-97z" />
    <glyph glyph-name="quotesinglbase" unicode="&#x201a;" horiz-adv-x="371" 
d="M64 -112l64 338h147l-114 -338h-97z" />
    <glyph glyph-name="quotedblleft" unicode="&#x201c;" horiz-adv-x="688" 
d="M132 878l114 522h97l-65 -522h-146zM418 882l114 522h97l-65 -522h-146z" />
    <glyph glyph-name="quotedblright" unicode="&#x201d;" horiz-adv-x="688" 
d="M53 878l64 522h147l-114 -522h-97zM339 878l64 522h147l-114 -522h-97z" />
    <glyph glyph-name="quotedblbase" unicode="&#x201e;" horiz-adv-x="645" 
d="M64 -112l64 338h147l-114 -338h-97zM338 -112l64 338h147l-114 -338h-97z" />
    <glyph glyph-name="dagger" unicode="&#x2020;" horiz-adv-x="848" 
d="M351 587v506h-256v140h256v267h146v-267h255v-140h-255v-506h-146z" />
    <glyph glyph-name="daggerdbl" unicode="&#x2021;" horiz-adv-x="848" 
d="M351 560v222h-256v138h256v207h-256v140h256v233h146v-233h255v-140h-255v-207h255v-138h-255v-222h-146z" />
    <glyph glyph-name="bullet" unicode="&#x2022;" horiz-adv-x="413" 
d="M205 493q-46 0 -78 31t-32 77q0 44 32 75t78 31q47 0 79.5 -31t32.5 -75q0 -46 -32.5 -77t-79.5 -31z" />
    <glyph glyph-name="ellipsis" unicode="&#x2026;" horiz-adv-x="1061" 
d="M173 -26q-34 0 -58 23.5t-24 57.5q0 32 24 55.5t58 23.5q35 0 60 -23.5t25 -55.5q0 -34 -25 -57.5t-60 -23.5zM424 55q0 32 24 55.5t58 23.5q35 0 60 -23.5t25 -55.5q0 -34 -25 -57.5t-60 -23.5q-34 0 -58 23.5t-24 57.5zM758 55q0 32 24 55.5t58 23.5q35 0 60 -23.5
t25 -55.5q0 -34 -25 -57.5t-60 -23.5q-34 0 -58 23.5t-24 57.5z" />
    <glyph glyph-name="guilsinglleft" unicode="&#x2039;" horiz-adv-x="725" 
d="M449 261l-314 340l314 338h160l-313 -338l313 -340h-160z" />
    <glyph glyph-name="guilsinglright" unicode="&#x203a;" horiz-adv-x="724" 
d="M115 261l312 340l-312 338h159l314 -338l-314 -340h-159z" />
    <glyph glyph-name="fraction" unicode="&#x2044;" horiz-adv-x="523" 
d="M-228 0l845 1400h133l-844 -1400h-134z" />
    <glyph glyph-name="Euro" unicode="&#x20ac;" horiz-adv-x="1243" 
d="M1147 -15q-187 -33 -359.5 25.5t-294.5 191t-168 312.5h-230v107h210v157h-210v107h230q47 181 170.5 314.5t295.5 191.5t356 25v-143q-147 31 -284.5 -10.5t-237 -141t-144.5 -236.5h346v-107h-374v-157h374v-107h-345q45 -140 145.5 -239t237.5 -138t282 -8v-144z" />
    <glyph glyph-name="trademark" unicode="&#x2122;" horiz-adv-x="1553" 
d="M350 662v664h-264v74h605v-74h-264v-664h-77zM718 661v739h74l273 -563l271 563h74v-739h-83l-1 511l-237 -490h-50l-237 490l-1 -511h-83z" />
    <glyph glyph-name="arrowleft" unicode="&#x2190;" horiz-adv-x="1455" 
d="M612 255l-517 495l517 495l102 -99l-340 -326h985v-140h-985l340 -326z" />
    <glyph glyph-name="arrowup" unicode="&#x2191;" horiz-adv-x="1226" 
d="M540 144v944l-341 -327l-104 100l518 495l517 -495l-103 -100l-341 327v-944h-146z" />
    <glyph glyph-name="arrowright" unicode="&#x2192;" horiz-adv-x="1456" 
d="M842 255l-103 99l339 326h-983v140h983l-339 326l103 99l518 -495z" />
    <glyph glyph-name="arrowdown" unicode="&#x2193;" horiz-adv-x="1225" 
d="M610 145l-515 495l103 99l339 -326v942h147v-942l342 326l103 -99z" />
    <glyph glyph-name="arrowboth" unicode="&#x2194;" horiz-adv-x="1783" 
d="M612 255l-517 495l517 495l102 -99l-340 -326h1033l-341 326l103 99l518 -495l-518 -495l-103 99l341 326h-1033l340 -326z" />
    <glyph glyph-name="arrowupdn" unicode="&#x2195;" horiz-adv-x="1226" 
d="M612 -13l-517 496l103 100l341 -328v990l-341 -327l-103 100l517 495l518 -495l-104 -100l-340 327v-990l340 328l104 -100z" />
    <glyph glyph-name="uni2196" unicode="&#x2196;" horiz-adv-x="1138" 
d="M938 298l-697 666v-462h-146v700h731v-140h-481l697 -666z" />
    <glyph glyph-name="uni2197" unicode="&#x2197;" horiz-adv-x="1137" 
d="M198 298l-103 99l696 665h-484v140h734v-700h-146v461z" />
    <glyph glyph-name="uni2198" unicode="&#x2198;" horiz-adv-x="1137" 
d="M309 298v140h482l-696 665l103 99l697 -665v461h146v-700h-732z" />
    <glyph glyph-name="uni2199" unicode="&#x2199;" horiz-adv-x="1137" 
d="M95 298v700h146v-461l696 665l104 -99l-697 -665h482v-140h-731z" />
    <glyph glyph-name="partialdiff" unicode="&#x2202;" horiz-adv-x="1262" 
d="M610 110q171 0 276 109t105 281t-105 281t-276 109t-276 -109t-105 -281t105 -281t276 -109zM95 500q0 232 142 379t373 147q193 -2 326 -112q-32 92 -81.5 170.5t-115.5 141t-153 98t-185 35.5v140q162 0 301.5 -76t244.5 -215q103 -136 160 -313.5t59 -375.5
q0 -160 -66 -283q-67 -124 -186.5 -193t-272.5 -69h-31q-231 0 -373 147t-142 379z" />
    <glyph glyph-name="emptyset" unicode="&#x2205;" horiz-adv-x="1236" 
d="M354 -55l-109 60l51 83q-93 74 -147 181.5t-54 230.5q0 145 70 266.5t190 191.5t262 70q115 0 216 -48l48 79l109 -60l-50 -84q94 -74 147 -181.5t53 -233.5q0 -108 -41.5 -206t-111.5 -168t-167 -111t-203 -41t-216 49zM232 494q0 -86 36.5 -160t99.5 -126l396 658
q-77 30 -152 30.5t-144 -32.5t-121.5 -85t-83.5 -127t-31 -158zM470 137q79 -30 154.5 -30.5t144 33t120.5 85t82.5 125.5t30.5 156q0 86 -36 161.5t-99 127.5z" />
    <glyph glyph-name="minus" unicode="&#x2212;" horiz-adv-x="1236" 
d="M95 530v140h1045v-140h-1045z" />
    <glyph glyph-name="radical" unicode="&#x221a;" horiz-adv-x="1368" 
d="M364 0l-269 708h155l203 -529l466 1221h353v-140h-250l-482 -1260h-176z" />
    <glyph glyph-name="infinity" unicode="&#x221e;" horiz-adv-x="1561" 
d="M415 303q-100 11 -169 56q-71 45 -111 115t-40 152q0 133 90 225t230 98q78 0 138 -23q100 -42 228 -193q61 72 114 120q108 96 233 96q108 -5 184 -48q74 -45 113.5 -116t39.5 -159q0 -87 -40 -157q-42 -73 -113.5 -116.5t-163.5 -49.5q-80 0 -136 22q-55 20 -107 65
t-124 128q-64 -73 -119 -123t-112.5 -72t-134.5 -20zM230 626q0 -77 53.5 -131t132.5 -62q62 0 103 22q26 13 57.5 41.5t50.5 49.5t69 80q-72 83 -98 111q-42 43 -83 62.5t-99 18.5q-81 -7 -133.5 -62.5t-52.5 -129.5zM865 626q108 -123 147 -152q55 -41 133 -41
q81 8 133.5 63t52.5 130q0 79 -53.5 132.5t-142.5 60.5q-55 0 -94 -21q-25 -14 -55 -41t-52.5 -52.5t-68.5 -78.5z" />
    <glyph glyph-name="integral" unicode="&#x222b;" horiz-adv-x="941" 
d="M290 -26q-91 1 -146.5 61t-47.5 144l105 -8q-1 -32 15 -53t47 -25q32 -2 55 16t26 48l106 1114q11 70 70 114t134 41q86 -3 141.5 -63.5t48.5 -142.5l-99 9q-1 37 -22.5 57.5t-54.5 19.5q-29 2 -51 -18t-24 -48l-104 -1110q-15 -78 -67 -116.5t-132 -39.5z" />
    <glyph glyph-name="approxequal" unicode="&#x2248;" horiz-adv-x="1304" 
d="M905 721q-49 0 -112.5 22.5t-123.5 55t-119 64.5t-117 54.5t-99 22.5q-68 2 -109 -49.5t-25 -121.5l-142 -7q-18 79 14 150q31 73 98.5 118t152.5 45q49 0 109 -23t116.5 -55.5t112 -65t112.5 -55.5t102 -23q70 0 111.5 51.5t24.5 117.5l144 9q21 -81 -9 -151
q-30 -72 -94 -115.5t-147 -43.5zM58 214q-18 79 14 150q31 73 98.5 118t152.5 45q49 0 109 -23t116.5 -55.5t112 -65t112.5 -55.5t102 -23q70 0 111.5 51.5t24.5 117.5l144 9q21 -81 -9 -151q-30 -72 -94 -115.5t-147 -43.5q-49 0 -112.5 22.5t-123.5 54.5t-119 64.5
t-117 55t-99 22.5q-68 2 -109 -49.5t-25 -121.5z" />
    <glyph glyph-name="notequal" unicode="&#x2260;" horiz-adv-x="1236" 
d="M363 18l95 310h-363v140h404l82 264h-486v140h530l94 310h151l-94 -310h364v-140h-407l-81 -264h488v-140h-530l-96 -310h-151z" />
    <glyph glyph-name="lessequal" unicode="&#x2264;" horiz-adv-x="1236" 
d="M1140 341l-1045 284v230l1045 286v-146l-933 -254l933 -254v-146zM95 0v140h1045v-140h-1045z" />
    <glyph glyph-name="greaterequal" unicode="&#x2265;" horiz-adv-x="1236" 
d="M95 349v146l933 250l-933 250v146l1045 -282v-230zM95 0v140h1045v-140h-1045z" />
    <glyph glyph-name="uniA78B" unicode="&#xa78b;" horiz-adv-x="262" 
d="M67 1443h127l-14 -488h-98z" />
    <glyph glyph-name="uniA78C" unicode="&#xa78c;" horiz-adv-x="262" 
d="M67 1443h127l-14 -488h-98z" />
    <glyph glyph-name="uni004A0301" horiz-adv-x="1319" 
d="M622 -26q-177 0 -302 82q-127 81 -196 219.5t-69 308.5h146q0 -208 114.5 -339t306.5 -131q138 0 232 65q92 64 141 170.5t49 234.5v816h146v-816q0 -264 -156 -437t-412 -173zM1042 1710l84 288h146l-131 -288h-99z" />
    <glyph glyph-name="i.loclTRK" horiz-adv-x="428" 
d="M135 0v1000h147v-1000h-147zM128 1403q0 34 25 56.5t60 22.5q34 0 58.5 -23t24.5 -56q0 -34 -23.5 -56.5t-59.5 -22.5q-35 0 -60 22.5t-25 56.5z" />
    <glyph glyph-name="uni006A0301" horiz-adv-x="490" 
d="M-69 -360q118 0 195.5 71.5t77.5 180.5v1108h146v-1108q0 -109 -54 -197q-56 -91 -151 -143t-214 -52v140zM202 1310l84 288h146l-131 -288h-99z" />
    <glyph glyph-name="_Designova" horiz-adv-x="1401" 
d="M699 38q-162 0 -300 81t-218.5 219.5t-80.5 300.5q1 122 48.5 233t128 191t191.5 127.5t233 47.5t233 -47.5t191.5 -127.5t128 -191t47.5 -233q0 -163 -80.5 -301.5t-219.5 -219t-302 -80.5zM172 639q0 -108 42 -206t112.5 -168.5t168.5 -112.5t206 -42q143 0 264.5 70.5
t192.5 192t71 265.5t-70.5 266t-191.5 192.5t-265 70.5t-266 -70.5t-193 -192t-71 -265.5zM360 744q8 0 12 -4q53 -20 107 -29q43 -4 76 3q24 4 49 13q4 0 10.5 3.5t7.5 3.5l-17 8.5t-17.5 9t-15 10t-14.5 13.5h20q37 0 80 18q77 48 147 68q30 9 61 9q6 0 23 1.5t25 0.5
q62 -4 94 -36q7 -5 31 -34v-2q-3 2 -6 2q-50 19 -89.5 4.5t-66.5 -55.5q-6 -11 -15.5 -33.5t-12.5 -29.5q-5 -12 -15 -36.5t-19 -44.5t-17 -37q-31 -65 -69 -111q-17 -23 -68 -61q-51 -36 -127 -59h-6l26 23q16 15 28 47q8 25 24.5 71t23.5 68q31 89 60 139v1q-1 -2 -4.5 -6
t-5.5 -6q-8 -8 -10 -15q-21 -24 -35 -60q-3 -5 -9 -5q-110 5 -190 73q-1 1 -61 58q-5 7 -15 17z" />
    <glyph glyph-name="_Origin" horiz-adv-x="1874" 
d="M100 40v1150h1674v-1149l-43 -1v1zM143 82h1588v625h-1588v-625zM289 224v128h30v-128h-30zM293 884h68q60 0 84 40q11 19 11 46q0 55 -44 75q-19 11 -49 11h-70v-172zM312 439v127h107v-23h-77v-28h70v-22h-70v-31h77v-23h-107zM333 916v108h27q37 0 49 -23q7 -19 7 -31
q0 -36 -26 -48q-10 -6 -31 -6h-26zM339 224v128h25l64 -77v77h29v-128h-24l-63 79v-79h-31zM440 439v127h25l64 -76v76h29v-127h-25l-63 78v-78h-30zM472 948q0 -44 33 -58q13 -7 39 -7q35 0 54 17q9 12 12 22l-38 1q-3 -9 -16 -13q-2 0 -5.5 -0.5t-6.5 -0.5q-22 0 -29 15
q-5 8 -5 15h100v11q0 32 -20 49q-19 16 -48 16q-43 0 -63 -32q-7 -17 -7 -35zM510 962q1 12 15 22q8 5 17 5q21 0 26 -16q4 -5 4 -11h-62zM524 224v128h63q52 0 52 -32q0 -20 -18 -29q2 0 2 -2q20 -7 20 -30q0 -35 -51 -35h-68zM554 247h35q24 0 24 16q0 15 -24 15h-35v-31z
M554 303h31q24 0 24 14q0 16 -24 16h-31v-30zM579 543v23h112v-23h-41v-104h-29v104h-42zM621 922q6 -39 67 -39q39 0 57 20q7 11 7 21q0 26 -41 35l-28 5q-18 3 -18 13q0 12 23 12t23 -14l38 2q-7 38 -62 38q-38 0 -54 -19q-8 -8 -8 -21q0 -28 41 -37l26 -5q19 -3 19 -12
q0 -14 -23 -14q-24 0 -27 16zM657 224v128h107v-24h-78v-27h70v-23h-70v-29h76v-25h-105zM704 566h32l29 -89l30 89h27l29 -90l31 90h28l-41 -127h-33l-28 87l-29 -87h-31zM767 1047q0 -7 7 -12.5t15 -5.5q9 0 15.5 5.5t6.5 12.5t-6.5 12.5t-15.5 5.5q-8 0 -15 -5.5
t-7 -12.5zM768 884h41v129h-41v-129zM784 224v128h59q19 0 29 -5q27 -12 27 -41q0 -14 -7 -24q-11 -13 -21 -18l27 -40h-32l-25 37h-26v-37h-31zM815 285h26q28 0 28 21q0 22 -28 22h-26v-43zM827 949q0 -42 30 -56q12 -6 30 -6q21 0 33 10q7 5 7 10h2v-23q0 -24 -30 -24
q-18 0 -25 7q-2 1 -5 8l-37 -6q3 -15 20 -25t46 -10q43 0 62 22q10 10 10 27v130h-40v-21h-3q-4 13 -21 19q-10 4 -19 4q-35 0 -52 -29q-8 -16 -8 -37zM869 949q0 24 12 33q10 5 18 5q19 0 28 -19q0 -2 1.5 -8.5t1.5 -10.5q0 -36 -31 -36q-18 0 -28 18q-2 10 -2 18zM913 224
v128h29v-103h76v-25h-105zM915 503q0 27 20 47q19 19 50 19q33 0 51 -19q20 -20 20 -47q0 -25 -20 -47q-18 -19 -50 -19t-51 19q-20 22 -20 47zM946 503q0 -18 11 -29.5t28 -11.5q18 0 29 11.5t11 29.5q0 19 -11 30.5t-29 11.5q-17 0 -28 -11.5t-11 -30.5zM993 884h41v75
q0 17 13 23q5 3 14 3q25 0 25 -25v-76h42v82q0 31 -24 42q-11 7 -27 7q-31 0 -43 -25h-1v23h-40v-129zM1039 224v128h30v-128h-30zM1073 439v127h57q22 0 30 -3q26 -14 26 -42q0 -15 -7 -25q-6 -10 -21 -17l28 -40h-32l-25 36h-28v-36h-28zM1090 224v128h25l63 -77v77h31
v-128h-25l-64 79v-79h-30zM1101 499h27q28 0 28 22t-28 22h-27v-44zM1145 948q0 -39 34 -58q12 -7 38 -7q42 0 64 31q8 14 8 34q0 39 -33 59q-19 8 -39 8q-44 0 -63 -32q-9 -18 -9 -35zM1187 949q0 24 13 33q6 5 17 5q19 0 27 -19q3 -7 3 -19q0 -24 -13 -34q-8 -5 -17 -5
q-19 0 -28 20q-2 10 -2 19zM1201 439v127h107v-23h-77v-28h69v-22h-69v-54h-30zM1227 242q0 17 19 17q7 0 12 -5t5 -12q0 -6 -5 -19l-11 -27h-18l9 30q-11 4 -11 16zM1290 1013l51 -129h45l52 129h-42l-31 -91h-1l-31 91h-43zM1319 439v127h107v-23h-77v-28h69v-22h-69v-31
h77v-23h-107zM1336 224v128h57q23 0 38 -8q33 -14 33 -55q0 -22 -9 -35q-16 -30 -62 -30h-57zM1366 249h26q13 0 23 5q19 11 19 35q0 16 -5 21q-9 18 -37 18h-26v-79zM1439 921q0 -26 23 -34q9 -4 25 -4q21 0 34 9q8 10 8 11h2v-19h37v88q0 19 -17 33q-22 10 -43 10
q-35 0 -53 -18q-9 -7 -12 -20l39 -4q4 16 25 16t21 -16v-1q0 -7 -15 -10q-2 -1 -9 -1.5t-10 -0.5q-25 -2 -39 -10q-16 -9 -16 -29zM1448 439v127h22l66 -76v76h29v-127h-25l-64 78v-78h-28zM1477 922q0 7 12 14q4 2 12 2q19 2 28 6v-13q0 -15 -15 -21q-12 -3 -16 -3
q-21 0 -21 15zM1482 224v128h105v-24h-76v-27h69v-23h-69v-29h76v-25h-105z" />
    <glyph glyph-name="_Typeface" horiz-adv-x="2096" 
d="M100 355v540h1896v-540h-1896zM274 522h38v159h3l122 -159h37v217h-39v-159h-2l-123 159h-36v-217zM502 602q0 -49 39 -72q17 -10 46 -10q52 0 74 39q12 21 12 43q0 53 -41 74q-15 10 -45 10q-51 0 -75 -38q-10 -21 -10 -46zM539 602q0 36 21 50q11 8 27 8q33 0 45 -29
q5 -13 5 -29q0 -34 -21 -48q-13 -8 -29 -8q-32 0 -44 29q-4 8 -4 27zM697 522h36v27h3q12 -17 26 -24q13 -5 27 -5q45 0 67 39q10 17 10 45q0 52 -39 72q-11 10 -38 10q-30 0 -44 -17q-8 -11 -9 -12h-3v82h-36v-217zM733 604q0 34 22 48q11 8 27 8q32 0 43 -27q5 -25 5 -29
q0 -36 -22 -50q-11 -8 -26 -8q-33 0 -44 27q-5 25 -5 31zM883 602q0 -51 41 -72q18 -10 45 -10q39 0 63 19q11 11 14 24l-33 5q-9 -17 -25 -19q-7 -5 -16 -5q-34 0 -46 24q-7 10 -7 27h130v9q0 42 -24 63q-23 19 -58 19q-51 0 -75 -38q-9 -19 -9 -46zM919 619q0 19 21 36
q8 5 27 5q34 0 41 -24q3 -3 5 -10l2 -7h-96zM1075 522h34v217h-34v-217zM1222 597q0 -48 46 -67q17 -10 50 -10q62 0 87 36q12 21 12 41v142h-39v-140q0 -32 -26 -43q-14 -7 -34 -7q-36 0 -53 24q-7 10 -7 26v140h-36v-142zM1453 522h36v97q0 26 22 36q10 5 21 5
q18 0 28.5 -10.5t10.5 -28.5v-99h36v104q0 41 -29 53q-14 7 -34 7q-41 0 -53 -29h-4v27h-34v-162zM1633 602q0 -49 39 -72q18 -10 46 -10q52 0 74 39q12 21 12 43q0 53 -41 74q-15 10 -45 10q-53 0 -75 -38q-10 -21 -10 -46zM1669 602q0 36 22 50q11 8 27 8q33 0 45 -29
q5 -13 5 -29q0 -35 -22 -48q-11 -8 -28 -8q-33 0 -44 29q-5 8 -5 27z" />
    <glyph glyph-name="_VendorID" horiz-adv-x="1106" 
d="M100 143v1104h906v-1104h-906zM103 59q0 12 7 19t17 7q8 0 11 -3l4 -5v24h12v-67h-12v9l-4 -7q-6 -4 -14 -4q-21 0 -21 27zM116 59q0 -16 12 -16q14 0 14 16v1q0 16 -13 16t-13 -17zM163 59q0 11 7 18.5t18 7.5q10 0 17 -7t7 -18q0 -2 -2 -5h-34q1 -12 12 -12q9 0 11 8
h11q-3 -19 -22 -19q-25 0 -25 27zM176 62h23q-3 14 -11 14q-11 0 -12 -14zM216 48h13q3 -8 8 -8q9 0 9 7q0 2 -11 8q-17 5 -17 15q0 15 19 15q20 0 20 -15h-13q-2 6 -7 6q-6 0 -6 -5q0 -4 11 -9q16 -3 16 -14q0 -16 -21 -16q-18 0 -21 16zM255 423q0 -56 39.5 -96t96.5 -40
q56 0 94.5 39.5t38.5 96.5q0 58 -37.5 96.5t-95.5 38.5q-11 0 -22 -3l79 112h-60l-90 -128q-43 -60 -43 -116zM255 861q0 -56 39.5 -95t96.5 -39q56 0 94.5 39t38.5 95q0 58 -37.5 96.5t-95.5 38.5q-15 0 -22 -2l79 114h-60l-90 -132q-43 -62 -43 -115zM265 95q0 6 8 6
q7 0 7 -6q0 -8 -7 -8q-8 0 -8 8zM266 34v51h13v-51h-13zM289 31v1h13v-1q0 -8 12 -8q10 0 14 12v8l-4 -7q-8 -2 -13 -2q-22 0 -22 25q0 26 24 26q8 0 11 -3l4 -5v8h13v-38q0 -8 -2 -11q0 -22 -25 -22t-25 17zM302 60q0 -17 12 -17q14 0 14 16v1q0 16 -14 16q-12 0 -12 -16z
M305 423q0 37 24 60.5t62 23.5q36 0 60 -23.5t24 -60.5q0 -39 -24 -63t-60 -24q-38 0 -62 24t-24 63zM305 861q0 39 24 62.5t62 23.5q36 0 60 -24.5t24 -61.5t-24 -61.5t-60 -24.5q-38 0 -62 24t-24 62zM351 34v51h13v-10l4 7q4 3 12 3q14 0 18 -14q1 -3 1 -9v-28h-14v32
q0 10 -9 10q-12 0 -12 -19v-23h-13zM406 59q0 11 7 18.5t18 7.5q26 0 26 -26q0 -27 -26 -27q-11 0 -18 7.5t-7 19.5zM419 59q0 -16 12 -16q14 0 14 16q0 17 -14 17q-12 0 -12 -17zM461 85h14l13 -42l12 42h13l-18 -51h-17zM517 48q0 15 28 15h3v7q0 6 -8 6q-11 0 -11 -8h-12
q0 17 23 17q17 0 19 -14v-37h-11v6l-3 -5q-6 -3 -13 -3q-15 0 -15 16zM529 48q0 -5 8 -5q11 0 11 8v6q-19 2 -19 -9zM568 74v9h5v7q0 14 18 14h5v-10q-10 2 -10 -5v-6h10v-9h-10v-40h-13v40h-5zM580 423q0 -57 39.5 -96.5t95.5 -39.5t94.5 39.5t38.5 96.5t-38 96t-95 39
q-13 0 -23 -3l80 112h-61l-90 -128q-41 -58 -41 -116zM580 861q0 -56 39.5 -95t95.5 -39t94.5 39t38.5 95q0 58 -38 96.5t-95 38.5q-16 0 -24 -2l81 114h-61l-90 -132q-41 -62 -41 -115zM600 59q0 26 26 26q25 0 25 -26q0 -27 -25 -27q-26 0 -26 27zM613 59q0 -16 13 -16
q12 0 12 16q0 17 -12 17q-13 0 -13 -17zM629 423q0 37 24 60.5t62 23.5q36 0 58.5 -23.5t22.5 -60.5q0 -39 -22.5 -63t-58.5 -24q-38 0 -62 24t-24 63zM629 861q0 38 24 62t62 24q36 0 58.5 -24t22.5 -62t-22.5 -62t-58.5 -24q-38 0 -62 24t-24 62zM660 34v51h11v-10l5 7
q4 3 12 3q14 0 18 -14v-37h-13v32q-3 10 -8 10q-14 0 -14 -19v-23h-11zM713 74v9h7v12h13v-12h9v-9h-9v-26q2 -9 8 -5v-10h-7q-14 0 -14 10v31h-7zM746 48h14q2 -8 9 -8q8 0 8 7q0 2 -11 8q-16 4 -16 15q0 15 18 15t23 -15h-15q0 6 -9 6q-4 0 -4 -5t10 -9q18 -4 18 -14
q0 -16 -22 -16q-19 0 -23 16zM794 39q0 9 9 9q8 0 8 -9q0 -7 -8 -7q-9 0 -9 7zM817 59q0 11 7.5 18.5t16.5 7.5q23 0 23 -19h-12q-3 10 -11 10q-11 0 -11 -17q0 -16 11 -16q9 0 11 8h12q-1 -19 -23 -19q-24 0 -24 27zM869 59q0 26 27 26q24 0 24 -26q0 -27 -24 -27
q-27 0 -27 27zM882 59q0 -16 14 -16q12 0 12 16q0 17 -12 17q-14 0 -14 -17zM929 34v51h13v-9l5 6q3 3 8 3q12 0 17 -10l5 7q3 3 10 3q16 0 16 -12q1 -3 1 -11v-28h-12v26q0 1 -0.5 3.5t-0.5 4.5q0 8 -10 8q-8 0 -8 -16v-26h-12v34q-5 8 -9 8q-10 0 -10 -16v-26h-13z" />
    <glyph glyph-name="crossbarcomb" horiz-adv-x="1446" 
d="M15 530v140h1415v-140h-1415z" />
    <glyph glyph-name="crossslashcomb" horiz-adv-x="601" 
d="M15 -209l423 1803h147l-424 -1803h-146z" />
    <glyph glyph-name="dotlessicomb" horiz-adv-x="428" 
d="M140 0v1000h147v-1000h-147z" />
    <glyph glyph-name="dotlessjcomb" horiz-adv-x="492" 
d="M-69 -360q118 0 195.5 71.5t77.5 180.5v1108h146v-1108q0 -109 -54 -197q-56 -91 -151 -143t-214 -52v140z" />
    <glyph glyph-name="leftspikecomb" horiz-adv-x="342" 
d="M75 878l114 522h97l-65 -522h-146z" />
    <glyph glyph-name="rightspikecomb" horiz-adv-x="440" 
d="M53 878l64 522h147l-114 -522h-97z" />
    </font>
</defs>
</svg>
