<?xml version="1.0" standalone="no"?>
<!DOCTYPE svg PUBLIC "-//W3C//DTD SVG 1.1//EN" "http://www.w3.org/Graphics/SVG/1.1/DTD/svg11.dtd" >
<svg xmlns="http://www.w3.org/2000/svg" xmlns:xlink="http://www.w3.org/1999/xlink" version="1.1">
<metadata>
Created by FontForge 20201107 at Tue May 21 02:52:21 2024
 By 
Copyright (c) 2024 by Designova. All rights reserved.
</metadata>
<defs>
<font id="NobelUno-Medium" horiz-adv-x="1185" >
  <font-face 
    font-family="Nobel Uno Medium"
    font-weight="500"
    font-stretch="normal"
    units-per-em="2048"
    panose-1="0 0 0 0 0 0 0 0 0 0"
    ascent="1638"
    descent="-410"
    x-height="1008"
    cap-height="1400"
    bbox="-228 -500 2320 2607"
    underline-thickness="50"
    underline-position="-125"
    unicode-range="U+000D-A78C"
  />
<missing-glyph horiz-adv-x="1608" 
d="M195 -1v1378h1224v-1378h-1224zM389 510l116 -114l299 298l304 -298l118 114l-301 301l296 301l-113 114l-304 -299l-297 299l-118 -114l301 -301zM399 165h31v83h1l62 -83h29v129h-31v-81h-2l-64 81h-26v-129zM535 213q0 -28 25 -43q18 -6 29 -6q32 0 48 23q6 12 6 26
q0 31 -25 44q-12 6 -29 6q-36 0 -48 -24q-6 -11 -6 -26zM565 213q0 15 11 26q4 4 13 4q15 0 21 -14q2 -5 2 -16q0 -17 -10 -25q-10 -2 -13 -2q-17 0 -20 14q-4 5 -4 13zM694 230q0 -41 32 -59q19 -7 37 -7q38 0 55 26q7 11 7 28v17h-59v-21h31q0 -16 -16 -22q-5 -4 -18 -4
q-23 0 -33 19q-5 7 -5 23q0 28 18 38q12 5 19 5q28 0 31 -21h31q-1 18 -20 33q-17 11 -42 11q-40 0 -59 -30q-9 -14 -9 -36zM843 165h29v129h-29v-129zM881 263l40 -99l-2 -5q-2 -11 -22 -7l-7 -19q10 -4 20 -4q20 0 32 14q5 3 8 13l41 107h-31l-22 -71h-2l-22 71h-33z
M1001 129h31v52q6 -10 18 -14q3 -3 13 -3q27 0 39 23q6 10 6 26q0 31 -21 45q-13 5 -24 5q-17 0 -25 -9q-4 -3 -6 -9h-1v18h-30v-134zM1031 213q0 17 10 25q5 5 12 5q16 0 21 -14q3 -8 3 -16q0 -15 -10 -25q-8 -2 -14 -2q-14 0 -20 14q-2 8 -2 13zM1123 165h28v56
q0 14 11 18q4 3 11 3q19 0 19 -19v-58h31v62q0 24 -19 33q-12 3 -19 3q-25 0 -34 -18h-1v49h-27v-129z" />
    <glyph glyph-name=".notdef" horiz-adv-x="1608" 
d="M195 -1v1378h1224v-1378h-1224zM389 510l116 -114l299 298l304 -298l118 114l-301 301l296 301l-113 114l-304 -299l-297 299l-118 -114l301 -301zM399 165h31v83h1l62 -83h29v129h-31v-81h-2l-64 81h-26v-129zM535 213q0 -28 25 -43q18 -6 29 -6q32 0 48 23q6 12 6 26
q0 31 -25 44q-12 6 -29 6q-36 0 -48 -24q-6 -11 -6 -26zM565 213q0 15 11 26q4 4 13 4q15 0 21 -14q2 -5 2 -16q0 -17 -10 -25q-10 -2 -13 -2q-17 0 -20 14q-4 5 -4 13zM694 230q0 -41 32 -59q19 -7 37 -7q38 0 55 26q7 11 7 28v17h-59v-21h31q0 -16 -16 -22q-5 -4 -18 -4
q-23 0 -33 19q-5 7 -5 23q0 28 18 38q12 5 19 5q28 0 31 -21h31q-1 18 -20 33q-17 11 -42 11q-40 0 -59 -30q-9 -14 -9 -36zM843 165h29v129h-29v-129zM881 263l40 -99l-2 -5q-2 -11 -22 -7l-7 -19q10 -4 20 -4q20 0 32 14q5 3 8 13l41 107h-31l-22 -71h-2l-22 71h-33z
M1001 129h31v52q6 -10 18 -14q3 -3 13 -3q27 0 39 23q6 10 6 26q0 31 -21 45q-13 5 -24 5q-17 0 -25 -9q-4 -3 -6 -9h-1v18h-30v-134zM1031 213q0 17 10 25q5 5 12 5q16 0 21 -14q3 -8 3 -16q0 -15 -10 -25q-8 -2 -14 -2q-14 0 -20 14q-2 8 -2 13zM1123 165h28v56
q0 14 11 18q4 3 11 3q19 0 19 -19v-58h31v62q0 24 -19 33q-12 3 -19 3q-25 0 -34 -18h-1v49h-27v-129z" />
    <glyph glyph-name=".null" horiz-adv-x="1259" 
 />
    <glyph glyph-name="nonmarkingreturn" horiz-adv-x="682" 
 />
    <glyph glyph-name="CR" unicode="&#xd;" horiz-adv-x="1259" 
 />
    <glyph glyph-name="space" unicode=" " horiz-adv-x="530" 
 />
    <glyph glyph-name="space" unicode="&#xa0;" horiz-adv-x="530" 
 />
    <glyph glyph-name="exclam" unicode="!" horiz-adv-x="423" 
d="M115 411v989h155v-989h-155zM95 69q0 38 28.5 65t68.5 27q39 0 67 -27t28 -65q0 -39 -28 -66.5t-67 -27.5q-40 0 -68.5 27.5t-28.5 66.5z" />
    <glyph glyph-name="quotedbl" unicode="&#x22;" horiz-adv-x="584" 
d="M87 860v540h139v-540h-139zM353 860v540h139v-540h-139z" />
    <glyph glyph-name="numbersign" unicode="#" horiz-adv-x="1612" 
d="M209 0l93 330h-207l47 162h206l116 417h-207l47 162h206l92 329h174l-92 -329h453l91 329h173l-91 -329h206l-45 -162h-208l-116 -417h207l-45 -162h-206l-94 -330h-174l94 330h-453l-93 -330h-174zM521 492h452l117 417h-452z" />
    <glyph glyph-name="dollar" unicode="$" horiz-adv-x="1272" 
d="M566 -22q-172 15 -301.5 97t-169.5 207l162 58q24 -88 131 -143.5t247 -55.5q90 0 178 30q179 67 179 207q0 70 -49 116q-88 82 -310 120q-141 23 -266 67q-261 95 -261 336q0 114 67 202q62 82 165.5 134t227.5 63v203h139v-203q98 -9 186 -42q104 -39 179.5 -106
t105.5 -157l-164 -57q-24 89 -130.5 144t-246.5 55q-91 1 -177 -29q-85 -32 -132 -85t-47 -122q0 -83 44 -124q41 -42 114 -64.5t200 -45.5q127 -19 258 -70q127 -52 198 -136t71 -199q0 -116 -65 -202q-62 -83 -165.5 -134.5t-228.5 -63.5v-197h-139v197z" />
    <glyph glyph-name="percent" unicode="%" horiz-adv-x="1368" 
d="M160 0l845 1400h201l-845 -1400h-201zM95 1084q0 106 75.5 177.5t183.5 71.5q109 0 184 -72t75 -177q0 -106 -75.5 -177.5t-183.5 -71.5t-183.5 72t-75.5 177zM234 1084q0 -50 34 -82.5t86 -32.5q53 0 86.5 32.5t33.5 82.5t-33.5 82.5t-86.5 32.5q-52 0 -86 -32.5
t-34 -82.5zM752 315q0 106 76.5 178t184.5 72q109 0 184 -73t75 -177q0 -105 -75 -177t-184 -72q-108 0 -184.5 73.5t-76.5 175.5zM890 315q0 -49 35.5 -82t87.5 -33q51 0 86 33t35 82t-35 82.5t-86 33.5q-52 0 -87.5 -33.5t-35.5 -82.5z" />
    <glyph glyph-name="ampersand" unicode="&#x26;" horiz-adv-x="1513" 
d="M524 -25q-126 0 -223 58t-151.5 153t-54.5 202q0 66 15 115t50 97q40 56 214 222q19 19 29 28q-46 45 -64 63t-41 44t-35 45q-39 53 -39 140q0 83 41 147q42 66 110.5 104.5t148.5 38.5q84 0 153 -39q70 -40 110.5 -105.5t40.5 -145.5q0 -85 -42 -145q-29 -43 -138 -147
l361 -346l240 229v-234l-119 -114l287 -273l-122 -118l-286 272q-197 -187 -264 -232q-48 -33 -99 -46t-122 -13zM269 385q0 -106 72.5 -175t182.5 -69q50 0 83 10.5t69 36.5q53 42 87 77q16 16 70 68l53 53l-362 346l-128 -123q-62 -62 -81 -84q-26 -32 -36 -63t-10 -77z
M382 1143q0 -33 12 -54q16 -30 104 -113l26 -24q21 20 51.5 48t39.5 37q32 31 42.5 51.5t10.5 54.5q0 59 -42 98t-102 39q-61 0 -101.5 -39.5t-40.5 -97.5z" />
    <glyph glyph-name="quotesingle" unicode="'" horiz-adv-x="316" 
d="M88 860v540h139v-540h-139z" />
    <glyph glyph-name="parenleft" unicode="(" horiz-adv-x="739" 
d="M434 -110q-110 99 -173 219q-126 229 -126 536q0 164 49 340q38 139 102.5 248.5t148.5 166.5h188q-115 -91 -200 -269q-108 -229 -114 -486q5 -230 86 -423.5t223 -331.5h-184z" />
    <glyph glyph-name="parenright" unicode=")" horiz-adv-x="736" 
d="M119 -110q142 140 222.5 331.5t86.5 423.5q-4 165 -55 332q-88 287 -258 423h187q112 -76 193 -252q105 -238 105 -503q0 -154 -28 -280q-61 -286 -269 -475h-184z" />
    <glyph glyph-name="asterisk" unicode="*" horiz-adv-x="788" 
d="M252 829l-111 80l123 162l-199 62l42 127l201 -62v202h140v-202l198 62l46 -127l-202 -62l124 -162l-112 -80l-125 165z" />
    <glyph glyph-name="plus" unicode="+" horiz-adv-x="1244" 
d="M535 98v421h-440v166h440v421h172v-421h441v-166h-441v-421h-172z" />
    <glyph glyph-name="comma" unicode="," horiz-adv-x="476" 
d="M95 -110l69 361h176l-121 -361h-124z" />
    <glyph glyph-name="hyphen" unicode="-" horiz-adv-x="956" 
d="M135 519v166h685v-166h-685z" />
    <glyph glyph-name="period" unicode="." horiz-adv-x="424" 
d="M190 -25q-39 0 -67 27.5t-28 66.5q0 37 28 64.5t67 27.5q40 0 69 -27.5t29 -64.5q0 -39 -28.5 -66.5t-69.5 -27.5z" />
    <glyph glyph-name="slash" unicode="/" horiz-adv-x="789" 
d="M95 -110l423 1510h175l-424 -1510h-174z" />
    <glyph glyph-name="zero" unicode="0" horiz-adv-x="1276" 
d="M639 -25q-172 0 -302 99t-196 262t-66 364t66 364.5t196 262t302 98.5q169 0 297.5 -95t196 -259t67.5 -371q0 -208 -68 -372t-196.5 -258.5t-296.5 -94.5zM239 700q0 -163 47.5 -289t138.5 -198t214 -72q184 0 289.5 155.5t105.5 403.5q0 254 -106 406.5t-289 152.5
q-193 0 -299 -165q-101 -158 -101 -394z" />
    <glyph glyph-name="one" unicode="1" horiz-adv-x="445" 
d="M95 0v1400h174v-1400h-174z" />
    <glyph glyph-name="two" unicode="2" horiz-adv-x="1170" 
d="M95 0v143l189 167q94 83 199 183q90 87 179 186q178 203 178 312q0 113 -80 190.5t-198 77.5q-75 0 -141 -36q-68 -40 -105 -104.5t-33 -142.5h-172q-3 133 62 235q61 99 164.5 156.5t224.5 57.5q126 0 226 -58q104 -60 164.5 -158.5t60.5 -217.5q0 -135 -145 -332
q-154 -211 -465 -493h631v-166h-939z" />
    <glyph glyph-name="three" unicode="3" horiz-adv-x="1062" 
d="M530 -25q-134 0 -237 57q-106 59 -164 160t-54 221h172q-3 -80 34 -143q74 -129 249 -129q72 0 139 35q67 37 106 95t39 127q0 131 -98.5 199.5t-282.5 65.5v143q159 -3 248.5 56t89.5 174q0 60 -34 110q-36 53 -93 83.5t-122 30.5q-64 0 -124 -30q-66 -35 -101.5 -89.5
t-30.5 -119.5h-174q-4 108 54.5 201.5t159 148.5t215.5 55q114 0 209 -52q97 -54 155.5 -143.5t58.5 -194.5q0 -96 -47 -175.5t-129 -120.5q105 -45 161.5 -135.5t56.5 -206.5t-62 -213q-65 -97 -169.5 -153.5t-224.5 -56.5z" />
    <glyph glyph-name="four" unicode="4" horiz-adv-x="1199" 
d="M739 0v314h-644v159l614 927h203v-919h151v-167h-151v-314h-173zM307 483l432 -2l-2 660z" />
    <glyph glyph-name="five" unicode="5" horiz-adv-x="1139" 
d="M217 337q42 -97 119.5 -150.5t183.5 -53.5q88 0 162 42q158 90 158 263q0 86 -42 151q-45 73 -120 113.5t-152 44.5t-150.5 -15t-123.5 -58h-117l81 733h712v-160h-562l-40 -366q75 19 162 21q145 -1 260 -56q121 -58 188 -164t67 -244q0 -192 -141.5 -328t-341.5 -136
q-133 0 -243 62q-134 75 -192 204z" />
    <glyph glyph-name="six" unicode="6" horiz-adv-x="1160" 
d="M573 -25q-140 0 -254 66q-117 66 -185.5 178t-68.5 244q0 73 17 127.5t57 127.5l413 682h200l-291 -482q166 48 327 -21q141 -60 218.5 -174.5t77.5 -259.5q0 -132 -69 -244.5t-186.5 -178t-255.5 -65.5zM238 464q0 -90 47 -164q48 -75 123.5 -117t164.5 -42q98 0 174 46
q78 46 121.5 119t43.5 158q0 88 -45 161q-46 75 -122.5 117t-169.5 42q-95 0 -172 -45q-78 -46 -121.5 -117.5t-43.5 -157.5z" />
    <glyph glyph-name="seven" unicode="7" horiz-adv-x="1034" 
d="M199 0l576 1234h-720v166h923v-155l-582 -1245h-197z" />
    <glyph glyph-name="eight" unicode="8" horiz-adv-x="1134" 
d="M566 -25q-128 0 -237 56q-108 58 -171 154t-63 211q0 105 58 196t154 145q-80 51 -127.5 130t-47.5 171q0 109 59 196q59 88 158 139.5t217 51.5t219 -51q100 -53 158 -141.5t58 -194.5q0 -92 -48 -171t-128 -130q97 -54 155 -145t58 -196q0 -117 -65 -212
q-65 -97 -172 -153t-235 -56zM276 396q0 -68 40 -128q39 -60 105 -93.5t145 -33.5q124 0 206.5 73t82.5 182q0 107 -83 180t-206 73q-80 0 -145 -34q-68 -36 -106.5 -92.5t-38.5 -126.5zM313 1038q0 -96 72.5 -159t180.5 -63t181 63t73 159q0 94 -73 157.5t-181 63.5
q-107 0 -180 -63.5t-73 -157.5z" />
    <glyph glyph-name="nine" unicode="9" horiz-adv-x="1134" 
d="M672 513q-72 -21 -144.5 -16t-139 26t-123.5 63.5t-99.5 96t-66.5 124t-24 146.5q0 128 66 236.5t179 172t247 63.5q137 0 246 -63q113 -65 179 -172.5t66 -236.5q0 -70 -17 -123t-57 -123l-423 -707h-199zM244 952q0 -86 44 -153q44 -72 116 -112.5t161 -40.5
q93 0 166 43q74 43 115.5 112.5t41.5 150.5q0 89 -45 157q-45 71 -117.5 111t-158.5 40q-93 0 -167 -43q-74 -44 -115 -113.5t-41 -151.5z" />
    <glyph glyph-name="colon" unicode=":" horiz-adv-x="424" 
d="M190 822q-39 0 -67 27.5t-28 66.5q0 38 28 65t67 27q40 0 69 -27t29 -65q0 -39 -28.5 -66.5t-69.5 -27.5zM95 69q0 37 28 64.5t67 27.5q40 0 69 -27.5t29 -64.5q0 -39 -28.5 -66.5t-69.5 -27.5q-39 0 -67 27.5t-28 66.5z" />
    <glyph glyph-name="semicolon" unicode=";" horiz-adv-x="478" 
d="M95 -110l69 361h176l-121 -361h-124zM149 914q0 39 28.5 66.5t68.5 27.5q39 0 67.5 -27.5t28.5 -66.5t-28.5 -65.5t-67.5 -26.5q-40 0 -68.5 26.5t-28.5 65.5z" />
    <glyph glyph-name="less" unicode="&#x3c;" horiz-adv-x="1244" 
d="M1148 191l-1053 287v246l1053 289v-174l-873 -237l873 -239v-172z" />
    <glyph glyph-name="equal" unicode="=" horiz-adv-x="1244" 
d="M95 717v166h1053v-166h-1053zM95 321v167h1053v-167h-1053z" />
    <glyph glyph-name="greater" unicode="&#x3e;" horiz-adv-x="1244" 
d="M95 195v172l872 235l-872 232v175l1053 -285v-247z" />
    <glyph glyph-name="question" unicode="?" horiz-adv-x="1081" 
d="M433 69q0 38 28.5 65t68.5 27t68.5 -27t28.5 -65t-28.5 -66t-68.5 -28t-68.5 28t-28.5 66zM95 1004q-4 120 58 221q58 93 155.5 147t211.5 54q118 0 214 -54q99 -55 155 -148t56 -205q0 -115 -58 -212t-159 -149q-51 -25 -79 -70.5t-28 -101.5v-196h-172v196
q0 101 52 185.5t145 133.5q60 30 93.5 86.5t33.5 127.5q0 104 -72.5 172.5t-180.5 68.5q-112 0 -185 -73.5t-67 -182.5h-173z" />
    <glyph glyph-name="at" unicode="@" horiz-adv-x="1827" 
d="M928 -182q-172 -2 -324 51.5t-269 154.5q-115 100 -177.5 235.5t-62.5 294.5t64.5 304t174 250t261.5 167t319 62t318.5 -62t260.5 -167t173.5 -250t64.5 -304q0 -85 -22.5 -168t-62.5 -150t-103 -108t-138 -41q-61 0 -122 28q-113 52 -140 149q-98 -114 -261 -114
q-116 0 -210 55q-98 54 -154.5 146t-56.5 203q0 110 57 204q59 92 155 145.5t209 53.5q77 0 145 -27.5t114 -76.5v87l146 -21v-570q0 -41 32.5 -68t77.5 -27q55 0 89 44q73 92 73 256q0 169 -86 311t-234.5 224t-324.5 82q-177 0 -325.5 -82t-234.5 -224t-86 -311
q0 -254 189 -412q191 -162 471 -158v-166zM614 554q0 -72 38 -133q39 -61 101.5 -96t137.5 -35t130 39q56 40 86.5 102.5t30.5 134.5q0 66 -27 123q-63 128 -220 128q-77 0 -140 -35q-64 -37 -100.5 -96t-36.5 -132z" />
    <glyph glyph-name="A" unicode="A" horiz-adv-x="1454" 
d="M95 0l533 1400h197l533 -1400h-184l-137 359h-622l-137 -359h-183zM479 526h494l-246 650z" />
    <glyph glyph-name="B" unicode="B" horiz-adv-x="1256" 
d="M135 0v1400h568q176 0 284 -100.5t108 -275.5q0 -85 -32.5 -158.5t-84.5 -112.5q182 -98 182 -349v-1q0 -193 -107.5 -298t-284.5 -105h-633zM308 152h448q109 0 178.5 64.5t69.5 184.5q0 130 -68.5 194t-179.5 64h-448v-507zM308 809h384q105 0 171 54.5t67 165.5
q-1 110 -67 164.5t-171 54.5h-384v-439z" />
    <glyph glyph-name="C" unicode="C" horiz-adv-x="1527" 
d="M810 -30q-212 0 -375.5 93.5t-251.5 259.5t-88 377t88 377t251.5 259.5t375.5 93.5q197 0 352 -81t249 -227l-151 -76q-74 105 -189 162t-263 57q-250 0 -401.5 -157t-151.5 -409t151.5 -409t401.5 -157q147 0 262.5 57.5t190.5 162.5l148 -75q-92 -145 -247.5 -226.5
t-351.5 -81.5z" />
    <glyph glyph-name="D" unicode="D" horiz-adv-x="1399" 
d="M135 0v1400h504q203 0 359.5 -90.5t240.5 -249.5t84 -361t-84 -360.5t-240 -248.5t-360 -90h-504zM309 166l332 -1q237 0 379.5 147.5t142.5 385.5t-142.5 386.5t-379.5 148.5l-332 1v-1068z" />
    <glyph glyph-name="E" unicode="E" horiz-adv-x="1186" 
d="M135 0v1400h935v-166h-761v-418h636v-167h-636v-483h761v-166h-935z" />
    <glyph glyph-name="F" unicode="F" horiz-adv-x="1106" 
d="M135 0v1400h935v-166h-761v-418h636v-167h-636v-649h-174z" />
    <glyph glyph-name="G" unicode="G" horiz-adv-x="1507" 
d="M810 -30q-212 0 -375.5 93.5t-251.5 259.5t-88 377t88 377t251.5 259.5t375.5 93.5q197 0 352 -81t249 -227l-151 -76q-74 105 -189 162t-263 57q-250 0 -401.5 -157t-151.5 -409t151.5 -409t401.5 -157q264 0 422 180v335h-551v167h723v-548q-92 -140 -245.5 -218.5
t-346.5 -78.5z" />
    <glyph glyph-name="H" unicode="H" horiz-adv-x="1376" 
d="M135 0v1400h174v-568h758v568h173v-1400h-173v666h-758v-666h-174z" />
    <glyph glyph-name="I" unicode="I" horiz-adv-x="503" 
d="M165 0v1400h172v-1400h-172z" />
    <glyph glyph-name="J" unicode="J" horiz-adv-x="1332" 
d="M625 -25q-177 0 -304 82q-130 83 -199.5 226.5t-66.5 317.5h172q-4 -206 103.5 -333t294.5 -127q130 0 218 61t134 161t46 223v814h173v-814q0 -172 -69 -310.5t-200 -219.5t-302 -81z" />
    <glyph glyph-name="K" unicode="K" horiz-adv-x="1167" 
d="M135 0v1400h174v-657l574 657h228l-583 -663l573 -737h-222l-465 607l-105 -122v-485h-174z" />
    <glyph glyph-name="L" unicode="L" horiz-adv-x="1186" 
d="M135 0v1400h174v-1234h761v-166h-935z" />
    <glyph glyph-name="M" unicode="M" horiz-adv-x="1585" 
d="M135 -1v1401h161l498 -1027l496 1027h159v-1401h-183l-2 897l-416 -859h-111l-416 861l-1 -899h-185z" />
    <glyph glyph-name="N" unicode="N" horiz-adv-x="1356" 
d="M135 0v1400h179l733 -1091v1091h173v-1400h-177l-734 1090v-1090h-174z" />
    <glyph glyph-name="O" unicode="O" horiz-adv-x="1621" 
d="M810 -30q-212 0 -375.5 93.5t-251.5 259.5t-88 377t88 377t251.5 259.5t375.5 93.5q213 0 376 -93.5t251 -259.5t88 -377t-88 -377t-251 -259.5t-376 -93.5zM255 699q0 -252 151.5 -409t401.5 -157q251 0 402.5 157t151.5 409t-151.5 409t-402.5 157q-250 0 -401.5 -157
t-151.5 -409z" />
    <glyph glyph-name="P" unicode="P" horiz-adv-x="1191" 
d="M135 0v1400h526q69 0 132 -16t118 -51t95.5 -85.5t64 -123t24.5 -159.5q-1 -87 -24.5 -159.5t-64 -123t-95.5 -85.5t-118 -51t-132 -16h-352v-530h-174zM309 679l340 2q42 0 80 8.5t76 29.5t65.5 52.5t44.5 81t16 112.5q1 63 -16 112.5t-44.5 81t-65 52t-76 29t-80.5 8.5
h-340v-569z" />
    <glyph glyph-name="Q" unicode="Q" horiz-adv-x="1623" 
d="M810 -30q-212 0 -375.5 93.5t-251.5 259.5t-88 377t88 377t251.5 259.5t375.5 93.5q213 0 376 -93.5t251 -259.5t88 -377q0 -281 -154 -477l143 -136l-122 -117l-142 135q-184 -135 -440 -135zM255 699q0 -252 151.5 -409t401.5 -157q183 0 319 89l-244 233l123 119
l245 -235q111 150 111 360q0 252 -151.5 409t-402.5 157q-250 0 -401.5 -157t-151.5 -409z" />
    <glyph glyph-name="R" unicode="R" horiz-adv-x="1222" 
d="M135 0v1400h526q69 0 132 -16t118 -51t95.5 -85.5t64 -123t24.5 -159.5q-1 -176 -89 -283t-229 -140l329 -542h-201l-321 530h-275v-530h-174zM309 679l340 2q42 0 80 8.5t76 29.5t65.5 52.5t44.5 81t16 112.5q1 63 -16 112.5t-44.5 81t-65 52t-76 29t-80.5 8.5h-340
v-569z" />
    <glyph glyph-name="S" unicode="S" horiz-adv-x="1311" 
d="M654 -25q-118 0 -227 35q-116 38 -199 108t-113 164l161 58q24 -88 131 -143.5t247 -55.5q91 0 179 30q84 32 131.5 84.5t47.5 122.5t-50 116q-89 82 -310 120q-145 23 -265 67q-261 95 -261 336q0 124 74 216q74 89 194 138.5t260 49.5q191 0 342.5 -84.5t198.5 -225.5
l-164 -57q-24 89 -130.5 144t-246.5 55q-89 1 -177 -29q-85 -32 -132 -85t-47 -122q0 -82 45 -124q41 -42 114 -64.5t199 -45.5q126 -19 259 -70q269 -112 269 -335q0 -123 -74 -214q-74 -90 -194.5 -139.5t-261.5 -49.5z" />
    <glyph glyph-name="T" unicode="T" horiz-adv-x="1345" 
d="M585 0v1234h-490v166h1154v-166h-491v-1234h-173z" />
    <glyph glyph-name="U" unicode="U" horiz-adv-x="1413" 
d="M706 -25q-177 0 -304 82q-128 81 -197.5 220.5t-69.5 308.5v814h174v-814q0 -200 106.5 -322.5t290.5 -122.5q130 0 218 61t134 161t46 223v814h173v-814q0 -172 -69 -310.5t-200 -219.5t-302 -81z" />
    <glyph glyph-name="V" unicode="V" horiz-adv-x="1381" 
d="M594 0l-532 1400h183l445 -1172l446 1172h182l-533 -1400h-191z" />
    <glyph glyph-name="W" unicode="W" horiz-adv-x="1795" 
d="M437 0l-375 1400h179l291 -1092l290 1092h150l291 -1094l291 1094h178l-372 -1400h-194l-269 1010l-269 -1010h-191z" />
    <glyph glyph-name="X" unicode="X" horiz-adv-x="1436" 
d="M75 0l535 704l-529 696h213l423 -556l424 556h212l-527 -696l534 -704h-214l-429 562l-427 -562h-215z" />
    <glyph glyph-name="Y" unicode="Y" horiz-adv-x="1311" 
d="M568 0v631l-493 769h203l376 -587l378 587h203l-495 -769v-631h-172z" />
    <glyph glyph-name="Z" unicode="Z" horiz-adv-x="1378" 
d="M95 0v158l950 1076h-950v166h1187v-158l-949 -1076h949v-166h-1187z" />
    <glyph glyph-name="bracketleft" unicode="[" horiz-adv-x="608" 
d="M135 -110v1510h357v-166h-183v-1177h183v-167h-357z" />
    <glyph glyph-name="backslash" unicode="\" horiz-adv-x="789" 
d="M518 -110l-423 1510h174l424 -1510h-175z" />
    <glyph glyph-name="bracketright" unicode="]" horiz-adv-x="606" 
d="M115 -110v167h183v1177h-183v166h355v-1510h-355z" />
    <glyph glyph-name="asciicircum" unicode="^" horiz-adv-x="874" 
d="M95 979l254 666h175l254 -666h-184l-158 415l-159 -415h-182z" />
    <glyph glyph-name="underscore" unicode="_" horiz-adv-x="1324" 
d="M135 -110v167h1053v-167h-1053z" />
    <glyph glyph-name="grave" unicode="`" horiz-adv-x="820" 
d="M387 2274l-143 311h176l91 -311h-124z" />
    <glyph glyph-name="a" unicode="a" horiz-adv-x="1221" 
d="M594 -25q-233 0 -376 148t-143 381q0 234 143 382t376 148q216 0 359 -132v106h172v-1008h-172v107q-141 -132 -359 -132zM235 504q0 -163 98 -265t261 -102q162 0 260 102t98 265q0 164 -98 265.5t-260 101.5q-163 0 -261 -101.5t-98 -265.5z" />
    <glyph glyph-name="b" unicode="b" horiz-adv-x="1263" 
d="M668 -25q-107 1 -201 38t-158 102v-115h-174v1498h174v-604q65 65 159 102t200 38q232 0 375.5 -148.5t143.5 -381.5t-143.5 -381t-375.5 -148zM310 504q0 -163 98 -265t260 -102t260 102t98 265q0 164 -98 265.5t-260 101.5t-260 -101.5t-98 -265.5z" />
    <glyph glyph-name="c" unicode="c" horiz-adv-x="1152" 
d="M594 -25q-233 0 -376 148t-143 381q0 234 143 382t376 148q175 -1 302 -88.5t180 -235.5l-159 -36q-43 92 -126.5 144t-196.5 52v1q-163 0 -261 -101.5t-98 -265.5q0 -163 98 -265t261 -102q113 0 196.5 52t126.5 144l159 -36q-53 -149 -180.5 -235.5t-301.5 -86.5z" />
    <glyph glyph-name="d" unicode="d" horiz-adv-x="1261" 
d="M594 -25q-233 0 -376 148t-143 381q0 234 143 382t376 148q106 -1 199.5 -38t159.5 -102v604h172v-1498h-172v115q-65 -65 -159 -102t-200 -38zM235 504q0 -163 98 -265t261 -102q162 0 260 102t98 265q0 164 -98 265.5t-260 101.5q-163 0 -261 -101.5t-98 -265.5z" />
    <glyph glyph-name="e" unicode="e" horiz-adv-x="1188" 
d="M594 -25q-233 0 -376 148t-143 381q0 234 143 382t376 148q232 0 375 -148t143 -382v-66h-872q20 -137 114.5 -219t239.5 -82q113 0 196.5 52t126.5 144l159 -36q-53 -149 -180.5 -235.5t-301.5 -86.5zM240 578h706q-21 133 -115.5 213t-236.5 80q-143 0 -237.5 -79.5
t-116.5 -213.5z" />
    <glyph glyph-name="f" unicode="f" horiz-adv-x="747" 
d="M206 0v842h-141v166h141v241q0 115 82.5 193.5t201.5 78.5q61 0 118 -25t98 -72l-125 -118q-29 49 -91 49q-48 0 -80 -30t-32 -76v-241h308v-166h-308v-842h-172z" />
    <glyph glyph-name="g" unicode="g" horiz-adv-x="1261" 
d="M1125 -32q0 -95 -44.5 -182t-117.5 -149.5t-169 -99.5t-197 -37q-106 0 -211 48q-106 50 -183 134t-106 183l160 70q24 -115 122 -191t218 -76q148 0 252 89.5t104 210.5v139q-141 -132 -359 -132q-233 0 -376 148t-143 381q0 234 143 382t376 148q216 0 359 -132v106
h172v-1040zM235 504q0 -163 98 -265t261 -102q162 0 260 102t98 265q0 164 -98 265.5t-260 101.5q-163 0 -261 -101.5t-98 -265.5z" />
    <glyph glyph-name="h" unicode="h" horiz-adv-x="1153" 
d="M135 0v1498h174v-598q57 64 139.5 100t175.5 36q120 0 218 -56q100 -55 157.5 -150t57.5 -209v-621h-173v593q0 118 -82 196.5t-205 78.5q-81 0 -144 -37q-68 -38 -106 -100t-38 -138v-593h-174z" />
    <glyph glyph-name="i" unicode="i" horiz-adv-x="445" 
d="M129 0v1008h174v-1008h-174zM123 1338q0 37 28 64.5t67 27.5q40 0 69 -27.5t29 -64.5q0 -39 -28.5 -66.5t-69.5 -27.5q-39 0 -67 27.5t-28 66.5z" />
    <glyph glyph-name="j" unicode="j" horiz-adv-x="503" 
d="M-67 -323q117 -4 192 61.5t75 170.5v1099h172v-1099q0 -111 -54 -201q-59 -95 -159.5 -148t-225.5 -50v167zM183 1338q0 37 28 64.5t67 27.5q40 0 69 -27.5t29 -64.5q0 -39 -28.5 -66.5t-69.5 -27.5q-39 0 -67 27.5t-28 66.5z" />
    <glyph glyph-name="k" unicode="k" horiz-adv-x="1072" 
d="M135 0v1498h174v-992l439 502h226l-360 -411l361 -597h-198l-280 463l-188 -215v-248h-174z" />
    <glyph glyph-name="l" unicode="l" horiz-adv-x="445" 
d="M135 0v1498h174v-1498h-174z" />
    <glyph glyph-name="m" unicode="m" horiz-adv-x="1875" 
d="M135 0v1008h174v-108q58 64 139.5 100t174.5 36q112 0 207 -50t156 -136q59 86 153.5 136t206.5 50q117 0 218 -56q99 -55 157 -150.5t58 -208.5v-621h-173v590q0 75 -37 137q-40 66 -103 103.5t-141 37.5t-142 -35q-65 -38 -102 -100t-37 -143v-590h-172v590
q0 83 -38 144q-38 64 -102 99t-142 35q-79 0 -140 -38q-66 -40 -103.5 -102.5t-37.5 -137.5v-590h-174z" />
    <glyph glyph-name="n" unicode="n" horiz-adv-x="1153" 
d="M135 1008h174v-108q57 64 140 100t175 36q120 0 218 -56q100 -55 157.5 -150.5t57.5 -208.5v-621h-173v593q0 79 -37 141q-38 63 -104 98.5t-146 35.5q-82 0 -144 -37q-69 -38 -106.5 -100.5t-37.5 -137.5v-593h-174v1008z" />
    <glyph glyph-name="o" unicode="o" horiz-adv-x="1188" 
d="M594 -25q-233 0 -376 148t-143 381q0 234 143 382t376 148q232 0 375 -148t143 -382q0 -233 -143 -381t-375 -148zM235 504q0 -163 98 -265t261 -102q162 0 260 102t98 265q0 164 -98 265.5t-260 101.5q-163 0 -261 -101.5t-98 -265.5z" />
    <glyph glyph-name="p" unicode="p" horiz-adv-x="1263" 
d="M135 -490v1498h174v-114q65 65 159 102t200 38q232 0 375.5 -148.5t143.5 -381.5t-143.5 -381t-375.5 -148q-107 1 -201 38t-158 102v-605h-174zM310 504q0 -163 98 -265t260 -102t260 102t98 265q0 164 -98 265.5t-260 101.5t-260 -101.5t-98 -265.5z" />
    <glyph glyph-name="q" unicode="q" horiz-adv-x="1261" 
d="M953 115q-65 -65 -159 -102t-200 -38q-233 0 -376 148t-143 381q0 234 143 382t376 148q106 -1 199.5 -38t159.5 -102v114h172v-1498h-172v605zM235 504q0 -163 98 -265t261 -102q162 0 260 102t98 265q0 164 -98 265.5t-260 101.5q-163 0 -261 -101.5t-98 -265.5z" />
    <glyph glyph-name="r" unicode="r" horiz-adv-x="796" 
d="M135 0v1008h174v-108q57 64 139.5 100t175.5 36q70 0 136 -20l-71 -163q-51 15 -92 15q-81 0 -144 -37q-68 -38 -106 -100t-38 -138v-593h-174z" />
    <glyph glyph-name="s" unicode="s" horiz-adv-x="935" 
d="M466 138q52 0 102.5 14t89.5 48.5t39 84.5q0 37 -17.5 62.5t-51.5 40t-65 22.5t-78 16q-16 3 -24 4h1q-91 14 -191 50q-194 71 -194 253q0 93 56 163q54 66 142.5 103t190.5 37q146 0 260.5 -68t142.5 -180l-145 -52q-17 64 -87 104t-171 40q-52 0 -102.5 -14
t-89.5 -48.5t-39 -84.5q0 -37 17.5 -62.5t51.5 -40t65 -22.5t78 -16q16 -3 24 -4q90 -14 186 -51q200 -84 200 -253q0 -93 -56 -161q-54 -67 -143 -104t-192 -37h-1q-146 0 -260.5 68t-142.5 180l145 52q17 -64 87 -104t171 -40h1z" />
    <glyph glyph-name="t" unicode="t" horiz-adv-x="764" 
d="M555 -4q-119 0 -201.5 79t-82.5 193v574h-185v166h185l-1 308h173v-308h245v-166h-245v-574q0 -43 28 -69t68 -31.5t80.5 0t69.5 19.5v-159q-64 -32 -134 -32z" />
    <glyph glyph-name="u" unicode="u" horiz-adv-x="1113" 
d="M528 -25q-120 0 -217 55q-100 56 -158 151t-58 209v618h173v-591q0 -77 39 -138q40 -64 105.5 -100.5t143.5 -36.5q123 0 204.5 78.5t81.5 196.5v591h174l1 -1008h-174l-1 111q-57 -64 -138.5 -100t-175.5 -36z" />
    <glyph glyph-name="v" unicode="v" horiz-adv-x="1123" 
d="M460 0l-385 1011h184l301 -795l303 795h184l-386 -1011h-201z" />
    <glyph glyph-name="w" unicode="w" horiz-adv-x="1732" 
d="M427 0l-352 1008h171l267 -759l266 759h173l265 -759l267 759h172l-354 -1008h-169l-270 768l-267 -768h-169z" />
    <glyph glyph-name="x" unicode="x" horiz-adv-x="1176" 
d="M95 0l385 506l-384 505h213l279 -363l277 363h212l-383 -505l386 -506h-214l-278 366l-280 -366h-213z" />
    <glyph glyph-name="y" unicode="y" horiz-adv-x="1127" 
d="M276 -490l192 505l-373 993h188l272 -762l294 762h182l-571 -1498h-184z" />
    <glyph glyph-name="z" unicode="z" horiz-adv-x="1094" 
d="M95 0v158l652 684h-652v166h903v-157l-651 -685h651v-166h-903z" />
    <glyph glyph-name="braceleft" unicode="{" horiz-adv-x="877" 
d="M671 -111q-103 0 -187 49q-86 48 -135.5 130t-49.5 179v240q-1 24 -18.5 37t-56.5 30q-22 10 -32.5 15t-26.5 16.5t-23 26t-7 32.5q0 26 16 45.5t32 28.5t44 20q25 11 37.5 17.5t23.5 18.5t11 28v241q0 98 50 180t135.5 129.5t186.5 47.5h90v-166h-90q-85 0 -142.5 -54.5
t-57.5 -136.5v-246q-1 -41 -18 -69q-19 -27 -72 -66q-5 -3 -12.5 -9.5t-10.5 -8.5q24 -20 51 -40q30 -23 45 -47.5t17 -65.5v-244q0 -82 57 -136.5t143 -54.5h90v-167h-90z" />
    <glyph glyph-name="bar" unicode="|" horiz-adv-x="484" 
d="M155 -296v1696h173v-1696h-173z" />
    <glyph glyph-name="braceright" unicode="}" horiz-adv-x="876" 
d="M115 -111v167h89q87 0 144 54t57 137v245q3 43 18 68q15 24 67 61q13 9 30 23q-21 19 -50 38q-31 24 -46.5 49t-18.5 65v247q0 82 -57 136.5t-144 54.5h-89v166h89q101 0 189 -48q86 -49 135 -130.5t49 -178.5v-240q3 -24 20.5 -37.5t53.5 -28.5q89 -34 89 -93
q0 -34 -23.5 -54t-65.5 -37q-36 -15 -53.5 -29t-20.5 -38v-239q0 -98 -49 -179q-52 -83 -137 -131t-187 -48h-89z" />
    <glyph glyph-name="asciitilde" unicode="~" horiz-adv-x="1310" 
d="M946 414q-44 0 -101.5 19t-95.5 38t-112 59q-60 33 -94.5 50.5t-79.5 33t-76 15.5q-65 1 -100 -48.5t-13 -118.5l-169 -9q-25 91 12 169q32 75 102 121.5t157 46.5q44 0 99.5 -19.5t89.5 -38t100 -56.5q60 -35 92 -52t78.5 -34t81.5 -17q68 0 103 50t10 114l172 11
q27 -89 -6 -169q-31 -74 -97.5 -119.5t-152.5 -45.5z" />
    <glyph glyph-name="exclamdown" unicode="&#xa1;" horiz-adv-x="397" 
d="M113 -392v989h156v-989h-156zM95 940q0 41 27.5 67.5t67.5 26.5q41 0 69 -26.5t28 -67.5q0 -38 -28.5 -65t-68.5 -27q-39 0 -67 27t-28 65z" />
    <glyph glyph-name="cent" unicode="&#xa2;" horiz-adv-x="1179" 
d="M552 201q-120 13 -225 82q-108 71 -170 181t-62 238q0 126 62 239q61 108 164.5 176.5t230.5 83.5v199h138v-198q124 -13 228 -80t165 -171l-149 -83q-46 79 -131 126.5t-180 47.5q-96 0 -178 -46q-82 -47 -129.5 -124t-47.5 -170q0 -97 49 -172q50 -79 130.5 -124.5
t175.5 -45.5t180 47.5t131 126.5l149 -83q-61 -103 -164.5 -170t-228.5 -81v-200h-138v201z" />
    <glyph glyph-name="sterling" unicode="&#xa3;" horiz-adv-x="1245" 
d="M119 166q138 -3 224 53.5t70 142.5q-1 45 -16 78h-278v134h171q-26 24 -39 35q-35 30 -74 75q-82 96 -82 238q0 102 41.5 195.5t112 160.5t168 107t203.5 40q146 0 269 -69.5t193.5 -189t66.5 -258.5h-174q3 105 -48 184q-49 78 -129 122.5t-178 44.5q-94 0 -177 -45
q-82 -47 -128.5 -123t-46.5 -169q0 -82 22 -127q20 -46 52 -81t81 -72q22 -17 78 -68h417v-134h-341q14 -50 14 -107q0 -47 -23.5 -91t-65.5 -76h637v-166h-1020v166z" />
    <glyph glyph-name="currency" unicode="&#xa4;" horiz-adv-x="1075" 
d="M193 276l-98 94l129 124q-68 98 -66.5 209t69.5 202l-132 126l98 93l131 -125q98 65 214.5 66t213.5 -64l130 123l97 -93l-127 -123q71 -93 71.5 -208t-69.5 -209l124 -121l-96 -94l-127 121q-100 -68 -217 -67.5t-217 69.5zM296 698q0 -65 34 -117q34 -55 89 -85.5
t120 -30.5q105 2 175 68t70 165q0 101 -70 166.5t-175 65.5t-174 -66t-69 -166z" />
    <glyph glyph-name="yen" unicode="&#xa5;" horiz-adv-x="1340" 
d="M585 0v189h-302v133h302v127h-302v134h302v48l-497 769h205l378 -587l377 587h203l-494 -769v-48h301v-134h-301v-127h301v-133h-301v-189h-172z" />
    <glyph glyph-name="brokenbar" unicode="&#xa6;" horiz-adv-x="445" 
d="M135 636v764h174v-764h-174zM135 -296v764h174v-764h-174z" />
    <glyph glyph-name="section" unicode="&#xa7;" horiz-adv-x="1156" 
d="M586 -393q-134 0 -243.5 58t-153.5 153l142 79q22 -62 91.5 -99.5t154.5 -39.5q101 -2 166 39.5t65 112.5q0 48 -28 75q-47 43 -216 77q-199 36 -314 152.5t-115 288.5q0 117 65.5 215.5t173.5 148.5q-97 29 -144 85.5t-47 143.5q0 94 56 164q54 67 142.5 104t189.5 37
q134 0 242.5 -57t154.5 -154l-142 -79q-22 62 -91.5 99.5t-154.5 39.5q-102 2 -166.5 -39.5t-64.5 -112.5q0 -44 27 -73q47 -44 215 -77q205 -41 317 -153.5t112 -291.5q0 -117 -64.5 -214.5t-172.5 -147.5q191 -59 191 -229q0 -94 -55 -163q-55 -68 -143.5 -105t-189.5 -37
zM295 503q0 -76 41 -138q41 -63 106 -99t141 -36q77 0 139 37q65 38 102 98.5t37 133.5q0 125 -82 202t-208 77q-117 0 -196.5 -79t-79.5 -196z" />
    <glyph glyph-name="dieresis" unicode="&#xa8;" horiz-adv-x="1350" 
d="M836 2246q-42 0 -70 26t-28 66q0 39 28.5 66.5t69.5 27.5q40 0 69 -28t29 -66q0 -39 -29 -65.5t-69 -26.5zM415 2338q0 39 29.5 66.5t69.5 27.5t68.5 -28t28.5 -66q0 -39 -28 -65.5t-69 -26.5q-40 0 -69.5 26.5t-29.5 65.5z" />
    <glyph glyph-name="copyright" unicode="&#xa9;" horiz-adv-x="1901" 
d="M949 -212q-174 0 -332.5 65t-272.5 174.5t-181.5 261t-67.5 318.5t67.5 318.5t182 261t272.5 174t332 64.5q175 0 333.5 -64.5t273 -174t182 -261t67.5 -318.5t-68 -319t-183 -261.5t-273 -174t-332 -64.5zM268 607q0 -136 54.5 -257.5t146 -208t217 -137t263.5 -50.5
q143 0 270 52.5t217.5 140.5t143 208t52.5 252q0 179 -91 329.5t-248.5 237t-343.5 85.5q-187 -1 -343.5 -88.5t-247 -237t-90.5 -326.5zM432 607q0 149 72 272t192.5 191.5t261.5 68.5q131 0 244.5 -61t185.5 -165l-154 -79q-51 66 -124 102t-152 36q-100 0 -179 -50
q-83 -51 -129 -133.5t-46 -181.5q0 -97 48 -181q50 -85 129.5 -133.5t176.5 -48.5q82 0 154.5 37.5t121.5 100.5l154 -80q-72 -104 -185.5 -164.5t-244.5 -60.5q-144 0 -265 72q-121 73 -191 193.5t-70 264.5z" />
    <glyph glyph-name="ordfeminine" unicode="&#xaa;" horiz-adv-x="836" 
d="M397 731q-148 0 -238.5 94t-90.5 242t90.5 242.5t238.5 94.5q136 0 228 -84v67h109v-640h-109v68q-90 -84 -228 -84zM169 1067q0 -104 62.5 -168.5t165.5 -64.5t165.5 64.5t62.5 168.5t-62 168.5t-166 64.5t-166 -64.5t-62 -168.5z" />
    <glyph glyph-name="guillemotleft" unicode="&#xab;" horiz-adv-x="1118" 
d="M454 256l-321 347l321 346h196l-320 -346l320 -347h-196zM480 603l321 346h196l-320 -346l320 -347h-196z" />
    <glyph glyph-name="logicalnot" unicode="&#xac;" horiz-adv-x="1052" 
d="M784 308v421h-689v167h861v-588h-172z" />
    <glyph glyph-name="uni00AD" unicode="&#xad;" horiz-adv-x="978" 
d="M157 519v166h685v-166h-685z" />
    <glyph glyph-name="registered" unicode="&#xae;" horiz-adv-x="1076" 
d="M537 453q-190 0 -326 131t-136 313q0 181 135.5 311.5t326.5 130.5q95 0 181 -36t147.5 -95.5t98 -141t36.5 -169.5q0 -182 -136.5 -313t-326.5 -131zM217 897q0 -87 43 -153q45 -73 116.5 -113.5t160.5 -40.5q85 0 162 42q74 43 116.5 112t42.5 153q0 82 -44 153
q-45 72 -117 112t-160 40q-89 0 -161 -41q-75 -43 -117 -111.5t-42 -152.5zM397 694v421h168q55 0 93.5 -39t38.5 -94q0 -38 -19.5 -69t-52.5 -47l106 -172h-125l-96 157h-5v-157h-108zM505 955h60q24 0 24 27q0 28 -24 28h-60v-55z" />
    <glyph glyph-name="macron" unicode="&#xaf;" horiz-adv-x="1276" 
d="M277 1733v140h721v-140h-721z" />
    <glyph glyph-name="degree" unicode="&#xb0;" horiz-adv-x="779" 
d="M389 791q-80 0 -149 39q-67 38 -106 102.5t-39 139.5q0 118 85.5 199.5t208.5 81.5t208.5 -82t85.5 -199q0 -76 -40 -143q-42 -64 -108.5 -101t-145.5 -37zM268 1072q0 -49 34.5 -82t86.5 -33t86 32.5t34 82.5t-34 82.5t-86 32.5t-86.5 -32.5t-34.5 -82.5z" />
    <glyph glyph-name="plusminus" unicode="&#xb1;" horiz-adv-x="1244" 
d="M535 326v421h-440v166h440v421h172v-421h441v-166h-441v-421h-172zM95 0v166h1053v-166h-1053z" />
    <glyph glyph-name="acute" unicode="&#xb4;" horiz-adv-x="818" 
d="M295 2274l91 311h176l-141 -311h-126z" />
    <glyph glyph-name="uni00B5" unicode="&#xb5;" horiz-adv-x="1134" 
d="M91 -423v1431h173v-535q0 -97 41 -169q42 -78 111 -122.5t153 -44.5q83 0 152 45q68 46 106.5 122.5t38.5 168.5v535h172v-1008h-172v134q-126 -160 -315 -160q-171 0 -287 134v-531h-173z" />
    <glyph glyph-name="paragraph" unicode="&#xb6;" horiz-adv-x="933" 
d="M443 703q-92 3 -168 47q-83 47 -131.5 126.5t-48.5 174.5q0 96 49 177q50 79 133 125.5t181 46.5h157v-1696h-172v999zM665 -296v1696h172v-1696h-172z" />
    <glyph glyph-name="periodcentered" unicode="&#xb7;" horiz-adv-x="384" 
d="M190 509q-39 0 -67 27.5t-28 66.5q0 38 28 65t67 27q40 0 69 -27t29 -65q0 -39 -28.5 -66.5t-69.5 -27.5z" />
    <glyph glyph-name="cedilla" unicode="&#xb8;" horiz-adv-x="1289" 
d="M636 -359q-74 -20 -140 20.5t-80 114.5l119 29q3 -29 22.5 -43t47.5 -7q24 7 35.5 25t4.5 40q-16 48 -70 37l-128 -17l148 248l106 -58l-41 -68q37 -15 64.5 -44t37.5 -68q19 -68 -18 -129t-108 -80z" />
    <glyph glyph-name="ordmasculine" unicode="&#xba;" horiz-adv-x="806" 
d="M396 734q-148 0 -238.5 93.5t-90.5 241.5t90.5 242t238.5 94q147 0 237.5 -94t90.5 -242q0 -147 -90.5 -241t-237.5 -94zM169 1069q0 -104 62 -168t165 -64t165 64.5t62 167.5t-62 167.5t-165 64.5t-165 -64t-62 -168z" />
    <glyph glyph-name="guillemotright" unicode="&#xbb;" horiz-adv-x="1136" 
d="M459 256l319 347l-319 346h196l320 -346l-320 -347h-196zM112 256l319 347l-319 346h196l320 -346l-320 -347h-196z" />
    <glyph glyph-name="questiondown" unicode="&#xbf;" horiz-adv-x="1054" 
d="M607 940q0 -39 -28.5 -65.5t-68.5 -26.5q-39 0 -68 26.5t-29 65.5q0 38 29 66t68 28q40 0 68.5 -28t28.5 -66zM95 -11q0 115 58.5 212t159.5 149q51 26 78.5 71t27.5 102v196h173v-196q0 -101 -52.5 -186t-144.5 -133q-60 -31 -93.5 -87.5t-33.5 -127.5q0 -104 72 -172.5
t180 -68.5q112 0 185.5 73.5t67.5 182.5h172q5 -121 -58 -220q-58 -93 -155 -147.5t-212 -54.5q-117 0 -213 55q-99 54 -155.5 147t-56.5 205z" />
    <glyph glyph-name="Agrave" unicode="&#xc0;" horiz-adv-x="1450" 
d="M91 0l533 1400h197l533 -1400h-184l-137 359h-622l-137 -359h-183zM475 526h494l-246 650zM546 1985h176l91 -311h-124z" />
    <glyph glyph-name="Aacute" unicode="&#xc1;" horiz-adv-x="1450" 
d="M91 0l533 1400h197l533 -1400h-184l-137 359h-622l-137 -359h-183zM475 526h494l-246 650zM623 1674l91 311h176l-141 -311h-126z" />
    <glyph glyph-name="Acircumflex" unicode="&#xc2;" horiz-adv-x="1450" 
d="M91 0l533 1400h197l533 -1400h-184l-137 359h-622l-137 -359h-183zM431 1674l217 311h171l219 -311h-174l-131 188l-129 -188h-173zM475 526h494l-246 650z" />
    <glyph glyph-name="Atilde" unicode="&#xc3;" horiz-adv-x="1450" 
d="M91 0l533 1400h197l533 -1400h-184l-137 359h-622l-137 -359h-183zM397 1810q16 56 62.5 90.5t110.5 34.5q29 0 68 -15t58.5 -25.5t69.5 -39.5q97 -62 135 -62q28 0 36.5 33.5t-12.5 56.5l129 38q29 -67 10 -131q-18 -56 -64.5 -90.5t-111.5 -34.5q-26 0 -61.5 14
t-56.5 26t-63 39q-39 24 -59 35.5t-45.5 20.5t-40.5 6q-25 -6 -34.5 -29.5t5.5 -61.5l-127 -34q-26 68 -9 129zM475 526h494l-246 650z" />
    <glyph glyph-name="Adieresis" unicode="&#xc4;" horiz-adv-x="1450" 
d="M91 0l533 1400h197l533 -1400h-184l-137 359h-622l-137 -359h-183zM464 1765q0 39 29.5 66.5t69.5 27.5t68.5 -28t28.5 -66q0 -39 -28 -65.5t-69 -26.5q-40 0 -69.5 26.5t-29.5 65.5zM475 526h494l-246 650zM787 1765q0 39 28.5 66.5t69.5 27.5q40 0 69 -28t29 -66
q0 -39 -29 -65.5t-69 -26.5q-42 0 -70 26t-28 66z" />
    <glyph glyph-name="Aring" unicode="&#xc5;" horiz-adv-x="1450" 
d="M91 0l533 1400h197l533 -1400h-184l-137 359h-622l-137 -359h-183zM475 526h494l-246 650zM554 1831q0 70 51.5 119.5t125.5 49.5q73 0 125.5 -49.5t52.5 -119.5q0 -71 -52.5 -121.5t-125.5 -50.5t-125 51t-52 121zM665 1831q0 -29 18.5 -47.5t47.5 -18.5q30 0 49 18.5
t19 47.5q0 26 -19 43.5t-49 17.5q-29 0 -47.5 -17t-18.5 -44z" />
    <glyph glyph-name="AE" unicode="&#xc6;" horiz-adv-x="1909" 
d="M1031 816h637v-167h-637v-483h762v-166h-935v359h-443l-137 -359h-183l533 1400h1165v-166h-762v-418zM479 526h379v676h-121z" />
    <glyph glyph-name="Ccedilla" unicode="&#xc7;" horiz-adv-x="1525" 
d="M834 -396q-74 -20 -140 20.5t-80 114.5l119 29q3 -29 22.5 -43t47.5 -7q24 7 35.5 25t4.5 40q-16 48 -70 37l-128 -17l101 169q-295 21 -474 222t-179 506q0 211 88 377t251.5 259.5t375.5 93.5q197 0 352 -81t249 -227l-151 -76q-74 105 -189 162t-263 57
q-250 0 -401.5 -157t-151.5 -409t151.5 -409t401.5 -157q147 0 262.5 57.5t190.5 162.5l148 -75q-83 -130 -217 -209t-303 -95l-29 -49q37 -15 64.5 -44t37.5 -68q19 -68 -18 -129t-108 -80z" />
    <glyph glyph-name="Egrave" unicode="&#xc8;" horiz-adv-x="1181" 
d="M130 0v1400h935v-166h-761v-418h636v-167h-636v-483h761v-166h-935zM471 1985h176l91 -311h-124z" />
    <glyph glyph-name="Eacute" unicode="&#xc9;" horiz-adv-x="1181" 
d="M130 0v1400h935v-166h-761v-418h636v-167h-636v-483h761v-166h-935zM488 1674l91 311h176l-141 -311h-126z" />
    <glyph glyph-name="Ecircumflex" unicode="&#xca;" horiz-adv-x="1181" 
d="M130 0v1400h935v-166h-761v-418h636v-167h-636v-483h761v-166h-935zM331 1674l217 311h171l219 -311h-174l-131 188l-129 -188h-173z" />
    <glyph glyph-name="Edieresis" unicode="&#xcb;" horiz-adv-x="1181" 
d="M130 0v1400h935v-166h-761v-418h636v-167h-636v-483h761v-166h-935zM376 1747q0 39 29.5 66.5t69.5 27.5t68.5 -28t28.5 -66q0 -39 -28 -65.5t-69 -26.5q-40 0 -69.5 26.5t-29.5 65.5zM699 1747q0 39 28.5 66.5t69.5 27.5q40 0 69 -28t29 -66q0 -39 -29 -65.5t-69 -26.5
q-42 0 -70 26t-28 66z" />
    <glyph glyph-name="Igrave" unicode="&#xcc;" horiz-adv-x="471" 
d="M133 0v1400h172v-1400h-172zM36 1985h176l91 -311h-124z" />
    <glyph glyph-name="Iacute" unicode="&#xcd;" horiz-adv-x="497" 
d="M158 0v1400h172v-1400h-172zM167 1674l91 311h176l-141 -311h-126z" />
    <glyph glyph-name="Icircumflex" unicode="&#xce;" horiz-adv-x="541" 
d="M169 0v1400h172v-1400h-172zM-32 1674l217 311h171l219 -311h-174l-131 188l-129 -188h-173z" />
    <glyph glyph-name="Idieresis" unicode="&#xcf;" horiz-adv-x="521" 
d="M165 0v1400h172v-1400h-172zM5 1738q0 39 29.5 66.5t69.5 27.5t68.5 -28t28.5 -66q0 -39 -28 -65.5t-69 -26.5q-40 0 -69.5 26.5t-29.5 65.5zM328 1738q0 39 28.5 66.5t69.5 27.5q40 0 69 -28t29 -66q0 -39 -29 -65.5t-69 -26.5q-42 0 -70 26t-28 66z" />
    <glyph glyph-name="Eth" unicode="&#xd0;" horiz-adv-x="1651" 
d="M387 0v593h-278v140h278v667h504q203 0 359.5 -90.5t240.5 -249.5t84 -361t-84 -360.5t-240 -248.5t-360 -90h-504zM561 166l332 -1q237 0 379.5 147.5t142.5 385.5t-142.5 386.5t-379.5 148.5l-332 1v-501h269v-140h-269v-427z" />
    <glyph glyph-name="Ntilde" unicode="&#xd1;" horiz-adv-x="1351" 
d="M130 0v1400h179l733 -1091v1091h173v-1400h-177l-734 1090v-1090h-174zM317 1806q16 56 62.5 90.5t110.5 34.5q29 0 68 -15t58.5 -25.5t69.5 -39.5q97 -62 135 -62q28 0 36.5 33.5t-12.5 56.5l129 38q29 -67 10 -131q-18 -56 -64.5 -90.5t-111.5 -34.5q-26 0 -61.5 14
t-56.5 26t-63 39q-39 24 -59 35.5t-45.5 20.5t-40.5 6q-25 -6 -34.5 -29.5t5.5 -61.5l-127 -34q-26 68 -9 129z" />
    <glyph glyph-name="Ograve" unicode="&#xd2;" horiz-adv-x="1617" 
d="M806 -30q-212 0 -375.5 93.5t-251.5 259.5t-88 377t88 377t251.5 259.5t375.5 93.5q213 0 376 -93.5t251 -259.5t88 -377t-88 -377t-251 -259.5t-376 -93.5zM251 699q0 -252 151.5 -409t401.5 -157q251 0 402.5 157t151.5 409t-151.5 409t-402.5 157q-250 0 -401.5 -157
t-151.5 -409zM679 1985h176l91 -311h-124z" />
    <glyph glyph-name="Oacute" unicode="&#xd3;" horiz-adv-x="1617" 
d="M806 -30q-212 0 -375.5 93.5t-251.5 259.5t-88 377t88 377t251.5 259.5t375.5 93.5q213 0 376 -93.5t251 -259.5t88 -377t-88 -377t-251 -259.5t-376 -93.5zM251 699q0 -252 151.5 -409t401.5 -157q251 0 402.5 157t151.5 409t-151.5 409t-402.5 157q-250 0 -401.5 -157
t-151.5 -409zM705 1674l91 311h176l-141 -311h-126z" />
    <glyph glyph-name="Ocircumflex" unicode="&#xd4;" horiz-adv-x="1617" 
d="M806 -30q-212 0 -375.5 93.5t-251.5 259.5t-88 377t88 377t251.5 259.5t375.5 93.5q213 0 376 -93.5t251 -259.5t88 -377t-88 -377t-251 -259.5t-376 -93.5zM251 699q0 -252 151.5 -409t401.5 -157q251 0 402.5 157t151.5 409t-151.5 409t-402.5 157q-250 0 -401.5 -157
t-151.5 -409zM521 1674l217 311h171l219 -311h-174l-131 188l-129 -188h-173z" />
    <glyph glyph-name="Otilde" unicode="&#xd5;" horiz-adv-x="1617" 
d="M806 -30q-212 0 -375.5 93.5t-251.5 259.5t-88 377t88 377t251.5 259.5t375.5 93.5q213 0 376 -93.5t251 -259.5t88 -377t-88 -377t-251 -259.5t-376 -93.5zM251 699q0 -252 151.5 -409t401.5 -157q251 0 402.5 157t151.5 409t-151.5 409t-402.5 157q-250 0 -401.5 -157
t-151.5 -409zM445 1798q16 56 62.5 90.5t110.5 34.5q29 0 68 -15t58.5 -25.5t69.5 -39.5q97 -62 135 -62q28 0 36.5 33.5t-12.5 56.5l129 38q29 -67 10 -131q-18 -56 -64.5 -90.5t-111.5 -34.5q-26 0 -61.5 14t-56.5 26t-63 39q-39 24 -59 35.5t-45.5 20.5t-40.5 6
q-25 -6 -34.5 -29.5t5.5 -61.5l-127 -34q-26 68 -9 129z" />
    <glyph glyph-name="Odieresis" unicode="&#xd6;" horiz-adv-x="1617" 
d="M806 -30q-212 0 -375.5 93.5t-251.5 259.5t-88 377t88 377t251.5 259.5t375.5 93.5q213 0 376 -93.5t251 -259.5t88 -377t-88 -377t-251 -259.5t-376 -93.5zM251 699q0 -252 151.5 -409t401.5 -157q251 0 402.5 157t151.5 409t-151.5 409t-402.5 157q-250 0 -401.5 -157
t-151.5 -409zM545 1738q0 39 29.5 66.5t69.5 27.5t68.5 -28t28.5 -66q0 -39 -28 -65.5t-69 -26.5q-40 0 -69.5 26.5t-29.5 65.5zM868 1738q0 39 28.5 66.5t69.5 27.5q40 0 69 -28t29 -66q0 -39 -29 -65.5t-69 -26.5q-42 0 -70 26t-28 66z" />
    <glyph glyph-name="multiply" unicode="&#xd7;" horiz-adv-x="1059" 
d="M218 187l-123 117l310 298l-310 298l123 117l310 -297l311 297l124 -117l-313 -298l313 -298l-124 -117l-311 298z" />
    <glyph glyph-name="Oslash" unicode="&#xd8;" horiz-adv-x="1617" 
d="M806 -30h-19l-41 -175h-173l46 196q-243 56 -385.5 247.5t-142.5 461.5q0 211 88 377t251.5 259.5t375.5 93.5q80 0 148 -13l40 173h174l-52 -221q190 -82 297.5 -259t107.5 -410q0 -211 -88 -377t-251 -259.5t-376 -93.5zM251 699q0 -211 108.5 -358.5t296.5 -191.5
l260 1107q-54 9 -112 9q-250 0 -401.5 -157t-151.5 -409zM826 133q242 7 387 163.5t145 402.5q0 173 -74 304.5t-207 199.5z" />
    <glyph glyph-name="Ugrave" unicode="&#xd9;" horiz-adv-x="1408" 
d="M701 -25q-177 0 -304 82q-128 81 -197.5 220.5t-69.5 308.5v814h174v-814q0 -200 106.5 -322.5t290.5 -122.5q130 0 218 61t134 161t46 223v814h173v-814q0 -172 -69 -310.5t-200 -219.5t-302 -81zM512 1985h176l91 -311h-124z" />
    <glyph glyph-name="Uacute" unicode="&#xda;" horiz-adv-x="1408" 
d="M701 -25q-177 0 -304 82q-128 81 -197.5 220.5t-69.5 308.5v814h174v-814q0 -200 106.5 -322.5t290.5 -122.5q130 0 218 61t134 161t46 223v814h173v-814q0 -172 -69 -310.5t-200 -219.5t-302 -81zM581 1674l91 311h176l-141 -311h-126z" />
    <glyph glyph-name="Ucircumflex" unicode="&#xdb;" horiz-adv-x="1408" 
d="M701 -25q-177 0 -304 82q-128 81 -197.5 220.5t-69.5 308.5v814h174v-814q0 -200 106.5 -322.5t290.5 -122.5q130 0 218 61t134 161t46 223v814h173v-814q0 -172 -69 -310.5t-200 -219.5t-302 -81zM420 1674l217 311h171l219 -311h-174l-131 188l-129 -188h-173z" />
    <glyph glyph-name="Udieresis" unicode="&#xdc;" horiz-adv-x="1408" 
d="M701 -25q-177 0 -304 82q-128 81 -197.5 220.5t-69.5 308.5v814h174v-814q0 -200 106.5 -322.5t290.5 -122.5q130 0 218 61t134 161t46 223v814h173v-814q0 -172 -69 -310.5t-200 -219.5t-302 -81zM452 1738q0 39 29.5 66.5t69.5 27.5t68.5 -28t28.5 -66q0 -39 -28 -65.5
t-69 -26.5q-40 0 -69.5 26.5t-29.5 65.5zM775 1738q0 39 28.5 66.5t69.5 27.5q40 0 69 -28t29 -66q0 -39 -29 -65.5t-69 -26.5q-42 0 -70 26t-28 66z" />
    <glyph glyph-name="Yacute" unicode="&#xdd;" horiz-adv-x="1308" 
d="M565 0v631l-493 769h203l376 -587l378 587h203l-495 -769v-631h-172zM518 1674l91 311h176l-141 -311h-126z" />
    <glyph glyph-name="Thorn" unicode="&#xde;" horiz-adv-x="1169" 
d="M133 -243v1650h174v-250h352q69 0 132 -16t118 -51t95.5 -85.5t64 -123t24.5 -159.5q-1 -87 -24.5 -159.5t-64 -123t-95.5 -85.5t-118 -51t-132 -16h-352v-530h-174zM307 436l340 2q42 0 80 8.5t76 29.5t65.5 52.5t44.5 81t16 112.5q1 63 -16 112.5t-44.5 81t-65 52
t-76 29t-80.5 8.5h-340v-569z" />
    <glyph glyph-name="germandbls" unicode="&#xdf;" horiz-adv-x="1057" 
d="M598 -27q-128 0 -225 44v166q96 -37 171 -45.5t125 7.5t83 54.5t47 91t14 120.5t-19.5 121t-50.5 85t-73.5 53t-84 28.5t-86.5 7.5h-109v161h103q236 0 236 224q0 205 -197 205q-134 0 -181 -71t-47 -237v-1207h-169v1244q0 204 99.5 318.5t297.5 114.5q73 0 137 -22
t116 -65.5t82.5 -115.5t30.5 -164q0 -193 -123 -295q206 -115 206 -385q0 -188 -106 -313t-277 -125z" />
    <glyph glyph-name="agrave" unicode="&#xe0;" horiz-adv-x="1218" 
d="M591 -25q-233 0 -376 148t-143 381q0 234 143 382t376 148q216 0 359 -132v106h172v-1008h-172v107q-141 -132 -359 -132zM232 504q0 -163 98 -265t261 -102q162 0 260 102t98 265q0 164 -98 265.5t-260 101.5q-163 0 -261 -101.5t-98 -265.5zM463 1551h176l91 -311h-124
z" />
    <glyph glyph-name="aacute" unicode="&#xe1;" horiz-adv-x="1218" 
d="M591 -25q-233 0 -376 148t-143 381q0 234 143 382t376 148q216 0 359 -132v106h172v-1008h-172v107q-141 -132 -359 -132zM232 504q0 -163 98 -265t261 -102q162 0 260 102t98 265q0 164 -98 265.5t-260 101.5q-163 0 -261 -101.5t-98 -265.5zM495 1272l91 311h176
l-141 -311h-126z" />
    <glyph glyph-name="acircumflex" unicode="&#xe2;" horiz-adv-x="1218" 
d="M591 -25q-233 0 -376 148t-143 381q0 234 143 382t376 148q216 0 359 -132v106h172v-1008h-172v107q-141 -132 -359 -132zM232 504q0 -163 98 -265t261 -102q162 0 260 102t98 265q0 164 -98 265.5t-260 101.5q-163 0 -261 -101.5t-98 -265.5zM326 1279l217 311h171
l219 -311h-174l-131 188l-129 -188h-173z" />
    <glyph glyph-name="atilde" unicode="&#xe3;" horiz-adv-x="1218" 
d="M591 -25q-233 0 -376 148t-143 381q0 234 143 382t376 148q216 0 359 -132v106h172v-1008h-172v107q-141 -132 -359 -132zM232 504q0 -163 98 -265t261 -102q162 0 260 102t98 265q0 164 -98 265.5t-260 101.5q-163 0 -261 -101.5t-98 -265.5zM282 1421q16 56 62.5 90.5
t110.5 34.5q29 0 68 -15t58.5 -25.5t69.5 -39.5q97 -62 135 -62q28 0 36.5 33.5t-12.5 56.5l129 38q29 -67 10 -131q-18 -56 -64.5 -90.5t-111.5 -34.5q-26 0 -61.5 14t-56.5 26t-63 39q-39 24 -59 35.5t-45.5 20.5t-40.5 6q-25 -6 -34.5 -29.5t5.5 -61.5l-127 -34
q-26 68 -9 129z" />
    <glyph glyph-name="adieresis" unicode="&#xe4;" horiz-adv-x="1218" 
d="M591 -25q-233 0 -376 148t-143 381q0 234 143 382t376 148q216 0 359 -132v106h172v-1008h-172v107q-141 -132 -359 -132zM232 504q0 -163 98 -265t261 -102q162 0 260 102t98 265q0 164 -98 265.5t-260 101.5q-163 0 -261 -101.5t-98 -265.5zM366 1366q0 39 29.5 66.5
t69.5 27.5t68.5 -28t28.5 -66q0 -39 -28 -65.5t-69 -26.5q-40 0 -69.5 26.5t-29.5 65.5zM689 1366q0 39 28.5 66.5t69.5 27.5q40 0 69 -28t29 -66q0 -39 -29 -65.5t-69 -26.5q-42 0 -70 26t-28 66z" />
    <glyph glyph-name="aring" unicode="&#xe5;" horiz-adv-x="1218" 
d="M591 -25q-233 0 -376 148t-143 381q0 234 143 382t376 148q216 0 359 -132v106h172v-1008h-172v107q-141 -132 -359 -132zM232 504q0 -163 98 -265t261 -102q162 0 260 102t98 265q0 164 -98 265.5t-260 101.5q-163 0 -261 -101.5t-98 -265.5zM464 1440q0 70 51.5 119.5
t125.5 49.5q73 0 125.5 -49.5t52.5 -119.5q0 -71 -52.5 -121.5t-125.5 -50.5t-125 51t-52 121zM575 1440q0 -29 18.5 -47.5t47.5 -18.5q30 0 49 18.5t19 47.5q0 26 -19 43.5t-49 17.5q-29 0 -47.5 -17t-18.5 -44z" />
    <glyph glyph-name="ae" unicode="&#xe6;" horiz-adv-x="2100" 
d="M594 -25q-233 0 -376 148t-143 381q0 234 143 382t376 148q216 0 359 -132v106h172v-124q145 150 378 150q232 0 375 -148t143 -382v-66h-872q20 -137 114.5 -219t239.5 -82q113 0 196.5 52t126.5 144l159 -36q-53 -149 -180.5 -235.5t-301.5 -86.5q-233 0 -378 150v-125
h-172v107q-141 -132 -359 -132zM235 504q0 -163 98 -265t261 -102q162 0 260 102t98 265q0 164 -98 265.5t-260 101.5q-163 0 -261 -101.5t-98 -265.5zM1149 578h706q-21 133 -115.5 213t-236.5 80q-143 0 -237.5 -79.5t-116.5 -213.5z" />
    <glyph glyph-name="ccedilla" unicode="&#xe7;" horiz-adv-x="1102" 
d="M651 -359q-74 -20 -140 20.5t-80 114.5l119 29q3 -29 22.5 -43t47.5 -7q24 7 35.5 25t4.5 40q-16 48 -70 37l-128 -17l82 137q-214 16 -343 161.5t-129 365.5q0 234 143 382t376 148q175 -1 302 -88.5t180 -235.5l-159 -36q-43 92 -126.5 144t-196.5 52v1
q-163 0 -261 -101.5t-98 -265.5q0 -163 98 -265t261 -102q113 0 196.5 52t126.5 144l159 -36q-46 -127 -146 -210t-240 -105l-12 -20q37 -15 64.5 -44t37.5 -68q19 -68 -18 -129t-108 -80z" />
    <glyph glyph-name="egrave" unicode="&#xe8;" 
d="M591 -25q-233 0 -376 148t-143 381q0 234 143 382t376 148q232 0 375 -148t143 -382v-66h-872q20 -137 114.5 -219t239.5 -82q113 0 196.5 52t126.5 144l159 -36q-53 -149 -180.5 -235.5t-301.5 -86.5zM237 578h706q-21 133 -115.5 213t-236.5 80q-143 0 -237.5 -79.5
t-116.5 -213.5zM498 1579h176l91 -311h-124z" />
    <glyph glyph-name="eacute" unicode="&#xe9;" 
d="M591 -25q-233 0 -376 148t-143 381q0 234 143 382t376 148q232 0 375 -148t143 -382v-66h-872q20 -137 114.5 -219t239.5 -82q113 0 196.5 52t126.5 144l159 -36q-53 -149 -180.5 -235.5t-301.5 -86.5zM237 578h706q-21 133 -115.5 213t-236.5 80q-143 0 -237.5 -79.5
t-116.5 -213.5zM487 1266l91 311h176l-141 -311h-126z" />
    <glyph glyph-name="ecircumflex" unicode="&#xea;" 
d="M591 -25q-233 0 -376 148t-143 381q0 234 143 382t376 148q232 0 375 -148t143 -382v-66h-872q20 -137 114.5 -219t239.5 -82q113 0 196.5 52t126.5 144l159 -36q-53 -149 -180.5 -235.5t-301.5 -86.5zM237 578h706q-21 133 -115.5 213t-236.5 80q-143 0 -237.5 -79.5
t-116.5 -213.5zM308 1271l217 311h171l219 -311h-174l-131 188l-129 -188h-173z" />
    <glyph glyph-name="edieresis" unicode="&#xeb;" 
d="M591 -25q-233 0 -376 148t-143 381q0 234 143 382t376 148q232 0 375 -148t143 -382v-66h-872q20 -137 114.5 -219t239.5 -82q113 0 196.5 52t126.5 144l159 -36q-53 -149 -180.5 -235.5t-301.5 -86.5zM237 578h706q-21 133 -115.5 213t-236.5 80q-143 0 -237.5 -79.5
t-116.5 -213.5zM367 1337q0 39 29.5 66.5t69.5 27.5t68.5 -28t28.5 -66q0 -39 -28 -65.5t-69 -26.5q-40 0 -69.5 26.5t-29.5 65.5zM690 1337q0 39 28.5 66.5t69.5 27.5q40 0 69 -28t29 -66q0 -39 -29 -65.5t-69 -26.5q-42 0 -70 26t-28 66z" />
    <glyph glyph-name="igrave" unicode="&#xec;" horiz-adv-x="418" 
d="M108 0v1008h174v-1008h-174zM6 1579h176l91 -311h-124z" />
    <glyph glyph-name="iacute" unicode="&#xed;" horiz-adv-x="443" 
d="M130 0v1008h174v-1008h-174zM143 1274l91 311h176l-141 -311h-126z" />
    <glyph glyph-name="icircumflex" unicode="&#xee;" horiz-adv-x="286" 
d="M132 0v1008h174v-1008h-174zM-62 1252l217 311h171l219 -311h-174l-131 188l-129 -188h-173z" />
    <glyph glyph-name="idieresis" unicode="&#xef;" horiz-adv-x="461" 
d="M149 0v1008h174v-1008h-174zM-25 1363q0 39 29.5 66.5t69.5 27.5t68.5 -28t28.5 -66q0 -39 -28 -65.5t-69 -26.5q-40 0 -69.5 26.5t-29.5 65.5zM298 1363q0 39 28.5 66.5t69.5 27.5q40 0 69 -28t29 -66q0 -39 -29 -65.5t-69 -26.5q-42 0 -70 26t-28 66z" />
    <glyph glyph-name="eth" unicode="&#xf0;" horiz-adv-x="1231" 
d="M633 137q163 0 261 102t98 265q0 164 -98 265.5t-261 101.5q-162 0 -260 -101.5t-98 -265.5q0 -163 98 -265t260 -102zM114 504q0 234 143 382t376 148q164 -2 288 -83q-59 143 -153 235l-179 -103l-70 121l127 73q-108 57 -232 53v167q216 4 395 -126l184 106l70 -121
l-144 -83q34 -37 56 -67q102 -135 158.5 -311t58.5 -372q0 -161 -66 -284q-67 -125 -187.5 -194.5t-274.5 -69.5h-31q-233 0 -376 148t-143 381z" />
    <glyph glyph-name="ntilde" unicode="&#xf1;" horiz-adv-x="1148" 
d="M130 1008h174v-108q57 64 140 100t175 36q120 0 218 -56q100 -55 157.5 -150.5t57.5 -208.5v-621h-173v593q0 79 -37 141q-38 63 -104 98.5t-146 35.5q-82 0 -144 -37q-69 -38 -106.5 -100.5t-37.5 -137.5v-593h-174v1008zM256 1406q16 56 62.5 90.5t110.5 34.5
q29 0 68 -15t58.5 -25.5t69.5 -39.5q97 -62 135 -62q28 0 36.5 33.5t-12.5 56.5l129 38q29 -67 10 -131q-18 -56 -64.5 -90.5t-111.5 -34.5q-26 0 -61.5 14t-56.5 26t-63 39q-39 24 -59 35.5t-45.5 20.5t-40.5 6q-25 -6 -34.5 -29.5t5.5 -61.5l-127 -34q-26 68 -9 129z" />
    <glyph glyph-name="ograve" unicode="&#xf2;" 
d="M591 -25q-233 0 -376 148t-143 381q0 234 143 382t376 148q232 0 375 -148t143 -382q0 -233 -143 -381t-375 -148zM232 504q0 -163 98 -265t261 -102q162 0 260 102t98 265q0 164 -98 265.5t-260 101.5q-163 0 -261 -101.5t-98 -265.5zM505 1578h176l91 -311h-124z" />
    <glyph glyph-name="oacute" unicode="&#xf3;" 
d="M591 -25q-233 0 -376 148t-143 381q0 234 143 382t376 148q232 0 375 -148t143 -382q0 -233 -143 -381t-375 -148zM232 504q0 -163 98 -265t261 -102q162 0 260 102t98 265q0 164 -98 265.5t-260 101.5q-163 0 -261 -101.5t-98 -265.5zM450 1250l91 311h176l-141 -311
h-126z" />
    <glyph glyph-name="ocircumflex" unicode="&#xf4;" 
d="M591 -25q-233 0 -376 148t-143 381q0 234 143 382t376 148q232 0 375 -148t143 -382q0 -233 -143 -381t-375 -148zM232 504q0 -163 98 -265t261 -102q162 0 260 102t98 265q0 164 -98 265.5t-260 101.5q-163 0 -261 -101.5t-98 -265.5zM317 1252l217 311h171l219 -311
h-174l-131 188l-129 -188h-173z" />
    <glyph glyph-name="otilde" unicode="&#xf5;" 
d="M591 -25q-233 0 -376 148t-143 381q0 234 143 382t376 148q232 0 375 -148t143 -382q0 -233 -143 -381t-375 -148zM232 504q0 -163 98 -265t261 -102q162 0 260 102t98 265q0 164 -98 265.5t-260 101.5q-163 0 -261 -101.5t-98 -265.5zM262 1405q16 56 62.5 90.5
t110.5 34.5q29 0 68 -15t58.5 -25.5t69.5 -39.5q97 -62 135 -62q28 0 36.5 33.5t-12.5 56.5l129 38q29 -67 10 -131q-18 -56 -64.5 -90.5t-111.5 -34.5q-26 0 -61.5 14t-56.5 26t-63 39q-39 24 -59 35.5t-45.5 20.5t-40.5 6q-25 -6 -34.5 -29.5t5.5 -61.5l-127 -34
q-26 68 -9 129z" />
    <glyph glyph-name="odieresis" unicode="&#xf6;" 
d="M591 -25q-233 0 -376 148t-143 381q0 234 143 382t376 148q232 0 375 -148t143 -382q0 -233 -143 -381t-375 -148zM232 504q0 -163 98 -265t261 -102q162 0 260 102t98 265q0 164 -98 265.5t-260 101.5q-163 0 -261 -101.5t-98 -265.5zM331 1363q0 39 29.5 66.5
t69.5 27.5t68.5 -28t28.5 -66q0 -39 -28 -65.5t-69 -26.5q-40 0 -69.5 26.5t-29.5 65.5zM654 1363q0 39 28.5 66.5t69.5 27.5q40 0 69 -28t29 -66q0 -39 -29 -65.5t-69 -26.5q-42 0 -70 26t-28 66z" />
    <glyph glyph-name="divide" unicode="&#xf7;" horiz-adv-x="1244" 
d="M95 519v166h1053v-166h-1053zM502 246q0 47 34 82t85 35q48 0 85 -35.5t37 -81.5q0 -48 -36.5 -81.5t-85.5 -33.5q-51 0 -85 33.5t-34 81.5zM502 956q0 47 34 82t85 35q48 0 83.5 -35.5t35.5 -81.5q0 -47 -35.5 -81.5t-83.5 -34.5q-50 0 -84.5 34t-34.5 82z" />
    <glyph glyph-name="oslash" unicode="&#xf8;" 
d="M591 -25q-19 0 -51 2l-47 -145h-173l58 182q-143 57 -224.5 187t-81.5 303q0 234 143 382t376 148q61 0 111 -10l39 123h174l-57 -178q119 -66 185 -187.5t66 -277.5q0 -233 -143 -381t-375 -148zM232 504q0 -117 51.5 -204.5t144.5 -129.5l223 697q-25 4 -60 4
q-163 0 -261 -101.5t-98 -265.5zM591 137q162 0 260 102t98 265q0 203 -143 304z" />
    <glyph glyph-name="ugrave" unicode="&#xf9;" horiz-adv-x="1109" 
d="M524 -25q-120 0 -217 55q-100 56 -158 151t-58 209v618h173v-591q0 -77 39 -138q40 -64 105.5 -100.5t143.5 -36.5q123 0 204.5 78.5t81.5 196.5v591h174l1 -1008h-174l-1 111q-57 -64 -138.5 -100t-175.5 -36zM424 1577h176l91 -311h-124z" />
    <glyph glyph-name="uacute" unicode="&#xfa;" horiz-adv-x="1109" 
d="M524 -25q-120 0 -217 55q-100 56 -158 151t-58 209v618h173v-591q0 -77 39 -138q40 -64 105.5 -100.5t143.5 -36.5q123 0 204.5 78.5t81.5 196.5v591h174l1 -1008h-174l-1 111q-57 -64 -138.5 -100t-175.5 -36zM423 1258l91 311h176l-141 -311h-126z" />
    <glyph glyph-name="ucircumflex" unicode="&#xfb;" horiz-adv-x="1109" 
d="M524 -25q-120 0 -217 55q-100 56 -158 151t-58 209v618h173v-591q0 -77 39 -138q40 -64 105.5 -100.5t143.5 -36.5q123 0 204.5 78.5t81.5 196.5v591h174l1 -1008h-174l-1 111q-57 -64 -138.5 -100t-175.5 -36zM288 1273l217 311h171l219 -311h-174l-131 188l-129 -188
h-173z" />
    <glyph glyph-name="udieresis" unicode="&#xfc;" horiz-adv-x="1109" 
d="M524 -25q-120 0 -217 55q-100 56 -158 151t-58 209v618h173v-591q0 -77 39 -138q40 -64 105.5 -100.5t143.5 -36.5q123 0 204.5 78.5t81.5 196.5v591h174l1 -1008h-174l-1 111q-57 -64 -138.5 -100t-175.5 -36zM298 1364q0 39 29.5 66.5t69.5 27.5t68.5 -28t28.5 -66
q0 -39 -28 -65.5t-69 -26.5q-40 0 -69.5 26.5t-29.5 65.5zM621 1364q0 39 28.5 66.5t69.5 27.5q40 0 69 -28t29 -66q0 -39 -29 -65.5t-69 -26.5q-42 0 -70 26t-28 66z" />
    <glyph glyph-name="yacute" unicode="&#xfd;" horiz-adv-x="1123" 
d="M272 -490l192 505l-373 993h188l272 -762l294 762h182l-571 -1498h-184zM423 1272l91 311h176l-141 -311h-126z" />
    <glyph glyph-name="thorn" unicode="&#xfe;" horiz-adv-x="1258" 
d="M130 -491v1898h174v-514q65 65 159 102t200 38q232 0 375.5 -148.5t143.5 -381.5t-143.5 -381t-375.5 -148q-107 1 -201 38t-158 102v-605h-174zM305 503q0 -163 98 -265t260 -102t260 102t98 265q0 164 -98 265.5t-260 101.5t-260 -101.5t-98 -265.5z" />
    <glyph glyph-name="ydieresis" unicode="&#xff;" horiz-adv-x="1123" 
d="M272 -490l192 505l-373 993h188l272 -762l294 762h182l-571 -1498h-184zM328 1334q0 39 29.5 66.5t69.5 27.5t68.5 -28t28.5 -66q0 -39 -28 -65.5t-69 -26.5q-40 0 -69.5 26.5t-29.5 65.5zM651 1334q0 39 28.5 66.5t69.5 27.5q40 0 69 -28t29 -66q0 -39 -29 -65.5
t-69 -26.5q-42 0 -70 26t-28 66z" />
    <glyph glyph-name="Amacron" unicode="&#x100;" horiz-adv-x="1450" 
d="M91 0l533 1400h197l533 -1400h-184l-137 359h-622l-137 -359h-183zM363 1680v140h721v-140h-721zM475 526h494l-246 650z" />
    <glyph glyph-name="amacron" unicode="&#x101;" horiz-adv-x="1218" 
d="M591 -25q-233 0 -376 148t-143 381q0 234 143 382t376 148q216 0 359 -132v106h172v-1008h-172v107q-141 -132 -359 -132zM232 504q0 -163 98 -265t261 -102q162 0 260 102t98 265q0 164 -98 265.5t-260 101.5q-163 0 -261 -101.5t-98 -265.5zM252 1266v140h721v-140
h-721z" />
    <glyph glyph-name="Abreve" unicode="&#x102;" horiz-adv-x="1450" 
d="M91 0l533 1400h197l533 -1400h-184l-137 359h-622l-137 -359h-183zM371 1954h131q-6 -96 60 -161.5t163 -65.5q99 0 163.5 65.5t59.5 161.5h131q4 -100 -48 -187q-50 -78 -130.5 -122.5t-175.5 -44.5q-100 0 -177 46q-85 48 -133 130t-44 178zM475 526h494l-246 650z" />
    <glyph glyph-name="abreve" unicode="&#x103;" horiz-adv-x="1218" 
d="M591 -25q-233 0 -376 148t-143 381q0 234 143 382t376 148q216 0 359 -132v106h172v-1008h-172v107q-141 -132 -359 -132zM232 504q0 -163 98 -265t261 -102q162 0 260 102t98 265q0 164 -98 265.5t-260 101.5q-163 0 -261 -101.5t-98 -265.5zM257 1578h131
q-6 -96 60 -161.5t163 -65.5q99 0 163.5 65.5t59.5 161.5h131q4 -100 -48 -187q-50 -78 -130.5 -122.5t-175.5 -44.5q-100 0 -177 46q-85 48 -133 130t-44 178z" />
    <glyph glyph-name="Aogonek" unicode="&#x104;" horiz-adv-x="1460" 
d="M91 0l533 1400h197l524 -1376l9 -9l-4 -4l4 -11h-15q-7 -7 -20 -19t-19 -18q-98 -94 -107 -104q-34 -37 -34 -66q0 -24 15.5 -40t44.5 -18q41 0 68.5 28t21.5 72h134q5 -98 -61.5 -165t-167.5 -67q-86 1 -142.5 58.5t-56.5 135.5q0 79 59 137l89 85l-130 340h-622
l-137 -359h-183zM475 526h494l-246 650z" />
    <glyph glyph-name="aogonek" unicode="&#x105;" horiz-adv-x="1232" 
d="M591 -25q-233 0 -376 148t-143 381q0 234 143 382t376 148q216 0 359 -132v106h172v-989l4 -4l-4 -4v-11h-11q-7 -7 -20 -19t-19 -18q-98 -94 -107 -104q-34 -37 -34 -66q0 -24 15.5 -40t44.5 -18q41 0 68.5 28t21.5 72h134q5 -98 -61.5 -165t-167.5 -67
q-86 1 -142.5 58.5t-56.5 135.5q0 79 59 137l104 100v73q-141 -132 -359 -132zM232 504q0 -163 98 -265t261 -102q162 0 260 102t98 265q0 164 -98 265.5t-260 101.5q-163 0 -261 -101.5t-98 -265.5z" />
    <glyph glyph-name="Cacute" unicode="&#x106;" horiz-adv-x="1525" 
d="M808 -30q-212 0 -375.5 93.5t-251.5 259.5t-88 377t88 377t251.5 259.5t375.5 93.5q197 0 352 -81t249 -227l-151 -76q-74 105 -189 162t-263 57q-250 0 -401.5 -157t-151.5 -409t151.5 -409t401.5 -157q147 0 262.5 57.5t190.5 162.5l148 -75q-92 -145 -247.5 -226.5
t-351.5 -81.5zM665 1674l91 311h176l-141 -311h-126z" />
    <glyph glyph-name="cacute" unicode="&#x107;" horiz-adv-x="1102" 
d="M591 -25q-233 0 -376 148t-143 381q0 234 143 382t376 148q175 -1 302 -88.5t180 -235.5l-159 -36q-43 92 -126.5 144t-196.5 52v1q-163 0 -261 -101.5t-98 -265.5q0 -163 98 -265t261 -102q113 0 196.5 52t126.5 144l159 -36q-53 -149 -180.5 -235.5t-301.5 -86.5z
M452 1274l91 311h176l-141 -311h-126z" />
    <glyph glyph-name="Cdotaccent" unicode="&#x10a;" horiz-adv-x="1525" 
d="M808 -30q-212 0 -375.5 93.5t-251.5 259.5t-88 377t88 377t251.5 259.5t375.5 93.5q197 0 352 -81t249 -227l-151 -76q-74 105 -189 162t-263 57q-250 0 -401.5 -157t-151.5 -409t151.5 -409t401.5 -157q147 0 262.5 57.5t190.5 162.5l148 -75q-92 -145 -247.5 -226.5
t-351.5 -81.5zM727 1757q0 39 28.5 65.5t69.5 26.5q40 0 68 -26.5t28 -65.5t-27.5 -65.5t-68.5 -26.5t-69.5 26.5t-28.5 65.5z" />
    <glyph glyph-name="cdotaccent" unicode="&#x10b;" horiz-adv-x="1102" 
d="M591 -25q-233 0 -376 148t-143 381q0 234 143 382t376 148q175 -1 302 -88.5t180 -235.5l-159 -36q-43 92 -126.5 144t-196.5 52v1q-163 0 -261 -101.5t-98 -265.5q0 -163 98 -265t261 -102q113 0 196.5 52t126.5 144l159 -36q-53 -149 -180.5 -235.5t-301.5 -86.5z
M484 1333q0 39 28.5 65.5t69.5 26.5q40 0 68 -26.5t28 -65.5t-27.5 -65.5t-68.5 -26.5t-69.5 26.5t-28.5 65.5z" />
    <glyph glyph-name="Ccaron" unicode="&#x10c;" horiz-adv-x="1525" 
d="M808 -30q-212 0 -375.5 93.5t-251.5 259.5t-88 377t88 377t251.5 259.5t375.5 93.5q197 0 352 -81t249 -227l-151 -76q-74 105 -189 162t-263 57q-250 0 -401.5 -157t-151.5 -409t151.5 -409t401.5 -157q147 0 262.5 57.5t190.5 162.5l148 -75q-92 -145 -247.5 -226.5
t-351.5 -81.5zM508 1970h174l131 -187l126 187h175l-216 -311h-172z" />
    <glyph glyph-name="ccaron" unicode="&#x10d;" horiz-adv-x="1102" 
d="M591 -25q-233 0 -376 148t-143 381q0 234 143 382t376 148q175 -1 302 -88.5t180 -235.5l-159 -36q-43 92 -126.5 144t-196.5 52v1q-163 0 -261 -101.5t-98 -265.5q0 -163 98 -265t261 -102q113 0 196.5 52t126.5 144l159 -36q-53 -149 -180.5 -235.5t-301.5 -86.5z
M271 1569h174l131 -187l126 187h175l-216 -311h-172z" />
    <glyph glyph-name="Dcaron" unicode="&#x10e;" horiz-adv-x="1394" 
d="M130 0v1400h504q203 0 359.5 -90.5t240.5 -249.5t84 -361t-84 -360.5t-240 -248.5t-360 -90h-504zM304 166l332 -1q237 0 379.5 147.5t142.5 385.5t-142.5 386.5t-379.5 148.5l-332 1v-1068zM360 1972h174l131 -187l126 187h175l-216 -311h-172z" />
    <glyph glyph-name="dcaron" unicode="&#x10f;" horiz-adv-x="1195" 
d="M591 -25q-233 0 -376 148t-143 381q0 234 143 382t376 148q106 -1 199.5 -38t159.5 -102v604h172v-1498h-172v115q-65 -65 -159 -102t-200 -38zM232 504q0 -163 98 -265t261 -102q162 0 260 102t98 265q0 164 -98 265.5t-260 101.5q-163 0 -261 -101.5t-98 -265.5z
M325 1581h174l131 -187l126 187h175l-216 -311h-172z" />
    <glyph glyph-name="Dcroat" unicode="&#x110;" horiz-adv-x="1408" 
d="M141 0v593h-278v140h278v667h504q203 0 359.5 -90.5t240.5 -249.5t84 -361t-84 -360.5t-240 -248.5t-360 -90h-504zM315 166l332 -1q237 0 379.5 147.5t142.5 385.5t-142.5 386.5t-379.5 148.5l-332 1v-501h269v-140h-269v-427z" />
    <glyph glyph-name="dcroat" unicode="&#x111;" horiz-adv-x="1240" 
d="M594 -25q-233 0 -376 148t-143 381q0 234 143 382t376 148q106 -1 199.5 -38t159.5 -102v276h-257v140h257v188h172v-188h292v-140h-292v-1170h-172v115q-65 -65 -159 -102t-200 -38zM235 504q0 -163 98 -265t261 -102q162 0 260 102t98 265q0 164 -98 265.5t-260 101.5
q-163 0 -261 -101.5t-98 -265.5z" />
    <glyph glyph-name="Emacron" unicode="&#x112;" horiz-adv-x="1181" 
d="M130 0v1400h935v-166h-761v-418h636v-167h-636v-483h761v-166h-935zM278 1666v140h721v-140h-721z" />
    <glyph glyph-name="emacron" unicode="&#x113;" 
d="M591 -25q-233 0 -376 148t-143 381q0 234 143 382t376 148q232 0 375 -148t143 -382v-66h-872q20 -137 114.5 -219t239.5 -82q113 0 196.5 52t126.5 144l159 -36q-53 -149 -180.5 -235.5t-301.5 -86.5zM229 1275v140h721v-140h-721zM237 578h706q-21 133 -115.5 213
t-236.5 80q-143 0 -237.5 -79.5t-116.5 -213.5z" />
    <glyph glyph-name="Edotaccent" unicode="&#x116;" horiz-adv-x="1181" 
d="M130 0v1400h935v-166h-761v-418h636v-167h-636v-483h761v-166h-935zM527 1728q0 39 28.5 65.5t69.5 26.5q40 0 68 -26.5t28 -65.5t-27.5 -65.5t-68.5 -26.5t-69.5 26.5t-28.5 65.5z" />
    <glyph glyph-name="edotaccent" unicode="&#x117;" 
d="M591 -25q-233 0 -376 148t-143 381q0 234 143 382t376 148q232 0 375 -148t143 -382v-66h-872q20 -137 114.5 -219t239.5 -82q113 0 196.5 52t126.5 144l159 -36q-53 -149 -180.5 -235.5t-301.5 -86.5zM237 578h706q-21 133 -115.5 213t-236.5 80q-143 0 -237.5 -79.5
t-116.5 -213.5zM495 1379q0 39 28.5 65.5t69.5 26.5q40 0 68 -26.5t28 -65.5t-27.5 -65.5t-68.5 -26.5t-69.5 26.5t-28.5 65.5z" />
    <glyph glyph-name="Eogonek" unicode="&#x118;" horiz-adv-x="1300" 
d="M130 0v1400h935v-166h-761v-418h636v-167h-636v-483h761v-136l16 -15q-20 -20 -54 -52q-98 -94 -107 -104q-34 -37 -34 -66q0 -24 15.5 -40t44.5 -18q41 0 68.5 28t21.5 72h134q5 -98 -61.5 -165t-167.5 -67q-86 1 -142.5 58.5t-56.5 135.5q0 79 59 137l69 66h-740z" />
    <glyph glyph-name="eogonek" unicode="&#x119;" 
d="M943 578q-21 133 -115.5 213t-236.5 80q-143 0 -237.5 -79.5t-116.5 -213.5h706zM72 504q0 234 143 382t376 148q232 0 375 -148t143 -382v-66h-872q20 -137 114.5 -219t239.5 -82q113 0 196.5 52t126.5 144l159 -36q-39 -106 -116.5 -182.5t-184.5 -111.5l-42 -40
q-98 -94 -107 -104q-34 -37 -34 -66q0 -24 15.5 -40t44.5 -18q41 0 68.5 28t21.5 72h134q5 -98 -61.5 -165t-167.5 -67q-86 1 -142.5 58.5t-56.5 135.5q0 79 59 137l44 42q-216 15 -346 160.5t-130 367.5z" />
    <glyph glyph-name="Ecaron" unicode="&#x11a;" horiz-adv-x="1181" 
d="M130 0v1400h935v-166h-761v-418h636v-167h-636v-483h761v-166h-935zM299 1976h174l131 -187l126 187h175l-216 -311h-172z" />
    <glyph glyph-name="ecaron" unicode="&#x11b;" horiz-adv-x="1223" 
d="M629 -25q-233 0 -376 148t-143 381q0 234 143 382t376 148q232 0 375 -148t143 -382v-66h-872q20 -137 114.5 -219t239.5 -82q113 0 196.5 52t126.5 144l159 -36q-53 -149 -180.5 -235.5t-301.5 -86.5zM275 578h706q-21 133 -115.5 213t-236.5 80q-143 0 -237.5 -79.5
t-116.5 -213.5zM319 1607h174l131 -187l126 187h175l-216 -311h-172z" />
    <glyph glyph-name="Gbreve" unicode="&#x11e;" horiz-adv-x="1503" 
d="M806 -30q-212 0 -375.5 93.5t-251.5 259.5t-88 377t88 377t251.5 259.5t375.5 93.5q197 0 352 -81t249 -227l-151 -76q-74 105 -189 162t-263 57q-250 0 -401.5 -157t-151.5 -409t151.5 -409t401.5 -157q264 0 422 180v335h-551v167h723v-548q-92 -140 -245.5 -218.5
t-346.5 -78.5zM410 1975h131q-6 -96 60 -161.5t163 -65.5q99 0 163.5 65.5t59.5 161.5h131q4 -100 -48 -187q-50 -78 -130.5 -122.5t-175.5 -44.5q-100 0 -177 46q-85 48 -133 130t-44 178z" />
    <glyph glyph-name="gbreve" unicode="&#x11f;" horiz-adv-x="1258" 
d="M1122 -32q0 -95 -44.5 -182t-117.5 -149.5t-169 -99.5t-197 -37q-106 0 -211 48q-106 50 -183 134t-106 183l160 70q24 -115 122 -191t218 -76q148 0 252 89.5t104 210.5v139q-141 -132 -359 -132q-233 0 -376 148t-143 381q0 234 143 382t376 148q216 0 359 -132v106
h172v-1040zM232 504q0 -163 98 -265t261 -102q162 0 260 102t98 265q0 164 -98 265.5t-260 101.5q-163 0 -261 -101.5t-98 -265.5zM257 1632h131q-6 -96 60 -161.5t163 -65.5q99 0 163.5 65.5t59.5 161.5h131q4 -100 -48 -187q-50 -78 -130.5 -122.5t-175.5 -44.5
q-100 0 -177 46q-85 48 -133 130t-44 178z" />
    <glyph glyph-name="Gdotaccent" unicode="&#x120;" horiz-adv-x="1503" 
d="M806 -30q-212 0 -375.5 93.5t-251.5 259.5t-88 377t88 377t251.5 259.5t375.5 93.5q197 0 352 -81t249 -227l-151 -76q-74 105 -189 162t-263 57q-250 0 -401.5 -157t-151.5 -409t151.5 -409t401.5 -157q264 0 422 180v335h-551v167h723v-548q-92 -140 -245.5 -218.5
t-346.5 -78.5zM690 1757q0 39 28.5 65.5t69.5 26.5q40 0 68 -26.5t28 -65.5t-27.5 -65.5t-68.5 -26.5t-69.5 26.5t-28.5 65.5z" />
    <glyph glyph-name="gdotaccent" unicode="&#x121;" horiz-adv-x="1258" 
d="M1122 -32q0 -95 -44.5 -182t-117.5 -149.5t-169 -99.5t-197 -37q-106 0 -211 48q-106 50 -183 134t-106 183l160 70q24 -115 122 -191t218 -76q148 0 252 89.5t104 210.5v139q-141 -132 -359 -132q-233 0 -376 148t-143 381q0 234 143 382t376 148q216 0 359 -132v106
h172v-1040zM232 504q0 -163 98 -265t261 -102q162 0 260 102t98 265q0 164 -98 265.5t-260 101.5q-163 0 -261 -101.5t-98 -265.5zM535 1402q0 39 28.5 65.5t69.5 26.5q40 0 68 -26.5t28 -65.5t-27.5 -65.5t-68.5 -26.5t-69.5 26.5t-28.5 65.5z" />
    <glyph glyph-name="uni0122" unicode="&#x122;" horiz-adv-x="1510" 
d="M810 -30q-212 0 -375.5 93.5t-251.5 259.5t-88 377t88 377t251.5 259.5t375.5 93.5q197 0 352 -81t249 -227l-151 -76q-74 105 -189 162t-263 57q-250 0 -401.5 -157t-151.5 -409t151.5 -409t401.5 -157q264 0 422 180v335h-551v167h723v-548q-92 -140 -245.5 -218.5
t-346.5 -78.5zM664 -453l91 311h177l-141 -311h-127z" />
    <glyph glyph-name="uni0123" unicode="&#x123;" horiz-adv-x="1235" 
d="M1125 -32q0 -95 -44.5 -182t-117.5 -149.5t-169 -99.5t-197 -37q-106 0 -211 48q-106 50 -183 134t-106 183l160 70q24 -115 122 -191t218 -76q148 0 252 89.5t104 210.5v139q-141 -132 -359 -132q-233 0 -376 148t-143 381q0 234 143 382t376 148q216 0 359 -132v106
h172v-1040zM235 504q0 -163 98 -265t261 -102q162 0 260 102t98 265q0 164 -98 265.5t-260 101.5q-163 0 -261 -101.5t-98 -265.5zM515 1314l91 311h177l-141 -311h-127z" />
    <glyph glyph-name="Hbar" unicode="&#x126;" horiz-adv-x="1379" 
d="M135 0v1031h-151v166h151v203h174v-203h758v203h173v-203h159v-166h-159v-1031h-173v666h-758v-666h-174zM309 832h758v199h-758v-199z" />
    <glyph glyph-name="hbar" unicode="&#x127;" horiz-adv-x="1148" 
d="M126 0v1170h-277v140h277v188h174v-188h270v-140h-270v-270q57 64 139.5 100t175.5 36q120 0 218 -56q100 -55 157.5 -150t57.5 -209v-621h-173v593q0 118 -82 196.5t-205 78.5q-81 0 -144 -37q-68 -38 -106 -100t-38 -138v-593h-174z" />
    <glyph glyph-name="Itilde" unicode="&#x128;" horiz-adv-x="520" 
d="M177 0v1400h172v-1400h-172zM-85 1794q16 56 62.5 90.5t110.5 34.5q29 0 68 -15t58.5 -25.5t69.5 -39.5q97 -62 135 -62q28 0 36.5 33.5t-12.5 56.5l129 38q29 -67 10 -131q-18 -56 -64.5 -90.5t-111.5 -34.5q-26 0 -61.5 14t-56.5 26t-63 39q-39 24 -59 35.5t-45.5 20.5
t-40.5 6q-25 -6 -34.5 -29.5t5.5 -61.5l-127 -34q-26 68 -9 129z" />
    <glyph glyph-name="itilde" unicode="&#x129;" horiz-adv-x="358" 
d="M102 0v1008h174v-1008h-174zM-152 1392q16 56 62.5 90.5t110.5 34.5q29 0 68 -15t58.5 -25.5t69.5 -39.5q97 -62 135 -62q28 0 36.5 33.5t-12.5 56.5l129 38q29 -67 10 -131q-18 -56 -64.5 -90.5t-111.5 -34.5q-26 0 -61.5 14t-56.5 26t-63 39q-39 24 -59 35.5
t-45.5 20.5t-40.5 6q-25 -6 -34.5 -29.5t5.5 -61.5l-127 -34q-26 68 -9 129z" />
    <glyph glyph-name="Imacron" unicode="&#x12a;" horiz-adv-x="513" 
d="M153 0v1400h172v-1400h-172zM-118 1668v140h721v-140h-721z" />
    <glyph glyph-name="imacron" unicode="&#x12b;" horiz-adv-x="449" 
d="M137 0v1008h174v-1008h-174zM-138 1275v140h721v-140h-721z" />
    <glyph glyph-name="Iogonek" unicode="&#x12e;" horiz-adv-x="506" 
d="M190 -397q-86 1 -142.5 58.5t-56.5 135.5q0 79 59 137l107 103v1363h172v-1384l1 -1l-1 -1v-14h-14q-7 -7 -20 -19t-19 -18q-98 -94 -107 -104q-34 -37 -34 -66q0 -24 15.5 -40t44.5 -18q41 0 68.5 28t21.5 72h134q5 -98 -61.5 -165t-167.5 -67z" />
    <glyph glyph-name="iogonek" unicode="&#x12f;" horiz-adv-x="446" 
d="M160 -397q-86 1 -142.5 58.5t-56.5 135.5q0 79 59 137l104 100v974h174v-991l2 -2l-2 -2v-13h-13q-7 -7 -20 -19t-19 -18q-98 -94 -107 -104q-34 -37 -34 -66q0 -24 15.5 -40t44.5 -18q41 0 68.5 28t21.5 72h134q5 -98 -61.5 -165t-167.5 -67z" />
    <glyph glyph-name="Idotaccent" unicode="&#x130;" horiz-adv-x="513" 
d="M167 0v1400h172v-1400h-172zM164 1737q0 39 28.5 65.5t69.5 26.5q40 0 68 -26.5t28 -65.5t-27.5 -65.5t-68.5 -26.5t-69.5 26.5t-28.5 65.5z" />
    <glyph glyph-name="dotlessi" unicode="&#x131;" horiz-adv-x="445" 
d="M135 0v1008h174v-1008h-174z" />
    <glyph glyph-name="IJ" unicode="&#x132;" horiz-adv-x="1743" 
d="M158 0v1400h172v-1400h-172zM464 601h172q-4 -206 103.5 -333t294.5 -127q130 0 218 61t134 161t46 223v814h173v-814q0 -172 -69 -310.5t-200 -219.5t-302 -81q-177 0 -304 82q-130 83 -199.5 226.5t-66.5 317.5z" />
    <glyph glyph-name="ij" unicode="&#x133;" horiz-adv-x="752" 
d="M114 0v1008h174v-1008h-174zM108 1338q0 37 28 64.5t67 27.5q40 0 69 -27.5t29 -64.5q0 -39 -28.5 -66.5t-69.5 -27.5q-39 0 -67 27.5t-28 66.5zM202 -490v167q117 -4 192 61.5t75 170.5v1099h172v-1099q0 -111 -54 -201q-59 -95 -159.5 -148t-225.5 -50zM452 1338
q0 37 28 64.5t67 27.5q40 0 69 -27.5t29 -64.5q0 -39 -28.5 -66.5t-69.5 -27.5q-39 0 -67 27.5t-28 66.5z" />
    <glyph glyph-name="uni0136" unicode="&#x136;" horiz-adv-x="1168" 
d="M135 0v1400h174v-657l574 657h228l-583 -663l573 -737h-222l-465 607l-105 -122v-485h-174zM436 -453l91 311h177l-141 -311h-127z" />
    <glyph glyph-name="uni0137" unicode="&#x137;" horiz-adv-x="1076" 
d="M135 0v1498h174v-992l439 502h226l-360 -411l361 -597h-198l-280 463l-188 -215v-248h-174zM406 -453l91 311h177l-141 -311h-127z" />
    <glyph glyph-name="Lacute" unicode="&#x139;" horiz-adv-x="1181" 
d="M130 0v1400h174v-1234h761v-166h-935zM152 1674l91 311h176l-141 -311h-126z" />
    <glyph glyph-name="lacute" unicode="&#x13a;" horiz-adv-x="436" 
d="M134 0v1498h174v-1498h-174zM136 1674l91 311h176l-141 -311h-126z" />
    <glyph glyph-name="uni013B" unicode="&#x13b;" horiz-adv-x="1190" 
d="M135 0v1400h174v-1234h761v-166h-935zM469 -453l91 311h177l-141 -311h-127z" />
    <glyph glyph-name="uni013C" unicode="&#x13c;" horiz-adv-x="477" 
d="M146 0v1498h174v-1498h-174zM73 -453l91 311h177l-141 -311h-127z" />
    <glyph glyph-name="Lcaron" unicode="&#x13d;" horiz-adv-x="1181" 
d="M130 0v1400h174v-1234h761v-166h-935zM296 1980h174l131 -187l126 187h175l-216 -311h-172z" />
    <glyph glyph-name="lcaron" unicode="&#x13e;" horiz-adv-x="548" 
d="M315 0v1498h174v-1498h-174zM106 1985h174l131 -187l126 187h175l-216 -311h-172z" />
    <glyph glyph-name="Lslash" unicode="&#x141;" horiz-adv-x="1223" 
d="M122 0v843l-195 -113l-70 121l265 153v396h174v-295l185 107l70 -122l-255 -147v-777h761v-166h-935z" />
    <glyph glyph-name="lslash" unicode="&#x142;" horiz-adv-x="441" 
d="M122 0v843l-195 -113l-70 121l265 153v494h174v-393l185 107l70 -122l-255 -147v-943h-174z" />
    <glyph glyph-name="Nacute" unicode="&#x143;" horiz-adv-x="1351" 
d="M130 0v1400h179l733 -1091v1091h173v-1400h-177l-734 1090v-1090h-174zM571 1674l91 311h176l-141 -311h-126z" />
    <glyph glyph-name="nacute" unicode="&#x144;" horiz-adv-x="1148" 
d="M130 1008h174v-108q57 64 140 100t175 36q120 0 218 -56q100 -55 157.5 -150.5t57.5 -208.5v-621h-173v593q0 79 -37 141q-38 63 -104 98.5t-146 35.5q-82 0 -144 -37q-69 -38 -106.5 -100.5t-37.5 -137.5v-593h-174v1008zM449 1274l91 311h176l-141 -311h-126z" />
    <glyph glyph-name="uni0145" unicode="&#x145;" horiz-adv-x="1361" 
d="M135 0v1400h179l733 -1091v1091h173v-1400h-177l-734 1090v-1090h-174zM521 -453l91 311h177l-141 -311h-127z" />
    <glyph glyph-name="uni0146" unicode="&#x146;" horiz-adv-x="1157" 
d="M135 1008h174v-108q57 64 140 100t175 36q120 0 218 -56q100 -55 157.5 -150.5t57.5 -208.5v-621h-173v593q0 79 -37 141q-38 63 -104 98.5t-146 35.5q-82 0 -144 -37q-69 -38 -106.5 -100.5t-37.5 -137.5v-593h-174v1008zM449 -453l91 311h177l-141 -311h-127z" />
    <glyph glyph-name="Ncaron" unicode="&#x147;" horiz-adv-x="1351" 
d="M130 0v1400h179l733 -1091v1091h173v-1400h-177l-734 1090v-1090h-174zM369 1980h174l131 -187l126 187h175l-216 -311h-172z" />
    <glyph glyph-name="ncaron" unicode="&#x148;" horiz-adv-x="1148" 
d="M130 1008h174v-108q57 64 140 100t175 36q120 0 218 -56q100 -55 157.5 -150.5t57.5 -208.5v-621h-173v593q0 79 -37 141q-38 63 -104 98.5t-146 35.5q-82 0 -144 -37q-69 -38 -106.5 -100.5t-37.5 -137.5v-593h-174v1008zM302 1562h174l131 -187l126 187h175l-216 -311
h-172z" />
    <glyph glyph-name="Omacron" unicode="&#x14c;" horiz-adv-x="1617" 
d="M806 -30q-212 0 -375.5 93.5t-251.5 259.5t-88 377t88 377t251.5 259.5t375.5 93.5q213 0 376 -93.5t251 -259.5t88 -377t-88 -377t-251 -259.5t-376 -93.5zM251 699q0 -252 151.5 -409t401.5 -157q251 0 402.5 157t151.5 409t-151.5 409t-402.5 157q-250 0 -401.5 -157
t-151.5 -409zM450 1656v140h721v-140h-721z" />
    <glyph glyph-name="omacron" unicode="&#x14d;" 
d="M591 -25q-233 0 -376 148t-143 381q0 234 143 382t376 148q232 0 375 -148t143 -382q0 -233 -143 -381t-375 -148zM232 504q0 -163 98 -265t261 -102q162 0 260 102t98 265q0 164 -98 265.5t-260 101.5q-163 0 -261 -101.5t-98 -265.5zM262 1254v140h721v-140h-721z" />
    <glyph glyph-name="Ohungarumlaut" unicode="&#x150;" horiz-adv-x="1617" 
d="M806 -30q-212 0 -375.5 93.5t-251.5 259.5t-88 377t88 377t251.5 259.5t375.5 93.5q213 0 376 -93.5t251 -259.5t88 -377t-88 -377t-251 -259.5t-376 -93.5zM251 699q0 -252 151.5 -409t401.5 -157q251 0 402.5 157t151.5 409t-151.5 409t-402.5 157q-250 0 -401.5 -157
t-151.5 -409zM571 1674l91 311h176l-141 -311h-126zM845 1674l91 311h176l-141 -311h-126z" />
    <glyph glyph-name="ohungarumlaut" unicode="&#x151;" 
d="M591 -25q-233 0 -376 148t-143 381q0 234 143 382t376 148q232 0 375 -148t143 -382q0 -233 -143 -381t-375 -148zM232 504q0 -163 98 -265t261 -102q162 0 260 102t98 265q0 164 -98 265.5t-260 101.5q-163 0 -261 -101.5t-98 -265.5zM357 1273l91 311h176l-141 -311
h-126zM631 1273l91 311h176l-141 -311h-126z" />
    <glyph glyph-name="OE" unicode="&#x152;" horiz-adv-x="2436" 
d="M806 -30q-212 0 -375.5 93.5t-251.5 259.5t-88 377t88 377t251.5 259.5t375.5 93.5q187 0 335.5 -73t243.5 -204v247h935v-166h-761v-418h636v-167h-636v-483h761v-166h-935v247q-95 -131 -243.5 -204t-335.5 -73zM251 699q0 -252 151.5 -409t401.5 -157q251 0 402.5 157
t151.5 409t-151.5 409t-402.5 157q-250 0 -401.5 -157t-151.5 -409z" />
    <glyph glyph-name="oe" unicode="&#x153;" horiz-adv-x="2082" 
d="M594 -25q-233 0 -376 148t-143 381q0 234 143 382t376 148q150 0 265.5 -64.5t180.5 -178.5q66 114 181.5 178.5t266.5 64.5q232 0 375 -148t143 -382v-66h-872q20 -137 114.5 -219t239.5 -82q113 0 196.5 52t126.5 144l159 -36q-53 -149 -180.5 -235.5t-301.5 -86.5
q-151 0 -266.5 64.5t-181.5 178.5q-65 -114 -180.5 -178.5t-265.5 -64.5zM235 504q0 -163 98 -265t261 -102q162 0 260 102t98 265q0 164 -98 265.5t-260 101.5q-163 0 -261 -101.5t-98 -265.5zM1134 578h706q-21 133 -115.5 213t-236.5 80q-143 0 -237.5 -79.5
t-116.5 -213.5z" />
    <glyph glyph-name="Racute" unicode="&#x154;" horiz-adv-x="1217" 
d="M130 0v1400h526q69 0 132 -16t118 -51t95.5 -85.5t64 -123t24.5 -159.5q-1 -176 -89 -283t-229 -140l329 -542h-201l-321 530h-275v-530h-174zM304 679l340 2q42 0 80 8.5t76 29.5t65.5 52.5t44.5 81t16 112.5q1 63 -16 112.5t-44.5 81t-65 52t-76 29t-80.5 8.5h-340
v-569zM462 1674l91 311h176l-141 -311h-126z" />
    <glyph glyph-name="racute" unicode="&#x155;" horiz-adv-x="791" 
d="M130 0v1008h174v-108q57 64 139.5 100t175.5 36q70 0 136 -20l-71 -163q-51 15 -92 15q-81 0 -144 -37q-68 -38 -106 -100t-38 -138v-593h-174zM357 1257l91 311h176l-141 -311h-126z" />
    <glyph glyph-name="uni0156" unicode="&#x156;" horiz-adv-x="1227" 
d="M135 0v1400h526q69 0 132 -16t118 -51t95.5 -85.5t64 -123t24.5 -159.5q-1 -176 -89 -283t-229 -140l329 -542h-201l-321 530h-275v-530h-174zM309 679l340 2q42 0 80 8.5t76 29.5t65.5 52.5t44.5 81t16 112.5q1 63 -16 112.5t-44.5 81t-65 52t-76 29t-80.5 8.5h-340
v-569zM463 -453l91 311h177l-141 -311h-127z" />
    <glyph glyph-name="uni0157" unicode="&#x157;" horiz-adv-x="808" 
d="M146 0v1008h174v-108q57 64 139.5 100t175.5 36q70 0 136 -20l-71 -163q-51 15 -92 15q-81 0 -144 -37q-68 -38 -106 -100t-38 -138v-593h-174zM75 -453l91 311h177l-141 -311h-127z" />
    <glyph glyph-name="Rcaron" unicode="&#x158;" horiz-adv-x="1217" 
d="M130 0v1400h526q69 0 132 -16t118 -51t95.5 -85.5t64 -123t24.5 -159.5q-1 -176 -89 -283t-229 -140l329 -542h-201l-321 530h-275v-530h-174zM279 1995h174l131 -187l126 187h175l-216 -311h-172zM304 679l340 2q42 0 80 8.5t76 29.5t65.5 52.5t44.5 81t16 112.5
q1 63 -16 112.5t-44.5 81t-65 52t-76 29t-80.5 8.5h-340v-569z" />
    <glyph glyph-name="rcaron" unicode="&#x159;" horiz-adv-x="796" 
d="M135 0v1008h174v-108q57 64 139.5 100t175.5 36q70 0 136 -20l-71 -163q-51 15 -92 15q-81 0 -144 -37q-68 -38 -106 -100t-38 -138v-593h-174zM116 1571h174l131 -187l126 187h175l-216 -311h-172z" />
    <glyph glyph-name="Sacute" unicode="&#x15a;" horiz-adv-x="1306" 
d="M649 -25q-118 0 -227 35q-116 38 -199 108t-113 164l161 58q24 -88 131 -143.5t247 -55.5q91 0 179 30q84 32 131.5 84.5t47.5 122.5t-50 116q-89 82 -310 120q-145 23 -265 67q-261 95 -261 336q0 124 74 216q74 89 194 138.5t260 49.5q191 0 342.5 -84.5t198.5 -225.5
l-164 -57q-24 89 -130.5 144t-246.5 55q-89 1 -177 -29q-85 -32 -132 -85t-47 -122q0 -82 45 -124q41 -42 114 -64.5t199 -45.5q126 -19 259 -70q269 -112 269 -335q0 -123 -74 -214q-74 -90 -194.5 -139.5t-261.5 -49.5zM502 1674l91 311h176l-141 -311h-126z" />
    <glyph glyph-name="sacute" unicode="&#x15b;" horiz-adv-x="945" 
d="M464 138q52 0 102.5 14t89.5 48.5t39 84.5q0 37 -17.5 62.5t-51.5 40t-65 22.5t-78 16q-16 3 -24 4h1q-91 14 -191 50q-194 71 -194 253q0 93 56 163q54 66 142.5 103t190.5 37q146 0 260.5 -68t142.5 -180l-145 -52q-17 64 -87 104t-171 40q-52 0 -102.5 -14
t-89.5 -48.5t-39 -84.5q0 -37 17.5 -62.5t51.5 -40t65 -22.5t78 -16q16 -3 24 -4q90 -14 186 -51q200 -84 200 -253q0 -93 -56 -161q-54 -67 -143 -104t-192 -37h-1q-146 0 -260.5 68t-142.5 180l145 52q17 -64 87 -104t171 -40h1zM369 1268l91 311h176l-141 -311h-126z" />
    <glyph glyph-name="Scedilla" unicode="&#x15e;" horiz-adv-x="1306" 
d="M649 -359q-74 -20 -140 20.5t-80 114.5l119 29q3 -29 22.5 -43t47.5 -7q24 7 35.5 25t4.5 40q-16 48 -70 37l-128 -17l85 142q-64 9 -123 28q-116 38 -199 108t-113 164l161 58q24 -88 131 -143.5t247 -55.5q91 0 179 30q84 32 131.5 84.5t47.5 122.5t-50 116
q-89 82 -310 120q-145 23 -265 67q-261 95 -261 336q0 124 74 216q74 89 194 138.5t260 49.5q191 0 342.5 -84.5t198.5 -225.5l-164 -57q-24 89 -130.5 144t-246.5 55q-89 1 -177 -29q-85 -32 -132 -85t-47 -122q0 -82 45 -124q41 -42 114 -64.5t199 -45.5q126 -19 259 -70
q269 -112 269 -335q0 -123 -74 -214q-69 -85 -180.5 -134t-243.5 -54l-8 -14q37 -15 64.5 -44t37.5 -68q19 -68 -18 -129t-108 -80z" />
    <glyph glyph-name="scedilla" unicode="&#x15f;" horiz-adv-x="945" 
d="M464 138q52 0 102.5 14t89.5 48.5t39 84.5q0 37 -17.5 62.5t-51.5 40t-65 22.5t-78 16q-16 3 -24 4h1q-91 14 -191 50q-194 71 -194 253q0 93 56 163q54 66 142.5 103t190.5 37q146 0 260.5 -68t142.5 -180l-145 -52q-17 64 -87 104t-171 40q-52 0 -102.5 -14
t-89.5 -48.5t-39 -84.5q0 -37 17.5 -62.5t51.5 -40t65 -22.5t78 -16q16 -3 24 -4q90 -14 186 -51q200 -84 200 -253q0 -93 -56 -161q-80 -100 -228 -130l-19 -31q37 -15 64.5 -44t37.5 -68q19 -68 -18 -129t-108 -80q-74 -20 -140 20.5t-80 114.5l119 29q3 -29 22.5 -43
t47.5 -7q24 7 35.5 25t4.5 40q-16 48 -70 37l-128 -17l86 143q-135 9 -237 76t-128 171l145 52q17 -64 87 -104t171 -40h1z" />
    <glyph glyph-name="Scaron" unicode="&#x160;" horiz-adv-x="1306" 
d="M649 -25q-118 0 -227 35q-116 38 -199 108t-113 164l161 58q24 -88 131 -143.5t247 -55.5q91 0 179 30q84 32 131.5 84.5t47.5 122.5t-50 116q-89 82 -310 120q-145 23 -265 67q-261 95 -261 336q0 124 74 216q74 89 194 138.5t260 49.5q191 0 342.5 -84.5t198.5 -225.5
l-164 -57q-24 89 -130.5 144t-246.5 55q-89 1 -177 -29q-85 -32 -132 -85t-47 -122q0 -82 45 -124q41 -42 114 -64.5t199 -45.5q126 -19 259 -70q269 -112 269 -335q0 -123 -74 -214q-74 -90 -194.5 -139.5t-261.5 -49.5zM360 1984h174l131 -187l126 187h175l-216 -311h-172
z" />
    <glyph glyph-name="scaron" unicode="&#x161;" horiz-adv-x="945" 
d="M464 138q52 0 102.5 14t89.5 48.5t39 84.5q0 37 -17.5 62.5t-51.5 40t-65 22.5t-78 16q-16 3 -24 4h1q-91 14 -191 50q-194 71 -194 253q0 93 56 163q54 66 142.5 103t190.5 37q146 0 260.5 -68t142.5 -180l-145 -52q-17 64 -87 104t-171 40q-52 0 -102.5 -14
t-89.5 -48.5t-39 -84.5q0 -37 17.5 -62.5t51.5 -40t65 -22.5t78 -16q16 -3 24 -4q90 -14 186 -51q200 -84 200 -253q0 -93 -56 -161q-54 -67 -143 -104t-192 -37h-1q-146 0 -260.5 68t-142.5 180l145 52q17 -64 87 -104t171 -40h1zM179 1585h174l131 -187l126 187h175
l-216 -311h-172z" />
    <glyph glyph-name="uni0162" unicode="&#x162;" horiz-adv-x="1349" 
d="M585 0v1234h-490v166h1154v-166h-491v-1199l10 -5l-10 -17v-13h-8l-23 -38q37 -15 64.5 -44t37.5 -68q19 -68 -18 -129t-108 -80q-74 -20 -140 20.5t-80 114.5l119 29q3 -29 22.5 -43t47.5 -7q24 7 35.5 25t4.5 40q-16 48 -70 37l-128 -17l95 160h-24z" />
    <glyph glyph-name="uni0163" unicode="&#x163;" horiz-adv-x="771" 
d="M562 -361q-74 -20 -140 20.5t-80 114.5l119 29q3 -29 22.5 -43t47.5 -7q24 7 35.5 25t4.5 40q-16 48 -70 37l-128 -17l101 169q-90 25 -146.5 96.5t-56.5 164.5v574h-185v166h185l-1 308h173v-308h245v-166h-245v-574q0 -43 28 -69t68 -31.5t80.5 0t69.5 19.5v-159
q-39 -19 -78 -26l-25 -42q37 -15 64.5 -44t37.5 -68q19 -68 -18 -129t-108 -80z" />
    <glyph glyph-name="Tcaron" unicode="&#x164;" horiz-adv-x="1400" 
d="M640 0v1234h-490v166h1154v-166h-491v-1234h-173zM411 2015h174l131 -187l126 187h175l-216 -311h-172z" />
    <glyph glyph-name="tcaron" unicode="&#x165;" horiz-adv-x="658" 
d="M555 -4q-119 0 -201.5 79t-82.5 193v574h-185v166h185l-1 308h173v-308h245v-166h-245v-574q0 -43 28 -69t68 -31.5t80.5 0t69.5 19.5v-159q-64 -32 -134 -32zM73 1674h174l131 -187l126 187h175l-216 -311h-172z" />
    <glyph glyph-name="Utilde" unicode="&#x168;" horiz-adv-x="1408" 
d="M701 -25q-177 0 -304 82q-128 81 -197.5 220.5t-69.5 308.5v814h174v-814q0 -200 106.5 -322.5t290.5 -122.5q130 0 218 61t134 161t46 223v814h173v-814q0 -172 -69 -310.5t-200 -219.5t-302 -81zM384 1840q16 56 62.5 90.5t110.5 34.5q29 0 68 -15t58.5 -25.5
t69.5 -39.5q97 -62 135 -62q28 0 36.5 33.5t-12.5 56.5l129 38q29 -67 10 -131q-18 -56 -64.5 -90.5t-111.5 -34.5q-26 0 -61.5 14t-56.5 26t-63 39q-39 24 -59 35.5t-45.5 20.5t-40.5 6q-25 -6 -34.5 -29.5t5.5 -61.5l-127 -34q-26 68 -9 129z" />
    <glyph glyph-name="utilde" unicode="&#x169;" horiz-adv-x="1109" 
d="M524 -25q-120 0 -217 55q-100 56 -158 151t-58 209v618h173v-591q0 -77 39 -138q40 -64 105.5 -100.5t143.5 -36.5q123 0 204.5 78.5t81.5 196.5v591h174l1 -1008h-174l-1 111q-57 -64 -138.5 -100t-175.5 -36zM207 1431q16 56 62.5 90.5t110.5 34.5q29 0 68 -15
t58.5 -25.5t69.5 -39.5q97 -62 135 -62q28 0 36.5 33.5t-12.5 56.5l129 38q29 -67 10 -131q-18 -56 -64.5 -90.5t-111.5 -34.5q-26 0 -61.5 14t-56.5 26t-63 39q-39 24 -59 35.5t-45.5 20.5t-40.5 6q-25 -6 -34.5 -29.5t5.5 -61.5l-127 -34q-26 68 -9 129z" />
    <glyph glyph-name="Umacron" unicode="&#x16a;" horiz-adv-x="1408" 
d="M701 -25q-177 0 -304 82q-128 81 -197.5 220.5t-69.5 308.5v814h174v-814q0 -200 106.5 -322.5t290.5 -122.5q130 0 218 61t134 161t46 223v814h173v-814q0 -172 -69 -310.5t-200 -219.5t-302 -81zM340 1673v140h721v-140h-721z" />
    <glyph glyph-name="umacron" unicode="&#x16b;" horiz-adv-x="1109" 
d="M524 -25q-120 0 -217 55q-100 56 -158 151t-58 209v618h173v-591q0 -77 39 -138q40 -64 105.5 -100.5t143.5 -36.5q123 0 204.5 78.5t81.5 196.5v591h174l1 -1008h-174l-1 111q-57 -64 -138.5 -100t-175.5 -36zM214 1302v140h721v-140h-721z" />
    <glyph glyph-name="Uring" unicode="&#x16e;" horiz-adv-x="1408" 
d="M701 -25q-177 0 -304 82q-128 81 -197.5 220.5t-69.5 308.5v814h174v-814q0 -200 106.5 -322.5t290.5 -122.5q130 0 218 61t134 161t46 223v814h173v-814q0 -172 -69 -310.5t-200 -219.5t-302 -81zM539 1831q0 70 51.5 119.5t125.5 49.5q73 0 125.5 -49.5t52.5 -119.5
q0 -71 -52.5 -121.5t-125.5 -50.5t-125 51t-52 121zM650 1831q0 -29 18.5 -47.5t47.5 -18.5q30 0 49 18.5t19 47.5q0 26 -19 43.5t-49 17.5q-29 0 -47.5 -17t-18.5 -44z" />
    <glyph glyph-name="uring" unicode="&#x16f;" horiz-adv-x="1109" 
d="M524 -25q-120 0 -217 55q-100 56 -158 151t-58 209v618h173v-591q0 -77 39 -138q40 -64 105.5 -100.5t143.5 -36.5q123 0 204.5 78.5t81.5 196.5v591h174l1 -1008h-174l-1 111q-57 -64 -138.5 -100t-175.5 -36zM367 1424q0 70 51.5 119.5t125.5 49.5q73 0 125.5 -49.5
t52.5 -119.5q0 -71 -52.5 -121.5t-125.5 -50.5t-125 51t-52 121zM478 1424q0 -29 18.5 -47.5t47.5 -18.5q30 0 49 18.5t19 47.5q0 26 -19 43.5t-49 17.5q-29 0 -47.5 -17t-18.5 -44z" />
    <glyph glyph-name="Uhungarumlaut" unicode="&#x170;" horiz-adv-x="1408" 
d="M701 -25q-177 0 -304 82q-128 81 -197.5 220.5t-69.5 308.5v814h174v-814q0 -200 106.5 -322.5t290.5 -122.5q130 0 218 61t134 161t46 223v814h173v-814q0 -172 -69 -310.5t-200 -219.5t-302 -81zM481 1674l91 311h176l-141 -311h-126zM755 1674l91 311h176l-141 -311
h-126z" />
    <glyph glyph-name="uhungarumlaut" unicode="&#x171;" horiz-adv-x="1109" 
d="M524 -25q-120 0 -217 55q-100 56 -158 151t-58 209v618h173v-591q0 -77 39 -138q40 -64 105.5 -100.5t143.5 -36.5q123 0 204.5 78.5t81.5 196.5v591h174l1 -1008h-174l-1 111q-57 -64 -138.5 -100t-175.5 -36zM292 1285l91 311h176l-141 -311h-126zM566 1285l91 311h176
l-141 -311h-126z" />
    <glyph glyph-name="Uogonek" unicode="&#x172;" horiz-adv-x="1408" 
d="M691 -417q-86 1 -142.5 58.5t-56.5 135.5q0 79 59 137l68 66q-128 15 -222 77q-128 81 -197.5 220.5t-69.5 308.5v814h174v-814q0 -200 106.5 -322.5t290.5 -122.5q130 0 218 61t134 161t46 223v814h173v-814q0 -230 -121.5 -394.5t-328.5 -205.5q-17 -17 -45 -43
q-98 -94 -107 -104q-34 -37 -34 -66q0 -24 15.5 -40t44.5 -18q41 0 68.5 28t21.5 72h134q5 -98 -61.5 -165t-167.5 -67z" />
    <glyph glyph-name="uogonek" unicode="&#x173;" horiz-adv-x="1131" 
d="M524 -25q-120 0 -217 55q-100 56 -158 151t-58 209v618h173v-591q0 -77 39 -138q40 -64 105.5 -100.5t143.5 -36.5q123 0 204.5 78.5t81.5 196.5v591h174l1 -981l12 -12l-12 -12v-3h-3q-7 -7 -20 -19t-19 -18q-98 -94 -107 -104q-34 -37 -34 -66q0 -24 15.5 -40t44.5 -18
q41 0 68.5 28t21.5 72h134q5 -98 -61.5 -165t-167.5 -67q-86 1 -142.5 58.5t-56.5 135.5q0 79 59 137l94 90l-1 87q-57 -64 -138.5 -100t-175.5 -36z" />
    <glyph glyph-name="Wcircumflex" unicode="&#x174;" horiz-adv-x="1793" 
d="M435 0l-375 1400h179l291 -1092l290 1092h150l291 -1094l291 1094h178l-372 -1400h-194l-269 1010l-269 -1010h-191zM600 1674l217 311h171l219 -311h-174l-131 188l-129 -188h-173z" />
    <glyph glyph-name="wcircumflex" unicode="&#x175;" horiz-adv-x="1729" 
d="M424 0l-352 1008h171l267 -759l266 759h173l265 -759l267 759h172l-354 -1008h-169l-270 768l-267 -768h-169zM563 1275l217 311h171l219 -311h-174l-131 188l-129 -188h-173z" />
    <glyph glyph-name="Ycircumflex" unicode="&#x176;" horiz-adv-x="1308" 
d="M565 0v631l-493 769h203l376 -587l378 587h203l-495 -769v-631h-172zM368 1674l217 311h171l219 -311h-174l-131 188l-129 -188h-173z" />
    <glyph glyph-name="ycircumflex" unicode="&#x177;" horiz-adv-x="1123" 
d="M272 -490l192 505l-373 993h188l272 -762l294 762h182l-571 -1498h-184zM265 1274l217 311h171l219 -311h-174l-131 188l-129 -188h-173z" />
    <glyph glyph-name="Ydieresis" unicode="&#x178;" horiz-adv-x="1308" 
d="M565 0v631l-493 769h203l376 -587l378 587h203l-495 -769v-631h-172zM399 1738q0 39 29.5 66.5t69.5 27.5t68.5 -28t28.5 -66q0 -39 -28 -65.5t-69 -26.5q-40 0 -69.5 26.5t-29.5 65.5zM722 1738q0 39 28.5 66.5t69.5 27.5q40 0 69 -28t29 -66q0 -39 -29 -65.5t-69 -26.5
q-42 0 -70 26t-28 66z" />
    <glyph glyph-name="Zacute" unicode="&#x179;" horiz-adv-x="1374" 
d="M91 0v158l950 1076h-950v166h1187v-158l-949 -1076h949v-166h-1187zM556 1674l91 311h176l-141 -311h-126z" />
    <glyph glyph-name="zacute" unicode="&#x17a;" horiz-adv-x="1090" 
d="M91 0v158l652 684h-652v166h903v-157l-651 -685h651v-166h-903zM400 1263l91 311h176l-141 -311h-126z" />
    <glyph glyph-name="Zdotaccent" unicode="&#x17b;" horiz-adv-x="1374" 
d="M91 0v158l950 1076h-950v166h1187v-158l-949 -1076h949v-166h-1187zM581 1700q0 39 28.5 65.5t69.5 26.5q40 0 68 -26.5t28 -65.5t-27.5 -65.5t-68.5 -26.5t-69.5 26.5t-28.5 65.5z" />
    <glyph glyph-name="zdotaccent" unicode="&#x17c;" horiz-adv-x="1090" 
d="M91 0v158l652 684h-652v166h903v-157l-651 -685h651v-166h-903zM429 1386q0 39 28.5 65.5t69.5 26.5q40 0 68 -26.5t28 -65.5t-27.5 -65.5t-68.5 -26.5t-69.5 26.5t-28.5 65.5z" />
    <glyph glyph-name="Zcaron" unicode="&#x17d;" horiz-adv-x="1374" 
d="M91 0v158l950 1076h-950v166h1187v-158l-949 -1076h949v-166h-1187zM398 1968h174l131 -187l126 187h175l-216 -311h-172z" />
    <glyph glyph-name="zcaron" unicode="&#x17e;" horiz-adv-x="1090" 
d="M91 0v158l652 684h-652v166h903v-157l-651 -685h651v-166h-903zM257 1604h174l131 -187l126 187h175l-216 -311h-172z" />
    <glyph glyph-name="uni018F" unicode="&#x18f;" horiz-adv-x="1629" 
d="M814 1394q202 0 356 -87.5t236 -243.5t82 -357q0 -202 -82 -358t-236 -243.5t-356 -87.5t-355.5 87.5t-236 243.5t-82.5 358v61h1187q-19 210 -157.5 338.5t-355.5 128.5q-155 0 -272.5 -69.5t-180.5 -192.5l-161 36q76 181 235.5 283.5t378.5 102.5zM302 635
q21 -205 159.5 -331t352.5 -126t353 125.5t161 331.5h-1026z" />
    <glyph glyph-name="uni0218" unicode="&#x218;" horiz-adv-x="1316" 
d="M654 -25q-118 0 -227 35q-116 38 -199 108t-113 164l161 58q24 -88 131 -143.5t247 -55.5q91 0 179 30q84 32 131.5 84.5t47.5 122.5t-50 116q-89 82 -310 120q-145 23 -265 67q-261 95 -261 336q0 124 74 216q74 89 194 138.5t260 49.5q191 0 342.5 -84.5t198.5 -225.5
l-164 -57q-24 89 -130.5 144t-246.5 55q-89 1 -177 -29q-85 -32 -132 -85t-47 -122q0 -82 45 -124q41 -42 114 -64.5t199 -45.5q126 -19 259 -70q269 -112 269 -335q0 -123 -74 -214q-74 -90 -194.5 -139.5t-261.5 -49.5zM521 -453l91 311h177l-141 -311h-127z" />
    <glyph glyph-name="uni0219" unicode="&#x219;" horiz-adv-x="949" 
d="M466 138q52 0 102.5 14t89.5 48.5t39 84.5q0 37 -17.5 62.5t-51.5 40t-65 22.5t-78 16q-16 3 -24 4h1q-91 14 -191 50q-194 71 -194 253q0 93 56 163q54 66 142.5 103t190.5 37q146 0 260.5 -68t142.5 -180l-145 -52q-17 64 -87 104t-171 40q-52 0 -102.5 -14
t-89.5 -48.5t-39 -84.5q0 -37 17.5 -62.5t51.5 -40t65 -22.5t78 -16q16 -3 24 -4q90 -14 186 -51q200 -84 200 -253q0 -93 -56 -161q-54 -67 -143 -104t-192 -37h-1q-146 0 -260.5 68t-142.5 180l145 52q17 -64 87 -104t171 -40h1zM341 -453l91 311h177l-141 -311h-127z" />
    <glyph glyph-name="uni021A" unicode="&#x21a;" horiz-adv-x="1349" 
d="M585 0v1234h-490v166h1154v-166h-491v-1234h-173zM521 -453l91 311h177l-141 -311h-127z" />
    <glyph glyph-name="uni021B" unicode="&#x21b;" horiz-adv-x="766" 
d="M555 -4q-119 0 -201.5 79t-82.5 193v574h-185v166h185l-1 308h173v-308h245v-166h-245v-574q0 -43 28 -69t68 -31.5t80.5 0t69.5 19.5v-159q-64 -32 -134 -32zM366 -453l91 311h177l-141 -311h-127z" />
    <glyph glyph-name="uni0237" unicode="&#x237;" horiz-adv-x="512" 
d="M-69 -323q117 -4 192 61.5t75 170.5v1099h172v-1099q0 -111 -54 -201q-59 -95 -159.5 -148t-225.5 -50v167z" />
    <glyph glyph-name="uni0259" unicode="&#x259;" horiz-adv-x="1196" 
d="M569 1030q233 0 376 -148t143 -381q0 -234 -143 -382t-376 -148q-232 0 -375 148t-143 382v66h872q-20 137 -114.5 219t-239.5 82q-113 0 -196.5 -52t-126.5 -144l-159 36q53 149 180.5 235.5t301.5 86.5zM217 427q21 -133 115.5 -213t236.5 -80q143 0 237.5 79.5
t116.5 213.5h-706z" />
    <glyph glyph-name="circumflex" unicode="&#x2c6;" horiz-adv-x="666" 
d="M29 2274l217 311h171l219 -311h-174l-131 188l-129 -188h-173z" />
    <glyph glyph-name="caron" unicode="&#x2c7;" horiz-adv-x="629" 
d="M229 1674l-218 311h174l131 -187l126 187h175l-216 -311h-172z" />
    <glyph glyph-name="breve" unicode="&#x2d8;" horiz-adv-x="1219" 
d="M609 1653q-100 0 -177 46q-85 48 -133 130t-44 178h131q-6 -96 60 -161.5t163 -65.5q99 0 163.5 65.5t59.5 161.5h131q4 -100 -48 -187q-50 -78 -130.5 -122.5t-175.5 -44.5z" />
    <glyph glyph-name="dotaccent" unicode="&#x2d9;" horiz-adv-x="1025" 
d="M513 2338q-41 0 -69.5 26.5t-28.5 65.5t28.5 65.5t69.5 26.5q40 0 68 -26.5t28 -65.5t-27.5 -65.5t-68.5 -26.5z" />
    <glyph glyph-name="ring" unicode="&#x2da;" horiz-adv-x="1186" 
d="M592 2259q-73 0 -125 51t-52 121t51.5 119.5t125.5 49.5q73 0 125.5 -49.5t52.5 -119.5q0 -71 -52.5 -121.5t-125.5 -50.5zM526 2431q0 -29 18.5 -47.5t47.5 -18.5q30 0 49 18.5t19 47.5q0 26 -19 43.5t-49 17.5q-29 0 -47.5 -17t-18.5 -44z" />
    <glyph glyph-name="ogonek" unicode="&#x2db;" horiz-adv-x="1059" 
d="M514 -397q-86 1 -142.5 58.5t-56.5 135.5q0 79 59 137l182 175l98 -94q-20 -20 -54 -52q-98 -94 -107 -104q-34 -37 -34 -66q0 -24 15.5 -40t44.5 -18q41 0 68.5 28t21.5 72h134q5 -98 -61.5 -165t-167.5 -67z" />
    <glyph glyph-name="tilde" unicode="&#x2dc;" horiz-adv-x="1256" 
d="M786 2307q-26 0 -61.5 14t-56.5 26t-63 39q-39 24 -59 35.5t-45.5 20.5t-40.5 6q-25 -6 -34.5 -29.5t5.5 -61.5l-127 -34q-26 68 -9 129q16 56 62.5 90.5t110.5 34.5q29 0 68 -15t58.5 -25.5t69.5 -39.5q97 -62 135 -62q28 0 36.5 33.5t-12.5 56.5l129 38q29 -67 10 -131
q-18 -56 -64.5 -90.5t-111.5 -34.5z" />
    <glyph glyph-name="hungarumlaut" unicode="&#x2dd;" horiz-adv-x="959" 
d="M476 2274l91 311h176l-141 -311h-126zM202 2274l91 311h176l-141 -311h-126z" />
    <glyph glyph-name="gravecomb" unicode="&#x300;" horiz-adv-x="0" 
d="M398 1674l-143 311h176l91 -311h-124z" />
    <glyph glyph-name="acutecomb" unicode="&#x301;" horiz-adv-x="0" 
d="M308 1674l91 311h176l-141 -311h-126z" />
    <glyph glyph-name="uni0302" unicode="&#x302;" horiz-adv-x="0" 
d="M29 1674l217 311h171l219 -311h-174l-131 188l-129 -188h-173z" />
    <glyph glyph-name="tildecomb" unicode="&#x303;" horiz-adv-x="0" 
d="M813 1695q-26 0 -61.5 14t-56.5 26t-63 39q-39 24 -59 35.5t-45.5 20.5t-40.5 6q-25 -6 -34.5 -29.5t5.5 -61.5l-127 -34q-26 68 -9 129q16 56 62.5 90.5t110.5 34.5q29 0 68 -15t58.5 -25.5t69.5 -39.5q97 -62 135 -62q28 0 36.5 33.5t-12.5 56.5l129 38q29 -67 10 -131
q-18 -56 -64.5 -90.5t-111.5 -34.5z" />
    <glyph glyph-name="uni0304" unicode="&#x304;" horiz-adv-x="0" 
d="M283 2333v140h721v-140h-721z" />
    <glyph glyph-name="uni0306" unicode="&#x306;" horiz-adv-x="0" 
d="M614 2253q-100 0 -177 46q-85 48 -133 130t-44 178h131q-6 -96 60 -161.5t163 -65.5q99 0 163.5 65.5t59.5 161.5h131q4 -100 -48 -187q-50 -78 -130.5 -122.5t-175.5 -44.5z" />
    <glyph glyph-name="uni0307" unicode="&#x307;" horiz-adv-x="0" 
d="M531 1738q-41 0 -69.5 26.5t-28.5 65.5t28.5 65.5t69.5 26.5q40 0 68 -26.5t28 -65.5t-27.5 -65.5t-68.5 -26.5z" />
    <glyph glyph-name="uni0308" unicode="&#x308;" horiz-adv-x="0" 
d="M854 1646q-42 0 -70 26t-28 66q0 39 28.5 66.5t69.5 27.5q40 0 69 -28t29 -66q0 -39 -29 -65.5t-69 -26.5zM433 1738q0 39 29.5 66.5t69.5 27.5t68.5 -28t28.5 -66q0 -39 -28 -65.5t-69 -26.5q-40 0 -69.5 26.5t-29.5 65.5z" />
    <glyph glyph-name="uni030A" unicode="&#x30a;" horiz-adv-x="0" 
d="M610 1659q-73 0 -125 51t-52 121t51.5 119.5t125.5 49.5q73 0 125.5 -49.5t52.5 -119.5q0 -71 -52.5 -121.5t-125.5 -50.5zM544 1831q0 -29 18.5 -47.5t47.5 -18.5q30 0 49 18.5t19 47.5q0 26 -19 43.5t-49 17.5q-29 0 -47.5 -17t-18.5 -44z" />
    <glyph glyph-name="uni030B" unicode="&#x30b;" horiz-adv-x="0" 
d="M489 1674l91 311h176l-141 -311h-126zM215 1674l91 311h176l-141 -311h-126z" />
    <glyph glyph-name="uni030C" unicode="&#x30c;" horiz-adv-x="0" 
d="M229 2274l-218 311h174l131 -187l126 187h175l-216 -311h-172z" />
    <glyph glyph-name="dotbelowcomb" unicode="&#x323;" horiz-adv-x="0" 
d="M513 169q-41 0 -69.5 26.5t-28.5 65.5t28.5 65.5t69.5 26.5q40 0 68 -26.5t28 -65.5t-27.5 -65.5t-68.5 -26.5z" />
    <glyph glyph-name="uni0326" unicode="&#x326;" horiz-adv-x="0" 
d="M521 -453l91 311h177l-141 -311h-127z" />
    <glyph glyph-name="uni0327" unicode="&#x327;" horiz-adv-x="0" 
d="M654 -359q-74 -20 -140 20.5t-80 114.5l119 29q3 -29 22.5 -43t47.5 -7q24 7 35.5 25t4.5 40q-16 48 -70 37l-128 -17l148 248l106 -58l-41 -68q37 -15 64.5 -44t37.5 -68q19 -68 -18 -129t-108 -80z" />
    <glyph glyph-name="uni0328" unicode="&#x328;" horiz-adv-x="0" 
d="M520 -397q-86 1 -142.5 58.5t-56.5 135.5q0 79 59 137l182 175l98 -94q-20 -20 -54 -52q-98 -94 -107 -104q-34 -37 -34 -66q0 -24 15.5 -40t44.5 -18q41 0 68.5 28t21.5 72h134q5 -98 -61.5 -165t-167.5 -67z" />
    <glyph glyph-name="uni03BC" unicode="&#x3bc;" horiz-adv-x="1138" 
d="M95 -423v1431h173v-535q0 -97 41 -169q42 -78 111 -122.5t153 -44.5q83 0 152 45q68 46 106.5 122.5t38.5 168.5v535h172v-1008h-172v134q-126 -160 -315 -160q-171 0 -287 134v-531h-173z" />
    <glyph glyph-name="uni1E20" unicode="&#x1e20;" horiz-adv-x="1510" 
d="M810 -30q-212 0 -375.5 93.5t-251.5 259.5t-88 377t88 377t251.5 259.5t375.5 93.5q197 0 352 -81t249 -227l-151 -76q-74 105 -189 162t-263 57q-250 0 -401.5 -157t-151.5 -409t151.5 -409t401.5 -157q264 0 422 180v335h-551v167h723v-548q-92 -140 -245.5 -218.5
t-346.5 -78.5zM393 1664v140h721v-140h-721z" />
    <glyph glyph-name="uni1E21" unicode="&#x1e21;" horiz-adv-x="1266" 
d="M1125 -32q0 -95 -44.5 -182t-117.5 -149.5t-169 -99.5t-197 -37q-106 0 -211 48q-106 50 -183 134t-106 183l160 70q24 -115 122 -191t218 -76q148 0 252 89.5t104 210.5v139q-141 -132 -359 -132q-233 0 -376 148t-143 381q0 234 143 382t376 148q216 0 359 -132v106
h172v-1040zM235 504q0 -163 98 -265t261 -102q162 0 260 102t98 265q0 164 -98 265.5t-260 101.5q-163 0 -261 -101.5t-98 -265.5zM246 1286v140h721v-140h-721z" />
    <glyph glyph-name="Wgrave" unicode="&#x1e80;" horiz-adv-x="1793" 
d="M435 0l-375 1400h179l291 -1092l290 1092h150l291 -1094l291 1094h178l-372 -1400h-194l-269 1010l-269 -1010h-191zM720 1985h176l91 -311h-124z" />
    <glyph glyph-name="wgrave" unicode="&#x1e81;" horiz-adv-x="1729" 
d="M424 0l-352 1008h171l267 -759l266 759h173l265 -759l267 759h172l-354 -1008h-169l-270 768l-267 -768h-169zM743 1584h176l91 -311h-124z" />
    <glyph glyph-name="Wacute" unicode="&#x1e82;" horiz-adv-x="1793" 
d="M435 0l-375 1400h179l291 -1092l290 1092h150l291 -1094l291 1094h178l-372 -1400h-194l-269 1010l-269 -1010h-191zM759 1674l91 311h176l-141 -311h-126z" />
    <glyph glyph-name="wacute" unicode="&#x1e83;" horiz-adv-x="1729" 
d="M424 0l-352 1008h171l267 -759l266 759h173l265 -759l267 759h172l-354 -1008h-169l-270 768l-267 -768h-169zM731 1263l91 311h176l-141 -311h-126z" />
    <glyph glyph-name="Wdieresis" unicode="&#x1e84;" horiz-adv-x="1793" 
d="M435 0l-375 1400h179l291 -1092l290 1092h150l291 -1094l291 1094h178l-372 -1400h-194l-269 1010l-269 -1010h-191zM640 1738q0 39 29.5 66.5t69.5 27.5t68.5 -28t28.5 -66q0 -39 -28 -65.5t-69 -26.5q-40 0 -69.5 26.5t-29.5 65.5zM963 1738q0 39 28.5 66.5t69.5 27.5
q40 0 69 -28t29 -66q0 -39 -29 -65.5t-69 -26.5q-42 0 -70 26t-28 66z" />
    <glyph glyph-name="wdieresis" unicode="&#x1e85;" horiz-adv-x="1729" 
d="M424 0l-352 1008h171l267 -759l266 759h173l265 -759l267 759h172l-354 -1008h-169l-270 768l-267 -768h-169zM602 1351q0 39 29.5 66.5t69.5 27.5t68.5 -28t28.5 -66q0 -39 -28 -65.5t-69 -26.5q-40 0 -69.5 26.5t-29.5 65.5zM925 1351q0 39 28.5 66.5t69.5 27.5
q40 0 69 -28t29 -66q0 -39 -29 -65.5t-69 -26.5q-42 0 -70 26t-28 66z" />
    <glyph glyph-name="uni1E9E" unicode="&#x1e9e;" horiz-adv-x="1281" 
d="M409 156q166 -48 295.5 -28t208.5 97.5t79 185.5q0 68 -19.5 121t-50.5 85t-73.5 53t-84 28.5t-86.5 7.5h-269v161h263q236 0 236 224q0 205 -197 205h-423v-1515h-168v1677h591q73 0 137 -22t116 -65.5t82.5 -115.5t30.5 -164q0 -193 -123 -295q206 -115 206 -385
q0 -91 -27.5 -165.5t-73.5 -122.5t-106 -83t-125 -51.5t-130 -24.5t-122.5 -4.5t-101 12t-65.5 20.5v164z" />
    <glyph glyph-name="uni1EBC" unicode="&#x1ebc;" horiz-adv-x="1190" 
d="M135 0v1400h935v-166h-761v-418h636v-167h-636v-483h761v-166h-935zM275 1779q16 56 62.5 90.5t110.5 34.5q29 0 68 -15t58.5 -25.5t69.5 -39.5q97 -62 135 -62q28 0 36.5 33.5t-12.5 56.5l129 38q29 -67 10 -131q-18 -56 -64.5 -90.5t-111.5 -34.5q-26 0 -61.5 14
t-56.5 26t-63 39q-39 24 -59 35.5t-45.5 20.5t-40.5 6q-25 -6 -34.5 -29.5t5.5 -61.5l-127 -34q-26 68 -9 129z" />
    <glyph glyph-name="uni1EBD" unicode="&#x1ebd;" horiz-adv-x="1190" 
d="M594 -25q-233 0 -376 148t-143 381q0 234 143 382t376 148q232 0 375 -148t143 -382v-66h-872q20 -137 114.5 -219t239.5 -82q113 0 196.5 52t126.5 144l159 -36q-53 -149 -180.5 -235.5t-301.5 -86.5zM240 578h706q-21 133 -115.5 213t-236.5 80q-143 0 -237.5 -79.5
t-116.5 -213.5zM269 1392q16 56 62.5 90.5t110.5 34.5q29 0 68 -15t58.5 -25.5t69.5 -39.5q97 -62 135 -62q28 0 36.5 33.5t-12.5 56.5l129 38q29 -67 10 -131q-18 -56 -64.5 -90.5t-111.5 -34.5q-26 0 -61.5 14t-56.5 26t-63 39q-39 24 -59 35.5t-45.5 20.5t-40.5 6
q-25 -6 -34.5 -29.5t5.5 -61.5l-127 -34q-26 68 -9 129z" />
    <glyph glyph-name="Ygrave" unicode="&#x1ef2;" horiz-adv-x="1308" 
d="M565 0v631l-493 769h203l376 -587l378 587h203l-495 -769v-631h-172zM491 1985h176l91 -311h-124z" />
    <glyph glyph-name="ygrave" unicode="&#x1ef3;" horiz-adv-x="1123" 
d="M272 -490l192 505l-373 993h188l272 -762l294 762h182l-571 -1498h-184zM404 1564h176l91 -311h-124z" />
    <glyph glyph-name="uni1EF8" unicode="&#x1ef8;" horiz-adv-x="1314" 
d="M568 0v631l-493 769h203l376 -587l378 587h203l-495 -769v-631h-172zM315 1821q16 56 62.5 90.5t110.5 34.5q29 0 68 -15t58.5 -25.5t69.5 -39.5q97 -62 135 -62q28 0 36.5 33.5t-12.5 56.5l129 38q29 -67 10 -131q-18 -56 -64.5 -90.5t-111.5 -34.5q-26 0 -61.5 14
t-56.5 26t-63 39q-39 24 -59 35.5t-45.5 20.5t-40.5 6q-25 -6 -34.5 -29.5t5.5 -61.5l-127 -34q-26 68 -9 129z" />
    <glyph glyph-name="uni1EF9" unicode="&#x1ef9;" horiz-adv-x="1130" 
d="M276 -490l192 505l-373 993h188l272 -762l294 762h182l-571 -1498h-184zM230 1404q16 56 62.5 90.5t110.5 34.5q29 0 68 -15t58.5 -25.5t69.5 -39.5q97 -62 135 -62q28 0 36.5 33.5t-12.5 56.5l129 38q29 -67 10 -131q-18 -56 -64.5 -90.5t-111.5 -34.5q-26 0 -61.5 14
t-56.5 26t-63 39q-39 24 -59 35.5t-45.5 20.5t-40.5 6q-25 -6 -34.5 -29.5t5.5 -61.5l-127 -34q-26 68 -9 129z" />
    <glyph glyph-name="endash" unicode="&#x2013;" horiz-adv-x="1324" 
d="M135 519v166h1053v-166h-1053z" />
    <glyph glyph-name="emdash" unicode="&#x2014;" horiz-adv-x="2142" 
d="M135 519v166h1871v-166h-1871z" />
    <glyph glyph-name="quoteleft" unicode="&#x2018;" horiz-adv-x="513" 
d="M254 860l-119 540h176l66 -540h-123z" />
    <glyph glyph-name="quoteright" unicode="&#x2019;" horiz-adv-x="373" 
d="M55 860l67 540h175l-118 -540h-124z" />
    <glyph glyph-name="quotesinglbase" unicode="&#x201a;" horiz-adv-x="405" 
d="M64 -110l69 361h176l-121 -361h-124z" />
    <glyph glyph-name="quotedblleft" unicode="&#x201c;" horiz-adv-x="720" 
d="M133 860l118 540h124l-68 -540h-174zM419 864l118 540h124l-68 -540h-174z" />
    <glyph glyph-name="quotedblright" unicode="&#x201d;" horiz-adv-x="720" 
d="M54 860l67 540h175l-118 -540h-124zM340 860l67 540h175l-118 -540h-124z" />
    <glyph glyph-name="quotedblbase" unicode="&#x201e;" horiz-adv-x="679" 
d="M64 -110l69 361h176l-121 -361h-124zM338 -110l69 361h176l-121 -361h-124z" />
    <glyph glyph-name="dagger" unicode="&#x2020;" horiz-adv-x="864" 
d="M346 575v495h-251v166h251v262h172v-262h250v-166h-250v-495h-172z" />
    <glyph glyph-name="daggerdbl" unicode="&#x2021;" horiz-adv-x="864" 
d="M346 548v218h-251v164h251v173h-251v167h251v228h172v-228h250v-167h-250v-173h250v-164h-250v-218h-172z" />
    <glyph glyph-name="bullet" unicode="&#x2022;" horiz-adv-x="438" 
d="M218 483q-51 0 -87 35t-36 85q0 49 36 84t87 35q52 0 88 -34.5t36 -84.5t-36 -85t-88 -35z" />
    <glyph glyph-name="ellipsis" unicode="&#x2026;" horiz-adv-x="1087" 
d="M186 -25q-39 0 -67 27.5t-28 66.5q0 37 28 64.5t67 27.5q40 0 69 -27.5t29 -64.5q0 -39 -28.5 -66.5t-69.5 -27.5zM424 69q0 37 28 64.5t67 27.5q40 0 69 -27.5t29 -64.5q0 -39 -28.5 -66.5t-69.5 -27.5q-39 0 -67 27.5t-28 66.5zM758 69q0 37 28 64.5t67 27.5
q40 0 69 -27.5t29 -64.5q0 -39 -28.5 -66.5t-69.5 -27.5q-39 0 -67 27.5t-28 66.5z" />
    <glyph glyph-name="guilsinglleft" unicode="&#x2039;" horiz-adv-x="768" 
d="M456 256l-321 347l321 346h196l-320 -346l320 -347h-196z" />
    <glyph glyph-name="guilsinglright" unicode="&#x203a;" horiz-adv-x="767" 
d="M115 256l319 347l-319 346h196l320 -346l-320 -347h-196z" />
    <glyph glyph-name="fraction" unicode="&#x2044;" horiz-adv-x="555" 
d="M-228 0l846 1400h164l-844 -1400h-166z" />
    <glyph glyph-name="Euro" unicode="&#x20ac;" horiz-adv-x="1251" 
d="M1155 -12q-187 -36 -361 20t-298 186.5t-173 308.5h-228v134h206v125h-206v134h228q50 180 175.5 311t299 186.5t357.5 19.5v-171q-141 34 -273 -0.5t-229 -125.5t-145 -220h333v-134h-366v-125h366v-134h-332q47 -131 146.5 -222t227 -122t272.5 1v-172z" />
    <glyph glyph-name="trademark" unicode="&#x2122;" horiz-adv-x="1554" 
d="M344 662v650h-258v88h608v-88h-259v-650h-91zM718 661v739h85l262 -541l262 541h84v-739h-97l-1 474l-219 -454h-59l-219 454v-474h-98z" />
    <glyph glyph-name="arrowleft" unicode="&#x2190;" horiz-adv-x="1465" 
d="M623 244l-528 505l528 505l121 -117l-318 -305h943v-166h-943l318 -305z" />
    <glyph glyph-name="arrowup" unicode="&#x2191;" horiz-adv-x="1248" 
d="M538 141v905l-319 -307l-124 119l529 505l528 -505l-123 -119l-319 307v-905h-172z" />
    <glyph glyph-name="arrowright" unicode="&#x2192;" horiz-adv-x="1466" 
d="M841 244l-122 117l317 305h-941v166h941l-317 305l122 117l529 -505z" />
    <glyph glyph-name="arrowdown" unicode="&#x2193;" horiz-adv-x="1247" 
d="M621 136l-526 505l123 118l317 -306v903h173v-903l320 306l123 -118z" />
    <glyph glyph-name="arrowboth" unicode="&#x2194;" horiz-adv-x="1793" 
d="M623 244l-528 505l528 505l121 -117l-318 -305h939l-319 305l122 117l529 -505l-529 -505l-122 117l319 305h-939l318 -305z" />
    <glyph glyph-name="arrowupdn" unicode="&#x2195;" horiz-adv-x="1248" 
d="M623 -19l-528 507l123 118l319 -307v900l-319 -306l-123 118l528 505l529 -505l-124 -118l-318 306v-900l318 307l124 -118z" />
    <glyph glyph-name="uni2196" unicode="&#x2196;" horiz-adv-x="1155" 
d="M935 286l-667 638v-433h-173v715h745v-166h-449l668 -638z" />
    <glyph glyph-name="uni2197" unicode="&#x2197;" horiz-adv-x="1154" 
d="M218 286l-123 117l667 637h-452v166h748v-715h-173v432z" />
    <glyph glyph-name="uni2198" unicode="&#x2198;" horiz-adv-x="1154" 
d="M312 292v166h450l-667 637l123 117l667 -637v431h173v-714h-746z" />
    <glyph glyph-name="uni2199" unicode="&#x2199;" horiz-adv-x="1154" 
d="M95 292v714h173v-431l666 637l124 -117l-668 -637h450v-166h-745z" />
    <glyph glyph-name="partialdiff" unicode="&#x2202;" horiz-adv-x="1269" 
d="M614 137q163 0 261 102t98 265q0 164 -98 265.5t-261 101.5q-162 0 -260 -101.5t-98 -265.5q0 -163 98 -265t260 -102zM95 504q0 234 143 382t376 148q164 -2 288 -83q-72 173 -201.5 278.5t-305.5 100.5v167q166 4 309.5 -73t251.5 -218q102 -135 158.5 -311t58.5 -372
q0 -161 -66 -284q-67 -125 -187.5 -194.5t-274.5 -69.5h-31q-233 0 -376 148t-143 381z" />
    <glyph glyph-name="emptyset" unicode="&#x2205;" horiz-adv-x="1244" 
d="M368 -59l-132 73l51 84q-89 74 -140.5 180t-51.5 226q0 146 70.5 268.5t191.5 193t264 70.5q107 0 206 -43l48 78l132 -72l-50 -85q89 -75 140 -181t51 -229q0 -145 -71 -267t-192 -192t-264 -70q-105 0 -206 44zM259 498q0 -154 114 -257l370 615q-71 24 -140 22.5
t-131.5 -33.5t-109.5 -81t-75 -119t-28 -147zM499 156q73 -24 142.5 -22t131.5 33.5t108.5 80t74 117.5t27.5 145q0 157 -113 260z" />
    <glyph glyph-name="minus" unicode="&#x2212;" horiz-adv-x="1244" 
d="M95 519v166h1053v-166h-1053z" />
    <glyph glyph-name="radical" unicode="&#x221a;" horiz-adv-x="1380" 
d="M370 0l-275 723h183l189 -492l447 1169h370v-166h-250l-472 -1234h-192z" />
    <glyph glyph-name="infinity" unicode="&#x221e;" horiz-adv-x="1562" 
d="M422 297q-99 9 -172 56t-114 119t-41 156q0 137 92.5 231t235.5 99q84 0 141 -23q95 -40 218 -180q50 58 101 106q111 97 238 97q108 -3 188 -49q76 -45 116.5 -118.5t40.5 -162.5q0 -88 -41 -161q-43 -75 -116 -120t-168 -50q-86 0 -138 22q-54 20 -104.5 62.5
t-116.5 117.5q-66 -71 -107 -108q-55 -51 -114.5 -73.5t-138.5 -20.5zM257 628q0 -71 47.5 -119t120.5 -56q57 0 93 20q34 17 67.5 50.5t93.5 104.5q-40 47 -87 98q-40 41 -76.5 58.5t-90.5 16.5q-75 -7 -121.5 -56t-46.5 -117zM883 628q97 -110 134 -138q51 -37 120 -37
q75 8 121.5 57t46.5 118q0 72 -47.5 119.5t-130.5 54.5q-50 0 -84 -19q-32 -18 -67 -53t-93 -102z" />
    <glyph glyph-name="integral" unicode="&#x222b;" horiz-adv-x="955" 
d="M301 -25q-100 1 -158.5 69.5t-44.5 161.5l131 -10q-6 -69 46 -76q27 -2 44.5 11.5t19.5 37.5l104 1092q12 75 74 121t141 43q94 -2 153.5 -71t44.5 -161l-124 11q3 38 -13.5 57t-47.5 18q-24 2 -40.5 -13t-18.5 -38l-102 -1088q-14 -82 -70 -123t-139 -42z" />
    <glyph glyph-name="approxequal" unicode="&#x2248;" horiz-adv-x="1312" 
d="M904 712q-44 0 -101.5 19t-95.5 38t-112 59q-60 33 -94.5 50.5t-79.5 33t-76 15.5q-65 1 -100 -48.5t-13 -118.5l-169 -9q-25 91 12 169q32 75 102 121.5t157 46.5q44 0 99.5 -19.5t89.5 -38t100 -56.5q60 -35 92 -52t78.5 -34t81.5 -17q68 0 103 50t10 114l172 11
q27 -89 -6 -169q-31 -74 -97.5 -119.5t-152.5 -45.5zM63 203q-25 91 12 169q32 75 102 121.5t157 46.5q44 0 99.5 -19.5t89.5 -38t100 -56.5q60 -35 92 -52t78.5 -34t81.5 -17q68 0 103 50t10 114l172 11q27 -89 -6 -169q-31 -74 -97.5 -119.5t-152.5 -45.5q-44 0 -101.5 19
t-95.5 38t-112 59q-60 33 -94.5 50.5t-79.5 33t-76 15.5q-65 1 -100 -48.5t-13 -118.5z" />
    <glyph glyph-name="notequal" unicode="&#x2260;" horiz-adv-x="1244" 
d="M353 18l93 303h-351v167h400l71 229h-471v166h523l92 304h178l-92 -304h352v-166h-403l-70 -229h473v-167h-523l-94 -303h-178z" />
    <glyph glyph-name="lessequal" unicode="&#x2264;" horiz-adv-x="1244" 
d="M1148 329l-1053 287v246l1053 289v-173l-873 -238l873 -238v-173zM95 0v166h1053v-166h-1053z" />
    <glyph glyph-name="greaterequal" unicode="&#x2265;" horiz-adv-x="1244" 
d="M95 337v174l872 233l-872 233v174l1053 -285v-247zM95 0v166h1053v-166h-1053z" />
    <glyph glyph-name="uniA78B" unicode="&#xa78b;" horiz-adv-x="289" 
d="M67 1442h154l-14 -507h-125z" />
    <glyph glyph-name="uniA78C" unicode="&#xa78c;" horiz-adv-x="289" 
d="M67 1442h154l-14 -507h-125z" />
    <glyph glyph-name="uni004A0301" horiz-adv-x="1356" 
d="M625 -25q-177 0 -304 82q-130 83 -199.5 226.5t-66.5 317.5h172q-4 -206 103.5 -333t294.5 -127q130 0 218 61t134 161t46 223v814h173v-814q0 -172 -69 -310.5t-200 -219.5t-302 -81zM1042 1674l91 311h176l-141 -311h-126z" />
    <glyph glyph-name="i.loclTRK" horiz-adv-x="463" 
d="M144 0v1008h174v-1008h-174zM137 1379q0 39 28.5 65.5t69.5 26.5q40 0 68 -26.5t28 -65.5t-27.5 -65.5t-68.5 -26.5t-69.5 26.5t-28.5 65.5z" />
    <glyph glyph-name="uni006A0301" horiz-adv-x="514" 
d="M-69 -323q117 -4 192 61.5t75 170.5v1099h172v-1099q0 -111 -54 -201q-59 -95 -159.5 -148t-225.5 -50v167zM202 1274l91 311h176l-141 -311h-126z" />
    <glyph glyph-name="_Designova" horiz-adv-x="1401" 
d="M699 38q-162 0 -300 81t-218.5 219.5t-80.5 300.5q1 122 48.5 233t128 191t191.5 127.5t233 47.5t233 -47.5t191.5 -127.5t128 -191t47.5 -233q0 -163 -80.5 -301.5t-219.5 -219t-302 -80.5zM172 639q0 -108 42 -206t112.5 -168.5t168.5 -112.5t206 -42q143 0 264.5 70.5
t192.5 192t71 265.5t-70.5 266t-191.5 192.5t-265 70.5t-266 -70.5t-193 -192t-71 -265.5zM360 744q8 0 12 -4q53 -20 107 -29q43 -4 76 3q24 4 49 13q4 0 10.5 3.5t7.5 3.5l-17 8.5t-17.5 9t-15 10t-14.5 13.5h20q37 0 80 18q77 48 147 68q30 9 61 9q6 0 23 1.5t25 0.5
q62 -4 94 -36q7 -5 31 -34v-2q-3 2 -6 2q-50 19 -89.5 4.5t-66.5 -55.5q-6 -11 -15.5 -33.5t-12.5 -29.5q-5 -12 -15 -36.5t-19 -44.5t-17 -37q-31 -65 -69 -111q-17 -23 -68 -61q-51 -36 -127 -59h-6l26 23q16 15 28 47q8 25 24.5 71t23.5 68q31 89 60 139v1q-1 -2 -4.5 -6
t-5.5 -6q-8 -8 -10 -15q-21 -24 -35 -60q-3 -5 -9 -5q-110 5 -190 73q-1 1 -61 58q-5 7 -15 17z" />
    <glyph glyph-name="_Origin" horiz-adv-x="1874" 
d="M100 40v1150h1674v-1149l-43 -1v1zM143 82h1588v625h-1588v-625zM289 224v128h30v-128h-30zM293 884h68q60 0 84 40q11 19 11 46q0 55 -44 75q-19 11 -49 11h-70v-172zM312 439v127h107v-23h-77v-28h70v-22h-70v-31h77v-23h-107zM333 916v108h27q37 0 49 -23q7 -19 7 -31
q0 -36 -26 -48q-10 -6 -31 -6h-26zM339 224v128h25l64 -77v77h29v-128h-24l-63 79v-79h-31zM440 439v127h25l64 -76v76h29v-127h-25l-63 78v-78h-30zM472 948q0 -44 33 -58q13 -7 39 -7q35 0 54 17q9 12 12 22l-38 1q-3 -9 -16 -13q-2 0 -5.5 -0.5t-6.5 -0.5q-22 0 -29 15
q-5 8 -5 15h100v11q0 32 -20 49q-19 16 -48 16q-43 0 -63 -32q-7 -17 -7 -35zM510 962q1 12 15 22q8 5 17 5q21 0 26 -16q4 -5 4 -11h-62zM524 224v128h63q52 0 52 -32q0 -20 -18 -29q2 0 2 -2q20 -7 20 -30q0 -35 -51 -35h-68zM554 247h35q24 0 24 16q0 15 -24 15h-35v-31z
M554 303h31q24 0 24 14q0 16 -24 16h-31v-30zM579 543v23h112v-23h-41v-104h-29v104h-42zM621 922q6 -39 67 -39q39 0 57 20q7 11 7 21q0 26 -41 35l-28 5q-18 3 -18 13q0 12 23 12t23 -14l38 2q-7 38 -62 38q-38 0 -54 -19q-8 -8 -8 -21q0 -28 41 -37l26 -5q19 -3 19 -12
q0 -14 -23 -14q-24 0 -27 16zM657 224v128h107v-24h-78v-27h70v-23h-70v-29h76v-25h-105zM704 566h32l29 -89l30 89h27l29 -90l31 90h28l-41 -127h-33l-28 87l-29 -87h-31zM767 1047q0 -7 7 -12.5t15 -5.5q9 0 15.5 5.5t6.5 12.5t-6.5 12.5t-15.5 5.5q-8 0 -15 -5.5
t-7 -12.5zM768 884h41v129h-41v-129zM784 224v128h59q19 0 29 -5q27 -12 27 -41q0 -14 -7 -24q-11 -13 -21 -18l27 -40h-32l-25 37h-26v-37h-31zM815 285h26q28 0 28 21q0 22 -28 22h-26v-43zM827 949q0 -42 30 -56q12 -6 30 -6q21 0 33 10q7 5 7 10h2v-23q0 -24 -30 -24
q-18 0 -25 7q-2 1 -5 8l-37 -6q3 -15 20 -25t46 -10q43 0 62 22q10 10 10 27v130h-40v-21h-3q-4 13 -21 19q-10 4 -19 4q-35 0 -52 -29q-8 -16 -8 -37zM869 949q0 24 12 33q10 5 18 5q19 0 28 -19q0 -2 1.5 -8.5t1.5 -10.5q0 -36 -31 -36q-18 0 -28 18q-2 10 -2 18zM913 224
v128h29v-103h76v-25h-105zM915 503q0 27 20 47q19 19 50 19q33 0 51 -19q20 -20 20 -47q0 -25 -20 -47q-18 -19 -50 -19t-51 19q-20 22 -20 47zM946 503q0 -18 11 -29.5t28 -11.5q18 0 29 11.5t11 29.5q0 19 -11 30.5t-29 11.5q-17 0 -28 -11.5t-11 -30.5zM993 884h41v75
q0 17 13 23q5 3 14 3q25 0 25 -25v-76h42v82q0 31 -24 42q-11 7 -27 7q-31 0 -43 -25h-1v23h-40v-129zM1039 224v128h30v-128h-30zM1073 439v127h57q22 0 30 -3q26 -14 26 -42q0 -15 -7 -25q-6 -10 -21 -17l28 -40h-32l-25 36h-28v-36h-28zM1090 224v128h25l63 -77v77h31
v-128h-25l-64 79v-79h-30zM1101 499h27q28 0 28 22t-28 22h-27v-44zM1145 948q0 -39 34 -58q12 -7 38 -7q42 0 64 31q8 14 8 34q0 39 -33 59q-19 8 -39 8q-44 0 -63 -32q-9 -18 -9 -35zM1187 949q0 24 13 33q6 5 17 5q19 0 27 -19q3 -7 3 -19q0 -24 -13 -34q-8 -5 -17 -5
q-19 0 -28 20q-2 10 -2 19zM1201 439v127h107v-23h-77v-28h69v-22h-69v-54h-30zM1227 242q0 17 19 17q7 0 12 -5t5 -12q0 -6 -5 -19l-11 -27h-18l9 30q-11 4 -11 16zM1290 1013l51 -129h45l52 129h-42l-31 -91h-1l-31 91h-43zM1319 439v127h107v-23h-77v-28h69v-22h-69v-31
h77v-23h-107zM1336 224v128h57q23 0 38 -8q33 -14 33 -55q0 -22 -9 -35q-16 -30 -62 -30h-57zM1366 249h26q13 0 23 5q19 11 19 35q0 16 -5 21q-9 18 -37 18h-26v-79zM1439 921q0 -26 23 -34q9 -4 25 -4q21 0 34 9q8 10 8 11h2v-19h37v88q0 19 -17 33q-22 10 -43 10
q-35 0 -53 -18q-9 -7 -12 -20l39 -4q4 16 25 16t21 -16v-1q0 -7 -15 -10q-2 -1 -9 -1.5t-10 -0.5q-25 -2 -39 -10q-16 -9 -16 -29zM1448 439v127h22l66 -76v76h29v-127h-25l-64 78v-78h-28zM1477 922q0 7 12 14q4 2 12 2q19 2 28 6v-13q0 -15 -15 -21q-12 -3 -16 -3
q-21 0 -21 15zM1482 224v128h105v-24h-76v-27h69v-23h-69v-29h76v-25h-105z" />
    <glyph glyph-name="_Typeface" horiz-adv-x="2096" 
d="M100 355v540h1896v-540h-1896zM274 522h38v159h3l122 -159h37v217h-39v-159h-2l-123 159h-36v-217zM502 602q0 -49 39 -72q17 -10 46 -10q52 0 74 39q12 21 12 43q0 53 -41 74q-15 10 -45 10q-51 0 -75 -38q-10 -21 -10 -46zM539 602q0 36 21 50q11 8 27 8q33 0 45 -29
q5 -13 5 -29q0 -34 -21 -48q-13 -8 -29 -8q-32 0 -44 29q-4 8 -4 27zM697 522h36v27h3q12 -17 26 -24q13 -5 27 -5q45 0 67 39q10 17 10 45q0 52 -39 72q-11 10 -38 10q-30 0 -44 -17q-8 -11 -9 -12h-3v82h-36v-217zM733 604q0 34 22 48q11 8 27 8q32 0 43 -27q5 -25 5 -29
q0 -36 -22 -50q-11 -8 -26 -8q-33 0 -44 27q-5 25 -5 31zM883 602q0 -51 41 -72q18 -10 45 -10q39 0 63 19q11 11 14 24l-33 5q-9 -17 -25 -19q-7 -5 -16 -5q-34 0 -46 24q-7 10 -7 27h130v9q0 42 -24 63q-23 19 -58 19q-51 0 -75 -38q-9 -19 -9 -46zM919 619q0 19 21 36
q8 5 27 5q34 0 41 -24q3 -3 5 -10l2 -7h-96zM1075 522h34v217h-34v-217zM1222 597q0 -48 46 -67q17 -10 50 -10q62 0 87 36q12 21 12 41v142h-39v-140q0 -32 -26 -43q-14 -7 -34 -7q-36 0 -53 24q-7 10 -7 26v140h-36v-142zM1453 522h36v97q0 26 22 36q10 5 21 5
q18 0 28.5 -10.5t10.5 -28.5v-99h36v104q0 41 -29 53q-14 7 -34 7q-41 0 -53 -29h-4v27h-34v-162zM1633 602q0 -49 39 -72q18 -10 46 -10q52 0 74 39q12 21 12 43q0 53 -41 74q-15 10 -45 10q-53 0 -75 -38q-10 -21 -10 -46zM1669 602q0 36 22 50q11 8 27 8q33 0 45 -29
q5 -13 5 -29q0 -35 -22 -48q-11 -8 -28 -8q-33 0 -44 29q-5 8 -5 27z" />
    <glyph glyph-name="_VendorID" horiz-adv-x="1106" 
d="M100 143v1104h906v-1104h-906zM103 59q0 12 7 19t17 7q8 0 11 -3l4 -5v24h12v-67h-12v9l-4 -7q-6 -4 -14 -4q-21 0 -21 27zM116 59q0 -16 12 -16q14 0 14 16v1q0 16 -13 16t-13 -17zM163 59q0 11 7 18.5t18 7.5q10 0 17 -7t7 -18q0 -2 -2 -5h-34q1 -12 12 -12q9 0 11 8
h11q-3 -19 -22 -19q-25 0 -25 27zM176 62h23q-3 14 -11 14q-11 0 -12 -14zM216 48h13q3 -8 8 -8q9 0 9 7q0 2 -11 8q-17 5 -17 15q0 15 19 15q20 0 20 -15h-13q-2 6 -7 6q-6 0 -6 -5q0 -4 11 -9q16 -3 16 -14q0 -16 -21 -16q-18 0 -21 16zM255 423q0 -56 39.5 -96t96.5 -40
q56 0 94.5 39.5t38.5 96.5q0 58 -37.5 96.5t-95.5 38.5q-11 0 -22 -3l79 112h-60l-90 -128q-43 -60 -43 -116zM255 861q0 -56 39.5 -95t96.5 -39q56 0 94.5 39t38.5 95q0 58 -37.5 96.5t-95.5 38.5q-15 0 -22 -2l79 114h-60l-90 -132q-43 -62 -43 -115zM265 95q0 6 8 6
q7 0 7 -6q0 -8 -7 -8q-8 0 -8 8zM266 34v51h13v-51h-13zM289 31v1h13v-1q0 -8 12 -8q10 0 14 12v8l-4 -7q-8 -2 -13 -2q-22 0 -22 25q0 26 24 26q8 0 11 -3l4 -5v8h13v-38q0 -8 -2 -11q0 -22 -25 -22t-25 17zM302 60q0 -17 12 -17q14 0 14 16v1q0 16 -14 16q-12 0 -12 -16z
M305 423q0 37 24 60.5t62 23.5q36 0 60 -23.5t24 -60.5q0 -39 -24 -63t-60 -24q-38 0 -62 24t-24 63zM305 861q0 39 24 62.5t62 23.5q36 0 60 -24.5t24 -61.5t-24 -61.5t-60 -24.5q-38 0 -62 24t-24 62zM351 34v51h13v-10l4 7q4 3 12 3q14 0 18 -14q1 -3 1 -9v-28h-14v32
q0 10 -9 10q-12 0 -12 -19v-23h-13zM406 59q0 11 7 18.5t18 7.5q26 0 26 -26q0 -27 -26 -27q-11 0 -18 7.5t-7 19.5zM419 59q0 -16 12 -16q14 0 14 16q0 17 -14 17q-12 0 -12 -17zM461 85h14l13 -42l12 42h13l-18 -51h-17zM517 48q0 15 28 15h3v7q0 6 -8 6q-11 0 -11 -8h-12
q0 17 23 17q17 0 19 -14v-37h-11v6l-3 -5q-6 -3 -13 -3q-15 0 -15 16zM529 48q0 -5 8 -5q11 0 11 8v6q-19 2 -19 -9zM568 74v9h5v7q0 14 18 14h5v-10q-10 2 -10 -5v-6h10v-9h-10v-40h-13v40h-5zM580 423q0 -57 39.5 -96.5t95.5 -39.5t94.5 39.5t38.5 96.5t-38 96t-95 39
q-13 0 -23 -3l80 112h-61l-90 -128q-41 -58 -41 -116zM580 861q0 -56 39.5 -95t95.5 -39t94.5 39t38.5 95q0 58 -38 96.5t-95 38.5q-16 0 -24 -2l81 114h-61l-90 -132q-41 -62 -41 -115zM600 59q0 26 26 26q25 0 25 -26q0 -27 -25 -27q-26 0 -26 27zM613 59q0 -16 13 -16
q12 0 12 16q0 17 -12 17q-13 0 -13 -17zM629 423q0 37 24 60.5t62 23.5q36 0 58.5 -23.5t22.5 -60.5q0 -39 -22.5 -63t-58.5 -24q-38 0 -62 24t-24 63zM629 861q0 38 24 62t62 24q36 0 58.5 -24t22.5 -62t-22.5 -62t-58.5 -24q-38 0 -62 24t-24 62zM660 34v51h11v-10l5 7
q4 3 12 3q14 0 18 -14v-37h-13v32q-3 10 -8 10q-14 0 -14 -19v-23h-11zM713 74v9h7v12h13v-12h9v-9h-9v-26q2 -9 8 -5v-10h-7q-14 0 -14 10v31h-7zM746 48h14q2 -8 9 -8q8 0 8 7q0 2 -11 8q-16 4 -16 15q0 15 18 15t23 -15h-15q0 6 -9 6q-4 0 -4 -5t10 -9q18 -4 18 -14
q0 -16 -22 -16q-19 0 -23 16zM794 39q0 9 9 9q8 0 8 -9q0 -7 -8 -7q-9 0 -9 7zM817 59q0 11 7.5 18.5t16.5 7.5q23 0 23 -19h-12q-3 10 -11 10q-11 0 -11 -17q0 -16 11 -16q9 0 11 8h12q-1 -19 -23 -19q-24 0 -24 27zM869 59q0 26 27 26q24 0 24 -26q0 -27 -24 -27
q-27 0 -27 27zM882 59q0 -16 14 -16q12 0 12 16q0 17 -12 17q-14 0 -14 -17zM929 34v51h13v-9l5 6q3 3 8 3q12 0 17 -10l5 7q3 3 10 3q16 0 16 -12q1 -3 1 -11v-28h-12v26q0 1 -0.5 3.5t-0.5 4.5q0 8 -10 8q-8 0 -8 -16v-26h-12v34q-5 8 -9 8q-10 0 -10 -16v-26h-13z" />
    <glyph glyph-name="crossbarcomb" horiz-adv-x="1446" 
d="M15 519v166h1415v-166h-1415z" />
    <glyph glyph-name="crossslashcomb" horiz-adv-x="626" 
d="M15 -205l421 1795h174l-422 -1795h-173z" />
    <glyph glyph-name="dotlessicomb" horiz-adv-x="455" 
d="M140 0v1008h174v-1008h-174z" />
    <glyph glyph-name="dotlessjcomb" horiz-adv-x="512" 
d="M-69 -323q117 -4 192 61.5t75 170.5v1099h172v-1099q0 -111 -54 -201q-59 -95 -159.5 -148t-225.5 -50v167z" />
    <glyph glyph-name="leftspikecomb" horiz-adv-x="373" 
d="M75 860l118 540h124l-68 -540h-174z" />
    <glyph glyph-name="rightspikecomb" horiz-adv-x="471" 
d="M53 860l67 540h175l-118 -540h-124z" />
    </font>
</defs>
</svg>
