<?xml version="1.0" standalone="no"?>
<!DOCTYPE svg PUBLIC "-//W3C//DTD SVG 1.1//EN" "http://www.w3.org/Graphics/SVG/1.1/DTD/svg11.dtd" >
<svg xmlns="http://www.w3.org/2000/svg" xmlns:xlink="http://www.w3.org/1999/xlink" version="1.1">
<metadata>
Created by FontForge 20201107 at Tue May 21 02:52:48 2024
 By 
Copyright (c) 2024 by Designova. All rights reserved.
</metadata>
<defs>
<font id="NobelUno-BlackItalic" horiz-adv-x="0" >
  <font-face 
    font-family="Nobel Uno Black Italic"
    font-weight="900"
    font-style="italic"
    font-stretch="normal"
    units-per-em="2048"
    panose-1="0 0 0 0 0 0 0 0 0 0"
    ascent="1638"
    descent="-410"
    x-height="1000"
    cap-height="1400"
    bbox="-228 -501 2376 2654"
    underline-thickness="50"
    underline-position="-125"
    unicode-range="U+000D-A78C"
  />
<missing-glyph horiz-adv-x="1608" 
d="M195 -1l218 1378h1224l-218 -1378h-1224zM425 165h31l13 83h1l49 -83h29l21 129h-31l-13 -81h-2l-51 81h-26zM470 510l98 -114l346 298l257 -298l136 114l-254 301l344 301l-95 114l-351 -299l-250 299l-136 -114l253 -301zM569 213q-4 -28 18 -43q16 -6 28 -6
q31 0 52 23q7 10 10 26q5 30 -18 44q-12 6 -28 6q-37 0 -52 -24q-9 -12 -10 -26zM599 213q2 15 15 26q4 4 13 4q16 0 19 -14q1 -7 0 -16q-3 -17 -14 -25q-10 -2 -14 -2q-17 0 -17 14q-4 5 -2 13zM730 230q-6 -41 23 -59q17 -7 36 -7q38 0 59 26q9 12 12 28l2 17h-59l-3 -21
h31q-3 -16 -20 -22q-5 -4 -18 -4q-24 0 -30 19q-4 7 -2 23q5 28 24 38q15 5 20 5q28 0 28 -21h31q1 18 -15 33q-16 11 -40 11q-40 0 -64 -30q-10 -12 -15 -36zM869 165h29l21 129h-29zM911 133q10 -4 19 -4q19 0 35 14q5 3 10 13l58 107h-31l-34 -71h-2l-10 71h-33l24 -99
l-3 -5q-4 -11 -23 -7zM1021 129h31l9 52q4 -10 15 -14q3 -3 13 -3q27 0 43 23q6 8 10 26q5 31 -14 45q-13 5 -23 5q-18 0 -27 -9q-6 -4 -7 -9h-1l3 18h-30zM1065 200q-1 6 0 13q3 17 14 25q5 5 12 5q17 0 19 -14q2 -10 1 -16q-3 -15 -14 -25q-8 -2 -15 -2q-14 0 -17 14z
M1149 165h28l9 56q2 14 14 18q4 3 11 3q19 0 16 -19l-9 -58h31l10 62q3 24 -14 33q-12 3 -18 3q-25 0 -37 -18h-1l8 49h-27z" />
    <glyph glyph-name=".notdef" horiz-adv-x="1608" 
d="M195 -1l218 1378h1224l-218 -1378h-1224zM425 165h31l13 83h1l49 -83h29l21 129h-31l-13 -81h-2l-51 81h-26zM470 510l98 -114l346 298l257 -298l136 114l-254 301l344 301l-95 114l-351 -299l-250 299l-136 -114l253 -301zM569 213q-4 -28 18 -43q16 -6 28 -6
q31 0 52 23q7 10 10 26q5 30 -18 44q-12 6 -28 6q-37 0 -52 -24q-9 -12 -10 -26zM599 213q2 15 15 26q4 4 13 4q16 0 19 -14q1 -7 0 -16q-3 -17 -14 -25q-10 -2 -14 -2q-17 0 -17 14q-4 5 -2 13zM730 230q-6 -41 23 -59q17 -7 36 -7q38 0 59 26q9 12 12 28l2 17h-59l-3 -21
h31q-3 -16 -20 -22q-5 -4 -18 -4q-24 0 -30 19q-4 7 -2 23q5 28 24 38q15 5 20 5q28 0 28 -21h31q1 18 -15 33q-16 11 -40 11q-40 0 -64 -30q-10 -12 -15 -36zM869 165h29l21 129h-29zM911 133q10 -4 19 -4q19 0 35 14q5 3 10 13l58 107h-31l-34 -71h-2l-10 71h-33l24 -99
l-3 -5q-4 -11 -23 -7zM1021 129h31l9 52q4 -10 15 -14q3 -3 13 -3q27 0 43 23q6 8 10 26q5 31 -14 45q-13 5 -23 5q-18 0 -27 -9q-6 -4 -7 -9h-1l3 18h-30zM1065 200q-1 6 0 13q3 17 14 25q5 5 12 5q17 0 19 -14q2 -10 1 -16q-3 -15 -14 -25q-8 -2 -15 -2q-14 0 -17 14z
M1149 165h28l9 56q2 14 14 18q4 3 11 3q19 0 16 -19l-9 -58h31l10 62q3 24 -14 33q-12 3 -18 3q-25 0 -37 -18h-1l8 49h-27z" />
    <glyph glyph-name=".null" horiz-adv-x="1285" 
 />
    <glyph glyph-name="nonmarkingreturn" horiz-adv-x="682" 
 />
    <glyph glyph-name="CR" unicode="&#xd;" horiz-adv-x="1285" 
 />
    <glyph glyph-name="space" unicode=" " horiz-adv-x="541" 
 />
    <glyph glyph-name="space" unicode="&#xa0;" horiz-adv-x="541" 
 />
    <glyph glyph-name="exclam" unicode="!" horiz-adv-x="542" 
d="M186 420l155 980h262l-155 -980h-262zM115 126q10 62 62 105t117 43t103.5 -43t28.5 -105q-11 -64 -62.5 -108t-116.5 -44t-103.5 44t-28.5 108z" />
    <glyph glyph-name="quotedbl" unicode="&#x22;" horiz-adv-x="958" 
d="M234 878l83 522h209l-83 -522h-209zM806 878l83 522h209l-83 -522h-209z" />
    <glyph glyph-name="numbersign" unicode="#" horiz-adv-x="1702" 
d="M178 0l112 260h-154l127 290h155l134 300h-157l128 290h154l114 260h313l-114 -260h329l112 260h313l-112 -260h155l-128 -290h-154l-134 -300h157l-128 -290h-155l-114 -260h-313l114 260h-328l-112 -260h-314zM732 550h326l133 300h-326z" />
    <glyph glyph-name="dollar" unicode="$" horiz-adv-x="1302" 
d="M543 -18q-160 22 -267.5 103t-134.5 203l310 104q10 -48 79 -83t163 -35q98 0 177 39t88 99q9 56 -53.5 90t-167.5 48q-156 23 -273 73q-254 108 -213 365q27 167 170.5 285t349.5 147l32 204h209l-32 -204q160 -23 268 -105t134 -205l-310 -102q-10 48 -79.5 82
t-164.5 34q-94 2 -174.5 -38t-89.5 -98q-7 -53 21 -80q18 -17 53.5 -29t62 -16.5t84.5 -12.5q146 -21 266 -75q122 -56 181 -147t39 -216q-26 -166 -169.5 -283.5t-349.5 -146.5l-32 -206h-209z" />
    <glyph glyph-name="percent" unicode="%" horiz-adv-x="1727" 
d="M260 0l1066 1400h361l-1066 -1400h-361zM268 1092q15 96 75 171q61 75 147.5 118t178.5 43q94 0 168 -44q73 -45 107.5 -121t19.5 -167q-15 -96 -76 -170q-61 -76 -147 -119t-178 -43q-93 0 -167 44q-73 45 -108 121t-20 167zM477 1092q-9 -55 26 -93.5t92 -38.5
t104 38.5t56 93.5q9 56 -25.5 94t-92.5 38t-104.5 -38t-55.5 -94zM982 306q15 94 78 171q60 75 146 119t177 44q99 0 172 -47q72 -48 105 -124t19 -163q-14 -92 -73 -166q-59 -77 -146 -121.5t-182 -44.5q-96 0 -170 47q-71 47 -105 123t-21 162zM1191 306q-8 -54 27 -93
t92 -39q58 0 105 39t55 93q9 56 -25 95t-93 39q-57 0 -104.5 -39t-56.5 -95z" />
    <glyph glyph-name="ampersand" unicode="&#x26;" horiz-adv-x="1526" 
d="M554 -26q-130 0 -225 62q-96 62 -141.5 163t-26.5 219q20 122 84 205q55 70 224 211q-64 74 -84 130.5t-7 139.5q15 96 77 176q62 78 150 122t182 44q100 0 173 -45q75 -47 110.5 -125t20.5 -172q-13 -82 -53 -140.5t-125 -129.5l180 -204l325 270l-68 -424l-69 -58
l183 -206l-255 -212l-183 206q-170 -141 -254 -184q-92 -48 -218 -48zM474 418q-10 -61 27.5 -102.5t99.5 -41.5q55 0 98 32q26 17 139 112l-181 204q-21 -18 -53.5 -44.5t-52.5 -43.5t-32 -29q-37 -40 -45 -87zM651 1110q-3 -23 2 -35q5 -9 12.5 -18.5t25 -28t25.5 -28.5
l61 48q35 26 41 62q6 38 -17 59t-55 21q-33 0 -61.5 -23t-33.5 -57z" />
    <glyph glyph-name="quotesingle" unicode="'" horiz-adv-x="386" 
d="M227 878l83 522h209l-83 -522h-209z" />
    <glyph glyph-name="parenleft" unicode="(" horiz-adv-x="878" 
d="M431 -112q-93 105 -144 219q-100 224 -50 537q21 135 116 347q71 158 156 271t162 138h313q-80 -36 -201 -224q-88 -137 -152 -283t-80 -249q-24 -158 1 -300q26 -137 78 -255.5t114 -200.5h-313z" />
    <glyph glyph-name="parenright" unicode=")" horiz-adv-x="878" 
d="M97 -112q86 83 172 194q216 276 261 562q22 141 -17 351q-31 162 -78 270t-98 135h313q91 -34 148 -226q39 -130 51.5 -275.5t-5.5 -254.5q-26 -161 -79 -291q-103 -255 -355 -465h-313z" />
    <glyph glyph-name="asterisk" unicode="*" horiz-adv-x="792" 
d="M420 826l-151 118l112 120l-141 44l94 192l141 -46l23 146h209l-23 -146l153 46l34 -192l-154 -44l73 -120l-188 -118l-71 120z" />
    <glyph glyph-name="plus" unicode="+" horiz-adv-x="1236" 
d="M476 100l55 350h-365l48 300h365l55 350h314l-55 -350h366l-48 -300h-366l-55 -350h-314z" />
    <glyph glyph-name="comma" unicode="," horiz-adv-x="609" 
d="M77 -112l118 338h314l-223 -338h-209z" />
    <glyph glyph-name="hyphen" unicode="-" horiz-adv-x="940" 
d="M206 450l48 300h669l-48 -300h-669z" />
    <glyph glyph-name="period" unicode="." horiz-adv-x="544" 
d="M247 -26q-65 0 -103.5 43.5t-28.5 106.5q10 62 62 106t117 44t104.5 -44t29.5 -106q-10 -63 -63 -106.5t-118 -43.5z" />
    <glyph glyph-name="slash" unicode="/" horiz-adv-x="929" 
d="M77 -112l664 1512h314l-665 -1512h-313z" />
    <glyph glyph-name="zero" unicode="0" horiz-adv-x="1298" 
d="M645 -26q-123 0 -219 55.5t-159 157.5q-129 210 -81 513q49 305 243 513q199 213 446 213q124 0 220 -55.5t158 -157.5q128 -213 80 -513q-24 -148 -86.5 -280t-155.5 -233q-94 -102 -208 -157.5t-238 -55.5zM478 700q-29 -183 26.5 -304.5t187.5 -121.5q99 0 170 61
q70 59 115.5 155.5t63.5 209.5q29 187 -27 306.5t-187 119.5q-92 0 -166 -59t-119 -153.5t-64 -213.5z" />
    <glyph glyph-name="one" unicode="1" horiz-adv-x="585" 
d="M95 0l222 1400h314l-222 -1400h-314z" />
    <glyph glyph-name="two" unicode="2" horiz-adv-x="1246" 
d="M137 268q152 83 368 238q187 133 308.5 248t132.5 186q12 78 -35.5 132t-127.5 54q-82 0 -147 -54t-77 -132h-313q21 137 109 248t214 174.5t262 63.5t243 -65q106 -66 156 -177t29 -244q-20 -126 -112 -246q-47 -58 -108 -120q-100 -95 -320 -274h439l-48 -300h-1015z
" />
    <glyph glyph-name="three" unicode="3" horiz-adv-x="1116" 
d="M553 -26q-131 0 -231 62q-102 63 -150 168.5t-28 231.5h313q-11 -68 31 -115t112 -47q71 0 128 47.5t67 114.5q14 88 -52.5 135t-204.5 47l36 228q117 0 188 38t83 112q8 55 -24.5 93.5t-89.5 38.5q-63 0 -120 -39t-65 -93h-313q19 117 99.5 217t198.5 157.5t242 57.5
q123 0 217 -58q96 -59 141.5 -157.5t27.5 -216.5q-12 -76 -56.5 -149t-108.5 -103q70 -28 100.5 -116t14.5 -192q-19 -124 -102 -232q-83 -106 -203 -168t-251 -62z" />
    <glyph glyph-name="four" unicode="4" horiz-adv-x="1296" 
d="M740 0l41 258h-645l47 300l708 842h385l-134 -842h106l-47 -300h-106l-41 -258h-314zM545 558h283l70 438z" />
    <glyph glyph-name="five" unicode="5" horiz-adv-x="1204" 
d="M402 489q15 -123 60 -175.5t141 -52.5q53 0 100.5 20.5t78.5 52.5t52 72t21 80t-15 75q-34 74 -110 100t-153.5 7.5t-132.5 -65.5h-212l215 803h778l-46 -287h-514l-46 -171q1 0 2 1q60 3 63 3q147 -2 257 -58q116 -61 169.5 -173.5t30.5 -257.5q-21 -133 -106.5 -245.5
t-212.5 -178t-264 -65.5q-142 0 -243 65q-74 45 -122.5 116.5t-58.5 155.5z" />
    <glyph glyph-name="six" unicode="6" horiz-adv-x="1186" 
d="M582 -26q-142 0 -249 68q-110 69 -162 182.5t-31 249.5q22 139 110 250l514 676h363l-326 -428q157 -18 259 -114q162 -150 125 -384q-22 -136 -109.5 -251t-218.5 -182t-275 -67zM454 472q-13 -84 38.5 -141t136.5 -57q89 0 159.5 59t83.5 139q14 85 -37 143.5
t-140 58.5q-92 0 -160 -59.5t-81 -142.5z" />
    <glyph glyph-name="seven" unicode="7" horiz-adv-x="1088" 
d="M173 0l669 1100h-613l48 300h977l-48 -300l-671 -1100h-362z" />
    <glyph glyph-name="eight" unicode="8" horiz-adv-x="1183" 
d="M586 -26q-139 0 -240 61q-105 61 -154 163.5t-30 227.5q30 180 184 310q-86 120 -63 266q18 117 97 214t194 153.5t242 56.5q129 0 225 -57q98 -58 145 -154.5t29 -212.5q-23 -145 -146 -266q114 -131 85 -310q-20 -127 -101 -227q-85 -104 -208 -164.5t-259 -60.5z
M489 426q-10 -64 31.5 -108t112.5 -44t126 44t65 108t-30.5 108t-111.5 44t-127 -44t-66 -108zM613 1002q-8 -52 25.5 -88t90.5 -36t102 36t53 88t-25.5 88t-90.5 36t-102 -36t-53 -88z" />
    <glyph glyph-name="nine" unicode="9" horiz-adv-x="1196" 
d="M606 428q-197 22 -306 163.5t-78 334.5q22 136 109.5 251t218.5 182t275 67q143 0 249 -67q110 -69 162 -183t31 -250q-23 -141 -110 -250l-514 -676h-363zM535 928q-14 -85 37 -143.5t140 -58.5q92 0 160 59.5t81 142.5q13 82 -37.5 140t-138.5 58q-89 0 -159 -59
t-83 -139z" />
    <glyph glyph-name="colon" unicode=":" horiz-adv-x="544" 
d="M362 700q-65 0 -103.5 43.5t-28.5 106.5q10 62 62 106t117 44t104.5 -44t29.5 -106q-10 -63 -63 -106.5t-118 -43.5zM115 124q10 62 62 106t117 44t104.5 -44t29.5 -106q-10 -63 -63 -106.5t-118 -43.5t-103.5 43.5t-28.5 106.5z" />
    <glyph glyph-name="semicolon" unicode=";" horiz-adv-x="609" 
d="M77 -112l118 338h314l-223 -338h-209zM294 850q10 62 62.5 106t117.5 44t104.5 -44t29.5 -106q-10 -63 -63 -106.5t-118 -43.5q-66 0 -104.5 43.5t-28.5 106.5z" />
    <glyph glyph-name="less" unicode="&#x3c;" horiz-adv-x="1236" 
d="M1150 64l-1000 284l80 502l1090 286l-49 -312l-858 -224l787 -224z" />
    <glyph glyph-name="equal" unicode="=" horiz-adv-x="1236" 
d="M201 672l48 300h1045l-48 -300h-1045zM131 228l48 300h1045l-48 -300h-1045z" />
    <glyph glyph-name="greater" unicode="&#x3e;" horiz-adv-x="1236" 
d="M107 76l49 312l855 212l-787 212l49 312l1002 -274l-80 -502z" />
    <glyph glyph-name="question" unicode="?" horiz-adv-x="1238" 
d="M625 -26q-65 0 -103.5 44t-28.5 108q10 62 62 105t117 43t103.5 -43t28.5 -105q-11 -64 -62.5 -108t-116.5 -44zM245 946q21 135 106 241q86 110 211 174.5t262 64.5q138 0 244 -65q106 -66 155.5 -175.5t28.5 -239.5q-22 -136 -109 -251t-218 -177q-37 -17 -61.5 -48.5
t-30.5 -69.5l-9 -57h-313l9 57q19 121 99 222.5t199 159.5q48 23 79.5 66.5t40.5 97.5q12 76 -35 128t-127 52t-143 -52t-75 -128h-313z" />
    <glyph glyph-name="at" unicode="@" horiz-adv-x="1998" 
d="M954 -286q-187 0 -344 63.5t-260.5 173.5t-149.5 266t-18 333q28 178 124.5 338.5t235.5 276t317 183.5t364 68q124 0 236.5 -30.5t202.5 -87t161.5 -135t112.5 -175t57.5 -207.5t-4.5 -231q-35 -218 -162 -374q-137 -168 -324 -168q-66 0 -132 27q-69 28 -113.5 73
t-51.5 97q-92 -53 -202 -53q-113 0 -200 54q-87 55 -128 146t-24 198q18 110 88 201q71 91 174 144t216 53q53 0 113.5 -10.5t91.5 -28.5l3 18l222 -50l-80 -503q-11 -66 50 -66q49 0 90.5 77t55.5 165q25 156 -34 286.5t-182.5 205t-283.5 74.5q-162 0 -310 -75.5
t-247 -205.5t-124 -285q-37 -231 106 -383.5t400 -152.5zM906 550q-12 -75 35 -127t125 -52t140.5 52t74.5 127t-34.5 127t-124.5 52q-79 0 -141.5 -51.5t-74.5 -127.5z" />
    <glyph glyph-name="A" unicode="A" horiz-adv-x="1605" 
d="M95 0l753 1400h353l308 -1400h-331l-66 295h-526l-159 -295h-332zM747 595h297l-87 389z" />
    <glyph glyph-name="B" unicode="B" horiz-adv-x="1352" 
d="M135 0l222 1400h624q184 0 289.5 -105.5t77.5 -286.5q-27 -173 -175 -279q85 -50 124 -136.5t21 -200.5q-19 -121 -93 -211.5t-180 -136t-230 -44.5h-680zM489 254h333q82 0 148 52t79 133q13 82 -36.5 126t-134.5 44h-333zM585 859h272q64 0 115.5 42t61.5 107
t-28 100.5t-104 35.5h-272z" />
    <glyph glyph-name="C" unicode="C" horiz-adv-x="1537" 
d="M805 -31q-212 0 -360.5 93.5t-210.5 259.5t-28 378q25 158 98 293.5t180.5 232t250.5 151t302 54.5q204 0 348.5 -86t210.5 -240l-302 -148q-43 76 -121.5 118t-185.5 42q-183 0 -314 -116.5t-160 -300.5t65 -300.5t277 -116.5q107 0 198.5 42t158.5 118l256 -148
q-115 -154 -287 -240t-376 -86z" />
    <glyph glyph-name="D" unicode="D" horiz-adv-x="1426" 
d="M135 0l222 1400h500q213 0 361.5 -89.5t211.5 -248.5t31 -362q-24 -152 -96 -281.5t-179 -222t-249.5 -144.5t-301.5 -52h-500zM497 300h186q183 0 313 112t158 288t-67 288t-278 112h-186z" />
    <glyph glyph-name="E" unicode="E" horiz-adv-x="1183" 
d="M135 0l222 1400h932l-48 -300h-618l-34 -218h477l-48 -300h-477l-44 -282h618l-48 -300h-932z" />
    <glyph glyph-name="F" unicode="F" horiz-adv-x="1103" 
d="M135 0l222 1400h932l-48 -300h-618l-34 -218h477l-48 -300h-477l-92 -582h-314z" />
    <glyph glyph-name="G" unicode="G" horiz-adv-x="1495" 
d="M805 -31q-212 0 -360.5 93.5t-210.5 259.5t-28 378q25 158 98 293.5t180.5 232t250.5 151t302 54.5q204 0 348.5 -86t210.5 -240l-302 -148q-43 76 -121.5 118t-185.5 42q-183 0 -314 -116.5t-160 -300.5t65 -300.5t277 -116.5q167 0 290 98l25 157h-408l48 300h722
l-92 -577q-115 -138 -279 -215t-356 -77z" />
    <glyph glyph-name="H" unicode="H" horiz-adv-x="1453" 
d="M135 0l222 1400h314l-79 -500h555l79 500h313l-222 -1400h-313l95 600h-555l-95 -600h-314z" />
    <glyph glyph-name="I" unicode="I" horiz-adv-x="644" 
d="M165 0l222 1400h313l-222 -1400h-313z" />
    <glyph glyph-name="J" unicode="J" horiz-adv-x="1380" 
d="M646 -26q-177 0 -296 82q-122 82 -175.5 220.5t-27.5 307.5h313q-21 -137 42.5 -223.5t190.5 -86.5q129 0 219 85.5t111 224.5l130 816h313l-130 -816q-27 -171 -123 -309.5t-245 -219.5t-322 -81z" />
    <glyph glyph-name="K" unicode="K" horiz-adv-x="1330" 
d="M135 0l222 1400h314l-76 -476l492 476h409l-683 -660l461 -740h-409l-294 506l-49 -48l-73 -458h-314z" />
    <glyph glyph-name="L" unicode="L" horiz-adv-x="1183" 
d="M135 0l222 1400h314l-174 -1100h618l-48 -300h-932z" />
    <glyph glyph-name="M" unicode="M" horiz-adv-x="1714" 
d="M135 0l222 1400h394l196 -826l460 826h393l-222 -1400h-313l120 759l-1 -3l-418 -756h-218l-179 756l-120 -756h-314z" />
    <glyph glyph-name="N" unicode="N" horiz-adv-x="1459" 
d="M135 0l222 1400h339l399 -858l136 858h314l-222 -1400h-339l-399 858l-136 -858h-314z" />
    <glyph glyph-name="O" unicode="O" horiz-adv-x="1621" 
d="M805 -31q-212 0 -360.5 93.5t-210.5 259.5t-28 378q25 158 98 293.5t180.5 232t250.5 151t302 54.5q213 0 361 -93.5t209.5 -259.5t28.5 -378q-25 -158 -98 -293.5t-180.5 -232t-250.5 -151t-302 -54.5zM513 700q-29 -184 65 -300.5t277 -116.5t313.5 116.5t160.5 300.5
q29 184 -65 300.5t-277 116.5t-314 -116.5t-160 -300.5z" />
    <glyph glyph-name="P" unicode="P" horiz-adv-x="1284" 
d="M135 0l222 1400h609q91 0 165 -28t127.5 -83t75 -145.5t2.5 -207.5v-1q-19 -117 -68.5 -207.5t-120.5 -145.5t-154 -83t-174 -28h-295l-75 -471h-314zM565 735h256q72 0 130.5 51.5t74.5 152.5v1q16 101 -26 152.5t-114 51.5h-256z" />
    <glyph glyph-name="Q" unicode="Q" horiz-adv-x="1680" 
d="M1231 83q-191 -114 -426 -114q-212 0 -360.5 93.5t-210.5 259.5t-28 378q25 158 98 293.5t180.5 232t250.5 151t302 54.5q213 0 361 -93.5t209.5 -259.5t28.5 -378q-36 -223 -160 -393l131 -147l-254 -212zM513 700q-29 -184 65 -300.5t277 -116.5q89 0 171 30l-111 124
l255 212l104 -115q40 77 55 166q29 184 -65 300.5t-277 116.5t-314 -116.5t-160 -300.5z" />
    <glyph glyph-name="R" unicode="R" horiz-adv-x="1365" 
d="M135 0l222 1400h609q91 0 165 -28t127.5 -83t75 -145.5t2.5 -207.5v-1q-24 -155 -102 -260t-191 -157l206 -518h-362l-187 471h-176l-75 -471h-314zM565 735h256q72 0 130.5 51.5t74.5 152.5v1q16 101 -26 152.5t-114 51.5h-256z" />
    <glyph glyph-name="S" unicode="S" horiz-adv-x="1348" 
d="M670 -26q-197 0 -338 85t-172 225l289 96q12 -55 87.5 -92.5t177.5 -37.5q112 0 195.5 45t93.5 111q7 46 -26 78q-61 54 -214 78q-157 23 -275 72q-254 107 -215 359q21 129 114 227q93 97 229 151t284 54q197 0 337 -85.5t171 -226.5l-289 -94q-11 54 -86 91t-177 37
q-105 2 -192.5 -42.5t-98.5 -111.5q-9 -59 22 -89q29 -27 80.5 -40.5t139.5 -25.5q145 -21 265 -74q261 -119 223 -358q-19 -129 -113 -227q-92 -97 -227.5 -151t-284.5 -54z" />
    <glyph glyph-name="T" unicode="T" horiz-adv-x="1340" 
d="M513 0l174 1100h-418l48 300h1149l-48 -300h-418l-174 -1100h-313z" />
    <glyph glyph-name="U" unicode="U" horiz-adv-x="1461" 
d="M727 -26q-176 0 -297 82q-122 82 -175.5 221t-27.5 307l130 816h314l-130 -816q-21 -137 42 -223.5t191 -86.5q129 0 218.5 85.5t110.5 224.5l130 816h314l-130 -816q-27 -171 -123 -309.5t-245 -219.5t-322 -81z" />
    <glyph glyph-name="V" unicode="V" horiz-adv-x="1591" 
d="M593 0l-309 1400h332l233 -1056l570 1056h331l-752 -1400h-405z" />
    <glyph glyph-name="W" unicode="W" horiz-adv-x="1964" 
d="M436 0l-152 1400h323l92 -848l360 848h289l90 -848l361 848h324l-595 -1400h-352l-80 726l-307 -726h-353z" />
    <glyph glyph-name="X" unicode="X" horiz-adv-x="1610" 
d="M75 0l647 704l-419 696h387l266 -442l407 442h386l-639 -696l424 -704h-390l-269 448l-412 -448h-388z" />
    <glyph glyph-name="Y" unicode="Y" horiz-adv-x="1480" 
d="M583 0l100 630l-386 770h369l225 -444l365 444h370l-630 -770l-100 -630h-313z" />
    <glyph glyph-name="Z" unicode="Z" horiz-adv-x="1373" 
d="M95 0l48 300l885 800h-759l48 300h1182l-48 -300l-884 -800h758l-48 -300h-1182z" />
    <glyph glyph-name="bracketleft" unicode="[" horiz-adv-x="749" 
d="M117 -112l240 1512h498l-48 -300h-184l-144 -912h184l-48 -300h-498z" />
    <glyph glyph-name="backslash" unicode="\" horiz-adv-x="926" 
d="M498 -112l-181 1512h313l182 -1512h-314z" />
    <glyph glyph-name="bracketright" unicode="]" horiz-adv-x="750" 
d="M97 -112l48 300h186l144 912h-186l48 300h499l-240 -1512h-499z" />
    <glyph glyph-name="asciicircum" unicode="^" horiz-adv-x="1123" 
d="M253 1000l350 650h439l143 -650h-335l-75 348l-188 -348h-334z" />
    <glyph glyph-name="underscore" unicode="_" horiz-adv-x="1316" 
d="M117 -112l48 300h1045l-48 -300h-1045z" />
    <glyph glyph-name="grave" unicode="`" horiz-adv-x="857" 
d="M705 2310l-144 288h314l39 -288h-209z" />
    <glyph glyph-name="a" unicode="a" horiz-adv-x="1297" 
d="M586 -26q-231 0 -349.5 147t-82.5 379q37 232 202.5 379t396.5 147q89 0 162 -34t115 -94l16 102h313l-158 -1000h-323l17 109q-53 -62 -138.5 -98.5t-170.5 -36.5zM444 500q-16 -101 36 -164.5t153 -63.5q100 0 172 63.5t88 164.5t-36 164.5t-152 63.5
q-101 0 -173 -63.5t-88 -164.5z" />
    <glyph glyph-name="b" unicode="b" horiz-adv-x="1338" 
d="M743 -26q-85 0 -159 36.5t-109 98.5l-17 -109h-323l238 1500h314l-96 -602q60 60 145 94t174 34q231 0 349.5 -147t81.5 -379q-36 -232 -201.5 -379t-396.5 -147zM602 500q-16 -101 35.5 -164.5t152.5 -63.5t172.5 63.5t87.5 164.5t-35.5 164.5t-152.5 63.5t-172.5 -63.5
t-87.5 -164.5z" />
    <glyph glyph-name="c" unicode="c" horiz-adv-x="1133" 
d="M586 -26q-231 0 -349.5 147t-82.5 379q37 232 202.5 379t396.5 147q163 0 273 -76.5t148 -209.5l-285 -138q-16 59 -64 92.5t-120 33.5q-101 0 -173 -63.5t-88 -164.5t36 -164.5t153 -63.5q72 0 130.5 33.5t93.5 92.5l241 -138q-81 -133 -215 -209.5t-297 -76.5z" />
    <glyph glyph-name="d" unicode="d" horiz-adv-x="1337" 
d="M586 -26q-231 0 -349.5 147t-82.5 379q37 232 202.5 379t396.5 147q89 0 162 -34t115 -94l96 602h313l-238 -1500h-323l17 109q-53 -62 -138.5 -98.5t-170.5 -36.5zM444 500q-16 -101 36 -164.5t153 -63.5q100 0 172 63.5t88 164.5t-36 164.5t-152 63.5
q-101 0 -173 -63.5t-88 -164.5z" />
    <glyph glyph-name="e" unicode="e" horiz-adv-x="1181" 
d="M882 621q-20 50 -65.5 78.5t-111.5 28.5q-134 0 -212 -107h389zM154 500q37 232 202.5 379t396.5 147t349.5 -147t81.5 -379l-15 -99h-721q15 -60 63.5 -94.5t121.5 -34.5q117 0 193 84l241 -143q-83 -112 -208 -175.5t-273 -63.5q-231 0 -349.5 147t-82.5 379z" />
    <glyph glyph-name="f" unicode="f" horiz-adv-x="889" 
d="M218 0l111 700h-153l47 300h153l29 182q15 95 77 172q62 79 150.5 124.5t186.5 45.5q75 0 141.5 -29.5t110.5 -88.5l-260 -212q-3 14 -14.5 22t-24.5 8q-19 0 -34.5 -12t-18.5 -30l-29 -182h269l-47 -300h-269l-111 -700h-314z" />
    <glyph glyph-name="g" unicode="g" horiz-adv-x="1337" 
d="M363 -44q21 -73 74 -113.5t131 -40.5q123 0 208.5 48.5t99.5 139.5l19 119q-53 -62 -138.5 -98.5t-170.5 -36.5q-231 0 -349.5 147t-82.5 379q37 232 202.5 379t396.5 147q89 0 162 -34t115 -94l16 102h313l-160 -1010q-23 -147 -122.5 -260t-242.5 -171.5t-304 -58.5
q-172 0 -300 90.5t-172 242.5zM444 500q-16 -101 36 -164.5t153 -63.5q100 0 172 63.5t88 164.5t-36 164.5t-152 63.5q-101 0 -173 -63.5t-88 -164.5z" />
    <glyph glyph-name="h" unicode="h" horiz-adv-x="1213" 
d="M136 0l237 1500h314l-89 -563q125 91 275 91q114 0 197 -52q85 -53 125 -142t23 -195l-101 -639h-314l88 555q11 72 -32 120.5t-117 48.5q-75 0 -134 -48.5t-70 -120.5l-88 -555h-314z" />
    <glyph glyph-name="i" unicode="i" horiz-adv-x="571" 
d="M123 0l158 1000h314l-158 -1000h-314zM338 1393q10 62 62 106t117 44t104.5 -44t29.5 -106q-10 -63 -63 -106.5t-118 -43.5t-103.5 43.5t-28.5 106.5z" />
    <glyph glyph-name="j" unicode="j" horiz-adv-x="556" 
d="M-97 -200q75 0 135.5 49.5t72.5 122.5l162 1028h313l-162 -1028q-21 -132 -104 -237q-85 -109 -207 -172t-257 -63zM333 1393q10 62 62 106t117 44t104.5 -44t29.5 -106q-10 -63 -63 -106.5t-118 -43.5t-103.5 43.5t-28.5 106.5z" />
    <glyph glyph-name="k" unicode="k" horiz-adv-x="1234" 
d="M135 0l238 1500h314l-130 -818l328 318h410l-425 -412l262 -588h-361l-155 344l-133 -128l-34 -216h-314z" />
    <glyph glyph-name="l" unicode="l" horiz-adv-x="585" 
d="M135 0l238 1500h314l-238 -1500h-314z" />
    <glyph glyph-name="m" unicode="m" horiz-adv-x="1880" 
d="M135 0l158 1000h314l-10 -63q125 91 275 91q103 0 183.5 -45t124.5 -122q69 77 163.5 122t196.5 45q114 0 196 -52q85 -54 125.5 -142.5t23.5 -194.5l-101 -639h-314l88 555q11 71 -32.5 120t-117.5 49t-133.5 -49t-70.5 -120l-88 -555h-314l88 555q11 71 -32 120
t-117 49t-133.5 -49t-70.5 -120l-88 -555h-314z" />
    <glyph glyph-name="n" unicode="n" horiz-adv-x="1213" 
d="M136 0l157 1000h314l-9 -63q125 91 275 91q114 0 197 -52q85 -53 125 -142t23 -195l-101 -639h-314l88 555q11 72 -32 120.5t-117 48.5q-75 0 -134 -48.5t-70 -120.5l-88 -555h-314z" />
    <glyph glyph-name="o" unicode="o" horiz-adv-x="1181" 
d="M586 -26q-231 0 -349.5 147t-82.5 379q37 232 202.5 379t396.5 147t349.5 -147t81.5 -379q-36 -232 -201.5 -379t-396.5 -147zM444 500q-16 -101 36 -164.5t153 -63.5q100 0 172 63.5t88 164.5t-36 164.5t-152 63.5q-101 0 -173 -63.5t-88 -164.5z" />
    <glyph glyph-name="p" unicode="p" horiz-adv-x="1338" 
d="M56 -500l237 1500h323l-17 -109q54 62 140 98.5t171 36.5q231 0 349.5 -147t81.5 -379q-36 -232 -201.5 -379t-396.5 -147q-89 0 -162.5 34t-115.5 94l-95 -602h-314zM602 500q-16 -101 35.5 -164.5t152.5 -63.5t172.5 63.5t87.5 164.5t-35.5 164.5t-152.5 63.5
t-172.5 -63.5t-87.5 -164.5z" />
    <glyph glyph-name="q" unicode="q" horiz-adv-x="1337" 
d="M904 102q-60 -60 -144.5 -94t-173.5 -34q-231 0 -349.5 147t-82.5 379q37 232 202.5 379t396.5 147q85 0 158.5 -36.5t107.5 -98.5l17 109h323l-237 -1500h-313zM444 500q-16 -101 36 -164.5t153 -63.5q100 0 172 63.5t88 164.5t-36 164.5t-152 63.5q-101 0 -173 -63.5
t-88 -164.5z" />
    <glyph glyph-name="r" unicode="r" horiz-adv-x="928" 
d="M884 703q-80 37 -153 27.5t-127.5 -58.5t-65.5 -117l-88 -555h-314l157 1000h314l-9 -63q98 71 216 87t235 -35z" />
    <glyph glyph-name="s" unicode="s" horiz-adv-x="986" 
d="M530 239q-84 0 -122 27.5t-43 80.5l-259 -89q6 -131 116.5 -209t264.5 -78h1q105 0 205 39.5t168 110.5q78 76 94 184q16 100 -33 172.5t-141 113.5q-95 38 -170 51q-101 17 -123 27q-29 14 -25 38q5 32 52 49t100 17q84 0 122 -27.5t43 -80.5l259 89q-6 131 -116.5 209
t-264.5 78q-104 0 -203.5 -39t-169.5 -110q-77 -83 -92 -185q-17 -108 30 -179.5t141 -107.5q68 -30 173 -49q29 -5 49.5 -9t47.5 -12t40 -19.5t11 -25.5q-5 -33 -52.5 -49.5t-101.5 -16.5h-1z" />
    <glyph glyph-name="t" unicode="t" horiz-adv-x="788" 
d="M589 358q-5 -31 10 -48t42.5 -19.5t58.5 2.5t62 16l-48 -307q-40 -8 -149 -8q-169 0 -246 68.5t-56 205.5l21 129l49 303h-136l47 300h136l50 314h313l-50 -314h178l-47 -300h-178z" />
    <glyph glyph-name="u" unicode="u" horiz-adv-x="1172" 
d="M497 -26q-110 0 -196 53t-125.5 141t-23.5 195l101 637h313l-87 -553q-11 -72 32.5 -120.5t117.5 -48.5q75 0 134 48.5t70 120.5l87 553h313l-157 -1000h-314l10 65q-128 -91 -275 -91z" />
    <glyph glyph-name="v" unicode="v" horiz-adv-x="1317" 
d="M455 0l-222 1000h334l145 -656l353 656h334l-539 -1000h-405z" />
    <glyph glyph-name="w" unicode="w" horiz-adv-x="1852" 
d="M423 0l-190 1000h307l107 -562l284 562h305l106 -562l284 562h308l-507 -1000h-307l-106 562l-283 -562h-308z" />
    <glyph glyph-name="x" unicode="x" horiz-adv-x="1342" 
d="M95 0l462 502l-301 498h387l146 -242l225 242h386l-456 -498l302 -502h-387l-151 248l-227 -248h-386z" />
    <glyph glyph-name="y" unicode="y" horiz-adv-x="1284" 
d="M204 -500l267 500l-218 1000h343l97 -590l319 590h334l-810 -1500h-332z" />
    <glyph glyph-name="z" unicode="z" horiz-adv-x="1083" 
d="M95 0l48 300l502 400h-439l47 300h892l-47 -300l-502 -400h439l-48 -300h-892z" />
    <glyph glyph-name="braceleft" unicode="{" horiz-adv-x="889" 
d="M623 -112q-99 0 -176 47q-77 48 -113.5 128t-20.5 175l38 244q4 23 -15 42t-43 31.5t-42.5 35.5t-13.5 53q4 25 29.5 48.5t54 37.5t53.5 34t28 40l39 246q15 93 77 176q63 81 154 127.5t191 46.5h132l-48 -300h-132q-22 0 -39 -14t-21 -36l-40 -256q-8 -33 -32 -54
q-5 -5 -20 -18t-21.5 -19.5t-16 -17.5t-14 -21t-6.5 -20q-5 -30 13 -51q4 -5 14.5 -17.5t15 -19t10.5 -17.5t8 -21.5t1 -23.5l-40 -256q-4 -22 8.5 -36t35.5 -14h132l-48 -300h-132z" />
    <glyph glyph-name="bar" unicode="|" horiz-adv-x="625" 
d="M107 -302l270 1702h314l-270 -1702h-314z" />
    <glyph glyph-name="braceright" unicode="}" horiz-adv-x="888" 
d="M97 -112l48 300h132q22 0 39 14t21 36l40 256q8 34 32 55q6 5 19.5 17t20.5 18.5t16.5 17t14 21t6.5 21.5q5 29 -13 50q-3 5 -14 18t-15 19.5t-10.5 18t-8 22t-0.5 22.5l40 256q4 22 -9 36t-35 14h-132l48 300h132q99 0 176 -47q76 -49 112 -129t21 -174l-39 -246
q-2 -16 10 -32t30.5 -29t36.5 -27t29.5 -32.5t8.5 -39.5q-5 -30 -30.5 -53t-53.5 -35.5t-53 -31.5t-29 -42l-38 -244q-16 -95 -77 -176q-63 -81 -154 -127.5t-190 -46.5h-132z" />
    <glyph glyph-name="asciitilde" unicode="~" horiz-adv-x="1434" 
d="M1114 384q-82 0 -190 38t-209 76t-165 38q-36 0 -51.5 -23.5t-22.5 -62.5l-305 8q1 93 57 176q58 83 146.5 132.5t186.5 49.5q64 0 137 -25t128 -55t121.5 -55t119.5 -25q65 0 79 90l306 -8q-3 -95 -46 -174q-43 -83 -119 -131.5t-173 -48.5z" />
    <glyph glyph-name="exclamdown" unicode="&#xa1;" horiz-adv-x="516" 
d="M56 -400l155 980h262l-155 -980h-262zM233 874q10 65 62.5 108.5t116.5 43.5q66 0 104 -43.5t28 -108.5q-9 -61 -61.5 -104.5t-118.5 -43.5q-64 0 -102 43.5t-29 104.5z" />
    <glyph glyph-name="cent" unicode="&#xa2;" horiz-adv-x="1164" 
d="M548 208q-116 24 -199 95q-86 72 -124 175.5t-19 223.5q20 122 91 225q72 104 178.5 174t228.5 93l33 206h209l-33 -206q106 -21 185.5 -81.5t121.5 -150.5l-294 -150q-23 42 -67 67t-97 25q-88 0 -158.5 -59t-84.5 -143q-13 -85 39 -144.5t140 -59.5q53 0 105 25t87 67
l248 -150q-72 -89 -171 -150t-210 -82l-33 -208h-209z" />
    <glyph glyph-name="sterling" unicode="&#xa3;" horiz-adv-x="1292" 
d="M167 300q109 0 209 46q84 40 77 98h-264l32 200h104l-11 15q-93 137 -76 241q23 143 115.5 264t230 191.5t287.5 70.5q113 0 208.5 -41.5t158 -112t90.5 -167.5t11 -205h-314q15 95 -43.5 160.5t-158.5 65.5t-178.5 -65.5t-93.5 -160.5q-11 -68 17 -123t88 -125l7 -8h373
l-32 -200h-243q3 -30 -2 -68q-3 -16 -8 -32t-9.5 -28t-5.5 -16h481l-48 -300h-1050z" />
    <glyph glyph-name="currency" unicode="&#xa4;" horiz-adv-x="1121" 
d="M283 255l-125 142l158 132q-32 80 -17.5 171t73.5 171l-118 134l170 140l117 -132q90 44 186.5 44.5t174.5 -42.5l157 130l125 -140l-156 -130q35 -82 20.5 -175t-74.5 -175l114 -128l-170 -142l-113 128q-95 -45 -191 -44.5t-174 46.5zM507 699q-11 -68 30 -114.5
t111 -45.5q73 1 126.5 47.5t64.5 112.5q10 68 -30 112t-110 46q-72 1 -127 -46t-65 -112z" />
    <glyph glyph-name="yen" unicode="&#xa5;" horiz-adv-x="1506" 
d="M596 0l20 124h-224l31 200h224l11 66h-224l31 200h224l7 40l-386 770h369l225 -444l365 444h370l-630 -770l-7 -40h224l-31 -200h-224l-11 -66h224l-31 -200h-224l-20 -124h-313z" />
    <glyph glyph-name="brokenbar" unicode="&#xa6;" horiz-adv-x="585" 
d="M238 650l119 750h314l-119 -750h-314zM87 -302l119 750h314l-119 -750h-314z" />
    <glyph glyph-name="section" unicode="&#xa7;" horiz-adv-x="1187" 
d="M520 -356q-122 0 -218 48t-150 138l269 140q47 -65 113 -72q126 -10 138 72q3 19 -9 33t-35.5 22t-47 12.5t-51.5 6.5q-107 11 -184 80t-112 170t-19 206q16 101 70.5 190.5t135.5 153.5q-57 78 -41 178q17 104 83 178q67 74 162.5 115t199.5 41q124 0 220 -48t148 -138
l-268 -140q-45 65 -112 72q-126 10 -139 -72q-5 -29 19 -42q26 -16 118 -30q110 -19 190 -84t114.5 -161.5t15.5 -212.5q-32 -206 -207 -342q60 -79 44 -180q-16 -102 -85 -178q-66 -74 -162 -115t-200 -41zM488 500q-14 -88 32.5 -143t135.5 -55q69 0 128.5 60.5
t71.5 137.5q14 90 -33 144t-141 54q-63 0 -123 -62.5t-71 -135.5z" />
    <glyph glyph-name="dieresis" unicode="&#xa8;" horiz-adv-x="1606" 
d="M1392 2264q-67 0 -106 43t-29 107q11 63 63 106.5t119 43.5t105.5 -43.5t27.5 -106.5q-10 -64 -61.5 -107t-118.5 -43zM797 2414q11 63 63.5 106.5t119.5 43.5q66 0 104.5 -43.5t27.5 -106.5q-10 -64 -61.5 -107t-117.5 -43q-68 0 -107 43t-29 107z" />
    <glyph glyph-name="copyright" unicode="&#xa9;" horiz-adv-x="2074" 
d="M976 -374q-193 0 -356 70.5t-269.5 191t-154 287t-18.5 351.5q24 148 93 285.5t173 248t232.5 193.5t279.5 128t305 45q194 0 357.5 -70.5t270 -190t154 -286.5t18.5 -352t-129.5 -352t-245 -287.5t-330.5 -191t-380 -70.5zM491 526q-20 -125 12.5 -237t104.5 -191
t180 -125.5t235 -46.5q174 0 331.5 81t262 219t130.5 300q26 164 -35.5 302t-193.5 218t-305 80q-174 0 -331.5 -81t-261 -218.5t-129.5 -300.5zM596 526q23 144 112.5 266t220.5 192t273 70q126 0 226.5 -56t158.5 -154l-305 -146q-51 56 -128 56q-89 0 -159.5 -67
t-85.5 -160q-14 -94 35.5 -160.5t138.5 -66.5q74 0 144 54l259 -146q-89 -96 -207.5 -152t-243.5 -56q-142 0 -252 71q-109 72 -159 192t-28 263z" />
    <glyph glyph-name="ordfeminine" unicode="&#xaa;" horiz-adv-x="882" 
d="M509 732q-147 0 -222 93.5t-52 241.5q23 147 128 240.5t252 93.5q56 0 102.5 -22t73.5 -60l10 65h199l-100 -635h-205l11 69q-35 -39 -89.5 -62.5t-107.5 -23.5zM419 1067q-10 -64 22.5 -104.5t97.5 -40.5q64 0 109.5 40.5t55.5 104.5q10 63 -23 103.5t-96 40.5
q-65 0 -110.5 -40t-55.5 -104z" />
    <glyph glyph-name="guillemotleft" unicode="&#xab;" horiz-adv-x="1665" 
d="M480 261l-260 340l368 338h313l-365 -338l257 -340h-313zM1007 601l368 338h313l-365 -338l257 -340h-313z" />
    <glyph glyph-name="logicalnot" unicode="&#xac;" horiz-adv-x="1121" 
d="M755 275l55 350h-616l48 300h930l-103 -650h-314z" />
    <glyph glyph-name="uni00AD" unicode="&#xad;" horiz-adv-x="957" 
d="M223 450l48 300h669l-48 -300h-669z" />
    <glyph glyph-name="registered" unicode="&#xae;" horiz-adv-x="1273" 
d="M693 364q-115 0 -212 42t-160.5 113.5t-92 171.5t-10.5 211q23 147 117 270.5t234 194.5t294 71q156 0 274 -72.5t172 -195.5t31 -268q-24 -149 -119.5 -273t-235.5 -194.5t-292 -70.5zM437 902q-15 -93 20 -165q35 -76 105.5 -119.5t163.5 -43.5q94 0 180 44
q86 45 143 119.5t71 164.5q14 91 -19 164q-35 75 -106.5 118.5t-165.5 43.5q-93 0 -178 -44q-85 -45 -142.5 -119t-71.5 -163zM593 698l69 440h182q60 0 94.5 -41.5t25.5 -100.5q-6 -39 -30 -71.5t-59 -50.5l80 -176h-132l-72 156h-19l-24 -156h-115zM750 964h67
q12 0 21 9.5t11 22.5q2 14 -4 23t-18 9h-67z" />
    <glyph glyph-name="macron" unicode="&#xaf;" horiz-adv-x="1261" 
d="M551 1730l35 220h706l-35 -220h-706z" />
    <glyph glyph-name="degree" unicode="&#xb0;" horiz-adv-x="1096" 
d="M651 648q-130 0 -222 61q-93 60 -137 159t-26 212q18 115 94 216q78 100 190.5 158t236.5 58q130 0 223 -60q92 -61 135.5 -160t25.5 -212q-19 -122 -98 -221q-78 -98 -189.5 -154.5t-232.5 -56.5zM579 1080q-9 -54 26.5 -93t92.5 -39t103.5 38.5t55.5 93.5
q9 56 -25.5 94t-91.5 38q-58 0 -105 -38t-56 -94z" />
    <glyph glyph-name="plusminus" unicode="&#xb1;" horiz-adv-x="1236" 
d="M837 400h-314l56 350h-365l47 300h365l56 350h314l-56 -350h366l-47 -300h-366zM95 0l48 300h1045l-48 -300h-1045z" />
    <glyph glyph-name="acute" unicode="&#xb4;" horiz-adv-x="739" 
d="M452 2310l128 288h314l-233 -288h-209z" />
    <glyph glyph-name="uni00B5" unicode="&#xb5;" horiz-adv-x="1245" 
d="M19 -432l226 1432h313l-79 -500q-16 -103 36 -170.5t154 -67.5q96 0 162 63.5t83 174.5l79 500h314l-158 -1000h-314l15 92q-130 -120 -283 -120q-85 0 -167 28l-68 -432h-313z" />
    <glyph glyph-name="paragraph" unicode="&#xb6;" horiz-adv-x="1242" 
d="M564 718q-99 0 -172 46q-74 47 -109 124.5t-20 171.5t75 171q61 78 149 123.5t185 45.5h313l-270 -1702h-313zM785 -302l270 1702h313l-270 -1702h-313z" />
    <glyph glyph-name="periodcentered" unicode="&#xb7;" horiz-adv-x="504" 
d="M322 450q-65 0 -103.5 43.5t-28.5 106.5q10 62 62.5 106t117.5 44t104 -44t29 -106q-10 -63 -63 -106.5t-118 -43.5z" />
    <glyph glyph-name="cedilla" unicode="&#xb8;" horiz-adv-x="1325" 
d="M597 -381q-82 -20 -147 19t-74 114l158 39q2 -15 15 -23t31 -4q16 4 27 18t9 30q-3 28 -45 28h-153l199 265l125 -76l-48 -61q73 -39 80 -118q8 -76 -43 -143.5t-134 -87.5z" />
    <glyph glyph-name="ordmasculine" unicode="&#xba;" horiz-adv-x="799" 
d="M507 735q-146 0 -221 93t-52 240t128 239.5t251 92.5q147 0 221.5 -92.5t51.5 -239.5t-127.5 -240t-251.5 -93zM418 1068q-10 -64 22.5 -104.5t96.5 -40.5t109.5 40.5t55.5 104.5t-22.5 104t-96.5 40t-109.5 -40.5t-55.5 -103.5z" />
    <glyph glyph-name="guillemotright" unicode="&#xbb;" horiz-adv-x="1685" 
d="M933 261l365 340l-257 338h313l260 -338l-368 -340h-313zM146 261l365 340l-257 338h313l260 -338l-368 -340h-313z" />
    <glyph glyph-name="questiondown" unicode="&#xbf;" horiz-adv-x="1211" 
d="M731 1026q65 0 103 -44t28 -108q-10 -62 -62 -105t-117 -43t-103.5 43t-28.5 105q11 64 63 108t117 44zM104 54q21 136 108 251t218 177q37 17 61.5 48.5t30.5 69.5l9 57h313l-9 -57q-19 -120 -98 -222t-199 -160q-48 -23 -80 -66.5t-40 -97.5q-13 -76 34 -128t127 -52
t143 52t76 128h313q-21 -133 -107 -241q-86 -111 -210.5 -175t-261.5 -64q-140 0 -244 65q-106 66 -155.5 175.5t-28.5 239.5z" />
    <glyph glyph-name="Agrave" unicode="&#xc0;" horiz-adv-x="1597" 
d="M87 0l753 1400h353l308 -1400h-331l-66 295h-526l-159 -295h-332zM739 595h297l-87 389zM834 1998h314l39 -288h-209z" />
    <glyph glyph-name="Aacute" unicode="&#xc1;" horiz-adv-x="1597" 
d="M87 0l753 1400h353l308 -1400h-331l-66 295h-526l-159 -295h-332zM739 595h297l-87 389zM936 1710l128 288h314l-233 -288h-209z" />
    <glyph glyph-name="Acircumflex" unicode="&#xc2;" horiz-adv-x="1597" 
d="M87 0l753 1400h353l308 -1400h-331l-66 295h-526l-159 -295h-332zM698 1710l244 288h355l157 -288h-209l-140 188l-198 -188h-209zM739 595h297l-87 389z" />
    <glyph glyph-name="Atilde" unicode="&#xc3;" horiz-adv-x="1597" 
d="M87 0l753 1400h353l308 -1400h-331l-66 295h-526l-159 -295h-332zM660 1672q-27 91 9 173q31 67 94 108.5t139 41.5q11 0 22.5 -1.5t21 -3.5t22.5 -7t21 -7.5t22 -10t20 -10.5t21.5 -12.5t20 -12t20.5 -12.5t19 -12q92 -64 125 -64q16 0 24.5 17t-1 37.5t-38.5 27.5
l215 62q32 -88 -7 -176q-33 -67 -96 -108.5t-140 -41.5q-32 0 -71.5 16.5t-58.5 29t-64 43.5q-37 25 -55 37t-40 20.5t-36 5.5q-53 -9 -19 -92zM739 595h297l-87 389z" />
    <glyph glyph-name="Adieresis" unicode="&#xc4;" horiz-adv-x="1597" 
d="M87 0l753 1400h353l308 -1400h-331l-66 295h-526l-159 -295h-332zM700 1841q10 63 62.5 106.5t119.5 43.5q66 0 104.5 -43.5t28.5 -106.5q-11 -64 -62.5 -107t-117.5 -43q-68 0 -106.5 43t-28.5 107zM739 595h297l-87 389zM1160 1841q10 63 62 106.5t119 43.5
t105.5 -43.5t28.5 -106.5q-11 -64 -62.5 -107t-118.5 -43t-105.5 43t-28.5 107z" />
    <glyph glyph-name="Aring" unicode="&#xc5;" horiz-adv-x="1597" 
d="M87 0l753 1400h353l308 -1400h-331l-66 295h-526l-159 -295h-332zM739 595h297l-87 389zM888 1856q13 83 82.5 140.5t157.5 57.5q87 0 139 -58.5t39 -139.5q-14 -84 -84 -143t-157 -59q-85 0 -137.5 60t-39.5 142zM1034 1856q-4 -26 11.5 -44t41.5 -18t47.5 18t25.5 43
q4 24 -12 41.5t-42 17.5t-47 -17t-25 -41z" />
    <glyph glyph-name="AE" unicode="&#xc6;" horiz-adv-x="2051" 
d="M1003 0l47 295h-464l-159 -295h-332l753 1400h1309l-48 -300h-618l-34 -218h477l-48 -300h-477l-44 -282h618l-48 -300h-932zM747 595h350l80 505h-158z" />
    <glyph glyph-name="Ccedilla" unicode="&#xc7;" horiz-adv-x="1511" 
d="M788 -418q-82 -20 -147 19t-74 114l158 39q2 -15 15 -23t31 -4q17 4 27.5 18t8.5 30q-3 28 -45 28h-153l126 168q-192 15 -324.5 111.5t-186.5 256.5t-22 361q25 158 98 293.5t180.5 232t250.5 151t302 54.5q204 0 348.5 -86t210.5 -240l-302 -148q-43 76 -121.5 118
t-185.5 42q-183 0 -314 -116.5t-160 -300.5t65 -300.5t277 -116.5q107 0 198.5 42t158.5 118l256 -148q-98 -130 -237 -212.5t-306 -105.5l-36 -46q73 -39 80 -118q9 -75 -42.5 -143t-134.5 -88z" />
    <glyph glyph-name="Egrave" unicode="&#xc8;" horiz-adv-x="1173" 
d="M125 0l222 1400h932l-48 -300h-618l-34 -218h477l-48 -300h-477l-44 -282h618l-48 -300h-932zM652 1998h314l39 -288h-209z" />
    <glyph glyph-name="Eacute" unicode="&#xc9;" horiz-adv-x="1173" 
d="M125 0l222 1400h932l-48 -300h-618l-34 -218h477l-48 -300h-477l-44 -282h618l-48 -300h-932zM756 1710l128 288h314l-233 -288h-209z" />
    <glyph glyph-name="Ecircumflex" unicode="&#xca;" horiz-adv-x="1173" 
d="M125 0l222 1400h932l-48 -300h-618l-34 -218h477l-48 -300h-477l-44 -282h618l-48 -300h-932zM487 1710l244 288h355l157 -288h-209l-140 188l-198 -188h-209z" />
    <glyph glyph-name="Edieresis" unicode="&#xcb;" horiz-adv-x="1173" 
d="M125 0l222 1400h932l-48 -300h-618l-34 -218h477l-48 -300h-477l-44 -282h618l-48 -300h-932zM510 1823q10 63 62.5 106.5t119.5 43.5q66 0 104.5 -43.5t28.5 -106.5q-11 -64 -62.5 -107t-117.5 -43q-68 0 -106.5 43t-28.5 107zM970 1823q10 63 62 106.5t119 43.5
t105.5 -43.5t28.5 -106.5q-11 -64 -62.5 -107t-118.5 -43t-105.5 43t-28.5 107z" />
    <glyph glyph-name="Igrave" unicode="&#xcc;" horiz-adv-x="606" 
d="M127 0l222 1400h313l-222 -1400h-313zM349 1998h314l39 -288h-209z" />
    <glyph glyph-name="Iacute" unicode="&#xcd;" horiz-adv-x="672" 
d="M151 0l222 1400h313l-222 -1400h-313zM463 1710l128 288h314l-233 -288h-209z" />
    <glyph glyph-name="Icircumflex" unicode="&#xce;" horiz-adv-x="690" 
d="M174 0l222 1400h313l-222 -1400h-313zM236 1710l244 288h355l157 -288h-209l-140 188l-198 -188h-209z" />
    <glyph glyph-name="Idieresis" unicode="&#xcf;" horiz-adv-x="768" 
d="M209 0l222 1400h313l-222 -1400h-313zM283 1814q11 63 63.5 106.5t119.5 43.5q66 0 104.5 -43.5t27.5 -106.5q-10 -64 -61.5 -107t-117.5 -43q-68 0 -107 43t-29 107zM743 1814q11 63 63 106.5t119 43.5t105.5 -43.5t27.5 -106.5q-10 -64 -61.5 -107t-118.5 -43t-106 43
t-29 107z" />
    <glyph glyph-name="Eth" unicode="&#xd0;" horiz-adv-x="1660" 
d="M369 0l93 590h-278l35 220h278l94 590h500q213 0 361.5 -89.5t211.5 -248.5t31 -362q-24 -152 -96 -281.5t-179 -222t-249.5 -144.5t-301.5 -52h-500zM731 300h186q183 0 313 112t158 288t-67 288t-278 112h-186l-46 -290h114l-35 -220h-114z" />
    <glyph glyph-name="Ntilde" unicode="&#xd1;" horiz-adv-x="1449" 
d="M125 0l222 1400h339l399 -858l136 858h314l-222 -1400h-339l-399 858l-136 -858h-314zM578 1668q-26 90 10 173q30 67 92.5 108.5t139.5 41.5q34 0 76.5 -16.5t64 -29t69.5 -43.5q34 -23 50.5 -33.5t38 -20.5t36.5 -10q16 0 24.5 17t-1 37.5t-38.5 27.5l215 62
q33 -90 -7 -176q-33 -67 -96 -108.5t-140 -41.5q-32 0 -71.5 16.5t-58.5 29t-64 43.5q-52 36 -81.5 52t-49.5 11q-53 -9 -18 -92z" />
    <glyph glyph-name="Ograve" unicode="&#xd2;" horiz-adv-x="1613" 
d="M797 -31q-212 0 -360.5 93.5t-210.5 259.5t-28 378q25 158 98 293.5t180.5 232t250.5 151t302 54.5q213 0 361 -93.5t209.5 -259.5t28.5 -378q-25 -158 -98 -293.5t-180.5 -232t-250.5 -151t-302 -54.5zM505 700q-29 -184 65 -300.5t277 -116.5t313.5 116.5t160.5 300.5
q29 184 -65 300.5t-277 116.5t-314 -116.5t-160 -300.5zM878 1998h314l39 -288h-209z" />
    <glyph glyph-name="Oacute" unicode="&#xd3;" horiz-adv-x="1613" 
d="M797 -31q-212 0 -360.5 93.5t-210.5 259.5t-28 378q25 158 98 293.5t180.5 232t250.5 151t302 54.5q213 0 361 -93.5t209.5 -259.5t28.5 -378q-25 -158 -98 -293.5t-180.5 -232t-250.5 -151t-302 -54.5zM505 700q-29 -184 65 -300.5t277 -116.5t313.5 116.5t160.5 300.5
q29 184 -65 300.5t-277 116.5t-314 -116.5t-160 -300.5zM910 1710l128 288h314l-233 -288h-209z" />
    <glyph glyph-name="Ocircumflex" unicode="&#xd4;" horiz-adv-x="1613" 
d="M797 -31q-212 0 -360.5 93.5t-210.5 259.5t-28 378q25 158 98 293.5t180.5 232t250.5 151t302 54.5q213 0 361 -93.5t209.5 -259.5t28.5 -378q-25 -158 -98 -293.5t-180.5 -232t-250.5 -151t-302 -54.5zM505 700q-29 -184 65 -300.5t277 -116.5t313.5 116.5t160.5 300.5
q29 184 -65 300.5t-277 116.5t-314 -116.5t-160 -300.5zM691 1710l244 288h355l157 -288h-209l-140 188l-198 -188h-209z" />
    <glyph glyph-name="Otilde" unicode="&#xd5;" horiz-adv-x="1613" 
d="M797 -31q-212 0 -360.5 93.5t-210.5 259.5t-28 378q25 158 98 293.5t180.5 232t250.5 151t302 54.5q213 0 361 -93.5t209.5 -259.5t28.5 -378q-25 -158 -98 -293.5t-180.5 -232t-250.5 -151t-302 -54.5zM505 700q-29 -184 65 -300.5t277 -116.5t313.5 116.5t160.5 300.5
q29 184 -65 300.5t-277 116.5t-314 -116.5t-160 -300.5zM706 1660q-27 91 9 173q31 67 94 108.5t139 41.5q11 0 22.5 -1.5t21 -3.5t22.5 -7t21 -7.5t22 -10t20 -10.5t21.5 -12.5t20 -12t20.5 -12.5t19 -12q92 -64 125 -64q16 0 24.5 17t-1 37.5t-38.5 27.5l215 62
q32 -88 -7 -176q-33 -67 -96 -108.5t-140 -41.5q-32 0 -71.5 16.5t-58.5 29t-64 43.5q-37 25 -55 37t-40 20.5t-36 5.5q-53 -9 -18 -92z" />
    <glyph glyph-name="Odieresis" unicode="&#xd6;" horiz-adv-x="1613" 
d="M797 -31q-212 0 -360.5 93.5t-210.5 259.5t-28 378q25 158 98 293.5t180.5 232t250.5 151t302 54.5q213 0 361 -93.5t209.5 -259.5t28.5 -378q-25 -158 -98 -293.5t-180.5 -232t-250.5 -151t-302 -54.5zM505 700q-29 -184 65 -300.5t277 -116.5t313.5 116.5t160.5 300.5
q29 184 -65 300.5t-277 116.5t-314 -116.5t-160 -300.5zM712 1814q11 63 63.5 106.5t119.5 43.5q66 0 104.5 -43.5t27.5 -106.5q-10 -64 -61.5 -107t-117.5 -43q-68 0 -107 43t-29 107zM1172 1814q11 63 63 106.5t119 43.5t105.5 -43.5t27.5 -106.5q-10 -64 -61.5 -107
t-118.5 -43t-106 43t-29 107z" />
    <glyph glyph-name="multiply" unicode="&#xd7;" horiz-adv-x="1150" 
d="M338 140l-187 212l296 248l-218 248l255 212l218 -248l299 248l187 -212l-298 -248l220 -248l-255 -212l-221 248z" />
    <glyph glyph-name="Oslash" unicode="&#xd8;" horiz-adv-x="1613" 
d="M797 -31h-18l-70 -178h-274l89 227q-191 78 -278 258.5t-48 423.5q25 158 98 293.5t180.5 232t250.5 151t302 54.5q33 0 50 -1l64 164h275l-88 -225q176 -82 255.5 -259t42.5 -410q-25 -158 -98 -293.5t-180.5 -232t-250.5 -151t-302 -54.5zM505 700q-19 -124 18.5 -220
t124.5 -147l308 783q-175 -7 -299 -123t-152 -293zM904 286q163 19 276.5 132t140.5 282q18 113 -13 204.5t-104 145.5z" />
    <glyph glyph-name="Ugrave" unicode="&#xd9;" horiz-adv-x="1451" 
d="M717 -26q-176 0 -297 82q-122 82 -175.5 221t-27.5 307l130 816h314l-130 -816q-21 -137 42 -223.5t191 -86.5q129 0 218.5 85.5t110.5 224.5l130 816h314l-130 -816q-27 -171 -123 -309.5t-245 -219.5t-322 -81zM793 1998h314l39 -288h-209z" />
    <glyph glyph-name="Uacute" unicode="&#xda;" horiz-adv-x="1451" 
d="M717 -26q-176 0 -297 82q-122 82 -175.5 221t-27.5 307l130 816h314l-130 -816q-21 -137 42 -223.5t191 -86.5q129 0 218.5 85.5t110.5 224.5l130 816h314l-130 -816q-27 -171 -123 -309.5t-245 -219.5t-322 -81zM832 1710l128 288h314l-233 -288h-209z" />
    <glyph glyph-name="Ucircumflex" unicode="&#xdb;" horiz-adv-x="1451" 
d="M717 -26q-176 0 -297 82q-122 82 -175.5 221t-27.5 307l130 816h314l-130 -816q-21 -137 42 -223.5t191 -86.5q129 0 218.5 85.5t110.5 224.5l130 816h314l-130 -816q-27 -171 -123 -309.5t-245 -219.5t-322 -81zM625 1710l244 288h355l157 -288h-209l-140 188l-198 -188
h-209z" />
    <glyph glyph-name="Udieresis" unicode="&#xdc;" horiz-adv-x="1451" 
d="M717 -26q-176 0 -297 82q-122 82 -175.5 221t-27.5 307l130 816h314l-130 -816q-21 -137 42 -223.5t191 -86.5q129 0 218.5 85.5t110.5 224.5l130 816h314l-130 -816q-27 -171 -123 -309.5t-245 -219.5t-322 -81zM642 1814q11 63 63.5 106.5t119.5 43.5q66 0 104.5 -43.5
t27.5 -106.5q-10 -64 -61.5 -107t-117.5 -43q-68 0 -107 43t-29 107zM1102 1814q11 63 63 106.5t119 43.5t105.5 -43.5t27.5 -106.5q-10 -64 -61.5 -107t-118.5 -43t-106 43t-29 107z" />
    <glyph glyph-name="Yacute" unicode="&#xdd;" horiz-adv-x="1474" 
d="M577 0l100 630l-386 770h369l225 -444l365 444h370l-630 -770l-100 -630h-313zM799 1710l128 288h314l-233 -288h-209z" />
    <glyph glyph-name="Thorn" unicode="&#xde;" horiz-adv-x="1254" 
d="M87 -243l260 1642h314l-39 -242h295q91 0 165.5 -28t128 -83t75 -145.5t2.5 -207.5v-1q-19 -117 -69 -207.5t-121 -145.5t-154 -83t-174 -28h-295l-74 -471h-314zM517 492h256q72 0 130.5 51.5t73.5 152.5v1q16 101 -25.5 152.5t-113.5 51.5h-256z" />
    <glyph glyph-name="germandbls" unicode="&#xdf;" horiz-adv-x="1266" 
d="M836 1274q-85 0 -137.5 -13.5t-86 -50t-49.5 -84.5t-29 -132l-200 -1268h-242l206 1306q36 225 176.5 351t398.5 126h3q211 0 323 -103t80 -307q-29 -183 -151 -295q169 -130 126 -399q-32 -206 -173 -344.5t-330 -138.5q-84 0 -139.5 13.5t-115.5 44.5l38 243
q120 -54 207.5 -66t142 18t84.5 86t44 144q12 77 -4 132t-55 82.5t-84 39.5t-101 12h-146l37 235h140q104 0 162 43t75 150q15 96 -25 135.5t-172 39.5h-3z" />
    <glyph glyph-name="agrave" unicode="&#xe0;" horiz-adv-x="1291" 
d="M580 -26q-231 0 -349.5 147t-82.5 379q37 232 202.5 379t396.5 147q89 0 162 -34t115 -94l16 102h313l-158 -1000h-323l17 109q-53 -62 -138.5 -98.5t-170.5 -36.5zM438 500q-16 -101 36 -164.5t153 -63.5q100 0 172 63.5t88 164.5t-36 164.5t-152 63.5
q-101 0 -173 -63.5t-88 -164.5zM572 1564h314l38 -288h-209z" />
    <glyph glyph-name="aacute" unicode="&#xe1;" horiz-adv-x="1291" 
d="M580 -26q-231 0 -349.5 147t-82.5 379q37 232 202.5 379t396.5 147q89 0 162 -34t115 -94l16 102h313l-158 -1000h-323l17 109q-53 -62 -138.5 -98.5t-170.5 -36.5zM438 500q-16 -101 36 -164.5t153 -63.5q100 0 172 63.5t88 164.5t-36 164.5t-152 63.5
q-101 0 -173 -63.5t-88 -164.5zM671 1308l129 288h314l-234 -288h-209z" />
    <glyph glyph-name="acircumflex" unicode="&#xe2;" horiz-adv-x="1291" 
d="M580 -26q-231 0 -349.5 147t-82.5 379q37 232 202.5 379t396.5 147q89 0 162 -34t115 -94l16 102h313l-158 -1000h-323l17 109q-53 -62 -138.5 -98.5t-170.5 -36.5zM438 500q-16 -101 36 -164.5t153 -63.5q100 0 172 63.5t88 164.5t-36 164.5t-152 63.5
q-101 0 -173 -63.5t-88 -164.5zM469 1315l245 288h355l156 -288h-209l-140 188l-198 -188h-209z" />
    <glyph glyph-name="atilde" unicode="&#xe3;" horiz-adv-x="1291" 
d="M580 -26q-231 0 -349.5 147t-82.5 379q37 232 202.5 379t396.5 147q89 0 162 -34t115 -94l16 102h313l-158 -1000h-323l17 109q-53 -62 -138.5 -98.5t-170.5 -36.5zM438 500q-16 -101 36 -164.5t153 -63.5q100 0 172 63.5t88 164.5t-36 164.5t-152 63.5
q-101 0 -173 -63.5t-88 -164.5zM484 1283q-26 90 10 173q30 67 92.5 108.5t139.5 41.5q34 0 76.5 -16.5t64 -29t69.5 -43.5q34 -23 50.5 -33.5t38 -20.5t36.5 -10q16 0 24.5 17t-1 37.5t-38.5 27.5l215 62q33 -90 -7 -176q-33 -67 -96 -108.5t-140 -41.5q-32 0 -71.5 16.5
t-58.5 29t-64 43.5q-52 36 -81.5 52t-49.5 11q-53 -9 -18 -92z" />
    <glyph glyph-name="adieresis" unicode="&#xe4;" horiz-adv-x="1291" 
d="M580 -26q-231 0 -349.5 147t-82.5 379q37 232 202.5 379t396.5 147q89 0 162 -34t115 -94l16 102h313l-158 -1000h-323l17 109q-53 -62 -138.5 -98.5t-170.5 -36.5zM438 500q-16 -101 36 -164.5t153 -63.5q100 0 172 63.5t88 164.5t-36 164.5t-152 63.5
q-101 0 -173 -63.5t-88 -164.5zM507 1442q11 63 63.5 106.5t119.5 43.5q66 0 104.5 -43.5t27.5 -106.5q-10 -64 -61.5 -107t-117.5 -43q-68 0 -107 43t-29 107zM967 1442q11 63 63 106.5t119 43.5t105.5 -43.5t27.5 -106.5q-10 -64 -61.5 -107t-118.5 -43t-106 43t-29 107z
" />
    <glyph glyph-name="aring" unicode="&#xe5;" horiz-adv-x="1291" 
d="M580 -26q-231 0 -349.5 147t-82.5 379q37 232 202.5 379t396.5 147q89 0 162 -34t115 -94l16 102h313l-158 -1000h-323l17 109q-53 -62 -138.5 -98.5t-170.5 -36.5zM438 500q-16 -101 36 -164.5t153 -63.5q100 0 172 63.5t88 164.5t-36 164.5t-152 63.5
q-101 0 -173 -63.5t-88 -164.5zM693 1465q13 83 82.5 140.5t157.5 57.5q87 0 139 -58.5t39 -139.5q-14 -84 -84 -143t-157 -59q-85 0 -137.5 60t-39.5 142zM839 1465q-4 -26 11.5 -44t41.5 -18t47.5 18t25.5 43q4 24 -12 41.5t-42 17.5t-47 -17t-25 -41z" />
    <glyph glyph-name="ae" unicode="&#xe6;" horiz-adv-x="2090" 
d="M586 -26q-231 0 -349.5 147t-82.5 379q37 232 202.5 379t396.5 147q89 0 162 -34t115 -94l16 102h313l-9 -58q140 84 312 84q231 0 349.5 -147t81.5 -379l-15 -99h-721q15 -60 63.5 -94.5t121.5 -34.5q117 0 193 84l241 -143q-83 -112 -208 -175.5t-273 -63.5
q-171 0 -285 84l-9 -58h-323l17 109q-53 -62 -138.5 -98.5t-170.5 -36.5zM444 500q-16 -101 36 -164.5t153 -63.5q100 0 172 63.5t88 164.5t-36 164.5t-152 63.5q-101 0 -173 -63.5t-88 -164.5zM1402 621h389q-20 50 -65.5 78.5t-111.5 28.5q-134 0 -212 -107z" />
    <glyph glyph-name="ccedilla" unicode="&#xe7;" horiz-adv-x="1084" 
d="M561 -381q-82 -20 -147 19t-74 114l158 39q2 -15 15 -23t31 -4q16 4 27 18t9 30q-3 28 -45 28h-153l105 141q-188 30 -279.5 171t-59.5 348q37 232 202.5 379t396.5 147q163 0 273 -76.5t148 -209.5l-285 -138q-16 59 -64 92.5t-120 33.5q-101 0 -173 -63.5t-88 -164.5
t36 -164.5t153 -63.5q72 0 130.5 33.5t93.5 92.5l241 -138q-69 -114 -179.5 -187.5t-245.5 -92.5l-9 -12q73 -39 80 -118q8 -76 -43 -143.5t-134 -87.5z" />
    <glyph glyph-name="egrave" unicode="&#xe8;" horiz-adv-x="1175" 
d="M876 621q-20 50 -65.5 78.5t-111.5 28.5q-134 0 -212 -107h389zM148 500q37 232 202.5 379t396.5 147t349.5 -147t81.5 -379l-15 -99h-721q15 -60 63.5 -94.5t121.5 -34.5q117 0 193 84l241 -143q-83 -112 -208 -175.5t-273 -63.5q-231 0 -349.5 147t-82.5 379zM520 1592
h314l39 -288h-209z" />
    <glyph glyph-name="eacute" unicode="&#xe9;" horiz-adv-x="1175" 
d="M876 621q-20 50 -65.5 78.5t-111.5 28.5q-134 0 -212 -107h389zM148 500q37 232 202.5 379t396.5 147t349.5 -147t81.5 -379l-15 -99h-721q15 -60 63.5 -94.5t121.5 -34.5q117 0 193 84l241 -143q-83 -112 -208 -175.5t-273 -63.5q-231 0 -349.5 147t-82.5 379zM614 1302
l129 288h314l-234 -288h-209z" />
    <glyph glyph-name="ecircumflex" unicode="&#xea;" horiz-adv-x="1175" 
d="M876 621q-20 50 -65.5 78.5t-111.5 28.5q-134 0 -212 -107h389zM148 500q37 232 202.5 379t396.5 147t349.5 -147t81.5 -379l-15 -99h-721q15 -60 63.5 -94.5t121.5 -34.5q117 0 193 84l241 -143q-83 -112 -208 -175.5t-273 -63.5q-231 0 -349.5 147t-82.5 379zM416 1307
l245 288h355l156 -288h-209l-140 188l-198 -188h-209z" />
    <glyph glyph-name="edieresis" unicode="&#xeb;" horiz-adv-x="1175" 
d="M876 621q-20 50 -65.5 78.5t-111.5 28.5q-134 0 -212 -107h389zM148 500q37 232 202.5 379t396.5 147t349.5 -147t81.5 -379l-15 -99h-721q15 -60 63.5 -94.5t121.5 -34.5q117 0 193 84l241 -143q-83 -112 -208 -175.5t-273 -63.5q-231 0 -349.5 147t-82.5 379zM423 1413
q10 63 63 106.5t120 43.5q66 0 104 -43.5t28 -106.5q-11 -64 -62.5 -107t-117.5 -43q-68 0 -106.5 43t-28.5 107zM883 1413q10 63 62.5 106.5t119.5 43.5q66 0 104.5 -43.5t28.5 -106.5q-11 -64 -62.5 -107t-118.5 -43t-105.5 43t-28.5 107z" />
    <glyph glyph-name="igrave" unicode="&#xec;" horiz-adv-x="545" 
d="M95 0l158 1000h314l-158 -1000h-314zM232 1592h314l39 -288h-209z" />
    <glyph glyph-name="iacute" unicode="&#xed;" horiz-adv-x="611" 
d="M125 0l158 1000h314l-158 -1000h-314zM364 1310l129 288h314l-234 -288h-209z" />
    <glyph glyph-name="icircumflex" unicode="&#xee;" horiz-adv-x="435" 
d="M129 0l158 1000h314l-158 -1000h-314zM139 1288l245 288h355l156 -288h-209l-140 188l-198 -188h-209z" />
    <glyph glyph-name="idieresis" unicode="&#xef;" horiz-adv-x="708" 
d="M194 0l158 1000h314l-158 -1000h-314zM194 1439q10 63 63 106.5t120 43.5q66 0 104 -43.5t28 -106.5q-11 -64 -62.5 -107t-117.5 -43q-68 0 -106.5 43t-28.5 107zM654 1439q10 63 62.5 106.5t119.5 43.5q66 0 104.5 -43.5t28.5 -106.5q-11 -64 -62.5 -107t-118.5 -43
t-105.5 43t-28.5 107z" />
    <glyph glyph-name="eth" unicode="&#xf0;" horiz-adv-x="1202" 
d="M630 -26q-143 0 -253 68q-111 69 -163 183.5t-31 250.5q22 138 110.5 254t220 183t275.5 67q54 0 83 -8q-41 116 -58 146l-164 -87l-34 82l140 74q-66 53 -181 53l46 300q271 0 438 -193l121 64l35 -81l-102 -54q15 -22 30 -50q79 -144 104 -329t-7 -385
q-25 -157 -112 -278q-88 -123 -218 -191.5t-280 -68.5zM496 476q-13 -84 39.5 -143t141.5 -59t160 59t84 143q13 85 -38.5 144.5t-140.5 59.5t-161 -59.5t-85 -144.5z" />
    <glyph glyph-name="ntilde" unicode="&#xf1;" horiz-adv-x="1203" 
d="M126 0l157 1000h314l-9 -63q125 91 275 91q114 0 197 -52q85 -53 125 -142t23 -195l-101 -639h-314l88 555q11 72 -32 120.5t-117 48.5q-75 0 -134 -48.5t-70 -120.5l-88 -555h-314zM454 1268q-27 91 9 173q31 67 94 108.5t139 41.5q11 0 22.5 -1.5t21 -3.5t22.5 -7
t21 -7.5t22 -10t20 -10.5t21.5 -12.5t20 -12t20.5 -12.5t19 -12q92 -64 125 -64q16 0 24.5 17t-1 37.5t-38.5 27.5l215 62q32 -88 -7 -176q-33 -67 -96 -108.5t-140 -41.5q-32 0 -71.5 16.5t-58.5 29t-64 43.5q-37 25 -55 37t-40 20.5t-36 5.5q-53 -9 -19 -92z" />
    <glyph glyph-name="ograve" unicode="&#xf2;" horiz-adv-x="1175" 
d="M580 -26q-231 0 -349.5 147t-82.5 379q37 232 202.5 379t396.5 147t349.5 -147t81.5 -379q-36 -232 -201.5 -379t-396.5 -147zM438 500q-16 -101 36 -164.5t153 -63.5q100 0 172 63.5t88 164.5t-36 164.5t-152 63.5q-101 0 -173 -63.5t-88 -164.5zM543 1591h314l38 -288
h-209z" />
    <glyph glyph-name="oacute" unicode="&#xf3;" horiz-adv-x="1175" 
d="M580 -26q-231 0 -349.5 147t-82.5 379q37 232 202.5 379t396.5 147t349.5 -147t81.5 -379q-36 -232 -201.5 -379t-396.5 -147zM438 500q-16 -101 36 -164.5t153 -63.5q100 0 172 63.5t88 164.5t-36 164.5t-152 63.5q-101 0 -173 -63.5t-88 -164.5zM632 1286l128 288h314
l-233 -288h-209z" />
    <glyph glyph-name="ocircumflex" unicode="&#xf4;" horiz-adv-x="1175" 
d="M580 -26q-231 0 -349.5 147t-82.5 379q37 232 202.5 379t396.5 147t349.5 -147t81.5 -379q-36 -232 -201.5 -379t-396.5 -147zM411 1288l245 288h355l156 -288h-209l-140 188l-198 -188h-209zM438 500q-16 -101 36 -164.5t153 -63.5q100 0 172 63.5t88 164.5t-36 164.5
t-152 63.5q-101 0 -173 -63.5t-88 -164.5z" />
    <glyph glyph-name="otilde" unicode="&#xf5;" horiz-adv-x="1175" 
d="M580 -26q-231 0 -349.5 147t-82.5 379q37 232 202.5 379t396.5 147t349.5 -147t81.5 -379q-36 -232 -201.5 -379t-396.5 -147zM438 500q-16 -101 36 -164.5t153 -63.5q100 0 172 63.5t88 164.5t-36 164.5t-152 63.5q-101 0 -173 -63.5t-88 -164.5zM462 1267q-27 91 9 173
q31 67 94 108.5t139 41.5q11 0 22.5 -1.5t21 -3.5t22.5 -7t21 -7.5t22 -10t20 -10.5t21.5 -12.5t20 -12t20.5 -12.5t19 -12q92 -64 125 -64q16 0 24.5 17t-1 37.5t-38.5 27.5l214 62q33 -88 -6 -176q-33 -67 -96 -108.5t-140 -41.5q-32 0 -71.5 16.5t-58.5 29t-64 43.5
q-37 25 -55 37t-40 20.5t-36 5.5q-53 -9 -19 -92z" />
    <glyph glyph-name="odieresis" unicode="&#xf6;" horiz-adv-x="1175" 
d="M580 -26q-231 0 -349.5 147t-82.5 379q37 232 202.5 379t396.5 147t349.5 -147t81.5 -379q-36 -232 -201.5 -379t-396.5 -147zM437 1439q10 63 63 106.5t120 43.5q66 0 104 -43.5t28 -106.5q-11 -64 -62.5 -107t-117.5 -43q-68 0 -106.5 43t-28.5 107zM438 500
q-16 -101 36 -164.5t153 -63.5q100 0 172 63.5t88 164.5t-36 164.5t-152 63.5q-101 0 -173 -63.5t-88 -164.5zM897 1439q10 63 62.5 106.5t119.5 43.5q66 0 104.5 -43.5t28.5 -106.5q-11 -64 -62.5 -107t-118.5 -43t-105.5 43t-28.5 107z" />
    <glyph glyph-name="divide" unicode="&#xf7;" horiz-adv-x="1236" 
d="M166 450l48 300h1045l-48 -300h-1045zM498 240q10 62 63 106t118 44t104 -44t29 -106q-10 -61 -63 -105.5t-118 -44.5t-104 44.5t-29 105.5zM612 960q10 62 63 106t118 44t104 -44t29 -106q-10 -61 -63 -105.5t-118 -44.5t-104 44.5t-29 105.5z" />
    <glyph glyph-name="oslash" unicode="&#xf8;" horiz-adv-x="1175" 
d="M580 -26q-20 0 -29 1l-70 -146h-274l104 218q-101 67 -144 185t-19 268q37 232 202.5 379t396.5 147q22 0 32 -1l60 125h275l-96 -200q99 -67 141.5 -184.5t18.5 -265.5q-36 -232 -201.5 -379t-396.5 -147zM438 500q-13 -84 21 -143l174 363q-77 -19 -129.5 -78
t-65.5 -142zM698 281q75 20 125.5 79t63.5 140q14 80 -18 138z" />
    <glyph glyph-name="ugrave" unicode="&#xf9;" horiz-adv-x="1164" 
d="M489 -26q-110 0 -196 53t-125.5 141t-23.5 195l101 637h313l-87 -553q-11 -72 32.5 -120.5t117.5 -48.5q75 0 134 48.5t70 120.5l87 553h313l-157 -1000h-314l10 65q-128 -91 -275 -91zM570 1590h314l38 -288h-209z" />
    <glyph glyph-name="uacute" unicode="&#xfa;" horiz-adv-x="1164" 
d="M489 -26q-110 0 -196 53t-125.5 141t-23.5 195l101 637h313l-87 -553q-11 -72 32.5 -120.5t117.5 -48.5q75 0 134 48.5t70 120.5l87 553h313l-157 -1000h-314l10 65q-128 -91 -275 -91zM602 1294l129 288h314l-234 -288h-209z" />
    <glyph glyph-name="ucircumflex" unicode="&#xfb;" horiz-adv-x="1164" 
d="M489 -26q-110 0 -196 53t-125.5 141t-23.5 195l101 637h313l-87 -553q-11 -72 32.5 -120.5t117.5 -48.5q75 0 134 48.5t70 120.5l87 553h313l-157 -1000h-314l10 65q-128 -91 -275 -91zM419 1309l245 288h355l156 -288h-209l-140 188l-198 -188h-209z" />
    <glyph glyph-name="udieresis" unicode="&#xfc;" horiz-adv-x="1164" 
d="M489 -26q-110 0 -196 53t-125.5 141t-23.5 195l101 637h313l-87 -553q-11 -72 32.5 -120.5t117.5 -48.5q75 0 134 48.5t70 120.5l87 553h313l-157 -1000h-314l10 65q-128 -91 -275 -91zM417 1440q10 63 63 106.5t120 43.5q66 0 104 -43.5t28 -106.5q-10 -64 -62 -107
t-118 -43q-67 0 -106 43t-29 107zM877 1440q10 63 62.5 106.5t119.5 43.5q66 0 104.5 -43.5t28.5 -106.5q-10 -64 -62 -107t-119 -43t-105.5 43t-28.5 107z" />
    <glyph glyph-name="yacute" unicode="&#xfd;" horiz-adv-x="1276" 
d="M196 -500l267 500l-218 1000h343l97 -590l319 590h334l-810 -1500h-332zM664 1308l129 288h314l-234 -288h-209z" />
    <glyph glyph-name="thorn" unicode="&#xfe;" horiz-adv-x="1328" 
d="M46 -501l301 1900h314l-64 -400h9l-17 -109q54 62 139.5 98.5t170.5 36.5q232 0 350.5 -147t81.5 -379t-202 -379t-396 -147q-90 0 -163.5 34t-114.5 94l-95 -602h-314zM592 499q-16 -101 35.5 -164.5t152.5 -63.5t172.5 63.5t87.5 164.5t-35.5 164.5t-152.5 63.5
t-172.5 -63.5t-87.5 -164.5z" />
    <glyph glyph-name="ydieresis" unicode="&#xff;" horiz-adv-x="1276" 
d="M196 -500l267 500l-218 1000h343l97 -590l319 590h334l-810 -1500h-332zM481 1410q11 63 63.5 106.5t119.5 43.5q66 0 104.5 -43.5t27.5 -106.5q-10 -64 -61.5 -107t-117.5 -43q-68 0 -107 43t-29 107zM941 1410q11 63 63 106.5t119 43.5t105.5 -43.5t27.5 -106.5
q-10 -64 -61.5 -107t-118.5 -43t-106 43t-29 107z" />
    <glyph glyph-name="Amacron" unicode="&#x100;" horiz-adv-x="1597" 
d="M87 0l753 1400h353l308 -1400h-331l-66 295h-526l-159 -295h-332zM699 1677l34 220h706l-34 -220h-706zM739 595h297l-87 389z" />
    <glyph glyph-name="amacron" unicode="&#x101;" horiz-adv-x="1291" 
d="M580 -26q-231 0 -349.5 147t-82.5 379q37 232 202.5 379t396.5 147q89 0 162 -34t115 -94l16 102h313l-158 -1000h-323l17 109q-53 -62 -138.5 -98.5t-170.5 -36.5zM438 500q-16 -101 36 -164.5t153 -63.5q100 0 172 63.5t88 164.5t-36 164.5t-152 63.5
q-101 0 -173 -63.5t-88 -164.5zM492 1263l35 220h706l-35 -220h-706z" />
    <glyph glyph-name="Abreve" unicode="&#x102;" horiz-adv-x="1597" 
d="M87 0l753 1400h353l308 -1400h-331l-66 295h-526l-159 -295h-332zM739 595h297l-87 389zM746 2001h188q-10 -63 29 -107.5t106 -44.5t119.5 43.5t62.5 108.5h188q-15 -94 -73 -168q-59 -77 -145 -120.5t-181 -43.5t-167 45q-73 45 -107 121t-20 166z" />
    <glyph glyph-name="abreve" unicode="&#x103;" horiz-adv-x="1291" 
d="M580 -26q-231 0 -349.5 147t-82.5 379q37 232 202.5 379t396.5 147q89 0 162 -34t115 -94l16 102h313l-158 -1000h-323l17 109q-53 -62 -138.5 -98.5t-170.5 -36.5zM438 500q-16 -101 36 -164.5t153 -63.5q100 0 172 63.5t88 164.5t-36 164.5t-152 63.5
q-101 0 -173 -63.5t-88 -164.5zM553 1591h188q-10 -63 29 -107.5t106 -44.5t119.5 43.5t62.5 108.5h188q-15 -94 -73 -168q-59 -77 -145 -120.5t-181 -43.5t-166 45q-73 45 -107.5 121t-20.5 166z" />
    <glyph glyph-name="Aogonek" unicode="&#x104;" horiz-adv-x="1677" 
d="M87 0l753 1400h353l308 -1400h-39q-15 -12 -52.5 -41.5t-57 -46.5t-45.5 -42t-39.5 -48t-16.5 -45q-4 -23 9.5 -40.5t39.5 -17.5q40 0 72 27t38 65h192q-12 -77 -61 -141q-51 -68 -125.5 -107t-158.5 -39q-81 0 -139 38q-55 38 -79.5 99t-13.5 128q16 109 109 185l35 29
l-65 292h-526l-159 -295h-332zM739 595h297l-87 389z" />
    <glyph glyph-name="aogonek" unicode="&#x105;" horiz-adv-x="1303" 
d="M580 -26q-231 0 -349.5 147t-82.5 379q37 232 202.5 379t396.5 147q89 0 162 -34t115 -94l16 102h313l-158 -1000h-22q-15 -12 -52.5 -41.5t-57 -46.5t-45.5 -42t-39.5 -48t-16.5 -45q-4 -23 9 -40.5t40 -17.5q40 0 72 27t38 65h192q-12 -77 -61 -141
q-51 -68 -125.5 -107t-158.5 -39q-81 0 -139 38q-55 38 -79.5 99t-13.5 128q16 109 109 185l31 26h-4l17 109q-53 -62 -138.5 -98.5t-170.5 -36.5zM438 500q-16 -101 36 -164.5t153 -63.5q100 0 172 63.5t88 164.5t-36 164.5t-152 63.5q-101 0 -173 -63.5t-88 -164.5z" />
    <glyph glyph-name="Cacute" unicode="&#x106;" horiz-adv-x="1511" 
d="M801 -31q-212 0 -360.5 93.5t-210.5 259.5t-28 378q25 158 98 293.5t180.5 232t250.5 151t302 54.5q204 0 348.5 -86t210.5 -240l-302 -148q-43 76 -121.5 118t-185.5 42q-183 0 -314 -116.5t-160 -300.5t65 -300.5t277 -116.5q107 0 198.5 42t158.5 118l256 -148
q-115 -154 -287 -240t-376 -86zM885 1710l128 288h314l-233 -288h-209z" />
    <glyph glyph-name="cacute" unicode="&#x107;" horiz-adv-x="1084" 
d="M580 -26q-231 0 -349.5 147t-82.5 379q37 232 202.5 379t396.5 147q163 0 273 -76.5t148 -209.5l-285 -138q-16 59 -64 92.5t-120 33.5q-101 0 -173 -63.5t-88 -164.5t36 -164.5t153 -63.5q72 0 130.5 33.5t93.5 92.5l241 -138q-81 -133 -215 -209.5t-297 -76.5z
M612 1310l129 288h314l-234 -288h-209z" />
    <glyph glyph-name="Cdotaccent" unicode="&#x10a;" horiz-adv-x="1511" 
d="M801 -31q-212 0 -360.5 93.5t-210.5 259.5t-28 378q25 158 98 293.5t180.5 232t250.5 151t302 54.5q204 0 348.5 -86t210.5 -240l-302 -148q-43 76 -121.5 118t-185.5 42q-183 0 -314 -116.5t-160 -300.5t65 -300.5t277 -116.5q107 0 198.5 42t158.5 118l256 -148
q-115 -154 -287 -240t-376 -86zM878 1781q10 63 63 106.5t120 43.5q66 0 104 -43.5t28 -106.5q-10 -64 -61 -107t-118 -43q-68 0 -107 43t-29 107z" />
    <glyph glyph-name="cdotaccent" unicode="&#x10b;" horiz-adv-x="1084" 
d="M580 -26q-231 0 -349.5 147t-82.5 379q37 232 202.5 379t396.5 147q163 0 273 -76.5t148 -209.5l-285 -138q-16 59 -64 92.5t-120 33.5q-101 0 -173 -63.5t-88 -164.5t36 -164.5t153 -63.5q72 0 130.5 33.5t93.5 92.5l241 -138q-81 -133 -215 -209.5t-297 -76.5z
M604 1357q10 63 63 106.5t120 43.5q66 0 104 -43.5t28 -106.5q-11 -64 -62 -107t-117 -43q-68 0 -107 43t-29 107z" />
    <glyph glyph-name="Ccaron" unicode="&#x10c;" horiz-adv-x="1511" 
d="M801 -31q-212 0 -360.5 93.5t-210.5 259.5t-28 378q25 158 98 293.5t180.5 232t250.5 151t302 54.5q204 0 348.5 -86t210.5 -240l-302 -148q-43 76 -121.5 118t-185.5 42q-183 0 -314 -116.5t-160 -300.5t65 -300.5t277 -116.5q107 0 198.5 42t158.5 118l256 -148
q-115 -154 -287 -240t-376 -86zM703 1998h209l141 -188l197 188h209l-243 -288h-355z" />
    <glyph glyph-name="ccaron" unicode="&#x10d;" horiz-adv-x="1084" 
d="M580 -26q-231 0 -349.5 147t-82.5 379q37 232 202.5 379t396.5 147q163 0 273 -76.5t148 -209.5l-285 -138q-16 59 -64 92.5t-120 33.5q-101 0 -173 -63.5t-88 -164.5t36 -164.5t153 -63.5q72 0 130.5 33.5t93.5 92.5l241 -138q-81 -133 -215 -209.5t-297 -76.5z
M434 1582h209l140 -188l198 188h209l-244 -288h-355z" />
    <glyph glyph-name="Dcaron" unicode="&#x10e;" horiz-adv-x="1416" 
d="M125 0l222 1400h500q213 0 361.5 -89.5t211.5 -248.5t31 -362q-24 -152 -96 -281.5t-179 -222t-249.5 -144.5t-301.5 -52h-500zM487 300h186q183 0 313 112t158 288t-67 288t-278 112h-186zM669 1985h209l141 -188l197 188h209l-243 -288h-355z" />
    <glyph glyph-name="dcaron" unicode="&#x10f;" horiz-adv-x="1265" 
d="M580 -26q-231 0 -349.5 147t-82.5 379q37 232 202.5 379t396.5 147q89 0 162 -34t115 -94l96 602h313l-238 -1500h-323l17 109q-53 -62 -138.5 -98.5t-170.5 -36.5zM380 1594h209l141 -188l197 188h209l-243 -288h-355zM438 500q-16 -101 36 -164.5t153 -63.5
q100 0 172 63.5t88 164.5t-36 164.5t-152 63.5q-101 0 -173 -63.5t-88 -164.5z" />
    <glyph glyph-name="Dcroat" unicode="&#x110;" horiz-adv-x="1417" 
d="M123 0l93 590h-278l35 220h278l94 590h500q213 0 361.5 -89.5t211.5 -248.5t31 -362q-24 -152 -96 -281.5t-179 -222t-249.5 -144.5t-301.5 -52h-500zM485 300h186q183 0 313 112t158 288t-67 288t-278 112h-186l-46 -290h114l-35 -220h-114z" />
    <glyph glyph-name="dcroat" unicode="&#x111;" horiz-adv-x="1228" 
d="M583 -26q-231 0 -349.5 147t-82.5 379q37 232 202.5 379t396.5 147q89 0 162 -34t115 -94l43 269h-210l35 220h210l18 113h313l-18 -113h183l-35 -220h-183l-185 -1167h-323l17 109q-53 -62 -138.5 -98.5t-170.5 -36.5zM441 500q-16 -101 36 -164.5t153 -63.5
q100 0 172 63.5t88 164.5t-36 164.5t-152 63.5q-101 0 -173 -63.5t-88 -164.5z" />
    <glyph glyph-name="Emacron" unicode="&#x112;" horiz-adv-x="1173" 
d="M125 0l222 1400h932l-48 -300h-618l-34 -218h477l-48 -300h-477l-44 -282h618l-48 -300h-932zM518 1663l35 220h706l-35 -220h-706z" />
    <glyph glyph-name="emacron" unicode="&#x113;" horiz-adv-x="1175" 
d="M876 621q-20 50 -65.5 78.5t-111.5 28.5q-134 0 -212 -107h389zM148 500q37 232 202.5 379t396.5 147t349.5 -147t81.5 -379l-15 -99h-721q15 -60 63.5 -94.5t121.5 -34.5q117 0 193 84l241 -143q-83 -112 -208 -175.5t-273 -63.5q-231 0 -349.5 147t-82.5 379zM405 1272
l35 220h706l-35 -220h-706z" />
    <glyph glyph-name="Edotaccent" unicode="&#x116;" horiz-adv-x="1173" 
d="M125 0l222 1400h932l-48 -300h-618l-34 -218h477l-48 -300h-477l-44 -282h618l-48 -300h-932zM702 1752q11 63 63.5 106.5t119.5 43.5q66 0 104.5 -43.5t27.5 -106.5q-10 -64 -60.5 -107t-117.5 -43q-68 0 -107.5 43t-29.5 107z" />
    <glyph glyph-name="edotaccent" unicode="&#x117;" horiz-adv-x="1175" 
d="M876 621q-20 50 -65.5 78.5t-111.5 28.5q-134 0 -212 -107h389zM148 500q37 232 202.5 379t396.5 147t349.5 -147t81.5 -379l-15 -99h-721q15 -60 63.5 -94.5t121.5 -34.5q117 0 193 84l241 -143q-83 -112 -208 -175.5t-273 -63.5q-231 0 -349.5 147t-82.5 379zM646 1403
q11 63 63.5 106.5t119.5 43.5q66 0 104.5 -43.5t27.5 -106.5q-10 -64 -61 -107t-118 -43q-68 0 -107 43t-29 107z" />
    <glyph glyph-name="Eogonek" unicode="&#x118;" horiz-adv-x="1357" 
d="M125 0l222 1400h932l-48 -300h-618l-34 -218h477l-48 -300h-477l-44 -282h618l-48 -300h-28q-15 -12 -52.5 -41.5t-57 -46.5t-45.5 -42t-39.5 -48t-16.5 -45q-4 -23 9.5 -40.5t39.5 -17.5q40 0 72 27t38 65h192q-12 -77 -61 -141q-51 -68 -125.5 -107t-158.5 -39
q-81 0 -139 38q-55 38 -79.5 99t-13.5 128q16 109 109 185l31 26h-607z" />
    <glyph glyph-name="eogonek" unicode="&#x119;" horiz-adv-x="1175" 
d="M876 621q-20 50 -65.5 78.5t-111.5 28.5q-134 0 -212 -107h389zM148 500q37 232 202.5 379t396.5 147t349.5 -147t81.5 -379l-15 -99h-721q15 -60 63.5 -94.5t121.5 -34.5q117 0 193 84l241 -143q-126 -170 -329 -220q-11 -9 -42.5 -34t-46 -37t-39 -34t-36.5 -37.5
t-23.5 -35.5t-14.5 -38q-4 -23 9 -40.5t40 -17.5q40 0 72 27t38 65h192q-12 -77 -61 -141q-51 -68 -125.5 -107t-158.5 -39q-81 0 -139 38q-55 38 -79.5 99t-13.5 128q16 109 109 185l22 18q-163 44 -240 180.5t-47 327.5z" />
    <glyph glyph-name="Ecaron" unicode="&#x11a;" horiz-adv-x="1173" 
d="M125 0l222 1400h932l-48 -300h-618l-34 -218h477l-48 -300h-477l-44 -282h618l-48 -300h-932zM544 1989h209l140 -188l198 188h209l-244 -288h-355z" />
    <glyph glyph-name="ecaron" unicode="&#x11b;" horiz-adv-x="1245" 
d="M946 621q-20 50 -65.5 78.5t-111.5 28.5q-134 0 -212 -107h389zM218 500q37 232 202.5 379t396.5 147t349.5 -147t81.5 -379l-15 -99h-721q15 -60 63.5 -94.5t121.5 -34.5q117 0 193 84l241 -143q-83 -112 -208 -175.5t-273 -63.5q-231 0 -349.5 147t-82.5 379zM512 1562
h209l141 -188l197 188h209l-243 -288h-355z" />
    <glyph glyph-name="Gbreve" unicode="&#x11e;" horiz-adv-x="1487" 
d="M797 -31q-212 0 -360.5 93.5t-210.5 259.5t-28 378q25 158 98 293.5t180.5 232t250.5 151t302 54.5q204 0 348.5 -86t210.5 -240l-302 -148q-43 76 -121.5 118t-185.5 42q-183 0 -314 -116.5t-160 -300.5t65 -300.5t277 -116.5q167 0 290 98l25 157h-408l48 300h722
l-92 -577q-115 -138 -279 -215t-356 -77zM708 2006h188q-11 -63 28.5 -107.5t106.5 -44.5t119.5 43.5t62.5 108.5h188q-15 -94 -73 -168q-59 -77 -145 -120.5t-181 -43.5t-167 45q-73 45 -107 121t-20 166z" />
    <glyph glyph-name="gbreve" unicode="&#x11f;" horiz-adv-x="1331" 
d="M357 -44q21 -73 74 -113.5t131 -40.5q123 0 208.5 48.5t99.5 139.5l19 119q-53 -62 -138.5 -98.5t-170.5 -36.5q-231 0 -349.5 147t-82.5 379q37 232 202.5 379t396.5 147q89 0 162 -34t115 -94l16 102h313l-160 -1010q-23 -147 -122.5 -260t-242.5 -171.5t-304 -58.5
q-172 0 -300 90.5t-172 242.5zM438 500q-16 -101 36 -164.5t153 -63.5q100 0 172 63.5t88 164.5t-36 164.5t-152 63.5q-101 0 -173 -63.5t-88 -164.5zM499 1645h188q-11 -63 28 -107.5t106 -44.5t120 43.5t63 108.5h188q-15 -94 -73 -168q-59 -77 -145 -120.5t-181 -43.5
q-97 0 -167 45q-73 46 -107.5 121.5t-19.5 165.5z" />
    <glyph glyph-name="Gdotaccent" unicode="&#x120;" horiz-adv-x="1487" 
d="M797 -31q-212 0 -360.5 93.5t-210.5 259.5t-28 378q25 158 98 293.5t180.5 232t250.5 151t302 54.5q204 0 348.5 -86t210.5 -240l-302 -148q-43 76 -121.5 118t-185.5 42q-183 0 -314 -116.5t-160 -300.5t65 -300.5t277 -116.5q167 0 290 98l25 157h-408l48 300h722
l-92 -577q-115 -138 -279 -215t-356 -77zM891 1781q10 63 63 106.5t120 43.5q66 0 104 -43.5t28 -106.5q-10 -64 -61 -107t-118 -43q-68 0 -107 43t-29 107z" />
    <glyph glyph-name="gdotaccent" unicode="&#x121;" horiz-adv-x="1331" 
d="M357 -44q21 -73 74 -113.5t131 -40.5q123 0 208.5 48.5t99.5 139.5l19 119q-53 -62 -138.5 -98.5t-170.5 -36.5q-231 0 -349.5 147t-82.5 379q37 232 202.5 379t396.5 147q89 0 162 -34t115 -94l16 102h313l-160 -1010q-23 -147 -122.5 -260t-242.5 -171.5t-304 -58.5
q-172 0 -300 90.5t-172 242.5zM438 500q-16 -101 36 -164.5t153 -63.5q100 0 172 63.5t88 164.5t-36 164.5t-152 63.5q-101 0 -173 -63.5t-88 -164.5zM758 1426q10 63 63 106.5t120 43.5q66 0 104 -43.5t28 -106.5q-11 -64 -62 -107t-117 -43q-68 0 -107 43t-29 107z" />
    <glyph glyph-name="uni0122" unicode="&#x122;" horiz-adv-x="1494" 
d="M801 -31q-212 0 -360.5 93.5t-210.5 259.5t-28 378q25 158 98 293.5t180.5 232t250.5 151t302 54.5q204 0 348.5 -86t210.5 -240l-302 -148q-43 76 -121.5 118t-185.5 42q-183 0 -314 -116.5t-160 -300.5t65 -300.5t277 -116.5q167 0 290 98l25 157h-408l48 300h722
l-92 -577q-115 -138 -279 -215t-356 -77zM581 -500l128 288h314l-233 -288h-209z" />
    <glyph glyph-name="uni0123" unicode="&#x123;" horiz-adv-x="1308" 
d="M360 -44q21 -73 74 -113.5t131 -40.5q123 0 208.5 48.5t99.5 139.5l19 119q-53 -62 -138.5 -98.5t-170.5 -36.5q-231 0 -349.5 147t-82.5 379q37 232 202.5 379t396.5 147q89 0 162 -34t115 -94l16 102h313l-160 -1010q-23 -147 -122.5 -260t-242.5 -171.5t-304 -58.5
q-172 0 -300 90.5t-172 242.5zM441 500q-16 -101 36 -164.5t153 -63.5q100 0 172 63.5t88 164.5t-36 164.5t-152 63.5q-101 0 -173 -63.5t-88 -164.5zM713 1267l128 288h314l-233 -288h-209z" />
    <glyph glyph-name="Hbar" unicode="&#x126;" horiz-adv-x="1379" 
d="M135 0l168 1061h-151l22 140h151l32 199h314l-32 -199h555l32 199h313l-32 -199h82l-22 -140h-82l-168 -1061h-313l95 600h-555l-95 -600h-314zM592 900h555l25 161h-555z" />
    <glyph glyph-name="hbar" unicode="&#x127;" horiz-adv-x="1130" 
d="M49 0l184 1167h-220l35 220h220l18 113h314l-18 -113h172l-35 -220h-172l-36 -230q125 91 275 91q114 0 197 -52q85 -53 125 -142t23 -195l-101 -639h-314l88 555q11 72 -32 120.5t-117 48.5q-75 0 -134 -48.5t-70 -120.5l-88 -555h-314z" />
    <glyph glyph-name="Itilde" unicode="&#x128;" horiz-adv-x="574" 
d="M100 0l222 1400h313l-222 -1400h-313zM160 1656q-26 90 10 173q30 67 92.5 108.5t139.5 41.5q34 0 76.5 -16.5t64 -29t69.5 -43.5q34 -23 50.5 -33.5t38 -20.5t36.5 -10q16 0 24.5 17t-1 37.5t-38.5 27.5l215 62q33 -90 -7 -176q-32 -66 -95.5 -108t-140.5 -42
q-32 0 -71.5 16.5t-58.5 29t-64 43.5q-52 37 -81.5 52.5t-49.5 10.5q-52 -9 -18 -92z" />
    <glyph glyph-name="itilde" unicode="&#x129;" horiz-adv-x="412" 
d="M57 0l158 1000h314l-158 -1000h-314zM30 1254q-27 91 9 173q31 67 94 108.5t139 41.5q11 0 22.5 -1.5t21 -3.5t22.5 -7t21 -7.5t22 -10t20 -10.5t21.5 -12.5t20 -12t20.5 -12.5t19 -12q92 -64 125 -64q16 0 24.5 17t-1 37.5t-38.5 27.5l214 62q33 -89 -7 -176
q-32 -67 -95 -108.5t-140 -41.5q-32 0 -71 16t-60.5 30t-62.5 43q-37 25 -55 37t-40 20.5t-36 5.5q-53 -9 -19 -92z" />
    <glyph glyph-name="Imacron" unicode="&#x12a;" horiz-adv-x="501" 
d="M75 0l222 1400h313l-222 -1400h-313zM125 1665l35 220h706l-35 -220h-706z" />
    <glyph glyph-name="imacron" unicode="&#x12b;" horiz-adv-x="437" 
d="M61 0l158 1000h314l-158 -1000h-314zM42 1272l35 220h706l-35 -220h-706z" />
    <glyph glyph-name="Iogonek" unicode="&#x12e;" horiz-adv-x="655" 
d="M165 -476q-81 0 -139 38q-55 38 -79.5 99t-13.5 128q16 109 109 185l40 33l221 1393h313l-222 -1400h-24q-15 -12 -52.5 -41.5t-57 -46.5t-45.5 -42t-39.5 -48t-16.5 -45q-4 -23 9.5 -40.5t39.5 -17.5q40 0 72 27t38 65h192q-12 -77 -61 -141q-51 -68 -125.5 -107
t-158.5 -39z" />
    <glyph glyph-name="iogonek" unicode="&#x12f;" horiz-adv-x="420" 
d="M135 -476q-81 0 -139 38q-55 38 -79.5 99t-13.5 128q16 109 109 185l45 37l156 989h314l-158 -1000h-29q-15 -12 -52.5 -41.5t-57 -46.5t-45.5 -42t-39.5 -48t-16.5 -45q-4 -23 9.5 -40.5t39.5 -17.5q40 0 72 27t38 65h192q-12 -77 -61 -141q-51 -68 -125.5 -107
t-158.5 -39z" />
    <glyph glyph-name="Idotaccent" unicode="&#x130;" horiz-adv-x="626" 
d="M158 0l222 1400h313l-222 -1400h-313zM434 1761q10 63 63 106.5t120 43.5q66 0 104 -43.5t28 -106.5q-11 -64 -62 -107t-117 -43q-68 0 -107 43t-29 107z" />
    <glyph glyph-name="dotlessi" unicode="&#x131;" horiz-adv-x="585" 
d="M135 0l158 1000h314l-158 -1000h-314z" />
    <glyph glyph-name="IJ" unicode="&#x132;" horiz-adv-x="2003" 
d="M151 0l222 1400h313l-222 -1400h-313zM766 584h313q-21 -137 42.5 -223.5t190.5 -86.5q129 0 219 85.5t111 224.5l130 816h313l-130 -816q-27 -171 -123 -309.5t-245 -219.5t-322 -81q-177 0 -296 82q-122 82 -175.5 220.5t-27.5 307.5z" />
    <glyph glyph-name="ij" unicode="&#x133;" horiz-adv-x="1139" 
d="M89 0l158 1000h314l-158 -1000h-314zM304 1393q10 62 62 106t117 44t104.5 -44t29.5 -106q-10 -63 -63 -106.5t-118 -43.5t-103.5 43.5t-28.5 106.5zM463 -500l47 300q75 0 135.5 49.5t72.5 122.5l162 1028h313l-162 -1028q-21 -132 -104 -237q-85 -109 -207 -172
t-257 -63zM940 1393q10 62 62 106t117 44t104.5 -44t29.5 -106q-10 -63 -63 -106.5t-118 -43.5t-103.5 43.5t-28.5 106.5z" />
    <glyph glyph-name="uni0136" unicode="&#x136;" horiz-adv-x="1326" 
d="M130 0l222 1400h314l-76 -476l492 476h409l-683 -660l461 -740h-409l-294 506l-49 -48l-73 -458h-314zM468 -500l128 288h314l-233 -288h-209z" />
    <glyph glyph-name="uni0137" unicode="&#x137;" horiz-adv-x="1233" 
d="M130 0l238 1500h314l-130 -818l328 318h410l-425 -412l262 -588h-361l-155 344l-133 -128l-34 -216h-314zM400 -500l128 288h314l-233 -288h-209z" />
    <glyph glyph-name="Lacute" unicode="&#x139;" horiz-adv-x="1173" 
d="M125 0l222 1400h314l-174 -1100h618l-48 -300h-932zM455 1710l128 288h314l-233 -288h-209z" />
    <glyph glyph-name="lacute" unicode="&#x13a;" horiz-adv-x="603" 
d="M125 0l238 1500h314l-238 -1500h-314zM428 1710l128 288h314l-233 -288h-209z" />
    <glyph glyph-name="uni013B" unicode="&#x13b;" horiz-adv-x="1182" 
d="M130 0l222 1400h314l-174 -1100h618l-48 -300h-932zM385 -500l128 288h314l-233 -288h-209z" />
    <glyph glyph-name="uni013C" unicode="&#x13c;" horiz-adv-x="595" 
d="M137 0l238 1500h314l-238 -1500h-314zM-5 -500l128 288h314l-233 -288h-209z" />
    <glyph glyph-name="Lcaron" unicode="&#x13d;" horiz-adv-x="1173" 
d="M125 0l222 1400h314l-174 -1100h618l-48 -300h-932zM516 1993h209l140 -188l198 188h209l-244 -288h-355z" />
    <glyph glyph-name="lcaron" unicode="&#x13e;" horiz-adv-x="428" 
d="M45 0l238 1500h314l-238 -1500h-314zM152 1998h209l141 -188l197 188h209l-243 -288h-355z" />
    <glyph glyph-name="Lslash" unicode="&#x141;" horiz-adv-x="1155" 
d="M57 0l124 781l-118 -62l-80 190l238 126l58 365h314l-29 -184l86 46l80 -190l-207 -109l-104 -663h618l-48 -300h-932z" />
    <glyph glyph-name="lslash" unicode="&#x142;" horiz-adv-x="471" 
d="M48 0l123 776l-108 -57l-80 190l228 121l75 470h314l-46 -289l96 51l80 -190l-216 -114l-152 -958h-314z" />
    <glyph glyph-name="Nacute" unicode="&#x143;" horiz-adv-x="1449" 
d="M125 0l222 1400h339l399 -858l136 858h314l-222 -1400h-339l-399 858l-136 -858h-314zM870 1710l128 288h314l-233 -288h-209z" />
    <glyph glyph-name="nacute" unicode="&#x144;" horiz-adv-x="1203" 
d="M126 0l157 1000h314l-9 -63q125 91 275 91q114 0 197 -52q85 -53 125 -142t23 -195l-101 -639h-314l88 555q11 72 -32 120.5t-117 48.5q-75 0 -134 -48.5t-70 -120.5l-88 -555h-314zM673 1310l129 288h314l-234 -288h-209z" />
    <glyph glyph-name="uni0145" unicode="&#x145;" horiz-adv-x="1459" 
d="M130 0l222 1400h339l399 -858l136 858h314l-222 -1400h-339l-399 858l-136 -858h-314zM557 -500l128 288h314l-233 -288h-209z" />
    <glyph glyph-name="uni0146" unicode="&#x146;" horiz-adv-x="1212" 
d="M131 0l157 1000h314l-9 -63q125 91 275 91q114 0 197 -52q85 -53 125 -142t23 -195l-101 -639h-314l88 555q11 72 -32 120.5t-117 48.5q-75 0 -134 -48.5t-70 -120.5l-88 -555h-314zM422 -500l128 288h314l-233 -288h-209z" />
    <glyph glyph-name="Ncaron" unicode="&#x147;" horiz-adv-x="1449" 
d="M125 0l222 1400h339l399 -858l136 858h314l-222 -1400h-339l-399 858l-136 -858h-314zM680 1993h209l140 -188l198 188h209l-244 -288h-355z" />
    <glyph glyph-name="ncaron" unicode="&#x148;" horiz-adv-x="1203" 
d="M126 0l157 1000h314l-9 -63q125 91 275 91q114 0 197 -52q85 -53 125 -142t23 -195l-101 -639h-314l88 555q11 72 -32 120.5t-117 48.5q-75 0 -134 -48.5t-70 -120.5l-88 -555h-314zM486 1575h209l141 -188l197 188h209l-243 -288h-355z" />
    <glyph glyph-name="Omacron" unicode="&#x14c;" horiz-adv-x="1613" 
d="M797 -31q-212 0 -360.5 93.5t-210.5 259.5t-28 378q25 158 98 293.5t180.5 232t250.5 151t302 54.5q213 0 361 -93.5t209.5 -259.5t28.5 -378q-25 -158 -98 -293.5t-180.5 -232t-250.5 -151t-302 -54.5zM505 700q-29 -184 65 -300.5t277 -116.5t313.5 116.5t160.5 300.5
q29 184 -65 300.5t-277 116.5t-314 -116.5t-160 -300.5zM690 1653l35 220h706l-35 -220h-706z" />
    <glyph glyph-name="omacron" unicode="&#x14d;" horiz-adv-x="1175" 
d="M580 -26q-231 0 -349.5 147t-82.5 379q37 232 202.5 379t396.5 147t349.5 -147t81.5 -379q-36 -232 -201.5 -379t-396.5 -147zM438 500q-16 -101 36 -164.5t153 -63.5q100 0 172 63.5t88 164.5t-36 164.5t-152 63.5q-101 0 -173 -63.5t-88 -164.5zM439 1251l35 220h706
l-35 -220h-706z" />
    <glyph glyph-name="Ohungarumlaut" unicode="&#x150;" horiz-adv-x="1613" 
d="M797 -31q-212 0 -360.5 93.5t-210.5 259.5t-28 378q25 158 98 293.5t180.5 232t250.5 151t302 54.5q213 0 361 -93.5t209.5 -259.5t28.5 -378q-25 -158 -98 -293.5t-180.5 -232t-250.5 -151t-302 -54.5zM408 1702l128 288h314l-233 -288h-209zM505 700
q-29 -184 65 -300.5t277 -116.5t313.5 116.5t160.5 300.5q29 184 -65 300.5t-277 116.5t-314 -116.5t-160 -300.5zM1050 1702l128 288h314l-233 -288h-209z" />
    <glyph glyph-name="ohungarumlaut" unicode="&#x151;" horiz-adv-x="1240" 
d="M580 -26q-231 0 -349.5 147t-82.5 379q37 232 202.5 379t396.5 147t349.5 -147t81.5 -379q-36 -232 -201.5 -379t-396.5 -147zM311 1309l129 288h314l-234 -288h-209zM438 500q-16 -101 36 -164.5t153 -63.5q100 0 172 63.5t88 164.5t-36 164.5t-152 63.5
q-101 0 -173 -63.5t-88 -164.5zM953 1309l129 288h314l-234 -288h-209z" />
    <glyph glyph-name="OE" unicode="&#x152;" horiz-adv-x="2270" 
d="M797 -31q-212 0 -360.5 93.5t-210.5 259.5t-28 378q25 158 98 293.5t180.5 232t250.5 151t302 54.5q242 0 400 -122l15 91h932l-48 -300h-618l-34 -218h477l-48 -300h-477l-44 -282h618l-48 -300h-932l14 91q-197 -122 -439 -122zM505 700q-29 -184 65 -300.5t277 -116.5
t313.5 116.5t160.5 300.5q29 184 -65 300.5t-277 116.5t-314 -116.5t-160 -300.5z" />
    <glyph glyph-name="oe" unicode="&#x153;" horiz-adv-x="1928" 
d="M586 -26q-231 0 -349.5 147t-82.5 379q37 232 202.5 379t396.5 147q229 0 349 -147q168 147 398 147q231 0 349.5 -147t81.5 -379l-15 -99h-721q15 -60 63.5 -94.5t121.5 -34.5q117 0 193 84l241 -143q-83 -112 -208 -175.5t-273 -63.5q-230 0 -350 147
q-168 -147 -397 -147zM444 500q-16 -101 36 -164.5t153 -63.5q100 0 172 63.5t88 164.5t-36 164.5t-152 63.5q-101 0 -173 -63.5t-88 -164.5zM1240 621h389q-20 50 -65.5 78.5t-111.5 28.5q-134 0 -212 -107z" />
    <glyph glyph-name="Racute" unicode="&#x154;" horiz-adv-x="1355" 
d="M125 0l222 1400h609q91 0 165 -28t127.5 -83t75 -145.5t2.5 -207.5v-1q-24 -155 -102 -260t-191 -157l206 -518h-362l-187 471h-176l-75 -471h-314zM555 735h256q72 0 130.5 51.5t74.5 152.5v1q16 101 -26 152.5t-114 51.5h-256zM737 1710l128 288h314l-233 -288h-209z
" />
    <glyph glyph-name="racute" unicode="&#x155;" horiz-adv-x="851" 
d="M874 703q-80 37 -153 27.5t-127.5 -58.5t-65.5 -117l-88 -555h-314l157 1000h314l-9 -63q98 71 216 87t235 -35zM463 1293l128 288h314l-233 -288h-209z" />
    <glyph glyph-name="uni0156" unicode="&#x156;" horiz-adv-x="1365" 
d="M130 0l222 1400h609q91 0 165 -28t127.5 -83t75 -145.5t2.5 -207.5v-1q-24 -155 -102 -260t-191 -157l206 -518h-362l-187 471h-176l-75 -471h-314zM465 -500l128 288h314l-233 -288h-209zM560 735h256q72 0 130.5 51.5t74.5 152.5v1q16 101 -26 152.5t-114 51.5h-256z
" />
    <glyph glyph-name="uni0157" unicode="&#x157;" horiz-adv-x="871" 
d="M893 703q-80 37 -153 27.5t-127.5 -58.5t-65.5 -117l-88 -555h-314l157 1000h314l-9 -63q98 71 216 87t235 -35zM86 -500l128 288h314l-233 -288h-209z" />
    <glyph glyph-name="Rcaron" unicode="&#x158;" horiz-adv-x="1355" 
d="M125 0l222 1400h609q91 0 165 -28t127.5 -83t75 -145.5t2.5 -207.5v-1q-24 -155 -102 -260t-191 -157l206 -518h-362l-187 471h-176l-75 -471h-314zM555 735h256q72 0 130.5 51.5t74.5 152.5v1q16 101 -26 152.5t-114 51.5h-256zM592 2008h209l140 -188l198 188h209
l-244 -288h-355z" />
    <glyph glyph-name="rcaron" unicode="&#x159;" horiz-adv-x="927" 
d="M915 703q-80 37 -153 27.5t-127.5 -58.5t-65.5 -117l-88 -555h-314l157 1000h314l-9 -63q98 71 216 87t235 -35zM386 1584h209l140 -188l198 188h209l-244 -288h-355z" />
    <glyph glyph-name="Sacute" unicode="&#x15a;" horiz-adv-x="1332" 
d="M660 -26q-197 0 -338 85t-172 225l289 96q12 -55 87.5 -92.5t177.5 -37.5q112 0 195.5 45t93.5 111q7 46 -26 78q-61 54 -214 78q-157 23 -275 72q-254 107 -215 359q21 129 114 227q93 97 229 151t284 54q197 0 337 -85.5t171 -226.5l-289 -94q-11 54 -86 91t-177 37
q-105 2 -192.5 -42.5t-98.5 -111.5q-9 -59 22 -89q29 -27 80.5 -40.5t139.5 -25.5q145 -21 265 -74q261 -119 223 -358q-19 -129 -113 -227q-92 -97 -227.5 -151t-284.5 -54zM777 1710l128 288h314l-233 -288h-209z" />
    <glyph glyph-name="sacute" unicode="&#x15b;" horiz-adv-x="936" 
d="M526 239q-84 0 -122 27.5t-43 80.5l-259 -89q6 -131 116.5 -209t264.5 -78h1q105 0 205 39.5t168 110.5q78 76 94 184q16 100 -33 172.5t-141 113.5q-95 38 -170 51q-101 17 -123 27q-29 14 -25 38q5 32 52 49t100 17q84 0 122 -27.5t43 -80.5l259 89q-6 131 -116.5 209
t-264.5 78q-104 0 -203.5 -39t-169.5 -110q-77 -83 -92 -185q-17 -108 30 -179.5t141 -107.5q68 -30 173 -49q29 -5 49.5 -9t47.5 -12t40 -19.5t11 -25.5q-5 -33 -52.5 -49.5t-101.5 -16.5h-1zM549 1304l128 288h314l-233 -288h-209z" />
    <glyph glyph-name="Scedilla" unicode="&#x15e;" horiz-adv-x="1332" 
d="M654 -425q-82 -20 -147 19t-74 114l158 39q2 -15 15 -23t31 -4q16 4 27 18t9 30q-3 28 -45 28h-153l134 180q-179 11 -304 94t-155 214l289 96q12 -55 87.5 -92.5t177.5 -37.5q112 0 195.5 45t93.5 111q7 46 -26 78q-61 54 -214 78q-157 23 -275 72q-254 107 -215 359
q21 129 114 227q93 97 229 151t284 54q197 0 337 -85.5t171 -226.5l-289 -94q-11 54 -86 91t-177 37q-105 2 -192.5 -42.5t-98.5 -111.5q-9 -59 22 -89q29 -27 80.5 -40.5t139.5 -25.5q145 -21 265 -74q261 -119 223 -358q-19 -129 -113 -227q-145 -152 -375 -193l2 -1
l-48 -61q73 -39 80 -118q8 -76 -43 -143.5t-134 -87.5z" />
    <glyph glyph-name="scedilla" unicode="&#x15f;" horiz-adv-x="936" 
d="M526 239q-84 0 -122 27.5t-43 80.5l-259 -89q5 -114 90 -188t213 -93l69 91l125 -76l-9 -11q164 32 267 140q78 76 94 184q16 100 -33 172.5t-141 113.5q-95 38 -170 51q-101 17 -123 27q-29 14 -25 38q5 32 52 49t100 17q84 0 122 -27.5t43 -80.5l259 89
q-6 131 -116.5 209t-264.5 78q-104 0 -203.5 -39t-169.5 -110q-77 -83 -92 -185q-17 -108 30 -179.5t141 -107.5q68 -30 173 -49q29 -5 49.5 -9t47.5 -12t40 -19.5t11 -25.5q-5 -33 -52.5 -49.5t-101.5 -16.5h-1zM233 -285l158 39q2 -15 15 -23t31 -4q17 4 27.5 18t8.5 30
q-3 28 -45 28h-153l130 174q39 -6 78 -6h1q48 0 106 10l-39 -50q73 -39 80 -118q9 -75 -42.5 -143t-134.5 -88q-82 -20 -147 19t-74 114z" />
    <glyph glyph-name="Scaron" unicode="&#x160;" horiz-adv-x="1332" 
d="M660 -26q-197 0 -338 85t-172 225l289 96q12 -55 87.5 -92.5t177.5 -37.5q112 0 195.5 45t93.5 111q7 46 -26 78q-61 54 -214 78q-157 23 -275 72q-254 107 -215 359q21 129 114 227q93 97 229 151t284 54q197 0 337 -85.5t171 -226.5l-289 -94q-11 54 -86 91t-177 37
q-105 2 -192.5 -42.5t-98.5 -111.5q-9 -59 22 -89q29 -27 80.5 -40.5t139.5 -25.5q145 -21 265 -74q261 -119 223 -358q-19 -129 -113 -227q-92 -97 -227.5 -151t-284.5 -54zM584 1997h209l141 -188l197 188h209l-243 -288h-355z" />
    <glyph glyph-name="scaron" unicode="&#x161;" horiz-adv-x="936" 
d="M526 239q-84 0 -122 27.5t-43 80.5l-259 -89q6 -131 116.5 -209t264.5 -78h1q105 0 205 39.5t168 110.5q78 76 94 184q16 100 -33 172.5t-141 113.5q-95 38 -170 51q-101 17 -123 27q-29 14 -25 38q5 32 52 49t100 17q84 0 122 -27.5t43 -80.5l259 89q-6 131 -116.5 209
t-264.5 78q-104 0 -203.5 -39t-169.5 -110q-77 -83 -92 -185q-17 -108 30 -179.5t141 -107.5q68 -30 173 -49q29 -5 49.5 -9t47.5 -12t40 -19.5t11 -25.5q-5 -33 -52.5 -49.5t-101.5 -16.5h-1zM361 1598h209l140 -188l198 188h209l-244 -288h-355z" />
    <glyph glyph-name="uni0162" unicode="&#x162;" horiz-adv-x="1340" 
d="M509 0l174 1100h-418l48 300h1149l-48 -300h-418l-174 -1100h-39l-25 -32q73 -39 80 -118q8 -76 -43 -143.5t-134 -87.5q-82 -20 -147 19t-74 114l158 39q2 -15 15 -23t31 -4q16 4 27 18t9 30q-3 28 -45 28h-153l120 160h-93z" />
    <glyph glyph-name="uni0163" unicode="&#x163;" horiz-adv-x="821" 
d="M586 358q-5 -31 10 -48t42.5 -19.5t58.5 2.5t62 16l-48 -307q-9 -2 -45 -4l-36 -46q72 -38 81 -118q8 -75 -43.5 -143t-134.5 -88q-82 -20 -147 19t-74 114l158 39q2 -15 15 -23t31 -4q17 4 27.5 18t9.5 30q-4 28 -46 28h-153l131 174q-262 31 -225 270l21 129l49 303
h-136l47 300h136l50 314h313l-50 -314h178l-47 -300h-178z" />
    <glyph glyph-name="Tcaron" unicode="&#x164;" horiz-adv-x="1424" 
d="M597 0l174 1100h-418l48 300h1149l-48 -300h-418l-174 -1100h-313zM685 1975h209l140 -188l198 188h209l-244 -288h-355z" />
    <glyph glyph-name="tcaron" unicode="&#x165;" horiz-adv-x="694" 
d="M567 358q-5 -31 10 -48t42.5 -19.5t58.5 2.5t62 16l-48 -307q-40 -8 -149 -8q-169 0 -246 68.5t-56 205.5l21 129l49 303h-136l47 300h136l50 314h313l-50 -314h178l-47 -300h-178zM236 1687h209l140 -188l198 188h209l-243 -288h-355z" />
    <glyph glyph-name="Utilde" unicode="&#x168;" horiz-adv-x="1451" 
d="M717 -26q-176 0 -297 82q-122 82 -175.5 221t-27.5 307l130 816h314l-130 -816q-21 -137 42 -223.5t191 -86.5q129 0 218.5 85.5t110.5 224.5l130 816h314l-130 -816q-27 -171 -123 -309.5t-245 -219.5t-322 -81zM651 1702q-27 91 9 173q31 67 94 108.5t139 41.5
q11 0 22.5 -1.5t21 -3.5t22.5 -7t21 -7.5t22 -10t20 -10.5t21.5 -12.5t20 -12t20.5 -12.5t19 -12q92 -64 124 -64q16 0 24.5 17t-1 37.5t-38.5 27.5l215 62q33 -89 -7 -176q-32 -67 -95 -108.5t-140 -41.5q-32 0 -71 16t-60.5 30t-62.5 43q-37 25 -55 37t-40 20.5t-36 5.5
q-53 -9 -19 -92z" />
    <glyph glyph-name="utilde" unicode="&#x169;" horiz-adv-x="1164" 
d="M489 -26q-110 0 -196 53t-125.5 141t-23.5 195l101 637h313l-87 -553q-11 -72 32.5 -120.5t117.5 -48.5q75 0 134 48.5t70 120.5l87 553h313l-157 -1000h-314l10 65q-128 -91 -275 -91zM410 1293q-27 91 9 173q31 67 94 108.5t139 41.5q11 0 22.5 -1.5t21 -3.5t22.5 -7
t21 -7.5t22 -10t20 -10.5t21.5 -12.5t20 -12t20.5 -12.5t19 -12q92 -64 125 -64q16 0 24.5 17t-1 37.5t-38.5 27.5l215 62q32 -88 -7 -176q-33 -67 -96 -108.5t-140 -41.5q-32 0 -71.5 16.5t-58.5 29t-64 43.5q-37 25 -55 37t-40 20.5t-36 5.5q-53 -9 -19 -92z" />
    <glyph glyph-name="Umacron" unicode="&#x16a;" horiz-adv-x="1451" 
d="M717 -26q-176 0 -297 82q-122 82 -175.5 221t-27.5 307l130 816h314l-130 -816q-21 -137 42 -223.5t191 -86.5q129 0 218.5 85.5t110.5 224.5l130 816h314l-130 -816q-27 -171 -123 -309.5t-245 -219.5t-322 -81zM637 1670l34 220h706l-34 -220h-706z" />
    <glyph glyph-name="umacron" unicode="&#x16b;" horiz-adv-x="1164" 
d="M489 -26q-110 0 -196 53t-125.5 141t-23.5 195l101 637h313l-87 -553q-11 -72 32.5 -120.5t117.5 -48.5q75 0 134 48.5t70 120.5l87 553h313l-157 -1000h-314l10 65q-128 -91 -275 -91zM414 1299l35 220h706l-35 -220h-706z" />
    <glyph glyph-name="Uring" unicode="&#x16e;" horiz-adv-x="1451" 
d="M717 -26q-176 0 -297 82q-122 82 -175.5 221t-27.5 307l130 816h314l-130 -816q-21 -137 42 -223.5t191 -86.5q129 0 218.5 85.5t110.5 224.5l130 816h314l-130 -816q-27 -171 -123 -309.5t-245 -219.5t-322 -81zM828 1856q13 83 82.5 140.5t157.5 57.5q87 0 139 -58.5
t39 -139.5q-14 -84 -84 -143t-157 -59q-85 0 -137.5 60t-39.5 142zM974 1856q-4 -26 11.5 -44t41.5 -18t47.5 18t25.5 43q4 24 -12 41.5t-42 17.5t-47 -17t-25 -41z" />
    <glyph glyph-name="uring" unicode="&#x16f;" horiz-adv-x="1164" 
d="M489 -26q-110 0 -196 53t-125.5 141t-23.5 195l101 637h313l-87 -553q-11 -72 32.5 -120.5t117.5 -48.5q75 0 134 48.5t70 120.5l87 553h313l-157 -1000h-314l10 65q-128 -91 -275 -91zM592 1449q14 83 83.5 140.5t157.5 57.5q87 0 139 -58.5t38 -139.5q-13 -84 -83 -143
t-157 -59q-85 0 -138 60t-40 142zM738 1449q-4 -26 12 -44t42 -18t47 18t25 43q4 24 -11.5 41.5t-41.5 17.5t-47 -17t-26 -41z" />
    <glyph glyph-name="Uhungarumlaut" unicode="&#x170;" horiz-adv-x="1453" 
d="M717 -26q-176 0 -297 82q-122 82 -175.5 221t-27.5 307l130 816h314l-130 -816q-21 -137 42 -223.5t191 -86.5q129 0 218.5 85.5t110.5 224.5l130 816h314l-130 -816q-27 -171 -123 -309.5t-245 -219.5t-322 -81zM526 1710l128 288h314l-233 -288h-209zM1168 1710
l128 288h314l-233 -288h-209z" />
    <glyph glyph-name="uhungarumlaut" unicode="&#x171;" horiz-adv-x="1260" 
d="M489 -26q-110 0 -196 53t-125.5 141t-23.5 195l101 637h313l-87 -553q-11 -72 32.5 -120.5t117.5 -48.5q75 0 134 48.5t70 120.5l87 553h313l-157 -1000h-314l10 65q-128 -91 -275 -91zM311 1321l129 288h314l-234 -288h-209zM953 1321l129 288h314l-234 -288h-209z" />
    <glyph glyph-name="Uogonek" unicode="&#x172;" horiz-adv-x="1451" 
d="M724 -454q-81 0 -139 38q-55 38 -79.5 98.5t-13.5 128.5q16 102 98 175q-96 19 -170 70q-122 82 -175.5 221t-27.5 307l130 816h314l-130 -816q-21 -137 42 -223.5t191 -86.5q129 0 218.5 85.5t110.5 224.5l130 816h314l-130 -816q-33 -211 -170.5 -370.5t-335.5 -214.5
q-6 -4 -24.5 -19t-25 -20t-23 -19t-24 -20.5t-21 -19t-20 -20.5t-16 -20t-14.5 -21t-9 -20t-6 -21q-3 -23 10.5 -40.5t39.5 -17.5q40 0 71.5 27t38.5 65h192q-14 -78 -62 -141q-51 -68 -125.5 -107t-158.5 -39z" />
    <glyph glyph-name="uogonek" unicode="&#x173;" horiz-adv-x="1261" 
d="M489 -26q-110 0 -196 53t-125.5 141t-23.5 195l101 637h313l-87 -553q-11 -72 32.5 -120.5t117.5 -48.5q75 0 134 48.5t70 120.5l87 553h313l-157 -1000h-22q-15 -12 -52.5 -41.5t-57 -46.5t-45.5 -42t-39.5 -48t-16.5 -45q-4 -23 9.5 -40.5t39.5 -17.5q40 0 72 27t38 65
h192q-12 -77 -61 -141q-51 -68 -125.5 -107t-158.5 -39q-81 0 -139 38q-55 38 -79.5 99t-13.5 128q16 109 109 185l37 31l9 60q-128 -91 -275 -91z" />
    <glyph glyph-name="Wcircumflex" unicode="&#x174;" horiz-adv-x="1904" 
d="M376 0l-152 1400h323l92 -848l360 848h289l90 -848l361 848h324l-595 -1400h-352l-80 726l-307 -726h-353zM814 1710l244 288h355l157 -288h-209l-140 188l-198 -188h-209z" />
    <glyph glyph-name="wcircumflex" unicode="&#x175;" horiz-adv-x="1846" 
d="M417 0l-190 1000h307l107 -562l284 562h305l106 -562l284 562h308l-507 -1000h-307l-106 562l-283 -562h-308zM744 1311l244 288h355l157 -288h-209l-141 188l-197 -188h-209z" />
    <glyph glyph-name="Ycircumflex" unicode="&#x176;" horiz-adv-x="1474" 
d="M577 0l100 630l-386 770h369l225 -444l365 444h370l-630 -770l-100 -630h-313zM636 1710l244 288h355l157 -288h-209l-140 188l-198 -188h-209z" />
    <glyph glyph-name="ycircumflex" unicode="&#x177;" horiz-adv-x="1276" 
d="M196 -500l267 500l-218 1000h343l97 -590l319 590h334l-810 -1500h-332zM468 1310l245 288h355l156 -288h-209l-140 188l-198 -188h-209z" />
    <glyph glyph-name="Ydieresis" unicode="&#x178;" horiz-adv-x="1474" 
d="M577 0l100 630l-386 770h369l225 -444l365 444h370l-630 -770l-100 -630h-313zM632 1814q11 63 63.5 106.5t119.5 43.5q66 0 104.5 -43.5t27.5 -106.5q-10 -64 -61.5 -107t-117.5 -43q-68 0 -107 43t-29 107zM1092 1814q11 63 63 106.5t119 43.5t105.5 -43.5t27.5 -106.5
q-10 -64 -61.5 -107t-118.5 -43t-106 43t-29 107z" />
    <glyph glyph-name="Zacute" unicode="&#x179;" horiz-adv-x="1365" 
d="M87 0l48 300l885 800h-759l48 300h1182l-48 -300l-884 -800h758l-48 -300h-1182zM785 1710l128 288h314l-233 -288h-209z" />
    <glyph glyph-name="zacute" unicode="&#x17a;" horiz-adv-x="1075" 
d="M87 0l48 300l502 400h-439l47 300h892l-47 -300l-502 -400h439l-48 -300h-892zM547 1299l128 288h314l-233 -288h-209z" />
    <glyph glyph-name="Zdotaccent" unicode="&#x17b;" horiz-adv-x="1365" 
d="M87 0l48 300l885 800h-759l48 300h1182l-48 -300l-884 -800h758l-48 -300h-1182zM803 1724q10 63 63 106.5t120 43.5q66 0 104 -43.5t28 -106.5q-10 -64 -61 -107t-118 -43q-68 0 -107 43t-29 107z" />
    <glyph glyph-name="zdotaccent" unicode="&#x17c;" horiz-adv-x="1075" 
d="M87 0l48 300l502 400h-439l47 300h892l-47 -300l-502 -400h439l-48 -300h-892zM602 1410q11 63 63.5 106.5t119.5 43.5q66 0 104.5 -43.5t27.5 -106.5q-10 -64 -60.5 -107t-117.5 -43q-68 0 -107.5 43t-29.5 107z" />
    <glyph glyph-name="Zcaron" unicode="&#x17d;" horiz-adv-x="1365" 
d="M87 0l48 300l885 800h-759l48 300h1182l-48 -300l-884 -800h758l-48 -300h-1182zM613 1981h209l140 -188l198 188h209l-244 -288h-355z" />
    <glyph glyph-name="zcaron" unicode="&#x17e;" horiz-adv-x="1075" 
d="M87 0l48 300l502 400h-439l47 300h892l-47 -300l-502 -400h439l-48 -300h-892zM417 1591h209l140 -188l198 188h209l-244 -288h-355z" />
    <glyph glyph-name="uni018F" unicode="&#x18f;" horiz-adv-x="1681" 
d="M1064 1417q212 0 357.5 -90.5t204 -252.5t25.5 -374q-34 -212 -144 -374t-284 -252.5t-386 -90.5q-319 0 -478 197.5t-108 519.5l16 100h1057q-11 124 -94.5 197.5t-219.5 73.5q-161 0 -278 -100l-349 80q111 174 286.5 270t394.5 96zM585 568q19 -111 100 -175.5
t207 -64.5q127 0 228 64.5t156 175.5h-691z" />
    <glyph glyph-name="uni0218" unicode="&#x218;" horiz-adv-x="1342" 
d="M665 -26q-197 0 -338 85t-172 225l289 96q12 -55 87.5 -92.5t177.5 -37.5q112 0 195.5 45t93.5 111q7 46 -26 78q-61 54 -214 78q-157 23 -275 72q-254 107 -215 359q21 129 114 227q93 97 229 151t284 54q197 0 337 -85.5t171 -226.5l-289 -94q-11 54 -86 91t-177 37
q-105 2 -192.5 -42.5t-98.5 -111.5q-9 -59 22 -89q29 -27 80.5 -40.5t139.5 -25.5q145 -21 265 -74q261 -119 223 -358q-19 -129 -113 -227q-92 -97 -227.5 -151t-284.5 -54zM364 -500l128 288h314l-233 -288h-209z" />
    <glyph glyph-name="uni0219" unicode="&#x219;" horiz-adv-x="940" 
d="M528 239q-84 0 -122 27.5t-43 80.5l-259 -89q6 -131 116.5 -209t264.5 -78h1q105 0 205 39.5t168 110.5q78 76 94 184q16 100 -33 172.5t-141 113.5q-95 38 -170 51q-101 17 -123 27q-29 14 -25 38q5 32 52 49t100 17q84 0 122 -27.5t43 -80.5l259 89q-6 131 -116.5 209
t-264.5 78q-104 0 -203.5 -39t-169.5 -110q-77 -83 -92 -185q-17 -108 30 -179.5t141 -107.5q68 -30 173 -49q29 -5 49.5 -9t47.5 -12t40 -19.5t11 -25.5q-5 -33 -52.5 -49.5t-101.5 -16.5h-1zM296 -500l128 288h314l-233 -288h-209z" />
    <glyph glyph-name="uni021A" unicode="&#x21a;" horiz-adv-x="1340" 
d="M509 0l174 1100h-418l48 300h1149l-48 -300h-418l-174 -1100h-313zM438 -500l128 288h314l-233 -288h-209z" />
    <glyph glyph-name="uni021B" unicode="&#x21b;" horiz-adv-x="787" 
d="M586 358q-5 -31 10 -48t42.5 -19.5t58.5 2.5t62 16l-48 -307q-40 -8 -149 -8q-169 0 -246 68.5t-56 205.5l21 129l49 303h-136l47 300h136l50 314h313l-50 -314h178l-47 -300h-178zM284 -500l128 288h314l-233 -288h-209z" />
    <glyph glyph-name="uni0237" unicode="&#x237;" horiz-adv-x="566" 
d="M-101 -200q75 0 135.5 49.5t72.5 122.5l162 1028h313l-162 -1028q-21 -132 -104 -237q-85 -109 -207 -172t-257 -63z" />
    <glyph glyph-name="uni0259" unicode="&#x259;" horiz-adv-x="1192" 
d="M436 384q20 -50 65.5 -78.5t111.5 -28.5q134 0 212 107h-389zM134 505l16 99h721q-16 60 -64.5 94.5t-121.5 34.5q-117 0 -193 -84l-241 143q83 112 208 175.5t273 63.5q232 0 350.5 -147t81.5 -379t-202 -379t-396 -147t-350 147t-82 379z" />
    <glyph glyph-name="circumflex" unicode="&#x2c6;" horiz-adv-x="812" 
d="M392 2310l244 288h355l157 -288h-209l-140 188l-198 -188h-209z" />
    <glyph glyph-name="caron" unicode="&#x2c7;" horiz-adv-x="779" 
d="M485 1710l-158 288h209l141 -188l197 188h209l-243 -288h-355z" />
    <glyph glyph-name="breve" unicode="&#x2d8;" horiz-adv-x="1204" 
d="M869 1688q-95 0 -167 45q-73 45 -107 121t-20 166h188q-10 -63 29 -107.5t106 -44.5t119.5 43.5t62.5 108.5h188q-15 -94 -73 -168q-59 -77 -145 -120.5t-181 -43.5z" />
    <glyph glyph-name="dotaccent" unicode="&#x2d9;" horiz-adv-x="1146" 
d="M940 2304q-68 0 -107 43t-29 107q10 63 62.5 106.5t119.5 43.5q66 0 104.5 -43.5t28.5 -106.5q-11 -64 -62 -107t-117 -43z" />
    <glyph glyph-name="ring" unicode="&#x2da;" horiz-adv-x="1249" 
d="M981 2254q-85 0 -137.5 60t-39.5 142q13 83 82.5 140.5t157.5 57.5q87 0 139 -58.5t39 -139.5q-14 -84 -84 -143t-157 -59zM950 2456q-4 -26 11.5 -44t41.5 -18t47.5 18t25.5 43q4 24 -12 41.5t-42 17.5t-47 -17t-25 -41z" />
    <glyph glyph-name="ogonek" unicode="&#x2db;" horiz-adv-x="1205" 
d="M514 -476q-81 0 -139 38q-55 38 -79.5 99t-13.5 128q16 109 109 185l202 168l126 -142q-15 -12 -52.5 -41.5t-57 -46.5t-45.5 -42t-39.5 -48t-16.5 -45q-4 -23 9 -40.5t40 -17.5q40 0 72 27t38 65h192q-12 -77 -61 -141q-51 -68 -125.5 -107t-158.5 -39z" />
    <glyph glyph-name="tilde" unicode="&#x2dc;" horiz-adv-x="1303" 
d="M1185 2302q-32 0 -71 16t-60.5 30t-62.5 43q-37 25 -55 37t-40 20.5t-36 5.5q-53 -9 -19 -92l-190 -48q-27 91 9 173q31 67 94 108.5t139 41.5q11 0 22.5 -1.5t21 -3.5t22.5 -7t21 -7.5t22 -10t20 -10.5t21.5 -12.5t20 -12t20.5 -12.5t19 -12q92 -64 124 -64
q16 0 24.5 17t-1 37.5t-38.5 27.5l215 62q33 -89 -7 -176q-32 -67 -95 -108.5t-140 -41.5z" />
    <glyph glyph-name="hungarumlaut" unicode="&#x2dd;" horiz-adv-x="1248" 
d="M1001 2310l128 288h314l-233 -288h-209zM359 2310l128 288h314l-233 -288h-209z" />
    <glyph glyph-name="gravecomb" unicode="&#x300;" 
d="M715 1710l-144 288h314l39 -288h-209z" />
    <glyph glyph-name="acutecomb" unicode="&#x301;" 
d="M579 1710l128 288h314l-233 -288h-209z" />
    <glyph glyph-name="uni0302" unicode="&#x302;" 
d="M300 1710l244 288h355l157 -288h-209l-140 188l-198 -188h-209z" />
    <glyph glyph-name="tildecomb" unicode="&#x303;" 
d="M1128 1690q-32 0 -71 16t-60.5 30t-62.5 43q-37 25 -55 37t-40 20.5t-36 5.5q-53 -9 -19 -92l-190 -48q-27 91 9 173q31 67 94 108.5t139 41.5q11 0 22.5 -1.5t21 -3.5t22.5 -7t21 -7.5t22 -10t20 -10.5t21.5 -12.5t20 -12t20.5 -12.5t19 -12q92 -64 124 -64
q16 0 24.5 17t-1 37.5t-38.5 27.5l215 62q33 -89 -7 -176q-32 -67 -95 -108.5t-140 -41.5z" />
    <glyph glyph-name="uni0304" unicode="&#x304;" 
d="M634 2330l35 220h706l-35 -220h-706z" />
    <glyph glyph-name="uni0306" unicode="&#x306;" 
d="M953 2288q-95 0 -166 45q-73 45 -107.5 121t-20.5 166h188q-10 -63 29 -107.5t106 -44.5t119.5 43.5t62.5 108.5h188q-15 -94 -73 -168q-59 -77 -145 -120.5t-181 -43.5z" />
    <glyph glyph-name="uni0307" unicode="&#x307;" 
d="M863 1704q-68 0 -107 43t-29 107q10 63 62.5 106.5t119.5 43.5q66 0 104.5 -43.5t28.5 -106.5q-11 -64 -62 -107t-117 -43z" />
    <glyph glyph-name="uni0308" unicode="&#x308;" 
d="M1315 1664q-67 0 -106 43t-29 107q11 63 63 106.5t119 43.5t105.5 -43.5t27.5 -106.5q-10 -64 -61.5 -107t-118.5 -43zM720 1814q11 63 63.5 106.5t119.5 43.5q66 0 104.5 -43.5t27.5 -106.5q-10 -64 -61.5 -107t-117.5 -43q-68 0 -107 43t-29 107z" />
    <glyph glyph-name="uni030A" unicode="&#x30a;" 
d="M904 1654q-85 0 -137.5 60t-39.5 142q13 83 82.5 140.5t157.5 57.5q87 0 139 -58.5t39 -139.5q-14 -84 -84 -143t-157 -59zM873 1856q-4 -26 11.5 -44t41.5 -18t47.5 18t25.5 43q4 24 -12 41.5t-42 17.5t-47 -17t-25 -41z" />
    <glyph glyph-name="uni030B" unicode="&#x30b;" 
d="M919 1710l128 288h314l-233 -288h-209zM277 1710l128 288h314l-233 -288h-209z" />
    <glyph glyph-name="uni030C" unicode="&#x30c;" 
d="M580 2310l-158 288h209l141 -188l197 188h209l-243 -288h-355z" />
    <glyph glyph-name="dotbelowcomb" unicode="&#x323;" 
d="M596 135q-68 0 -107 43t-29 107q10 63 63 106.5t120 43.5q66 0 104 -43.5t28 -106.5q-10 -64 -61 -107t-118 -43z" />
    <glyph glyph-name="uni0326" unicode="&#x326;" 
d="M442 -500l128 288h314l-233 -288h-209z" />
    <glyph glyph-name="uni0327" unicode="&#x327;" 
d="M616 -381q-82 -20 -147 19t-74 114l158 39q2 -15 15 -23t31 -4q16 4 27 18t9 30q-3 28 -45 28h-153l199 265l125 -76l-48 -61q73 -39 80 -118q8 -76 -43 -143.5t-134 -87.5z" />
    <glyph glyph-name="uni0328" unicode="&#x328;" 
d="M500 -476q-81 0 -139 38q-55 38 -79.5 99t-13.5 128q16 109 109 185l202 168l126 -142q-15 -12 -52.5 -41.5t-57 -46.5t-45.5 -42t-39.5 -48t-16.5 -45q-4 -23 9 -40.5t40 -17.5q40 0 72 27t38 65h192q-12 -77 -61 -141q-51 -68 -125.5 -107t-158.5 -39z" />
    <glyph glyph-name="uni03BC" unicode="&#x3bc;" horiz-adv-x="1253" 
d="M27 -432l226 1432h313l-79 -500q-16 -103 36 -170.5t154 -67.5q96 0 162 63.5t83 174.5l79 500h314l-158 -1000h-314l15 92q-130 -120 -283 -120q-85 0 -167 28l-68 -432h-313z" />
    <glyph glyph-name="uni1E20" unicode="&#x1e20;" horiz-adv-x="1494" 
d="M801 -31q-212 0 -360.5 93.5t-210.5 259.5t-28 378q25 158 98 293.5t180.5 232t250.5 151t302 54.5q204 0 348.5 -86t210.5 -240l-302 -148q-43 76 -121.5 118t-185.5 42q-183 0 -314 -116.5t-160 -300.5t65 -300.5t277 -116.5q167 0 290 98l25 157h-408l48 300h722
l-92 -577q-115 -138 -279 -215t-356 -77zM685 1661l35 220h706l-35 -220h-706z" />
    <glyph glyph-name="uni1E21" unicode="&#x1e21;" horiz-adv-x="1339" 
d="M360 -44q21 -73 74 -113.5t131 -40.5q123 0 208.5 48.5t99.5 139.5l19 119q-53 -62 -138.5 -98.5t-170.5 -36.5q-231 0 -349.5 147t-82.5 379q37 232 202.5 379t396.5 147q89 0 162 -34t115 -94l16 102h313l-160 -1010q-23 -147 -122.5 -260t-242.5 -171.5t-304 -58.5
q-172 0 -300 90.5t-172 242.5zM428 1283l35 220h706l-35 -220h-706zM441 500q-16 -101 36 -164.5t153 -63.5q100 0 172 63.5t88 164.5t-36 164.5t-152 63.5q-101 0 -173 -63.5t-88 -164.5z" />
    <glyph glyph-name="Wgrave" unicode="&#x1e80;" horiz-adv-x="1904" 
d="M376 0l-152 1400h323l92 -848l360 848h289l90 -848l361 848h324l-595 -1400h-352l-80 726l-307 -726h-353zM978 1998h314l39 -288h-209z" />
    <glyph glyph-name="wgrave" unicode="&#x1e81;" horiz-adv-x="1846" 
d="M417 0l-190 1000h307l107 -562l284 562h305l106 -562l284 562h308l-507 -1000h-307l-106 562l-283 -562h-308zM872 1597h314l38 -288h-209z" />
    <glyph glyph-name="Wacute" unicode="&#x1e82;" horiz-adv-x="1904" 
d="M376 0l-152 1400h323l92 -848l360 848h289l90 -848l361 848h324l-595 -1400h-352l-80 726l-307 -726h-353zM1060 1710l128 288h314l-233 -288h-209z" />
    <glyph glyph-name="wacute" unicode="&#x1e83;" horiz-adv-x="1846" 
d="M417 0l-190 1000h307l107 -562l284 562h305l106 -562l284 562h308l-507 -1000h-307l-106 562l-283 -562h-308zM962 1299l128 288h314l-233 -288h-209z" />
    <glyph glyph-name="Wdieresis" unicode="&#x1e84;" horiz-adv-x="1904" 
d="M376 0l-152 1400h323l92 -848l360 848h289l90 -848l361 848h324l-595 -1400h-352l-80 726l-307 -726h-353zM825 1814q11 63 63.5 106.5t119.5 43.5q66 0 104.5 -43.5t27.5 -106.5q-10 -64 -61.5 -107t-117.5 -43q-68 0 -107 43t-29 107zM1285 1814q11 63 63 106.5
t119 43.5t105.5 -43.5t27.5 -106.5q-10 -64 -61.5 -107t-118.5 -43t-106 43t-29 107z" />
    <glyph glyph-name="wdieresis" unicode="&#x1e85;" horiz-adv-x="1846" 
d="M417 0l-190 1000h307l107 -562l284 562h305l106 -562l284 562h308l-507 -1000h-307l-106 562l-283 -562h-308zM765 1427q10 63 63 106.5t120 43.5q66 0 104 -43.5t28 -106.5q-10 -64 -62 -107t-118 -43q-67 0 -106 43t-29 107zM1225 1427q10 63 62.5 106.5t119.5 43.5
q66 0 104.5 -43.5t28.5 -106.5q-10 -64 -62 -107t-119 -43t-105.5 43t-28.5 107z" />
    <glyph glyph-name="uni1E9E" unicode="&#x1e9e;" horiz-adv-x="1515" 
d="M551 222q166 -69 299.5 -61t221.5 75t104 169q39 246 -227 246h-330l44 275h324q99 0 148 36.5t65 136.5q14 87 -11.5 121t-109.5 34h-478l-246 -1548h-282l289 1823h760q83 0 154.5 -26t124.5 -77t76 -135.5t6 -191.5q-27 -177 -141 -292q159 -138 116 -402
q-46 -294 -308 -429q-180 -92 -405 -88q-148 3 -211 42q-25 15 -24 31z" />
    <glyph glyph-name="uni1EBC" unicode="&#x1ebc;" horiz-adv-x="1182" 
d="M130 0l222 1400h932l-48 -300h-618l-34 -218h477l-48 -300h-477l-44 -282h618l-48 -300h-932zM486 1641q-27 91 9 173q31 67 94 108.5t139 41.5q11 0 22.5 -1.5t21 -3.5t22.5 -7t21 -7.5t22 -10t20 -10.5t21.5 -12.5t20 -12t20.5 -12.5t19 -12q92 -64 125 -64
q16 0 24.5 17t-1 37.5t-38.5 27.5l215 62q32 -88 -7 -176q-33 -67 -96 -108.5t-140 -41.5q-32 0 -71.5 16.5t-58.5 29t-64 43.5q-37 25 -55 37t-40 20.5t-36 5.5q-53 -9 -18 -92z" />
    <glyph glyph-name="uni1EBD" unicode="&#x1ebd;" horiz-adv-x="1180" 
d="M879 621q-20 50 -65.5 78.5t-111.5 28.5q-134 0 -212 -107h389zM151 500q37 232 202.5 379t396.5 147t349.5 -147t81.5 -379l-15 -99h-721q15 -60 63.5 -94.5t121.5 -34.5q117 0 193 84l241 -143q-83 -112 -208 -175.5t-273 -63.5q-231 0 -349.5 147t-82.5 379zM405 1254
q-27 91 9 173q31 67 94 108.5t139 41.5q11 0 22.5 -1.5t21 -3.5t22.5 -7t21 -7.5t22 -10t20 -10.5t21.5 -12.5t20 -12t20.5 -12.5t19 -12q92 -64 125 -64q16 0 24.5 17t-1 37.5t-38.5 27.5l214 62q33 -89 -7 -176q-32 -67 -95 -108.5t-140 -41.5q-32 0 -71 16t-60.5 30
t-62.5 43q-37 25 -55 37t-40 20.5t-36 5.5q-53 -9 -19 -92z" />
    <glyph glyph-name="Ygrave" unicode="&#x1ef2;" horiz-adv-x="1474" 
d="M577 0l100 630l-386 770h369l225 -444l365 444h370l-630 -770l-100 -630h-313zM787 1998h314l39 -288h-209z" />
    <glyph glyph-name="ygrave" unicode="&#x1ef3;" horiz-adv-x="1276" 
d="M196 -500l267 500l-218 1000h343l97 -590l319 590h334l-810 -1500h-332zM568 1577h314l38 -288h-209z" />
    <glyph glyph-name="uni1EF8" unicode="&#x1ef8;" horiz-adv-x="1480" 
d="M580 0l100 630l-386 770h369l225 -444l365 444h370l-630 -770l-100 -630h-313zM634 1683q-27 91 9 173q31 67 94 108.5t139 41.5q11 0 22.5 -1.5t21 -3.5t22.5 -7t21 -7.5t22 -10t20 -10.5t21.5 -12.5t20 -12t20.5 -12.5t19 -12q92 -64 124 -64q16 0 24.5 17t-1 37.5
t-38.5 27.5l215 62q33 -89 -7 -176q-32 -67 -95 -108.5t-140 -41.5q-32 0 -71 16t-60.5 30t-62.5 43q-37 25 -55 37t-40 20.5t-36 5.5q-53 -9 -19 -92z" />
    <glyph glyph-name="uni1EF9" unicode="&#x1ef9;" horiz-adv-x="1283" 
d="M200 -500l267 500l-218 1000h343l97 -590l319 590h334l-810 -1500h-332zM482 1266q-27 91 9 173q31 67 94 108.5t139 41.5q11 0 22.5 -1.5t21 -3.5t22.5 -7t21 -7.5t22 -10t20 -10.5t21.5 -12.5t20 -12t20.5 -12.5t19 -12q92 -64 124 -64q16 0 24.5 17t-1 37.5
t-38.5 27.5l215 62q33 -89 -7 -176q-32 -67 -95 -108.5t-140 -41.5q-32 0 -71 16t-60.5 30t-62.5 43q-37 25 -55 37t-40 20.5t-36 5.5q-53 -9 -19 -92z" />
    <glyph glyph-name="endash" unicode="&#x2013;" horiz-adv-x="1316" 
d="M206 450l48 300h1045l-48 -300h-1045z" />
    <glyph glyph-name="emdash" unicode="&#x2014;" horiz-adv-x="2152" 
d="M206 450l48 300h1881l-48 -300h-1881z" />
    <glyph glyph-name="quoteleft" unicode="&#x2018;" horiz-adv-x="650" 
d="M444 878l-87 522h314l-18 -522h-209z" />
    <glyph glyph-name="quoteright" unicode="&#x2019;" horiz-adv-x="509" 
d="M194 878l147 522h314l-252 -522h-209z" />
    <glyph glyph-name="quotesinglbase" unicode="&#x201a;" horiz-adv-x="534" 
d="M42 -112l118 338h314l-223 -338h-209z" />
    <glyph glyph-name="quotedblleft" unicode="&#x201c;" horiz-adv-x="1221" 
d="M268 878l252 522h209l-148 -522h-313zM921 886l252 522h209l-148 -522h-313z" />
    <glyph glyph-name="quotedblright" unicode="&#x201d;" horiz-adv-x="1221" 
d="M190 878l147 522h314l-252 -522h-209zM842 878l147 522h314l-252 -522h-209z" />
    <glyph glyph-name="quotedblbase" unicode="&#x201e;" horiz-adv-x="1228" 
d="M42 -112l118 338h314l-223 -338h-209zM736 -112l118 338h314l-223 -338h-209z" />
    <glyph glyph-name="dagger" unicode="&#x2020;" horiz-adv-x="960" 
d="M412 560l69 440h-228l48 300h228l32 200h313l-32 -200h228l-48 -300h-228l-69 -440h-313z" />
    <glyph glyph-name="daggerdbl" unicode="&#x2021;" horiz-adv-x="960" 
d="M412 560l22 142h-228l47 298h228l16 100h-228l48 300h228l16 100h313l-16 -100h228l-48 -300h-228l-16 -100h228l-47 -298h-228l-22 -142h-313z" />
    <glyph glyph-name="bullet" unicode="&#x2022;" horiz-adv-x="609" 
d="M367 400q-88 0 -139 58t-38 142q14 83 83.5 141.5t157.5 58.5q87 0 138.5 -58.5t38.5 -141.5q-13 -84 -83.5 -142t-157.5 -58z" />
    <glyph glyph-name="ellipsis" unicode="&#x2026;" horiz-adv-x="2083" 
d="M239 -26q-65 0 -103.5 43.5t-28.5 106.5q10 62 62 106t117 44t104.5 -44t29.5 -106q-10 -63 -63 -106.5t-118 -43.5zM880 124q10 62 62 106t117 44t104.5 -44t29.5 -106q-10 -63 -63 -106.5t-118 -43.5t-103.5 43.5t-28.5 106.5zM1654 124q10 62 62 106t117 44t104.5 -44
t29.5 -106q-10 -63 -63 -106.5t-118 -43.5t-103.5 43.5t-28.5 106.5z" />
    <glyph glyph-name="guilsinglleft" unicode="&#x2039;" horiz-adv-x="878" 
d="M490 261l-260 340l368 338h313l-365 -338l257 -340h-313z" />
    <glyph glyph-name="guilsinglright" unicode="&#x203a;" horiz-adv-x="878" 
d="M156 261l365 340l-257 338h313l260 -338l-368 -340h-313z" />
    <glyph glyph-name="fraction" unicode="&#x2044;" horiz-adv-x="642" 
d="M-228 0l1066 1400h253l-1067 -1400h-252z" />
    <glyph glyph-name="Euro" unicode="&#x20ac;" horiz-adv-x="1169" 
d="M1070 -16q-282 -41 -482.5 94.5t-247.5 387.5h-171l31 200h134l11 64h-134l31 200h171q124 256 370 392t514 94l-49 -310q-136 43 -268.5 -6.5t-225.5 -169.5h249l-31 -200h-314l-9 -64h312l-31 -200h-247q58 -120 174.5 -167t262.5 -5z" />
    <glyph glyph-name="trademark" unicode="&#x2122;" horiz-adv-x="1620" 
d="M409 662l92 580h-220l25 158h606l-25 -158h-221l-92 -580h-165zM821 662l117 738h208l103 -436l242 436h208l-117 -738h-165l63 400l-1 -2l-220 -398h-115l-94 398l-63 -398h-166z" />
    <glyph glyph-name="arrowleft" unicode="&#x2190;" horiz-adv-x="1514" 
d="M702 198l-488 552l663 552l189 -212l-229 -190h724l-48 -300h-724l169 -190z" />
    <glyph glyph-name="arrowup" unicode="&#x2191;" horiz-adv-x="1344" 
d="M533 116l110 692l-229 -188l-187 212l663 552l490 -552l-255 -212l-169 188l-110 -692h-313z" />
    <glyph glyph-name="arrowright" unicode="&#x2192;" horiz-adv-x="1516" 
d="M874 198l-188 212l227 190h-723l48 300h723l-167 190l255 212l490 -552z" />
    <glyph glyph-name="arrowdown" unicode="&#x2193;" horiz-adv-x="1342" 
d="M687 116l-486 552l254 212l168 -188l109 692h313l-109 -692l228 188l188 -212z" />
    <glyph glyph-name="arrowboth" unicode="&#x2194;" horiz-adv-x="2038" 
d="M702 198l-488 552l663 552l189 -212l-229 -190h646l-167 190l256 212l489 -552l-664 -552l-189 212l227 190h-646l169 -190z" />
    <glyph glyph-name="arrowupdn" unicode="&#x2195;" horiz-adv-x="1344" 
d="M650 -134l-489 552l255 212l169 -188l98 616l-229 -188l-188 212l664 552l489 -552l-254 -212l-169 188l-98 -616l229 188l187 -212z" />
    <glyph glyph-name="uni2196" unicode="&#x2196;" horiz-adv-x="1238" 
d="M959 249l-434 490l-42 -268h-313l123 780h815l-47 -300h-281l435 -490z" />
    <glyph glyph-name="uni2197" unicode="&#x2197;" horiz-adv-x="1238" 
d="M356 250l-188 212l589 488h-282l48 300h817l-124 -780h-314l43 268z" />
    <glyph glyph-name="uni2198" unicode="&#x2198;" horiz-adv-x="1238" 
d="M366 250l47 300h281l-435 488l255 212l435 -488l42 268h314l-123 -780h-816z" />
    <glyph glyph-name="uni2199" unicode="&#x2199;" horiz-adv-x="1238" 
d="M135 250l123 780h313l-42 -268l589 488l188 -212l-590 -488h281l-47 -300h-815z" />
    <glyph glyph-name="partialdiff" unicode="&#x2202;" horiz-adv-x="1242" 
d="M617 -26q-143 0 -253 68q-111 69 -163 183.5t-31 250.5q22 138 110.5 254t220 183t275.5 67q54 0 83 -8q-37 103 -49 127q-53 107 -163 132q-38 9 -85 9l46 300q177 0 309 -82.5t213 -231.5q79 -144 104 -329t-7 -385q-25 -157 -112 -278q-88 -123 -218 -191.5
t-280 -68.5zM483 476q-13 -84 39.5 -143t141.5 -59t160 59t84 143q13 85 -38.5 144.5t-140.5 59.5t-161 -59.5t-85 -144.5z" />
    <glyph glyph-name="emptyset" unicode="&#x2205;" horiz-adv-x="1236" 
d="M394 -86l-198 120l72 94q-128 156 -94 372q23 144 112.5 266t220.5 192t273 70q86 0 153 -24l65 84l199 -120l-72 -94q128 -154 94 -374q-23 -144 -111.5 -265t-220 -191t-274.5 -70q-83 0 -155 24zM459 482q-9 -53 2 -102l294 386q-104 -2 -191 -87t-105 -197zM637 236
q108 4 193 85.5t103 196.5q7 43 -1 104z" />
    <glyph glyph-name="minus" unicode="&#x2212;" horiz-adv-x="1236" 
d="M166 450l48 300h1045l-48 -300h-1045z" />
    <glyph glyph-name="radical" unicode="&#x221a;" horiz-adv-x="1464" 
d="M364 0l-157 708h332l82 -364l572 1056h397l-48 -300h-178l-594 -1100h-406z" />
    <glyph glyph-name="infinity" unicode="&#x221e;" horiz-adv-x="1641" 
d="M534 228q-123 10 -207 63q-82 53 -116.5 136.5t-18.5 186.5q18 108 81 197q66 89 165.5 139t217.5 50q186 0 297 -156q168 156 348 156q182 0 275 -108.5t66 -277.5q-16 -108 -81 -197t-164 -139t-218 -50q-181 0 -299 154q-174 -168 -346 -154zM474 614q-8 -49 19 -81.5
t80 -32.5q43 0 91.5 36.5t80.5 77.5q-24 45 -61 80t-75 32q-54 -1 -91 -35t-44 -77zM1090 614q68 -117 137 -114q56 2 92 35.5t43 78.5q8 45 -16.5 79.5t-69.5 34.5q-84 0 -186 -114z" />
    <glyph glyph-name="integral" unicode="&#x222b;" horiz-adv-x="1257" 
d="M428 -26q-100 0 -170 43q-72 43 -103 118.5t-11 170.5l190 -14v-21.5t0.5 -19.5t2.5 -16.5t6 -13t11.5 -8.5t18.5 -3q35 0 61.5 18t35.5 48l243 920q21 64 77 116q57 52 130.5 83t144.5 31q93 0 163 -47q69 -49 97.5 -125.5t7.5 -161.5l-172 16q1 48 -21.5 66.5
t-59.5 11.5q-56 -7 -76 -70l-241 -914q-48 -116 -138.5 -172t-196.5 -56z" />
    <glyph glyph-name="approxequal" unicode="&#x2248;" horiz-adv-x="1434" 
d="M1105 625q-82 0 -190 38t-209 76t-165 38q-36 0 -51.5 -23.5t-22.5 -62.5l-305 8q1 94 58 176q57 83 145 132.5t187 49.5q64 0 137 -25t128 -55t121.5 -55t119.5 -25q65 0 79 90l306 -8q-3 -95 -46 -174q-43 -83 -119 -131.5t-173 -48.5zM79 178q1 94 58 176
q57 83 145.5 132.5t187.5 49.5q64 0 137 -25t128 -55t121.5 -55t119.5 -25q65 0 79 90l306 -8q-3 -92 -46 -174q-43 -83 -119.5 -131.5t-173.5 -48.5q-65 0 -147.5 24t-148 52t-140.5 52t-127 24q-61 0 -74 -86z" />
    <glyph glyph-name="notequal" unicode="&#x2260;" horiz-adv-x="1236" 
d="M277 18l98 210h-244l48 300h336l66 144h-380l48 300h472l97 210h327l-98 -210h247l-48 -300h-339l-66 -144h383l-48 -300h-474l-99 -210h-326z" />
    <glyph glyph-name="lessequal" unicode="&#x2264;" horiz-adv-x="1236" 
d="M1192 328l-1000 284l79 502l1091 286l-50 -312l-857 -224l786 -224zM95 0l48 300h1045l-48 -300h-1045z" />
    <glyph glyph-name="greaterequal" unicode="&#x2265;" horiz-adv-x="1236" 
d="M151 352l49 312l855 212l-788 212l50 312l1001 -274l-79 -502zM95 0l48 300h1045l-48 -300h-1045z" />
    <glyph glyph-name="uniA78B" unicode="&#xa78b;" horiz-adv-x="401" 
d="M296 1443h266l-108 -488h-205z" />
    <glyph glyph-name="uniA78C" unicode="&#xa78c;" horiz-adv-x="401" 
d="M296 1443h266l-108 -488h-205z" />
    <glyph glyph-name="uni004A0301" horiz-adv-x="1410" 
d="M644 -26q-177 0 -296 82q-122 82 -175.5 220.5t-27.5 307.5h313q-21 -137 42.5 -223.5t190.5 -86.5q129 0 219 85.5t111 224.5l130 816h313l-130 -816q-27 -171 -123 -309.5t-245 -219.5t-322 -81zM1230 1710l128 288h314l-233 -288h-209z" />
    <glyph glyph-name="i.loclTRK" horiz-adv-x="581" 
d="M135 0l158 1000h314l-158 -1000h-314zM350 1403q11 63 63.5 106.5t119.5 43.5q66 0 104.5 -43.5t27.5 -106.5q-10 -64 -61 -107t-118 -43q-68 0 -107 43t-29 107z" />
    <glyph glyph-name="uni006A0301" horiz-adv-x="602" 
d="M-101 -200q75 0 135.5 49.5t72.5 122.5l162 1028h313l-162 -1028q-21 -132 -104 -237q-85 -109 -207 -172t-257 -63zM340 1310l129 288h314l-234 -288h-209z" />
    <glyph glyph-name="_Designova" horiz-adv-x="1401" 
d="M699 38q-162 0 -300 81t-218.5 219.5t-80.5 300.5q1 122 48.5 233t128 191t191.5 127.5t233 47.5t233 -47.5t191.5 -127.5t128 -191t47.5 -233q0 -163 -80.5 -301.5t-219.5 -219t-302 -80.5zM172 639q0 -108 42 -206t112.5 -168.5t168.5 -112.5t206 -42q143 0 264.5 70.5
t192.5 192t71 265.5t-70.5 266t-191.5 192.5t-265 70.5t-266 -70.5t-193 -192t-71 -265.5zM360 744q8 0 12 -4q53 -20 107 -29q43 -4 76 3q24 4 49 13q4 0 10.5 3.5t7.5 3.5l-17 8.5t-17.5 9t-15 10t-14.5 13.5h20q37 0 80 18q77 48 147 68q30 9 61 9q6 0 23 1.5t25 0.5
q62 -4 94 -36q7 -5 31 -34v-2q-3 2 -6 2q-50 19 -89.5 4.5t-66.5 -55.5q-6 -11 -15.5 -33.5t-12.5 -29.5q-5 -12 -15 -36.5t-19 -44.5t-17 -37q-31 -65 -69 -111q-17 -23 -68 -61q-51 -36 -127 -59h-6l26 23q16 15 28 47q8 25 24.5 71t23.5 68q31 89 60 139v1q-1 -2 -4.5 -6
t-5.5 -6q-8 -8 -10 -15q-21 -24 -35 -60q-3 -5 -9 -5q-110 5 -190 73q-1 1 -61 58q-5 7 -15 17z" />
    <glyph glyph-name="_Origin" horiz-adv-x="1874" 
d="M100 40v1150h1674v-1149l-43 -1v1zM143 82h1588v625h-1588v-625zM289 224v128h30v-128h-30zM293 884h68q60 0 84 40q11 19 11 46q0 55 -44 75q-19 11 -49 11h-70v-172zM312 439v127h107v-23h-77v-28h70v-22h-70v-31h77v-23h-107zM333 916v108h27q37 0 49 -23q7 -19 7 -31
q0 -36 -26 -48q-10 -6 -31 -6h-26zM339 224v128h25l64 -77v77h29v-128h-24l-63 79v-79h-31zM440 439v127h25l64 -76v76h29v-127h-25l-63 78v-78h-30zM472 948q0 -44 33 -58q13 -7 39 -7q35 0 54 17q9 12 12 22l-38 1q-3 -9 -16 -13q-2 0 -5.5 -0.5t-6.5 -0.5q-22 0 -29 15
q-5 8 -5 15h100v11q0 32 -20 49q-19 16 -48 16q-43 0 -63 -32q-7 -17 -7 -35zM510 962q1 12 15 22q8 5 17 5q21 0 26 -16q4 -5 4 -11h-62zM524 224v128h63q52 0 52 -32q0 -20 -18 -29q2 0 2 -2q20 -7 20 -30q0 -35 -51 -35h-68zM554 247h35q24 0 24 16q0 15 -24 15h-35v-31z
M554 303h31q24 0 24 14q0 16 -24 16h-31v-30zM579 543v23h112v-23h-41v-104h-29v104h-42zM621 922q6 -39 67 -39q39 0 57 20q7 11 7 21q0 26 -41 35l-28 5q-18 3 -18 13q0 12 23 12t23 -14l38 2q-7 38 -62 38q-38 0 -54 -19q-8 -8 -8 -21q0 -28 41 -37l26 -5q19 -3 19 -12
q0 -14 -23 -14q-24 0 -27 16zM657 224v128h107v-24h-78v-27h70v-23h-70v-29h76v-25h-105zM704 566h32l29 -89l30 89h27l29 -90l31 90h28l-41 -127h-33l-28 87l-29 -87h-31zM767 1047q0 -7 7 -12.5t15 -5.5q9 0 15.5 5.5t6.5 12.5t-6.5 12.5t-15.5 5.5q-8 0 -15 -5.5
t-7 -12.5zM768 884h41v129h-41v-129zM784 224v128h59q19 0 29 -5q27 -12 27 -41q0 -14 -7 -24q-11 -13 -21 -18l27 -40h-32l-25 37h-26v-37h-31zM815 285h26q28 0 28 21q0 22 -28 22h-26v-43zM827 949q0 -42 30 -56q12 -6 30 -6q21 0 33 10q7 5 7 10h2v-23q0 -24 -30 -24
q-18 0 -25 7q-2 1 -5 8l-37 -6q3 -15 20 -25t46 -10q43 0 62 22q10 10 10 27v130h-40v-21h-3q-4 13 -21 19q-10 4 -19 4q-35 0 -52 -29q-8 -16 -8 -37zM869 949q0 24 12 33q10 5 18 5q19 0 28 -19q0 -2 1.5 -8.5t1.5 -10.5q0 -36 -31 -36q-18 0 -28 18q-2 10 -2 18zM913 224
v128h29v-103h76v-25h-105zM915 503q0 27 20 47q19 19 50 19q33 0 51 -19q20 -20 20 -47q0 -25 -20 -47q-18 -19 -50 -19t-51 19q-20 22 -20 47zM946 503q0 -18 11 -29.5t28 -11.5q18 0 29 11.5t11 29.5q0 19 -11 30.5t-29 11.5q-17 0 -28 -11.5t-11 -30.5zM993 884h41v75
q0 17 13 23q5 3 14 3q25 0 25 -25v-76h42v82q0 31 -24 42q-11 7 -27 7q-31 0 -43 -25h-1v23h-40v-129zM1039 224v128h30v-128h-30zM1073 439v127h57q22 0 30 -3q26 -14 26 -42q0 -15 -7 -25q-6 -10 -21 -17l28 -40h-32l-25 36h-28v-36h-28zM1090 224v128h25l63 -77v77h31
v-128h-25l-64 79v-79h-30zM1101 499h27q28 0 28 22t-28 22h-27v-44zM1145 948q0 -39 34 -58q12 -7 38 -7q42 0 64 31q8 14 8 34q0 39 -33 59q-19 8 -39 8q-44 0 -63 -32q-9 -18 -9 -35zM1187 949q0 24 13 33q6 5 17 5q19 0 27 -19q3 -7 3 -19q0 -24 -13 -34q-8 -5 -17 -5
q-19 0 -28 20q-2 10 -2 19zM1201 439v127h107v-23h-77v-28h69v-22h-69v-54h-30zM1227 242q0 17 19 17q7 0 12 -5t5 -12q0 -6 -5 -19l-11 -27h-18l9 30q-11 4 -11 16zM1290 1013l51 -129h45l52 129h-42l-31 -91h-1l-31 91h-43zM1319 439v127h107v-23h-77v-28h69v-22h-69v-31
h77v-23h-107zM1336 224v128h57q23 0 38 -8q33 -14 33 -55q0 -22 -9 -35q-16 -30 -62 -30h-57zM1366 249h26q13 0 23 5q19 11 19 35q0 16 -5 21q-9 18 -37 18h-26v-79zM1439 921q0 -26 23 -34q9 -4 25 -4q21 0 34 9q8 10 8 11h2v-19h37v88q0 19 -17 33q-22 10 -43 10
q-35 0 -53 -18q-9 -7 -12 -20l39 -4q4 16 25 16t21 -16v-1q0 -7 -15 -10q-2 -1 -9 -1.5t-10 -0.5q-25 -2 -39 -10q-16 -9 -16 -29zM1448 439v127h22l66 -76v76h29v-127h-25l-64 78v-78h-28zM1477 922q0 7 12 14q4 2 12 2q19 2 28 6v-13q0 -15 -15 -21q-12 -3 -16 -3
q-21 0 -21 15zM1482 224v128h105v-24h-76v-27h69v-23h-69v-29h76v-25h-105z" />
    <glyph glyph-name="_Typeface" horiz-adv-x="2096" 
d="M100 355v540h1896v-540h-1896zM274 522h38v159h3l122 -159h37v217h-39v-159h-2l-123 159h-36v-217zM502 602q0 -49 39 -72q17 -10 46 -10q52 0 74 39q12 21 12 43q0 53 -41 74q-15 10 -45 10q-51 0 -75 -38q-10 -21 -10 -46zM539 602q0 36 21 50q11 8 27 8q33 0 45 -29
q5 -13 5 -29q0 -34 -21 -48q-13 -8 -29 -8q-32 0 -44 29q-4 8 -4 27zM697 522h36v27h3q12 -17 26 -24q13 -5 27 -5q45 0 67 39q10 17 10 45q0 52 -39 72q-11 10 -38 10q-30 0 -44 -17q-8 -11 -9 -12h-3v82h-36v-217zM733 604q0 34 22 48q11 8 27 8q32 0 43 -27q5 -25 5 -29
q0 -36 -22 -50q-11 -8 -26 -8q-33 0 -44 27q-5 25 -5 31zM883 602q0 -51 41 -72q18 -10 45 -10q39 0 63 19q11 11 14 24l-33 5q-9 -17 -25 -19q-7 -5 -16 -5q-34 0 -46 24q-7 10 -7 27h130v9q0 42 -24 63q-23 19 -58 19q-51 0 -75 -38q-9 -19 -9 -46zM919 619q0 19 21 36
q8 5 27 5q34 0 41 -24q3 -3 5 -10l2 -7h-96zM1075 522h34v217h-34v-217zM1222 597q0 -48 46 -67q17 -10 50 -10q62 0 87 36q12 21 12 41v142h-39v-140q0 -32 -26 -43q-14 -7 -34 -7q-36 0 -53 24q-7 10 -7 26v140h-36v-142zM1453 522h36v97q0 26 22 36q10 5 21 5
q18 0 28.5 -10.5t10.5 -28.5v-99h36v104q0 41 -29 53q-14 7 -34 7q-41 0 -53 -29h-4v27h-34v-162zM1633 602q0 -49 39 -72q18 -10 46 -10q52 0 74 39q12 21 12 43q0 53 -41 74q-15 10 -45 10q-53 0 -75 -38q-10 -21 -10 -46zM1669 602q0 36 22 50q11 8 27 8q33 0 45 -29
q5 -13 5 -29q0 -35 -22 -48q-11 -8 -28 -8q-33 0 -44 29q-5 8 -5 27z" />
    <glyph glyph-name="_VendorID" horiz-adv-x="1106" 
d="M100 143v1104h906v-1104h-906zM103 59q0 12 7 19t17 7q8 0 11 -3l4 -5v24h12v-67h-12v9l-4 -7q-6 -4 -14 -4q-21 0 -21 27zM116 59q0 -16 12 -16q14 0 14 16v1q0 16 -13 16t-13 -17zM163 59q0 11 7 18.5t18 7.5q10 0 17 -7t7 -18q0 -2 -2 -5h-34q1 -12 12 -12q9 0 11 8
h11q-3 -19 -22 -19q-25 0 -25 27zM176 62h23q-3 14 -11 14q-11 0 -12 -14zM216 48h13q3 -8 8 -8q9 0 9 7q0 2 -11 8q-17 5 -17 15q0 15 19 15q20 0 20 -15h-13q-2 6 -7 6q-6 0 -6 -5q0 -4 11 -9q16 -3 16 -14q0 -16 -21 -16q-18 0 -21 16zM255 423q0 -56 39.5 -96t96.5 -40
q56 0 94.5 39.5t38.5 96.5q0 58 -37.5 96.5t-95.5 38.5q-11 0 -22 -3l79 112h-60l-90 -128q-43 -60 -43 -116zM255 861q0 -56 39.5 -95t96.5 -39q56 0 94.5 39t38.5 95q0 58 -37.5 96.5t-95.5 38.5q-15 0 -22 -2l79 114h-60l-90 -132q-43 -62 -43 -115zM265 95q0 6 8 6
q7 0 7 -6q0 -8 -7 -8q-8 0 -8 8zM266 34v51h13v-51h-13zM289 31v1h13v-1q0 -8 12 -8q10 0 14 12v8l-4 -7q-8 -2 -13 -2q-22 0 -22 25q0 26 24 26q8 0 11 -3l4 -5v8h13v-38q0 -8 -2 -11q0 -22 -25 -22t-25 17zM302 60q0 -17 12 -17q14 0 14 16v1q0 16 -14 16q-12 0 -12 -16z
M305 423q0 37 24 60.5t62 23.5q36 0 60 -23.5t24 -60.5q0 -39 -24 -63t-60 -24q-38 0 -62 24t-24 63zM305 861q0 39 24 62.5t62 23.5q36 0 60 -24.5t24 -61.5t-24 -61.5t-60 -24.5q-38 0 -62 24t-24 62zM351 34v51h13v-10l4 7q4 3 12 3q14 0 18 -14q1 -3 1 -9v-28h-14v32
q0 10 -9 10q-12 0 -12 -19v-23h-13zM406 59q0 11 7 18.5t18 7.5q26 0 26 -26q0 -27 -26 -27q-11 0 -18 7.5t-7 19.5zM419 59q0 -16 12 -16q14 0 14 16q0 17 -14 17q-12 0 -12 -17zM461 85h14l13 -42l12 42h13l-18 -51h-17zM517 48q0 15 28 15h3v7q0 6 -8 6q-11 0 -11 -8h-12
q0 17 23 17q17 0 19 -14v-37h-11v6l-3 -5q-6 -3 -13 -3q-15 0 -15 16zM529 48q0 -5 8 -5q11 0 11 8v6q-19 2 -19 -9zM568 74v9h5v7q0 14 18 14h5v-10q-10 2 -10 -5v-6h10v-9h-10v-40h-13v40h-5zM580 423q0 -57 39.5 -96.5t95.5 -39.5t94.5 39.5t38.5 96.5t-38 96t-95 39
q-13 0 -23 -3l80 112h-61l-90 -128q-41 -58 -41 -116zM580 861q0 -56 39.5 -95t95.5 -39t94.5 39t38.5 95q0 58 -38 96.5t-95 38.5q-16 0 -24 -2l81 114h-61l-90 -132q-41 -62 -41 -115zM600 59q0 26 26 26q25 0 25 -26q0 -27 -25 -27q-26 0 -26 27zM613 59q0 -16 13 -16
q12 0 12 16q0 17 -12 17q-13 0 -13 -17zM629 423q0 37 24 60.5t62 23.5q36 0 58.5 -23.5t22.5 -60.5q0 -39 -22.5 -63t-58.5 -24q-38 0 -62 24t-24 63zM629 861q0 38 24 62t62 24q36 0 58.5 -24t22.5 -62t-22.5 -62t-58.5 -24q-38 0 -62 24t-24 62zM660 34v51h11v-10l5 7
q4 3 12 3q14 0 18 -14v-37h-13v32q-3 10 -8 10q-14 0 -14 -19v-23h-11zM713 74v9h7v12h13v-12h9v-9h-9v-26q2 -9 8 -5v-10h-7q-14 0 -14 10v31h-7zM746 48h14q2 -8 9 -8q8 0 8 7q0 2 -11 8q-16 4 -16 15q0 15 18 15t23 -15h-15q0 6 -9 6q-4 0 -4 -5t10 -9q18 -4 18 -14
q0 -16 -22 -16q-19 0 -23 16zM794 39q0 9 9 9q8 0 8 -9q0 -7 -8 -7q-9 0 -9 7zM817 59q0 11 7.5 18.5t16.5 7.5q23 0 23 -19h-12q-3 10 -11 10q-11 0 -11 -17q0 -16 11 -16q9 0 11 8h12q-1 -19 -23 -19q-24 0 -24 27zM869 59q0 26 27 26q24 0 24 -26q0 -27 -24 -27
q-27 0 -27 27zM882 59q0 -16 14 -16q12 0 12 16q0 17 -12 17q-14 0 -14 -17zM929 34v51h13v-9l5 6q3 3 8 3q12 0 17 -10l5 7q3 3 10 3q16 0 16 -12q1 -3 1 -11v-28h-12v26q0 1 -0.5 3.5t-0.5 4.5q0 8 -10 8q-8 0 -8 -16v-26h-12v34q-5 8 -9 8q-10 0 -10 -16v-26h-13z" />
    <glyph glyph-name="crossbarcomb" horiz-adv-x="1446" 
d="M102 549l22 140h1415l-22 -140h-1415z" />
    <glyph glyph-name="crossslashcomb" horiz-adv-x="729" 
d="M-18 -209l708 1803h275l-709 -1803h-274z" />
    <glyph glyph-name="dotlessicomb" horiz-adv-x="595" 
d="M140 0l158 1000h314l-158 -1000h-314z" />
    <glyph glyph-name="dotlessjcomb" horiz-adv-x="566" 
d="M-101 -200q75 0 135.5 49.5t72.5 122.5l162 1028h313l-162 -1028q-21 -132 -104 -237q-85 -109 -207 -172t-257 -63z" />
    <glyph glyph-name="leftspikecomb" horiz-adv-x="509" 
d="M214 878l252 522h209l-148 -522h-313z" />
    <glyph glyph-name="rightspikecomb" horiz-adv-x="605" 
d="M190 878l147 522h314l-252 -522h-209z" />
    </font>
</defs>
</svg>
