<?xml version="1.0" standalone="no"?>
<!DOCTYPE svg PUBLIC "-//W3C//DTD SVG 1.1//EN" "http://www.w3.org/Graphics/SVG/1.1/DTD/svg11.dtd" >
<svg xmlns="http://www.w3.org/2000/svg" xmlns:xlink="http://www.w3.org/1999/xlink" version="1.1">
<metadata>
Created by FontForge 20201107 at Tue May 21 02:52:21 2024
 By 
Copyright (c) 2024 by Designova. All rights reserved.
</metadata>
<defs>
<font id="NobelUno-Thin" horiz-adv-x="1186" >
  <font-face 
    font-family="Nobel Uno Thin"
    font-weight="100"
    font-stretch="normal"
    units-per-em="2048"
    panose-1="0 0 0 0 0 0 0 0 0 0"
    ascent="1638"
    descent="-410"
    x-height="1000"
    cap-height="1400"
    bbox="-210 -504 2369 2620"
    underline-thickness="50"
    underline-position="-125"
    unicode-range="U+000D-A78C"
  />
<missing-glyph horiz-adv-x="1608" 
d="M195 -1v1378h1224v-1378h-1224zM389 510l116 -114l299 298l304 -298l118 114l-301 301l296 301l-113 114l-304 -299l-297 299l-118 -114l301 -301zM399 165h31v83h1l62 -83h29v129h-31v-81h-2l-64 81h-26v-129zM535 213q0 -28 25 -43q18 -6 29 -6q32 0 48 23q6 12 6 26
q0 31 -25 44q-12 6 -29 6q-36 0 -48 -24q-6 -11 -6 -26zM565 213q0 15 11 26q4 4 13 4q15 0 21 -14q2 -5 2 -16q0 -17 -10 -25q-10 -2 -13 -2q-17 0 -20 14q-4 5 -4 13zM694 230q0 -41 32 -59q19 -7 37 -7q38 0 55 26q7 11 7 28v17h-59v-21h31q0 -16 -16 -22q-5 -4 -18 -4
q-23 0 -33 19q-5 7 -5 23q0 28 18 38q12 5 19 5q28 0 31 -21h31q-1 18 -20 33q-17 11 -42 11q-40 0 -59 -30q-9 -14 -9 -36zM843 165h29v129h-29v-129zM881 263l40 -99l-2 -5q-2 -11 -22 -7l-7 -19q10 -4 20 -4q20 0 32 14q5 3 8 13l41 107h-31l-22 -71h-2l-22 71h-33z
M1001 129h31v52q6 -10 18 -14q3 -3 13 -3q27 0 39 23q6 10 6 26q0 31 -21 45q-13 5 -24 5q-17 0 -25 -9q-4 -3 -6 -9h-1v18h-30v-134zM1031 213q0 17 10 25q5 5 12 5q16 0 21 -14q3 -8 3 -16q0 -15 -10 -25q-8 -2 -14 -2q-14 0 -20 14q-2 8 -2 13zM1123 165h28v56
q0 14 11 18q4 3 11 3q19 0 19 -19v-58h31v62q0 24 -19 33q-12 3 -19 3q-25 0 -34 -18h-1v49h-27v-129z" />
    <glyph glyph-name=".notdef" horiz-adv-x="1608" 
d="M195 -1v1378h1224v-1378h-1224zM389 510l116 -114l299 298l304 -298l118 114l-301 301l296 301l-113 114l-304 -299l-297 299l-118 -114l301 -301zM399 165h31v83h1l62 -83h29v129h-31v-81h-2l-64 81h-26v-129zM535 213q0 -28 25 -43q18 -6 29 -6q32 0 48 23q6 12 6 26
q0 31 -25 44q-12 6 -29 6q-36 0 -48 -24q-6 -11 -6 -26zM565 213q0 15 11 26q4 4 13 4q15 0 21 -14q2 -5 2 -16q0 -17 -10 -25q-10 -2 -13 -2q-17 0 -20 14q-4 5 -4 13zM694 230q0 -41 32 -59q19 -7 37 -7q38 0 55 26q7 11 7 28v17h-59v-21h31q0 -16 -16 -22q-5 -4 -18 -4
q-23 0 -33 19q-5 7 -5 23q0 28 18 38q12 5 19 5q28 0 31 -21h31q-1 18 -20 33q-17 11 -42 11q-40 0 -59 -30q-9 -14 -9 -36zM843 165h29v129h-29v-129zM881 263l40 -99l-2 -5q-2 -11 -22 -7l-7 -19q10 -4 20 -4q20 0 32 14q5 3 8 13l41 107h-31l-22 -71h-2l-22 71h-33z
M1001 129h31v52q6 -10 18 -14q3 -3 13 -3q27 0 39 23q6 10 6 26q0 31 -21 45q-13 5 -24 5q-17 0 -25 -9q-4 -3 -6 -9h-1v18h-30v-134zM1031 213q0 17 10 25q5 5 12 5q16 0 21 -14q3 -8 3 -16q0 -15 -10 -25q-8 -2 -14 -2q-14 0 -20 14q-2 8 -2 13zM1123 165h28v56
q0 14 11 18q4 3 11 3q19 0 19 -19v-58h31v62q0 24 -19 33q-12 3 -19 3q-25 0 -34 -18h-1v49h-27v-129z" />
    <glyph glyph-name=".null" horiz-adv-x="1285" 
 />
    <glyph glyph-name="nonmarkingreturn" horiz-adv-x="682" 
 />
    <glyph glyph-name="CR" unicode="&#xd;" horiz-adv-x="1285" 
 />
    <glyph glyph-name="space" unicode=" " horiz-adv-x="541" 
 />
    <glyph glyph-name="space" unicode="&#xa0;" horiz-adv-x="541" 
 />
    <glyph glyph-name="exclam" unicode="!" horiz-adv-x="334" 
d="M116 420v980h62v-980h-62zM99 20q0 18 14 31t34 13q19 0 32.5 -13t13.5 -31q0 -19 -13.5 -32.5t-32.5 -13.5q-20 0 -34 13.5t-14 32.5z" />
    <glyph glyph-name="quotedbl" unicode="&#x22;" horiz-adv-x="518" 
d="M99 878v522h62v-522h-62zM611 878v522h62v-522h-62z" />
    <glyph glyph-name="numbersign" unicode="#" horiz-adv-x="1561" 
d="M233 0l106 376h-240l17 58h237l151 534h-240l16 58h240l105 374h63l-105 -374h578l104 374h63l-105 -374h238l-16 -58h-239l-150 -534h241l-18 -58h-238l-106 -376h-63l106 376h-576l-107 -376h-62zM416 434h578l150 534h-577z" />
    <glyph glyph-name="dollar" unicode="$" horiz-adv-x="1241" 
d="M590 -26q-176 6 -311.5 82.5t-179.5 195.5l59 22q41 -110 165 -175t296 -65q117 0 221 39q106 40 167.5 112t61.5 165q0 98 -66 161q-111 106 -384 155q-145 26 -261 66q-122 41 -185.5 115t-63.5 195q0 157 136 261.5t345 112.5v208h62v-208q180 -7 310 -81.5
t180 -196.5l-61 -20q-41 110 -165 175t-297 65q-119 0 -221 -39q-105 -41 -165.5 -112.5t-60.5 -164.5q0 -108 59 -167q54 -55 146.5 -86.5t241.5 -58.5q138 -25 251 -70q261 -102 261 -310q0 -110 -65 -193q-66 -81 -175.5 -129t-238.5 -54v-198h-62v198z" />
    <glyph glyph-name="percent" unicode="%" horiz-adv-x="1189" 
d="M134 0l844 1400h73l-844 -1400h-73zM99 1092q0 81 58 137.5t142 56.5q85 0 143 -56.5t58 -137.5t-58 -136.5t-143 -55.5q-84 0 -142 55.5t-58 136.5zM161 1092q0 -54 40.5 -93t97.5 -39q58 0 98 39t40 93q0 56 -40 95t-98 39q-57 0 -97.5 -39t-40.5 -95zM686 308
q0 81 59 136.5t144 55.5q84 0 142 -55.5t58 -136.5t-58 -137.5t-142 -56.5q-85 0 -144 56.5t-59 137.5zM748 308q0 -55 41.5 -94.5t99.5 -39.5q56 0 97 39.5t41 94.5q0 54 -41 93t-97 39q-58 0 -99.5 -39t-41.5 -93z" />
    <glyph glyph-name="ampersand" unicode="&#x26;" horiz-adv-x="1501" 
d="M502 -26q-121 0 -212 56q-90 55 -140.5 143.5t-50.5 188.5q0 67 15.5 114.5t53.5 95.5q41 51 109 117l181 173q-149 144 -176 180q-41 53 -41 132q0 106 76 179t185 73q111 0 187.5 -73t76.5 -179q0 -81 -43 -136q-25 -32 -175 -176l479 -458l204 194v-84l-162 -156
l332 -316l-45 -42l-329 314q-243 -234 -304 -277q-50 -35 -99.5 -49t-121.5 -14zM163 358q0 -90 46 -163q46 -75 122.5 -118t170.5 -43q64 0 108.5 13.5t89.5 47.5q18 13 37 29.5t50.5 46.5t50 47.5t70 68t75.5 73.5l-481 460l-176 -169q-69 -66 -103 -107
q-34 -43 -47 -84.5t-13 -101.5zM304 1174q0 -46 15.5 -77t59.5 -73q42 -42 123 -120q30 29 72.5 69t54.5 52q44 42 59 72.5t15 76.5q0 80 -58.5 136t-142.5 56t-141 -57.5t-57 -134.5z" />
    <glyph glyph-name="quotesingle" unicode="'" horiz-adv-x="261" 
d="M99 878v522h62v-522h-62z" />
    <glyph glyph-name="parenleft" unicode="(" horiz-adv-x="610" 
d="M426 -112q-144 125 -215 324t-71 432q0 182 42 340q73 270 244 416h63q-120 -126 -183 -268q-89 -197 -103 -488q9 -240 76 -425t210 -331h-63z" />
    <glyph glyph-name="parenright" unicode=")" horiz-adv-x="610" 
d="M120 -112q143 146 209.5 331.5t75.5 424.5q-6 190 -48 339q-66 236 -237 417h62q119 -99 189 -258q97 -217 97 -498q0 -148 -27 -280q-62 -306 -259 -476h-62z" />
    <glyph glyph-name="asterisk" unicode="*" horiz-adv-x="752" 
d="M210 866l-51 36l149 196l-241 76l19 56l243 -74v244h62v-244l242 74l19 -56l-242 -76l150 -196l-52 -36l-148 198z" />
    <glyph glyph-name="plus" unicode="+" horiz-adv-x="1243" 
d="M590 100v470h-491v60h491v470h62v-470h492v-60h-492v-470h-62z" />
    <glyph glyph-name="comma" unicode="," horiz-adv-x="367" 
d="M99 -112l64 338h63l-86 -338h-41z" />
    <glyph glyph-name="hyphen" unicode="-" horiz-adv-x="951" 
d="M140 570v60h669v-60h-669z" />
    <glyph glyph-name="period" unicode="." horiz-adv-x="334" 
d="M144 -26q-18 0 -31.5 13.5t-13.5 32.5q0 18 13.5 31t31.5 13q21 0 35 -13t14 -31q0 -19 -14 -32.5t-35 -13.5z" />
    <glyph glyph-name="slash" unicode="/" horiz-adv-x="683" 
d="M99 -112l421 1512h63l-422 -1512h-62z" />
    <glyph glyph-name="zero" unicode="0" horiz-adv-x="1262" 
d="M632 -26q-172 0 -298.5 94.5t-191 258t-64.5 373.5q0 209 64 372t191 258.5t299 95.5q258 0 409 -212q143 -202 143 -514q0 -311 -143 -513q-151 -213 -409 -213zM140 700q0 -194 58.5 -344t170.5 -236t263 -86q150 0 262 86.5t169.5 236.5t57.5 343q0 192 -58 342
q-58 154 -168 239t-263 85q-157 0 -270 -89t-167.5 -237.5t-54.5 -339.5z" />
    <glyph glyph-name="one" unicode="1" horiz-adv-x="428" 
d="M182 0v1400h63v-1400h-63z" />
    <glyph glyph-name="two" unicode="2" horiz-adv-x="1126" 
d="M99 52q301 288 421 411q98 100 188 207q181 222 181 356q0 92 -47 171q-48 78 -128 123.5t-176 45.5q-98 0 -177 -46q-82 -46 -129.5 -124t-47.5 -170h-63q0 109 56 201q58 92 153 145.5t208 53.5q114 0 208 -54q95 -55 150.5 -146t55.5 -200q0 -136 -182 -373
q-218 -286 -569 -593h784v-60h-886v52z" />
    <glyph glyph-name="three" unicode="3" horiz-adv-x="1026" 
d="M513 -26q-134 0 -233 54q-96 53 -149 143t-53 199h62q0 -92 44 -169q46 -78 130 -122.5t199 -44.5q97 0 180 46q88 46 139.5 122.5t51.5 167.5q0 159 -119 247.5t-320 88.5v60q180 0 287 78t107 222q0 83 -49 150q-48 69 -124.5 109.5t-161.5 40.5q-86 0 -163 -41
q-79 -42 -126 -110.5t-47 -148.5h-63q0 97 55 180.5t147 131.5t197 48t194 -49q93 -50 148 -132t55 -179q0 -118 -66.5 -205t-178.5 -123q141 -44 216 -139t75 -229q0 -110 -61 -199q-62 -91 -161.5 -144t-211.5 -53z" />
    <glyph glyph-name="four" unicode="4" horiz-adv-x="1197" 
d="M878 0h-63v321h-716v64l695 1015h84v-1019h177v-60h-177v-321zM178 385l637 -4l-4 921z" />
    <glyph glyph-name="five" unicode="5" horiz-adv-x="1087" 
d="M139 225q54 -88 145 -139.5t200 -51.5q111 0 200 52q93 52 146 139t53 191q0 107 -53 192q-54 85 -142 134t-180.5 56t-180.5 -12t-149 -61h-44l73 675h659v-60h-598l-56 -528q104 45 237 46q146 -2 256 -55q114 -55 177.5 -155.5t63.5 -231.5q0 -120 -61.5 -221.5
t-168 -161t-232.5 -59.5q-130 0 -233 60q-103 58 -163 154z" />
    <glyph glyph-name="six" unicode="6" horiz-adv-x="1139" 
d="M562 -26q-135 0 -248 65q-114 66 -180.5 174t-66.5 237q0 53 11 97.5t23 70.5t43 86l418 696h73l-325 -542q191 109 404 44q102 -32 176 -95q80 -66 125 -157.5t45 -199.5q0 -130 -66 -239.5t-181 -173t-251 -63.5zM130 452q0 -118 60 -212q62 -96 160 -151t212 -55
q127 0 225 59t154 154t56 205q0 113 -59 208q-59 94 -157 149t-216 55q-125 0 -222 -57q-99 -58 -156 -152t-57 -203z" />
    <glyph glyph-name="seven" unicode="7" horiz-adv-x="995" 
d="M234 0l631 1340h-808v60h881v-60l-633 -1340h-71z" />
    <glyph glyph-name="eight" unicode="8" horiz-adv-x="1101" 
d="M550 -26q-126 0 -226 54q-104 54 -164.5 144.5t-60.5 197.5q0 123 78 222.5t204 145.5q-107 43 -174.5 132t-67.5 196q0 100 56 181q56 82 150 130.5t205 48.5q114 0 206 -49q95 -50 150.5 -131.5t55.5 -179.5q0 -107 -67.5 -196t-175.5 -132q127 -46 204.5 -145.5
t77.5 -222.5q0 -110 -61 -199q-62 -91 -164.5 -144t-225.5 -53zM168 370q0 -93 52 -169q53 -77 140 -122t190 -45q108 0 194 46q88 46 138.5 122t50.5 168q0 94 -52 170q-52 77 -139 121.5t-192 44.5q-104 0 -191 -45q-88 -46 -139.5 -122.5t-51.5 -168.5zM207 1066
q0 -82 46 -151t125 -109t172 -40q94 0 173 41t124.5 109t45.5 150q0 84 -46 151q-47 69 -125 109t-172 40q-96 0 -173 -40q-79 -41 -124.5 -109.5t-45.5 -150.5z" />
    <glyph glyph-name="nine" unicode="9" horiz-adv-x="1097" 
d="M788 588q-91 -52 -192.5 -62t-192 20.5t-164.5 88.5t-117.5 147t-43.5 192q0 122 62.5 226t170.5 165t237 61t236 -61q108 -62 171 -165.5t63 -225.5q0 -50 -10 -91.5t-22 -66t-43 -82.5l-439 -734h-71zM137 972q0 -108 55 -196q56 -90 149 -142t205 -52q117 0 210 54
q94 54 147.5 143t53.5 193q0 112 -57 202q-58 90 -151 142t-201 52q-121 0 -213 -55q-93 -55 -145.5 -145.5t-52.5 -195.5z" />
    <glyph glyph-name="colon" unicode=":" horiz-adv-x="334" 
d="M144 910q-18 0 -31.5 13.5t-13.5 32.5q0 18 13.5 31t31.5 13q21 0 35 -13t14 -31q0 -19 -14 -32.5t-35 -13.5zM99 20q0 18 13.5 31t31.5 13q21 0 35 -13t14 -31q0 -19 -14 -32.5t-35 -13.5q-18 0 -31.5 13.5t-13.5 32.5z" />
    <glyph glyph-name="semicolon" unicode=";" horiz-adv-x="380" 
d="M99 -112l64 338h63l-86 -338h-41zM144 954q0 20 14 33t35 13q18 0 31.5 -13t13.5 -33q0 -18 -13.5 -31t-31.5 -13q-20 0 -34.5 13t-14.5 31z" />
    <glyph glyph-name="less" unicode="&#x3c;" horiz-adv-x="1243" 
d="M1144 268l-1045 284v94l1045 286v-64l-989 -268l989 -270v-62z" />
    <glyph glyph-name="equal" unicode="=" horiz-adv-x="1243" 
d="M99 762v60h1045v-60h-1045zM99 378v60h1045v-60h-1045z" />
    <glyph glyph-name="greater" unicode="&#x3e;" horiz-adv-x="1243" 
d="M99 268v62l989 270l-989 268v64l1045 -286v-94z" />
    <glyph glyph-name="question" unicode="?" horiz-adv-x="994" 
d="M475 -26q-19 0 -32.5 14t-13.5 32t13.5 31t32.5 13q20 0 34 -13t14 -31t-14 -32t-34 -14zM99 1066q0 100 51 182q52 83 137.5 131.5t187.5 48.5q105 0 190 -49q87 -50 137.5 -132.5t50.5 -180.5q0 -102 -51 -187.5t-141 -132.5q-66 -34 -103.5 -93.5t-37.5 -130.5v-226
h-62v226q0 88 46 161.5t128 116.5q73 38 115.5 109.5t42.5 156.5t-43 153q-43 69 -114.5 109t-157.5 40q-133 0 -223.5 -87t-90.5 -215h-62z" />
    <glyph glyph-name="at" unicode="@" horiz-adv-x="1756" 
d="M879 -136q-162 0 -305.5 50.5t-248 139.5t-165.5 218t-61 279q0 153 61.5 291t165.5 237.5t248.5 158t304.5 58.5q213 0 392 -99t282.5 -270.5t103.5 -375.5q0 -73 -19 -147t-53.5 -135.5t-88 -100.5t-116.5 -39q-58 0 -109 27q-53 27 -85 73.5t-32 104.5
q-46 -84 -127 -132.5t-187 -48.5q-114 0 -209 54q-96 54 -151.5 144.5t-55.5 199.5q0 110 57 200q57 91 151.5 144t207.5 53q106 0 187 -48.5t127 -132.5v161h63v-603q0 -55 51 -95.5t112 -40.5q68 0 117.5 50.5t73 131.5t23.5 180q0 140 -56.5 267t-152 218.5t-228 145.5
t-278.5 54q-196 0 -361 -91t-261 -248.5t-96 -345.5q0 -185 96 -329t259 -221t363 -77v-60zM487 551q0 -96 49 -172q49 -78 129 -122t175 -44q136 0 221 103t85 253q0 139 -79.5 229t-226.5 90q-100 0 -179 -45q-81 -47 -127.5 -123.5t-46.5 -168.5z" />
    <glyph glyph-name="A" unicode="A" horiz-adv-x="1360" 
d="M99 0l533 1400h96l532 -1400h-66l-157 412h-715l-157 -412h-66zM345 472h669l-334 878z" />
    <glyph glyph-name="B" unicode="B" horiz-adv-x="1185" 
d="M107 0v1400h533q165 0 264.5 -93t99.5 -263q0 -92 -30 -153q-24 -51 -58.5 -88t-70.5 -52q109 -34 168.5 -125t59.5 -240v-2q0 -189 -98.5 -286.5t-265.5 -97.5h-602zM170 60h531q135 0 218 78.5t83 244.5t-83 244.5t-218 78.5h-531v-646zM170 766h470q131 0 216 72
t85 206q0 148 -84 222t-217 74h-470v-574z" />
    <glyph glyph-name="C" unicode="C" horiz-adv-x="1510" 
d="M811 -29q-326 0 -520 201t-194 528t194 528t520 201q195 0 346.5 -75t243.5 -212l-62 -32q-86 121 -222.5 188.5t-307.5 67.5q-193 0 -341.5 -85.5t-229 -237t-80.5 -344.5t80.5 -344.5t229 -237t341.5 -85.5q171 0 307.5 67.5t222.5 189.5l62 -32q-93 -137 -244 -211.5
t-346 -74.5z" />
    <glyph glyph-name="D" unicode="D" horiz-adv-x="1401" 
d="M140 0v1400h467l1 1q216 0 378.5 -88t249 -246.5t86.5 -365.5q0 -155 -50 -285t-142 -222t-226 -143t-296 -51h-468zM203 60l403 -1q193 0 342 82t229.5 228t80.5 331t-80.5 331t-229.5 228t-342 82l-403 -1v-1280z" />
    <glyph glyph-name="E" unicode="E" horiz-adv-x="1164" 
d="M140 0v1400h904v-60h-841v-577h720v-60h-720v-643h841v-60h-904z" />
    <glyph glyph-name="F" unicode="F" horiz-adv-x="1081" 
d="M140 0v1400h904v-60h-841v-577h720v-60h-720v-703h-63z" />
    <glyph glyph-name="G" unicode="G" horiz-adv-x="1503" 
d="M813 -29q-326 0 -520 201t-194 528t194 528t520 201q195 0 346.5 -75t243.5 -212l-62 -32q-86 121 -222.5 188.5t-307.5 67.5q-193 0 -342 -85.5t-229.5 -237t-80.5 -344.5t80.5 -344.5t229.5 -237t342 -85.5q170 0 306 66.5t222 187.5v418h-644v60h707v-507h1
q-93 -137 -244 -211.5t-346 -74.5z" />
    <glyph glyph-name="H" unicode="H" horiz-adv-x="1379" 
d="M140 0v1400h63v-620h972v620h63v-1400h-63v720h-972v-720h-63z" />
    <glyph glyph-name="I" unicode="I" horiz-adv-x="407" 
d="M172 0v1400h62v-1400h-62z" />
    <glyph glyph-name="J" unicode="J" horiz-adv-x="1304" 
d="M611 -26q-176 0 -300 82q-123 81 -188.5 219.5t-65.5 308.5h63q0 -244 132.5 -397t358.5 -153q227 0 359 148t132 402v816h63v-816q0 -271 -150 -440.5t-404 -169.5z" />
    <glyph glyph-name="K" unicode="K" horiz-adv-x="1048" 
d="M140 0v1400h63v-806l707 806h81l-581 -662l570 -738h-79l-533 690l-165 -190v-500h-63z" />
    <glyph glyph-name="L" unicode="L" horiz-adv-x="1164" 
d="M140 0v1400h63v-1340h841v-60h-904z" />
    <glyph glyph-name="M" unicode="M" horiz-adv-x="1499" 
d="M140 0v1400h63l547 -1128l546 1128h61v-1400h-62l-2 1228l-526 -1090h-37l-525 1090l-2 -1228h-63z" />
    <glyph glyph-name="N" unicode="N" horiz-adv-x="1304" 
d="M140 0v1400h70l890 -1292v1292h63v-1400h-68l-892 1292v-1292h-63z" />
    <glyph glyph-name="O" unicode="O" horiz-adv-x="1627" 
d="M813 -29q-326 0 -520 201t-194 528t194 528t520 201q216 0 378.5 -92t249 -256.5t86.5 -380.5t-86.5 -380.5t-249 -256.5t-378.5 -92zM159 699q0 -193 80.5 -344.5t229.5 -237t342 -85.5t342 85.5t229.5 237t80.5 344.5t-80.5 344.5t-229.5 237t-342 85.5t-342 -85.5
t-229.5 -237t-80.5 -344.5z" />
    <glyph glyph-name="P" unicode="P" horiz-adv-x="1137" 
d="M140 0v1400h479q82 0 154 -24.5t132 -74t95.5 -134.5t36.5 -197q0 -112 -35 -197t-95.5 -134.5t-133 -74t-154.5 -24.5h-416v-540h-63zM203 600h416q52 0 101 11.5t96 38.5t81.5 67.5t56 103t21.5 140.5v1q0 104 -31.5 180.5t-85 118t-113 60.5t-126.5 19h-416v-740z" />
    <glyph glyph-name="Q" unicode="Q" horiz-adv-x="1634" 
d="M813 -29q-326 0 -520 201t-194 528t194 528t520 201q216 0 378.5 -92t249 -256.5t86.5 -380.5q0 -306 -168 -500l175 -168l-44 -42l-173 165q-193 -184 -504 -184zM159 699q0 -193 80.5 -344.5t229.5 -237t342 -85.5q277 0 456 171l-287 273l45 44l284 -273
q154 180 154 452q0 193 -80.5 344.5t-229.5 237t-342 85.5t-342 -85.5t-229.5 -237t-80.5 -344.5z" />
    <glyph glyph-name="R" unicode="R" horiz-adv-x="1158" 
d="M140 0v1400h479q82 0 154 -24.5t132 -74t95.5 -134.5t36.5 -197q0 -96 -26 -173t-72.5 -127t-104.5 -80.5t-126 -42.5l329 -547h-73l-327 540h-434v-540h-63zM203 600h416q52 0 101 11.5t96 38.5t81.5 67.5t56 103t21.5 140.5v1q0 104 -31.5 180.5t-85 118t-113 60.5
t-126.5 19h-416v-740z" />
    <glyph glyph-name="S" unicode="S" horiz-adv-x="1283" 
d="M640 -26q-116 0 -221 34q-111 34 -190 96.5t-109 147.5l58 22q41 -110 165.5 -175t296.5 -65q118 0 221 39q105 40 166.5 112t61.5 165q0 99 -65 161q-111 106 -384 155q-146 26 -261 66q-122 41 -185.5 115t-63.5 195q0 114 71 200q71 83 187.5 129.5t251.5 46.5
q181 0 326 -75.5t197 -204.5l-61 -20q-41 110 -165 175t-297 65q-119 0 -221 -39q-105 -41 -165.5 -112.5t-60.5 -164.5q0 -108 59 -167q53 -55 145.5 -86.5t242.5 -58.5q139 -25 251 -70q261 -102 261 -310q0 -115 -72 -199q-71 -84 -187 -130.5t-253 -46.5z" />
    <glyph glyph-name="T" unicode="T" horiz-adv-x="1346" 
d="M640 0v1340h-541v60h1147v-60h-543v-1340h-63z" />
    <glyph glyph-name="U" unicode="U" horiz-adv-x="1390" 
d="M694 -26q-175 0 -299 82q-123 81 -189 219.5t-66 308.5v816h63v-816q0 -244 132.5 -397t358.5 -153q227 0 359 148t132 402v816h63v-816q0 -271 -150 -440.5t-404 -169.5z" />
    <glyph glyph-name="V" unicode="V" horiz-adv-x="1200" 
d="M567 0l-531 1400h66l496 -1308l497 1308h68l-533 -1400h-63z" />
    <glyph glyph-name="W" unicode="W" horiz-adv-x="1653" 
d="M410 0l-374 1400h65l351 -1314l349 1314h50l352 -1314l348 1314h65l-372 -1400h-83l-335 1250l-334 -1250h-82z" />
    <glyph glyph-name="X" unicode="X" horiz-adv-x="1306" 
d="M78 0l536 704l-530 696h77l491 -646l492 646h77l-529 -696l535 -704h-77l-498 652l-494 -652h-80z" />
    <glyph glyph-name="Y" unicode="Y" horiz-adv-x="1189" 
d="M562 0v636l-484 764h73l443 -698l443 698h73l-485 -764v-636h-63z" />
    <glyph glyph-name="Z" unicode="Z" horiz-adv-x="1381" 
d="M99 0v60l1101 1280h-1101v60h1182v-60l-1101 -1280h1101v-60h-1182z" />
    <glyph glyph-name="bracketleft" unicode="[" horiz-adv-x="512" 
d="M140 -112v1512h251v-60h-188v-1392h188v-60h-251z" />
    <glyph glyph-name="backslash" unicode="\" horiz-adv-x="686" 
d="M523 -112l-424 1512h62l425 -1512h-63z" />
    <glyph glyph-name="bracketright" unicode="]" horiz-adv-x="512" 
d="M120 -112v60h188v1392h-188v60h250v-1512h-250z" />
    <glyph glyph-name="asciicircum" unicode="^" horiz-adv-x="712" 
d="M99 1000l247 650h21l246 -650h-67l-190 502l-193 -502h-64z" />
    <glyph glyph-name="underscore" unicode="_" horiz-adv-x="1327" 
d="M140 -112v60h1045v-60h-1045z" />
    <glyph glyph-name="grave" unicode="`" horiz-adv-x="595" 
d="M329 2310l-105 288h63l83 -288h-41z" />
    <glyph glyph-name="a" unicode="a" horiz-adv-x="1208" 
d="M593 -26q-231 0 -373 147t-142 379t142 379t373 147q154 0 272 -68.5t181 -189.5v232h62v-1000h-62v232q-63 -121 -181 -189.5t-272 -68.5zM141 500q0 -203 125 -332t327 -129t326.5 129t124.5 332t-124.5 332t-326.5 129t-327 -129t-125 -332z" />
    <glyph glyph-name="b" unicode="b" horiz-adv-x="1250" 
d="M656 -26q-154 0 -272 68.5t-181 189.5v-232h-63v1500h63v-732q63 121 181 189.5t272 68.5q231 0 373 -147t142 -379t-142 -379t-373 -147zM205 500q0 -203 124.5 -332t326.5 -129t327 129t125 332t-125 332t-327 129t-326.5 -129t-124.5 -332z" />
    <glyph glyph-name="c" unicode="c" horiz-adv-x="1145" 
d="M593 -26q-231 0 -373 147t-142 379t142 379t373 147q169 0 293 -81t180 -221l-65 -15q-51 117 -158 184.5t-250 67.5q-202 0 -327 -129t-125 -332t125 -332t327 -129q143 0 250 67.5t158 184.5l65 -15q-56 -140 -180 -221t-293 -81z" />
    <glyph glyph-name="d" unicode="d" horiz-adv-x="1250" 
d="M593 -26q-231 0 -373 147t-142 379t142 379t373 147q154 0 272 -68.5t181 -189.5v732h62v-1500h-62v232q-63 -121 -181 -189.5t-272 -68.5zM141 500q0 -203 125 -332t327 -129t326.5 129t124.5 332t-124.5 332t-326.5 129t-327 -129t-125 -332z" />
    <glyph glyph-name="e" unicode="e" 
d="M593 -26q-231 0 -373 147t-142 379t142 379t373 147t373 -147t142 -379v-30h-966q10 -191 133 -311t318 -120q143 0 250 67.5t158 184.5l65 -15q-56 -140 -180 -221t-293 -81zM142 530h901q-9 191 -132.5 311t-317.5 120q-195 0 -318 -120t-133 -311z" />
    <glyph glyph-name="f" unicode="f" horiz-adv-x="679" 
d="M233 0v940h-166v60h166v300q0 95 67 159.5t166 64.5q100 0 166 -66l-44 -42q-48 48 -122 48q-70 0 -120.5 -48t-50.5 -116v-300h337v-60h-337v-940h-62z" />
    <glyph glyph-name="g" unicode="g" horiz-adv-x="1250" 
d="M613 -500q-167 0 -307.5 106t-177.5 257l2 -1l56 25q28 -133 153 -230t274 -97q109 0 210 55t162 145.5t61 189.5v282q-63 -121 -181 -189.5t-272 -68.5q-231 0 -373 147t-142 379t142 379t373 147q154 0 272 -68.5t181 -189.5v232h62v-1050q0 -116 -70 -220.5t-185 -167
t-240 -62.5zM141 500q0 -203 125 -332t327 -129t326.5 129t124.5 332t-124.5 332t-326.5 129t-327 -129t-125 -332z" />
    <glyph glyph-name="h" unicode="h" horiz-adv-x="1116" 
d="M140 0v1500h63v-675q58 93 158 148t217 55q120 0 221 -56q101 -58 159 -153.5t58 -209.5v-609h-62v609q0 101 -52 181q-51 82 -136.5 130t-187.5 48q-104 0 -189 -48q-86 -50 -136 -131.5t-50 -179.5v-609h-63z" />
    <glyph glyph-name="i" unicode="i" horiz-adv-x="375" 
d="M147 0v1000h63v-1000h-63zM140 1289q0 18 13.5 31t31.5 13q21 0 35 -13t14 -31q0 -19 -14 -32.5t-35 -13.5q-18 0 -31.5 13.5t-13.5 32.5z" />
    <glyph glyph-name="j" unicode="j" horiz-adv-x="471" 
d="M-69 -440q139 0 230 83t91 209v1148h62v-1148q0 -98 -50 -178q-50 -82 -137 -128t-196 -46v60zM237 1289q0 18 13.5 31t31.5 13q21 0 35 -13t14 -31q0 -19 -14 -32.5t-35 -13.5q-18 0 -31.5 13.5t-13.5 32.5z" />
    <glyph glyph-name="k" unicode="k" horiz-adv-x="986" 
d="M140 0v1500h63v-1148l568 648h82l-351 -398l363 -602h-70l-334 552l-258 -294v-258h-63z" />
    <glyph glyph-name="l" unicode="l" horiz-adv-x="345" 
d="M140 0v1500h63v-1500h-63z" />
    <glyph glyph-name="m" unicode="m" horiz-adv-x="1888" 
d="M140 0v1000h63v-175q59 94 158.5 148.5t216.5 54.5q124 0 227.5 -60t159.5 -161q56 101 159.5 161t226.5 60q120 0 220 -56q101 -58 159.5 -153.5t58.5 -209.5v-609h-63v605q0 96 -49 180q-51 84 -134 133.5t-182 49.5q-101 0 -183 -46q-85 -48 -133.5 -130t-48.5 -187
v-605h-62v605q0 106 -50 189q-50 82 -133 128t-183 46t-183 -50q-84 -52 -133 -135t-49 -178v-605h-63z" />
    <glyph glyph-name="n" unicode="n" horiz-adv-x="1116" 
d="M140 1000h63v-175q58 94 158.5 148.5t216.5 54.5q120 0 221 -56q102 -58 159.5 -154t57.5 -209v-609h-62v609q0 102 -52 181q-52 83 -137.5 130.5t-186.5 47.5q-104 0 -189 -48q-87 -51 -136.5 -132.5t-49.5 -178.5v-609h-63v1000z" />
    <glyph glyph-name="o" unicode="o" 
d="M593 -26q-231 0 -373 147t-142 379t142 379t373 147t373 -147t142 -379t-142 -379t-373 -147zM141 500q0 -203 125 -332t327 -129t326.5 129t124.5 332t-124.5 332t-326.5 129t-327 -129t-125 -332z" />
    <glyph glyph-name="p" unicode="p" horiz-adv-x="1250" 
d="M140 -503v1500h63v-232q63 121 181 189.5t272 68.5q231 0 373 -147t142 -379t-142 -379t-373 -147q-154 0 -272 68.5t-181 189.5v-732h-63zM205 497q0 -203 124.5 -332t326.5 -129t327 129t125 332t-125 332t-327 129t-326.5 -129t-124.5 -332z" />
    <glyph glyph-name="q" unicode="q" horiz-adv-x="1250" 
d="M1046 232q-63 -121 -181 -189.5t-272 -68.5q-231 0 -373 147t-142 379t142 379t373 147q154 0 272 -68.5t181 -189.5v232h62v-1500h-62v732zM141 500q0 -203 125 -332t327 -129t326.5 129t124.5 332t-124.5 332t-326.5 129t-327 -129t-125 -332z" />
    <glyph glyph-name="r" unicode="r" horiz-adv-x="733" 
d="M140 0v1000h63v-175q58 93 158 148t217 55q62 0 118 -15l-26 -56q-50 11 -92 11q-104 0 -189 -48q-86 -50 -136 -131.5t-50 -179.5v-609h-63z" />
    <glyph glyph-name="s" unicode="s" horiz-adv-x="901" 
d="M449 -17q-77 0 -160 25q-84 26 -142.5 74.5t-79.5 114.5l59 23q26 -81 112.5 -127.5t210.5 -46.5q54 0 107 13.5t99.5 39t75 68t28.5 95.5q0 65 -42 106q-78 74 -270 108q-95 17 -188 47q-89 31 -135.5 85t-46.5 144q0 85 53 149q53 61 137 95.5t182 34.5
q137 0 243.5 -58t140.5 -157l-61 -21q-27 82 -112 127.5t-211 45.5q-73 0 -141 -22t-118 -73t-50 -121q0 -71 41 -110q37 -38 101.5 -60t168.5 -41q113 -21 181 -50q191 -77 191 -229q0 -86 -53 -148q-52 -62 -137 -96.5t-184 -34.5z" />
    <glyph glyph-name="t" unicode="t" horiz-adv-x="731" 
d="M537 0q-99 0 -166.5 64.5t-67.5 159.5v716h-214v60h214v315h63v-1l1 -314h286v-60h-287v-716q0 -68 50 -116t121 -48q66 0 117 39v-69q-52 -30 -117 -30z" />
    <glyph glyph-name="u" unicode="u" horiz-adv-x="1074" 
d="M537 -26q-122 0 -221 57q-101 57 -159 152t-58 210v607h62v-607q0 -99 51 -180q51 -83 137 -131t188 -48q105 0 188 49q87 49 137 130.5t50 179.5v607h63v-1000h-63v177q-59 -92 -159 -147.5t-216 -55.5z" />
    <glyph glyph-name="v" unicode="v" horiz-adv-x="996" 
d="M461 0l-383 1004h66l354 -930l353 930h67l-382 -1004h-75z" />
    <glyph glyph-name="w" unicode="w" horiz-adv-x="1665" 
d="M429 0l-351 1000h61l327 -928l326 928h80l326 -928l326 928h62l-350 -1000h-73l-333 940l-330 -940h-71z" />
    <glyph glyph-name="x" unicode="x" horiz-adv-x="1041" 
d="M99 0l382 502l-382 502h77l344 -450l343 450h78l-383 -502l383 -502h-78l-343 452l-344 -452h-77z" />
    <glyph glyph-name="y" unicode="y" horiz-adv-x="1020" 
d="M283 -500l190 500l-374 1000h69l336 -916l351 916h65l-571 -1500h-66z" />
    <glyph glyph-name="z" unicode="z" horiz-adv-x="1090" 
d="M99 0v60l808 880h-808v60h892v-60l-809 -880h809v-60h-892z" />
    <glyph glyph-name="braceleft" unicode="{" horiz-adv-x="857" 
d="M686 -114q-101 0 -185 48t-132.5 127.5t-48.5 174.5v246q-2 34 -30.5 55.5t-61.5 30.5t-60.5 27.5t-27.5 46.5q0 27 18 43.5t44 25.5l52 18t45 27.5t21 47.5v246q0 97 49 176q50 81 133.5 127.5t183.5 46.5h50v-60h-50q-84 0 -151 -39q-70 -40 -111 -106t-41 -145v-248
q-1 -42 -15 -65q-11 -21 -37 -38.5t-95 -56.5q76 -43 92 -53q30 -19 41.5 -40.5t13.5 -64.5v-248q0 -122 87.5 -206t215.5 -84h50v-60h-50z" />
    <glyph glyph-name="bar" unicode="|" horiz-adv-x="386" 
d="M161 -302v1702h63v-1702h-63z" />
    <glyph glyph-name="braceright" unicode="}" horiz-adv-x="857" 
d="M120 -114v60h50q128 0 215.5 84t87.5 206v248q1 40 13 65q3 6 8 12t13.5 13t15.5 12t20.5 13t22 13t26.5 15l27 15q-56 32 -89 53q-31 19 -43 41.5t-14 65.5v248q0 80 -42 146q-42 67 -110.5 105.5t-150.5 38.5h-50v60h50q101 0 184 -47q84 -49 133 -128.5t49 -174.5
v-246q1 -29 20 -47.5t45 -27.5l52 -18t44 -25.5t18 -43.5q0 -28 -27.5 -46.5t-60.5 -27.5t-61 -30.5t-30 -55.5v-246q0 -95 -50 -175q-50 -81 -133 -128t-183 -47h-50z" />
    <glyph glyph-name="asciitilde" unicode="~" horiz-adv-x="1244" 
d="M900 443q-49 0 -111.5 26t-122 63.5t-117.5 75t-114.5 63t-96.5 24.5q-87 2 -139 -64t-30 -150l-61 -14q-21 69 4 136q27 68 88.5 111t139.5 43q56 0 135.5 -39.5t146.5 -86.5t145.5 -86.5t134.5 -39.5q88 0 142 64t29 144l61 18q24 -75 -5 -140q-29 -67 -91 -107.5
t-138 -40.5z" />
    <glyph glyph-name="exclamdown" unicode="&#xa1;" horiz-adv-x="292" 
d="M113 -400v980h63v-980h-63zM99 980q0 20 13.5 33t31.5 13q22 0 35.5 -13t13.5 -33q0 -18 -14 -31t-35 -13q-18 0 -31.5 13t-13.5 31z" />
    <glyph glyph-name="cent" unicode="&#xa2;" horiz-adv-x="1172" 
d="M588 200q-138 9 -248 79q-112 70 -176.5 181t-64.5 242q0 135 65 243q66 112 177 180t247 77v198h63v-198q132 -6 243.5 -70.5t177.5 -169.5l-54 -30q-61 96 -169 154t-226 58q-125 0 -231 -59q-107 -61 -169 -162t-62 -221q0 -125 64 -225q64 -102 169.5 -160.5
t228.5 -58.5q118 0 226 58t169 154l54 -30q-66 -105 -178 -169.5t-243 -70.5v-200h-63v200z" />
    <glyph glyph-name="sterling" unicode="&#xa3;" horiz-adv-x="1216" 
d="M123 60q136 0 230 67t94 173q0 88 -24 137q-2 5 -8 15h-292v60h249q-35 40 -99 86q-45 33 -84 75q-90 95 -90 267q0 202 148.5 344t359.5 142q140 0 257 -65t184.5 -176.5t67.5 -244.5h-63q0 116 -59 214q-62 98 -164 155t-223 57q-123 0 -223 -58q-103 -59 -163 -156
t-60 -212q0 -95 25 -156q23 -55 60 -92.5t90 -74.5q47 -33 85 -68q19 -17 33 -37h439v-60h-407q24 -64 24 -152q0 -76 -50.5 -141t-137.5 -99h794v-60h-993v60z" />
    <glyph glyph-name="currency" unicode="&#xa4;" horiz-adv-x="1024" 
d="M142 304l-43 42l125 122q-88 103 -87.5 231.5t89.5 230.5l-127 124l43 42l130 -124q104 85 240.5 85.5t240.5 -83.5l127 122l44 -42l-125 -122q91 -102 91 -232.5t-89 -233.5l123 -120l-44 -42l-125 120q-108 -88 -243.5 -87.5t-243.5 89.5zM201 698q0 -86 43 -153
q44 -68 115.5 -107.5t153.5 -39.5q131 0 222 87t91 213q0 127 -90 212.5t-223 85.5t-222.5 -85.5t-89.5 -212.5z" />
    <glyph glyph-name="yen" unicode="&#xa5;" horiz-adv-x="1231" 
d="M583 0v227h-349v60h349v206h-349v60h349v83l-484 764h73l442 -698l444 698h73l-485 -764v-83h349v-60h-349v-206h349v-60h-349v-227h-63z" />
    <glyph glyph-name="brokenbar" unicode="&#xa6;" horiz-adv-x="345" 
d="M140 650v750h63v-750h-63zM140 -302v750h63v-750h-63z" />
    <glyph glyph-name="section" unicode="&#xa7;" horiz-adv-x="1135" 
d="M586 -424q-130 0 -235.5 55.5t-143.5 142.5l55 30q31 -75 122.5 -121.5t201.5 -46.5q134 0 223.5 61.5t89.5 156.5q0 69 -37 109q-34 37 -99.5 61.5t-176.5 47.5q-131 28 -235 82q-211 113 -211 344q0 141 94.5 250t244.5 140q-157 20 -232 83t-75 175q0 84 53 148
q53 62 138.5 96t184.5 34q130 0 235 -55.5t143 -142.5l-54 -30q-31 75 -122.5 121.5t-201.5 46.5q-134 0 -224 -61.5t-90 -156.5q0 -68 37 -108q34 -37 99.5 -61.5t177.5 -48.5q138 -30 237 -82q209 -108 209 -348q0 -141 -95.5 -250t-244.5 -138q157 -19 232.5 -82
t75.5 -174q0 -85 -53 -147t-138.5 -96.5t-184.5 -34.5zM203 498q0 -97 53 -174q54 -78 137 -123t174 -45q100 0 182 46q84 46 133 122.5t49 167.5q0 110 -54 190q-54 77 -137 119.5t-173 42.5q-101 0 -183 -45q-84 -46 -132.5 -124.5t-48.5 -176.5z" />
    <glyph glyph-name="dieresis" unicode="&#xa8;" horiz-adv-x="1229" 
d="M747 2289q-21 0 -36 13t-15 31t15.5 32t35.5 14q18 0 33 -14t15 -32t-14.5 -31t-33.5 -13zM433 2333q0 18 15 32t35 14q19 0 33.5 -14t14.5 -32t-14.5 -31t-33.5 -13q-20 0 -35 13t-15 31z" />
    <glyph glyph-name="copyright" unicode="&#xa9;" horiz-adv-x="1832" 
d="M916 -138q-224 0 -412 104t-296.5 283.5t-108.5 394.5t108.5 394.5t296.5 283.5t412 104t412 -104t296.5 -283.5t108.5 -394.5t-108.5 -394.5t-296.5 -283.5t-412 -104zM161 644q0 -200 102 -366.5t275 -261t378 -94.5q156 0 296 57.5t240.5 154.5t159 230.5t58.5 279.5
q0 149 -60 283.5t-161.5 231t-241 153t-291.5 54.5q-155 -1 -295 -58.5t-241 -154.5t-160 -230t-59 -279zM405 644q0 108 41.5 206t111.5 168.5t167 112t203 41.5q126 0 235.5 -56.5t180.5 -153.5l-54 -28q-66 85 -162.5 131.5t-199.5 46.5q-129 0 -233 -64
q-105 -65 -166 -172t-61 -232q0 -129 63 -234q63 -107 168 -169.5t229 -62.5q107 0 203 49t159 129l54 -28q-71 -97 -180.5 -153.5t-235.5 -56.5q-143 0 -262 71q-121 72 -191 192t-70 263z" />
    <glyph glyph-name="ordfeminine" unicode="&#xaa;" horiz-adv-x="817" 
d="M403 732q-147 0 -237 93.5t-90 241.5q0 147 90 240.5t237 93.5q98 0 172.5 -43.5t114.5 -120.5v147h40v-635h-40v147q-40 -77 -114.5 -120.5t-172.5 -43.5zM116 1067q0 -129 79 -211t208 -82q128 0 207 82t79 211t-79 210.5t-207 81.5q-129 0 -208 -81.5t-79 -210.5z" />
    <glyph glyph-name="guillemotleft" unicode="&#xab;" horiz-adv-x="1326" 
d="M454 261l-314 340l314 338h84l-314 -338l314 -340h-84zM787 601l314 338h84l-314 -338l314 -340h-84z" />
    <glyph glyph-name="logicalnot" unicode="&#xac;" horiz-adv-x="1007" 
d="M844 335v470h-745v60h808v-530h-63z" />
    <glyph glyph-name="uni00AD" unicode="&#xad;" horiz-adv-x="992" 
d="M207 570v60h669v-60h-669z" />
    <glyph glyph-name="registered" unicode="&#xae;" horiz-adv-x="968" 
d="M483 512q-171 2 -288 115.5t-117 272.5q0 161 118 274.5t287 113.5q170 0 288 -115t118 -273q0 -159 -118.5 -272.5t-287.5 -115.5zM140 900q0 -90 47 -164q47 -76 125 -120t171 -44q94 0 172 45q79 45 125 119.5t46 163.5q0 88 -46 165q-48 76 -126 119.5t-171 43.5
t-172 -44q-79 -46 -125 -121t-46 -163zM368 714v380h145q46 0 77 -31.5t31 -78.5q0 -39 -23.5 -68.5t-61.5 -37.5l99 -164h-73l-98 162h-33v-162h-63zM431 936h82q18 0 31.5 14.5t13.5 33.5q0 21 -13 35.5t-32 14.5h-82v-98z" />
    <glyph glyph-name="macron" unicode="&#xaf;" horiz-adv-x="1285" 
d="M289 1790v60h706v-60h-706z" />
    <glyph glyph-name="degree" unicode="&#xb0;" horiz-adv-x="599" 
d="M299 888q-84 0 -142 55.5t-58 136.5t58 136.5t142 55.5q85 0 143 -55.5t58 -136.5t-58 -136.5t-143 -55.5zM161 1080q0 -55 40.5 -93.5t97.5 -38.5q58 0 98 38.5t40 93.5q0 56 -39.5 94t-98.5 38q-57 0 -97.5 -38t-40.5 -94z" />
    <glyph glyph-name="plusminus" unicode="&#xb1;" horiz-adv-x="1243" 
d="M590 280v490h-491v60h491v470h62v-470h492v-60h-492v-490h-62zM99 0v60h1045v-60h-1045z" />
    <glyph glyph-name="acute" unicode="&#xb4;" horiz-adv-x="595" 
d="M224 2310l84 288h62l-104 -288h-42z" />
    <glyph glyph-name="uni00B5" unicode="&#xb5;" horiz-adv-x="1074" 
d="M99 -432v1432h62v-548q0 -116 52 -210q52 -97 137.5 -152.5t187.5 -55.5q103 0 187 57q87 57 137 152.5t50 208.5v548h63v-1000h-63v206q-65 -110 -162.5 -171t-211.5 -61q-120 0 -219.5 64t-157.5 170v-640h-62z" />
    <glyph glyph-name="paragraph" unicode="&#xb6;" horiz-adv-x="764" 
d="M454 718q-99 0 -179 46q-81 46 -128.5 124t-47.5 170q0 94 48 172q49 79 129.5 124.5t177.5 45.5h63v-1702h-63v1020zM602 -302v1702h63v-1702h-63z" />
    <glyph glyph-name="periodcentered" unicode="&#xb7;" horiz-adv-x="292" 
d="M144 555q-18 0 -31.5 13.5t-13.5 32.5q0 18 13.5 31t31.5 13q21 0 35 -13t14 -31q0 -19 -14 -32.5t-35 -13.5z" />
    <glyph glyph-name="cedilla" unicode="&#xb8;" horiz-adv-x="1257" 
d="M617 -360q-59 -16 -113.5 14t-70.5 88l61 15q9 -33 40.5 -50.5t66.5 -8.5q36 9 54 39t8 64q-9 34 -40.5 51.5t-66.5 8.5l-74 -19l114 188l55 -30l-48 -78q43 -7 76.5 -35.5t44.5 -69.5q17 -58 -14.5 -110t-92.5 -67z" />
    <glyph glyph-name="ordmasculine" unicode="&#xba;" horiz-adv-x="815" 
d="M401 735q-146 0 -236 93t-90 240t90 239.5t236 92.5q147 0 236.5 -92.5t89.5 -239.5t-89.5 -240t-236.5 -93zM115 1068q0 -129 79 -210.5t207 -81.5t207 81.5t79 210.5q0 128 -79 209.5t-207 81.5t-207 -81.5t-79 -209.5z" />
    <glyph glyph-name="guillemotright" unicode="&#xbb;" horiz-adv-x="1285" 
d="M767 261l313 340l-313 338h83l314 -338l-314 -340h-83zM120 261l313 340l-313 338h83l314 -338l-314 -340h-83z" />
    <glyph glyph-name="questiondown" unicode="&#xbf;" horiz-adv-x="954" 
d="M477 1026q19 0 32.5 -14t13.5 -32t-13.5 -31t-32.5 -13q-20 0 -34 13t-14 31t14 32t34 14zM99 -66q0 102 51 187.5t141 132.5q66 34 103.5 93.5t37.5 130.5v226h62v-226q0 -88 -46 -161.5t-128 -116.5q-73 -38 -115.5 -109.5t-42.5 -156.5t43 -153q43 -69 114.5 -109
t157.5 -40q133 0 223.5 87t90.5 215h62q0 -100 -51 -182q-52 -83 -137.5 -131.5t-187.5 -48.5q-105 0 -190 49q-87 50 -137.5 132.5t-50.5 180.5z" />
    <glyph glyph-name="Agrave" unicode="&#xc0;" horiz-adv-x="1360" 
d="M99 0l533 1400h96l532 -1400h-66l-157 412h-715l-157 -412h-66zM345 472h669l-334 878zM583 1998h63l83 -288h-41z" />
    <glyph glyph-name="Aacute" unicode="&#xc1;" horiz-adv-x="1360" 
d="M99 0l533 1400h96l532 -1400h-66l-157 412h-715l-157 -412h-66zM345 472h669l-334 878zM643 1710l84 288h62l-104 -288h-42z" />
    <glyph glyph-name="Acircumflex" unicode="&#xc2;" horiz-adv-x="1360" 
d="M99 0l533 1400h96l532 -1400h-66l-157 412h-715l-157 -412h-66zM345 472h669l-334 878zM440 1710l200 288h63l201 -288h-81l-153 210l-149 -210h-81z" />
    <glyph glyph-name="Atilde" unicode="&#xc3;" horiz-adv-x="1360" 
d="M99 0l533 1400h96l532 -1400h-66l-157 412h-715l-157 -412h-66zM345 472h669l-334 878zM385 1745q-23 64 23 123t121 59q47 0 113 -36.5t128.5 -73t101.5 -36.5q37 0 60 38t11 68l59 18q22 -67 -24 -125.5t-123 -58.5q-36 0 -83 23t-85 50t-84 50t-80 23q-38 0 -63 -32.5
t-15 -73.5z" />
    <glyph glyph-name="Adieresis" unicode="&#xc4;" horiz-adv-x="1360" 
d="M99 0l533 1400h96l532 -1400h-66l-157 412h-715l-157 -412h-66zM345 472h669l-334 878zM507 1760q0 18 15 32t35 14q19 0 33.5 -14t14.5 -32t-14.5 -31t-33.5 -13q-20 0 -35 13t-15 31zM770 1760q0 18 15.5 32t35.5 14q18 0 33 -14t15 -32t-14.5 -31t-33.5 -13
q-21 0 -36 13t-15 31z" />
    <glyph glyph-name="Aring" unicode="&#xc5;" horiz-adv-x="1360" 
d="M99 0l533 1400h96l532 -1400h-66l-157 412h-715l-157 -412h-66zM345 472h669l-334 878zM537 1855q0 57 42 97.5t102 40.5q59 0 102 -41t43 -97q0 -58 -43 -99t-102 -41t-101.5 41.5t-42.5 98.5zM587 1855q0 -39 27.5 -65.5t66.5 -26.5q40 0 67 26.5t27 65.5q0 36 -27 62
t-67 26q-38 0 -66 -26t-28 -62z" />
    <glyph glyph-name="AE" unicode="&#xc6;" horiz-adv-x="1916" 
d="M974 762h695v-53h-695v-656h832v-53h-893v392h-591l-149 -392h-64l533 1400h1164v-53h-832v-585zM342 446h571v901h-226z" />
    <glyph glyph-name="Ccedilla" unicode="&#xc7;" horiz-adv-x="1510" 
d="M799 -397q-59 -16 -113.5 14t-70.5 88l61 15q9 -33 40.5 -50.5t66.5 -8.5q36 9 54 39t8 64q-9 34 -40.5 51.5t-66.5 8.5l-74 -19l101 167q-307 15 -487.5 214t-180.5 514q0 327 194 528t520 201q195 0 346.5 -75t243.5 -212l-62 -32q-86 121 -222.5 188.5t-307.5 67.5
q-193 0 -341.5 -85.5t-229 -237t-80.5 -344.5t80.5 -344.5t229 -237t341.5 -85.5q171 0 307.5 67.5t222.5 189.5l62 -32q-92 -135 -241 -210t-342 -76l15 -8l-48 -78q43 -7 76.5 -35.5t44.5 -69.5q17 -58 -14.5 -110t-92.5 -67z" />
    <glyph glyph-name="Egrave" unicode="&#xc8;" horiz-adv-x="1164" 
d="M140 0v1400h904v-60h-841v-577h720v-60h-720v-643h841v-60h-904zM473 1998h63l83 -288h-41z" />
    <glyph glyph-name="Eacute" unicode="&#xc9;" horiz-adv-x="1164" 
d="M140 0v1400h904v-60h-841v-577h720v-60h-720v-643h841v-60h-904zM549 1710l84 288h62l-104 -288h-42z" />
    <glyph glyph-name="Ecircumflex" unicode="&#xca;" horiz-adv-x="1164" 
d="M140 0v1400h904v-60h-841v-577h720v-60h-720v-643h841v-60h-904zM396 1710l200 288h63l201 -288h-81l-153 210l-149 -210h-81z" />
    <glyph glyph-name="Edieresis" unicode="&#xcb;" horiz-adv-x="1164" 
d="M140 0v1400h904v-60h-841v-577h720v-60h-720v-643h841v-60h-904zM405 1742q0 18 15 32t35 14q19 0 33.5 -14t14.5 -32t-14.5 -31t-33.5 -13q-20 0 -35 13t-15 31zM668 1742q0 18 15.5 32t35.5 14q18 0 33 -14t15 -32t-14.5 -31t-33.5 -13q-21 0 -36 13t-15 31z" />
    <glyph glyph-name="Igrave" unicode="&#xcc;" horiz-adv-x="407" 
d="M172 0v1400h62v-1400h-62zM113 1998h63l83 -288h-41z" />
    <glyph glyph-name="Iacute" unicode="&#xcd;" horiz-adv-x="407" 
d="M172 0v1400h62v-1400h-62zM176 1710l84 288h62l-104 -288h-42z" />
    <glyph glyph-name="Icircumflex" unicode="&#xce;" horiz-adv-x="407" 
d="M172 0v1400h62v-1400h-62zM-37 1710l200 288h63l201 -288h-81l-153 210l-149 -210h-81z" />
    <glyph glyph-name="Idieresis" unicode="&#xcf;" horiz-adv-x="407" 
d="M172 0v1400h62v-1400h-62zM21 1733q0 18 15 32t35 14q19 0 33.5 -14t14.5 -32t-14.5 -31t-33.5 -13q-20 0 -35 13t-15 31zM284 1733q0 18 15.5 32t35.5 14q18 0 33 -14t15 -32t-14.5 -31t-33.5 -13q-21 0 -36 13t-15 31z" />
    <glyph glyph-name="Eth" unicode="&#xd0;" horiz-adv-x="1231" 
d="M140 0v650h-271v60h271v690h467l1 1q216 0 378.5 -88t249 -246.5t86.5 -365.5q0 -155 -50 -285t-142 -222t-226 -143t-296 -51h-468zM203 60l403 -1q193 0 342 82t229.5 228t80.5 331t-80.5 331t-229.5 228t-342 82l-403 -1v-630h372v-60h-372v-590z" />
    <glyph glyph-name="Ntilde" unicode="&#xd1;" horiz-adv-x="1304" 
d="M140 0v1400h70l890 -1292v1292h63v-1400h-68l-892 1292v-1292h-63zM335 1741q-23 64 23 123t121 59q47 0 113 -36.5t128.5 -73t101.5 -36.5q37 0 60 38t11 68l59 18q22 -67 -24 -125.5t-123 -58.5q-36 0 -83 23t-85 50t-84 50t-80 23q-38 0 -63 -32.5t-15 -73.5z" />
    <glyph glyph-name="Ograve" unicode="&#xd2;" horiz-adv-x="1627" 
d="M813 -29q-326 0 -520 201t-194 528t194 528t520 201q216 0 378.5 -92t249 -256.5t86.5 -380.5t-86.5 -380.5t-249 -256.5t-378.5 -92zM159 699q0 -193 80.5 -344.5t229.5 -237t342 -85.5t342 85.5t229.5 237t80.5 344.5t-80.5 344.5t-229.5 237t-342 85.5t-342 -85.5
t-229.5 -237t-80.5 -344.5zM711 1998h63l83 -288h-41z" />
    <glyph glyph-name="Oacute" unicode="&#xd3;" horiz-adv-x="1627" 
d="M813 -29q-326 0 -520 201t-194 528t194 528t520 201q216 0 378.5 -92t249 -256.5t86.5 -380.5t-86.5 -380.5t-249 -256.5t-378.5 -92zM159 699q0 -193 80.5 -344.5t229.5 -237t342 -85.5t342 85.5t229.5 237t80.5 344.5t-80.5 344.5t-229.5 237t-342 85.5t-342 -85.5
t-229.5 -237t-80.5 -344.5zM774 1710l84 288h62l-104 -288h-42z" />
    <glyph glyph-name="Ocircumflex" unicode="&#xd4;" horiz-adv-x="1627" 
d="M813 -29q-326 0 -520 201t-194 528t194 528t520 201q216 0 378.5 -92t249 -256.5t86.5 -380.5t-86.5 -380.5t-249 -256.5t-378.5 -92zM159 699q0 -193 80.5 -344.5t229.5 -237t342 -85.5t342 85.5t229.5 237t80.5 344.5t-80.5 344.5t-229.5 237t-342 85.5t-342 -85.5
t-229.5 -237t-80.5 -344.5zM605 1710l200 288h63l201 -288h-81l-153 210l-149 -210h-81z" />
    <glyph glyph-name="Otilde" unicode="&#xd5;" horiz-adv-x="1627" 
d="M813 -29q-326 0 -520 201t-194 528t194 528t520 201q216 0 378.5 -92t249 -256.5t86.5 -380.5t-86.5 -380.5t-249 -256.5t-378.5 -92zM159 699q0 -193 80.5 -344.5t229.5 -237t342 -85.5t342 85.5t229.5 237t80.5 344.5t-80.5 344.5t-229.5 237t-342 85.5t-342 -85.5
t-229.5 -237t-80.5 -344.5zM462 1733q-23 64 23 123t121 59q47 0 113 -36.5t128.5 -73t101.5 -36.5q37 0 60 38t11 68l59 18q22 -67 -24 -125.5t-123 -58.5q-36 0 -83 23t-85 50t-84 50t-80 23q-38 0 -63 -32.5t-15 -73.5z" />
    <glyph glyph-name="Odieresis" unicode="&#xd6;" horiz-adv-x="1627" 
d="M813 -29q-326 0 -520 201t-194 528t194 528t520 201q216 0 378.5 -92t249 -256.5t86.5 -380.5t-86.5 -380.5t-249 -256.5t-378.5 -92zM159 699q0 -193 80.5 -344.5t229.5 -237t342 -85.5t342 85.5t229.5 237t80.5 344.5t-80.5 344.5t-229.5 237t-342 85.5t-342 -85.5
t-229.5 -237t-80.5 -344.5zM630 1733q0 18 15 32t35 14q19 0 33.5 -14t14.5 -32t-14.5 -31t-33.5 -13q-20 0 -35 13t-15 31zM893 1733q0 18 15.5 32t35.5 14q18 0 33 -14t15 -32t-14.5 -31t-33.5 -13q-21 0 -36 13t-15 31z" />
    <glyph glyph-name="multiply" unicode="&#xd7;" horiz-adv-x="982" 
d="M142 226l-43 42l346 332l-346 332l43 42l347 -332l348 332l45 -42l-348 -332l348 -332l-45 -42l-348 332z" />
    <glyph glyph-name="Oslash" unicode="&#xd8;" horiz-adv-x="1627" 
d="M813 -29q-60 0 -122 8l-44 -188h-70l47 200q-245 55 -385 244.5t-140 464.5q0 327 194 528t520 201q75 0 146 -12l41 177h71l-45 -191q235 -61 368 -247.5t133 -455.5q0 -216 -86.5 -380.5t-249 -256.5t-378.5 -92zM159 699q0 -246 129.5 -420.5t349.5 -226.5l306 1303
q-66 11 -133 11q-193 0 -342 -85.5t-229.5 -237t-80.5 -344.5zM705 39q48 -7 106 -7q193 0 342 85.5t229.5 237t80.5 344.5q0 238 -121.5 409.5t-330.5 230.5z" />
    <glyph glyph-name="Ugrave" unicode="&#xd9;" horiz-adv-x="1390" 
d="M694 -26q-175 0 -299 82q-123 81 -189 219.5t-66 308.5v816h63v-816q0 -244 132.5 -397t358.5 -153q227 0 359 148t132 402v816h63v-816q0 -271 -150 -440.5t-404 -169.5zM591 1998h63l83 -288h-41z" />
    <glyph glyph-name="Uacute" unicode="&#xda;" horiz-adv-x="1390" 
d="M694 -26q-175 0 -299 82q-123 81 -189 219.5t-66 308.5v816h63v-816q0 -244 132.5 -397t358.5 -153q227 0 359 148t132 402v816h63v-816q0 -271 -150 -440.5t-404 -169.5zM640 1710l84 288h62l-104 -288h-42z" />
    <glyph glyph-name="Ucircumflex" unicode="&#xdb;" horiz-adv-x="1390" 
d="M694 -26q-175 0 -299 82q-123 81 -189 219.5t-66 308.5v816h63v-816q0 -244 132.5 -397t358.5 -153q227 0 359 148t132 402v816h63v-816q0 -271 -150 -440.5t-404 -169.5zM478 1710l200 288h63l201 -288h-81l-153 210l-149 -210h-81z" />
    <glyph glyph-name="Udieresis" unicode="&#xdc;" horiz-adv-x="1390" 
d="M694 -26q-175 0 -299 82q-123 81 -189 219.5t-66 308.5v816h63v-816q0 -244 132.5 -397t358.5 -153q227 0 359 148t132 402v816h63v-816q0 -271 -150 -440.5t-404 -169.5zM525 1733q0 18 15 32t35 14q19 0 33.5 -14t14.5 -32t-14.5 -31t-33.5 -13q-20 0 -35 13t-15 31z
M788 1733q0 18 15.5 32t35.5 14q18 0 33 -14t15 -32t-14.5 -31t-33.5 -13q-21 0 -36 13t-15 31z" />
    <glyph glyph-name="Yacute" unicode="&#xdd;" horiz-adv-x="1189" 
d="M562 0v636l-484 764h73l443 -698l443 698h73l-485 -764v-636h-63zM519 1710l84 288h62l-104 -288h-42z" />
    <glyph glyph-name="Thorn" unicode="&#xde;" horiz-adv-x="1178" 
d="M140 -243v1642h63v-242h416q82 0 154 -24.5t132 -74t95.5 -134.5t36.5 -197q0 -112 -35 -197t-95.5 -134.5t-133 -74t-154.5 -24.5h-416v-540h-63zM203 357h416q52 0 101 11.5t96 38.5t81.5 67.5t56 103t21.5 140.5v1q0 104 -31.5 180.5t-85 118t-113 60.5t-126.5 19
h-416v-740z" />
    <glyph glyph-name="germandbls" unicode="&#xdf;" horiz-adv-x="969" 
d="M524 7q-106 0 -179 28v66q120 -34 205 -27t139.5 53.5t79.5 116t25 161.5q0 80 -24 143t-62 101.5t-88.5 63t-98.5 34t-98 9.5h-61v65h55q129 0 210 68t81 210q0 121 -64 190.5t-187 69.5q-83 0 -139 -24t-87.5 -73t-44 -113t-12.5 -155v-1183h-72v1221q0 392 355 392
q143 0 233.5 -80.5t90.5 -244.5q0 -114 -43 -187.5t-137 -122.5q132 -47 198.5 -137t66.5 -247q0 -177 -93 -287.5t-249 -110.5z" />
    <glyph glyph-name="agrave" unicode="&#xe0;" horiz-adv-x="1208" 
d="M593 -26q-231 0 -373 147t-142 379t142 379t373 147q154 0 272 -68.5t181 -189.5v232h62v-1000h-62v232q-63 -121 -181 -189.5t-272 -68.5zM141 500q0 -203 125 -332t327 -129t326.5 129t124.5 332t-124.5 332t-326.5 129t-327 -129t-125 -332zM507 1564h63l83 -288h-41z
" />
    <glyph glyph-name="aacute" unicode="&#xe1;" horiz-adv-x="1208" 
d="M593 -26q-231 0 -373 147t-142 379t142 379t373 147q154 0 272 -68.5t181 -189.5v232h62v-1000h-62v232q-63 -121 -181 -189.5t-272 -68.5zM141 500q0 -203 125 -332t327 -129t326.5 129t124.5 332t-124.5 332t-326.5 129t-327 -129t-125 -332zM532 1308l84 288h62
l-104 -288h-42z" />
    <glyph glyph-name="acircumflex" unicode="&#xe2;" horiz-adv-x="1208" 
d="M593 -26q-231 0 -373 147t-142 379t142 379t373 147q154 0 272 -68.5t181 -189.5v232h62v-1000h-62v232q-63 -121 -181 -189.5t-272 -68.5zM141 500q0 -203 125 -332t327 -129t326.5 129t124.5 332t-124.5 332t-326.5 129t-327 -129t-125 -332zM370 1315l200 288h63
l201 -288h-81l-153 210l-149 -210h-81z" />
    <glyph glyph-name="atilde" unicode="&#xe3;" horiz-adv-x="1208" 
d="M593 -26q-231 0 -373 147t-142 379t142 379t373 147q154 0 272 -68.5t181 -189.5v232h62v-1000h-62v232q-63 -121 -181 -189.5t-272 -68.5zM141 500q0 -203 125 -332t327 -129t326.5 129t124.5 332t-124.5 332t-326.5 129t-327 -129t-125 -332zM298 1356q-23 64 23 123
t121 59q47 0 113 -36.5t128.5 -73t101.5 -36.5q37 0 60 38t11 68l59 18q22 -67 -24 -125.5t-123 -58.5q-36 0 -83 23t-85 50t-84 50t-80 23q-38 0 -63 -32.5t-15 -73.5z" />
    <glyph glyph-name="adieresis" unicode="&#xe4;" horiz-adv-x="1208" 
d="M593 -26q-231 0 -373 147t-142 379t142 379t373 147q154 0 272 -68.5t181 -189.5v232h62v-1000h-62v232q-63 -121 -181 -189.5t-272 -68.5zM141 500q0 -203 125 -332t327 -129t326.5 129t124.5 332t-124.5 332t-326.5 129t-327 -129t-125 -332zM451 1361q0 18 15 32
t35 14q19 0 33.5 -14t14.5 -32t-14.5 -31t-33.5 -13q-20 0 -35 13t-15 31zM714 1361q0 18 15.5 32t35.5 14q18 0 33 -14t15 -32t-14.5 -31t-33.5 -13q-21 0 -36 13t-15 31z" />
    <glyph glyph-name="aring" unicode="&#xe5;" horiz-adv-x="1208" 
d="M593 -26q-231 0 -373 147t-142 379t142 379t373 147q154 0 272 -68.5t181 -189.5v232h62v-1000h-62v232q-63 -121 -181 -189.5t-272 -68.5zM141 500q0 -203 125 -332t327 -129t326.5 129t124.5 332t-124.5 332t-326.5 129t-327 -129t-125 -332zM467 1464q0 57 42 97.5
t102 40.5q59 0 102 -41t43 -97q0 -58 -43 -99t-102 -41t-101.5 41.5t-42.5 98.5zM517 1464q0 -39 27.5 -65.5t66.5 -26.5q40 0 67 26.5t27 65.5q0 36 -27 62t-67 26q-38 0 -66 -26t-28 -62z" />
    <glyph glyph-name="ae" unicode="&#xe6;" horiz-adv-x="2147" 
d="M593 -26q-231 0 -373 147t-142 379t142 379t373 147q154 0 272 -68.5t181 -189.5v232h62v-219q65 115 180.5 180t265.5 65q231 0 373 -147t142 -379v-30h-961v-51q25 -171 145 -275.5t301 -104.5q143 0 250 67.5t158 184.5l65 -15q-56 -140 -180 -221t-293 -81
q-150 0 -265.5 65t-180.5 180v-219h-62v232q-63 -121 -181 -189.5t-272 -68.5zM141 500q0 -203 125 -332t327 -129q187 0 309 112t139 293q-2 36 -2 56t2 56q-17 181 -139 293t-309 112q-202 0 -327 -129t-125 -332zM1108 530h896q-9 191 -132.5 311t-317.5 120
q-181 0 -301 -104.5t-145 -275.5v-51z" />
    <glyph glyph-name="ccedilla" unicode="&#xe7;" horiz-adv-x="1095" 
d="M617 -360q-59 -16 -113.5 14t-70.5 88l61 15q9 -33 40.5 -50.5t66.5 -8.5q36 9 54 39t8 64q-9 34 -40.5 51.5t-66.5 8.5l-74 -19l80 133q-145 7 -255 75.5t-169.5 185.5t-59.5 264q0 232 142 379t373 147q169 0 293 -81t180 -221l-65 -15q-51 117 -158 184.5t-250 67.5
q-202 0 -327 -129t-125 -332t125 -332t327 -129q143 0 250 67.5t158 184.5l65 -15q-52 -131 -164.5 -211t-265.5 -90l-33 -53q43 -7 76.5 -35.5t44.5 -69.5q17 -58 -14.5 -110t-92.5 -67z" />
    <glyph glyph-name="egrave" unicode="&#xe8;" 
d="M593 -26q-231 0 -373 147t-142 379t142 379t373 147t373 -147t142 -379v-30h-966q10 -191 133 -311t318 -120q143 0 250 67.5t158 184.5l65 -15q-56 -140 -180 -221t-293 -81zM142 530h901q-9 191 -132.5 311t-317.5 120q-195 0 -318 -120t-133 -311zM470 1592h63
l83 -288h-41z" />
    <glyph glyph-name="eacute" unicode="&#xe9;" 
d="M593 -26q-231 0 -373 147t-142 379t142 379t373 147t373 -147t142 -379v-30h-966q10 -191 133 -311t318 -120q143 0 250 67.5t158 184.5l65 -15q-56 -140 -180 -221t-293 -81zM142 530h901q-9 191 -132.5 311t-317.5 120q-195 0 -318 -120t-133 -311zM406 1302l84 288h62
l-104 -288h-42z" />
    <glyph glyph-name="ecircumflex" unicode="&#xea;" 
d="M593 -26q-231 0 -373 147t-142 379t142 379t373 147t373 -147t142 -379v-30h-966q10 -191 133 -311t318 -120q143 0 250 67.5t158 184.5l65 -15q-56 -140 -180 -221t-293 -81zM142 530h901q-9 191 -132.5 311t-317.5 120q-195 0 -318 -120t-133 -311zM360 1307l200 288
h63l201 -288h-81l-153 210l-149 -210h-81z" />
    <glyph glyph-name="edieresis" unicode="&#xeb;" 
d="M593 -26q-231 0 -373 147t-142 379t142 379t373 147t373 -147t142 -379v-30h-966q10 -191 133 -311t318 -120q143 0 250 67.5t158 184.5l65 -15q-56 -140 -180 -221t-293 -81zM142 530h901q-9 191 -132.5 311t-317.5 120q-195 0 -318 -120t-133 -311zM420 1332
q0 18 15 32t35 14q19 0 33.5 -14t14.5 -32t-14.5 -31t-33.5 -13q-20 0 -35 13t-15 31zM683 1332q0 18 15.5 32t35.5 14q18 0 33 -14t15 -32t-14.5 -31t-33.5 -13q-21 0 -36 13t-15 31z" />
    <glyph glyph-name="igrave" unicode="&#xec;" horiz-adv-x="345" 
d="M140 0v1000h63v-1000h-63zM49 1592h63l83 -288h-41z" />
    <glyph glyph-name="iacute" unicode="&#xed;" horiz-adv-x="433" 
d="M140 0v1000h63v-1000h-63zM146 1310l84 288h62l-104 -288h-42z" />
    <glyph glyph-name="icircumflex" unicode="&#xee;" horiz-adv-x="45" 
d="M-10 0v1000h63v-1000h-63zM-210 1288l200 288h63l201 -288h-81l-153 210l-149 -210h-81z" />
    <glyph glyph-name="idieresis" unicode="&#xef;" horiz-adv-x="333" 
d="M140 0v1000h63v-1000h-63zM-15 1358q0 18 15 32t35 14q19 0 33.5 -14t14.5 -32t-14.5 -31t-33.5 -13q-20 0 -35 13t-15 31zM248 1358q0 18 15.5 32t35.5 14q18 0 33 -14t15 -32t-14.5 -31t-33.5 -13q-21 0 -36 13t-15 31z" />
    <glyph glyph-name="eth" unicode="&#xf0;" horiz-adv-x="1231" 
d="M623 -26q-142 0 -263 68q-121 69 -191 183t-70 251t69.5 252.5t190 182.5t264.5 67q138 0 254 -61t187 -167q-30 152 -105 288t-183 229l-230 -133l-30 52l210 121q-155 111 -335 111v60q214 0 392 -138l196 114l30 -52l-177 -103q51 -46 93 -100q105 -133 163 -307
t59 -370q0 -164 -65 -285q-67 -125 -185.5 -194t-273.5 -69zM161 476q0 -119 62 -220q64 -103 169 -162.5t231 -59.5q131 0 237 62t167 162.5t61 217.5q0 122 -63 222q-63 102 -168.5 161t-233.5 59q-131 0 -235 -61q-105 -61 -166 -162t-61 -219z" />
    <glyph glyph-name="ntilde" unicode="&#xf1;" horiz-adv-x="1116" 
d="M140 1000h63v-175q58 94 158.5 148.5t216.5 54.5q120 0 221 -56q102 -58 159.5 -154t57.5 -209v-609h-62v609q0 102 -52 181q-52 83 -137.5 130.5t-186.5 47.5q-104 0 -189 -48q-87 -51 -136.5 -132.5t-49.5 -178.5v-609h-63v1000zM274 1341q-23 64 23 123t121 59
q47 0 113 -36.5t128.5 -73t101.5 -36.5q37 0 60 38t11 68l59 18q22 -67 -24 -125.5t-123 -58.5q-36 0 -83 23t-85 50t-84 50t-80 23q-38 0 -63 -32.5t-15 -73.5z" />
    <glyph glyph-name="ograve" unicode="&#xf2;" 
d="M593 -26q-231 0 -373 147t-142 379t142 379t373 147t373 -147t142 -379t-142 -379t-373 -147zM141 500q0 -203 125 -332t327 -129t326.5 129t124.5 332t-124.5 332t-326.5 129t-327 -129t-125 -332zM477 1591h63l83 -288h-41z" />
    <glyph glyph-name="oacute" unicode="&#xf3;" 
d="M593 -26q-231 0 -373 147t-142 379t142 379t373 147t373 -147t142 -379t-142 -379t-373 -147zM141 500q0 -203 125 -332t327 -129t326.5 129t124.5 332t-124.5 332t-326.5 129t-327 -129t-125 -332zM552 1286l84 288h62l-104 -288h-42z" />
    <glyph glyph-name="ocircumflex" unicode="&#xf4;" 
d="M593 -26q-231 0 -373 147t-142 379t142 379t373 147t373 -147t142 -379t-142 -379t-373 -147zM141 500q0 -203 125 -332t327 -129t326.5 129t124.5 332t-124.5 332t-326.5 129t-327 -129t-125 -332zM362 1288l200 288h63l201 -288h-81l-153 210l-149 -210h-81z" />
    <glyph glyph-name="otilde" unicode="&#xf5;" 
d="M593 -26q-231 0 -373 147t-142 379t142 379t373 147t373 -147t142 -379t-142 -379t-373 -147zM141 500q0 -203 125 -332t327 -129t326.5 129t124.5 332t-124.5 332t-326.5 129t-327 -129t-125 -332zM278 1340q-23 64 23 123t121 59q47 0 113 -36.5t128.5 -73t101.5 -36.5
q37 0 60 38t11 68l59 18q22 -67 -24 -125.5t-123 -58.5q-36 0 -83 23t-85 50t-84 50t-80 23q-38 0 -63 -32.5t-15 -73.5z" />
    <glyph glyph-name="odieresis" unicode="&#xf6;" 
d="M593 -26q-231 0 -373 147t-142 379t142 379t373 147t373 -147t142 -379t-142 -379t-373 -147zM141 500q0 -203 125 -332t327 -129t326.5 129t124.5 332t-124.5 332t-326.5 129t-327 -129t-125 -332zM402 1358q0 18 15 32t35 14q19 0 33.5 -14t14.5 -32t-14.5 -31
t-33.5 -13q-20 0 -35 13t-15 31zM665 1358q0 18 15.5 32t35.5 14q18 0 33 -14t15 -32t-14.5 -31t-33.5 -13q-21 0 -36 13t-15 31z" />
    <glyph glyph-name="divide" unicode="&#xf7;" horiz-adv-x="1243" 
d="M99 570v60h1045v-60h-1045zM538 234q0 33 23.5 57.5t59.5 24.5q34 0 60 -25t26 -57t-26 -55t-60 -23q-37 0 -60 22t-23 56zM538 962q0 32 23.5 57t59.5 25q33 0 57.5 -25.5t24.5 -56.5q0 -33 -24 -56.5t-58 -23.5q-37 0 -60 23t-23 57z" />
    <glyph glyph-name="oslash" unicode="&#xf8;" horiz-adv-x="1231" 
d="M593 -26q-79 0 -148 18l-52 -163h-70l59 184q-142 57 -223 186t-81 301q0 232 142 379t373 147q60 0 110 -10l43 134h71l-48 -150q157 -50 248 -183.5t91 -316.5q0 -232 -142 -379t-373 -147zM141 500q0 -149 69.5 -261t191.5 -163l281 877q-46 8 -90 8q-202 0 -327 -129
t-125 -332zM465 54q60 -15 128 -15q202 0 326.5 129t124.5 332q0 159 -79 276t-216 161z" />
    <glyph glyph-name="ugrave" unicode="&#xf9;" horiz-adv-x="1074" 
d="M537 -26q-122 0 -221 57q-101 57 -159 152t-58 210v607h62v-607q0 -99 51 -180q51 -83 137 -131t188 -48q105 0 188 49q87 49 137 130.5t50 179.5v607h63v-1000h-63v177q-59 -92 -159 -147.5t-216 -55.5zM456 1590h63l83 -288h-41z" />
    <glyph glyph-name="uacute" unicode="&#xfa;" horiz-adv-x="1074" 
d="M537 -26q-122 0 -221 57q-101 57 -159 152t-58 210v607h62v-607q0 -99 51 -180q51 -83 137 -131t188 -48q105 0 188 49q87 49 137 130.5t50 179.5v607h63v-1000h-63v177q-59 -92 -159 -147.5t-216 -55.5zM499 1294l84 288h62l-104 -288h-42z" />
    <glyph glyph-name="ucircumflex" unicode="&#xfb;" horiz-adv-x="1074" 
d="M537 -26q-122 0 -221 57q-101 57 -159 152t-58 210v607h62v-607q0 -99 51 -180q51 -83 137 -131t188 -48q105 0 188 49q87 49 137 130.5t50 179.5v607h63v-1000h-63v177q-59 -92 -159 -147.5t-216 -55.5zM322 1309l200 288h63l201 -288h-81l-153 210l-149 -210h-81z" />
    <glyph glyph-name="udieresis" unicode="&#xfc;" horiz-adv-x="1074" 
d="M537 -26q-122 0 -221 57q-101 57 -159 152t-58 210v607h62v-607q0 -99 51 -180q51 -83 137 -131t188 -48q105 0 188 49q87 49 137 130.5t50 179.5v607h63v-1000h-63v177q-59 -92 -159 -147.5t-216 -55.5zM358 1359q0 18 15 32t35 14q19 0 33.5 -14t14.5 -32t-14.5 -31
t-33.5 -13q-20 0 -35 13t-15 31zM621 1359q0 18 15.5 32t35.5 14q18 0 33 -14t15 -32t-14.5 -31t-33.5 -13q-21 0 -36 13t-15 31z" />
    <glyph glyph-name="yacute" unicode="&#xfd;" horiz-adv-x="1020" 
d="M283 -500l190 500l-374 1000h69l336 -916l351 916h65l-571 -1500h-66zM445 1308l84 288h62l-104 -288h-42z" />
    <glyph glyph-name="thorn" unicode="&#xfe;" horiz-adv-x="1231" 
d="M140 -504v1903h63v-635q63 121 181 189.5t272 68.5q231 0 373 -147t142 -379t-142 -379t-373 -147q-154 0 -272 68.5t-181 189.5v-732h-63zM205 496q0 -203 124.5 -332t326.5 -129t327 129t125 332t-125 332t-327 129t-326.5 -129t-124.5 -332z" />
    <glyph glyph-name="ydieresis" unicode="&#xff;" horiz-adv-x="1020" 
d="M283 -500l190 500l-374 1000h69l336 -916l351 916h65l-571 -1500h-66zM342 1329q0 18 15 32t35 14q19 0 33.5 -14t14.5 -32t-14.5 -31t-33.5 -13q-20 0 -35 13t-15 31zM605 1329q0 18 15.5 32t35.5 14q18 0 33 -14t15 -32t-14.5 -31t-33.5 -13q-21 0 -36 13t-15 31z" />
    <glyph glyph-name="Amacron" unicode="&#x100;" horiz-adv-x="1360" 
d="M99 0l533 1400h96l532 -1400h-66l-157 412h-715l-157 -412h-66zM324 1737v60h706v-60h-706zM345 472h669l-334 878z" />
    <glyph glyph-name="amacron" unicode="&#x101;" horiz-adv-x="1208" 
d="M593 -26q-231 0 -373 147t-142 379t142 379t373 147q154 0 272 -68.5t181 -189.5v232h62v-1000h-62v232q-63 -121 -181 -189.5t-272 -68.5zM141 500q0 -203 125 -332t327 -129t326.5 129t124.5 332t-124.5 332t-326.5 129t-327 -129t-125 -332zM261 1323v60h706v-60h-706
z" />
    <glyph glyph-name="Abreve" unicode="&#x102;" horiz-adv-x="1360" 
d="M99 0l533 1400h96l532 -1400h-66l-157 412h-715l-157 -412h-66zM343 1958h63q0 -76 39 -138q42 -62 106.5 -98t138.5 -36q119 0 201.5 79t82.5 193h62q0 -94 -48 -169q-49 -76 -128 -119.5t-170 -43.5q-96 0 -174 45q-80 45 -126.5 121t-46.5 166zM345 472h669l-334 878z
" />
    <glyph glyph-name="abreve" unicode="&#x103;" horiz-adv-x="1208" 
d="M593 -26q-231 0 -373 147t-142 379t142 379t373 147q154 0 272 -68.5t181 -189.5v232h62v-1000h-62v232q-63 -121 -181 -189.5t-272 -68.5zM141 500q0 -203 125 -332t327 -129t326.5 129t124.5 332t-124.5 332t-326.5 129t-327 -129t-125 -332zM266 1591h63
q0 -77 39 -138q42 -62 106.5 -98t138.5 -36q119 0 201.5 79t82.5 193h62q0 -94 -48 -169q-49 -76 -128 -119.5t-170 -43.5q-96 0 -174 45q-80 45 -126.5 121t-46.5 166z" />
    <glyph glyph-name="Aogonek" unicode="&#x104;" horiz-adv-x="1360" 
d="M99 0l533 1400h96l532 -1400h-1q-164 -158 -173 -168q-28 -30 -28 -59q0 -32 23.5 -57t61.5 -27q44 0 79 29.5t35 77.5h62q0 -73 -51 -120t-126 -47q-63 1 -104.5 42.5t-41.5 101.5q0 59 43 101l149 142l-151 396h-715l-157 -412h-66zM345 472h669l-334 878z" />
    <glyph glyph-name="aogonek" unicode="&#x105;" horiz-adv-x="1208" 
d="M593 -26q-231 0 -373 147t-142 379t142 379t373 147q154 0 272 -68.5t181 -189.5v232h62v-1000h-2q-164 -158 -173 -168q-28 -30 -28 -59q0 -32 23.5 -57t61.5 -27q44 0 79 29.5t35 77.5h62q0 -73 -51 -120t-126 -47q-63 1 -104.5 42.5t-41.5 101.5q0 59 43 101l160 153
v205q-63 -121 -181 -189.5t-272 -68.5zM141 500q0 -203 125 -332t327 -129t326.5 129t124.5 332t-124.5 332t-326.5 129t-327 -129t-125 -332z" />
    <glyph glyph-name="Cacute" unicode="&#x106;" horiz-adv-x="1510" 
d="M811 -29q-326 0 -520 201t-194 528t194 528t520 201q195 0 346.5 -75t243.5 -212l-62 -32q-86 121 -222.5 188.5t-307.5 67.5q-193 0 -341.5 -85.5t-229 -237t-80.5 -344.5t80.5 -344.5t229 -237t341.5 -85.5q171 0 307.5 67.5t222.5 189.5l62 -32q-93 -137 -244 -211.5
t-346 -74.5zM742 1710l84 288h62l-104 -288h-42z" />
    <glyph glyph-name="cacute" unicode="&#x107;" horiz-adv-x="1095" 
d="M593 -26q-231 0 -373 147t-142 379t142 379t373 147q169 0 293 -81t180 -221l-65 -15q-51 117 -158 184.5t-250 67.5q-202 0 -327 -129t-125 -332t125 -332t327 -129q143 0 250 67.5t158 184.5l65 -15q-56 -140 -180 -221t-293 -81zM541 1310l84 288h62l-104 -288h-42z
" />
    <glyph glyph-name="Cdotaccent" unicode="&#x10a;" horiz-adv-x="1510" 
d="M811 -29q-326 0 -520 201t-194 528t194 528t520 201q195 0 346.5 -75t243.5 -212l-62 -32q-86 121 -222.5 188.5t-307.5 67.5q-193 0 -341.5 -85.5t-229 -237t-80.5 -344.5t80.5 -344.5t229 -237t341.5 -85.5q171 0 307.5 67.5t222.5 189.5l62 -32q-93 -137 -244 -211.5
t-346 -74.5zM743 1781q0 20 14 32t34 12q19 0 32.5 -12.5t13.5 -30.5q0 -20 -13.5 -32.5t-32.5 -12.5q-20 0 -34 12.5t-14 31.5z" />
    <glyph glyph-name="cdotaccent" unicode="&#x10b;" horiz-adv-x="1095" 
d="M593 -26q-231 0 -373 147t-142 379t142 379t373 147q169 0 293 -81t180 -221l-65 -15q-51 117 -158 184.5t-250 67.5q-202 0 -327 -129t-125 -332t125 -332t327 -129q143 0 250 67.5t158 184.5l65 -15q-56 -140 -180 -221t-293 -81zM532 1357q0 20 14 32t34 12
q19 0 32.5 -12.5t13.5 -30.5q0 -20 -13.5 -32.5t-32.5 -12.5q-20 0 -34 12.5t-14 31.5z" />
    <glyph glyph-name="Ccaron" unicode="&#x10c;" horiz-adv-x="1510" 
d="M811 -29q-326 0 -520 201t-194 528t194 528t520 201q195 0 346.5 -75t243.5 -212l-62 -32q-86 121 -222.5 188.5t-307.5 67.5q-193 0 -341.5 -85.5t-229 -237t-80.5 -344.5t80.5 -344.5t229 -237t341.5 -85.5q171 0 307.5 67.5t222.5 189.5l62 -32q-93 -137 -244 -211.5
t-346 -74.5zM566 1983h83l150 -210l147 210h83l-200 -288h-62z" />
    <glyph glyph-name="ccaron" unicode="&#x10d;" horiz-adv-x="1095" 
d="M593 -26q-231 0 -373 147t-142 379t142 379t373 147q169 0 293 -81t180 -221l-65 -15q-51 117 -158 184.5t-250 67.5q-202 0 -327 -129t-125 -332t125 -332t327 -129q143 0 250 67.5t158 184.5l65 -15q-56 -140 -180 -221t-293 -81zM343 1582h83l150 -210l147 210h83
l-200 -288h-62z" />
    <glyph glyph-name="Dcaron" unicode="&#x10e;" horiz-adv-x="1401" 
d="M140 0v1400h467l1 1q216 0 378.5 -88t249 -246.5t86.5 -365.5q0 -155 -50 -285t-142 -222t-226 -143t-296 -51h-468zM203 60l403 -1q193 0 342 82t229.5 228t80.5 331t-80.5 331t-229.5 228t-342 82l-403 -1v-1280zM437 1985h83l150 -210l147 210h83l-200 -288h-62z" />
    <glyph glyph-name="dcaron" unicode="&#x10f;" horiz-adv-x="1187" 
d="M593 -26q-231 0 -373 147t-142 379t142 379t373 147q154 0 272 -68.5t181 -189.5v732h62v-1500h-62v232q-63 -121 -181 -189.5t-272 -68.5zM141 500q0 -203 125 -332t327 -129t326.5 129t124.5 332t-124.5 332t-326.5 129t-327 -129t-125 -332zM366 1594h83l150 -210
l147 210h83l-200 -288h-62z" />
    <glyph glyph-name="Dcroat" unicode="&#x110;" horiz-adv-x="1231" 
d="M140 0v650h-271v60h271v690h467l1 1q216 0 378.5 -88t249 -246.5t86.5 -365.5q0 -155 -50 -285t-142 -222t-226 -143t-296 -51h-468zM203 60l403 -1q193 0 342 82t229.5 228t80.5 331t-80.5 331t-229.5 228t-342 82l-403 -1v-630h372v-60h-372v-590z" />
    <glyph glyph-name="dcroat" unicode="&#x111;" horiz-adv-x="1231" 
d="M593 -26q-231 0 -373 147t-142 379t142 379t373 147q154 0 272 -68.5t181 -189.5v459h-344v60h344v213h62v-213h300v-60h-300v-1227h-62v232q-63 -121 -181 -189.5t-272 -68.5zM141 500q0 -203 125 -332t327 -129t326.5 129t124.5 332t-124.5 332t-326.5 129t-327 -129
t-125 -332z" />
    <glyph glyph-name="Emacron" unicode="&#x112;" horiz-adv-x="1164" 
d="M140 0v1400h904v-60h-841v-577h720v-60h-720v-643h841v-60h-904zM258 1723v60h706v-60h-706z" />
    <glyph glyph-name="emacron" unicode="&#x113;" 
d="M593 -26q-231 0 -373 147t-142 379t142 379t373 147t373 -147t142 -379v-30h-966q10 -191 133 -311t318 -120q143 0 250 67.5t158 184.5l65 -15q-56 -140 -180 -221t-293 -81zM142 530h901q-9 191 -132.5 311t-317.5 120q-195 0 -318 -120t-133 -311zM276 1332v60h706
v-60h-706z" />
    <glyph glyph-name="Edotaccent" unicode="&#x116;" horiz-adv-x="1164" 
d="M140 0v1400h904v-60h-841v-577h720v-60h-720v-643h841v-60h-904zM532 1752q0 20 14 32t34 12q19 0 32.5 -12.5t13.5 -30.5q0 -20 -13.5 -32.5t-32.5 -12.5q-20 0 -34 12.5t-14 31.5z" />
    <glyph glyph-name="edotaccent" unicode="&#x117;" 
d="M593 -26q-231 0 -373 147t-142 379t142 379t373 147t373 -147t142 -379v-30h-966q10 -191 133 -311t318 -120q143 0 250 67.5t158 184.5l65 -15q-56 -140 -180 -221t-293 -81zM142 530h901q-9 191 -132.5 311t-317.5 120q-195 0 -318 -120t-133 -311zM555 1403
q0 20 14 32t34 12q19 0 32.5 -12.5t13.5 -30.5q0 -20 -13.5 -32.5t-32.5 -12.5q-20 0 -34 12.5t-14 31.5z" />
    <glyph glyph-name="Eogonek" unicode="&#x118;" horiz-adv-x="1164" 
d="M140 0v1400h904v-60h-841v-577h720v-60h-720v-643h841v-60h-3q-164 -158 -173 -168q-28 -30 -28 -59q0 -32 23.5 -57t61.5 -27q44 0 79 29.5t35 77.5h62q0 -73 -51 -120t-126 -47q-63 1 -104.5 42.5t-41.5 101.5q0 59 43 101l132 126h-813z" />
    <glyph glyph-name="eogonek" unicode="&#x119;" 
d="M593 -26q-231 0 -373 147t-142 379t142 379t373 147t373 -147t142 -379v-30h-966q10 -191 133 -311t318 -120q143 0 250 67.5t158 184.5l65 -15q-47 -116 -141.5 -192.5t-222.5 -99.5q-142 -137 -156 -152q-28 -30 -28 -59q0 -32 23.5 -57t61.5 -27q44 0 79 29.5t35 77.5
h62q0 -73 -51 -120t-126 -47q-63 1 -104.5 42.5t-41.5 101.5q0 59 43 101l105 100h-11zM142 530h901q-9 191 -132.5 311t-317.5 120q-195 0 -318 -120t-133 -311z" />
    <glyph glyph-name="Ecaron" unicode="&#x11a;" horiz-adv-x="1164" 
d="M140 0v1400h904v-60h-841v-577h720v-60h-720v-643h841v-60h-904zM392 1989h83l150 -210l147 210h83l-200 -288h-62z" />
    <glyph glyph-name="ecaron" unicode="&#x11b;" 
d="M593 -26q-231 0 -373 147t-142 379t142 379t373 147t373 -147t142 -379v-30h-966q10 -191 133 -311t318 -120q143 0 250 67.5t158 184.5l65 -15q-56 -140 -180 -221t-293 -81zM142 530h901q-9 191 -132.5 311t-317.5 120q-195 0 -318 -120t-133 -311zM369 1553h83
l150 -210l147 210h83l-200 -288h-62z" />
    <glyph glyph-name="Gbreve" unicode="&#x11e;" horiz-adv-x="1503" 
d="M813 -29q-326 0 -520 201t-194 528t194 528t520 201q195 0 346.5 -75t243.5 -212l-62 -32q-86 121 -222.5 188.5t-307.5 67.5q-193 0 -342 -85.5t-229.5 -237t-80.5 -344.5t80.5 -344.5t229.5 -237t342 -85.5q170 0 306 66.5t222 187.5v418h-644v60h707v-507h1
q-93 -137 -244 -211.5t-346 -74.5zM420 2053h63q0 -77 39 -138q42 -62 106.5 -98t138.5 -36q119 0 201.5 79t82.5 193h62q0 -94 -48 -169q-49 -76 -128 -119.5t-170 -43.5q-96 0 -174 45q-80 45 -126.5 121t-46.5 166z" />
    <glyph glyph-name="gbreve" unicode="&#x11f;" horiz-adv-x="1250" 
d="M613 -500q-167 0 -307.5 106t-177.5 257l2 -1l56 25q28 -133 153 -230t274 -97q109 0 210 55t162 145.5t61 189.5v282q-63 -121 -181 -189.5t-272 -68.5q-231 0 -373 147t-142 379t142 379t373 147q154 0 272 -68.5t181 -189.5v232h62v-1050q0 -116 -70 -220.5t-185 -167
t-240 -62.5zM141 500q0 -203 125 -332t327 -129t326.5 129t124.5 332t-124.5 332t-326.5 129t-327 -129t-125 -332zM266 1645h63q0 -77 39 -138q42 -62 106.5 -98t138.5 -36q119 0 201.5 79t82.5 193h62q0 -94 -48 -169q-49 -76 -128 -119.5t-170 -43.5q-96 0 -174 45
q-80 45 -126.5 121t-46.5 166z" />
    <glyph glyph-name="Gdotaccent" unicode="&#x120;" horiz-adv-x="1503" 
d="M813 -29q-326 0 -520 201t-194 528t194 528t520 201q195 0 346.5 -75t243.5 -212l-62 -32q-86 121 -222.5 188.5t-307.5 67.5q-193 0 -342 -85.5t-229.5 -237t-80.5 -344.5t80.5 -344.5t229.5 -237t342 -85.5q170 0 306 66.5t222 187.5v418h-644v60h707v-507h1
q-93 -137 -244 -211.5t-346 -74.5zM694 1781q0 20 14 32t34 12q19 0 32.5 -12.5t13.5 -30.5q0 -20 -13.5 -32.5t-32.5 -12.5q-20 0 -34 12.5t-14 31.5z" />
    <glyph glyph-name="gdotaccent" unicode="&#x121;" horiz-adv-x="1250" 
d="M613 -500q-167 0 -307.5 106t-177.5 257l2 -1l56 25q28 -133 153 -230t274 -97q109 0 210 55t162 145.5t61 189.5v282q-63 -121 -181 -189.5t-272 -68.5q-231 0 -373 147t-142 379t142 379t373 147q154 0 272 -68.5t181 -189.5v232h62v-1050q0 -116 -70 -220.5t-185 -167
t-240 -62.5zM141 500q0 -203 125 -332t327 -129t326.5 129t124.5 332t-124.5 332t-326.5 129t-327 -129t-125 -332zM538 1426q0 20 14 32t34 12q19 0 32.5 -12.5t13.5 -30.5q0 -20 -13.5 -32.5t-32.5 -12.5q-20 0 -34 12.5t-14 31.5z" />
    <glyph glyph-name="uni0122" unicode="&#x122;" horiz-adv-x="1503" 
d="M813 -29q-326 0 -520 201t-194 528t194 528t520 201q195 0 346.5 -75t243.5 -212l-62 -32q-86 121 -222.5 188.5t-307.5 67.5q-193 0 -342 -85.5t-229.5 -237t-80.5 -344.5t80.5 -344.5t229.5 -237t342 -85.5q170 0 306 66.5t222 187.5v418h-644v60h707v-507h1
q-93 -137 -244 -211.5t-346 -74.5zM699 -500l84 288h62l-104 -288h-42z" />
    <glyph glyph-name="uni0123" unicode="&#x123;" horiz-adv-x="1231" 
d="M613 -500q-167 0 -307.5 106t-177.5 257l2 -1l56 25q28 -133 153 -230t274 -97q109 0 210 55t162 145.5t61 189.5v282q-63 -121 -181 -189.5t-272 -68.5q-231 0 -373 147t-142 379t142 379t373 147q154 0 272 -68.5t181 -189.5v232h62v-1050q0 -116 -70 -220.5t-185 -167
t-240 -62.5zM141 500q0 -203 125 -332t327 -129t326.5 129t124.5 332t-124.5 332t-326.5 129t-327 -129t-125 -332zM550 1267l84 288h62l-104 -288h-42z" />
    <glyph glyph-name="Hbar" unicode="&#x126;" horiz-adv-x="1231" 
d="M140 0v1091h-156v58h156v251h63v-251h972v251h63v-251h161v-58h-161v-1091h-63v720h-972v-720h-63zM203 780h972v311h-972v-311z" />
    <glyph glyph-name="hbar" unicode="&#x127;" horiz-adv-x="1231" 
d="M140 0v1227h-276v60h276v213h63v-213h367v-60h-367v-402q58 93 158 148t217 55q120 0 221 -56q101 -58 159 -153.5t58 -209.5v-609h-62v609q0 101 -52 181q-51 82 -136.5 130t-187.5 48q-104 0 -189 -48q-86 -50 -136 -131.5t-50 -179.5v-609h-63z" />
    <glyph glyph-name="Itilde" unicode="&#x128;" horiz-adv-x="407" 
d="M172 0v1400h62v-1400h-62zM-84 1729q-23 64 23 123t121 59q47 0 113 -36.5t128.5 -73t101.5 -36.5q37 0 60 38t11 68l59 18q22 -67 -24 -125.5t-123 -58.5q-36 0 -83 23t-85 50t-84 50t-80 23q-38 0 -63 -32.5t-15 -73.5z" />
    <glyph glyph-name="itilde" unicode="&#x129;" horiz-adv-x="347" 
d="M140 0v1000h63v-1000h-63zM-135 1327q-23 64 23 123t121 59q47 0 113 -36.5t128.5 -73t101.5 -36.5q37 0 60 38t11 68l59 18q22 -67 -24 -125.5t-123 -58.5q-36 0 -83 23t-85 50t-84 50t-80 23q-38 0 -63 -32.5t-15 -73.5z" />
    <glyph glyph-name="Imacron" unicode="&#x12a;" horiz-adv-x="407" 
d="M172 0v1400h62v-1400h-62zM-148 1725v60h706v-60h-706z" />
    <glyph glyph-name="imacron" unicode="&#x12b;" horiz-adv-x="439" 
d="M140 0v1000h63v-1000h-63zM-134 1332v60h706v-60h-706z" />
    <glyph glyph-name="Iogonek" unicode="&#x12e;" horiz-adv-x="407" 
d="M122 -371q-63 1 -104.5 42.5t-41.5 101.5q0 59 43 101l153 146v1380h62v-1395l5 -5q-164 -158 -173 -168q-28 -30 -28 -59q0 -32 23.5 -57t61.5 -27q44 0 79 29.5t35 77.5h62q0 -73 -51 -120t-126 -47z" />
    <glyph glyph-name="iogonek" unicode="&#x12f;" horiz-adv-x="408" 
d="M89 -371q-63 1 -104.5 42.5t-41.5 101.5q0 59 43 101l154 147v979h63v-997l3 -3q-164 -158 -173 -168q-28 -30 -28 -59q0 -32 23.5 -57t61.5 -27q44 0 79 29.5t35 77.5h62q0 -73 -51 -120t-126 -47z" />
    <glyph glyph-name="Idotaccent" unicode="&#x130;" horiz-adv-x="407" 
d="M172 0v1400h62v-1400h-62zM162 1761q0 20 14 32t34 12q19 0 32.5 -12.5t13.5 -30.5q0 -20 -13.5 -32.5t-32.5 -12.5q-20 0 -34 12.5t-14 31.5z" />
    <glyph glyph-name="dotlessi" unicode="&#x131;" horiz-adv-x="345" 
d="M140 0v1000h63v-1000h-63z" />
    <glyph glyph-name="IJ" unicode="&#x132;" horiz-adv-x="1754" 
d="M172 0v1400h62v-1400h-62zM473 584h63q0 -244 132.5 -397t358.5 -153q227 0 359 148t132 402v816h63v-816q0 -271 -150 -440.5t-404 -169.5q-176 0 -300 82q-123 81 -188.5 219.5t-65.5 308.5z" />
    <glyph glyph-name="ij" unicode="&#x133;" horiz-adv-x="733" 
d="M147 0v1000h63v-1000h-63zM140 1289q0 18 13.5 31t31.5 13q21 0 35 -13t14 -31q0 -19 -14 -32.5t-35 -13.5q-18 0 -31.5 13.5t-13.5 32.5zM192 -500v60q139 0 230 83t91 209v1148h62v-1148q0 -98 -50 -178q-50 -82 -137 -128t-196 -46zM498 1289q0 18 13.5 31t31.5 13
q21 0 35 -13t14 -31q0 -19 -14 -32.5t-35 -13.5q-18 0 -31.5 13.5t-13.5 32.5z" />
    <glyph glyph-name="uni0136" unicode="&#x136;" horiz-adv-x="1048" 
d="M140 0v1400h63v-806l707 806h81l-581 -662l570 -738h-79l-533 690l-165 -190v-500h-63zM471 -500l84 288h62l-104 -288h-42z" />
    <glyph glyph-name="uni0137" unicode="&#x137;" horiz-adv-x="986" 
d="M140 0v1500h63v-1148l568 648h82l-351 -398l363 -602h-70l-334 552l-258 -294v-258h-63zM393 -500l84 288h62l-104 -288h-42z" />
    <glyph glyph-name="Lacute" unicode="&#x139;" horiz-adv-x="1164" 
d="M140 0v1400h63v-1340h841v-60h-904zM158 1710l84 288h62l-104 -288h-42z" />
    <glyph glyph-name="lacute" unicode="&#x13a;" horiz-adv-x="345" 
d="M140 0v1500h63v-1500h-63zM133 1710l84 288h62l-104 -288h-42z" />
    <glyph glyph-name="uni013B" unicode="&#x13b;" horiz-adv-x="1164" 
d="M140 0v1400h63v-1340h841v-60h-904zM504 -500l84 288h62l-104 -288h-42z" />
    <glyph glyph-name="uni013C" unicode="&#x13c;" horiz-adv-x="345" 
d="M140 0v1500h63v-1500h-63zM63 -500l84 288h62l-104 -288h-42z" />
    <glyph glyph-name="Lcaron" unicode="&#x13d;" horiz-adv-x="1164" 
d="M140 0v1400h63v-1340h841v-60h-904zM301 1993h83l150 -210l147 210h83l-200 -288h-62z" />
    <glyph glyph-name="lcaron" unicode="&#x13e;" horiz-adv-x="345" 
d="M140 0v1500h63v-1500h-63zM-74 1998h83l150 -210l147 210h83l-200 -288h-62z" />
    <glyph glyph-name="Lslash" unicode="&#x141;" horiz-adv-x="1231" 
d="M140 0v911l-224 -129l-30 52l254 147v419h63v-383l295 170l30 -52l-325 -187v-888h841v-60h-904z" />
    <glyph glyph-name="lslash" unicode="&#x142;" horiz-adv-x="419" 
d="M140 0v911l-224 -129l-30 52l254 147v519h63v-483l295 170l30 -52l-325 -187v-948h-63z" />
    <glyph glyph-name="Nacute" unicode="&#x143;" horiz-adv-x="1304" 
d="M140 0v1400h70l890 -1292v1292h63v-1400h-68l-892 1292v-1292h-63zM562 1710l84 288h62l-104 -288h-42z" />
    <glyph glyph-name="nacute" unicode="&#x144;" horiz-adv-x="1116" 
d="M140 1000h63v-175q58 94 158.5 148.5t216.5 54.5q120 0 221 -56q102 -58 159.5 -154t57.5 -209v-609h-62v609q0 102 -52 181q-52 83 -137.5 130.5t-186.5 47.5q-104 0 -189 -48q-87 -51 -136.5 -132.5t-49.5 -178.5v-609h-63v1000zM533 1310l84 288h62l-104 -288h-42z
" />
    <glyph glyph-name="uni0145" unicode="&#x145;" horiz-adv-x="1304" 
d="M140 0v1400h70l890 -1292v1292h63v-1400h-68l-892 1292v-1292h-63zM556 -500l84 288h62l-104 -288h-42z" />
    <glyph glyph-name="uni0146" unicode="&#x146;" horiz-adv-x="1116" 
d="M140 1000h63v-175q58 94 158.5 148.5t216.5 54.5q120 0 221 -56q102 -58 159.5 -154t57.5 -209v-609h-62v609q0 102 -52 181q-52 83 -137.5 130.5t-186.5 47.5q-104 0 -189 -48q-87 -51 -136.5 -132.5t-49.5 -178.5v-609h-63v1000zM484 -500l84 288h62l-104 -288h-42z
" />
    <glyph glyph-name="Ncaron" unicode="&#x147;" horiz-adv-x="1304" 
d="M140 0v1400h70l890 -1292v1292h63v-1400h-68l-892 1292v-1292h-63zM430 1993h83l150 -210l147 210h83l-200 -288h-62z" />
    <glyph glyph-name="ncaron" unicode="&#x148;" horiz-adv-x="1116" 
d="M140 1000h63v-175q58 94 158.5 148.5t216.5 54.5q120 0 221 -56q102 -58 159.5 -154t57.5 -209v-609h-62v609q0 102 -52 181q-52 83 -137.5 130.5t-186.5 47.5q-104 0 -189 -48q-87 -51 -136.5 -132.5t-49.5 -178.5v-609h-63v1000zM358 1575h83l150 -210l147 210h83
l-200 -288h-62z" />
    <glyph glyph-name="Omacron" unicode="&#x14c;" horiz-adv-x="1627" 
d="M813 -29q-326 0 -520 201t-194 528t194 528t520 201q216 0 378.5 -92t249 -256.5t86.5 -380.5t-86.5 -380.5t-249 -256.5t-378.5 -92zM159 699q0 -193 80.5 -344.5t229.5 -237t342 -85.5t342 85.5t229.5 237t80.5 344.5t-80.5 344.5t-229.5 237t-342 85.5t-342 -85.5
t-229.5 -237t-80.5 -344.5zM460 1713v60h706v-60h-706z" />
    <glyph glyph-name="omacron" unicode="&#x14d;" 
d="M593 -26q-231 0 -373 147t-142 379t142 379t373 147t373 -147t142 -379t-142 -379t-373 -147zM141 500q0 -203 125 -332t327 -129t326.5 129t124.5 332t-124.5 332t-326.5 129t-327 -129t-125 -332zM271 1311v60h706v-60h-706z" />
    <glyph glyph-name="Ohungarumlaut" unicode="&#x150;" horiz-adv-x="1627" 
d="M813 -29q-326 0 -520 201t-194 528t194 528t520 201q216 0 378.5 -92t249 -256.5t86.5 -380.5t-86.5 -380.5t-249 -256.5t-378.5 -92zM159 699q0 -193 80.5 -344.5t229.5 -237t342 -85.5t342 85.5t229.5 237t80.5 344.5t-80.5 344.5t-229.5 237t-342 85.5t-342 -85.5
t-229.5 -237t-80.5 -344.5zM491 1710l84 288h62l-104 -288h-42zM992 1710l84 288h62l-104 -288h-42z" />
    <glyph glyph-name="ohungarumlaut" unicode="&#x151;" 
d="M593 -26q-231 0 -373 147t-142 379t142 379t373 147t373 -147t142 -379t-142 -379t-373 -147zM141 500q0 -203 125 -332t327 -129t326.5 129t124.5 332t-124.5 332t-326.5 129t-327 -129t-125 -332zM318 1309l84 288h62l-104 -288h-42zM819 1309l84 288h62l-104 -288h-42
z" />
    <glyph glyph-name="OE" unicode="&#x152;" horiz-adv-x="2489" 
d="M813 -29q-326 0 -520 201t-194 528t194 528t520 201q234 0 403.5 -106.5t248.5 -295.5v373h904v-60h-841v-577h720v-60h-720v-643h841v-60h-904v373q-79 -189 -248.5 -295.5t-403.5 -106.5zM159 699q0 -193 80.5 -344.5t229.5 -237t342 -85.5t342 85.5t229.5 237
t80.5 344.5t-80.5 344.5t-229.5 237t-342 85.5t-342 -85.5t-229.5 -237t-80.5 -344.5z" />
    <glyph glyph-name="oe" unicode="&#x153;" horiz-adv-x="2148" 
d="M593 -26q-231 0 -373 147t-142 379t142 379t373 147q175 0 301.5 -86.5t179.5 -235.5q53 149 179.5 235.5t301.5 86.5q231 0 373 -147t142 -379v-30h-963q0 -4 -0.5 -12t-0.5 -12q17 -182 139 -294.5t310 -112.5q143 0 250 67.5t158 184.5l65 -15q-56 -140 -180 -221
t-293 -81q-175 0 -301.5 86.5t-179.5 235.5q-53 -149 -179.5 -235.5t-301.5 -86.5zM141 500q0 -203 125 -332t327 -129q189 0 311 114t138 297q-2 32 -2 50t2 50q-16 183 -138 297t-311 114q-202 0 -327 -129t-125 -332zM1106 554q0 -4 0.5 -12t0.5 -12h898
q-9 191 -132.5 311t-317.5 120q-188 0 -310 -112.5t-139 -294.5z" />
    <glyph glyph-name="Racute" unicode="&#x154;" horiz-adv-x="1158" 
d="M140 0v1400h479q82 0 154 -24.5t132 -74t95.5 -134.5t36.5 -197q0 -96 -26 -173t-72.5 -127t-104.5 -80.5t-126 -42.5l329 -547h-73l-327 540h-434v-540h-63zM203 600h416q52 0 101 11.5t96 38.5t81.5 67.5t56 103t21.5 140.5v1q0 104 -31.5 180.5t-85 118t-113 60.5
t-126.5 19h-416v-740zM538 1710l84 288h62l-104 -288h-42z" />
    <glyph glyph-name="racute" unicode="&#x155;" horiz-adv-x="733" 
d="M140 0v1000h63v-175q58 93 158 148t217 55q62 0 118 -15l-26 -56q-50 11 -92 11q-104 0 -189 -48q-86 -50 -136 -131.5t-50 -179.5v-609h-63zM332 1293l84 288h62l-104 -288h-42z" />
    <glyph glyph-name="uni0156" unicode="&#x156;" horiz-adv-x="1158" 
d="M140 0v1400h479q82 0 154 -24.5t132 -74t95.5 -134.5t36.5 -197q0 -96 -26 -173t-72.5 -127t-104.5 -80.5t-126 -42.5l329 -547h-73l-327 540h-434v-540h-63zM203 600h416q52 0 101 11.5t96 38.5t81.5 67.5t56 103t21.5 140.5v1q0 104 -31.5 180.5t-85 118t-113 60.5
t-126.5 19h-416v-740zM498 -500l84 288h62l-104 -288h-42z" />
    <glyph glyph-name="uni0157" unicode="&#x157;" horiz-adv-x="733" 
d="M140 0v1000h63v-175q58 93 158 148t217 55q62 0 118 -15l-26 -56q-50 11 -92 11q-104 0 -189 -48q-86 -50 -136 -131.5t-50 -179.5v-609h-63zM67 -500l84 288h62l-104 -288h-42z" />
    <glyph glyph-name="Rcaron" unicode="&#x158;" horiz-adv-x="1158" 
d="M140 0v1400h479q82 0 154 -24.5t132 -74t95.5 -134.5t36.5 -197q0 -96 -26 -173t-72.5 -127t-104.5 -80.5t-126 -42.5l329 -547h-73l-327 540h-434v-540h-63zM203 600h416q52 0 101 11.5t96 38.5t81.5 67.5t56 103t21.5 140.5v1q0 104 -31.5 180.5t-85 118t-113 60.5
t-126.5 19h-416v-740zM321 2008h83l150 -210l147 210h83l-200 -288h-62z" />
    <glyph glyph-name="rcaron" unicode="&#x159;" horiz-adv-x="733" 
d="M140 0v1000h63v-175q58 93 158 148t217 55q62 0 118 -15l-26 -56q-50 11 -92 11q-104 0 -189 -48q-86 -50 -136 -131.5t-50 -179.5v-609h-63zM159 1584h83l150 -210l147 210h83l-200 -288h-62z" />
    <glyph glyph-name="Sacute" unicode="&#x15a;" horiz-adv-x="1283" 
d="M640 -26q-116 0 -221 34q-111 34 -190 96.5t-109 147.5l58 22q41 -110 165.5 -175t296.5 -65q118 0 221 39q105 40 166.5 112t61.5 165q0 99 -65 161q-111 106 -384 155q-146 26 -261 66q-122 41 -185.5 115t-63.5 195q0 114 71 200q71 83 187.5 129.5t251.5 46.5
q181 0 326 -75.5t197 -204.5l-61 -20q-41 110 -165 175t-297 65q-119 0 -221 -39q-105 -41 -165.5 -112.5t-60.5 -164.5q0 -108 59 -167q53 -55 145.5 -86.5t242.5 -58.5q139 -25 251 -70q261 -102 261 -310q0 -115 -72 -199q-71 -84 -187 -130.5t-253 -46.5zM598 1710
l84 288h62l-104 -288h-42z" />
    <glyph glyph-name="sacute" unicode="&#x15b;" horiz-adv-x="921" 
d="M449 -17q-77 0 -160 25q-84 26 -142.5 74.5t-79.5 114.5l59 23q26 -81 112.5 -127.5t210.5 -46.5q54 0 107 13.5t99.5 39t75 68t28.5 95.5q0 65 -42 106q-78 74 -270 108q-95 17 -188 47q-89 31 -135.5 85t-46.5 144q0 85 53 149q53 61 137 95.5t182 34.5
q137 0 243.5 -58t140.5 -157l-61 -21q-27 82 -112 127.5t-211 45.5q-73 0 -141 -22t-118 -73t-50 -121q0 -71 41 -110q37 -38 101.5 -60t168.5 -41q113 -21 181 -50q191 -77 191 -229q0 -86 -53 -148q-52 -62 -137 -96.5t-184 -34.5zM424 1304l84 288h62l-104 -288h-42z" />
    <glyph glyph-name="Scedilla" unicode="&#x15e;" horiz-adv-x="1283" 
d="M672 -372q-59 -16 -113.5 14t-70.5 88l61 15q9 -33 40.5 -50.5t66.5 -8.5q36 9 54 39t8 64q-9 34 -40.5 51.5t-66.5 8.5l-74 -19l87 144q-108 3 -205 34q-111 34 -190 96.5t-109 147.5l58 22q41 -110 165.5 -175t296.5 -65q118 0 221 39q105 40 166.5 112t61.5 165
q0 99 -65 161q-111 106 -384 155q-146 26 -261 66q-122 41 -185.5 115t-63.5 195q0 114 71 200q71 83 187.5 129.5t251.5 46.5q181 0 326 -75.5t197 -204.5l-61 -20q-41 110 -165 175t-297 65q-119 0 -221 -39q-105 -41 -165.5 -112.5t-60.5 -164.5q0 -108 59 -167
q53 -55 145.5 -86.5t242.5 -58.5q139 -25 251 -70q261 -102 261 -310q0 -115 -72 -199q-63 -75 -162.5 -120t-218.5 -55l-41 -66q43 -7 76.5 -35.5t44.5 -69.5q17 -58 -14.5 -110t-92.5 -67z" />
    <glyph glyph-name="scedilla" unicode="&#x15f;" horiz-adv-x="921" 
d="M493 -360q-59 -16 -113.5 14t-70.5 88l61 15q9 -33 40.5 -50.5t66.5 -8.5q36 9 54 39t8 64q-9 34 -40.5 51.5t-66.5 8.5l-74 -19l86 141q-75 1 -155 25q-84 26 -142.5 74.5t-79.5 114.5l59 23q26 -81 112.5 -127.5t210.5 -46.5q54 0 107 13.5t99.5 39t75 68t28.5 95.5
q0 65 -42 106q-78 74 -270 108q-95 17 -188 47q-89 31 -135.5 85t-46.5 144q0 85 53 149q53 61 137 95.5t182 34.5q137 0 243.5 -58t140.5 -157l-61 -21q-27 82 -112 127.5t-211 45.5q-73 0 -141 -22t-118 -73t-50 -121q0 -71 41 -110q37 -38 101.5 -60t168.5 -41
q113 -21 181 -50q191 -77 191 -229q0 -86 -53 -148q-87 -104 -251 -126l-40 -66q43 -7 76.5 -35.5t44.5 -69.5q17 -58 -14.5 -110t-92.5 -67z" />
    <glyph glyph-name="Scaron" unicode="&#x160;" horiz-adv-x="1283" 
d="M640 -26q-116 0 -221 34q-111 34 -190 96.5t-109 147.5l58 22q41 -110 165.5 -175t296.5 -65q118 0 221 39q105 40 166.5 112t61.5 165q0 99 -65 161q-111 106 -384 155q-146 26 -261 66q-122 41 -185.5 115t-63.5 195q0 114 71 200q71 83 187.5 129.5t251.5 46.5
q181 0 326 -75.5t197 -204.5l-61 -20q-41 110 -165 175t-297 65q-119 0 -221 -39q-105 -41 -165.5 -112.5t-60.5 -164.5q0 -108 59 -167q53 -55 145.5 -86.5t242.5 -58.5q139 -25 251 -70q261 -102 261 -310q0 -115 -72 -199q-71 -84 -187 -130.5t-253 -46.5zM415 1997h83
l150 -210l147 210h83l-200 -288h-62z" />
    <glyph glyph-name="scaron" unicode="&#x161;" horiz-adv-x="921" 
d="M449 -17q-77 0 -160 25q-84 26 -142.5 74.5t-79.5 114.5l59 23q26 -81 112.5 -127.5t210.5 -46.5q54 0 107 13.5t99.5 39t75 68t28.5 95.5q0 65 -42 106q-78 74 -270 108q-95 17 -188 47q-89 31 -135.5 85t-46.5 144q0 85 53 149q53 61 137 95.5t182 34.5
q137 0 243.5 -58t140.5 -157l-61 -21q-27 82 -112 127.5t-211 45.5q-73 0 -141 -22t-118 -73t-50 -121q0 -71 41 -110q37 -38 101.5 -60t168.5 -41q113 -21 181 -50q191 -77 191 -229q0 -86 -53 -148q-52 -62 -137 -96.5t-184 -34.5zM226 1598h83l150 -210l147 210h83
l-200 -288h-62z" />
    <glyph glyph-name="uni0162" unicode="&#x162;" horiz-adv-x="1346" 
d="M666 -360q-59 -16 -113.5 14t-70.5 88l61 15q9 -33 40.5 -50.5t66.5 -8.5q36 9 54 39t8 64q-9 34 -40.5 51.5t-66.5 8.5l-74 -19l109 180v1318h-541v60h1147v-60h-543v-1340h-3l-48 -78q43 -7 76.5 -35.5t44.5 -69.5q17 -58 -14.5 -110t-92.5 -67z" />
    <glyph glyph-name="uni0163" unicode="&#x163;" horiz-adv-x="731" 
d="M540 -347q-59 -16 -113.5 14t-70.5 88l61 15q9 -33 40.5 -50.5t66.5 -8.5q36 9 54 39t8 64q-9 34 -40.5 51.5t-66.5 8.5l-74 -19l90 148q-84 14 -138 76t-54 145v716h-214v60h214v315h63v-1l1 -314h286v-60h-287v-716q0 -68 50 -116t121 -48q66 0 117 39v-69
q-37 -22 -87 -28l-41 -67q43 -7 76.5 -35.5t44.5 -69.5q17 -58 -14.5 -110t-92.5 -67z" />
    <glyph glyph-name="Tcaron" unicode="&#x164;" horiz-adv-x="1346" 
d="M640 0v1340h-541v60h1147v-60h-543v-1340h-63zM429 2007h83l150 -210l147 210h83l-200 -288h-62z" />
    <glyph glyph-name="tcaron" unicode="&#x165;" horiz-adv-x="731" 
d="M537 0q-99 0 -166.5 64.5t-67.5 159.5v716h-214v60h214v315h63v-1l1 -314h286v-60h-287v-716q0 -68 50 -116t121 -48q66 0 117 39v-69q-52 -30 -117 -30zM104 1687h83l150 -210l147 210h83l-200 -288h-62z" />
    <glyph glyph-name="Utilde" unicode="&#x168;" horiz-adv-x="1390" 
d="M694 -26q-175 0 -299 82q-123 81 -189 219.5t-66 308.5v816h63v-816q0 -244 132.5 -397t358.5 -153q227 0 359 148t132 402v816h63v-816q0 -271 -150 -440.5t-404 -169.5zM402 1775q-23 64 23 123t121 59q47 0 113 -36.5t128.5 -73t101.5 -36.5q37 0 60 38t11 68l59 18
q22 -67 -24 -125.5t-123 -58.5q-36 0 -83 23t-85 50t-84 50t-80 23q-38 0 -63 -32.5t-15 -73.5z" />
    <glyph glyph-name="utilde" unicode="&#x169;" horiz-adv-x="1074" 
d="M537 -26q-122 0 -221 57q-101 57 -159 152t-58 210v607h62v-607q0 -99 51 -180q51 -83 137 -131t188 -48q105 0 188 49q87 49 137 130.5t50 179.5v607h63v-1000h-63v177q-59 -92 -159 -147.5t-216 -55.5zM224 1366q-23 64 23 123t121 59q47 0 113 -36.5t128.5 -73
t101.5 -36.5q37 0 60 38t11 68l59 18q22 -67 -24 -125.5t-123 -58.5q-36 0 -83 23t-85 50t-84 50t-80 23q-38 0 -63 -32.5t-15 -73.5z" />
    <glyph glyph-name="Umacron" unicode="&#x16a;" horiz-adv-x="1390" 
d="M694 -26q-175 0 -299 82q-123 81 -189 219.5t-66 308.5v816h63v-816q0 -244 132.5 -397t358.5 -153q227 0 359 148t132 402v816h63v-816q0 -271 -150 -440.5t-404 -169.5zM351 1730v60h706v-60h-706z" />
    <glyph glyph-name="umacron" unicode="&#x16b;" horiz-adv-x="1074" 
d="M537 -26q-122 0 -221 57q-101 57 -159 152t-58 210v607h62v-607q0 -99 51 -180q51 -83 137 -131t188 -48q105 0 188 49q87 49 137 130.5t50 179.5v607h63v-1000h-63v177q-59 -92 -159 -147.5t-216 -55.5zM194 1359v60h706v-60h-706z" />
    <glyph glyph-name="Uring" unicode="&#x16e;" horiz-adv-x="1390" 
d="M694 -26q-175 0 -299 82q-123 81 -189 219.5t-66 308.5v816h63v-816q0 -244 132.5 -397t358.5 -153q227 0 359 148t132 402v816h63v-816q0 -271 -150 -440.5t-404 -169.5zM544 1855q0 57 42 97.5t102 40.5q59 0 102 -41t43 -97q0 -58 -43 -99t-102 -41t-101.5 41.5
t-42.5 98.5zM594 1855q0 -39 27.5 -65.5t66.5 -26.5q40 0 67 26.5t27 65.5q0 36 -27 62t-67 26q-38 0 -66 -26t-28 -62z" />
    <glyph glyph-name="uring" unicode="&#x16f;" horiz-adv-x="1074" 
d="M537 -26q-122 0 -221 57q-101 57 -159 152t-58 210v607h62v-607q0 -99 51 -180q51 -83 137 -131t188 -48q105 0 188 49q87 49 137 130.5t50 179.5v607h63v-1000h-63v177q-59 -92 -159 -147.5t-216 -55.5zM371 1448q0 57 42 97.5t102 40.5q59 0 102 -41t43 -97
q0 -58 -43 -99t-102 -41t-101.5 41.5t-42.5 98.5zM421 1448q0 -39 27.5 -65.5t66.5 -26.5q40 0 67 26.5t27 65.5q0 36 -27 62t-67 26q-38 0 -66 -26t-28 -62z" />
    <glyph glyph-name="Uhungarumlaut" unicode="&#x170;" horiz-adv-x="1390" 
d="M694 -26q-175 0 -299 82q-123 81 -189 219.5t-66 308.5v816h63v-816q0 -244 132.5 -397t358.5 -153q227 0 359 148t132 402v816h63v-816q0 -271 -150 -440.5t-404 -169.5zM402 1710l84 288h62l-104 -288h-42zM903 1710l84 288h62l-104 -288h-42z" />
    <glyph glyph-name="uhungarumlaut" unicode="&#x171;" horiz-adv-x="1074" 
d="M537 -26q-122 0 -221 57q-101 57 -159 152t-58 210v607h62v-607q0 -99 51 -180q51 -83 137 -131t188 -48q105 0 188 49q87 49 137 130.5t50 179.5v607h63v-1000h-63v177q-59 -92 -159 -147.5t-216 -55.5zM250 1321l84 288h62l-104 -288h-42zM751 1321l84 288h62
l-104 -288h-42z" />
    <glyph glyph-name="Uogonek" unicode="&#x172;" horiz-adv-x="1390" 
d="M694 -26q-65 0 -118 10q-149 -143 -157 -152q-28 -30 -28 -59q0 -32 23.5 -57t61.5 -27q44 0 79 29.5t35 77.5h62q0 -73 -51 -120t-126 -47q-63 1 -104.5 42.5t-41.5 101.5q0 59 43 101l134 128q-60 20 -111 54q-123 81 -189 219.5t-66 308.5v816h63v-816
q0 -244 132.5 -397t358.5 -153q227 0 359 148t132 402v816h63v-816q0 -271 -150 -440.5t-404 -169.5z" />
    <glyph glyph-name="uogonek" unicode="&#x173;" horiz-adv-x="1074" 
d="M537 -26q-122 0 -221 57q-101 57 -159 152t-58 210v607h62v-607q0 -99 51 -180q51 -83 137 -131t188 -48q105 0 188 49q87 49 137 130.5t50 179.5v607h63v-997l3 -3q-164 -158 -173 -168q-28 -30 -28 -59q0 -32 23.5 -57t61.5 -27q44 0 79 29.5t35 77.5h62
q0 -73 -51 -120t-126 -47q-63 1 -104.5 42.5t-41.5 101.5q0 59 43 101l154 147v156q-59 -92 -159 -147.5t-216 -55.5z" />
    <glyph glyph-name="Wcircumflex" unicode="&#x174;" horiz-adv-x="1653" 
d="M410 0l-374 1400h65l351 -1314l349 1314h50l352 -1314l348 1314h65l-372 -1400h-83l-335 1250l-334 -1250h-82zM595 1710l200 288h63l201 -288h-81l-153 210l-149 -210h-81z" />
    <glyph glyph-name="wcircumflex" unicode="&#x175;" horiz-adv-x="1665" 
d="M429 0l-351 1000h61l327 -928l326 928h80l326 -928l326 928h62l-350 -1000h-73l-333 940l-330 -940h-71zM606 1311l200 288h63l201 -288h-81l-153 210l-149 -210h-81z" />
    <glyph glyph-name="Ycircumflex" unicode="&#x176;" horiz-adv-x="1189" 
d="M562 0v636l-484 764h73l443 -698l443 698h73l-485 -764v-636h-63zM370 1710l200 288h63l201 -288h-81l-153 210l-149 -210h-81z" />
    <glyph glyph-name="ycircumflex" unicode="&#x177;" horiz-adv-x="1020" 
d="M283 -500l190 500l-374 1000h69l336 -916l351 916h65l-571 -1500h-66zM268 1310l200 288h63l201 -288h-81l-153 210l-149 -210h-81z" />
    <glyph glyph-name="Ydieresis" unicode="&#x178;" horiz-adv-x="1189" 
d="M562 0v636l-484 764h73l443 -698l443 698h73l-485 -764v-636h-63zM402 1733q0 18 15 32t35 14q19 0 33.5 -14t14.5 -32t-14.5 -31t-33.5 -13q-20 0 -35 13t-15 31zM665 1733q0 18 15.5 32t35.5 14q18 0 33 -14t15 -32t-14.5 -31t-33.5 -13q-21 0 -36 13t-15 31z" />
    <glyph glyph-name="Zacute" unicode="&#x179;" horiz-adv-x="1381" 
d="M99 0v60l1101 1280h-1101v60h1182v-60l-1101 -1280h1101v-60h-1182zM632 1710l84 288h62l-104 -288h-42z" />
    <glyph glyph-name="zacute" unicode="&#x17a;" horiz-adv-x="1090" 
d="M99 0v60l808 880h-808v60h892v-60l-809 -880h809v-60h-892zM485 1299l84 288h62l-104 -288h-42z" />
    <glyph glyph-name="Zdotaccent" unicode="&#x17b;" horiz-adv-x="1381" 
d="M99 0v60l1101 1280h-1101v60h1182v-60l-1101 -1280h1101v-60h-1182zM640 1724q0 20 14 32t34 12q19 0 32.5 -12.5t13.5 -30.5q0 -20 -13.5 -32.5t-32.5 -12.5q-20 0 -34 12.5t-14 31.5z" />
    <glyph glyph-name="zdotaccent" unicode="&#x17c;" horiz-adv-x="1090" 
d="M99 0v60l808 880h-808v60h892v-60l-809 -880h809v-60h-892zM501 1410q0 20 14 32t34 12q19 0 32.5 -12.5t13.5 -30.5q0 -20 -13.5 -32.5t-32.5 -12.5q-20 0 -34 12.5t-14 31.5z" />
    <glyph glyph-name="Zcaron" unicode="&#x17d;" horiz-adv-x="1381" 
d="M99 0v60l1101 1280h-1101v60h1182v-60l-1101 -1280h1101v-60h-1182zM411 1981h83l150 -210l147 210h83l-200 -288h-62z" />
    <glyph glyph-name="zcaron" unicode="&#x17e;" horiz-adv-x="1090" 
d="M99 0v60l808 880h-808v60h892v-60l-809 -880h809v-60h-892zM302 1617h83l150 -210l147 210h83l-200 -288h-62z" />
    <glyph glyph-name="uni018F" unicode="&#x18f;" horiz-adv-x="1628" 
d="M819 1396q204 0 360 -89t239.5 -247.5t83.5 -362.5t-83.5 -362.5t-239.5 -247.5t-360 -89t-360 89t-239.5 247.5t-83.5 362.5v26h1312q-9 271 -181.5 443t-447.5 172q-195 0 -342.5 -91t-220.5 -249l-58 15q78 179 239.5 281t381.5 102zM192 671q8 -271 180.5 -443
t446.5 -172q275 0 447.5 172t181.5 443h-1256z" />
    <glyph glyph-name="uni0218" unicode="&#x218;" horiz-adv-x="1283" 
d="M640 -26q-116 0 -221 34q-111 34 -190 96.5t-109 147.5l58 22q41 -110 165.5 -175t296.5 -65q118 0 221 39q105 40 166.5 112t61.5 165q0 99 -65 161q-111 106 -384 155q-146 26 -261 66q-122 41 -185.5 115t-63.5 195q0 114 71 200q71 83 187.5 129.5t251.5 46.5
q181 0 326 -75.5t197 -204.5l-61 -20q-41 110 -165 175t-297 65q-119 0 -221 -39q-105 -41 -165.5 -112.5t-60.5 -164.5q0 -108 59 -167q53 -55 145.5 -86.5t242.5 -58.5q139 -25 251 -70q261 -102 261 -310q0 -115 -72 -199q-71 -84 -187 -130.5t-253 -46.5zM556 -500
l84 288h62l-104 -288h-42z" />
    <glyph glyph-name="uni0219" unicode="&#x219;" horiz-adv-x="921" 
d="M449 -17q-77 0 -160 25q-84 26 -142.5 74.5t-79.5 114.5l59 23q26 -81 112.5 -127.5t210.5 -46.5q54 0 107 13.5t99.5 39t75 68t28.5 95.5q0 65 -42 106q-78 74 -270 108q-95 17 -188 47q-89 31 -135.5 85t-46.5 144q0 85 53 149q53 61 137 95.5t182 34.5
q137 0 243.5 -58t140.5 -157l-61 -21q-27 82 -112 127.5t-211 45.5q-73 0 -141 -22t-118 -73t-50 -121q0 -71 41 -110q37 -38 101.5 -60t168.5 -41q113 -21 181 -50q191 -77 191 -229q0 -86 -53 -148q-52 -62 -137 -96.5t-184 -34.5zM376 -500l84 288h62l-104 -288h-42z" />
    <glyph glyph-name="uni021A" unicode="&#x21a;" horiz-adv-x="1346" 
d="M640 0v1340h-541v60h1147v-60h-543v-1340h-63zM556 -500l84 288h62l-104 -288h-42z" />
    <glyph glyph-name="uni021B" unicode="&#x21b;" horiz-adv-x="731" 
d="M537 0q-99 0 -166.5 64.5t-67.5 159.5v716h-214v60h214v315h63v-1l1 -314h286v-60h-287v-716q0 -68 50 -116t121 -48q66 0 117 39v-69q-52 -30 -117 -30zM401 -500l84 288h62l-104 -288h-42z" />
    <glyph glyph-name="uni0237" unicode="&#x237;" horiz-adv-x="456" 
d="M-69 -440q139 0 230 83t91 209v1148h62v-1148q0 -98 -50 -178q-50 -82 -137 -128t-196 -46v60z" />
    <glyph glyph-name="uni0259" unicode="&#x259;" horiz-adv-x="1231" 
d="M563 1031q231 0 373 -147t142 -379t-142 -379t-373 -147t-373 147t-142 379v30h966q-10 191 -133 311t-318 120q-143 0 -250 -67.5t-158 -184.5l-65 15q56 140 180 221t293 81zM113 475q9 -191 132.5 -311t317.5 -120q195 0 318 120t133 311h-901z" />
    <glyph glyph-name="circumflex" unicode="&#x2c6;" horiz-adv-x="521" 
d="M28 2310l200 288h63l201 -288h-81l-153 210l-149 -210h-81z" />
    <glyph glyph-name="caron" unicode="&#x2c7;" horiz-adv-x="486" 
d="M212 1710l-201 288h83l150 -210l147 210h83l-200 -288h-62z" />
    <glyph glyph-name="breve" unicode="&#x2d8;" horiz-adv-x="1226" 
d="M613 1688q-96 0 -174 45q-80 45 -126.5 121t-46.5 166h63q0 -76 39 -138q42 -62 106.5 -98t138.5 -36q119 0 201.5 79t82.5 193h62q0 -94 -48 -169q-49 -76 -128 -119.5t-170 -43.5z" />
    <glyph glyph-name="dotaccent" unicode="&#x2d9;" horiz-adv-x="961" 
d="M481 2410q-20 0 -34 12.5t-14 31.5q0 20 14 32t34 12q19 0 32.5 -12.5t13.5 -30.5q0 -20 -13.5 -32.5t-32.5 -12.5z" />
    <glyph glyph-name="ring" unicode="&#x2da;" horiz-adv-x="1156" 
d="M577 2315q-59 0 -101.5 41.5t-42.5 98.5t42 97.5t102 40.5q59 0 102 -41t43 -97q0 -58 -43 -99t-102 -41zM483 2455q0 -39 27.5 -65.5t66.5 -26.5q40 0 67 26.5t27 65.5q0 36 -27 62t-67 26q-38 0 -66 -26t-28 -62z" />
    <glyph glyph-name="ogonek" unicode="&#x2db;" horiz-adv-x="982" 
d="M475 -371q-63 1 -104.5 42.5t-41.5 101.5q0 59 43 101l176 168l44 -42q-164 -158 -173 -168q-28 -30 -28 -59q0 -32 23.5 -57t61.5 -27q44 0 79 29.5t35 77.5h62q0 -73 -51 -120t-126 -47z" />
    <glyph glyph-name="tilde" unicode="&#x2dc;" horiz-adv-x="1237" 
d="M772 2381q-36 0 -83 23t-85 50t-84 50t-80 23q-38 0 -63 -32.5t-15 -73.5l-60 -16q-23 64 23 123t121 59q47 0 113 -36.5t128.5 -73t101.5 -36.5q37 0 60 38t11 68l59 18q22 -67 -24 -125.5t-123 -58.5z" />
    <glyph glyph-name="hungarumlaut" unicode="&#x2dd;" horiz-adv-x="833" 
d="M632 2310l84 288h62l-104 -288h-42zM131 2310l84 288h62l-104 -288h-42z" />
    <glyph glyph-name="gravecomb" unicode="&#x300;" horiz-adv-x="0" 
d="M329 1710l-105 288h63l83 -288h-41z" />
    <glyph glyph-name="acutecomb" unicode="&#x301;" horiz-adv-x="0" 
d="M224 1710l84 288h62l-104 -288h-42z" />
    <glyph glyph-name="uni0302" unicode="&#x302;" horiz-adv-x="0" 
d="M28 1710l200 288h63l201 -288h-81l-153 210l-149 -210h-81z" />
    <glyph glyph-name="tildecomb" unicode="&#x303;" horiz-adv-x="0" 
d="M805 1751q-36 0 -83 23t-85 50t-84 50t-80 23q-38 0 -63 -32.5t-15 -73.5l-60 -16q-23 64 23 123t121 59q47 0 113 -36.5t128.5 -73t101.5 -36.5q37 0 60 38t11 68l59 18q22 -67 -24 -125.5t-123 -58.5z" />
    <glyph glyph-name="uni0304" unicode="&#x304;" horiz-adv-x="0" 
d="M289 2390v60h706v-60h-706z" />
    <glyph glyph-name="uni0306" unicode="&#x306;" horiz-adv-x="0" 
d="M613 2288q-96 0 -174 45q-80 45 -126.5 121t-46.5 166h63q0 -76 39 -138q42 -62 106.5 -98t138.5 -36q119 0 201.5 79t82.5 193h62q0 -94 -48 -169q-49 -76 -128 -119.5t-170 -43.5z" />
    <glyph glyph-name="uni0307" unicode="&#x307;" horiz-adv-x="0" 
d="M481 1810q-20 0 -34 12.5t-14 31.5q0 20 14 32t34 12q19 0 32.5 -12.5t13.5 -30.5q0 -20 -13.5 -32.5t-32.5 -12.5z" />
    <glyph glyph-name="uni0308" unicode="&#x308;" horiz-adv-x="0" 
d="M747 1689q-21 0 -36 13t-15 31t15.5 32t35.5 14q18 0 33 -14t15 -32t-14.5 -31t-33.5 -13zM433 1733q0 18 15 32t35 14q19 0 33.5 -14t14.5 -32t-14.5 -31t-33.5 -13q-20 0 -35 13t-15 31z" />
    <glyph glyph-name="uni030A" unicode="&#x30a;" horiz-adv-x="0" 
d="M577 1715q-59 0 -101.5 41.5t-42.5 98.5t42 97.5t102 40.5q59 0 102 -41t43 -97q0 -58 -43 -99t-102 -41zM483 1855q0 -39 27.5 -65.5t66.5 -26.5q40 0 67 26.5t27 65.5q0 36 -27 62t-67 26q-38 0 -66 -26t-28 -62z" />
    <glyph glyph-name="uni030B" unicode="&#x30b;" horiz-adv-x="0" 
d="M632 1710l84 288h62l-104 -288h-42zM131 1710l84 288h62l-104 -288h-42z" />
    <glyph glyph-name="uni030C" unicode="&#x30c;" horiz-adv-x="0" 
d="M212 2310l-201 288h83l150 -210l147 210h83l-200 -288h-62z" />
    <glyph glyph-name="dotbelowcomb" unicode="&#x323;" horiz-adv-x="0" 
d="M481 241q-20 0 -34 12.5t-14 31.5q0 20 14 32t34 12q19 0 32.5 -12.5t13.5 -30.5q0 -20 -13.5 -32.5t-32.5 -12.5z" />
    <glyph glyph-name="uni0326" unicode="&#x326;" horiz-adv-x="0" 
d="M556 -500l84 288h62l-104 -288h-42z" />
    <glyph glyph-name="uni0327" unicode="&#x327;" horiz-adv-x="0" 
d="M617 -360q-59 -16 -113.5 14t-70.5 88l61 15q9 -33 40.5 -50.5t66.5 -8.5q36 9 54 39t8 64q-9 34 -40.5 51.5t-66.5 8.5l-74 -19l114 188l55 -30l-48 -78q43 -7 76.5 -35.5t44.5 -69.5q17 -58 -14.5 -110t-92.5 -67z" />
    <glyph glyph-name="uni0328" unicode="&#x328;" horiz-adv-x="0" 
d="M475 -371q-63 1 -104.5 42.5t-41.5 101.5q0 59 43 101l176 168l44 -42q-164 -158 -173 -168q-28 -30 -28 -59q0 -32 23.5 -57t61.5 -27q44 0 79 29.5t35 77.5h62q0 -73 -51 -120t-126 -47z" />
    <glyph glyph-name="uni03BC" unicode="&#x3bc;" horiz-adv-x="1074" 
d="M99 -432v1432h62v-548q0 -116 52 -210q52 -97 137.5 -152.5t187.5 -55.5q103 0 187 57q87 57 137 152.5t50 208.5v548h63v-1000h-63v206q-65 -110 -162.5 -171t-211.5 -61q-120 0 -219.5 64t-157.5 170v-640h-62z" />
    <glyph glyph-name="uni1E20" unicode="&#x1e20;" horiz-adv-x="1503" 
d="M813 -29q-326 0 -520 201t-194 528t194 528t520 201q195 0 346.5 -75t243.5 -212l-62 -32q-86 121 -222.5 188.5t-307.5 67.5q-193 0 -342 -85.5t-229.5 -237t-80.5 -344.5t80.5 -344.5t229.5 -237t342 -85.5q170 0 306 66.5t222 187.5v418h-644v60h707v-507h1
q-93 -137 -244 -211.5t-346 -74.5zM399 1721v60h706v-60h-706z" />
    <glyph glyph-name="uni1E21" unicode="&#x1e21;" horiz-adv-x="1250" 
d="M613 -500q-167 0 -307.5 106t-177.5 257l2 -1l56 25q28 -133 153 -230t274 -97q109 0 210 55t162 145.5t61 189.5v282q-63 -121 -181 -189.5t-272 -68.5q-231 0 -373 147t-142 379t142 379t373 147q154 0 272 -68.5t181 -189.5v232h62v-1050q0 -116 -70 -220.5t-185 -167
t-240 -62.5zM141 500q0 -203 125 -332t327 -129t326.5 129t124.5 332t-124.5 332t-326.5 129t-327 -129t-125 -332zM252 1343v60h706v-60h-706z" />
    <glyph glyph-name="Wgrave" unicode="&#x1e80;" horiz-adv-x="1653" 
d="M410 0l-374 1400h65l351 -1314l349 1314h50l352 -1314l348 1314h65l-372 -1400h-83l-335 1250l-334 -1250h-82zM691 1998h63l83 -288h-41z" />
    <glyph glyph-name="wgrave" unicode="&#x1e81;" horiz-adv-x="1665" 
d="M429 0l-351 1000h61l327 -928l326 928h80l326 -928l326 928h62l-350 -1000h-73l-333 940l-330 -940h-71zM715 1597h63l83 -288h-41z" />
    <glyph glyph-name="Wacute" unicode="&#x1e82;" horiz-adv-x="1653" 
d="M410 0l-374 1400h65l351 -1314l349 1314h50l352 -1314l348 1314h65l-372 -1400h-83l-335 1250l-334 -1250h-82zM770 1710l84 288h62l-104 -288h-42z" />
    <glyph glyph-name="wacute" unicode="&#x1e83;" horiz-adv-x="1665" 
d="M429 0l-351 1000h61l327 -928l326 928h80l326 -928l326 928h62l-350 -1000h-73l-333 940l-330 -940h-71zM764 1299l84 288h62l-104 -288h-42z" />
    <glyph glyph-name="Wdieresis" unicode="&#x1e84;" horiz-adv-x="1653" 
d="M410 0l-374 1400h65l351 -1314l349 1314h50l352 -1314l348 1314h65l-372 -1400h-83l-335 1250l-334 -1250h-82zM642 1733q0 18 15 32t35 14q19 0 33.5 -14t14.5 -32t-14.5 -31t-33.5 -13q-20 0 -35 13t-15 31zM905 1733q0 18 15.5 32t35.5 14q18 0 33 -14t15 -32
t-14.5 -31t-33.5 -13q-21 0 -36 13t-15 31z" />
    <glyph glyph-name="wdieresis" unicode="&#x1e85;" horiz-adv-x="1665" 
d="M429 0l-351 1000h61l327 -928l326 928h80l326 -928l326 928h62l-350 -1000h-73l-333 940l-330 -940h-71zM650 1346q0 18 15 32t35 14q19 0 33.5 -14t14.5 -32t-14.5 -31t-33.5 -13q-20 0 -35 13t-15 31zM913 1346q0 18 15.5 32t35.5 14q18 0 33 -14t15 -32t-14.5 -31
t-33.5 -13q-21 0 -36 13t-15 31z" />
    <glyph glyph-name="uni1E9E" unicode="&#x1e9e;" horiz-adv-x="1274" 
d="M450 79q168 -34 300.5 -3t214 120.5t81.5 208.5q0 80 -24 143t-62 101.5t-88.5 63t-98.5 34t-98 9.5h-225v65h219q129 0 210 68t81 210q0 121 -64 190.5t-187 69.5h-482v-1548h-72v1613h554q143 0 233.5 -80.5t90.5 -244.5q0 -114 -43 -187.5t-137 -122.5
q132 -47 198.5 -137t66.5 -247q0 -89 -29 -160t-76 -115.5t-108.5 -75.5t-125.5 -44.5t-127.5 -17t-114.5 2t-87 16.5v68z" />
    <glyph glyph-name="uni1EBC" unicode="&#x1ebc;" horiz-adv-x="1164" 
d="M140 0v1400h904v-60h-841v-577h720v-60h-720v-643h841v-60h-904zM288 1714q-23 64 23 123t121 59q47 0 113 -36.5t128.5 -73t101.5 -36.5q37 0 60 38t11 68l59 18q22 -67 -24 -125.5t-123 -58.5q-36 0 -83 23t-85 50t-84 50t-80 23q-38 0 -63 -32.5t-15 -73.5z" />
    <glyph glyph-name="uni1EBD" unicode="&#x1ebd;" 
d="M593 -26q-231 0 -373 147t-142 379t142 379t373 147t373 -147t142 -379v-30h-966q10 -191 133 -311t318 -120q143 0 250 67.5t158 184.5l65 -15q-56 -140 -180 -221t-293 -81zM142 530h901q-9 191 -132.5 311t-317.5 120q-195 0 -318 -120t-133 -311zM282 1327
q-23 64 23 123t121 59q47 0 113 -36.5t128.5 -73t101.5 -36.5q37 0 60 38t11 68l59 18q22 -67 -24 -125.5t-123 -58.5q-36 0 -83 23t-85 50t-84 50t-80 23q-38 0 -63 -32.5t-15 -73.5z" />
    <glyph glyph-name="Ygrave" unicode="&#x1ef2;" horiz-adv-x="1189" 
d="M562 0v636l-484 764h73l443 -698l443 698h73l-485 -764v-636h-63zM463 1998h63l83 -288h-41z" />
    <glyph glyph-name="ygrave" unicode="&#x1ef3;" horiz-adv-x="1020" 
d="M283 -500l190 500l-374 1000h69l336 -916l351 916h65l-571 -1500h-66zM425 1577h63l83 -288h-41z" />
    <glyph glyph-name="uni1EF8" unicode="&#x1ef8;" horiz-adv-x="1189" 
d="M562 0v636l-484 764h73l443 -698l443 698h73l-485 -764v-636h-63zM280 1756q-23 64 23 123t121 59q47 0 113 -36.5t128.5 -73t101.5 -36.5q37 0 60 38t11 68l59 18q22 -67 -24 -125.5t-123 -58.5q-36 0 -83 23t-85 50t-84 50t-80 23q-38 0 -63 -32.5t-15 -73.5z" />
    <glyph glyph-name="uni1EF9" unicode="&#x1ef9;" horiz-adv-x="1020" 
d="M283 -500l190 500l-374 1000h69l336 -916l351 916h65l-571 -1500h-66zM243 1339q-23 64 23 123t121 59q47 0 113 -36.5t128.5 -73t101.5 -36.5q37 0 60 38t11 68l59 18q22 -67 -24 -125.5t-123 -58.5q-36 0 -83 23t-85 50t-84 50t-80 23q-38 0 -63 -32.5t-15 -73.5z" />
    <glyph glyph-name="endash" unicode="&#x2013;" horiz-adv-x="1327" 
d="M140 570v60h1045v-60h-1045z" />
    <glyph glyph-name="emdash" unicode="&#x2014;" horiz-adv-x="2163" 
d="M140 570v60h1881v-60h-1881z" />
    <glyph glyph-name="quoteleft" unicode="&#x2018;" horiz-adv-x="409" 
d="M226 878l-86 522h63l65 -522h-42z" />
    <glyph glyph-name="quoteright" unicode="&#x2019;" horiz-adv-x="263" 
d="M57 878l64 522h63l-85 -522h-42z" />
    <glyph glyph-name="quotesinglbase" unicode="&#x201a;" horiz-adv-x="284" 
d="M32 -112l64 338h63l-86 -338h-41z" />
    <glyph glyph-name="quotedblleft" unicode="&#x201c;" horiz-adv-x="583" 
d="M198 878l85 522h42l-65 -522h-62zM730 886l85 522h42l-65 -522h-62z" />
    <glyph glyph-name="quotedblright" unicode="&#x201d;" horiz-adv-x="583" 
d="M57 878l64 522h63l-85 -522h-42zM589 878l64 522h63l-85 -522h-42z" />
    <glyph glyph-name="quotedblbase" unicode="&#x201e;" horiz-adv-x="493" 
d="M32 -112l64 338h63l-86 -338h-41zM506 -112l64 338h63l-86 -338h-41z" />
    <glyph glyph-name="dagger" unicode="&#x2020;" horiz-adv-x="801" 
d="M368 600v540h-269v60h269v300h63v-300h270v-60h-270v-540h-63z" />
    <glyph glyph-name="daggerdbl" unicode="&#x2021;" horiz-adv-x="801" 
d="M368 560v262h-269v58h269v260h-269v60h269v300h63v-300h270v-60h-270v-260h270v-58h-270v-262h-63z" />
    <glyph glyph-name="bullet" unicode="&#x2022;" horiz-adv-x="324" 
d="M159 540q-25 0 -42.5 17.5t-17.5 44.5q0 24 17.5 41t42.5 17q28 0 46.5 -17t18.5 -41q0 -27 -18.5 -44.5t-46.5 -17.5z" />
    <glyph glyph-name="ellipsis" unicode="&#x2026;" horiz-adv-x="1520" 
d="M144 -26q-18 0 -31.5 13.5t-13.5 32.5q0 18 13.5 31t31.5 13q21 0 35 -13t14 -31q0 -19 -14 -32.5t-35 -13.5zM712 20q0 18 13.5 31t31.5 13q21 0 35 -13t14 -31q0 -19 -14 -32.5t-35 -13.5q-18 0 -31.5 13.5t-13.5 32.5zM1326 20q0 18 13.5 31t31.5 13q21 0 35 -13
t14 -31q0 -19 -14 -32.5t-35 -13.5q-18 0 -31.5 13.5t-13.5 32.5z" />
    <glyph glyph-name="guilsinglleft" unicode="&#x2039;" horiz-adv-x="658" 
d="M454 261l-314 340l314 338h84l-314 -338l314 -340h-84z" />
    <glyph glyph-name="guilsinglright" unicode="&#x203a;" horiz-adv-x="658" 
d="M120 261l313 340l-313 338h83l314 -338l-314 -340h-83z" />
    <glyph glyph-name="fraction" unicode="&#x2044;" horiz-adv-x="501" 
d="M-208 0l843 1400h74l-844 -1400h-73z" />
    <glyph glyph-name="Euro" unicode="&#x20ac;" horiz-adv-x="1287" 
d="M1187 -14q-189 -37 -365.5 26t-299 202.5t-164.5 323.5h-259v60h249v204h-249v60h259q33 139 114 254.5t190.5 190.5t247 105.5t277.5 3.5v-60q-175 34 -336 -22t-273 -180.5t-155 -291.5h395v-60h-406v-204h406v-60h-395q32 -127 107 -231t176 -169.5t226.5 -91
t254.5 -0.5v-60z" />
    <glyph glyph-name="trademark" unicode="&#x2122;" horiz-adv-x="1473" 
d="M377 662v706h-285v32h605v-32h-287v-706h-33zM725 662v738h33l288 -595l288 595h32v-738h-33l-1 647l-277 -574h-19l-277 574l-1 -647h-33z" />
    <glyph glyph-name="arrowleft" unicode="&#x2190;" horiz-adv-x="1433" 
d="M586 284l-487 466l487 466l44 -42l-413 -394h1117v-60h-1117l413 -394z" />
    <glyph glyph-name="arrowup" unicode="&#x2191;" horiz-adv-x="1174" 
d="M557 158v1070l-413 -396l-45 44l489 466l486 -466l-43 -44l-412 396v-1070h-62z" />
    <glyph glyph-name="arrowright" unicode="&#x2192;" horiz-adv-x="1433" 
d="M844 284l-43 42l412 394h-1114v60h1114l-412 394l43 42l490 -466z" />
    <glyph glyph-name="arrowdown" unicode="&#x2193;" horiz-adv-x="1174" 
d="M586 160l-487 466l43 42l413 -394v1066h62v-1066l414 394l43 -42z" />
    <glyph glyph-name="arrowboth" unicode="&#x2194;" horiz-adv-x="1663" 
d="M586 284l-487 466l487 466l44 -42l-413 -394h1226l-412 394l43 42l490 -466l-490 -466l-43 42l412 394h-1226l413 -394z" />
    <glyph glyph-name="arrowupdn" unicode="&#x2195;" horiz-adv-x="1174" 
d="M586 48l-487 468l43 44l413 -398v1176l-413 -396l-43 44l487 466l488 -466l-45 -44l-412 396v-1176l412 398l45 -44z" />
    <glyph glyph-name="uni2196" unicode="&#x2196;" horiz-adv-x="1095" 
d="M952 322l-791 754v-558h-62v660h689v-60h-581l788 -754z" />
    <glyph glyph-name="uni2197" unicode="&#x2197;" horiz-adv-x="1093" 
d="M142 322l-43 42l787 754h-582v60h690v-660h-63v558z" />
    <glyph glyph-name="uni2198" unicode="&#x2198;" horiz-adv-x="1093" 
d="M304 322v60h582l-787 754l43 42l789 -754v558h63v-660h-690z" />
    <glyph glyph-name="uni2199" unicode="&#x2199;" horiz-adv-x="1093" 
d="M99 322v660h62v-558l788 754l45 -42l-789 -754h583v-60h-689z" />
    <glyph glyph-name="partialdiff" unicode="&#x2202;" horiz-adv-x="1247" 
d="M623 -26q-142 0 -263 68q-121 69 -191 183t-70 251t69.5 252.5t190 182.5t264.5 67q138 0 254 -61t187 -167q-26 132 -86.5 252t-146 213t-200.5 148t-240 55v60q154 0 291 -73t243 -206q105 -133 163 -307t59 -370q0 -164 -65 -285q-67 -125 -185.5 -194t-273.5 -69z
M161 476q0 -119 62 -220q64 -103 169 -162.5t231 -59.5q131 0 237 62t167 162.5t61 217.5q0 122 -63 222q-63 102 -168.5 161t-233.5 59q-131 0 -235 -61q-105 -61 -166 -162t-61 -219z" />
    <glyph glyph-name="emptyset" unicode="&#x2205;" horiz-adv-x="1243" 
d="M330 -40l-54 30l49 78q-104 73 -165 187.5t-61 244.5q0 144 70 266t190 192t262 70q136 0 244 -60l49 76l54 -30l-48 -78q104 -74 164 -187.5t60 -248.5q0 -144 -70 -265t-190 -191t-263 -70q-122 0 -244 62zM161 500q0 -115 52.5 -214.5t142.5 -163.5l478 794
q-89 48 -186.5 54t-182.5 -28.5t-154 -96t-109.5 -152.5t-40.5 -193zM408 88q77 -41 159 -51t155.5 7t140 58.5t114.5 100.5t76 136t28 161q0 116 -51.5 216.5t-140.5 165.5z" />
    <glyph glyph-name="minus" unicode="&#x2212;" horiz-adv-x="1243" 
d="M99 570v60h1045v-60h-1045z" />
    <glyph glyph-name="radical" unicode="&#x221a;" horiz-adv-x="1327" 
d="M368 0l-269 708h66l235 -612l497 1304h330v-60h-286l-512 -1340h-61z" />
    <glyph glyph-name="infinity" unicode="&#x221e;" horiz-adv-x="1529" 
d="M377 340q-123 15 -200.5 97.5t-77.5 194.5q0 115 78.5 198.5t199.5 93.5q86 0 147 -26q54 -24 105 -72.5t137 -147.5q53 65 122 136q57 56 112.5 83t124.5 27q142 -10 223.5 -90.5t81.5 -201.5q0 -114 -78 -196t-198 -96q-82 0 -142 23q-54 22 -107.5 72t-138.5 151
q-73 -83 -131 -141q-56 -56 -114.5 -80.5t-143.5 -24.5zM161 632q0 -91 64 -155.5t156 -76.5q75 0 122 21q30 13 66 45t61 59.5t94 106.5q-88 100 -129 143q-48 51 -94 70t-120 19q-95 -10 -157.5 -76t-62.5 -156zM805 632q127 -141 164 -173q13 -11 25 -19q55 -40 153 -40
q94 11 157 77t63 155q0 95 -64.5 158.5t-177.5 73.5q-61 0 -107 -23q-9 -5 -18 -11t-17 -11.5t-19 -15.5t-18 -16.5t-20 -20t-20 -21t-23 -25.5t-23.5 -26t-26.5 -30t-28 -32z" />
    <glyph glyph-name="integral" unicode="&#x222b;" horiz-adv-x="791" 
d="M223 -26q-56 2 -93.5 44.5t-29.5 97.5l62 -6q-4 -28 15.5 -49t52.5 -27q30 -3 52 15.5t27 48.5l109 1210q7 56 48.5 88.5t99.5 29.5q56 -5 93 -45t32 -97l-60 6q2 30 -18.5 52.5t-51.5 23.5q-32 5 -55.5 -16.5t-24.5 -47.5l-110 -1208q-12 -115 -148 -120z" />
    <glyph glyph-name="approxequal" unicode="&#x2248;" horiz-adv-x="1244" 
d="M820 684q-49 0 -111.5 26t-122 63.5t-117.5 75t-114.5 63t-96.5 24.5q-87 2 -139 -64t-30 -150l-61 -14q-21 69 4 136q27 68 88.5 111t139.5 43q56 0 135.5 -39.5t146.5 -86.5t145.5 -86.5t134.5 -39.5q88 0 142 64t29 144l61 18q24 -75 -5 -140q-29 -67 -91 -107.5
t-138 -40.5zM28 187q-21 69 4 136q27 68 88.5 111t139.5 43q56 0 135.5 -39.5t146.5 -86.5t145.5 -86.5t134.5 -39.5q88 0 142 64t29 144l61 18q24 -75 -5 -140q-29 -67 -91 -107.5t-138 -40.5q-49 0 -111.5 26t-122 63.5t-117.5 75t-114.5 63t-96.5 24.5q-87 2 -139 -64
t-30 -150z" />
    <glyph glyph-name="notequal" unicode="&#x2260;" horiz-adv-x="1243" 
d="M410 18l110 360h-421v60h439l100 324h-539v60h557l110 360h64l-108 -360h422v-60h-441l-99 -324h540v-60h-558l-111 -360h-65z" />
    <glyph glyph-name="lessequal" unicode="&#x2264;" horiz-adv-x="1243" 
d="M1144 348l-1045 284v94l1045 286v-64l-989 -268l989 -270v-62zM99 0v60h1045v-60h-1045z" />
    <glyph glyph-name="greaterequal" unicode="&#x2265;" horiz-adv-x="1243" 
d="M99 348v62l989 270l-989 268v64l1045 -286v-94zM99 0v60h1045v-60h-1045z" />
    <glyph glyph-name="uniA78B" unicode="&#xa78b;" horiz-adv-x="206" 
d="M67 1443h71l-8 -488h-55z" />
    <glyph glyph-name="uniA78C" unicode="&#xa78c;" horiz-adv-x="206" 
d="M67 1443h71l-8 -488h-55z" />
    <glyph glyph-name="uni004A0301" horiz-adv-x="1304" 
d="M611 -26q-176 0 -300 82q-123 81 -188.5 219.5t-65.5 308.5h63q0 -244 132.5 -397t358.5 -153q227 0 359 148t132 402v816h63v-816q0 -271 -150 -440.5t-404 -169.5zM1103 1710l84 288h62l-104 -288h-42z" />
    <glyph glyph-name="i.loclTRK" horiz-adv-x="351" 
d="M140 0v1000h63v-1000h-63zM128 1403q0 20 14 32t34 12q19 0 32.5 -12.5t13.5 -30.5q0 -20 -13.5 -32.5t-32.5 -12.5q-20 0 -34 12.5t-14 31.5z" />
    <glyph glyph-name="uni006A0301" horiz-adv-x="454" 
d="M-69 -440q139 0 230 83t91 209v1148h62v-1148q0 -98 -50 -178q-50 -82 -137 -128t-196 -46v60zM250 1310l84 288h62l-104 -288h-42z" />
    <glyph glyph-name="_Designova" horiz-adv-x="1401" 
d="M699 38q-162 0 -300 81t-218.5 219.5t-80.5 300.5q1 122 48.5 233t128 191t191.5 127.5t233 47.5t233 -47.5t191.5 -127.5t128 -191t47.5 -233q0 -163 -80.5 -301.5t-219.5 -219t-302 -80.5zM172 639q0 -108 42 -206t112.5 -168.5t168.5 -112.5t206 -42q143 0 264.5 70.5
t192.5 192t71 265.5t-70.5 266t-191.5 192.5t-265 70.5t-266 -70.5t-193 -192t-71 -265.5zM360 744q8 0 12 -4q53 -20 107 -29q43 -4 76 3q24 4 49 13q4 0 10.5 3.5t7.5 3.5l-17 8.5t-17.5 9t-15 10t-14.5 13.5h20q37 0 80 18q77 48 147 68q30 9 61 9q6 0 23 1.5t25 0.5
q62 -4 94 -36q7 -5 31 -34v-2q-3 2 -6 2q-50 19 -89.5 4.5t-66.5 -55.5q-6 -11 -15.5 -33.5t-12.5 -29.5q-5 -12 -15 -36.5t-19 -44.5t-17 -37q-31 -65 -69 -111q-17 -23 -68 -61q-51 -36 -127 -59h-6l26 23q16 15 28 47q8 25 24.5 71t23.5 68q31 89 60 139v1q-1 -2 -4.5 -6
t-5.5 -6q-8 -8 -10 -15q-21 -24 -35 -60q-3 -5 -9 -5q-110 5 -190 73q-1 1 -61 58q-5 7 -15 17z" />
    <glyph glyph-name="_Origin" horiz-adv-x="1874" 
d="M100 40v1150h1674v-1149l-43 -1v1zM143 82h1588v625h-1588v-625zM289 224v128h30v-128h-30zM293 884h68q60 0 84 40q11 19 11 46q0 55 -44 75q-19 11 -49 11h-70v-172zM312 439v127h107v-23h-77v-28h70v-22h-70v-31h77v-23h-107zM333 916v108h27q37 0 49 -23q7 -19 7 -31
q0 -36 -26 -48q-10 -6 -31 -6h-26zM339 224v128h25l64 -77v77h29v-128h-24l-63 79v-79h-31zM440 439v127h25l64 -76v76h29v-127h-25l-63 78v-78h-30zM472 948q0 -44 33 -58q13 -7 39 -7q35 0 54 17q9 12 12 22l-38 1q-3 -9 -16 -13q-2 0 -5.5 -0.5t-6.5 -0.5q-22 0 -29 15
q-5 8 -5 15h100v11q0 32 -20 49q-19 16 -48 16q-43 0 -63 -32q-7 -17 -7 -35zM510 962q1 12 15 22q8 5 17 5q21 0 26 -16q4 -5 4 -11h-62zM524 224v128h63q52 0 52 -32q0 -20 -18 -29q2 0 2 -2q20 -7 20 -30q0 -35 -51 -35h-68zM554 247h35q24 0 24 16q0 15 -24 15h-35v-31z
M554 303h31q24 0 24 14q0 16 -24 16h-31v-30zM579 543v23h112v-23h-41v-104h-29v104h-42zM621 922q6 -39 67 -39q39 0 57 20q7 11 7 21q0 26 -41 35l-28 5q-18 3 -18 13q0 12 23 12t23 -14l38 2q-7 38 -62 38q-38 0 -54 -19q-8 -8 -8 -21q0 -28 41 -37l26 -5q19 -3 19 -12
q0 -14 -23 -14q-24 0 -27 16zM657 224v128h107v-24h-78v-27h70v-23h-70v-29h76v-25h-105zM704 566h32l29 -89l30 89h27l29 -90l31 90h28l-41 -127h-33l-28 87l-29 -87h-31zM767 1047q0 -7 7 -12.5t15 -5.5q9 0 15.5 5.5t6.5 12.5t-6.5 12.5t-15.5 5.5q-8 0 -15 -5.5
t-7 -12.5zM768 884h41v129h-41v-129zM784 224v128h59q19 0 29 -5q27 -12 27 -41q0 -14 -7 -24q-11 -13 -21 -18l27 -40h-32l-25 37h-26v-37h-31zM815 285h26q28 0 28 21q0 22 -28 22h-26v-43zM827 949q0 -42 30 -56q12 -6 30 -6q21 0 33 10q7 5 7 10h2v-23q0 -24 -30 -24
q-18 0 -25 7q-2 1 -5 8l-37 -6q3 -15 20 -25t46 -10q43 0 62 22q10 10 10 27v130h-40v-21h-3q-4 13 -21 19q-10 4 -19 4q-35 0 -52 -29q-8 -16 -8 -37zM869 949q0 24 12 33q10 5 18 5q19 0 28 -19q0 -2 1.5 -8.5t1.5 -10.5q0 -36 -31 -36q-18 0 -28 18q-2 10 -2 18zM913 224
v128h29v-103h76v-25h-105zM915 503q0 27 20 47q19 19 50 19q33 0 51 -19q20 -20 20 -47q0 -25 -20 -47q-18 -19 -50 -19t-51 19q-20 22 -20 47zM946 503q0 -18 11 -29.5t28 -11.5q18 0 29 11.5t11 29.5q0 19 -11 30.5t-29 11.5q-17 0 -28 -11.5t-11 -30.5zM993 884h41v75
q0 17 13 23q5 3 14 3q25 0 25 -25v-76h42v82q0 31 -24 42q-11 7 -27 7q-31 0 -43 -25h-1v23h-40v-129zM1039 224v128h30v-128h-30zM1073 439v127h57q22 0 30 -3q26 -14 26 -42q0 -15 -7 -25q-6 -10 -21 -17l28 -40h-32l-25 36h-28v-36h-28zM1090 224v128h25l63 -77v77h31
v-128h-25l-64 79v-79h-30zM1101 499h27q28 0 28 22t-28 22h-27v-44zM1145 948q0 -39 34 -58q12 -7 38 -7q42 0 64 31q8 14 8 34q0 39 -33 59q-19 8 -39 8q-44 0 -63 -32q-9 -18 -9 -35zM1187 949q0 24 13 33q6 5 17 5q19 0 27 -19q3 -7 3 -19q0 -24 -13 -34q-8 -5 -17 -5
q-19 0 -28 20q-2 10 -2 19zM1201 439v127h107v-23h-77v-28h69v-22h-69v-54h-30zM1227 242q0 17 19 17q7 0 12 -5t5 -12q0 -6 -5 -19l-11 -27h-18l9 30q-11 4 -11 16zM1290 1013l51 -129h45l52 129h-42l-31 -91h-1l-31 91h-43zM1319 439v127h107v-23h-77v-28h69v-22h-69v-31
h77v-23h-107zM1336 224v128h57q23 0 38 -8q33 -14 33 -55q0 -22 -9 -35q-16 -30 -62 -30h-57zM1366 249h26q13 0 23 5q19 11 19 35q0 16 -5 21q-9 18 -37 18h-26v-79zM1439 921q0 -26 23 -34q9 -4 25 -4q21 0 34 9q8 10 8 11h2v-19h37v88q0 19 -17 33q-22 10 -43 10
q-35 0 -53 -18q-9 -7 -12 -20l39 -4q4 16 25 16t21 -16v-1q0 -7 -15 -10q-2 -1 -9 -1.5t-10 -0.5q-25 -2 -39 -10q-16 -9 -16 -29zM1448 439v127h22l66 -76v76h29v-127h-25l-64 78v-78h-28zM1477 922q0 7 12 14q4 2 12 2q19 2 28 6v-13q0 -15 -15 -21q-12 -3 -16 -3
q-21 0 -21 15zM1482 224v128h105v-24h-76v-27h69v-23h-69v-29h76v-25h-105z" />
    <glyph glyph-name="_Typeface" horiz-adv-x="2096" 
d="M100 355v540h1896v-540h-1896zM274 522h38v159h3l122 -159h37v217h-39v-159h-2l-123 159h-36v-217zM502 602q0 -49 39 -72q17 -10 46 -10q52 0 74 39q12 21 12 43q0 53 -41 74q-15 10 -45 10q-51 0 -75 -38q-10 -21 -10 -46zM539 602q0 36 21 50q11 8 27 8q33 0 45 -29
q5 -13 5 -29q0 -34 -21 -48q-13 -8 -29 -8q-32 0 -44 29q-4 8 -4 27zM697 522h36v27h3q12 -17 26 -24q13 -5 27 -5q45 0 67 39q10 17 10 45q0 52 -39 72q-11 10 -38 10q-30 0 -44 -17q-8 -11 -9 -12h-3v82h-36v-217zM733 604q0 34 22 48q11 8 27 8q32 0 43 -27q5 -25 5 -29
q0 -36 -22 -50q-11 -8 -26 -8q-33 0 -44 27q-5 25 -5 31zM883 602q0 -51 41 -72q18 -10 45 -10q39 0 63 19q11 11 14 24l-33 5q-9 -17 -25 -19q-7 -5 -16 -5q-34 0 -46 24q-7 10 -7 27h130v9q0 42 -24 63q-23 19 -58 19q-51 0 -75 -38q-9 -19 -9 -46zM919 619q0 19 21 36
q8 5 27 5q34 0 41 -24q3 -3 5 -10l2 -7h-96zM1075 522h34v217h-34v-217zM1222 597q0 -48 46 -67q17 -10 50 -10q62 0 87 36q12 21 12 41v142h-39v-140q0 -32 -26 -43q-14 -7 -34 -7q-36 0 -53 24q-7 10 -7 26v140h-36v-142zM1453 522h36v97q0 26 22 36q10 5 21 5
q18 0 28.5 -10.5t10.5 -28.5v-99h36v104q0 41 -29 53q-14 7 -34 7q-41 0 -53 -29h-4v27h-34v-162zM1633 602q0 -49 39 -72q18 -10 46 -10q52 0 74 39q12 21 12 43q0 53 -41 74q-15 10 -45 10q-53 0 -75 -38q-10 -21 -10 -46zM1669 602q0 36 22 50q11 8 27 8q33 0 45 -29
q5 -13 5 -29q0 -35 -22 -48q-11 -8 -28 -8q-33 0 -44 29q-5 8 -5 27z" />
    <glyph glyph-name="_VendorID" horiz-adv-x="1106" 
d="M100 143v1104h906v-1104h-906zM103 59q0 12 7 19t17 7q8 0 11 -3l4 -5v24h12v-67h-12v9l-4 -7q-6 -4 -14 -4q-21 0 -21 27zM116 59q0 -16 12 -16q14 0 14 16v1q0 16 -13 16t-13 -17zM163 59q0 11 7 18.5t18 7.5q10 0 17 -7t7 -18q0 -2 -2 -5h-34q1 -12 12 -12q9 0 11 8
h11q-3 -19 -22 -19q-25 0 -25 27zM176 62h23q-3 14 -11 14q-11 0 -12 -14zM216 48h13q3 -8 8 -8q9 0 9 7q0 2 -11 8q-17 5 -17 15q0 15 19 15q20 0 20 -15h-13q-2 6 -7 6q-6 0 -6 -5q0 -4 11 -9q16 -3 16 -14q0 -16 -21 -16q-18 0 -21 16zM255 423q0 -56 39.5 -96t96.5 -40
q56 0 94.5 39.5t38.5 96.5q0 58 -37.5 96.5t-95.5 38.5q-11 0 -22 -3l79 112h-60l-90 -128q-43 -60 -43 -116zM255 861q0 -56 39.5 -95t96.5 -39q56 0 94.5 39t38.5 95q0 58 -37.5 96.5t-95.5 38.5q-15 0 -22 -2l79 114h-60l-90 -132q-43 -62 -43 -115zM265 95q0 6 8 6
q7 0 7 -6q0 -8 -7 -8q-8 0 -8 8zM266 34v51h13v-51h-13zM289 31v1h13v-1q0 -8 12 -8q10 0 14 12v8l-4 -7q-8 -2 -13 -2q-22 0 -22 25q0 26 24 26q8 0 11 -3l4 -5v8h13v-38q0 -8 -2 -11q0 -22 -25 -22t-25 17zM302 60q0 -17 12 -17q14 0 14 16v1q0 16 -14 16q-12 0 -12 -16z
M305 423q0 37 24 60.5t62 23.5q36 0 60 -23.5t24 -60.5q0 -39 -24 -63t-60 -24q-38 0 -62 24t-24 63zM305 861q0 39 24 62.5t62 23.5q36 0 60 -24.5t24 -61.5t-24 -61.5t-60 -24.5q-38 0 -62 24t-24 62zM351 34v51h13v-10l4 7q4 3 12 3q14 0 18 -14q1 -3 1 -9v-28h-14v32
q0 10 -9 10q-12 0 -12 -19v-23h-13zM406 59q0 11 7 18.5t18 7.5q26 0 26 -26q0 -27 -26 -27q-11 0 -18 7.5t-7 19.5zM419 59q0 -16 12 -16q14 0 14 16q0 17 -14 17q-12 0 -12 -17zM461 85h14l13 -42l12 42h13l-18 -51h-17zM517 48q0 15 28 15h3v7q0 6 -8 6q-11 0 -11 -8h-12
q0 17 23 17q17 0 19 -14v-37h-11v6l-3 -5q-6 -3 -13 -3q-15 0 -15 16zM529 48q0 -5 8 -5q11 0 11 8v6q-19 2 -19 -9zM568 74v9h5v7q0 14 18 14h5v-10q-10 2 -10 -5v-6h10v-9h-10v-40h-13v40h-5zM580 423q0 -57 39.5 -96.5t95.5 -39.5t94.5 39.5t38.5 96.5t-38 96t-95 39
q-13 0 -23 -3l80 112h-61l-90 -128q-41 -58 -41 -116zM580 861q0 -56 39.5 -95t95.5 -39t94.5 39t38.5 95q0 58 -38 96.5t-95 38.5q-16 0 -24 -2l81 114h-61l-90 -132q-41 -62 -41 -115zM600 59q0 26 26 26q25 0 25 -26q0 -27 -25 -27q-26 0 -26 27zM613 59q0 -16 13 -16
q12 0 12 16q0 17 -12 17q-13 0 -13 -17zM629 423q0 37 24 60.5t62 23.5q36 0 58.5 -23.5t22.5 -60.5q0 -39 -22.5 -63t-58.5 -24q-38 0 -62 24t-24 63zM629 861q0 38 24 62t62 24q36 0 58.5 -24t22.5 -62t-22.5 -62t-58.5 -24q-38 0 -62 24t-24 62zM660 34v51h11v-10l5 7
q4 3 12 3q14 0 18 -14v-37h-13v32q-3 10 -8 10q-14 0 -14 -19v-23h-11zM713 74v9h7v12h13v-12h9v-9h-9v-26q2 -9 8 -5v-10h-7q-14 0 -14 10v31h-7zM746 48h14q2 -8 9 -8q8 0 8 7q0 2 -11 8q-16 4 -16 15q0 15 18 15t23 -15h-15q0 6 -9 6q-4 0 -4 -5t10 -9q18 -4 18 -14
q0 -16 -22 -16q-19 0 -23 16zM794 39q0 9 9 9q8 0 8 -9q0 -7 -8 -7q-9 0 -9 7zM817 59q0 11 7.5 18.5t16.5 7.5q23 0 23 -19h-12q-3 10 -11 10q-11 0 -11 -17q0 -16 11 -16q9 0 11 8h12q-1 -19 -23 -19q-24 0 -24 27zM869 59q0 26 27 26q24 0 24 -26q0 -27 -24 -27
q-27 0 -27 27zM882 59q0 -16 14 -16q12 0 12 16q0 17 -12 17q-14 0 -14 -17zM929 34v51h13v-9l5 6q3 3 8 3q12 0 17 -10l5 7q3 3 10 3q16 0 16 -12q1 -3 1 -11v-28h-12v26q0 1 -0.5 3.5t-0.5 4.5q0 8 -10 8q-8 0 -8 -16v-26h-12v34q-5 8 -9 8q-10 0 -10 -16v-26h-13z" />
    <glyph glyph-name="crossbarcomb" horiz-adv-x="1446" 
d="M15 579v58h1415v-58h-1415z" />
    <glyph glyph-name="crossslashcomb" horiz-adv-x="525" 
d="M15 -209l423 1803h71l-424 -1803h-70z" />
    <glyph glyph-name="dotlessicomb" horiz-adv-x="345" 
d="M140 0v1000h63v-1000h-63z" />
    <glyph glyph-name="dotlessjcomb" horiz-adv-x="456" 
d="M-69 -440q139 0 230 83t91 209v1148h62v-1148q0 -98 -50 -178q-50 -82 -137 -128t-196 -46v60z" />
    <glyph glyph-name="leftspikecomb" horiz-adv-x="263" 
d="M78 878l85 522h42l-65 -522h-62z" />
    <glyph glyph-name="rightspikecomb" horiz-adv-x="346" 
d="M57 878l64 522h63l-85 -522h-42z" />
    </font>
</defs>
</svg>
