<?xml version="1.0" standalone="no"?>
<!DOCTYPE svg PUBLIC "-//W3C//DTD SVG 1.1//EN" "http://www.w3.org/Graphics/SVG/1.1/DTD/svg11.dtd" >
<svg xmlns="http://www.w3.org/2000/svg" xmlns:xlink="http://www.w3.org/1999/xlink" version="1.1">
<metadata>
Created by FontForge 20201107 at Tue May 21 02:52:21 2024
 By 
Copyright (c) 2024 by Designova. All rights reserved.
</metadata>
<defs>
<font id="NobelUno-ExtraLight" horiz-adv-x="1203" >
  <font-face 
    font-family="Nobel Uno ExtraLight"
    font-weight="200"
    font-stretch="normal"
    units-per-em="2048"
    panose-1="0 0 0 0 0 0 0 0 0 0"
    ascent="1638"
    descent="-410"
    x-height="1006"
    cap-height="1400"
    bbox="-208 -508 2387 2611"
    underline-thickness="50"
    underline-position="-125"
    unicode-range="U+000D-A78C"
  />
<missing-glyph horiz-adv-x="1608" 
d="M195 -1v1378h1224v-1378h-1224zM389 510l116 -114l299 298l304 -298l118 114l-301 301l296 301l-113 114l-304 -299l-297 299l-118 -114l301 -301zM399 165h31v83h1l62 -83h29v129h-31v-81h-2l-64 81h-26v-129zM535 213q0 -28 25 -43q18 -6 29 -6q32 0 48 23q6 12 6 26
q0 31 -25 44q-12 6 -29 6q-36 0 -48 -24q-6 -11 -6 -26zM565 213q0 15 11 26q4 4 13 4q15 0 21 -14q2 -5 2 -16q0 -17 -10 -25q-10 -2 -13 -2q-17 0 -20 14q-4 5 -4 13zM694 230q0 -41 32 -59q19 -7 37 -7q38 0 55 26q7 11 7 28v17h-59v-21h31q0 -16 -16 -22q-5 -4 -18 -4
q-23 0 -33 19q-5 7 -5 23q0 28 18 38q12 5 19 5q28 0 31 -21h31q-1 18 -20 33q-17 11 -42 11q-40 0 -59 -30q-9 -14 -9 -36zM843 165h29v129h-29v-129zM881 263l40 -99l-2 -5q-2 -11 -22 -7l-7 -19q10 -4 20 -4q20 0 32 14q5 3 8 13l41 107h-31l-22 -71h-2l-22 71h-33z
M1001 129h31v52q6 -10 18 -14q3 -3 13 -3q27 0 39 23q6 10 6 26q0 31 -21 45q-13 5 -24 5q-17 0 -25 -9q-4 -3 -6 -9h-1v18h-30v-134zM1031 213q0 17 10 25q5 5 12 5q16 0 21 -14q3 -8 3 -16q0 -15 -10 -25q-8 -2 -14 -2q-14 0 -20 14q-2 8 -2 13zM1123 165h28v56
q0 14 11 18q4 3 11 3q19 0 19 -19v-58h31v62q0 24 -19 33q-12 3 -19 3q-25 0 -34 -18h-1v49h-27v-129z" />
    <glyph glyph-name=".notdef" horiz-adv-x="1608" 
d="M195 -1v1378h1224v-1378h-1224zM389 510l116 -114l299 298l304 -298l118 114l-301 301l296 301l-113 114l-304 -299l-297 299l-118 -114l301 -301zM399 165h31v83h1l62 -83h29v129h-31v-81h-2l-64 81h-26v-129zM535 213q0 -28 25 -43q18 -6 29 -6q32 0 48 23q6 12 6 26
q0 31 -25 44q-12 6 -29 6q-36 0 -48 -24q-6 -11 -6 -26zM565 213q0 15 11 26q4 4 13 4q15 0 21 -14q2 -5 2 -16q0 -17 -10 -25q-10 -2 -13 -2q-17 0 -20 14q-4 5 -4 13zM694 230q0 -41 32 -59q19 -7 37 -7q38 0 55 26q7 11 7 28v17h-59v-21h31q0 -16 -16 -22q-5 -4 -18 -4
q-23 0 -33 19q-5 7 -5 23q0 28 18 38q12 5 19 5q28 0 31 -21h31q-1 18 -20 33q-17 11 -42 11q-40 0 -59 -30q-9 -14 -9 -36zM843 165h29v129h-29v-129zM881 263l40 -99l-2 -5q-2 -11 -22 -7l-7 -19q10 -4 20 -4q20 0 32 14q5 3 8 13l41 107h-31l-22 -71h-2l-22 71h-33z
M1001 129h31v52q6 -10 18 -14q3 -3 13 -3q27 0 39 23q6 10 6 26q0 31 -21 45q-13 5 -24 5q-17 0 -25 -9q-4 -3 -6 -9h-1v18h-30v-134zM1031 213q0 17 10 25q5 5 12 5q16 0 21 -14q3 -8 3 -16q0 -15 -10 -25q-8 -2 -14 -2q-14 0 -20 14q-2 8 -2 13zM1123 165h28v56
q0 14 11 18q4 3 11 3q19 0 19 -19v-58h31v62q0 24 -19 33q-12 3 -19 3q-25 0 -34 -18h-1v49h-27v-129z" />
    <glyph glyph-name=".null" horiz-adv-x="1267" 
 />
    <glyph glyph-name="nonmarkingreturn" horiz-adv-x="682" 
 />
    <glyph glyph-name="CR" unicode="&#xd;" horiz-adv-x="1267" 
 />
    <glyph glyph-name="space" unicode=" " horiz-adv-x="534" 
 />
    <glyph glyph-name="space" unicode="&#xa0;" horiz-adv-x="534" 
 />
    <glyph glyph-name="exclam" unicode="!" horiz-adv-x="352" 
d="M116 414v986h81v-986h-81zM99 30q0 22 16.5 37.5t40.5 15.5q23 0 39 -15.5t16 -37.5q0 -23 -16.5 -39.5t-38.5 -16.5q-24 0 -40.5 16.5t-16.5 39.5z" />
    <glyph glyph-name="quotedbl" unicode="&#x22;" horiz-adv-x="537" 
d="M110 866v534h81v-534h-81zM622 866v534h81v-534h-81z" />
    <glyph glyph-name="numbersign" unicode="#" horiz-adv-x="1568" 
d="M231 0l104 371h-236l22 77h234l143 506h-236l21 77h236l104 369h83l-104 -369h549l103 369h83l-104 -369h235l-22 -77h-235l-143 -506h238l-23 -77h-235l-104 -371h-83l104 371h-547l-105 -371h-82zM437 448h550l142 506h-548z" />
    <glyph glyph-name="dollar" unicode="$" horiz-adv-x="1252" 
d="M586 -25q-176 8 -311 87t-176 202l77 29q36 -110 157 -175t292 -65q112 0 214 38q102 39 160.5 107t58.5 157q0 93 -62 152q-106 101 -373 150q-143 25 -259 65q-122 41 -187 117t-65 198q0 157 134 262t340 116v206h81v-206q181 -8 310 -85.5t176 -203.5l-79 -26
q-36 110 -156.5 174.5t-292.5 64.5q-115 0 -215 -38q-102 -39 -159 -107t-57 -157q0 -103 55 -157q52 -53 141.5 -83.5t235.5 -57.5q142 -26 250 -69q263 -103 263 -315q0 -114 -66 -196q-65 -80 -172.5 -128t-233.5 -56v-196h-81v196z" />
    <glyph glyph-name="percent" unicode="%" horiz-adv-x="1195" 
d="M126 0l844 1400h95l-844 -1400h-95zM99 1087q0 84 60 142.5t147 58.5t147.5 -58.5t60.5 -142.5t-60 -142t-148 -58q-87 0 -147 58t-60 142zM180 1087q0 -50 36.5 -85.5t89.5 -35.5q54 0 90 35t36 86q0 52 -36 87t-90 35q-53 0 -89.5 -35t-36.5 -87zM678 314
q0 84 61 141.5t149 57.5q86 0 146.5 -58t60.5 -141q0 -84 -60.5 -143t-146.5 -59q-88 0 -149 59t-61 143zM759 314q0 -51 37.5 -87t91.5 -36q52 0 89 36t37 87q0 50 -37 85t-89 35q-54 0 -91.5 -35t-37.5 -85z" />
    <glyph glyph-name="ampersand" unicode="&#x26;" horiz-adv-x="1507" 
d="M506 -26q-122 0 -214 57q-91 56 -142 145.5t-51 190.5q0 67 15.5 115.5t54.5 97.5q42 53 109 116l171 164q-137 130 -168 171q-42 56 -42 136q0 109 78 184t189 75q113 0 191.5 -75t78.5 -184q0 -84 -44 -140q-32 -39 -133 -135q-11 -10 -33 -32l458 -438l211 200v-110
l-155 -149l327 -312l-59 -55l-324 310q-208 -199 -261 -243q-18 -14 -33 -25q-51 -36 -101.5 -50t-122.5 -14zM182 363q0 -87 44 -156q44 -72 117 -113t163 -41q63 0 104.5 12.5t84.5 45.5q52 39 210 194q19 18 61 60l-460 440l-167 -160q-70 -68 -100 -105q-33 -41 -45 -80
t-12 -97zM321 1167q0 -44 14.5 -72t56.5 -68q33 -34 114 -112q16 16 42 40t32 30q19 19 45 43q42 40 56 68t14 71q0 76 -54.5 128t-134.5 52t-132.5 -53.5t-52.5 -126.5z" />
    <glyph glyph-name="quotesingle" unicode="'" horiz-adv-x="280" 
d="M99 866v534h81v-534h-81z" />
    <glyph glyph-name="parenleft" unicode="(" horiz-adv-x="639" 
d="M429 -110q-145 124 -217 323.5t-72 431.5q0 180 42 338q73 271 247 417h89q-129 -129 -195 -278q-87 -191 -101 -477q9 -242 78 -426t218 -329h-89z" />
    <glyph glyph-name="parenright" unicode=")" horiz-adv-x="639" 
d="M120 -110q149 145 217.5 329.5t77.5 425.5q-6 185 -47 331q-67 240 -248 424h88q122 -100 192 -260q97 -215 97 -495q0 -147 -27 -278q-63 -309 -262 -477h-88z" />
    <glyph glyph-name="asterisk" unicode="*" horiz-adv-x="769" 
d="M222 850l-66 47l145 190l-234 74l25 74l236 -72v237h81v-237l235 72l25 -74l-235 -74l145 -190l-67 -47l-144 193z" />
    <glyph glyph-name="plus" unicode="+" horiz-adv-x="1248" 
d="M583 99v463h-484v79h484v463h81v-463h485v-79h-485v-463h-81z" />
    <glyph glyph-name="comma" unicode="," horiz-adv-x="390" 
d="M99 -110l67 353h83l-90 -353h-60z" />
    <glyph glyph-name="hyphen" unicode="-" horiz-adv-x="962" 
d="M140 562v79h680v-79h-680z" />
    <glyph glyph-name="period" unicode="." horiz-adv-x="352" 
d="M153 -26q-22 0 -38 16.5t-16 39.5q0 22 16 37.5t38 15.5q25 0 41.5 -15.5t16.5 -37.5q0 -23 -16.5 -39.5t-41.5 -16.5z" />
    <glyph glyph-name="slash" unicode="/" horiz-adv-x="702" 
d="M99 -110l420 1510h83l-422 -1510h-81z" />
    <glyph glyph-name="zero" unicode="0" horiz-adv-x="1266" 
d="M634 -26q-172 0 -299.5 95t-192 258.5t-64.5 372.5q0 208 64 371t191.5 259t300.5 96q259 0 412 -213q142 -203 142 -513q0 -309 -142 -511q-152 -215 -412 -215zM159 700q0 -289 128 -468t347 -179q146 0 254 83.5t163.5 229t55.5 334.5q0 186 -57 334
q-57 150 -162.5 231.5t-253.5 81.5q-152 0 -261 -86t-161.5 -230t-52.5 -331z" />
    <glyph glyph-name="one" unicode="1" horiz-adv-x="447" 
d="M182 0v1400h82v-1400h-82z" />
    <glyph glyph-name="two" unicode="2" horiz-adv-x="1133" 
d="M99 65q299 286 418 408q97 98 185 204q176 215 176 344q0 89 -45 164q-46 75 -122.5 118.5t-168.5 43.5q-95 0 -170 -44q-81 -46 -126.5 -123t-42.5 -168h-82q-3 116 56 213q59 93 155 147t210 54q112 0 210 -55q96 -55 152 -147.5t56 -202.5q0 -138 -182 -373
q-206 -272 -542 -569h756v-79h-893v65z" />
    <glyph glyph-name="three" unicode="3" horiz-adv-x="1034" 
d="M517 -26q-133 0 -234 55q-99 55 -153 148.5t-52 207.5h81q-1 -94 42 -172q44 -75 124.5 -117.5t191.5 -42.5q94 0 173 44q85 45 134 118t49 160q0 155 -116.5 239t-316.5 82v79q179 -2 284 72t105 214q0 79 -47 142q-46 67 -119 105.5t-155 38.5t-156 -39
q-79 -42 -123.5 -109.5t-41.5 -147.5h-82q-4 152 117 263.5t286 111.5q105 0 196 -50q94 -50 149.5 -133t55.5 -182q0 -112 -59.5 -197.5t-161.5 -125.5q129 -47 198 -141t69 -222q0 -111 -62 -202q-63 -92 -163 -145.5t-213 -53.5z" />
    <glyph glyph-name="four" unicode="4" 
d="M887 0h-82v317h-706v76l690 1007h98v-1005h174v-78h-174v-317zM205 399l600 -4l-4 867z" />
    <glyph glyph-name="five" unicode="5" horiz-adv-x="1098" 
d="M154 246q52 -90 140.5 -141.5t196.5 -51.5t193 50q90 51 140.5 134t50.5 183q0 102 -51 184q-52 83 -137.5 130t-175 53.5t-174.5 -12.5t-144 -60h-58l74 685h669v-79h-591l-52 -495q98 38 222 40q148 -2 257 -56q115 -55 179 -156.5t64 -233.5q0 -184 -136.5 -315
t-329.5 -131q-129 0 -234 61q-109 60 -169 163z" />
    <glyph glyph-name="six" unicode="6" horiz-adv-x="1145" 
d="M565 -26q-134 0 -249 66t-182 175t-67 239q0 53 11 98.5t23 71.5t44 85l415 691h95l-312 -520q179 89 375 29q101 -32 177 -96q80 -66 125.5 -158.5t45.5 -200.5q0 -131 -66.5 -241.5t-182 -174.5t-252.5 -64zM149 456q0 -113 58 -204q59 -93 153.5 -146t204.5 -53
q123 0 217 57q95 57 148.5 148t53.5 198t-56 199q-57 92 -151.5 144.5t-208.5 52.5q-120 0 -214 -55q-96 -56 -150.5 -146t-54.5 -195z" />
    <glyph glyph-name="seven" unicode="7" horiz-adv-x="1002" 
d="M225 0l623 1321h-791v79h888v-71l-628 -1329h-92z" />
    <glyph glyph-name="eight" unicode="8" horiz-adv-x="1108" 
d="M554 -26q-126 0 -228 55q-105 54 -166 145.5t-61 200.5q0 118 72.5 215.5t189.5 147.5q-100 47 -161.5 134t-61.5 189q0 100 57 184q57 83 152.5 132t206.5 49q113 0 207 -50q96 -50 152.5 -133t56.5 -182q0 -103 -61.5 -189.5t-162.5 -133.5q118 -50 190 -147t72 -216
q0 -111 -62 -202q-62 -92 -165.5 -145.5t-226.5 -53.5zM187 375q0 -88 49 -161q52 -75 135 -118t183 -43q104 0 186 44q85 45 133 117.5t48 160.5q0 89 -49 162q-50 74 -133.5 116.5t-184.5 42.5t-184 -43q-86 -44 -134.5 -117t-48.5 -161zM225 1061q0 -78 44 -143
q45 -67 120 -105t165 -38q89 0 166 39q76 40 119 104t43 143q0 80 -44 143q-46 67 -120 105t-164 38q-92 0 -167 -38q-76 -40 -119 -105t-43 -143z" />
    <glyph glyph-name="nine" unicode="9" horiz-adv-x="1104" 
d="M421 0l341 565q-90 -43 -188.5 -48t-185.5 28t-157.5 91.5t-111.5 146t-41 187.5q0 188 138.5 322t335.5 134q128 0 237 -62t172.5 -166.5t63.5 -227.5q0 -50 -10.5 -92.5t-22 -66t-42.5 -82.5l-436 -729h-93zM156 968q0 -104 53 -188q55 -87 144 -136.5t197 -49.5
q112 0 202 51q91 53 142 138t51 185q0 108 -55 194q-55 87 -144 137t-194 50q-118 0 -205 -53q-91 -53 -141 -139.5t-50 -188.5z" />
    <glyph glyph-name="colon" unicode=":" horiz-adv-x="352" 
d="M153 897q-22 0 -38 16.5t-16 38.5t16 38t38 16q25 0 41.5 -16t16.5 -38t-16.5 -38.5t-41.5 -16.5zM99 30q0 22 16 37.5t38 15.5q25 0 41.5 -15.5t16.5 -37.5q0 -23 -16.5 -39.5t-41.5 -16.5q-22 0 -38 16.5t-16 39.5z" />
    <glyph glyph-name="semicolon" unicode=";" horiz-adv-x="400" 
d="M99 -110l67 353h83l-90 -353h-60zM145 951q0 24 17.5 39.5t41.5 15.5q22 0 38 -16t16 -39q0 -22 -16.5 -38t-37.5 -16q-24 0 -41.5 16t-17.5 38z" />
    <glyph glyph-name="less" unicode="&#x3c;" horiz-adv-x="1248" 
d="M1149 261l-1050 286v107l1050 288v-84l-947 -257l947 -258v-82z" />
    <glyph glyph-name="equal" unicode="=" horiz-adv-x="1248" 
d="M99 751v79h1050v-79h-1050zM99 373v79h1050v-79h-1050z" />
    <glyph glyph-name="greater" unicode="&#x3e;" horiz-adv-x="1248" 
d="M99 261v82l947 258l-947 257v84l1050 -288v-107z" />
    <glyph glyph-name="question" unicode="?" horiz-adv-x="1003" 
d="M480 -26q-22 0 -39 17t-17 39t16.5 37.5t39.5 15.5t40 -15.5t17 -37.5t-16.5 -39t-40.5 -17zM99 1051q-3 105 52 195q52 84 139 133t190 49q104 0 192 -50t139 -133.5t51 -183.5q0 -104 -52 -190.5t-143 -133.5q-63 -33 -98 -89t-35 -123v-233h-81v233q0 89 47 164
t130 118q70 37 110 104.5t40 149.5q0 80 -41 146q-42 66 -109.5 104t-149.5 38q-131 0 -217.5 -85.5t-82.5 -212.5h-81z" />
    <glyph glyph-name="at" unicode="@" horiz-adv-x="1754" 
d="M888 -134q-163 -1 -308 48.5t-251 138.5t-168 219t-62 281q0 153 61.5 291t165.5 237.5t248 158t304 58.5q213 0 391.5 -99t282 -270.5t103.5 -375.5q0 -99 -32 -195t-99 -163.5t-152 -67.5q-59 0 -112 28q-101 51 -118 152q-105 -156 -303 -156q-115 0 -210 54
q-97 55 -153.5 147t-56.5 201q0 110 58 203q58 91 153.5 144.5t208.5 53.5q194 0 300 -152v133h82v-605q0 -51 46.5 -87.5t104.5 -36.5q63 0 109.5 48t69 125.5t22.5 173.5q0 183 -92.5 336t-252.5 241.5t-350 88.5q-143 0 -272.5 -52t-222.5 -140.5t-148 -212.5t-55 -261
q0 -181 94.5 -321.5t255 -214.5t358.5 -72v-79zM501 553q0 -92 47 -164q48 -75 123.5 -117t167.5 -42q131 0 211.5 98t80.5 243q0 135 -75.5 220t-216.5 85q-94 0 -171 -44q-78 -44 -122.5 -117t-44.5 -162z" />
    <glyph glyph-name="A" unicode="A" horiz-adv-x="1372" 
d="M99 0l533 1400h108l532 -1400h-86l-155 406h-691l-155 -406h-86zM370 485h631l-315 828z" />
    <glyph glyph-name="B" unicode="B" horiz-adv-x="1191" 
d="M107 0v1400h535q166 0 267.5 -94.5t101.5 -266.5q0 -93 -31 -155q-44 -92 -111 -132q100 -39 155 -129.5t55 -232.5v-2q0 -190 -100.5 -289t-268.5 -99h-603zM189 79h513q131 0 209 74t78 234q0 161 -78 235t-209 74h-513v-617zM189 775h453q127 0 207 68t80 196
q0 143 -79 212.5t-208 69.5h-453v-546z" />
    <glyph glyph-name="C" unicode="C" horiz-adv-x="1516" 
d="M811 -29q-215 0 -378 92t-249.5 257t-86.5 380t86.5 380t249.5 257t378 92q198 0 351.5 -77.5t244.5 -219.5l-79 -40q-83 121 -216 188t-303 67q-284 0 -458 -180.5t-174 -467.5t174 -467.5t458 -180.5q170 0 303 67.5t216 189.5l79 -41q-92 -141 -245 -218.5t-351 -77.5
z" />
    <glyph glyph-name="D" unicode="D" horiz-adv-x="1405" 
d="M140 0v1400h467l-2 -2l7 3q216 0 378.5 -88.5t249 -246.5t86.5 -365q0 -155 -50.5 -284.5t-142 -221.5t-225.5 -143.5t-296 -51.5h-472zM222 79l388 -1q141 0 260 46t200.5 128t127 197.5t45.5 250.5t-45.5 250.5t-127 197.5t-200.5 128t-260 46l-388 -1v-1242z" />
    <glyph glyph-name="E" unicode="E" horiz-adv-x="1171" 
d="M140 0v1400h911v-79h-829v-549h710v-79h-710v-614h829v-79h-911z" />
    <glyph glyph-name="F" unicode="F" horiz-adv-x="1088" 
d="M140 0v1400h911v-79h-829v-549h710v-79h-710v-693h-82z" />
    <glyph glyph-name="G" unicode="G" horiz-adv-x="1509" 
d="M813 -29q-216 0 -378.5 92t-249 257t-86.5 380t86.5 380t249 257t378.5 92q198 0 351.5 -77.5t244.5 -219.5l-79 -40q-83 121 -216 188t-303 67q-284 0 -458.5 -181t-174.5 -467t174.5 -467t458.5 -181q165 0 295.5 64t215.5 180v399h-635v79h716v-500h-8l8 -15
q-93 -137 -244.5 -212t-345.5 -75z" />
    <glyph glyph-name="H" unicode="H" horiz-adv-x="1384" 
d="M140 0v1400h82v-611h939v611h82v-1400h-82v710h-939v-710h-82z" />
    <glyph glyph-name="I" unicode="I" horiz-adv-x="426" 
d="M172 0v1400h81v-1400h-81z" />
    <glyph glyph-name="J" unicode="J" horiz-adv-x="1308" 
d="M613 -26q-175 0 -302 83q-125 82 -190.5 223.5t-63.5 315.5h81q-2 -243 125.5 -393t349.5 -150q220 0 347 142.5t127 390.5v814h82v-814q0 -271 -150.5 -441.5t-405.5 -170.5z" />
    <glyph glyph-name="K" unicode="K" horiz-adv-x="1068" 
d="M140 0v1400h82v-778l683 778h106l-582 -663l570 -737h-103l-521 675l-153 -176v-499h-82z" />
    <glyph glyph-name="L" unicode="L" horiz-adv-x="1171" 
d="M140 0v1400h82v-1321h829v-79h-911z" />
    <glyph glyph-name="M" unicode="M" horiz-adv-x="1502" 
d="M140 0v1400h79l533 -1099l532 1099h76v-1400h-81l-2 1177l-502 -1041h-49l-502 1041l-2 -1177h-82z" />
    <glyph glyph-name="N" unicode="N" horiz-adv-x="1310" 
d="M140 0v1400h84l863 -1252v1252h82v-1400h-82l-865 1252v-1252h-82z" />
    <glyph glyph-name="O" unicode="O" horiz-adv-x="1627" 
d="M813 -29q-216 0 -378.5 92t-249 257t-86.5 380t86.5 380t249 257t378.5 92t378.5 -92t249 -257t86.5 -380t-86.5 -380t-249 -257t-378.5 -92zM178 699q0 -286 174.5 -467t458.5 -181q189 0 333.5 83t222 230t77.5 335t-77.5 335t-222 230t-333.5 83q-284 0 -458.5 -181
t-174.5 -467z" />
    <glyph glyph-name="P" unicode="P" horiz-adv-x="1145" 
d="M140 0v1400h483q65 0 124.5 -15t114 -48.5t94.5 -83t64 -123t25 -164.5q0 -112 -35.5 -198t-96.5 -136t-134.5 -75t-155.5 -25h-401v-532h-82zM222 611h401q64 0 122 18.5t108.5 57t80.5 108t30 162.5v1q0 100 -30 174t-81 113.5t-108 57.5t-122 18h-401v-710z" />
    <glyph glyph-name="Q" unicode="Q" horiz-adv-x="1638" 
d="M813 -29q-216 0 -378.5 92t-249 257t-86.5 380t86.5 380t249 257t378.5 92t378.5 -92t249 -257t86.5 -380q0 -299 -162 -492l173 -167l-58 -55l-170 163q-194 -178 -497 -178zM178 699q0 -286 174.5 -467t458.5 -181q263 0 435 159l-283 269l59 57l279 -268
q143 174 143 431q0 188 -77.5 335t-222 230t-333.5 83q-284 0 -458.5 -181t-174.5 -467z" />
    <glyph glyph-name="R" unicode="R" horiz-adv-x="1173" 
d="M140 0v1400h483q65 0 124.5 -15t114 -48.5t94.5 -83t64 -123t25 -164.5q0 -183 -89.5 -288.5t-229.5 -135.5l326 -542h-95l-322 532h-413v-532h-82zM222 611h401q64 0 122 18.5t108.5 57t80.5 108t30 162.5v1q0 100 -30 174t-81 113.5t-108 57.5t-122 18h-401v-710z" />
    <glyph glyph-name="S" unicode="S" horiz-adv-x="1294" 
d="M645 -26q-116 0 -221 34q-114 35 -195 101t-109 155l76 29q36 -110 157 -175t292 -65q112 0 215 38q102 39 160 107t58 157q0 94 -61 152q-106 101 -373 150q-143 25 -259 65q-122 41 -187 117t-65 198q0 117 72 204q71 83 188.5 130t251.5 47q185 0 332 -79t197 -213
l-79 -26q-36 110 -157 174.5t-293 64.5q-114 0 -214 -38q-102 -39 -159.5 -107t-57.5 -157q0 -103 56 -157q51 -53 140.5 -83.5t236.5 -57.5q144 -26 249 -69q264 -103 264 -315q0 -116 -73 -203q-72 -84 -189 -131t-253 -47z" />
    <glyph glyph-name="T" unicode="T" horiz-adv-x="1350" 
d="M632 0v1321h-533v79h1151v-79h-536v-1321h-82z" />
    <glyph glyph-name="U" unicode="U" horiz-adv-x="1395" 
d="M696 -26q-175 0 -300 83q-123 81 -189.5 220t-66.5 309v814h82v-814q0 -238 127.5 -385.5t346.5 -147.5q221 0 348 142.5t127 390.5v814h82v-814q0 -178 -66.5 -316t-193.5 -217t-297 -79z" />
    <glyph glyph-name="V" unicode="V" horiz-adv-x="1213" 
d="M567 0l-531 1400h87l482 -1272l483 1272h88l-533 -1400h-76z" />
    <glyph glyph-name="W" unicode="W" horiz-adv-x="1656" 
d="M410 0l-374 1400h84l338 -1267l337 1267h65l339 -1267l336 1267h84l-372 -1400h-97l-322 1204l-322 -1204h-96z" />
    <glyph glyph-name="X" unicode="X" horiz-adv-x="1330" 
d="M78 0l536 704l-530 696h101l479 -630l480 630h101l-529 -696l535 -704h-101l-486 636l-482 -636h-104z" />
    <glyph glyph-name="Y" unicode="Y" horiz-adv-x="1211" 
d="M563 0v634l-485 766h96l431 -680l431 680h96l-487 -766v-634h-82z" />
    <glyph glyph-name="Z" unicode="Z" horiz-adv-x="1384" 
d="M99 0v73l1074 1248h-1074v79h1185v-73l-1074 -1248h1074v-79h-1185z" />
    <glyph glyph-name="bracketleft" unicode="[" horiz-adv-x="529" 
d="M140 -110v1510h268v-79h-186v-1353h186v-78h-268z" />
    <glyph glyph-name="backslash" unicode="\" horiz-adv-x="705" 
d="M522 -110l-423 1510h81l425 -1510h-83z" />
    <glyph glyph-name="bracketright" unicode="]" horiz-adv-x="528" 
d="M120 -110v78h185v1353h-185v79h266v-1510h-266z" />
    <glyph glyph-name="asciicircum" unicode="^" horiz-adv-x="733" 
d="M99 986l251 661h34l250 -661h-87l-181 477l-183 -477h-84z" />
    <glyph glyph-name="underscore" unicode="_" horiz-adv-x="1332" 
d="M140 -110v78h1050v-78h-1050z" />
    <glyph glyph-name="grave" unicode="`" horiz-adv-x="637" 
d="M352 2286l-111 304h84l87 -304h-60z" />
    <glyph glyph-name="a" unicode="a" horiz-adv-x="1214" 
d="M596 -26q-232 0 -375 148t-143 381t143 380.5t375 147.5q145 0 258 -60t179 -167v202h81v-1006h-81v202q-66 -108 -179 -168t-258 -60zM160 503q0 -197 119.5 -321t316.5 -124q196 0 315.5 124t119.5 321t-119.5 321t-315.5 124t-316 -124t-120 -321z" />
    <glyph glyph-name="b" unicode="b" horiz-adv-x="1256" 
d="M659 -26q-145 0 -258 60t-179 168v-202h-82v1499h82v-695q66 107 179 167t258 60q232 0 375 -147.5t143 -380.5t-143 -381t-375 -148zM224 503q0 -197 119.5 -321t315.5 -124q197 0 316.5 124t119.5 321t-120 321t-316 124t-315.5 -124t-119.5 -321z" />
    <glyph glyph-name="c" unicode="c" horiz-adv-x="1155" 
d="M596 -26q-232 0 -375 148t-143 381t143 380.5t375 147.5q172 0 298.5 -85t181.5 -230l-84 -19q-48 116 -151.5 183t-244.5 67v1q-196 0 -316 -124t-120 -321t119.5 -321t316.5 -124q141 0 244.5 67t151.5 183l84 -19q-55 -145 -181.5 -230t-298.5 -85z" />
    <glyph glyph-name="d" unicode="d" horiz-adv-x="1256" 
d="M596 -26q-232 0 -375 148t-143 381t143 380.5t375 147.5q145 0 258 -60t179 -167v695h81v-1499h-81v202q-66 -108 -179 -168t-258 -60zM160 503q0 -197 119.5 -321t316.5 -124q196 0 315.5 124t119.5 321t-119.5 321t-315.5 124t-316 -124t-120 -321z" />
    <glyph glyph-name="e" unicode="e" horiz-adv-x="1192" 
d="M596 -26q-232 0 -375 148t-143 381t143 380.5t375 147.5t375 -147.5t143 -380.5v-40h-952q12 -181 130 -293t304 -112q141 0 244.5 67t151.5 183l84 -19q-55 -145 -181.5 -230t-298.5 -85zM162 542h867q-12 181 -129.5 293.5t-303.5 112.5t-304 -112.5t-130 -293.5z" />
    <glyph glyph-name="f" unicode="f" horiz-adv-x="695" 
d="M231 0v927h-164v79h164v286q0 97 69 163.5t171 66.5q110 0 177 -75l-57 -55q-46 52 -120 52q-66 0 -112.5 -44t-46.5 -108v-286h332v-79h-332v-927h-81z" />
    <glyph glyph-name="g" unicode="g" horiz-adv-x="1256" 
d="M616 -508q-169 0 -311.5 108t-177.5 261h1l74 32q25 -131 146 -226.5t268 -95.5q106 0 203 52.5t155.5 140t58.5 182.5v256q-66 -108 -179 -168t-258 -60q-232 0 -375 148t-143 381t143 380.5t375 147.5q145 0 258 -60t179 -167v202h81v-1060q0 -117 -70.5 -222.5
t-186 -168.5t-241.5 -63zM160 503q0 -197 119.5 -321t316.5 -124q196 0 315.5 124t119.5 321t-119.5 321t-315.5 124t-316 -124t-120 -321z" />
    <glyph glyph-name="h" unicode="h" horiz-adv-x="1124" 
d="M140 0v1499h82v-644q62 82 156.5 130t203.5 48q122 0 223 -56q102 -59 160.5 -155t58.5 -212v-610h-81v610q0 96 -50 174q-50 79 -131 124.5t-180 45.5t-181 -46q-84 -47 -131.5 -125t-47.5 -173v-610h-82z" />
    <glyph glyph-name="i" unicode="i" horiz-adv-x="393" 
d="M158 0v1006h82v-1006h-82zM151 1299q0 22 16 37.5t38 15.5q25 0 41.5 -15.5t16.5 -37.5q0 -23 -16.5 -39.5t-41.5 -16.5q-22 0 -38 16.5t-16 39.5z" />
    <glyph glyph-name="j" unicode="j" horiz-adv-x="487" 
d="M-60 -414q138 -3 227.5 76t89.5 202v1142h81v-1142q0 -98 -51 -181q-52 -84 -142.5 -131t-204.5 -45v79zM246 1299q0 22 16 37.5t38 15.5q25 0 41.5 -15.5t16.5 -37.5q0 -23 -16.5 -39.5t-41.5 -16.5q-22 0 -38 16.5t-16 39.5z" />
    <glyph glyph-name="k" unicode="k" horiz-adv-x="1004" 
d="M140 0v1499h82v-1116l546 623h107l-356 -404l364 -602h-92l-326 538l-243 -277v-261h-82z" />
    <glyph glyph-name="l" unicode="l" horiz-adv-x="364" 
d="M140 0v1499h82v-1499h-82z" />
    <glyph glyph-name="m" unicode="m" horiz-adv-x="1885" 
d="M140 0v1006h82v-151q62 83 156.5 130.5t203.5 47.5q120 0 221.5 -56.5t160.5 -151.5q59 95 160 151.5t220 56.5q122 0 222 -56q102 -59 161 -155t59 -212v-610h-82v606q0 93 -47 173q-49 81 -128 128t-175 47q-97 0 -175 -44q-83 -46 -129 -124t-46 -180v-606h-81v606
q0 102 -48 182q-48 79 -127 122.5t-176 43.5q-95 0 -175 -47q-81 -50 -128 -129.5t-47 -171.5v-606h-82z" />
    <glyph glyph-name="n" unicode="n" horiz-adv-x="1124" 
d="M140 0v1006h82v-151q61 83 156 130.5t204 47.5q122 0 223 -56q103 -60 161 -156t58 -211v-610h-81v610q0 95 -50 174q-51 80 -132 125t-179 45q-99 0 -181 -46q-85 -48 -132 -125.5t-47 -172.5v-610h-82z" />
    <glyph glyph-name="o" unicode="o" horiz-adv-x="1192" 
d="M596 -26q-232 0 -375 148t-143 381t143 380.5t375 147.5t375 -147.5t143 -380.5t-143 -381t-375 -148zM160 503q0 -197 119.5 -321t316.5 -124q196 0 315.5 124t119.5 321t-119.5 321t-315.5 124t-316 -124t-120 -321z" />
    <glyph glyph-name="p" unicode="p" horiz-adv-x="1256" 
d="M140 -496v1499h82v-202q66 107 179 167t258 60q232 0 375 -147.5t143 -380.5t-143 -381t-375 -148q-145 0 -258 60t-179 168v-695h-82zM224 500q0 -197 119.5 -321t315.5 -124t316 124t120 321t-120 321t-316 124t-315.5 -124t-119.5 -321z" />
    <glyph glyph-name="q" unicode="q" horiz-adv-x="1256" 
d="M1033 -493v695q-66 -108 -179 -168t-258 -60q-232 0 -375 148t-143 381t143 380.5t375 147.5q145 0 258 -60t179 -167v202h81v-1499h-81zM160 503q0 -197 119.5 -321t316.5 -124q196 0 315.5 124t119.5 321t-119.5 321t-315.5 124t-316 -124t-120 -321z" />
    <glyph glyph-name="r" unicode="r" horiz-adv-x="749" 
d="M140 0v1006h82v-151q62 82 156.5 130t203.5 48q70 0 130 -18l-34 -73q-51 12 -96 12q-99 0 -181 -46q-84 -47 -131.5 -125t-47.5 -173v-610h-82z" />
    <glyph glyph-name="s" unicode="s" horiz-adv-x="926" 
d="M461 -27q-82 0 -163 26q-88 27 -149.5 79.5t-81.5 124.5l78 30q21 -81 106 -129t210 -48q72 0 138 21t114 69.5t48 115.5q0 61 -39 99q-76 71 -265 105q-91 16 -189 48q-189 65 -189 238q0 89 56 156q54 63 140.5 98t185.5 35q142 0 253.5 -63t143.5 -168l-81 -28
q-22 82 -105.5 129t-210.5 47q-71 0 -137 -21t-114 -69.5t-48 -115.5t38 -103q36 -37 98.5 -58t166.5 -40q110 -21 183 -51q197 -79 197 -238q0 -90 -56 -155q-53 -63 -140 -98.5t-188 -35.5z" />
    <glyph glyph-name="t" unicode="t" horiz-adv-x="743" 
d="M541 0q-102 0 -171.5 66.5t-69.5 164.5v696h-211v79h211v310h82v-11l1 -299h282v-79h-283v-696q0 -64 46 -108t113 -44q77 0 125 50v-95q-55 -34 -125 -34z" />
    <glyph glyph-name="u" unicode="u" horiz-adv-x="1081" 
d="M541 -26q-122 0 -223 58q-102 57 -160.5 153t-58.5 212v609h81v-609q0 -95 49 -172q49 -80 131 -126t181 -46q101 0 180 47q84 47 132 125t48 172v609h81v-1006h-81v153q-62 -83 -157 -131t-203 -48z" />
    <glyph glyph-name="v" unicode="v" horiz-adv-x="1013" 
d="M463 0l-385 1010h86l342 -899l341 899h88l-384 -1010h-88z" />
    <glyph glyph-name="w" unicode="w" horiz-adv-x="1672" 
d="M431 0l-353 1006h81l316 -895l314 895h93l314 -895l315 895h82l-352 -1006h-86l-321 907l-319 -907h-84z" />
    <glyph glyph-name="x" unicode="x" horiz-adv-x="1069" 
d="M99 0l384 505l-384 505h101l334 -438l333 438h102l-385 -505l385 -505h-102l-333 439l-334 -439h-101z" />
    <glyph glyph-name="y" unicode="y" horiz-adv-x="1037" 
d="M280 -493l191 503l-372 996h89l324 -885l339 885h86l-571 -1499h-86z" />
    <glyph glyph-name="z" unicode="z" horiz-adv-x="1097" 
d="M99 0v73l784 854h-784v79h899v-73l-785 -854h785v-79h-899z" />
    <glyph glyph-name="braceleft" unicode="{" horiz-adv-x="869" 
d="M689 -112q-103 0 -188 48q-85 49 -134 130t-49 177v242q-1 21 -15.5 37t-30 23t-44.5 18q-20 7 -32 12.5t-27 15t-22 22.5t-7 30q0 19 7.5 33.5t23 24.5t28 15t33.5 12q30 11 43 17t27.5 21t15.5 37v242q0 100 50 179q50 81 135 128.5t186 47.5h59v-79h-59
q-80 0 -144 -37q-68 -38 -106.5 -100.5t-38.5 -138.5v-245q-1 -42 -16 -68q-11 -21 -36 -38.5t-83 -50.5l3 -2q45 -24 73 -42q32 -19 44.5 -43t14.5 -69v-244q0 -118 83 -197.5t206 -79.5h59v-78h-59z" />
    <glyph glyph-name="bar" unicode="|" horiz-adv-x="405" 
d="M161 -298v1698h82v-1698h-82z" />
    <glyph glyph-name="braceright" unicode="}" horiz-adv-x="868" 
d="M120 -112v78h59q122 0 205.5 79.5t83.5 197.5v244q1 45 14 68q14 29 108 81q8 5 12 7q-38 22 -73 44q-33 20 -46 44t-15 69v245q0 77 -40 139q-40 64 -105 100.5t-144 36.5h-59v79h59q103 0 186 -48q85 -49 135 -130t50 -177v-242q1 -22 15 -37t27 -21t43 -17
q21 -7 33 -12t27.5 -15t23 -24.5t7.5 -33.5q0 -17 -7 -30t-22 -22.5t-27 -15t-32 -12.5q-29 -11 -44 -18t-29 -23t-15 -37v-242q0 -96 -51 -178q-50 -82 -135 -129.5t-185 -47.5h-59z" />
    <glyph glyph-name="asciitilde" unicode="~" horiz-adv-x="1249" 
d="M899 437q-34 0 -71 10.5t-82.5 34t-73 39.5t-80.5 50q-63 40 -94.5 59t-77 37.5t-76.5 17.5q-85 2 -133 -62t-21 -146l-79 -18q-26 76 1 149q28 69 91 113.5t143 44.5q41 0 90 -18.5t86.5 -40.5t107.5 -67q124 -78 177 -100q54 -22 94 -22q86 0 135.5 62t20.5 139l79 24
q29 -83 -3 -154q-29 -68 -93 -110t-141 -42z" />
    <glyph glyph-name="exclamdown" unicode="&#xa1;" horiz-adv-x="310" 
d="M113 -394v986h82v-986h-82zM99 976q0 23 16 39t38 16q25 0 41.5 -15.5t16.5 -39.5q0 -22 -16.5 -37.5t-41.5 -15.5q-22 0 -38 15.5t-16 37.5z" />
    <glyph glyph-name="cent" unicode="&#xa2;" horiz-adv-x="1182" 
d="M581 198q-133 11 -240 79q-112 70 -177 182t-65 243q0 137 65 245q65 110 174.5 178.5t242.5 78.5v196h82v-196q132 -8 243.5 -75t175.5 -174l-70 -39q-59 96 -164 154t-223 58q-121 0 -222 -57q-104 -60 -163.5 -156t-59.5 -213q0 -120 61 -217q63 -98 164 -154.5
t220 -56.5q118 0 223 58t164 154l70 -39q-65 -107 -176 -174t-243 -75v-198h-82v198z" />
    <glyph glyph-name="sterling" unicode="&#xa3;" horiz-adv-x="1221" 
d="M123 79q135 -3 227 60.5t92 166.5q0 85 -23 130q-1 1 -2.5 4.5t-2.5 5.5h-291v79h232q-19 19 -80 67q-48 35 -85 75q-91 96 -91 270q0 133 68.5 246t186 178t256.5 65q142 0 260.5 -67t186 -182t64.5 -250h-81q1 117 -57 216q-60 95 -158 149.5t-215 54.5
q-119 0 -215 -56q-100 -57 -157.5 -150t-57.5 -204q0 -95 24 -150q22 -53 56.5 -88.5t87.5 -72.5q47 -33 85 -68q17 -15 30 -33h439v-79h-398q20 -58 20 -140q0 -68 -40 -128.5t-111 -98.5h748v-79h-998v79z" />
    <glyph glyph-name="currency" unicode="&#xa4;" horiz-adv-x="1040" 
d="M155 296l-56 55l124 121q-83 102 -83 228t85 226l-126 123l56 55l129 -123q104 80 236.5 80.5t236.5 -78.5l126 121l57 -55l-123 -121q85 -101 85.5 -228.5t-84.5 -229.5l122 -119l-57 -55l-124 119q-108 -84 -239.5 -83t-239.5 85zM223 698q0 -82 41 -145
q42 -66 110 -103.5t147 -37.5q126 0 212.5 82.5t86.5 203.5q0 122 -85.5 203t-213.5 81t-213 -81t-85 -203z" />
    <glyph glyph-name="yen" unicode="&#xa5;" horiz-adv-x="1252" 
d="M584 0v224h-344v79h344v183h-344v79h344v69l-485 766h95l431 -680l432 680h95l-486 -766v-69h344v-79h-344v-183h344v-79h-344v-224h-82z" />
    <glyph glyph-name="brokenbar" unicode="&#xa6;" horiz-adv-x="364" 
d="M140 641v759h82v-759h-82zM140 -298v759h82v-759h-82z" />
    <glyph glyph-name="section" unicode="&#xa7;" horiz-adv-x="1143" 
d="M590 -418q-134 0 -242.5 59t-143.5 150l72 40q25 -76 114 -123t200 -47q130 0 214.5 57.5t84.5 147.5q0 64 -34 101q-32 35 -95.5 58.5t-171.5 45.5q-133 28 -234 82q-214 113 -214 348q0 131 81.5 236t215.5 146q-135 25 -200 88t-65 169q0 86 55 152q53 63 139.5 97.5
t186.5 34.5q134 0 242 -59t143 -151l-71 -39q-26 76 -115 123t-199 47q-130 0 -215 -57.5t-85 -147.5q0 -65 34 -100q32 -35 95 -58.5t173 -46.5q138 -31 236 -82q211 -110 211 -352q0 -130 -82 -234.5t-214 -145.5q265 -48 265 -255q0 -88 -55 -151q-53 -63 -140 -98
t-186 -35zM222 501q0 -93 51 -166q52 -76 131 -118.5t167 -42.5q97 0 175 44q81 44 127.5 117t46.5 160q0 105 -51 182q-52 74 -131.5 114.5t-166.5 40.5q-96 0 -175 -43q-82 -44 -128 -119t-46 -169z" />
    <glyph glyph-name="dieresis" unicode="&#xa8;" horiz-adv-x="1260" 
d="M769 2265q-24 0 -42 15.5t-18 38.5q0 22 18 38.5t42 16.5q21 0 39 -17t18 -38q0 -23 -17.5 -38.5t-39.5 -15.5zM449 2319q0 22 18.5 38.5t40.5 16.5q23 0 40.5 -16.5t17.5 -38.5q0 -23 -17.5 -38.5t-40.5 -15.5t-41 15.5t-18 38.5z" />
    <glyph glyph-name="copyright" unicode="&#xa9;" horiz-adv-x="1829" 
d="M914 -136q-223 0 -410.5 104t-296 283.5t-108.5 393.5t108.5 393.5t296 283.5t410.5 104q224 0 411.5 -104t296 -283.5t108.5 -393.5t-108.5 -393.5t-296 -283.5t-411.5 -104zM180 645q0 -146 58 -277t157 -224t234.5 -147t284.5 -54q203 0 372 94.5t265.5 255.5
t96.5 352q0 145 -58.5 276t-157 225t-234 148.5t-284.5 52.5q-151 -1 -287.5 -57t-234 -150t-155 -223.5t-57.5 -271.5zM401 645q0 145 70.5 267t191.5 192.5t263 70.5q130 0 242 -59t183 -161l-71 -37q-63 85 -157.5 131.5t-196.5 46.5q-124 0 -224 -61
q-102 -63 -160.5 -166t-58.5 -224q0 -124 60 -226q62 -104 162.5 -164t220.5 -60q106 0 200 49t154 129l71 -36q-71 -102 -183.5 -161.5t-241.5 -59.5q-142 0 -263 72q-122 72 -192 192.5t-70 264.5z" />
    <glyph glyph-name="ordfeminine" unicode="&#xaa;" horiz-adv-x="828" 
d="M411 732q-147 0 -237.5 94t-90.5 242t90.5 242t237.5 94q92 0 164 -38t114 -107v129h51v-639h-51v129q-42 -69 -114 -107.5t-164 -38.5zM135 1068q0 -125 76 -203.5t200 -78.5t200.5 78.5t76.5 203.5t-76.5 204t-200.5 79t-200 -79t-76 -204z" />
    <glyph glyph-name="guillemotleft" unicode="&#xab;" horiz-adv-x="1386" 
d="M474 257l-319 345l319 344h109l-318 -344l318 -345h-109zM802 602l319 344h109l-318 -344l318 -345h-109z" />
    <glyph glyph-name="logicalnot" unicode="&#xac;" horiz-adv-x="1015" 
d="M834 330v464h-735v79h816v-543h-81z" />
    <glyph glyph-name="uni00AD" unicode="&#xad;" horiz-adv-x="1015" 
d="M219 562v79h680v-79h-680z" />
    <glyph glyph-name="registered" unicode="&#xae;" horiz-adv-x="977" 
d="M487 505q-173 2 -291 116.5t-118 275.5q0 163 119 278t290 115q173 0 292 -116.5t119 -276.5q0 -161 -120 -275.5t-291 -116.5zM159 897q0 -85 45 -156q45 -74 119.5 -115.5t163.5 -41.5q91 0 165 43q77 43 120.5 114t43.5 156t-44 158q-47 73 -121 114.5t-164 41.5
q-89 0 -164 -42q-76 -44 -120 -115t-44 -157zM364 704v394h153q49 0 82.5 -34t33.5 -84q0 -38 -21.5 -68t-56.5 -42l100 -166h-95l-97 160h-17v-160h-82zM446 943h71q15 0 25 10.5t10 26.5q0 18 -10 29t-25 11h-71v-77z" />
    <glyph glyph-name="macron" unicode="&#xaf;" horiz-adv-x="1295" 
d="M289 1765v79h716v-79h-716z" />
    <glyph glyph-name="degree" unicode="&#xb0;" horiz-adv-x="613" 
d="M306 876q-87 0 -147 57.5t-60 141.5t60 141.5t147 57.5q88 0 148 -57.5t60 -141.5t-60 -141.5t-148 -57.5zM180 1075q0 -51 36.5 -86t89.5 -35q54 0 90 35t36 86q0 52 -35.5 86t-90.5 34q-54 0 -90 -34t-36 -86z" />
    <glyph glyph-name="plusminus" unicode="&#xb1;" horiz-adv-x="1248" 
d="M583 276v483h-484v79h484v464h81v-464h485v-79h-485v-483h-81zM99 0v79h1050v-79h-1050z" />
    <glyph glyph-name="acute" unicode="&#xb4;" horiz-adv-x="636" 
d="M240 2286l89 304h82l-110 -304h-61z" />
    <glyph glyph-name="uni00B5" unicode="&#xb5;" horiz-adv-x="1092" 
d="M110 -426v1432h81v-550q0 -113 50 -203q50 -94 132 -147t180 -53q99 0 179 55q84 55 132 146.5t48 201.5v550h81v-1006h-81v179q-65 -97 -158 -151t-201 -54q-112 0 -206.5 55.5t-155.5 149.5v-605h-81z" />
    <glyph glyph-name="paragraph" unicode="&#xb6;" horiz-adv-x="776" 
d="M449 708q-96 3 -172 47q-82 46 -130 125t-48 173q0 96 49 175t131 125.5t180 46.5h72v-1698h-82v1006zM595 -298v1698h82v-1698h-82z" />
    <glyph glyph-name="periodcentered" unicode="&#xb7;" horiz-adv-x="310" 
d="M153 547q-22 0 -38 16.5t-16 38.5t16 38t38 16q25 0 41.5 -16t16.5 -38t-16.5 -38.5t-41.5 -16.5z" />
    <glyph glyph-name="cedilla" unicode="&#xb8;" horiz-adv-x="1294" 
d="M647 -355q-65 -17 -124 18t-72 100l80 19q4 -34 32.5 -51.5t62.5 -8.5q33 8 48.5 33.5t5.5 55.5q-8 30 -35 45t-58 7l-97 -24l130 214l72 -39l-45 -74q41 -11 71.5 -39.5t41.5 -68.5q17 -61 -16 -116t-97 -71z" />
    <glyph glyph-name="ordmasculine" unicode="&#xba;" horiz-adv-x="826" 
d="M410 735q-147 0 -237.5 93.5t-90.5 240.5t90.5 241t237.5 94t237.5 -94t90.5 -241t-90.5 -240.5t-237.5 -93.5zM134 1069q0 -125 76 -203t200 -78t200 78t76 203t-76 203.5t-200 78.5t-200 -78.5t-76 -203.5z" />
    <glyph glyph-name="guillemotright" unicode="&#xbb;" horiz-adv-x="1363" 
d="M791 257l318 345l-318 344h109l318 -344l-318 -345h-109zM144 257l318 345l-318 344h109l318 -344l-318 -345h-109z" />
    <glyph glyph-name="questiondown" unicode="&#xbf;" horiz-adv-x="963" 
d="M482 1031q22 0 38.5 -16.5t16.5 -38.5t-16.5 -37.5t-38.5 -15.5q-24 0 -41 15.5t-17 37.5t17 38.5t41 16.5zM99 -55q0 103 52 189.5t143 134.5q63 32 98 88t35 124v233h81v-233q0 -89 -47 -164.5t-130 -118.5q-70 -37 -110 -104t-40 -149t41 -146q42 -67 109.5 -104.5
t150.5 -37.5q130 0 216.5 85.5t82.5 212.5h81q3 -106 -52 -195q-52 -84 -138.5 -133t-189.5 -49q-108 0 -193 50q-88 50 -139 133.5t-51 183.5z" />
    <glyph glyph-name="Agrave" unicode="&#xc0;" horiz-adv-x="1387" 
d="M114 0l533 1400h108l532 -1400h-86l-155 406h-691l-155 -406h-86zM385 485h631l-315 828zM598 1990h84l87 -304h-60z" />
    <glyph glyph-name="Aacute" unicode="&#xc1;" horiz-adv-x="1387" 
d="M114 0l533 1400h108l532 -1400h-86l-155 406h-691l-155 -406h-86zM385 485h631l-315 828zM658 1686l89 304h82l-110 -304h-61z" />
    <glyph glyph-name="Acircumflex" unicode="&#xc2;" horiz-adv-x="1387" 
d="M114 0l533 1400h108l532 -1400h-86l-155 406h-691l-155 -406h-86zM385 485h631l-315 828zM455 1686l211 304h72l212 -304h-104l-145 200l-142 -200h-104z" />
    <glyph glyph-name="Atilde" unicode="&#xc3;" horiz-adv-x="1387" 
d="M114 0l533 1400h108l532 -1400h-86l-155 406h-691l-155 -406h-86zM385 485h631l-315 828zM404 1718q-31 70 17.5 135.5t130.5 65.5q62 0 187 -78q40 -24 57.5 -34t45.5 -21t48 -11q36 0 55.5 39.5t-0.5 61.5l79 24q29 -73 -19 -138.5t-132 -65.5q-26 0 -60 13.5
t-52.5 24.5t-60.5 37q-105 69 -154 69q-37 0 -58 -30.5t-7 -70.5z" />
    <glyph glyph-name="Adieresis" unicode="&#xc4;" horiz-adv-x="1387" 
d="M114 0l533 1400h108l532 -1400h-86l-155 406h-691l-155 -406h-86zM385 485h631l-315 828zM483 1746q0 22 18.5 38.5t40.5 16.5q23 0 40.5 -16.5t17.5 -38.5q0 -23 -17.5 -38.5t-40.5 -15.5t-41 15.5t-18 38.5zM743 1746q0 22 18 38.5t42 16.5q21 0 39 -17t18 -38
q0 -23 -17.5 -38.5t-39.5 -15.5q-24 0 -42 15.5t-18 38.5z" />
    <glyph glyph-name="Aring" unicode="&#xc5;" horiz-adv-x="1387" 
d="M114 0l533 1400h108l532 -1400h-86l-155 406h-691l-155 -406h-86zM385 485h631l-315 828zM552 1839q0 60 44.5 103t107.5 43q62 0 107.5 -43.5t45.5 -102.5q0 -61 -45.5 -104.5t-107.5 -43.5t-107 44t-45 104zM621 1839q0 -35 24 -58t59 -23q37 0 60 23t23 58
q0 33 -23.5 55t-59.5 22q-35 0 -59 -22.5t-24 -54.5z" />
    <glyph glyph-name="AE" unicode="&#xc6;" horiz-adv-x="1917" 
d="M986 771h686v-72h-686v-627h821v-72h-900v387h-566l-147 -387h-85l533 1400h1165v-72h-821v-557zM368 459h539v869h-207z" />
    <glyph glyph-name="Ccedilla" unicode="&#xc7;" horiz-adv-x="1527" 
d="M822 -392q-65 -17 -124 18t-72 100l80 19q4 -34 32.5 -51.5t62.5 -8.5q33 8 48.5 33.5t5.5 55.5q-8 30 -35 45t-58 7l-97 -24l104 171q-303 17 -482 216t-179 511q0 215 86.5 380t249.5 257t378 92q198 0 351.5 -77.5t244.5 -219.5l-79 -40q-83 121 -216 188t-303 67
q-284 0 -458 -180.5t-174 -467.5t174 -467.5t458 -180.5q170 0 303 67.5t216 189.5l79 -41q-88 -133 -229.5 -210t-324.5 -85l-42 -69q41 -11 71.5 -39.5t41.5 -68.5q17 -61 -16 -116t-97 -71z" />
    <glyph glyph-name="Egrave" unicode="&#xc8;" horiz-adv-x="1183" 
d="M152 0v1400h911v-79h-829v-549h710v-79h-710v-614h829v-79h-911zM485 1990h84l87 -304h-60z" />
    <glyph glyph-name="Eacute" unicode="&#xc9;" horiz-adv-x="1183" 
d="M152 0v1400h911v-79h-829v-549h710v-79h-710v-614h829v-79h-911zM561 1686l89 304h82l-110 -304h-61z" />
    <glyph glyph-name="Ecircumflex" unicode="&#xca;" horiz-adv-x="1183" 
d="M152 0v1400h911v-79h-829v-549h710v-79h-710v-614h829v-79h-911zM408 1686l211 304h72l212 -304h-104l-145 200l-142 -200h-104z" />
    <glyph glyph-name="Edieresis" unicode="&#xcb;" horiz-adv-x="1183" 
d="M152 0v1400h911v-79h-829v-549h710v-79h-710v-614h829v-79h-911zM417 1728q0 22 18.5 38.5t40.5 16.5q23 0 40.5 -16.5t17.5 -38.5q0 -23 -17.5 -38.5t-40.5 -15.5t-41 15.5t-18 38.5zM677 1728q0 22 18 38.5t42 16.5q21 0 39 -17t18 -38q0 -23 -17.5 -38.5t-39.5 -15.5
q-24 0 -42 15.5t-18 38.5z" />
    <glyph glyph-name="Igrave" unicode="&#xcc;" horiz-adv-x="432" 
d="M189 0v1400h81v-1400h-81zM130 1990h84l87 -304h-60z" />
    <glyph glyph-name="Iacute" unicode="&#xcd;" horiz-adv-x="428" 
d="M184 0v1400h81v-1400h-81zM188 1686l89 304h82l-110 -304h-61z" />
    <glyph glyph-name="Icircumflex" unicode="&#xce;" horiz-adv-x="438" 
d="M191 0v1400h81v-1400h-81zM-18 1686l211 304h72l212 -304h-104l-145 200l-142 -200h-104z" />
    <glyph glyph-name="Idieresis" unicode="&#xcf;" horiz-adv-x="422" 
d="M188 0v1400h81v-1400h-81zM37 1719q0 22 18.5 38.5t40.5 16.5q23 0 40.5 -16.5t17.5 -38.5q0 -23 -17.5 -38.5t-40.5 -15.5t-41 15.5t-18 38.5zM297 1719q0 22 18 38.5t42 16.5q21 0 39 -17t18 -38q0 -23 -17.5 -38.5t-39.5 -15.5q-24 0 -42 15.5t-18 38.5z" />
    <glyph glyph-name="Eth" unicode="&#xd0;" horiz-adv-x="1249" 
d="M154 0v625h-271v79h271v696h467l-2 -2l7 3q216 0 378.5 -88.5t249 -246.5t86.5 -365q0 -155 -50.5 -284.5t-142 -221.5t-225.5 -143.5t-296 -51.5h-472zM236 79l388 -1q141 0 260 46t200.5 128t127 197.5t45.5 250.5t-45.5 250.5t-127 197.5t-200.5 128t-260 46l-388 -1
v-617h363v-79h-363v-546z" />
    <glyph glyph-name="Ntilde" unicode="&#xd1;" horiz-adv-x="1322" 
d="M152 0v1400h84l863 -1252v1252h82v-1400h-82l-865 1252v-1252h-82zM351 1714q-31 70 17.5 135.5t130.5 65.5q62 0 187 -78q40 -24 57.5 -34t45.5 -21t48 -11q36 0 55.5 39.5t-0.5 61.5l79 24q29 -73 -19 -138.5t-132 -65.5q-26 0 -60 13.5t-52.5 24.5t-60.5 37
q-105 69 -154 69q-37 0 -58 -30.5t-7 -70.5z" />
    <glyph glyph-name="Ograve" unicode="&#xd2;" horiz-adv-x="1638" 
d="M824 -29q-216 0 -378.5 92t-249 257t-86.5 380t86.5 380t249 257t378.5 92t378.5 -92t249 -257t86.5 -380t-86.5 -380t-249 -257t-378.5 -92zM189 699q0 -286 174.5 -467t458.5 -181q189 0 333.5 83t222 230t77.5 335t-77.5 335t-222 230t-333.5 83q-284 0 -458.5 -181
t-174.5 -467zM722 1990h84l87 -304h-60z" />
    <glyph glyph-name="Oacute" unicode="&#xd3;" horiz-adv-x="1638" 
d="M824 -29q-216 0 -378.5 92t-249 257t-86.5 380t86.5 380t249 257t378.5 92t378.5 -92t249 -257t86.5 -380t-86.5 -380t-249 -257t-378.5 -92zM189 699q0 -286 174.5 -467t458.5 -181q189 0 333.5 83t222 230t77.5 335t-77.5 335t-222 230t-333.5 83q-284 0 -458.5 -181
t-174.5 -467zM785 1686l89 304h82l-110 -304h-61z" />
    <glyph glyph-name="Ocircumflex" unicode="&#xd4;" horiz-adv-x="1638" 
d="M824 -29q-216 0 -378.5 92t-249 257t-86.5 380t86.5 380t249 257t378.5 92t378.5 -92t249 -257t86.5 -380t-86.5 -380t-249 -257t-378.5 -92zM189 699q0 -286 174.5 -467t458.5 -181q189 0 333.5 83t222 230t77.5 335t-77.5 335t-222 230t-333.5 83q-284 0 -458.5 -181
t-174.5 -467zM616 1686l211 304h72l212 -304h-104l-145 200l-142 -200h-104z" />
    <glyph glyph-name="Otilde" unicode="&#xd5;" horiz-adv-x="1638" 
d="M824 -29q-216 0 -378.5 92t-249 257t-86.5 380t86.5 380t249 257t378.5 92t378.5 -92t249 -257t86.5 -380t-86.5 -380t-249 -257t-378.5 -92zM189 699q0 -286 174.5 -467t458.5 -181q189 0 333.5 83t222 230t77.5 335t-77.5 335t-222 230t-333.5 83q-284 0 -458.5 -181
t-174.5 -467zM477 1706q-31 70 17.5 135.5t130.5 65.5q62 0 187 -78q40 -24 57.5 -34t45.5 -21t48 -11q36 0 55.5 39.5t-0.5 61.5l79 24q29 -73 -19 -138.5t-132 -65.5q-26 0 -60 13.5t-52.5 24.5t-60.5 37q-105 69 -154 69q-37 0 -58 -30.5t-7 -70.5z" />
    <glyph glyph-name="Odieresis" unicode="&#xd6;" horiz-adv-x="1638" 
d="M824 -29q-216 0 -378.5 92t-249 257t-86.5 380t86.5 380t249 257t378.5 92t378.5 -92t249 -257t86.5 -380t-86.5 -380t-249 -257t-378.5 -92zM189 699q0 -286 174.5 -467t458.5 -181q189 0 333.5 83t222 230t77.5 335t-77.5 335t-222 230t-333.5 83q-284 0 -458.5 -181
t-174.5 -467zM641 1719q0 22 18.5 38.5t40.5 16.5q23 0 40.5 -16.5t17.5 -38.5q0 -23 -17.5 -38.5t-40.5 -15.5t-41 15.5t-18 38.5zM901 1719q0 22 18 38.5t42 16.5q21 0 39 -17t18 -38q0 -23 -17.5 -38.5t-39.5 -15.5q-24 0 -42 15.5t-18 38.5z" />
    <glyph glyph-name="multiply" unicode="&#xd7;" horiz-adv-x="999" 
d="M155 219l-56 55l341 327l-341 328l56 55l342 -327l343 327l59 -55l-343 -328l343 -327l-59 -55l-343 327z" />
    <glyph glyph-name="Oslash" unicode="&#xd8;" horiz-adv-x="1638" 
d="M824 -29q-53 0 -104 6l-43 -183h-89l46 197q-244 55 -384 244.5t-140 464.5q0 215 86.5 380t249 257t378.5 92q75 0 144 -12l41 174h91l-45 -193q226 -64 354.5 -249.5t128.5 -448.5q0 -215 -86.5 -380t-249 -257t-378.5 -92zM189 699q0 -240 125 -409t339 -220l296 1266
q-63 11 -127 11q-284 0 -458.5 -181t-174.5 -467zM739 55q54 -4 83 -4q189 0 333.5 83t222 230t77.5 335q0 227 -112.5 391.5t-307.5 225.5z" />
    <glyph glyph-name="Ugrave" unicode="&#xd9;" horiz-adv-x="1407" 
d="M708 -26q-175 0 -300 83q-123 81 -189.5 220t-66.5 309v814h82v-814q0 -238 127.5 -385.5t346.5 -147.5q221 0 348 142.5t127 390.5v814h82v-814q0 -178 -66.5 -316t-193.5 -217t-297 -79zM603 1990h84l87 -304h-60z" />
    <glyph glyph-name="Uacute" unicode="&#xda;" horiz-adv-x="1407" 
d="M708 -26q-175 0 -300 83q-123 81 -189.5 220t-66.5 309v814h82v-814q0 -238 127.5 -385.5t346.5 -147.5q221 0 348 142.5t127 390.5v814h82v-814q0 -178 -66.5 -316t-193.5 -217t-297 -79zM652 1686l89 304h82l-110 -304h-61z" />
    <glyph glyph-name="Ucircumflex" unicode="&#xdb;" horiz-adv-x="1407" 
d="M708 -26q-175 0 -300 83q-123 81 -189.5 220t-66.5 309v814h82v-814q0 -238 127.5 -385.5t346.5 -147.5q221 0 348 142.5t127 390.5v814h82v-814q0 -178 -66.5 -316t-193.5 -217t-297 -79zM490 1686l211 304h72l212 -304h-104l-145 200l-142 -200h-104z" />
    <glyph glyph-name="Udieresis" unicode="&#xdc;" horiz-adv-x="1407" 
d="M708 -26q-175 0 -300 83q-123 81 -189.5 220t-66.5 309v814h82v-814q0 -238 127.5 -385.5t346.5 -147.5q221 0 348 142.5t127 390.5v814h82v-814q0 -178 -66.5 -316t-193.5 -217t-297 -79zM537 1719q0 22 18.5 38.5t40.5 16.5q23 0 40.5 -16.5t17.5 -38.5
q0 -23 -17.5 -38.5t-40.5 -15.5t-41 15.5t-18 38.5zM797 1719q0 22 18 38.5t42 16.5q21 0 39 -17t18 -38q0 -23 -17.5 -38.5t-39.5 -15.5q-24 0 -42 15.5t-18 38.5z" />
    <glyph glyph-name="Yacute" unicode="&#xdd;" horiz-adv-x="1230" 
d="M582 0v634l-485 766h96l431 -680l431 680h96l-487 -766v-634h-82zM538 1686l89 304h82l-110 -304h-61z" />
    <glyph glyph-name="Thorn" unicode="&#xde;" horiz-adv-x="1198" 
d="M152 -243v1648h82v-248h401q65 0 124.5 -15t114 -48.5t94.5 -83t64 -123t25 -164.5q0 -112 -35.5 -198t-96.5 -136t-134.5 -75t-155.5 -25h-401v-532h-82zM234 368h401q64 0 122 18.5t108.5 57t80.5 108t30 162.5v1q0 100 -30 174t-81 113.5t-108 57.5t-122 18h-401v-710
z" />
    <glyph glyph-name="germandbls" unicode="&#xdf;" horiz-adv-x="978" 
d="M528 7q-110 0 -186 31v85q119 -35 203 -31t137 48.5t77.5 111.5t24.5 157q0 77 -23 137.5t-58.5 97t-84 60t-95 32.5t-95.5 9h-70v84h64q125 0 201 64t76 200q0 117 -59.5 182t-177.5 65q-80 0 -133 -22.5t-82.5 -69t-41.5 -108t-12 -150.5v-1176h-91v1213q0 397 360 397
q68 0 126 -19t104.5 -57.5t72.5 -103.5t26 -151q0 -109 -39.5 -181.5t-124.5 -121.5q123 -48 185.5 -138.5t62.5 -242.5q0 -178 -94.5 -290t-252.5 -112z" />
    <glyph glyph-name="agrave" unicode="&#xe0;" horiz-adv-x="1225" 
d="M607 -26q-232 0 -375 148t-143 381t143 380.5t375 147.5q145 0 258 -60t179 -167v202h81v-1006h-81v202q-66 -108 -179 -168t-258 -60zM171 503q0 -197 119.5 -321t316.5 -124q196 0 315.5 124t119.5 321t-119.5 321t-315.5 124t-316 -124t-120 -321zM518 1556h84
l87 -304h-60z" />
    <glyph glyph-name="aacute" unicode="&#xe1;" horiz-adv-x="1225" 
d="M607 -26q-232 0 -375 148t-143 381t143 380.5t375 147.5q145 0 258 -60t179 -167v202h81v-1006h-81v202q-66 -108 -179 -168t-258 -60zM171 503q0 -197 119.5 -321t316.5 -124q196 0 315.5 124t119.5 321t-119.5 321t-315.5 124t-316 -124t-120 -321zM543 1284l89 304h82
l-110 -304h-61z" />
    <glyph glyph-name="acircumflex" unicode="&#xe2;" horiz-adv-x="1225" 
d="M607 -26q-232 0 -375 148t-143 381t143 380.5t375 147.5q145 0 258 -60t179 -167v202h81v-1006h-81v202q-66 -108 -179 -168t-258 -60zM171 503q0 -197 119.5 -321t316.5 -124q196 0 315.5 124t119.5 321t-119.5 321t-315.5 124t-316 -124t-120 -321zM381 1291l211 304
h72l212 -304h-104l-145 200l-142 -200h-104z" />
    <glyph glyph-name="atilde" unicode="&#xe3;" horiz-adv-x="1225" 
d="M607 -26q-232 0 -375 148t-143 381t143 380.5t375 147.5q145 0 258 -60t179 -167v202h81v-1006h-81v202q-66 -108 -179 -168t-258 -60zM171 503q0 -197 119.5 -321t316.5 -124q196 0 315.5 124t119.5 321t-119.5 321t-315.5 124t-316 -124t-120 -321zM313 1329
q-31 70 17.5 135.5t130.5 65.5q62 0 187 -78q40 -24 57.5 -34t45.5 -21t48 -11q36 0 55.5 39t-0.5 62l79 24q29 -73 -19 -138.5t-132 -65.5q-26 0 -60 13.5t-52.5 24.5t-60.5 37q-105 69 -154 69q-37 0 -58 -30.5t-7 -70.5z" />
    <glyph glyph-name="adieresis" unicode="&#xe4;" horiz-adv-x="1225" 
d="M607 -26q-232 0 -375 148t-143 381t143 380.5t375 147.5q145 0 258 -60t179 -167v202h81v-1006h-81v202q-66 -108 -179 -168t-258 -60zM171 503q0 -197 119.5 -321t316.5 -124q196 0 315.5 124t119.5 321t-119.5 321t-315.5 124t-316 -124t-120 -321zM462 1347
q0 22 18.5 38.5t40.5 16.5q23 0 40.5 -16.5t17.5 -38.5q0 -23 -17.5 -38.5t-40.5 -15.5t-41 15.5t-18 38.5zM722 1347q0 22 18 38.5t42 16.5q21 0 39 -17t18 -38q0 -23 -17.5 -38.5t-39.5 -15.5q-24 0 -42 15.5t-18 38.5z" />
    <glyph glyph-name="aring" unicode="&#xe5;" horiz-adv-x="1225" 
d="M607 -26q-232 0 -375 148t-143 381t143 380.5t375 147.5q145 0 258 -60t179 -167v202h81v-1006h-81v202q-66 -108 -179 -168t-258 -60zM171 503q0 -197 119.5 -321t316.5 -124q196 0 315.5 124t119.5 321t-119.5 321t-315.5 124t-316 -124t-120 -321zM478 1448
q0 60 44.5 103t107.5 43q62 0 107.5 -43.5t45.5 -102.5q0 -61 -45.5 -104.5t-107.5 -43.5t-107 44t-45 104zM547 1448q0 -35 24 -58t59 -23q37 0 60 23t23 58q0 33 -23.5 55t-59.5 22q-35 0 -59 -22.5t-24 -54.5z" />
    <glyph glyph-name="ae" unicode="&#xe6;" horiz-adv-x="2153" 
d="M596 -26q-232 0 -375 148t-143 381t143 380.5t375 147.5q145 0 258 -60t179 -167v202h81v-211q66 111 180.5 173.5t262.5 62.5q232 0 375 -147.5t143 -380.5v-40h-952q12 -181 130 -293t304 -112q141 0 244.5 67t151.5 183l84 -19q-55 -145 -181.5 -230t-298.5 -85
q-147 0 -262 62.5t-181 174.5v-211h-81v202q-66 -108 -179 -168t-258 -60zM160 503q0 -197 119.5 -321t316.5 -124q196 0 315.5 124t119.5 321t-119.5 321t-315.5 124t-316 -124t-120 -321zM1123 542h867q-12 181 -129.5 293.5t-303.5 112.5t-304 -112.5t-130 -293.5z" />
    <glyph glyph-name="ccedilla" unicode="&#xe7;" horiz-adv-x="1117" 
d="M640 -355q-65 -17 -124 18t-72 100l80 19q4 -34 32.5 -51.5t62.5 -8.5q33 8 48.5 33.5t5.5 55.5q-8 30 -35 45t-58 7l-97 -24l83 136q-216 14 -346.5 160t-130.5 368q0 233 143 380.5t375 147.5q172 0 298.5 -85t181.5 -230l-84 -19q-48 116 -151.5 183t-244.5 67v1
q-196 0 -316 -124t-120 -321t119.5 -321t316.5 -124q141 0 244.5 67t151.5 183l84 -19q-50 -134 -161 -217t-264 -96l-22 -36q41 -11 71.5 -39.5t41.5 -68.5q17 -61 -16 -116t-97 -71z" />
    <glyph glyph-name="egrave" unicode="&#xe8;" 
d="M607 -26q-232 0 -375 148t-143 381t143 380.5t375 147.5t375 -147.5t143 -380.5v-40h-952q12 -181 130 -293t304 -112q141 0 244.5 67t151.5 183l84 -19q-55 -145 -181.5 -230t-298.5 -85zM173 542h867q-12 181 -129.5 293.5t-303.5 112.5t-304 -112.5t-130 -293.5z
M481 1584h84l87 -304h-60z" />
    <glyph glyph-name="eacute" unicode="&#xe9;" 
d="M607 -26q-232 0 -375 148t-143 381t143 380.5t375 147.5t375 -147.5t143 -380.5v-40h-952q12 -181 130 -293t304 -112q141 0 244.5 67t151.5 183l84 -19q-55 -145 -181.5 -230t-298.5 -85zM173 542h867q-12 181 -129.5 293.5t-303.5 112.5t-304 -112.5t-130 -293.5z
M417 1278l89 304h82l-110 -304h-61z" />
    <glyph glyph-name="ecircumflex" unicode="&#xea;" 
d="M607 -26q-232 0 -375 148t-143 381t143 380.5t375 147.5t375 -147.5t143 -380.5v-40h-952q12 -181 130 -293t304 -112q141 0 244.5 67t151.5 183l84 -19q-55 -145 -181.5 -230t-298.5 -85zM173 542h867q-12 181 -129.5 293.5t-303.5 112.5t-304 -112.5t-130 -293.5z
M371 1283l211 304h72l212 -304h-104l-145 200l-142 -200h-104z" />
    <glyph glyph-name="edieresis" unicode="&#xeb;" 
d="M607 -26q-232 0 -375 148t-143 381t143 380.5t375 147.5t375 -147.5t143 -380.5v-40h-952q12 -181 130 -293t304 -112q141 0 244.5 67t151.5 183l84 -19q-55 -145 -181.5 -230t-298.5 -85zM173 542h867q-12 181 -129.5 293.5t-303.5 112.5t-304 -112.5t-130 -293.5z
M431 1318q0 22 18.5 38.5t40.5 16.5q23 0 40.5 -16.5t17.5 -38.5q0 -23 -17.5 -38.5t-40.5 -15.5t-41 15.5t-18 38.5zM691 1318q0 22 18 38.5t42 16.5q21 0 39 -17t18 -38q0 -23 -17.5 -38.5t-39.5 -15.5q-24 0 -42 15.5t-18 38.5z" />
    <glyph glyph-name="igrave" unicode="&#xec;" horiz-adv-x="381" 
d="M157 0v1006h82v-1006h-82zM66 1584h84l87 -304h-60z" />
    <glyph glyph-name="iacute" unicode="&#xed;" horiz-adv-x="454" 
d="M152 0v1006h82v-1006h-82zM158 1286l89 304h82l-110 -304h-61z" />
    <glyph glyph-name="icircumflex" unicode="&#xee;" horiz-adv-x="76" 
d="M9 0v1006h82v-1006h-82zM-191 1264l211 304h72l212 -304h-104l-145 200l-142 -200h-104z" />
    <glyph glyph-name="idieresis" unicode="&#xef;" horiz-adv-x="348" 
d="M156 0v1006h82v-1006h-82zM1 1344q0 22 18.5 38.5t40.5 16.5q23 0 40.5 -16.5t17.5 -38.5q0 -23 -17.5 -38.5t-40.5 -15.5t-41 15.5t-18 38.5zM261 1344q0 22 18 38.5t42 16.5q21 0 39 -17t18 -38q0 -23 -17.5 -38.5t-39.5 -15.5q-24 0 -42 15.5t-18 38.5z" />
    <glyph glyph-name="eth" unicode="&#xf0;" horiz-adv-x="1236" 
d="M636 -26q-141 0 -264 69q-121 69 -191.5 184t-70.5 252q0 138 70 254t191 183.5t265 67.5q125 0 233.5 -51t182.5 -140q-33 132 -99.5 248.5t-159.5 200.5l-215 -124l-39 68l188 109q-154 106 -329 103v79q220 3 403 -139l208 120l39 -69l-183 -106q44 -42 77 -85
q105 -133 162.5 -306t58.5 -367q0 -165 -65 -286q-68 -126 -187 -195.5t-275 -69.5zM191 479q0 -114 59 -212q63 -99 163.5 -156.5t222.5 -57.5q127 0 229 60q103 61 161.5 157t58.5 209q0 117 -61 214q-61 99 -162.5 155.5t-225.5 56.5q-126 0 -226 -59
q-102 -59 -160.5 -156t-58.5 -211z" />
    <glyph glyph-name="ntilde" unicode="&#xf1;" horiz-adv-x="1136" 
d="M152 0v1006h82v-151q61 83 156 130.5t204 47.5q122 0 223 -56q103 -60 161 -156t58 -211v-610h-81v610q0 95 -50 174q-51 80 -132 125t-179 45q-99 0 -181 -46q-85 -48 -132 -125.5t-47 -172.5v-610h-82zM290 1314q-31 70 17.5 135.5t130.5 65.5q62 0 187 -78
q40 -24 57.5 -34t45.5 -21t48 -11q36 0 55.5 39.5t-0.5 61.5l79 24q29 -73 -19 -138.5t-132 -65.5q-26 0 -60 13.5t-52.5 24.5t-60.5 37q-105 69 -154 69q-37 0 -58 -30.5t-7 -70.5z" />
    <glyph glyph-name="ograve" unicode="&#xf2;" 
d="M607 -26q-232 0 -375 148t-143 381t143 380.5t375 147.5t375 -147.5t143 -380.5t-143 -381t-375 -148zM171 503q0 -197 119.5 -321t316.5 -124q196 0 315.5 124t119.5 321t-119.5 321t-315.5 124t-316 -124t-120 -321zM488 1583h84l87 -304h-60z" />
    <glyph glyph-name="oacute" unicode="&#xf3;" 
d="M607 -26q-232 0 -375 148t-143 381t143 380.5t375 147.5t375 -147.5t143 -380.5t-143 -381t-375 -148zM171 503q0 -197 119.5 -321t316.5 -124q196 0 315.5 124t119.5 321t-119.5 321t-315.5 124t-316 -124t-120 -321zM563 1262l89 304h82l-110 -304h-61z" />
    <glyph glyph-name="ocircumflex" unicode="&#xf4;" 
d="M607 -26q-232 0 -375 148t-143 381t143 380.5t375 147.5t375 -147.5t143 -380.5t-143 -381t-375 -148zM171 503q0 -197 119.5 -321t316.5 -124q196 0 315.5 124t119.5 321t-119.5 321t-315.5 124t-316 -124t-120 -321zM373 1264l211 304h72l212 -304h-104l-145 200
l-142 -200h-104z" />
    <glyph glyph-name="otilde" unicode="&#xf5;" 
d="M607 -26q-232 0 -375 148t-143 381t143 380.5t375 147.5t375 -147.5t143 -380.5t-143 -381t-375 -148zM171 503q0 -197 119.5 -321t316.5 -124q196 0 315.5 124t119.5 321t-119.5 321t-315.5 124t-316 -124t-120 -321zM293 1313q-31 70 17.5 135.5t130.5 65.5
q62 0 187 -78q40 -24 57.5 -34t45.5 -21t48 -11q36 0 55.5 39t-0.5 62l79 24q29 -73 -19 -138.5t-132 -65.5q-26 0 -60 13.5t-52.5 24.5t-60.5 37q-105 69 -154 69q-37 0 -58 -30.5t-7 -70.5z" />
    <glyph glyph-name="odieresis" unicode="&#xf6;" 
d="M607 -26q-232 0 -375 148t-143 381t143 380.5t375 147.5t375 -147.5t143 -380.5t-143 -381t-375 -148zM171 503q0 -197 119.5 -321t316.5 -124q196 0 315.5 124t119.5 321t-119.5 321t-315.5 124t-316 -124t-120 -321zM413 1344q0 22 18.5 38.5t40.5 16.5
q23 0 40.5 -16.5t17.5 -38.5q0 -23 -17.5 -38.5t-40.5 -15.5t-41 15.5t-18 38.5zM673 1344q0 22 18 38.5t42 16.5q21 0 39 -17t18 -38q0 -23 -17.5 -38.5t-39.5 -15.5q-24 0 -42 15.5t-18 38.5z" />
    <glyph glyph-name="divide" unicode="&#xf7;" horiz-adv-x="1248" 
d="M99 562v79h1050v-79h-1050zM532 241q0 37 25.5 63.5t66.5 26.5q37 0 65.5 -27.5t28.5 -62.5q0 -37 -28 -62t-66 -25q-41 0 -66.5 25t-25.5 62zM532 958q0 35 26 63t66 28q37 0 63.5 -28t26.5 -63q0 -36 -26.5 -62t-63.5 -26q-40 0 -66 25.5t-26 62.5z" />
    <glyph glyph-name="oslash" unicode="&#xf8;" horiz-adv-x="1248" 
d="M607 -26q-71 0 -133 15l-51 -158h-89l59 183q-142 58 -223 187.5t-81 301.5q0 233 143 380.5t375 147.5q55 0 108 -9l40 126h91l-48 -148q152 -53 239.5 -185.5t87.5 -311.5q0 -233 -143 -381t-375 -148zM171 503q0 -143 65.5 -250.5t181.5 -157.5l271 847q-39 6 -82 6
q-196 0 -316 -124t-120 -321zM499 69q53 -11 108 -11q196 0 315.5 124t119.5 321q0 150 -71.5 260.5t-197.5 156.5z" />
    <glyph glyph-name="ugrave" unicode="&#xf9;" horiz-adv-x="1092" 
d="M552 -26q-122 0 -223 58q-102 57 -160.5 153t-58.5 212v609h81v-609q0 -95 49 -172q49 -80 131 -126t181 -46q101 0 180 47q84 47 132 125t48 172v609h81v-1006h-81v153q-62 -83 -157 -131t-203 -48zM467 1582h84l87 -304h-60z" />
    <glyph glyph-name="uacute" unicode="&#xfa;" horiz-adv-x="1092" 
d="M552 -26q-122 0 -223 58q-102 57 -160.5 153t-58.5 212v609h81v-609q0 -95 49 -172q49 -80 131 -126t181 -46q101 0 180 47q84 47 132 125t48 172v609h81v-1006h-81v153q-62 -83 -157 -131t-203 -48zM510 1270l89 304h82l-110 -304h-61z" />
    <glyph glyph-name="ucircumflex" unicode="&#xfb;" horiz-adv-x="1092" 
d="M552 -26q-122 0 -223 58q-102 57 -160.5 153t-58.5 212v609h81v-609q0 -95 49 -172q49 -80 131 -126t181 -46q101 0 180 47q84 47 132 125t48 172v609h81v-1006h-81v153q-62 -83 -157 -131t-203 -48zM333 1285l211 304h72l212 -304h-104l-145 200l-142 -200h-104z" />
    <glyph glyph-name="udieresis" unicode="&#xfc;" horiz-adv-x="1092" 
d="M552 -26q-122 0 -223 58q-102 57 -160.5 153t-58.5 212v609h81v-609q0 -95 49 -172q49 -80 131 -126t181 -46q101 0 180 47q84 47 132 125t48 172v609h81v-1006h-81v153q-62 -83 -157 -131t-203 -48zM369 1345q0 22 18.5 38.5t40.5 16.5q23 0 40.5 -16.5t17.5 -38.5
q0 -23 -17.5 -38.5t-40.5 -15.5t-41 15.5t-18 38.5zM629 1345q0 22 18 38.5t42 16.5q21 0 39 -17t18 -38q0 -23 -17.5 -38.5t-39.5 -15.5q-24 0 -42 15.5t-18 38.5z" />
    <glyph glyph-name="yacute" unicode="&#xfd;" horiz-adv-x="1052" 
d="M295 -493l191 503l-372 996h89l324 -885l339 885h86l-571 -1499h-86zM460 1284l89 304h82l-110 -304h-61z" />
    <glyph glyph-name="thorn" unicode="&#xfe;" horiz-adv-x="1249" 
d="M152 -497v1902h82v-605q66 107 179 167t258 60q232 0 375 -147.5t143 -380.5t-143 -381t-375 -148q-145 0 -258 60t-179 168v-695h-82zM236 499q0 -197 119.5 -321t315.5 -124t316 124t120 321t-120 321t-316 124t-315.5 -124t-119.5 -321z" />
    <glyph glyph-name="ydieresis" unicode="&#xff;" horiz-adv-x="1052" 
d="M295 -493l191 503l-372 996h89l324 -885l339 885h86l-571 -1499h-86zM357 1315q0 22 18.5 38.5t40.5 16.5q23 0 40.5 -16.5t17.5 -38.5q0 -23 -17.5 -38.5t-40.5 -15.5t-41 15.5t-18 38.5zM617 1315q0 22 18 38.5t42 16.5q21 0 39 -17t18 -38q0 -23 -17.5 -38.5
t-39.5 -15.5q-24 0 -42 15.5t-18 38.5z" />
    <glyph glyph-name="Amacron" unicode="&#x100;" horiz-adv-x="1387" 
d="M114 0l533 1400h108l532 -1400h-86l-155 406h-691l-155 -406h-86zM353 1712v79h716v-79h-716zM385 485h631l-315 828z" />
    <glyph glyph-name="amacron" unicode="&#x101;" horiz-adv-x="1225" 
d="M607 -26q-232 0 -375 148t-143 381t143 380.5t375 147.5q145 0 258 -60t179 -167v202h81v-1006h-81v202q-66 -108 -179 -168t-258 -60zM171 503q0 -197 119.5 -321t316.5 -124q196 0 315.5 124t119.5 321t-119.5 321t-315.5 124t-316 -124t-120 -321zM286 1298v79h716
v-79h-716z" />
    <glyph glyph-name="Abreve" unicode="&#x102;" horiz-adv-x="1387" 
d="M114 0l533 1400h108l532 -1400h-86l-155 406h-691l-155 -406h-86zM347 1958h82q-3 -77 36 -140q40 -60 101.5 -94t132.5 -34q116 0 195 78t75 190h81q2 -102 -49 -181q-50 -77 -130 -121.5t-172 -44.5q-96 0 -177 46q-83 47 -130.5 127t-44.5 174zM385 485h631l-315 828z
" />
    <glyph glyph-name="abreve" unicode="&#x103;" horiz-adv-x="1225" 
d="M607 -26q-232 0 -375 148t-143 381t143 380.5t375 147.5q145 0 258 -60t179 -167v202h81v-1006h-81v202q-66 -108 -179 -168t-258 -60zM171 503q0 -197 119.5 -321t316.5 -124q196 0 315.5 124t119.5 321t-119.5 321t-315.5 124t-316 -124t-120 -321zM290 1582h82
q-3 -77 36 -140q40 -60 101.5 -94t132.5 -34q116 0 195 78t75 190h81q2 -102 -49 -181q-50 -77 -130 -121.5t-172 -44.5q-96 0 -177 46q-83 47 -130.5 127t-44.5 174z" />
    <glyph glyph-name="Aogonek" unicode="&#x104;" horiz-adv-x="1376" 
d="M114 0l533 1400h108l514 -1352l39 -38q-71 -68 -74 -71q-90 -86 -103 -101q-16 -18 -20.5 -27.5t-4.5 -24.5q0 -29 19.5 -50t54.5 -23q43 0 74.5 29t27.5 77h81q4 -80 -50 -132.5t-135 -52.5q-66 1 -109.5 45t-43.5 107q0 62 45 107l126 120l-150 393h-691l-155 -406h-86
zM385 485h631l-315 828z" />
    <glyph glyph-name="aogonek" unicode="&#x105;" horiz-adv-x="1220" 
d="M607 -26q-232 0 -375 148t-143 381t143 380.5t375 147.5q145 0 258 -60t179 -167v202h81v-971l26 -25q-71 -68 -74 -71q-90 -86 -103 -101q-16 -18 -20.5 -27.5t-4.5 -24.5q0 -29 19.5 -50t54.5 -23q43 0 74.5 29t27.5 77h81q4 -80 -50 -132.5t-135 -52.5
q-66 1 -109.5 45t-43.5 107q0 62 45 107l131 124v185q-66 -108 -179 -168t-258 -60zM171 503q0 -197 119.5 -321t316.5 -124q196 0 315.5 124t119.5 321t-119.5 321t-315.5 124t-316 -124t-120 -321z" />
    <glyph glyph-name="Cacute" unicode="&#x106;" horiz-adv-x="1527" 
d="M822 -29q-215 0 -378 92t-249.5 257t-86.5 380t86.5 380t249.5 257t378 92q198 0 351.5 -77.5t244.5 -219.5l-79 -40q-83 121 -216 188t-303 67q-284 0 -458 -180.5t-174 -467.5t174 -467.5t458 -180.5q170 0 303 67.5t216 189.5l79 -41q-92 -141 -245 -218.5t-351 -77.5
zM753 1686l89 304h82l-110 -304h-61z" />
    <glyph glyph-name="cacute" unicode="&#x107;" horiz-adv-x="1117" 
d="M607 -26q-232 0 -375 148t-143 381t143 380.5t375 147.5q172 0 298.5 -85t181.5 -230l-84 -19q-48 116 -151.5 183t-244.5 67v1q-196 0 -316 -124t-120 -321t119.5 -321t316.5 -124q141 0 244.5 67t151.5 183l84 -19q-55 -145 -181.5 -230t-298.5 -85zM552 1286l89 304
h82l-110 -304h-61z" />
    <glyph glyph-name="Cdotaccent" unicode="&#x10a;" horiz-adv-x="1527" 
d="M822 -29q-215 0 -378 92t-249.5 257t-86.5 380t86.5 380t249.5 257t378 92q198 0 351.5 -77.5t244.5 -219.5l-79 -40q-83 121 -216 188t-303 67q-284 0 -458 -180.5t-174 -467.5t174 -467.5t458 -180.5q170 0 303 67.5t216 189.5l79 -41q-92 -141 -245 -218.5t-351 -77.5
zM754 1765q0 24 17 38.5t40 14.5t39.5 -15t16.5 -37q0 -23 -16.5 -38.5t-39.5 -15.5t-40 15.5t-17 37.5z" />
    <glyph glyph-name="cdotaccent" unicode="&#x10b;" horiz-adv-x="1117" 
d="M607 -26q-232 0 -375 148t-143 381t143 380.5t375 147.5q172 0 298.5 -85t181.5 -230l-84 -19q-48 116 -151.5 183t-244.5 67v1q-196 0 -316 -124t-120 -321t119.5 -321t316.5 -124q141 0 244.5 67t151.5 183l84 -19q-55 -145 -181.5 -230t-298.5 -85zM543 1341
q0 24 17 38.5t40 14.5t39.5 -15t16.5 -37q0 -23 -16.5 -38.5t-39.5 -15.5t-40 15.5t-17 37.5z" />
    <glyph glyph-name="Ccaron" unicode="&#x10c;" horiz-adv-x="1527" 
d="M822 -29q-215 0 -378 92t-249.5 257t-86.5 380t86.5 380t249.5 257t378 92q198 0 351.5 -77.5t244.5 -219.5l-79 -40q-83 121 -216 188t-303 67q-284 0 -458 -180.5t-174 -467.5t174 -467.5t458 -180.5q170 0 303 67.5t216 189.5l79 -41q-92 -141 -245 -218.5t-351 -77.5
zM596 1975h106l143 -200l140 200h105l-210 -304h-72z" />
    <glyph glyph-name="ccaron" unicode="&#x10d;" horiz-adv-x="1117" 
d="M607 -26q-232 0 -375 148t-143 381t143 380.5t375 147.5q172 0 298.5 -85t181.5 -230l-84 -19q-48 116 -151.5 183t-244.5 67v1q-196 0 -316 -124t-120 -321t119.5 -321t316.5 -124q141 0 244.5 67t151.5 183l84 -19q-55 -145 -181.5 -230t-298.5 -85zM373 1574h106
l143 -200l140 200h105l-210 -304h-72z" />
    <glyph glyph-name="Dcaron" unicode="&#x10e;" horiz-adv-x="1417" 
d="M152 0v1400h467l-2 -2l7 3q216 0 378.5 -88.5t249 -246.5t86.5 -365q0 -155 -50.5 -284.5t-142 -221.5t-225.5 -143.5t-296 -51.5h-472zM234 79l388 -1q141 0 260 46t200.5 128t127 197.5t45.5 250.5t-45.5 250.5t-127 197.5t-200.5 128t-260 46l-388 -1v-1242zM468 1977
h106l143 -200l140 200h105l-210 -304h-72z" />
    <glyph glyph-name="dcaron" unicode="&#x10f;" horiz-adv-x="1215" 
d="M607 -26q-232 0 -375 148t-143 381t143 380.5t375 147.5q145 0 258 -60t179 -167v695h81v-1499h-81v202q-66 -108 -179 -168t-258 -60zM171 503q0 -197 119.5 -321t316.5 -124q196 0 315.5 124t119.5 321t-119.5 321t-315.5 124t-316 -124t-120 -321zM396 1586h106
l143 -200l140 200h105l-210 -304h-72z" />
    <glyph glyph-name="Dcroat" unicode="&#x110;" horiz-adv-x="1263" 
d="M168 0v625h-271v79h271v696h467l-2 -2l7 3q216 0 378.5 -88.5t249 -246.5t86.5 -365q0 -155 -50.5 -284.5t-142 -221.5t-225.5 -143.5t-296 -51.5h-472zM250 79l388 -1q141 0 260 46t200.5 128t127 197.5t45.5 250.5t-45.5 250.5t-127 197.5t-200.5 128t-260 46l-388 -1
v-617h363v-79h-363v-546z" />
    <glyph glyph-name="dcroat" unicode="&#x111;" horiz-adv-x="1238" 
d="M607 -26q-232 0 -375 148t-143 381t143 380.5t375 147.5q145 0 258 -60t179 -167v398h-317v79h317v218h81v-218h318v-79h-318v-1202h-81v202q-66 -108 -179 -168t-258 -60zM171 503q0 -197 119.5 -321t316.5 -124q196 0 315.5 124t119.5 321t-119.5 321t-315.5 124
t-316 -124t-120 -321z" />
    <glyph glyph-name="Emacron" unicode="&#x112;" horiz-adv-x="1183" 
d="M152 0v1400h911v-79h-829v-549h710v-79h-710v-614h829v-79h-911zM284 1698v79h716v-79h-716z" />
    <glyph glyph-name="emacron" unicode="&#x113;" 
d="M607 -26q-232 0 -375 148t-143 381t143 380.5t375 147.5t375 -147.5t143 -380.5v-40h-952q12 -181 130 -293t304 -112q141 0 244.5 67t151.5 183l84 -19q-55 -145 -181.5 -230t-298.5 -85zM173 542h867q-12 181 -129.5 293.5t-303.5 112.5t-304 -112.5t-130 -293.5z
M301 1307v79h716v-79h-716z" />
    <glyph glyph-name="Edotaccent" unicode="&#x116;" horiz-adv-x="1183" 
d="M152 0v1400h911v-79h-829v-549h710v-79h-710v-614h829v-79h-911zM544 1736q0 24 17 38.5t40 14.5t39.5 -15t16.5 -37q0 -23 -16.5 -38.5t-39.5 -15.5t-40 15.5t-17 37.5z" />
    <glyph glyph-name="edotaccent" unicode="&#x117;" 
d="M607 -26q-232 0 -375 148t-143 381t143 380.5t375 147.5t375 -147.5t143 -380.5v-40h-952q12 -181 130 -293t304 -112q141 0 244.5 67t151.5 183l84 -19q-55 -145 -181.5 -230t-298.5 -85zM173 542h867q-12 181 -129.5 293.5t-303.5 112.5t-304 -112.5t-130 -293.5z
M566 1387q0 24 17 38.5t40 14.5t39.5 -15t16.5 -37q0 -23 -16.5 -38.5t-39.5 -15.5t-40 15.5t-17 37.5z" />
    <glyph glyph-name="Eogonek" unicode="&#x118;" horiz-adv-x="1177" 
d="M152 0v1400h911v-79h-829v-549h710v-79h-710v-614h829v-46l24 -23q-71 -68 -74 -71q-90 -86 -103 -101q-16 -18 -20.5 -27.5t-4.5 -24.5q0 -29 19.5 -50t54.5 -23q43 0 74.5 29t27.5 77h81q4 -80 -50 -132.5t-135 -52.5q-66 1 -109.5 45t-43.5 107q0 62 45 107l113 107
h-810z" />
    <glyph glyph-name="eogonek" unicode="&#x119;" 
d="M607 -26q-232 0 -375 148t-143 381t143 380.5t375 147.5t375 -147.5t143 -380.5v-40h-952q12 -181 130 -293t304 -112q141 0 244.5 67t151.5 183l84 -19q-43 -115 -132.5 -193t-212.5 -107q-35 -35 -52 -50q-90 -86 -103 -101q-16 -18 -20.5 -27.5t-4.5 -24.5
q0 -29 19.5 -50t54.5 -23q43 0 74.5 29t27.5 77h81q4 -80 -50 -132.5t-135 -52.5q-66 1 -109.5 45t-43.5 107q0 62 45 107l85 81h-4zM173 542h867q-12 181 -129.5 293.5t-303.5 112.5t-304 -112.5t-130 -293.5z" />
    <glyph glyph-name="Ecaron" unicode="&#x11a;" horiz-adv-x="1183" 
d="M152 0v1400h911v-79h-829v-549h710v-79h-710v-614h829v-79h-911zM423 1981h106l143 -200l140 200h105l-210 -304h-72z" />
    <glyph glyph-name="ecaron" unicode="&#x11b;" horiz-adv-x="1211" 
d="M615 -26q-232 0 -375 148t-143 381t143 380.5t375 147.5t375 -147.5t143 -380.5v-40h-952q12 -181 130 -293t304 -112q141 0 244.5 67t151.5 183l84 -19q-55 -145 -181.5 -230t-298.5 -85zM181 542h867q-12 181 -129.5 293.5t-303.5 112.5t-304 -112.5t-130 -293.5z
M370 1550h106l143 -200l140 200h105l-210 -304h-72z" />
    <glyph glyph-name="Gbreve" unicode="&#x11e;" horiz-adv-x="1520" 
d="M824 -29q-216 0 -378.5 92t-249 257t-86.5 380t86.5 380t249 257t378.5 92q198 0 351.5 -77.5t244.5 -219.5l-79 -40q-83 121 -216 188t-303 67q-284 0 -458.5 -181t-174.5 -467t174.5 -467t458.5 -181q165 0 295.5 64t215.5 180v399h-635v79h716v-500h-8l8 -15
q-93 -137 -244.5 -212t-345.5 -75zM444 2044h82q-3 -77 36 -140q40 -60 101.5 -94t132.5 -34q116 0 195 78t75 190h81q2 -102 -49 -181q-50 -77 -130 -121.5t-172 -44.5q-96 0 -177 46q-83 47 -130.5 127t-44.5 174z" />
    <glyph glyph-name="gbreve" unicode="&#x11f;" horiz-adv-x="1267" 
d="M627 -508q-169 0 -311.5 108t-177.5 261h1l74 32q25 -131 146 -226.5t268 -95.5q106 0 203 52.5t155.5 140t58.5 182.5v256q-66 -108 -179 -168t-258 -60q-232 0 -375 148t-143 381t143 380.5t375 147.5q145 0 258 -60t179 -167v202h81v-1060q0 -117 -70.5 -222.5
t-186 -168.5t-241.5 -63zM171 503q0 -197 119.5 -321t316.5 -124q196 0 315.5 124t119.5 321t-119.5 321t-315.5 124t-316 -124t-120 -321zM290 1636h82q-3 -77 36 -140q40 -60 101.5 -94t132.5 -34q116 0 195 78t75 190h81q2 -102 -49 -181q-50 -77 -130 -121.5t-172 -44.5
q-96 0 -177 46q-83 47 -130.5 127t-44.5 174z" />
    <glyph glyph-name="Gdotaccent" unicode="&#x120;" horiz-adv-x="1520" 
d="M824 -29q-216 0 -378.5 92t-249 257t-86.5 380t86.5 380t249 257t378.5 92q198 0 351.5 -77.5t244.5 -219.5l-79 -40q-83 121 -216 188t-303 67q-284 0 -458.5 -181t-174.5 -467t174.5 -467t458.5 -181q165 0 295.5 64t215.5 180v399h-635v79h716v-500h-8l8 -15
q-93 -137 -244.5 -212t-345.5 -75zM705 1765q0 24 17 38.5t40 14.5t39.5 -15t16.5 -37q0 -23 -16.5 -38.5t-39.5 -15.5t-40 15.5t-17 37.5z" />
    <glyph glyph-name="gdotaccent" unicode="&#x121;" horiz-adv-x="1267" 
d="M627 -508q-169 0 -311.5 108t-177.5 261h1l74 32q25 -131 146 -226.5t268 -95.5q106 0 203 52.5t155.5 140t58.5 182.5v256q-66 -108 -179 -168t-258 -60q-232 0 -375 148t-143 381t143 380.5t375 147.5q145 0 258 -60t179 -167v202h81v-1060q0 -117 -70.5 -222.5
t-186 -168.5t-241.5 -63zM171 503q0 -197 119.5 -321t316.5 -124q196 0 315.5 124t119.5 321t-119.5 321t-315.5 124t-316 -124t-120 -321zM549 1410q0 24 17 38.5t40 14.5t39.5 -15t16.5 -37q0 -23 -16.5 -38.5t-39.5 -15.5t-40 15.5t-17 37.5z" />
    <glyph glyph-name="uni0122" unicode="&#x122;" horiz-adv-x="1520" 
d="M824 -29q-216 0 -378.5 92t-249 257t-86.5 380t86.5 380t249 257t378.5 92q198 0 351.5 -77.5t244.5 -219.5l-79 -40q-83 121 -216 188t-303 67q-284 0 -458.5 -181t-174.5 -467t174.5 -467t458.5 -181q165 0 295.5 64t215.5 180v399h-635v79h716v-500h-8l8 -15
q-93 -137 -244.5 -212t-345.5 -75zM710 -493l89 304h82l-109 -304h-62z" />
    <glyph glyph-name="uni0123" unicode="&#x123;" horiz-adv-x="1248" 
d="M627 -508q-169 0 -311.5 108t-177.5 261h1l74 32q25 -131 146 -226.5t268 -95.5q106 0 203 52.5t155.5 140t58.5 182.5v256q-66 -108 -179 -168t-258 -60q-232 0 -375 148t-143 381t143 380.5t375 147.5q145 0 258 -60t179 -167v202h81v-1060q0 -117 -70.5 -222.5
t-186 -168.5t-241.5 -63zM171 503q0 -197 119.5 -321t316.5 -124q196 0 315.5 124t119.5 321t-119.5 321t-315.5 124t-316 -124t-120 -321zM561 1274l89 304h82l-109 -304h-62z" />
    <glyph glyph-name="Hbar" unicode="&#x126;" horiz-adv-x="1231" 
d="M148 10v1073h-154v77h154v230h81v-230h926v230h81v-230h173v-77h-173v-1073h-81v700h-926v-700h-81zM229 788h926v295h-926v-295z" />
    <glyph glyph-name="hbar" unicode="&#x127;" horiz-adv-x="1253" 
d="M154 0v1202h-262v79h262v218h82v-218h372v-79h-372v-347q62 82 156.5 130t203.5 48q122 0 223 -56q102 -59 160.5 -155t58.5 -212v-610h-81v610q0 96 -50 174q-50 79 -131 124.5t-180 45.5t-181 -46q-84 -47 -131.5 -125t-47.5 -173v-610h-82z" />
    <glyph glyph-name="Itilde" unicode="&#x128;" horiz-adv-x="418" 
d="M186 0v1400h81v-1400h-81zM-66 1702q-31 70 17.5 135.5t130.5 65.5q62 0 187 -78q40 -24 57.5 -34t45.5 -21t48 -11q36 0 55.5 39.5t-0.5 61.5l79 24q29 -73 -19 -138.5t-132 -65.5q-26 0 -60 13.5t-52.5 24.5t-60.5 37q-105 69 -154 69q-37 0 -58 -30.5t-7 -70.5z" />
    <glyph glyph-name="itilde" unicode="&#x129;" horiz-adv-x="358" 
d="M154 0v1006h82v-1006h-82zM-117 1300q-31 70 17.5 135.5t130.5 65.5q62 0 187 -78q40 -24 57.5 -34t45.5 -21t48 -11q36 0 55.5 39.5t-0.5 61.5l79 24q29 -73 -19 -138.5t-132 -65.5q-26 0 -60 13.5t-52.5 24.5t-60.5 37q-105 69 -154 69q-37 0 -58 -30.5t-7 -70.5z" />
    <glyph glyph-name="Imacron" unicode="&#x12a;" horiz-adv-x="417" 
d="M186 0v1400h81v-1400h-81zM-120 1700v79h716v-79h-716z" />
    <glyph glyph-name="imacron" unicode="&#x12b;" horiz-adv-x="449" 
d="M154 0v1006h82v-1006h-82zM-106 1307v79h716v-79h-716z" />
    <glyph glyph-name="Iogonek" unicode="&#x12e;" horiz-adv-x="422" 
d="M157 -366q-66 1 -109.5 45t-43.5 107q0 62 45 107l137 130v1377h81v-1371l20 -19q-71 -68 -74 -71q-90 -86 -103 -101q-16 -18 -20.5 -27.5t-4.5 -24.5q0 -29 19.5 -50t54.5 -23q43 0 74.5 29t27.5 77h81q4 -80 -50 -132.5t-135 -52.5z" />
    <glyph glyph-name="iogonek" unicode="&#x12f;" horiz-adv-x="423" 
d="M124 -366q-66 1 -109.5 45t-43.5 107q0 62 45 107l138 131v982h82v-979l18 -17q-71 -68 -74 -71q-90 -86 -103 -101q-16 -18 -20.5 -27.5t-4.5 -24.5q0 -29 19.5 -50t54.5 -23q43 0 74.5 29t27.5 77h81q4 -80 -50 -132.5t-135 -52.5z" />
    <glyph glyph-name="Idotaccent" unicode="&#x130;" horiz-adv-x="426" 
d="M188 0v1400h81v-1400h-81zM178 1745q0 24 17 38.5t40 14.5t39.5 -15t16.5 -37q0 -23 -16.5 -38.5t-39.5 -15.5t-40 15.5t-17 37.5z" />
    <glyph glyph-name="dotlessi" unicode="&#x131;" horiz-adv-x="364" 
d="M140 0v1006h82v-1006h-82z" />
    <glyph glyph-name="IJ" unicode="&#x132;" horiz-adv-x="1760" 
d="M184 0v1400h81v-1400h-81zM485 596h81q-2 -243 125.5 -393t349.5 -150q220 0 347 142.5t127 390.5v814h82v-814q0 -271 -150.5 -441.5t-405.5 -170.5q-175 0 -302 83q-125 82 -190.5 223.5t-63.5 315.5z" />
    <glyph glyph-name="ij" unicode="&#x133;" horiz-adv-x="751" 
d="M169 0v1006h82v-1006h-82zM162 1299q0 22 16 37.5t38 15.5q25 0 41.5 -15.5t16.5 -37.5q0 -23 -16.5 -39.5t-41.5 -16.5q-22 0 -38 16.5t-16 39.5zM212 -493v79q138 -3 227.5 76t89.5 202v1142h81v-1142q0 -98 -51 -181q-52 -84 -142.5 -131t-204.5 -45zM518 1299
q0 22 16 37.5t38 15.5q25 0 41.5 -15.5t16.5 -37.5q0 -23 -16.5 -39.5t-41.5 -16.5q-22 0 -38 16.5t-16 39.5z" />
    <glyph glyph-name="uni0136" unicode="&#x136;" horiz-adv-x="1080" 
d="M152 0v1400h82v-778l683 778h106l-582 -663l570 -737h-103l-521 675l-153 -176v-499h-82zM483 -493l89 304h82l-109 -304h-62z" />
    <glyph glyph-name="uni0137" unicode="&#x137;" horiz-adv-x="1016" 
d="M152 0v1499h82v-1116l546 623h107l-356 -404l364 -602h-92l-326 538l-243 -277v-261h-82zM405 -493l89 304h82l-109 -304h-62z" />
    <glyph glyph-name="Lacute" unicode="&#x139;" horiz-adv-x="1183" 
d="M152 0v1400h82v-1321h829v-79h-911zM170 1686l89 304h82l-110 -304h-61z" />
    <glyph glyph-name="lacute" unicode="&#x13a;" horiz-adv-x="370" 
d="M156 0v1499h82v-1499h-82zM149 1686l89 304h82l-110 -304h-61z" />
    <glyph glyph-name="uni013B" unicode="&#x13b;" horiz-adv-x="1183" 
d="M152 0v1400h82v-1321h829v-79h-911zM516 -493l89 304h82l-109 -304h-62z" />
    <glyph glyph-name="uni013C" unicode="&#x13c;" horiz-adv-x="379" 
d="M161 0v1499h82v-1499h-82zM84 -493l89 304h82l-109 -304h-62z" />
    <glyph glyph-name="Lcaron" unicode="&#x13d;" horiz-adv-x="1183" 
d="M152 0v1400h82v-1321h829v-79h-911zM332 1985h106l143 -200l140 200h105l-210 -304h-72z" />
    <glyph glyph-name="lcaron" unicode="&#x13e;" horiz-adv-x="376" 
d="M159 0v1499h82v-1499h-82zM-36 1990h106l143 -200l140 200h105l-210 -304h-72z" />
    <glyph glyph-name="Lslash" unicode="&#x141;" horiz-adv-x="1247" 
d="M149 0v883l-199 -115l-40 68l239 138v426h82v-379l299 173l40 -68l-339 -196v-851h829v-79h-911z" />
    <glyph glyph-name="lslash" unicode="&#x142;" horiz-adv-x="395" 
d="M149 0v883l-199 -115l-40 68l239 138v525h82v-478l299 173l40 -68l-339 -196v-930h-82z" />
    <glyph glyph-name="Nacute" unicode="&#x143;" horiz-adv-x="1322" 
d="M152 0v1400h84l863 -1252v1252h82v-1400h-82l-865 1252v-1252h-82zM574 1686l89 304h82l-110 -304h-61z" />
    <glyph glyph-name="nacute" unicode="&#x144;" horiz-adv-x="1136" 
d="M152 0v1006h82v-151q61 83 156 130.5t204 47.5q122 0 223 -56q103 -60 161 -156t58 -211v-610h-81v610q0 95 -50 174q-51 80 -132 125t-179 45q-99 0 -181 -46q-85 -48 -132 -125.5t-47 -172.5v-610h-82zM545 1286l89 304h82l-110 -304h-61z" />
    <glyph glyph-name="uni0145" unicode="&#x145;" horiz-adv-x="1322" 
d="M152 0v1400h84l863 -1252v1252h82v-1400h-82l-865 1252v-1252h-82zM568 -493l89 304h82l-109 -304h-62z" />
    <glyph glyph-name="uni0146" unicode="&#x146;" horiz-adv-x="1136" 
d="M152 0v1006h82v-151q61 83 156 130.5t204 47.5q122 0 223 -56q103 -60 161 -156t58 -211v-610h-81v610q0 95 -50 174q-51 80 -132 125t-179 45q-99 0 -181 -46q-85 -48 -132 -125.5t-47 -172.5v-610h-82zM496 -493l89 304h82l-109 -304h-62z" />
    <glyph glyph-name="Ncaron" unicode="&#x147;" horiz-adv-x="1322" 
d="M152 0v1400h84l863 -1252v1252h82v-1400h-82l-865 1252v-1252h-82zM461 1985h106l143 -200l140 200h105l-210 -304h-72z" />
    <glyph glyph-name="ncaron" unicode="&#x148;" horiz-adv-x="1136" 
d="M152 0v1006h82v-151q61 83 156 130.5t204 47.5q122 0 223 -56q103 -60 161 -156t58 -211v-610h-81v610q0 95 -50 174q-51 80 -132 125t-179 45q-99 0 -181 -46q-85 -48 -132 -125.5t-47 -172.5v-610h-82zM389 1567h106l143 -200l140 200h105l-210 -304h-72z" />
    <glyph glyph-name="Omacron" unicode="&#x14c;" horiz-adv-x="1638" 
d="M824 -29q-216 0 -378.5 92t-249 257t-86.5 380t86.5 380t249 257t378.5 92t378.5 -92t249 -257t86.5 -380t-86.5 -380t-249 -257t-378.5 -92zM189 699q0 -286 174.5 -467t458.5 -181q189 0 333.5 83t222 230t77.5 335t-77.5 335t-222 230t-333.5 83q-284 0 -458.5 -181
t-174.5 -467zM485 1688v79h716v-79h-716z" />
    <glyph glyph-name="omacron" unicode="&#x14d;" 
d="M607 -26q-232 0 -375 148t-143 381t143 380.5t375 147.5t375 -147.5t143 -380.5t-143 -381t-375 -148zM171 503q0 -197 119.5 -321t316.5 -124q196 0 315.5 124t119.5 321t-119.5 321t-315.5 124t-316 -124t-120 -321zM296 1286v79h716v-79h-716z" />
    <glyph glyph-name="Ohungarumlaut" unicode="&#x150;" horiz-adv-x="1638" 
d="M824 -29q-216 0 -378.5 92t-249 257t-86.5 380t86.5 380t249 257t378.5 92t378.5 -92t249 -257t86.5 -380t-86.5 -380t-249 -257t-378.5 -92zM189 699q0 -286 174.5 -467t458.5 -181q189 0 333.5 83t222 230t77.5 335t-77.5 335t-222 230t-333.5 83q-284 0 -458.5 -181
t-174.5 -467zM518 1686l89 304h82l-110 -304h-61zM1019 1686l89 304h82l-110 -304h-61z" />
    <glyph glyph-name="ohungarumlaut" unicode="&#x151;" 
d="M607 -26q-232 0 -375 148t-143 381t143 380.5t375 147.5t375 -147.5t143 -380.5t-143 -381t-375 -148zM171 503q0 -197 119.5 -321t316.5 -124q196 0 315.5 124t119.5 321t-119.5 321t-315.5 124t-316 -124t-120 -321zM345 1285l89 304h82l-110 -304h-61zM846 1285
l89 304h82l-110 -304h-61z" />
    <glyph glyph-name="OE" unicode="&#x152;" horiz-adv-x="2507" 
d="M824 -29q-216 0 -378.5 92t-249 257t-86.5 380t86.5 380t249 257t378.5 92q234 0 403 -106.5t249 -295.5v373h911v-79h-829v-549h710v-79h-710v-614h829v-79h-911v373q-80 -189 -249 -295.5t-403 -106.5zM189 699q0 -286 174.5 -467t458.5 -181q189 0 333.5 83t222 230
t77.5 335t-77.5 335t-222 230t-333.5 83q-284 0 -458.5 -181t-174.5 -467z" />
    <glyph glyph-name="oe" unicode="&#x153;" horiz-adv-x="2154" 
d="M596 -26q-232 0 -375 148t-143 381t143 380.5t375 147.5q172 0 298.5 -85t182.5 -231q55 146 181.5 231t299.5 85q232 0 375 -147.5t143 -380.5v-40h-952q12 -181 130 -293t304 -112q141 0 244.5 67t151.5 183l84 -19q-55 -145 -181.5 -230t-298.5 -85q-173 0 -299.5 85
t-181.5 232q-56 -147 -182.5 -232t-298.5 -85zM160 503q0 -197 119.5 -321t316.5 -124q196 0 315.5 124t119.5 321t-119.5 321t-315.5 124t-316 -124t-120 -321zM1124 542h867q-12 181 -129.5 293.5t-303.5 112.5t-304 -112.5t-130 -293.5z" />
    <glyph glyph-name="Racute" unicode="&#x154;" horiz-adv-x="1185" 
d="M152 0v1400h483q65 0 124.5 -15t114 -48.5t94.5 -83t64 -123t25 -164.5q0 -183 -89.5 -288.5t-229.5 -135.5l326 -542h-95l-322 532h-413v-532h-82zM234 611h401q64 0 122 18.5t108.5 57t80.5 108t30 162.5v1q0 100 -30 174t-81 113.5t-108 57.5t-122 18h-401v-710z
M550 1686l89 304h82l-110 -304h-61z" />
    <glyph glyph-name="racute" unicode="&#x155;" horiz-adv-x="761" 
d="M152 0v1006h82v-151q62 82 156.5 130t203.5 48q70 0 130 -18l-34 -73q-51 12 -96 12q-99 0 -181 -46q-84 -47 -131.5 -125t-47.5 -173v-610h-82zM344 1269l89 304h82l-110 -304h-61z" />
    <glyph glyph-name="uni0156" unicode="&#x156;" horiz-adv-x="1185" 
d="M152 0v1400h483q65 0 124.5 -15t114 -48.5t94.5 -83t64 -123t25 -164.5q0 -183 -89.5 -288.5t-229.5 -135.5l326 -542h-95l-322 532h-413v-532h-82zM234 611h401q64 0 122 18.5t108.5 57t80.5 108t30 162.5v1q0 100 -30 174t-81 113.5t-108 57.5t-122 18h-401v-710z
M510 -493l89 304h82l-109 -304h-62z" />
    <glyph glyph-name="uni0157" unicode="&#x157;" horiz-adv-x="770" 
d="M161 0v1006h82v-151q62 82 156.5 130t203.5 48q70 0 130 -18l-34 -73q-51 12 -96 12q-99 0 -181 -46q-84 -47 -131.5 -125t-47.5 -173v-610h-82zM88 -493l89 304h82l-109 -304h-62z" />
    <glyph glyph-name="Rcaron" unicode="&#x158;" horiz-adv-x="1185" 
d="M152 0v1400h483q65 0 124.5 -15t114 -48.5t94.5 -83t64 -123t25 -164.5q0 -183 -89.5 -288.5t-229.5 -135.5l326 -542h-95l-322 532h-413v-532h-82zM234 611h401q64 0 122 18.5t108.5 57t80.5 108t30 162.5v1q0 100 -30 174t-81 113.5t-108 57.5t-122 18h-401v-710z
M352 2000h106l143 -200l140 200h105l-210 -304h-72z" />
    <glyph glyph-name="rcaron" unicode="&#x159;" horiz-adv-x="761" 
d="M152 0v1006h82v-151q62 82 156.5 130t203.5 48q70 0 130 -18l-34 -73q-51 12 -96 12q-99 0 -181 -46q-84 -47 -131.5 -125t-47.5 -173v-610h-82zM190 1576h106l143 -200l140 200h105l-210 -304h-72z" />
    <glyph glyph-name="Sacute" unicode="&#x15a;" horiz-adv-x="1308" 
d="M659 -26q-116 0 -221 34q-114 35 -195 101t-109 155l76 29q36 -110 157 -175t292 -65q112 0 215 38q102 39 160 107t58 157q0 94 -61 152q-106 101 -373 150q-143 25 -259 65q-122 41 -187 117t-65 198q0 117 72 204q71 83 188.5 130t251.5 47q185 0 332 -79t197 -213
l-79 -26q-36 110 -157 174.5t-293 64.5q-114 0 -214 -38q-102 -39 -159.5 -107t-57.5 -157q0 -103 56 -157q51 -53 140.5 -83.5t236.5 -57.5q144 -26 249 -69q264 -103 264 -315q0 -116 -73 -203q-72 -84 -189 -131t-253 -47zM612 1686l89 304h82l-110 -304h-61z" />
    <glyph glyph-name="sacute" unicode="&#x15b;" horiz-adv-x="948" 
d="M474 -27q-82 0 -163 26q-88 27 -149.5 79.5t-81.5 124.5l78 30q21 -81 106 -129t210 -48q72 0 138 21t114 69.5t48 115.5q0 61 -39 99q-76 71 -265 105q-91 16 -189 48q-189 65 -189 238q0 89 56 156q54 63 140.5 98t185.5 35q142 0 253.5 -63t143.5 -168l-81 -28
q-22 82 -105.5 129t-210.5 47q-71 0 -137 -21t-114 -69.5t-48 -115.5t38 -103q36 -37 98.5 -58t166.5 -40q110 -21 183 -51q197 -79 197 -238q0 -90 -56 -155q-53 -63 -140 -98.5t-188 -35.5zM437 1280l89 304h82l-110 -304h-61z" />
    <glyph glyph-name="Scedilla" unicode="&#x15e;" horiz-adv-x="1308" 
d="M698 -367q-65 -17 -124 18t-72 100l80 19q4 -34 32.5 -51.5t62.5 -8.5q33 8 48.5 33.5t5.5 55.5q-8 30 -35 45t-58 7l-97 -24l90 148q-100 3 -193 33q-114 35 -195 101t-109 155l76 29q36 -110 157 -175t292 -65q112 0 215 38q102 39 160 107t58 157q0 94 -61 152
q-106 101 -373 150q-143 25 -259 65q-122 41 -187 117t-65 198q0 117 72 204q71 83 188.5 130t251.5 47q185 0 332 -79t197 -213l-79 -26q-36 110 -157 174.5t-293 64.5q-114 0 -214 -38q-102 -39 -159.5 -107t-57.5 -157q0 -103 56 -157q51 -53 140.5 -83.5t236.5 -57.5
q144 -26 249 -69q264 -103 264 -315q0 -116 -73 -203q-63 -73 -160 -118.5t-213 -56.5l-30 -49q41 -11 71.5 -39.5t41.5 -68.5q17 -61 -16 -116t-97 -71z" />
    <glyph glyph-name="scedilla" unicode="&#x15f;" horiz-adv-x="948" 
d="M518 -355q-65 -17 -124 18t-72 100l80 19q4 -34 32.5 -51.5t62.5 -8.5q33 8 48.5 33.5t5.5 55.5q-8 30 -35 45t-58 7l-97 -24l82 135q-69 5 -132 25q-88 27 -149.5 79.5t-81.5 124.5l78 30q21 -81 106 -129t210 -48q72 0 138 21t114 69.5t48 115.5q0 61 -39 99
q-76 71 -265 105q-91 16 -189 48q-189 65 -189 238q0 89 56 156q54 63 140.5 98t185.5 35q142 0 253.5 -63t143.5 -168l-81 -28q-22 82 -105.5 129t-210.5 47q-71 0 -137 -21t-114 -69.5t-48 -115.5t38 -103q36 -37 98.5 -58t166.5 -40q110 -21 183 -51q197 -79 197 -238
q0 -90 -56 -155q-44 -53 -112 -86t-149 -44l-23 -37q41 -11 71.5 -39.5t41.5 -68.5q17 -61 -16 -116t-97 -71z" />
    <glyph glyph-name="Scaron" unicode="&#x160;" horiz-adv-x="1308" 
d="M659 -26q-116 0 -221 34q-114 35 -195 101t-109 155l76 29q36 -110 157 -175t292 -65q112 0 215 38q102 39 160 107t58 157q0 94 -61 152q-106 101 -373 150q-143 25 -259 65q-122 41 -187 117t-65 198q0 117 72 204q71 83 188.5 130t251.5 47q185 0 332 -79t197 -213
l-79 -26q-36 110 -157 174.5t-293 64.5q-114 0 -214 -38q-102 -39 -159.5 -107t-57.5 -157q0 -103 56 -157q51 -53 140.5 -83.5t236.5 -57.5q144 -26 249 -69q264 -103 264 -315q0 -116 -73 -203q-72 -84 -189 -131t-253 -47zM448 1989h106l143 -200l140 200h105l-210 -304
h-72z" />
    <glyph glyph-name="scaron" unicode="&#x161;" horiz-adv-x="948" 
d="M474 -27q-82 0 -163 26q-88 27 -149.5 79.5t-81.5 124.5l78 30q21 -81 106 -129t210 -48q72 0 138 21t114 69.5t48 115.5q0 61 -39 99q-76 71 -265 105q-91 16 -189 48q-189 65 -189 238q0 89 56 156q54 63 140.5 98t185.5 35q142 0 253.5 -63t143.5 -168l-81 -28
q-22 82 -105.5 129t-210.5 47q-71 0 -137 -21t-114 -69.5t-48 -115.5t38 -103q36 -37 98.5 -58t166.5 -40q110 -21 183 -51q197 -79 197 -238q0 -90 -56 -155q-53 -63 -140 -98.5t-188 -35.5zM258 1590h106l143 -200l140 200h105l-210 -304h-72z" />
    <glyph glyph-name="uni0162" unicode="&#x162;" horiz-adv-x="1361" 
d="M689 -355q-65 -17 -124 18t-72 100l80 19q4 -34 32.5 -51.5t62.5 -8.5q33 8 48.5 33.5t5.5 55.5q-8 30 -35 45t-58 7l-97 -24l111 183v1299h-533v79h1151v-79h-536v-1302l9 -5l-45 -74q41 -11 71.5 -39.5t41.5 -68.5q17 -61 -16 -116t-97 -71z" />
    <glyph glyph-name="uni0163" unicode="&#x163;" horiz-adv-x="754" 
d="M563 -342q-65 -17 -124 18t-72 100l80 19q4 -34 32.5 -51.5t62.5 -8.5q33 8 48.5 33.5t5.5 55.5q-8 30 -35 45t-58 7l-97 -24l93 153q-83 17 -135.5 79.5t-52.5 146.5v696h-211v79h211v310h82v-11l1 -299h282v-79h-283v-696q0 -64 46 -108t113 -44q77 0 125 50v-95
q-36 -23 -83 -31l-31 -50q41 -11 71.5 -39.5t41.5 -68.5q17 -61 -16 -116t-97 -71z" />
    <glyph glyph-name="Tcaron" unicode="&#x164;" horiz-adv-x="1369" 
d="M651 0v1321h-533v79h1151v-79h-536v-1321h-82zM443 1977h106l143 -200l140 200h105l-210 -304h-72z" />
    <glyph glyph-name="tcaron" unicode="&#x165;" horiz-adv-x="754" 
d="M552 0q-102 0 -171.5 66.5t-69.5 164.5v696h-211v79h211v310h82v-11l1 -299h282v-79h-283v-696q0 -64 46 -108t113 -44q77 0 125 50v-95q-55 -34 -125 -34zM134 1679h106l143 -200l140 200h105l-210 -304h-72z" />
    <glyph glyph-name="Utilde" unicode="&#x168;" horiz-adv-x="1407" 
d="M708 -26q-175 0 -300 83q-123 81 -189.5 220t-66.5 309v814h82v-814q0 -238 127.5 -385.5t346.5 -147.5q221 0 348 142.5t127 390.5v814h82v-814q0 -178 -66.5 -316t-193.5 -217t-297 -79zM418 1748q-31 70 17.5 135.5t130.5 65.5q62 0 187 -78q40 -24 57.5 -34t45.5 -21
t48 -11q36 0 55.5 39.5t-0.5 61.5l79 24q29 -73 -19 -138.5t-132 -65.5q-26 0 -60 13.5t-52.5 24.5t-60.5 37q-105 69 -154 69q-37 0 -58 -30.5t-7 -70.5z" />
    <glyph glyph-name="utilde" unicode="&#x169;" horiz-adv-x="1092" 
d="M552 -26q-122 0 -223 58q-102 57 -160.5 153t-58.5 212v609h81v-609q0 -95 49 -172q49 -80 131 -126t181 -46q101 0 180 47q84 47 132 125t48 172v609h81v-1006h-81v153q-62 -83 -157 -131t-203 -48zM239 1339q-31 70 17.5 135.5t130.5 65.5q62 0 187 -78
q40 -24 57.5 -34t45.5 -21t48 -11q36 0 55.5 39t-0.5 62l79 24q29 -73 -19 -138.5t-132 -65.5q-26 0 -60 13.5t-52.5 24.5t-60.5 37q-105 69 -154 69q-37 0 -58 -30.5t-7 -70.5z" />
    <glyph glyph-name="Umacron" unicode="&#x16a;" horiz-adv-x="1407" 
d="M708 -26q-175 0 -300 83q-123 81 -189.5 220t-66.5 309v814h82v-814q0 -238 127.5 -385.5t346.5 -147.5q221 0 348 142.5t127 390.5v814h82v-814q0 -178 -66.5 -316t-193.5 -217t-297 -79zM377 1705v79h716v-79h-716z" />
    <glyph glyph-name="umacron" unicode="&#x16b;" horiz-adv-x="1092" 
d="M552 -26q-122 0 -223 58q-102 57 -160.5 153t-58.5 212v609h81v-609q0 -95 49 -172q49 -80 131 -126t181 -46q101 0 180 47q84 47 132 125t48 172v609h81v-1006h-81v153q-62 -83 -157 -131t-203 -48zM219 1334v79h716v-79h-716z" />
    <glyph glyph-name="Uring" unicode="&#x16e;" horiz-adv-x="1407" 
d="M708 -26q-175 0 -300 83q-123 81 -189.5 220t-66.5 309v814h82v-814q0 -238 127.5 -385.5t346.5 -147.5q221 0 348 142.5t127 390.5v814h82v-814q0 -178 -66.5 -316t-193.5 -217t-297 -79zM556 1839q0 60 44.5 103t107.5 43q62 0 107.5 -43.5t45.5 -102.5
q0 -61 -45.5 -104.5t-107.5 -43.5t-107 44t-45 104zM625 1839q0 -35 24 -58t59 -23q37 0 60 23t23 58q0 33 -23.5 55t-59.5 22q-35 0 -59 -22.5t-24 -54.5z" />
    <glyph glyph-name="uring" unicode="&#x16f;" horiz-adv-x="1092" 
d="M552 -26q-122 0 -223 58q-102 57 -160.5 153t-58.5 212v609h81v-609q0 -95 49 -172q49 -80 131 -126t181 -46q101 0 180 47q84 47 132 125t48 172v609h81v-1006h-81v153q-62 -83 -157 -131t-203 -48zM382 1432q0 60 44.5 103t107.5 43q62 0 107.5 -43.5t45.5 -102.5
q0 -61 -45.5 -104.5t-107.5 -43.5t-107 44t-45 104zM451 1432q0 -35 24 -58t59 -23q37 0 60 23t23 58q0 33 -23.5 55t-59.5 22q-35 0 -59 -22.5t-24 -54.5z" />
    <glyph glyph-name="Uhungarumlaut" unicode="&#x170;" horiz-adv-x="1407" 
d="M708 -26q-175 0 -300 83q-123 81 -189.5 220t-66.5 309v814h82v-814q0 -238 127.5 -385.5t346.5 -147.5q221 0 348 142.5t127 390.5v814h82v-814q0 -178 -66.5 -316t-193.5 -217t-297 -79zM430 1686l89 304h82l-110 -304h-61zM931 1686l89 304h82l-110 -304h-61z" />
    <glyph glyph-name="uhungarumlaut" unicode="&#x171;" horiz-adv-x="1092" 
d="M552 -26q-122 0 -223 58q-102 57 -160.5 153t-58.5 212v609h81v-609q0 -95 49 -172q49 -80 131 -126t181 -46q101 0 180 47q84 47 132 125t48 172v609h81v-1006h-81v153q-62 -83 -157 -131t-203 -48zM277 1297l89 304h82l-110 -304h-61zM778 1297l89 304h82l-110 -304
h-61z" />
    <glyph glyph-name="Uogonek" unicode="&#x172;" horiz-adv-x="1407" 
d="M708 -26q-56 0 -99 7l-45 -42q-90 -86 -103 -101q-16 -18 -20.5 -27.5t-4.5 -24.5q0 -29 19.5 -50t54.5 -23q43 0 74.5 29t27.5 77h81q4 -80 -50 -132.5t-135 -52.5q-66 1 -109.5 45t-43.5 107q0 62 45 107l117 111q-59 20 -109 53q-123 81 -189.5 220t-66.5 309v814h82
v-814q0 -238 127.5 -385.5t346.5 -147.5q221 0 348 142.5t127 390.5v814h82v-814q0 -178 -66.5 -316t-193.5 -217t-297 -79z" />
    <glyph glyph-name="uogonek" unicode="&#x173;" horiz-adv-x="1086" 
d="M552 -26q-122 0 -223 58q-102 57 -160.5 153t-58.5 212v609h81v-609q0 -95 49 -172q49 -80 131 -126t181 -46q101 0 180 47q84 47 132 125t48 172v609h81v-967l30 -29q-71 -68 -74 -71q-90 -86 -103 -101q-16 -18 -20.5 -27.5t-4.5 -24.5q0 -29 19.5 -50t54.5 -23
q43 0 74.5 29t27.5 77h81q4 -80 -50 -132.5t-135 -52.5q-66 1 -109.5 45t-43.5 107q0 62 45 107l127 121v139q-62 -83 -157 -131t-203 -48z" />
    <glyph glyph-name="Wcircumflex" unicode="&#x174;" horiz-adv-x="1669" 
d="M423 0l-374 1400h84l338 -1267l337 1267h65l339 -1267l336 1267h84l-372 -1400h-97l-322 1204l-322 -1204h-96zM608 1686l211 304h72l212 -304h-104l-145 200l-142 -200h-104z" />
    <glyph glyph-name="wcircumflex" unicode="&#x175;" horiz-adv-x="1687" 
d="M446 0l-353 1006h81l316 -895l314 895h93l314 -895l315 895h82l-352 -1006h-86l-321 907l-319 -907h-84zM621 1287l211 304h72l212 -304h-104l-145 200l-142 -200h-104z" />
    <glyph glyph-name="Ycircumflex" unicode="&#x176;" horiz-adv-x="1230" 
d="M582 0v634l-485 766h96l431 -680l431 680h96l-487 -766v-634h-82zM389 1686l211 304h72l212 -304h-104l-145 200l-142 -200h-104z" />
    <glyph glyph-name="ycircumflex" unicode="&#x177;" horiz-adv-x="1052" 
d="M295 -493l191 503l-372 996h89l324 -885l339 885h86l-571 -1499h-86zM283 1286l211 304h72l212 -304h-104l-145 200l-142 -200h-104z" />
    <glyph glyph-name="Ydieresis" unicode="&#x178;" horiz-adv-x="1230" 
d="M582 0v634l-485 766h96l431 -680l431 680h96l-487 -766v-634h-82zM421 1719q0 22 18.5 38.5t40.5 16.5q23 0 40.5 -16.5t17.5 -38.5q0 -23 -17.5 -38.5t-40.5 -15.5t-41 15.5t-18 38.5zM681 1719q0 22 18 38.5t42 16.5q21 0 39 -17t18 -38q0 -23 -17.5 -38.5t-39.5 -15.5
q-24 0 -42 15.5t-18 38.5z" />
    <glyph glyph-name="Zacute" unicode="&#x179;" horiz-adv-x="1395" 
d="M110 0v73l1074 1248h-1074v79h1185v-73l-1074 -1248h1074v-79h-1185zM643 1686l89 304h82l-110 -304h-61z" />
    <glyph glyph-name="zacute" unicode="&#x17a;" horiz-adv-x="1108" 
d="M110 0v73l784 854h-784v79h899v-73l-785 -854h785v-79h-899zM496 1275l89 304h82l-110 -304h-61z" />
    <glyph glyph-name="Zdotaccent" unicode="&#x17b;" horiz-adv-x="1395" 
d="M110 0v73l1074 1248h-1074v79h1185v-73l-1074 -1248h1074v-79h-1185zM651 1708q0 24 17 38.5t40 14.5t39.5 -15t16.5 -37q0 -23 -16.5 -38.5t-39.5 -15.5t-40 15.5t-17 37.5z" />
    <glyph glyph-name="zdotaccent" unicode="&#x17c;" horiz-adv-x="1108" 
d="M110 0v73l784 854h-784v79h899v-73l-785 -854h785v-79h-899zM512 1394q0 24 17 38.5t40 14.5t39.5 -15t16.5 -37q0 -23 -16.5 -38.5t-39.5 -15.5t-40 15.5t-17 37.5z" />
    <glyph glyph-name="Zcaron" unicode="&#x17d;" horiz-adv-x="1395" 
d="M110 0v73l1074 1248h-1074v79h1185v-73l-1074 -1248h1074v-79h-1185zM441 1973h106l143 -200l140 200h105l-210 -304h-72z" />
    <glyph glyph-name="zcaron" unicode="&#x17e;" horiz-adv-x="1108" 
d="M110 0v73l784 854h-784v79h899v-73l-785 -854h785v-79h-899zM332 1609h106l143 -200l140 200h105l-210 -304h-72z" />
    <glyph glyph-name="uni018F" unicode="&#x18f;" horiz-adv-x="1629" 
d="M820 1396q153 0 281 -52t216 -144t137 -221.5t49 -281.5t-49 -281.5t-137 -221.5t-216 -144t-281 -52q-204 0 -360 89t-240 247.5t-84 362.5v36h1294q-12 260 -178.5 423t-431.5 163q-192 0 -336 -90t-214 -247l-76 20q76 184 239.5 289t386.5 105zM212 662
q11 -260 177 -423.5t431 -163.5t431.5 163t178.5 424h-1218z" />
    <glyph glyph-name="uni0218" unicode="&#x218;" horiz-adv-x="1308" 
d="M659 -26q-116 0 -221 34q-114 35 -195 101t-109 155l76 29q36 -110 157 -175t292 -65q112 0 215 38q102 39 160 107t58 157q0 94 -61 152q-106 101 -373 150q-143 25 -259 65q-122 41 -187 117t-65 198q0 117 72 204q71 83 188.5 130t251.5 47q185 0 332 -79t197 -213
l-79 -26q-36 110 -157 174.5t-293 64.5q-114 0 -214 -38q-102 -39 -159.5 -107t-57.5 -157q0 -103 56 -157q51 -53 140.5 -83.5t236.5 -57.5q144 -26 249 -69q264 -103 264 -315q0 -116 -73 -203q-72 -84 -189 -131t-253 -47zM570 -493l89 304h82l-109 -304h-62z" />
    <glyph glyph-name="uni0219" unicode="&#x219;" horiz-adv-x="948" 
d="M474 -27q-82 0 -163 26q-88 27 -149.5 79.5t-81.5 124.5l78 30q21 -81 106 -129t210 -48q72 0 138 21t114 69.5t48 115.5q0 61 -39 99q-76 71 -265 105q-91 16 -189 48q-189 65 -189 238q0 89 56 156q54 63 140.5 98t185.5 35q142 0 253.5 -63t143.5 -168l-81 -28
q-22 82 -105.5 129t-210.5 47q-71 0 -137 -21t-114 -69.5t-48 -115.5t38 -103q36 -37 98.5 -58t166.5 -40q110 -21 183 -51q197 -79 197 -238q0 -90 -56 -155q-53 -63 -140 -98.5t-188 -35.5zM389 -493l89 304h82l-109 -304h-62z" />
    <glyph glyph-name="uni021A" unicode="&#x21a;" horiz-adv-x="1361" 
d="M643 0v1321h-533v79h1151v-79h-536v-1321h-82zM567 -493l89 304h82l-109 -304h-62z" />
    <glyph glyph-name="uni021B" unicode="&#x21b;" horiz-adv-x="754" 
d="M552 0q-102 0 -171.5 66.5t-69.5 164.5v696h-211v79h211v310h82v-11l1 -299h282v-79h-283v-696q0 -64 46 -108t113 -44q77 0 125 50v-95q-55 -34 -125 -34zM412 -493l89 304h82l-109 -304h-62z" />
    <glyph glyph-name="uni0237" unicode="&#x237;" horiz-adv-x="471" 
d="M-69 -414q138 -3 227.5 76t89.5 202v1142h81v-1142q0 -98 -51 -181q-52 -84 -142.5 -131t-204.5 -45v79z" />
    <glyph glyph-name="uni0259" unicode="&#x259;" horiz-adv-x="1226" 
d="M555 1031q232 0 375 -148t143 -381t-143 -380.5t-375 -147.5t-375 147.5t-143 380.5v40h952q-12 181 -130 293t-304 112q-141 0 -244.5 -67t-151.5 -183l-84 19q55 145 181.5 230t298.5 85zM122 463q12 -181 129.5 -293.5t303.5 -112.5t304 112.5t130 293.5h-867z" />
    <glyph glyph-name="circumflex" unicode="&#x2c6;" horiz-adv-x="571" 
d="M47 2286l211 304h72l212 -304h-104l-145 200l-142 -200h-104z" />
    <glyph glyph-name="caron" unicode="&#x2c7;" horiz-adv-x="517" 
d="M223 1686l-212 304h106l143 -200l140 200h105l-210 -304h-72z" />
    <glyph glyph-name="breve" unicode="&#x2d8;" horiz-adv-x="1236" 
d="M618 1664q-96 0 -177 46q-83 47 -130.5 127t-44.5 174h82q-3 -77 36 -140q40 -60 101.5 -94t132.5 -34q116 0 195 78t75 190h81q2 -102 -49 -181q-50 -77 -130 -121.5t-172 -44.5z" />
    <glyph glyph-name="dotaccent" unicode="&#x2d9;" horiz-adv-x="996" 
d="M506 2385q-23 0 -40 15.5t-17 37.5q0 24 17 38.5t40 14.5t39.5 -15t16.5 -37q0 -23 -16.5 -38.5t-39.5 -15.5z" />
    <glyph glyph-name="ring" unicode="&#x2da;" horiz-adv-x="1188" 
d="M601 2291q-62 0 -107 44t-45 104t44.5 103t107.5 43q62 0 107.5 -43.5t45.5 -102.5q0 -61 -45.5 -104.5t-107.5 -43.5zM518 2439q0 -35 24 -58t59 -23q37 0 60 23t23 58q0 33 -23.5 55t-59.5 22q-35 0 -59 -22.5t-24 -54.5z" />
    <glyph glyph-name="ogonek" unicode="&#x2db;" horiz-adv-x="997" 
d="M482 -366q-66 1 -109.5 45t-43.5 107q0 62 45 107l181 172l57 -55q-71 -68 -74 -71q-90 -86 -103 -101q-16 -18 -20.5 -27.5t-4.5 -24.5q0 -29 19.5 -50t54.5 -23q43 0 74.5 29t27.5 77h81q4 -80 -50 -132.5t-135 -52.5z" />
    <glyph glyph-name="tilde" unicode="&#x2dc;" horiz-adv-x="1262" 
d="M789 2356q-26 0 -60 13.5t-52.5 24.5t-60.5 37q-105 69 -154 69q-37 0 -58 -30.5t-7 -70.5l-77 -21q-31 70 17.5 135.5t130.5 65.5q62 0 187 -78q40 -24 57.5 -34t45.5 -21t48 -11q36 0 55.5 39.5t-0.5 61.5l79 24q29 -73 -19 -138.5t-132 -65.5z" />
    <glyph glyph-name="hungarumlaut" unicode="&#x2dd;" horiz-adv-x="874" 
d="M648 2286l89 304h82l-110 -304h-61zM147 2286l89 304h82l-110 -304h-61z" />
    <glyph glyph-name="gravecomb" unicode="&#x300;" horiz-adv-x="0" 
d="M335 1686l-111 304h84l87 -304h-60z" />
    <glyph glyph-name="acutecomb" unicode="&#x301;" horiz-adv-x="0" 
d="M224 1686l89 304h82l-110 -304h-61z" />
    <glyph glyph-name="uni0302" unicode="&#x302;" horiz-adv-x="0" 
d="M28 1686l211 304h72l212 -304h-104l-145 200l-142 -200h-104z" />
    <glyph glyph-name="tildecomb" unicode="&#x303;" horiz-adv-x="0" 
d="M808 1726q-26 0 -60 13.5t-52.5 24.5t-60.5 37q-105 69 -154 69q-37 0 -58 -30.5t-7 -70.5l-77 -21q-31 70 17.5 135.5t130.5 65.5q62 0 187 -78q40 -24 57.5 -34t45.5 -21t48 -11q36 0 55.5 39.5t-0.5 61.5l79 24q29 -73 -19 -138.5t-132 -65.5z" />
    <glyph glyph-name="uni0304" unicode="&#x304;" horiz-adv-x="0" 
d="M303 2365v79h716v-79h-716z" />
    <glyph glyph-name="uni0306" unicode="&#x306;" horiz-adv-x="0" 
d="M631 2264q-96 0 -177 46q-83 47 -130.5 127t-44.5 174h82q-3 -77 36 -140q40 -60 101.5 -94t132.5 -34q116 0 195 78t75 190h81q2 -102 -49 -181q-50 -77 -130 -121.5t-172 -44.5z" />
    <glyph glyph-name="uni0307" unicode="&#x307;" horiz-adv-x="0" 
d="M490 1785q-23 0 -40 15.5t-17 37.5q0 24 17 38.5t40 14.5t39.5 -15t16.5 -37q0 -23 -16.5 -38.5t-39.5 -15.5z" />
    <glyph glyph-name="uni0308" unicode="&#x308;" horiz-adv-x="0" 
d="M753 1665q-24 0 -42 15.5t-18 38.5q0 22 18 38.5t42 16.5q21 0 39 -17t18 -38q0 -23 -17.5 -38.5t-39.5 -15.5zM433 1719q0 22 18.5 38.5t40.5 16.5q23 0 40.5 -16.5t17.5 -38.5q0 -23 -17.5 -38.5t-40.5 -15.5t-41 15.5t-18 38.5z" />
    <glyph glyph-name="uni030A" unicode="&#x30a;" horiz-adv-x="0" 
d="M585 1691q-62 0 -107 44t-45 104t44.5 103t107.5 43q62 0 107.5 -43.5t45.5 -102.5q0 -61 -45.5 -104.5t-107.5 -43.5zM502 1839q0 -35 24 -58t59 -23q37 0 60 23t23 58q0 33 -23.5 55t-59.5 22q-35 0 -59 -22.5t-24 -54.5z" />
    <glyph glyph-name="uni030B" unicode="&#x30b;" horiz-adv-x="0" 
d="M648 1686l89 304h82l-110 -304h-61zM147 1686l89 304h82l-110 -304h-61z" />
    <glyph glyph-name="uni030C" unicode="&#x30c;" horiz-adv-x="0" 
d="M242 2286l-212 304h106l143 -200l140 200h105l-210 -304h-72z" />
    <glyph glyph-name="dotbelowcomb" unicode="&#x323;" horiz-adv-x="0" 
d="M506 216q-23 0 -40 15.5t-17 37.5q0 24 17 38.5t40 14.5t39.5 -15t16.5 -37q0 -23 -16.5 -38.5t-39.5 -15.5z" />
    <glyph glyph-name="uni0326" unicode="&#x326;" horiz-adv-x="0" 
d="M556 -493l89 304h82l-109 -304h-62z" />
    <glyph glyph-name="uni0327" unicode="&#x327;" horiz-adv-x="0" 
d="M629 -355q-65 -17 -124 18t-72 100l80 19q4 -34 32.5 -51.5t62.5 -8.5q33 8 48.5 33.5t5.5 55.5q-8 30 -35 45t-58 7l-97 -24l130 214l72 -39l-45 -74q41 -11 71.5 -39.5t41.5 -68.5q17 -61 -16 -116t-97 -71z" />
    <glyph glyph-name="uni0328" unicode="&#x328;" horiz-adv-x="0" 
d="M496 -366q-66 1 -109.5 45t-43.5 107q0 62 45 107l181 172l57 -55q-71 -68 -74 -71q-90 -86 -103 -101q-16 -18 -20.5 -27.5t-4.5 -24.5q0 -29 19.5 -50t54.5 -23q43 0 74.5 29t27.5 77h81q4 -80 -50 -132.5t-135 -52.5z" />
    <glyph glyph-name="uni03BC" unicode="&#x3bc;" horiz-adv-x="1081" 
d="M99 -426v1432h81v-550q0 -113 50 -203q50 -94 132 -147t180 -53q99 0 179 55q84 55 132 146.5t48 201.5v550h81v-1006h-81v179q-65 -97 -158 -151t-201 -54q-112 0 -206.5 55.5t-155.5 149.5v-605h-81z" />
    <glyph glyph-name="uni1E20" unicode="&#x1e20;" horiz-adv-x="1520" 
d="M824 -29q-216 0 -378.5 92t-249 257t-86.5 380t86.5 380t249 257t378.5 92q198 0 351.5 -77.5t244.5 -219.5l-79 -40q-83 121 -216 188t-303 67q-284 0 -458.5 -181t-174.5 -467t174.5 -467t458.5 -181q165 0 295.5 64t215.5 180v399h-635v79h716v-500h-8l8 -15
q-93 -137 -244.5 -212t-345.5 -75zM424 1696v79h716v-79h-716z" />
    <glyph glyph-name="uni1E21" unicode="&#x1e21;" horiz-adv-x="1267" 
d="M627 -508q-169 0 -311.5 108t-177.5 261h1l74 32q25 -131 146 -226.5t268 -95.5q106 0 203 52.5t155.5 140t58.5 182.5v256q-66 -108 -179 -168t-258 -60q-232 0 -375 148t-143 381t143 380.5t375 147.5q145 0 258 -60t179 -167v202h81v-1060q0 -117 -70.5 -222.5
t-186 -168.5t-241.5 -63zM171 503q0 -197 119.5 -321t316.5 -124q196 0 315.5 124t119.5 321t-119.5 321t-315.5 124t-316 -124t-120 -321zM277 1318v79h716v-79h-716z" />
    <glyph glyph-name="Wgrave" unicode="&#x1e80;" horiz-adv-x="1669" 
d="M423 0l-374 1400h84l338 -1267l337 1267h65l339 -1267l336 1267h84l-372 -1400h-97l-322 1204l-322 -1204h-96zM704 1990h84l87 -304h-60z" />
    <glyph glyph-name="wgrave" unicode="&#x1e81;" horiz-adv-x="1687" 
d="M446 0l-353 1006h81l316 -895l314 895h93l314 -895l315 895h82l-352 -1006h-86l-321 907l-319 -907h-84zM730 1589h84l87 -304h-60z" />
    <glyph glyph-name="Wacute" unicode="&#x1e82;" horiz-adv-x="1669" 
d="M423 0l-374 1400h84l338 -1267l337 1267h65l339 -1267l336 1267h84l-372 -1400h-97l-322 1204l-322 -1204h-96zM783 1686l89 304h82l-110 -304h-61z" />
    <glyph glyph-name="wacute" unicode="&#x1e83;" horiz-adv-x="1687" 
d="M446 0l-353 1006h81l316 -895l314 895h93l314 -895l315 895h82l-352 -1006h-86l-321 907l-319 -907h-84zM779 1275l89 304h82l-110 -304h-61z" />
    <glyph glyph-name="Wdieresis" unicode="&#x1e84;" horiz-adv-x="1669" 
d="M423 0l-374 1400h84l338 -1267l337 1267h65l339 -1267l336 1267h84l-372 -1400h-97l-322 1204l-322 -1204h-96zM655 1719q0 22 18.5 38.5t40.5 16.5q23 0 40.5 -16.5t17.5 -38.5q0 -23 -17.5 -38.5t-40.5 -15.5t-41 15.5t-18 38.5zM915 1719q0 22 18 38.5t42 16.5
q21 0 39 -17t18 -38q0 -23 -17.5 -38.5t-39.5 -15.5q-24 0 -42 15.5t-18 38.5z" />
    <glyph glyph-name="wdieresis" unicode="&#x1e85;" horiz-adv-x="1687" 
d="M446 0l-353 1006h81l316 -895l314 895h93l314 -895l315 895h82l-352 -1006h-86l-321 907l-319 -907h-84zM665 1332q0 22 18.5 38.5t40.5 16.5q23 0 40.5 -16.5t17.5 -38.5q0 -23 -17.5 -38.5t-40.5 -15.5t-41 15.5t-18 38.5zM925 1332q0 22 18 38.5t42 16.5q21 0 39 -17
t18 -38q0 -23 -17.5 -38.5t-39.5 -15.5q-24 0 -42 15.5t-18 38.5z" />
    <glyph glyph-name="uni1E9E" unicode="&#x1e9e;" horiz-adv-x="1280" 
d="M446 100q167 -37 297.5 -8.5t210.5 115t80 202.5q0 77 -23 137.5t-59 97t-84.5 60t-94.5 32.5t-95 9h-232v84h226q125 0 201 64t76 200q0 117 -60 182t-178 65h-465v-1526h-91v1610h556q69 0 127 -19t104.5 -57.5t72.5 -103.5t26 -151q0 -109 -39.5 -181.5t-124.5 -121.5
q122 -48 184.5 -138.5t62.5 -242.5q0 -91 -29.5 -163.5t-78.5 -117.5t-112 -76t-128.5 -43.5t-129.5 -15.5t-115 3t-85 18v86z" />
    <glyph glyph-name="uni1EBC" unicode="&#x1ebc;" horiz-adv-x="1183" 
d="M152 0v1400h911v-79h-829v-549h710v-79h-710v-614h829v-79h-911zM304 1687q-31 70 17.5 135.5t130.5 65.5q62 0 187 -78q40 -24 57.5 -34t45.5 -21t48 -11q36 0 55.5 39t-0.5 62l79 24q29 -73 -19 -138.5t-132 -65.5q-26 0 -60 13.5t-52.5 24.5t-60.5 37q-105 69 -154 69
q-37 0 -58 -30.5t-7 -70.5z" />
    <glyph glyph-name="uni1EBD" unicode="&#x1ebd;" 
d="M607 -26q-232 0 -375 148t-143 381t143 380.5t375 147.5t375 -147.5t143 -380.5v-40h-952q12 -181 130 -293t304 -112q141 0 244.5 67t151.5 183l84 -19q-55 -145 -181.5 -230t-298.5 -85zM173 542h867q-12 181 -129.5 293.5t-303.5 112.5t-304 -112.5t-130 -293.5z
M297 1300q-31 70 17.5 135.5t130.5 65.5q62 0 187 -78q40 -24 57.5 -34t45.5 -21t48 -11q36 0 55.5 39.5t-0.5 61.5l79 24q29 -73 -19 -138.5t-132 -65.5q-26 0 -60 13.5t-52.5 24.5t-60.5 37q-105 69 -154 69q-37 0 -58 -30.5t-7 -70.5z" />
    <glyph glyph-name="Ygrave" unicode="&#x1ef2;" horiz-adv-x="1230" 
d="M582 0v634l-485 766h96l431 -680l431 680h96l-487 -766v-634h-82zM482 1990h84l87 -304h-60z" />
    <glyph glyph-name="ygrave" unicode="&#x1ef3;" horiz-adv-x="1052" 
d="M295 -493l191 503l-372 996h89l324 -885l339 885h86l-571 -1499h-86zM440 1569h84l87 -304h-60z" />
    <glyph glyph-name="uni1EF8" unicode="&#x1ef8;" horiz-adv-x="1230" 
d="M582 0v634l-485 766h96l431 -680l431 680h96l-487 -766v-634h-82zM303 1729q-31 70 17.5 135.5t130.5 65.5q62 0 187 -78q40 -24 57.5 -34t45.5 -21t48 -11q36 0 55.5 39t-0.5 62l79 24q29 -73 -19 -138.5t-132 -65.5q-26 0 -60 13.5t-52.5 24.5t-60.5 37
q-105 69 -154 69q-37 0 -58 -30.5t-7 -70.5z" />
    <glyph glyph-name="uni1EF9" unicode="&#x1ef9;" horiz-adv-x="1052" 
d="M295 -493l191 503l-372 996h89l324 -885l339 885h86l-571 -1499h-86zM262 1312q-31 70 17.5 135.5t130.5 65.5q62 0 187 -78q40 -24 57.5 -34t45.5 -21t48 -11q36 0 55.5 39.5t-0.5 61.5l79 24q29 -73 -19 -138.5t-132 -65.5q-26 0 -60 13.5t-52.5 24.5t-60.5 37
q-105 69 -154 69q-37 0 -58 -30.5t-7 -70.5z" />
    <glyph glyph-name="endash" unicode="&#x2013;" horiz-adv-x="1332" 
d="M140 562v79h1050v-79h-1050z" />
    <glyph glyph-name="emdash" unicode="&#x2014;" horiz-adv-x="2157" 
d="M140 562v79h1875v-79h-1875z" />
    <glyph glyph-name="quoteleft" unicode="&#x2018;" horiz-adv-x="430" 
d="M228 866l-88 534h82l67 -534h-61z" />
    <glyph glyph-name="quoteright" unicode="&#x2019;" horiz-adv-x="284" 
d="M57 866l66 534h82l-87 -534h-61z" />
    <glyph glyph-name="quotesinglbase" unicode="&#x201a;" horiz-adv-x="320" 
d="M45 -110l67 353h83l-90 -353h-60z" />
    <glyph glyph-name="quotedblleft" unicode="&#x201c;" horiz-adv-x="604" 
d="M210 866l87 534h61l-67 -534h-81zM742 874l87 534h61l-67 -534h-81z" />
    <glyph glyph-name="quotedblright" unicode="&#x201d;" horiz-adv-x="604" 
d="M69 866l66 534h82l-87 -534h-61zM601 866l66 534h82l-87 -534h-61z" />
    <glyph glyph-name="quotedblbase" unicode="&#x201e;" horiz-adv-x="529" 
d="M45 -110l67 353h83l-90 -353h-60zM519 -110l67 353h83l-90 -353h-60z" />
    <glyph glyph-name="dagger" unicode="&#x2020;" horiz-adv-x="812" 
d="M364 592v532h-265v79h265v296h82v-296h266v-79h-266v-532h-82z" />
    <glyph glyph-name="daggerdbl" unicode="&#x2021;" horiz-adv-x="812" 
d="M364 552v258h-265v77h265v237h-265v79h265v296h82v-296h266v-79h-266v-237h266v-77h-266v-258h-82z" />
    <glyph glyph-name="bullet" unicode="&#x2022;" horiz-adv-x="342" 
d="M168 532q-29 0 -49 20.5t-20 50.5q0 28 20 47.5t49 19.5q31 0 52.5 -19.5t21.5 -47.5q0 -31 -21 -51t-53 -20z" />
    <glyph glyph-name="ellipsis" unicode="&#x2026;" horiz-adv-x="1560" 
d="M164 -26q-22 0 -38 16.5t-16 39.5q0 22 16 37.5t38 15.5q25 0 41.5 -15.5t16.5 -37.5q0 -23 -16.5 -39.5t-41.5 -16.5zM723 30q0 22 16 37.5t38 15.5q25 0 41.5 -15.5t16.5 -37.5q0 -23 -16.5 -39.5t-41.5 -16.5q-22 0 -38 16.5t-16 39.5zM1337 30q0 22 16 37.5t38 15.5
q25 0 41.5 -15.5t16.5 -37.5q0 -23 -16.5 -39.5t-41.5 -16.5q-22 0 -38 16.5t-16 39.5z" />
    <glyph glyph-name="guilsinglleft" unicode="&#x2039;" horiz-adv-x="688" 
d="M459 257l-319 345l319 344h109l-318 -344l318 -345h-109z" />
    <glyph glyph-name="guilsinglright" unicode="&#x203a;" horiz-adv-x="688" 
d="M120 257l318 345l-318 344h109l318 -344l-318 -345h-109z" />
    <glyph glyph-name="fraction" unicode="&#x2044;" horiz-adv-x="523" 
d="M-208 0l843 1400h96l-844 -1400h-95z" />
    <glyph glyph-name="Euro" unicode="&#x20ac;" horiz-adv-x="1291" 
d="M1191 -12q-144 -32 -281 -1.5t-248.5 103.5t-192 188t-113.5 252h-257v79h245v182h-245v79h257q46 185 171 323t301 198.5t363 22.5v-79q-257 54 -469 -82t-281 -383h387v-79h-401v-182h401v-79h-387q44 -164 156.5 -282.5t269 -167t324.5 -13.5v-79z" />
    <glyph glyph-name="trademark" unicode="&#x2122;" horiz-adv-x="1481" 
d="M379 662v696h-281v42h607v-42h-283v-696h-43zM731 662v738h41l281 -579l281 579h40v-738h-43l-1 620l-265 -548h-25l-265 548l-1 -620h-43z" />
    <glyph glyph-name="arrowleft" unicode="&#x2190;" horiz-adv-x="1439" 
d="M593 276l-494 473l494 473l58 -55l-397 -378h1086v-79h-1086l397 -379z" />
    <glyph glyph-name="arrowup" unicode="&#x2191;" horiz-adv-x="1188" 
d="M555 156v1042l-398 -382l-58 58l496 473l493 -473l-56 -58l-397 382v-1042h-80z" />
    <glyph glyph-name="arrowright" unicode="&#x2192;" horiz-adv-x="1440" 
d="M843 276l-56 55l396 379h-1084v79h1084l-396 378l56 56l498 -474z" />
    <glyph glyph-name="arrowdown" unicode="&#x2193;" horiz-adv-x="1188" 
d="M593 154l-494 473l56 55l398 -379v1038h80v-1038l399 379l56 -55z" />
    <glyph glyph-name="arrowboth" unicode="&#x2194;" horiz-adv-x="1671" 
d="M593 276l-494 473l494 473l58 -55l-397 -378h1159l-395 378l56 56l498 -474l-498 -473l-56 55l395 379h-1159l397 -379z" />
    <glyph glyph-name="arrowupdn" unicode="&#x2195;" horiz-adv-x="1188" 
d="M593 44l-494 474l56 58l398 -383v1113l-398 -381l-56 57l494 473l495 -473l-58 -57l-397 381v-1113l397 383l58 -57z" />
    <glyph glyph-name="uni2196" unicode="&#x2196;" horiz-adv-x="1106" 
d="M950 314l-770 734v-537h-81v670h699v-79h-558l766 -733z" />
    <glyph glyph-name="uni2197" unicode="&#x2197;" horiz-adv-x="1104" 
d="M155 314l-56 55l765 733h-559v79h700v-670h-82v537z" />
    <glyph glyph-name="uni2198" unicode="&#x2198;" horiz-adv-x="1104" 
d="M305 317v79h559l-765 734l56 55l768 -734v537h82v-671h-700z" />
    <glyph glyph-name="uni2199" unicode="&#x2199;" horiz-adv-x="1105" 
d="M99 317v671h81v-537l767 734l59 -55l-768 -734h560v-79h-699z" />
    <glyph glyph-name="partialdiff" unicode="&#x2202;" horiz-adv-x="1252" 
d="M625 -26q-141 0 -264 69q-121 69 -191.5 184t-70.5 252q0 138 70 254t191 183.5t265 67.5q125 0 233.5 -51t182.5 -140q-31 124 -91.5 233.5t-143.5 193.5t-192 132t-227 46v79q157 2 296.5 -71t247.5 -208q105 -133 162.5 -306t58.5 -367q0 -165 -65 -286
q-68 -126 -187 -195.5t-275 -69.5zM180 479q0 -114 59 -212q63 -99 163.5 -156.5t222.5 -57.5q127 0 229 60q103 61 161.5 157t58.5 209q0 117 -61 214q-61 99 -162.5 155.5t-225.5 56.5q-126 0 -226 -59q-102 -59 -160.5 -156t-58.5 -211z" />
    <glyph glyph-name="emptyset" unicode="&#x2205;" horiz-adv-x="1248" 
d="M340 -43l-71 39l49 78q-101 74 -160 187t-59 242q0 145 70.5 267t191 192.5t263.5 70.5q133 0 237 -56l48 75l70 -39l-47 -78q101 -73 159 -186t58 -246q0 -220 -153.5 -374.5t-371.5 -154.5q-117 0 -237 59zM180 503q0 -109 48 -202.5t131 -156.5l461 765
q-86 44 -179 48.5t-173.5 -29.5t-146 -93.5t-103.5 -146.5t-38 -185zM427 101q88 -45 182 -49t174.5 29.5t145 92.5t101.5 145.5t37 183.5q0 109 -47 204t-129 158z" />
    <glyph glyph-name="minus" unicode="&#x2212;" horiz-adv-x="1248" 
d="M99 562v79h1050v-79h-1050z" />
    <glyph glyph-name="radical" unicode="&#x221a;" horiz-adv-x="1335" 
d="M371 0l-272 718h86l225 -586l483 1268h342v-79h-285l-505 -1321h-74z" />
    <glyph glyph-name="infinity" unicode="&#x221e;" horiz-adv-x="1530" 
d="M382 335q-125 15 -204 99.5t-79 198.5q0 118 80 203t204 95q87 0 149 -27q54 -23 103.5 -70t130.5 -140q56 67 114 125q57 57 114 84.5t127 27.5q143 -10 226.5 -92.5t83.5 -205.5q0 -116 -79.5 -200t-201.5 -98q-85 0 -145 24q-53 21 -105.5 69.5t-133.5 144.5
q-71 -81 -122 -131q-56 -57 -116 -82t-146 -25zM180 633q0 -87 59.5 -147t147.5 -72q71 0 116 20q28 12 62 42t58.5 56.5t88.5 100.5q-97 108 -121 134q-47 49 -89.5 67t-114.5 18q-90 -10 -148.5 -72t-58.5 -147zM818 633q54 -60 77.5 -86t52 -53.5t49.5 -41.5
q53 -38 145 -38q90 11 148.5 72.5t58.5 146.5q0 90 -60 149.5t-169 69.5q-58 0 -101 -22q-26 -14 -59.5 -44.5t-56 -55.5t-85.5 -97z" />
    <glyph glyph-name="integral" unicode="&#x222b;" horiz-adv-x="802" 
d="M231 -26q-62 2 -102.5 50.5t-26.5 110.5l81 -8q-8 -28 7.5 -48t48.5 -26q26 -2 44.5 13t22.5 42l108 1193q7 59 51 93.5t105 31.5q62 -5 101.5 -51.5t29.5 -109.5l-79 8q6 30 -11.5 51.5t-47.5 22.5q-28 4 -47.5 -13.5t-20.5 -40.5l-108 -1191q-14 -123 -156 -128z" />
    <glyph glyph-name="approxequal" unicode="&#x2248;" horiz-adv-x="1249" 
d="M830 678q-34 0 -71 10.5t-82.5 34t-73 39.5t-80.5 50q-63 40 -94.5 59t-77 37.5t-76.5 17.5q-85 2 -133 -62t-21 -146l-79 -18q-26 76 1 149q28 69 91 113.5t143 44.5q41 0 90 -18.5t86.5 -40.5t107.5 -67q124 -78 177 -100q54 -22 94 -22q86 0 135.5 62t20.5 139l79 24
q29 -83 -3 -154q-29 -68 -93 -110t-141 -42zM42 179q-26 76 1 149q28 69 91 113.5t143 44.5q41 0 90 -18.5t86.5 -40.5t107.5 -67q124 -78 177 -100q54 -22 94 -22q86 0 135.5 62t20.5 139l79 24q29 -83 -3 -154q-29 -68 -93 -110t-141 -42q-34 0 -71 10.5t-82.5 34
t-73 39.5t-80.5 50q-63 40 -94.5 59t-77 37.5t-76.5 17.5q-85 2 -133 -62t-21 -146z" />
    <glyph glyph-name="notequal" unicode="&#x2260;" horiz-adv-x="1248" 
d="M402 18l109 355h-412v79h435l93 299h-528v79h552l108 355h84l-107 -355h413v-79h-437l-92 -299h529v-79h-553l-109 -355h-85z" />
    <glyph glyph-name="lessequal" unicode="&#x2264;" horiz-adv-x="1248" 
d="M1149 340l-1050 285v108l1050 288v-84l-947 -257l947 -258v-82zM99 0v79h1050v-79h-1050z" />
    <glyph glyph-name="greaterequal" unicode="&#x2265;" horiz-adv-x="1248" 
d="M99 340v82l947 258l-947 257v84l1050 -288v-108zM99 0v79h1050v-79h-1050z" />
    <glyph glyph-name="uniA78B" unicode="&#xa78b;" horiz-adv-x="225" 
d="M67 1443h90l-8 -501h-74z" />
    <glyph glyph-name="uniA78C" unicode="&#xa78c;" horiz-adv-x="225" 
d="M67 1443h90l-8 -501h-74z" />
    <glyph glyph-name="uni004A0301" horiz-adv-x="1323" 
d="M623 -26q-175 0 -302 83q-125 82 -190.5 223.5t-63.5 315.5h81q-2 -243 125.5 -393t349.5 -150q220 0 347 142.5t127 390.5v814h82v-814q0 -271 -150.5 -441.5t-405.5 -170.5zM1113 1686l89 304h82l-110 -304h-61z" />
    <glyph glyph-name="i.loclTRK" horiz-adv-x="370" 
d="M156 0v1006h82v-1006h-82zM144 1387q0 24 17 38.5t40 14.5t39.5 -15t16.5 -37q0 -23 -16.5 -38.5t-39.5 -15.5t-40 15.5t-17 37.5z" />
    <glyph glyph-name="uni006A0301" horiz-adv-x="482" 
d="M-60 -414q138 -3 227.5 76t89.5 202v1142h81v-1142q0 -98 -51 -181q-52 -84 -142.5 -131t-204.5 -45v79zM259 1286l89 304h82l-110 -304h-61z" />
    <glyph glyph-name="_Designova" horiz-adv-x="1401" 
d="M699 38q-162 0 -300 81t-218.5 219.5t-80.5 300.5q1 122 48.5 233t128 191t191.5 127.5t233 47.5t233 -47.5t191.5 -127.5t128 -191t47.5 -233q0 -163 -80.5 -301.5t-219.5 -219t-302 -80.5zM172 639q0 -108 42 -206t112.5 -168.5t168.5 -112.5t206 -42q143 0 264.5 70.5
t192.5 192t71 265.5t-70.5 266t-191.5 192.5t-265 70.5t-266 -70.5t-193 -192t-71 -265.5zM360 744q8 0 12 -4q53 -20 107 -29q43 -4 76 3q24 4 49 13q4 0 10.5 3.5t7.5 3.5l-17 8.5t-17.5 9t-15 10t-14.5 13.5h20q37 0 80 18q77 48 147 68q30 9 61 9q6 0 23 1.5t25 0.5
q62 -4 94 -36q7 -5 31 -34v-2q-3 2 -6 2q-50 19 -89.5 4.5t-66.5 -55.5q-6 -11 -15.5 -33.5t-12.5 -29.5q-5 -12 -15 -36.5t-19 -44.5t-17 -37q-31 -65 -69 -111q-17 -23 -68 -61q-51 -36 -127 -59h-6l26 23q16 15 28 47q8 25 24.5 71t23.5 68q31 89 60 139v1q-1 -2 -4.5 -6
t-5.5 -6q-8 -8 -10 -15q-21 -24 -35 -60q-3 -5 -9 -5q-110 5 -190 73q-1 1 -61 58q-5 7 -15 17z" />
    <glyph glyph-name="_Origin" horiz-adv-x="1874" 
d="M100 40v1150h1674v-1149l-43 -1v1zM143 82h1588v625h-1588v-625zM289 224v128h30v-128h-30zM293 884h68q60 0 84 40q11 19 11 46q0 55 -44 75q-19 11 -49 11h-70v-172zM312 439v127h107v-23h-77v-28h70v-22h-70v-31h77v-23h-107zM333 916v108h27q37 0 49 -23q7 -19 7 -31
q0 -36 -26 -48q-10 -6 -31 -6h-26zM339 224v128h25l64 -77v77h29v-128h-24l-63 79v-79h-31zM440 439v127h25l64 -76v76h29v-127h-25l-63 78v-78h-30zM472 948q0 -44 33 -58q13 -7 39 -7q35 0 54 17q9 12 12 22l-38 1q-3 -9 -16 -13q-2 0 -5.5 -0.5t-6.5 -0.5q-22 0 -29 15
q-5 8 -5 15h100v11q0 32 -20 49q-19 16 -48 16q-43 0 -63 -32q-7 -17 -7 -35zM510 962q1 12 15 22q8 5 17 5q21 0 26 -16q4 -5 4 -11h-62zM524 224v128h63q52 0 52 -32q0 -20 -18 -29q2 0 2 -2q20 -7 20 -30q0 -35 -51 -35h-68zM554 247h35q24 0 24 16q0 15 -24 15h-35v-31z
M554 303h31q24 0 24 14q0 16 -24 16h-31v-30zM579 543v23h112v-23h-41v-104h-29v104h-42zM621 922q6 -39 67 -39q39 0 57 20q7 11 7 21q0 26 -41 35l-28 5q-18 3 -18 13q0 12 23 12t23 -14l38 2q-7 38 -62 38q-38 0 -54 -19q-8 -8 -8 -21q0 -28 41 -37l26 -5q19 -3 19 -12
q0 -14 -23 -14q-24 0 -27 16zM657 224v128h107v-24h-78v-27h70v-23h-70v-29h76v-25h-105zM704 566h32l29 -89l30 89h27l29 -90l31 90h28l-41 -127h-33l-28 87l-29 -87h-31zM767 1047q0 -7 7 -12.5t15 -5.5q9 0 15.5 5.5t6.5 12.5t-6.5 12.5t-15.5 5.5q-8 0 -15 -5.5
t-7 -12.5zM768 884h41v129h-41v-129zM784 224v128h59q19 0 29 -5q27 -12 27 -41q0 -14 -7 -24q-11 -13 -21 -18l27 -40h-32l-25 37h-26v-37h-31zM815 285h26q28 0 28 21q0 22 -28 22h-26v-43zM827 949q0 -42 30 -56q12 -6 30 -6q21 0 33 10q7 5 7 10h2v-23q0 -24 -30 -24
q-18 0 -25 7q-2 1 -5 8l-37 -6q3 -15 20 -25t46 -10q43 0 62 22q10 10 10 27v130h-40v-21h-3q-4 13 -21 19q-10 4 -19 4q-35 0 -52 -29q-8 -16 -8 -37zM869 949q0 24 12 33q10 5 18 5q19 0 28 -19q0 -2 1.5 -8.5t1.5 -10.5q0 -36 -31 -36q-18 0 -28 18q-2 10 -2 18zM913 224
v128h29v-103h76v-25h-105zM915 503q0 27 20 47q19 19 50 19q33 0 51 -19q20 -20 20 -47q0 -25 -20 -47q-18 -19 -50 -19t-51 19q-20 22 -20 47zM946 503q0 -18 11 -29.5t28 -11.5q18 0 29 11.5t11 29.5q0 19 -11 30.5t-29 11.5q-17 0 -28 -11.5t-11 -30.5zM993 884h41v75
q0 17 13 23q5 3 14 3q25 0 25 -25v-76h42v82q0 31 -24 42q-11 7 -27 7q-31 0 -43 -25h-1v23h-40v-129zM1039 224v128h30v-128h-30zM1073 439v127h57q22 0 30 -3q26 -14 26 -42q0 -15 -7 -25q-6 -10 -21 -17l28 -40h-32l-25 36h-28v-36h-28zM1090 224v128h25l63 -77v77h31
v-128h-25l-64 79v-79h-30zM1101 499h27q28 0 28 22t-28 22h-27v-44zM1145 948q0 -39 34 -58q12 -7 38 -7q42 0 64 31q8 14 8 34q0 39 -33 59q-19 8 -39 8q-44 0 -63 -32q-9 -18 -9 -35zM1187 949q0 24 13 33q6 5 17 5q19 0 27 -19q3 -7 3 -19q0 -24 -13 -34q-8 -5 -17 -5
q-19 0 -28 20q-2 10 -2 19zM1201 439v127h107v-23h-77v-28h69v-22h-69v-54h-30zM1227 242q0 17 19 17q7 0 12 -5t5 -12q0 -6 -5 -19l-11 -27h-18l9 30q-11 4 -11 16zM1290 1013l51 -129h45l52 129h-42l-31 -91h-1l-31 91h-43zM1319 439v127h107v-23h-77v-28h69v-22h-69v-31
h77v-23h-107zM1336 224v128h57q23 0 38 -8q33 -14 33 -55q0 -22 -9 -35q-16 -30 -62 -30h-57zM1366 249h26q13 0 23 5q19 11 19 35q0 16 -5 21q-9 18 -37 18h-26v-79zM1439 921q0 -26 23 -34q9 -4 25 -4q21 0 34 9q8 10 8 11h2v-19h37v88q0 19 -17 33q-22 10 -43 10
q-35 0 -53 -18q-9 -7 -12 -20l39 -4q4 16 25 16t21 -16v-1q0 -7 -15 -10q-2 -1 -9 -1.5t-10 -0.5q-25 -2 -39 -10q-16 -9 -16 -29zM1448 439v127h22l66 -76v76h29v-127h-25l-64 78v-78h-28zM1477 922q0 7 12 14q4 2 12 2q19 2 28 6v-13q0 -15 -15 -21q-12 -3 -16 -3
q-21 0 -21 15zM1482 224v128h105v-24h-76v-27h69v-23h-69v-29h76v-25h-105z" />
    <glyph glyph-name="_Typeface" horiz-adv-x="2096" 
d="M100 355v540h1896v-540h-1896zM274 522h38v159h3l122 -159h37v217h-39v-159h-2l-123 159h-36v-217zM502 602q0 -49 39 -72q17 -10 46 -10q52 0 74 39q12 21 12 43q0 53 -41 74q-15 10 -45 10q-51 0 -75 -38q-10 -21 -10 -46zM539 602q0 36 21 50q11 8 27 8q33 0 45 -29
q5 -13 5 -29q0 -34 -21 -48q-13 -8 -29 -8q-32 0 -44 29q-4 8 -4 27zM697 522h36v27h3q12 -17 26 -24q13 -5 27 -5q45 0 67 39q10 17 10 45q0 52 -39 72q-11 10 -38 10q-30 0 -44 -17q-8 -11 -9 -12h-3v82h-36v-217zM733 604q0 34 22 48q11 8 27 8q32 0 43 -27q5 -25 5 -29
q0 -36 -22 -50q-11 -8 -26 -8q-33 0 -44 27q-5 25 -5 31zM883 602q0 -51 41 -72q18 -10 45 -10q39 0 63 19q11 11 14 24l-33 5q-9 -17 -25 -19q-7 -5 -16 -5q-34 0 -46 24q-7 10 -7 27h130v9q0 42 -24 63q-23 19 -58 19q-51 0 -75 -38q-9 -19 -9 -46zM919 619q0 19 21 36
q8 5 27 5q34 0 41 -24q3 -3 5 -10l2 -7h-96zM1075 522h34v217h-34v-217zM1222 597q0 -48 46 -67q17 -10 50 -10q62 0 87 36q12 21 12 41v142h-39v-140q0 -32 -26 -43q-14 -7 -34 -7q-36 0 -53 24q-7 10 -7 26v140h-36v-142zM1453 522h36v97q0 26 22 36q10 5 21 5
q18 0 28.5 -10.5t10.5 -28.5v-99h36v104q0 41 -29 53q-14 7 -34 7q-41 0 -53 -29h-4v27h-34v-162zM1633 602q0 -49 39 -72q18 -10 46 -10q52 0 74 39q12 21 12 43q0 53 -41 74q-15 10 -45 10q-53 0 -75 -38q-10 -21 -10 -46zM1669 602q0 36 22 50q11 8 27 8q33 0 45 -29
q5 -13 5 -29q0 -35 -22 -48q-11 -8 -28 -8q-33 0 -44 29q-5 8 -5 27z" />
    <glyph glyph-name="_VendorID" horiz-adv-x="1106" 
d="M100 143v1104h906v-1104h-906zM103 59q0 12 7 19t17 7q8 0 11 -3l4 -5v24h12v-67h-12v9l-4 -7q-6 -4 -14 -4q-21 0 -21 27zM116 59q0 -16 12 -16q14 0 14 16v1q0 16 -13 16t-13 -17zM163 59q0 11 7 18.5t18 7.5q10 0 17 -7t7 -18q0 -2 -2 -5h-34q1 -12 12 -12q9 0 11 8
h11q-3 -19 -22 -19q-25 0 -25 27zM176 62h23q-3 14 -11 14q-11 0 -12 -14zM216 48h13q3 -8 8 -8q9 0 9 7q0 2 -11 8q-17 5 -17 15q0 15 19 15q20 0 20 -15h-13q-2 6 -7 6q-6 0 -6 -5q0 -4 11 -9q16 -3 16 -14q0 -16 -21 -16q-18 0 -21 16zM255 423q0 -56 39.5 -96t96.5 -40
q56 0 94.5 39.5t38.5 96.5q0 58 -37.5 96.5t-95.5 38.5q-11 0 -22 -3l79 112h-60l-90 -128q-43 -60 -43 -116zM255 861q0 -56 39.5 -95t96.5 -39q56 0 94.5 39t38.5 95q0 58 -37.5 96.5t-95.5 38.5q-15 0 -22 -2l79 114h-60l-90 -132q-43 -62 -43 -115zM265 95q0 6 8 6
q7 0 7 -6q0 -8 -7 -8q-8 0 -8 8zM266 34v51h13v-51h-13zM289 31v1h13v-1q0 -8 12 -8q10 0 14 12v8l-4 -7q-8 -2 -13 -2q-22 0 -22 25q0 26 24 26q8 0 11 -3l4 -5v8h13v-38q0 -8 -2 -11q0 -22 -25 -22t-25 17zM302 60q0 -17 12 -17q14 0 14 16v1q0 16 -14 16q-12 0 -12 -16z
M305 423q0 37 24 60.5t62 23.5q36 0 60 -23.5t24 -60.5q0 -39 -24 -63t-60 -24q-38 0 -62 24t-24 63zM305 861q0 39 24 62.5t62 23.5q36 0 60 -24.5t24 -61.5t-24 -61.5t-60 -24.5q-38 0 -62 24t-24 62zM351 34v51h13v-10l4 7q4 3 12 3q14 0 18 -14q1 -3 1 -9v-28h-14v32
q0 10 -9 10q-12 0 -12 -19v-23h-13zM406 59q0 11 7 18.5t18 7.5q26 0 26 -26q0 -27 -26 -27q-11 0 -18 7.5t-7 19.5zM419 59q0 -16 12 -16q14 0 14 16q0 17 -14 17q-12 0 -12 -17zM461 85h14l13 -42l12 42h13l-18 -51h-17zM517 48q0 15 28 15h3v7q0 6 -8 6q-11 0 -11 -8h-12
q0 17 23 17q17 0 19 -14v-37h-11v6l-3 -5q-6 -3 -13 -3q-15 0 -15 16zM529 48q0 -5 8 -5q11 0 11 8v6q-19 2 -19 -9zM568 74v9h5v7q0 14 18 14h5v-10q-10 2 -10 -5v-6h10v-9h-10v-40h-13v40h-5zM580 423q0 -57 39.5 -96.5t95.5 -39.5t94.5 39.5t38.5 96.5t-38 96t-95 39
q-13 0 -23 -3l80 112h-61l-90 -128q-41 -58 -41 -116zM580 861q0 -56 39.5 -95t95.5 -39t94.5 39t38.5 95q0 58 -38 96.5t-95 38.5q-16 0 -24 -2l81 114h-61l-90 -132q-41 -62 -41 -115zM600 59q0 26 26 26q25 0 25 -26q0 -27 -25 -27q-26 0 -26 27zM613 59q0 -16 13 -16
q12 0 12 16q0 17 -12 17q-13 0 -13 -17zM629 423q0 37 24 60.5t62 23.5q36 0 58.5 -23.5t22.5 -60.5q0 -39 -22.5 -63t-58.5 -24q-38 0 -62 24t-24 63zM629 861q0 38 24 62t62 24q36 0 58.5 -24t22.5 -62t-22.5 -62t-58.5 -24q-38 0 -62 24t-24 62zM660 34v51h11v-10l5 7
q4 3 12 3q14 0 18 -14v-37h-13v32q-3 10 -8 10q-14 0 -14 -19v-23h-11zM713 74v9h7v12h13v-12h9v-9h-9v-26q2 -9 8 -5v-10h-7q-14 0 -14 10v31h-7zM746 48h14q2 -8 9 -8q8 0 8 7q0 2 -11 8q-16 4 -16 15q0 15 18 15t23 -15h-15q0 6 -9 6q-4 0 -4 -5t10 -9q18 -4 18 -14
q0 -16 -22 -16q-19 0 -23 16zM794 39q0 9 9 9q8 0 8 -9q0 -7 -8 -7q-9 0 -9 7zM817 59q0 11 7.5 18.5t16.5 7.5q23 0 23 -19h-12q-3 10 -11 10q-11 0 -11 -17q0 -16 11 -16q9 0 11 8h12q-1 -19 -23 -19q-24 0 -24 27zM869 59q0 26 27 26q24 0 24 -26q0 -27 -24 -27
q-27 0 -27 27zM882 59q0 -16 14 -16q12 0 12 16q0 17 -12 17q-14 0 -14 -17zM929 34v51h13v-9l5 6q3 3 8 3q12 0 17 -10l5 7q3 3 10 3q16 0 16 -12q1 -3 1 -11v-28h-12v26q0 1 -0.5 3.5t-0.5 4.5q0 8 -10 8q-8 0 -8 -16v-26h-12v34q-5 8 -9 8q-10 0 -10 -16v-26h-13z" />
    <glyph glyph-name="crossbarcomb" horiz-adv-x="1446" 
d="M15 571v77h1415v-77h-1415z" />
    <glyph glyph-name="crossslashcomb" horiz-adv-x="543" 
d="M15 -206l421 1797h91l-423 -1797h-89z" />
    <glyph glyph-name="dotlessicomb" horiz-adv-x="364" 
d="M140 0v1006h82v-1006h-82z" />
    <glyph glyph-name="dotlessjcomb" horiz-adv-x="471" 
d="M-69 -414q138 -3 227.5 76t89.5 202v1142h81v-1142q0 -98 -51 -181q-52 -84 -142.5 -131t-204.5 -45v79z" />
    <glyph glyph-name="leftspikecomb" horiz-adv-x="284" 
d="M78 866l87 534h61l-67 -534h-81z" />
    <glyph glyph-name="rightspikecomb" horiz-adv-x="379" 
d="M69 866l66 534h82l-87 -534h-61z" />
    </font>
</defs>
</svg>
